<svg width="52" height="51" viewBox="0 0 52 51" fill="none" xmlns="http://www.w3.org/2000/svg">
<path d="M32.6057 1.4995C33.6354 0.979209 33.798 1.02799 34.5893 2.07399C34.676 2.1878 34.8548 2.30161 34.9957 2.30161C36.2477 2.31787 37.4942 2.31245 38.7462 2.31245C38.7191 2.23116 38.6866 2.15528 38.6595 2.07399C39.0605 1.81926 39.4291 1.40737 39.8626 1.33691C40.784 1.17974 41.4072 1.67835 41.4018 2.8761C41.391 4.11721 42.0034 4.58331 42.9898 4.88681C43.7106 5.10902 44.0195 5.52633 43.9491 6.31761C43.8949 6.93545 43.9762 7.57498 44.0846 8.1874C44.1496 8.52884 44.3339 8.9028 44.5778 9.14669C45.3148 9.88377 45.1848 11.0598 44.2092 11.5259C43.716 11.759 43.1415 11.9216 42.5996 11.9378C40.4425 12.0029 38.2801 12.1004 36.1501 11.5856C35.5594 11.4446 35.1908 11.2116 35.0391 10.5937C34.8873 9.98132 34.8765 9.40683 35.3805 8.98952C35.7166 8.71311 35.7816 8.41503 35.7437 8.03565C35.7437 7.99229 35.7437 7.94894 35.7437 7.90558C35.7545 7.23354 35.7111 6.55608 35.7979 5.90029C35.9008 5.1036 36.833 5.24993 37.2016 4.82177C36.8222 4.82177 36.4049 4.81635 35.9875 4.82177C35.4239 4.83261 34.8873 4.74048 34.6164 5.52091C34.4971 5.85693 33.8251 6.00327 33.294 6.29593C33.294 7.55872 33.294 8.97868 33.294 10.4041C33.294 10.7726 33.3048 11.1411 33.294 11.5097C33.2398 13.2873 31.2724 14.5881 29.5815 13.9485C28.5355 13.5529 27.6575 12.9947 27.5003 11.7156C27.419 11.0436 26.7524 11.423 26.2646 11.1682C26.2646 12.16 26.2646 13.0543 26.2646 13.9485C26.2646 14.3117 26.1237 14.6965 26.579 14.9566C26.6928 15.0216 26.6711 15.3522 26.6873 15.5636C26.7686 16.8589 26.7795 18.1596 26.9367 19.4441C27.1318 21.0646 28.1886 22.1323 29.7278 22.452C30.3348 22.5785 30.6889 22.994 30.7901 23.6986C31.7819 23.6173 32.7845 23.5143 33.7872 23.4655C34.2695 23.4438 34.779 23.4438 35.2342 23.5848C36.5295 23.975 37.8357 24.3706 39.0822 24.9017C40.0632 25.3191 41.0279 25.8556 41.8842 26.4897C44.0033 28.056 46.0899 29.6711 48.1277 31.3458C48.7238 31.8335 49.1845 32.5381 49.5639 33.2264C50.1167 34.2182 49.7807 35.21 48.7943 35.7682C48.3444 36.0175 47.8567 36.2181 47.3689 36.3752C46.9733 36.5053 46.7727 36.6462 46.7998 37.1286C46.9137 39.1122 46.9787 41.1012 47.0654 43.0848C48.3607 43.7623 49.7211 44.3205 50.6099 45.5399C50.9025 45.941 51.1519 46.3692 51.3741 46.8136C51.5583 47.1767 51.4391 47.4531 51.0001 47.4964C49.3308 47.6807 47.6616 47.8433 45.9923 48.0384C43.3963 48.3419 40.8057 48.6671 38.215 48.9814C35.5377 49.312 32.8604 49.6589 30.1831 49.9678C28.3187 50.1846 26.4489 50.3418 24.5791 50.5369C23.8745 50.6074 23.1754 50.7103 22.4654 50.7645C22.2432 50.7808 21.9939 50.7103 21.7879 50.6128C17.6907 48.6671 13.5934 46.716 9.5015 44.7595C9.1167 44.5752 8.74274 44.353 8.36336 44.1579C7.9623 43.952 8.09238 43.6701 8.24955 43.3992C8.86197 42.3315 9.73454 41.5239 10.8889 41.112C11.3442 40.9495 11.3767 40.7002 11.3713 40.3533C11.3605 37.974 11.3442 35.5894 11.3334 33.2101C11.3334 32.0612 11.3225 30.9176 11.3496 29.7686C11.3605 29.3947 11.2846 29.1508 10.8835 29.0749C10.7155 29.0424 10.5583 28.9557 10.4012 28.8852C9.28471 28.3974 8.88907 27.4653 9.37142 26.3488C9.46898 26.1212 9.70745 25.8556 9.92965 25.796C12.8129 25.0101 15.7504 24.5549 18.7258 24.3381C18.8017 24.3327 18.883 24.3544 18.9805 24.3706C19.0185 24.1376 19.0727 23.9479 19.0673 23.7582C19.0618 23.2596 19.3328 23.0211 19.7772 22.8965C22.2324 22.219 22.5521 21.0483 22.6388 19.3032C22.6985 18.0946 22.6822 16.8806 22.7581 15.6774C22.7743 15.3848 23.0182 15.1029 23.1537 14.8157C23.2025 14.7127 23.2892 14.6097 23.2892 14.5013C23.3 13.4011 23.2946 12.3064 23.2946 11.2279C22.3516 10.946 21.8313 11.217 21.6633 12.0408C21.2839 13.8672 20.4926 14.4472 18.341 14.1382C17.566 14.0244 17.0295 13.515 16.7747 12.7454C16.3357 11.4175 16.1731 10.0626 16.2165 8.66434C16.249 7.67253 16.2219 6.68073 16.2219 5.65641C14.6285 5.56427 13.0406 5.47756 11.4363 5.38542C11.3008 5.86235 11.3984 6.22005 11.8753 6.51272C12.7642 7.04927 13.6259 7.62917 14.4768 8.21992C14.7044 8.37709 14.8562 8.6535 15.0404 8.8757C14.8345 9.04371 14.6394 9.23882 14.4117 9.37432C14.0378 9.5911 13.6584 9.81873 13.2573 9.95422C12.1192 10.339 11.6965 11.2875 11.3334 12.2901C11.29 12.4039 11.3063 12.6532 11.3605 12.6749C11.8699 12.8917 12.3902 13.0868 12.9213 13.2386C12.9918 13.2602 13.1652 12.9893 13.2573 12.8375C13.8264 11.8728 14.157 11.6831 15.0567 11.824C15.7775 11.9378 16.1569 12.4039 16.4279 13.0489C17.192 14.897 17.0186 16.7451 16.3249 18.539C15.9347 19.5579 15.306 20.4793 14.7911 21.4548C14.3846 22.2353 13.6638 22.3707 12.9159 22.2786C12.1192 22.1811 11.626 21.6391 11.355 20.8857C11.29 20.7069 11.2033 20.4684 11.0569 20.398C8.36878 19.0864 7.41491 16.8156 7.42033 13.9811C7.42033 13.3578 7.56125 12.7616 7.31736 12.095C6.86753 10.8539 6.02205 10.1277 4.90018 9.57484C4.53706 9.396 4.24981 9.06539 3.93005 8.79983C4.23897 8.52342 4.53164 8.21992 4.86224 7.97604C5.52344 7.49368 6.21174 7.05469 6.87295 6.57233C7.08431 6.41516 7.24148 6.18754 7.56125 5.85152C7.15477 5.819 6.93798 5.77564 6.72119 5.78648C5.2091 5.84068 3.697 5.93281 2.18491 5.95991C1.08471 5.97617 0.949219 5.82442 0.949219 4.72422C0.949219 4.18767 1.04677 3.6457 1.04135 3.10915C1.03051 2.50214 1.33402 2.29619 1.88683 2.33413C3.35014 2.44253 4.81346 2.55634 6.27678 2.67015C6.59654 2.69725 6.9163 2.72435 7.22523 2.74603C7.82681 1.05509 8.88365 0.540214 10.5909 1.1418C10.851 1.23393 11.0786 1.57538 11.2033 1.8572C11.3334 2.13902 11.3171 2.48588 11.3713 2.83274C13.4254 2.69183 15.4632 2.55092 17.5389 2.41001C17.2625 1.93849 17.6039 1.70545 17.9833 1.59705C19.387 1.196 20.7853 0.746162 22.2161 0.475178C24.9422 -0.0396934 27.6846 0.041602 30.3944 0.659447C31.1207 0.822038 31.7981 1.18516 32.6111 1.50492L32.6057 1.4995ZM10.076 26.3542C10.0489 26.5656 10.0326 26.6469 10.0218 26.7336C9.87546 27.9801 9.8863 27.9368 11.0461 28.3649C12.7696 28.999 14.4714 29.7578 15.8534 30.9772C17.5877 32.5056 19.1811 34.1911 20.8612 35.7845C21.815 36.6896 22.7635 37.6109 23.8095 38.3968C24.3135 38.7762 25.056 39.0959 25.6522 39.0417C27.7334 38.8412 29.7983 38.4564 31.8686 38.1475C35.5865 37.5947 39.3044 37.0527 43.0223 36.4999C44.8433 36.2289 46.6264 35.8062 48.3174 35.0583C48.7997 34.8469 48.984 34.5596 48.8918 33.996C48.7672 33.2427 48.4203 32.6519 47.8621 32.1804C46.3446 30.8959 44.8271 29.606 43.2716 28.3703C41.8083 27.2051 40.3829 25.9532 38.5348 25.3895C36.7842 24.853 35.1475 23.8612 33.1964 24.1701C32.416 24.2947 31.6193 24.3002 30.8334 24.3598C30.763 25.7201 30.3131 26.2729 29.0341 26.6252C28.8281 26.6848 28.6168 26.7228 28.4 26.7661C25.8256 27.2647 23.2513 27.2322 20.6769 26.7661C19.2299 26.506 19.2136 26.506 18.8884 25.0156C15.9564 25.46 13.0243 25.9098 10.0651 26.3596L10.076 26.3542ZM23.7607 39.2748C23.8745 41.589 23.9829 43.7731 24.0859 45.9193C31.5 45.0684 38.86 44.223 46.1928 43.3829V36.863C43.819 37.2641 41.4669 37.7139 39.1039 38.0553C35.8792 38.5214 32.6436 38.9225 29.408 39.3235C27.5708 39.5512 25.7335 39.898 23.7553 39.2748H23.7607ZM23.2458 45.5454C23.2458 44.1362 23.2296 42.7325 23.2458 41.3343C23.2675 40.001 23.132 38.8954 21.9289 37.8819C19.7935 36.0717 17.9291 33.9364 15.9022 31.9907C14.764 30.8959 13.382 30.1372 11.9675 29.5573C11.9675 30.7821 11.9566 31.9636 11.9675 33.1451C12 35.5677 12.0433 37.9849 12.1084 40.4075C12.1084 40.5918 12.3143 40.8573 12.4877 40.9278C14.531 41.8004 16.5905 42.6296 18.6337 43.5021C20.1946 44.1688 21.7392 44.8787 23.235 45.5454H23.2458ZM22.9207 49.8594L23.0778 50.0979C32.1504 49.0031 41.2284 47.9083 50.4419 46.7919C50.2034 46.4504 50.1004 46.2228 49.927 46.0819C49.1574 45.4641 48.3878 44.8462 47.5803 44.2826C47.3472 44.12 46.9787 44.0495 46.686 44.0766C43.8353 44.391 40.9845 44.7432 38.1392 45.063C33.7438 45.5616 29.3484 46.0386 24.953 46.5426C24.7634 46.5643 24.487 46.6618 24.4111 46.8027C23.8908 47.8054 23.4139 48.8351 22.9261 49.854L22.9207 49.8594ZM32.5515 5.87319C31.9065 5.75938 31.435 6.12792 31.4729 6.8379C31.5 7.37987 31.5651 7.91642 31.5759 8.45297C31.5868 9.10875 31.2128 9.46645 30.5462 9.50439C29.4677 9.56401 28.3891 9.63988 27.3106 9.68866C25.0614 9.79705 22.8177 9.89461 20.5685 9.98132C20.1404 9.99758 19.6743 9.78621 19.2895 9.90003C18.7312 10.068 18.6174 9.81331 18.5686 9.40683C18.4765 8.63724 18.4006 7.86222 18.3519 7.08179C18.341 6.93545 18.4874 6.77286 18.5578 6.62111C18.6662 6.7566 18.8288 6.88126 18.8667 7.03843C19.0347 7.79177 19.1702 8.55594 19.3274 9.35264C23.1374 9.11959 26.9529 8.89196 30.8334 8.6535V6.42058C30.7738 6.43142 30.6979 6.43684 30.6166 6.4531C26.7199 7.29315 22.8231 7.38529 18.9209 6.49646C18.3735 6.37181 17.799 6.29593 17.6744 5.57511C17.4143 5.59137 17.1866 5.60221 16.9102 5.61847C16.9102 6.50188 17.0132 7.36361 16.8885 8.18198C16.6663 9.63988 16.9807 11.0111 17.3221 12.3877C17.4576 12.9296 17.7665 13.3686 18.3681 13.5095C19.5334 13.7914 20.601 13.7047 20.8829 11.8782C21.0509 10.778 21.5549 10.4095 22.6714 10.3607C23.8095 10.3119 23.9829 10.4854 23.9721 11.6397C23.9612 12.6749 23.9721 13.7101 23.9721 14.8157C24.3027 14.8157 24.552 14.8265 24.8067 14.8157C25.7606 14.7561 25.7606 14.7073 25.6847 13.7751C25.6143 12.9134 25.6359 12.0462 25.6522 11.1845C25.6522 11.0165 25.7714 10.7997 25.9069 10.6913C26.5248 10.2144 28.0748 10.7021 28.2482 11.4609C28.465 12.4093 29.1045 12.87 29.9337 13.1627C31.1965 13.6071 32.5189 12.7454 32.584 11.4392C32.6002 11.114 32.5623 10.7889 32.5569 10.4691C32.5569 8.94074 32.5569 7.41781 32.5569 5.86777L32.5515 5.87319ZM23.4355 15.569C23.4355 15.8238 23.4355 16.0351 23.4355 16.2465C23.4247 17.2871 23.4355 18.3222 23.3922 19.3628C23.3217 21.1893 22.6551 22.6472 20.8178 23.3246C20.4601 23.4547 20.0753 23.5251 19.6309 23.639C19.6743 24.4086 19.7176 25.1781 19.761 25.9965C22.0264 26.4138 24.2647 26.7173 26.5356 26.3054C27.4461 26.1374 28.3566 25.9532 29.2454 25.7039C29.4948 25.6334 29.8145 25.3082 29.847 25.0698C29.9121 24.5278 29.8199 23.9641 29.7928 23.3842C29.6411 23.3463 29.5002 23.3084 29.3538 23.2813C27.587 22.9723 26.3893 21.7963 26.1616 20.0078C25.999 18.7504 25.9611 17.4768 25.869 16.2086C25.8527 15.9809 25.869 15.7533 25.869 15.5636H23.4355V15.569ZM22.1727 49.8649C22.5142 48.7755 22.861 47.659 23.2296 46.4776C22.4654 46.1415 21.6958 45.8055 20.9316 45.4641C18.1188 44.2013 15.2952 42.9493 12.4986 41.6486C11.9566 41.3939 11.5014 41.3993 11.084 41.7299C10.3361 42.3206 9.63699 42.971 8.84029 43.6593C13.4091 45.7892 17.7882 47.827 22.1727 49.8703V49.8649ZM20.7853 6.10624C23.8041 6.4531 26.7361 6.50188 29.6086 5.79732V1.35859C26.6061 0.903333 23.6686 0.952111 20.7853 1.48866V6.11166V6.10624ZM14.2329 14.2737C14.092 14.2087 14.054 14.1707 14.0161 14.1707C12.8292 14.1545 11.6965 13.9811 10.7589 13.1627C10.6938 13.1031 10.5475 13.0976 10.4499 13.1139C9.7779 13.2277 9.10586 13.3361 8.44466 13.4987C8.29291 13.5366 8.10864 13.7751 8.08696 13.9431C7.76719 16.1544 9.56653 18.9672 11.7073 19.6772C12.13 19.8181 12.439 19.7801 12.6124 19.3628C13.0189 18.3927 13.447 17.428 13.7776 16.4308C14.0107 15.7262 14.092 14.9729 14.2329 14.2737ZM36.432 8.53968H43.2662C43.2662 7.72131 43.2662 6.94629 43.2662 6.17128C43.2662 6.0412 43.2825 5.83526 43.2174 5.80274C42.5942 5.47756 41.9601 4.93559 41.3151 4.91933C39.7434 4.88139 38.1229 4.88681 36.6813 5.72144C36.5133 5.819 36.2802 6.01411 36.2802 6.16044C36.2965 6.95171 36.3723 7.74299 36.432 8.53968ZM4.91102 8.82151C6.06541 9.50981 7.13309 10.4528 8.74816 10.3553C10.6505 10.2469 12.439 9.98132 13.9727 8.75647C13.1869 8.1874 12.4065 7.6075 11.6098 7.06011C11.4526 6.95171 11.225 6.91919 11.0244 6.89752C9.97843 6.79454 8.93243 6.69699 7.88643 6.61569C7.7401 6.60485 7.54499 6.60485 7.44743 6.68615C6.5857 7.39071 5.74565 8.11695 4.91644 8.82151H4.91102ZM39.3532 9.43935C38.1554 9.37432 37.1799 9.30928 36.2098 9.2876C36.0201 9.2876 35.7545 9.40683 35.6461 9.564C35.3047 10.0518 35.5865 10.6859 36.1556 10.8647C38.1392 11.4717 40.177 11.3308 42.2039 11.2766C42.7513 11.2604 43.3312 11.1411 43.819 10.9081C44.1062 10.7726 44.3718 10.3444 44.4152 10.0138C44.4368 9.84041 43.9924 9.54233 43.7052 9.41225C43.445 9.29302 43.1144 9.27676 42.8164 9.28218C41.5861 9.32554 40.3558 9.396 39.3532 9.44477V9.43935ZM12.065 20.8966C12.7533 21.9263 13.7072 21.9317 14.4117 20.7774C14.7152 20.2842 15.0458 19.791 15.2735 19.2598C16.0918 17.3467 16.623 15.3956 15.8534 13.3199C15.642 12.7399 15.2789 12.431 14.6502 12.4581C14.0757 12.4852 13.9727 12.9351 13.7722 13.3361C14.7911 13.5204 15.0567 13.7534 14.9266 14.5664C14.6339 16.4253 14.26 18.268 13.1706 19.856C12.9051 20.2462 12.4715 20.5172 12.0596 20.8966H12.065ZM7.274 5.00062V3.30968C5.37169 3.2067 3.49648 3.09831 1.61042 2.99534C1.56706 3.81371 1.52913 4.53453 1.48577 5.34748C3.44228 5.22825 5.32833 5.11444 7.274 4.9952V5.00062ZM10.5096 6.1767C10.5096 4.773 10.5204 3.47769 10.4933 2.1878C10.4933 2.03063 10.2874 1.75965 10.1573 1.74339C9.69119 1.68377 9.18715 1.61873 8.75358 1.74339C8.44466 1.8301 8.02192 2.20406 8.00024 2.47504C7.91895 3.62944 7.9623 4.79467 7.9623 6.0412C8.87281 6.08998 9.72912 6.13334 10.5096 6.17128V6.1767ZM11.4309 3.22296V4.83803H17.6744C17.6256 4.23103 17.5823 3.72699 17.5389 3.22296H11.4309ZM18.1188 2.10109C18.2272 3.39639 18.3356 4.6104 18.4386 5.82442C19.0347 5.88945 19.5388 5.94365 20.097 6.00327V1.57538C19.4033 1.75965 18.7529 1.93308 18.1188 2.10109ZM30.4215 1.4724V5.65641C30.828 5.52091 31.099 5.39626 31.3862 5.33664C31.874 5.23909 32.0312 4.97352 31.9932 4.48033C31.9445 3.83539 31.9986 3.18502 31.977 2.54008C31.977 2.37749 31.8957 2.1336 31.771 2.06857C31.3429 1.83552 30.8768 1.66751 30.4161 1.4724H30.4215ZM8.17909 12.5665C8.97037 12.4961 9.73996 12.4256 10.5096 12.3443C10.618 12.3335 10.7697 12.2684 10.8076 12.1817C11.0136 11.7536 11.187 11.3146 11.3659 10.8864H7.33362C7.61002 11.4338 7.89727 12.0029 8.18451 12.5665H8.17909ZM35.0174 2.81649V4.12805H38.6757V2.81649H35.0174ZM34.3291 3.47769C34.1557 3.05495 33.966 2.51298 33.7059 1.99811C33.6462 1.87888 33.3265 1.78132 33.191 1.83552C32.985 1.92224 32.687 2.13902 32.6815 2.31245C32.6599 3.10915 32.6815 3.91668 32.7899 4.70254C32.8224 4.93017 33.1856 5.25535 33.4186 5.27161C33.6354 5.28787 33.9768 5.00062 34.0907 4.76758C34.2478 4.42614 34.2424 4.01424 34.3345 3.47769H34.3291ZM40.8761 4.2798C40.7677 3.60776 40.7027 2.97366 40.5347 2.36665C40.4859 2.1878 40.139 2.01979 39.9114 1.99269C39.7813 1.97643 39.5103 2.242 39.4887 2.40459C39.4074 3.01159 39.402 3.62944 39.3694 4.2798H40.8761Z" fill="#F7F8C5"/>
<path d="M32.8212 34.3258C30.3444 34.2716 28.2199 33.9627 26.3284 32.7704C25.9491 32.5319 25.5859 32.2447 25.2716 31.9249C24.0793 30.7055 24.1768 29.1554 25.6076 28.2341C26.3881 27.73 27.2932 27.3398 28.1928 27.1393C31.1195 26.4781 34.0353 26.5431 36.8047 27.8059C37.5852 28.1636 38.3276 28.7273 38.9184 29.356C39.8181 30.3152 39.6988 31.4913 38.7612 32.4235C37.6664 33.5074 36.2573 33.9248 34.794 34.1524C34.0515 34.2662 33.2928 34.2879 32.8267 34.3258H32.8212ZM30.8051 27.2585C29.4719 27.2043 27.9164 27.4862 26.4856 28.2612C25.716 28.6785 24.9627 29.1988 24.9789 30.196C24.9898 31.1716 25.6889 31.7731 26.4694 32.1688C29.8241 33.8651 33.3036 34.1415 36.8535 32.8246C37.7477 32.494 38.6474 31.9953 38.7124 30.8843C38.7775 29.7462 37.9266 29.1717 37.0649 28.6839C35.2167 27.6325 33.2006 27.2694 30.8105 27.2694L30.8051 27.2585Z" fill="#F7F8C5"/>
</svg>
