<svg width="69" height="75" viewBox="0 0 69 75" fill="none" xmlns="http://www.w3.org/2000/svg">
<path d="M36.5697 19.6941C36.5737 19.2151 36.8102 18.9325 37.3494 18.8643C37.7603 18.8122 38.1792 18.8343 38.5961 18.8262C39.9831 18.8002 41.3401 19.0227 42.681 19.3554C43.3104 19.5117 43.9558 19.616 44.5671 19.8224C45.1764 20.0269 45.7497 20.3315 46.3409 20.5861C46.6556 20.7224 46.9803 20.8326 47.287 20.9829C47.6418 21.1593 47.9805 21.3698 48.3273 21.5642C48.3754 21.5902 48.4255 21.6243 48.4776 21.6283C49.2172 21.7025 49.9588 21.7747 50.6984 21.8448C50.7285 21.8468 50.7585 21.8348 50.8387 21.8207C50.7124 21.494 50.6162 21.1733 50.4659 20.8767C50.1693 20.2914 49.8746 19.7001 49.5198 19.1489C49.3134 18.8262 48.9927 18.5757 48.7241 18.2931C48.6419 18.2069 48.5237 18.1327 48.4876 18.0285C48.4435 17.9062 48.4094 17.7038 48.4736 17.6317C48.7802 17.2969 48.7381 16.878 48.8183 16.4872C48.8364 16.395 48.8784 16.3088 48.9065 16.2206C48.9346 16.1324 48.9887 16.0422 48.9807 15.958C48.9025 15.1603 48.8183 14.3605 48.3874 13.653C48.1008 13.182 47.8582 12.6749 47.5135 12.25C47.2509 11.9253 46.8561 11.7088 46.5293 11.4342C46.4452 11.364 46.351 11.2538 46.3449 11.1576C46.3389 11.0734 46.4291 10.9251 46.5093 10.899C46.7518 10.8189 46.826 10.6264 46.9082 10.424C47.5836 8.75437 47.9144 7.00457 48.1469 5.23071C48.211 4.73764 48.1449 4.28065 47.9164 3.83368C47.8101 3.62723 47.7761 3.38671 47.7019 3.16222C47.6819 3.10409 47.6438 3.04998 47.6057 2.99987C47.3191 2.63307 47.0244 2.27429 46.7458 1.90349C46.5875 1.69303 46.4432 1.46854 46.3149 1.24004C46.1104 0.873248 46.2127 0.646756 46.6195 0.552551C46.7318 0.526495 46.8721 0.518478 46.9723 0.562574C47.3752 0.746974 47.7901 0.917344 48.1569 1.16188C49.0769 1.7732 49.8526 2.54889 50.5781 3.37869C51.0371 3.90183 51.5322 4.3949 51.9812 4.92605C52.1997 5.18461 52.368 5.49328 52.5284 5.79394C52.6827 6.08256 52.7028 6.39123 52.6547 6.72596C52.5584 7.38539 52.7529 8.01276 52.9673 8.62809C53.1998 9.29354 53.4504 9.95097 53.6989 10.6084C53.7971 10.871 53.8974 11.1315 54.0136 11.3861C54.3824 12.1958 54.3042 13.0016 54.0276 13.8174C53.9274 14.112 53.8272 14.4167 53.8051 14.7233C53.7911 14.9158 53.8693 15.1743 54.0036 15.3066C54.2441 15.5431 54.5488 15.7215 54.8394 15.8999C55.128 16.0763 55.3044 16.3048 55.3866 16.6435C55.8235 18.4615 55.6632 20.3275 55.8275 22.1655C55.8957 22.9231 55.9318 23.6828 55.9799 24.4424C55.9879 24.5727 55.9799 24.705 55.9799 24.8373C55.9558 24.8413 55.9298 24.8473 55.9057 24.8513C55.8576 24.7291 55.7955 24.6128 55.7654 24.4865C55.3645 22.841 55.0639 21.1814 55.0378 19.4797C55.0258 18.7601 54.9597 18.0405 54.9196 17.323C54.9055 17.0905 54.7993 16.9301 54.6029 16.7938C54.3022 16.5834 54.0276 16.3368 53.741 16.1063C53.6789 16.0562 53.6167 16.0041 53.5486 15.966C53.0635 15.6874 52.9573 15.3006 53.1277 14.7614C53.3281 14.122 53.4885 13.4686 53.6227 12.8112C53.717 12.3502 53.5406 11.9152 53.3762 11.4843C53.1036 10.7748 52.827 10.0672 52.5925 9.34365C52.3881 8.71428 52.2197 8.07088 52.0794 7.42548C52.0193 7.15088 52.0614 6.85224 52.0794 6.56561C52.1115 6.07655 51.8589 5.70575 51.5763 5.35699C51.2837 4.99821 50.961 4.66348 50.6443 4.32274C49.7383 3.34863 48.8323 2.37651 47.9224 1.40841C47.742 1.21599 47.5415 1.04362 47.3551 0.86924C47.2048 0.92937 47.0725 0.979479 46.9162 1.04161C47.0184 1.18793 47.1046 1.33024 47.2068 1.46253C47.6438 2.02575 48.0927 2.57895 48.5237 3.14618C49.1571 3.98 49.6521 4.89398 50.069 5.85206C50.2154 6.18679 50.3657 6.54557 50.3897 6.90235C50.4278 7.48561 50.7505 7.95663 50.8988 8.4918C51.0492 9.03097 51.2596 9.5521 51.432 10.0853C51.5262 10.3739 51.6084 10.6685 51.6745 10.9652C51.7387 11.2558 51.7387 11.5484 51.5162 11.8711C51.444 11.7228 51.3839 11.6266 51.3498 11.5224C50.9329 10.2616 50.524 8.99689 50.1051 7.73816C50.045 7.55777 49.9508 7.3874 49.8706 7.21302C49.7483 6.94644 49.7924 6.84221 50.0169 6.77006C49.5499 6.02243 49.0789 5.26479 48.6319 4.54923C48.5658 6.77807 48.1749 8.99289 47.2369 11.1375C48.5357 12.1016 49.5499 13.3363 50.4378 14.7354C50.4899 14.4748 50.5381 14.2142 50.5922 13.9537C50.7164 13.3584 50.8347 12.7611 50.975 12.1718C51.0011 12.0636 51.1153 11.9613 51.2155 11.8952C51.2696 11.8571 51.3839 11.8872 51.4581 11.9132C51.4781 11.9212 51.4661 12.0395 51.454 12.1036C51.3077 12.8733 51.1594 13.643 51.0131 14.4127C50.995 14.5069 50.995 14.6111 50.953 14.6933C50.8006 14.9959 50.9149 15.2625 51.0712 15.505C51.4099 16.0282 51.7808 16.5313 52.1195 17.0564C52.4101 17.5074 52.6767 17.9724 52.9493 18.4354C53.0094 18.5376 53.0615 18.6519 53.0816 18.7681C53.2319 19.6581 53.3762 20.548 53.5105 21.4399C53.5265 21.5502 53.4784 21.6744 53.4424 21.7867C53.4203 21.8528 53.3602 21.9049 53.3181 21.9651C53.262 21.913 53.1878 21.8689 53.1577 21.8047C53.1116 21.7065 53.0876 21.5943 53.0716 21.484C52.9653 20.7805 52.8791 20.073 52.7489 19.3754C52.7068 19.1489 52.5705 18.9325 52.4482 18.73C52.1235 18.1969 51.7848 17.6717 51.444 17.1506C51.2255 16.8159 50.9289 16.5172 50.7806 16.1544C50.516 15.501 50.045 14.9919 49.6802 14.4107C49.5419 14.1882 49.3795 13.9797 49.2513 13.7993C49.3635 14.3525 49.4898 14.9338 49.596 15.5191C49.6381 15.7536 49.6421 15.9961 49.6581 16.2366C49.6622 16.2988 49.6461 16.3649 49.6281 16.425C49.5239 16.7998 49.4176 17.1727 49.3094 17.5455C49.2833 17.6377 49.2452 17.7259 49.1891 17.8782C49.2493 17.9243 49.3475 17.9824 49.4256 18.0606C50.2795 18.9365 51.1654 19.7903 51.8649 20.7985C52.2177 21.3096 52.4803 21.8829 52.7809 22.4301C52.803 22.4682 52.797 22.5203 52.817 22.6506C52.6526 22.5163 52.5284 22.4381 52.4342 22.3339C52.3119 22.1976 52.2097 22.0432 52.1055 21.8909C51.6966 21.2976 51.2917 20.7043 50.8848 20.111C50.8628 20.079 50.8327 20.0529 50.7866 20.0309C51.0893 20.6923 51.5242 21.3116 51.418 22.1074C51.6685 22.2216 51.9271 22.3439 52.1876 22.4581C53.2339 22.9111 54.1258 23.6086 55.0599 24.242C55.4768 24.5246 55.8356 24.8573 56.1422 25.2502C56.2184 25.3464 56.2865 25.4727 56.2946 25.5909C56.3066 25.7633 56.3807 25.8475 56.517 25.9477C56.7876 26.1441 57.0382 26.3686 57.2747 26.6051C57.6274 26.9539 57.9622 27.3207 58.3129 27.6875C58.3651 27.6514 58.4152 27.6153 58.4673 27.5833C58.8581 27.3347 59.2369 27.3788 59.5416 27.7256C59.7962 28.0142 59.9786 28.3349 59.9906 28.7358C59.9926 28.83 60.0407 28.9362 60.0948 29.0164C60.4215 29.4894 60.7603 29.9564 61.091 30.4274C61.1511 30.5116 61.2213 30.5998 61.2473 30.696C61.3676 31.145 61.6843 31.4677 61.9408 31.8325C62.4519 32.5601 62.931 33.3097 63.4581 34.0253C63.851 34.5584 64.2919 35.0555 64.7229 35.5606C64.9113 35.7811 65.0215 36.0076 65.0516 36.3082C65.0897 36.679 65.1698 37.0578 65.3121 37.4006C65.721 38.3907 65.9716 39.423 66.2361 40.4552C66.8194 42.7181 67.4207 44.9791 68.002 47.242C68.2305 48.1339 68.4309 49.0319 68.6434 49.9278C68.7075 50.1984 68.7015 50.463 68.6073 50.7295C68.5412 50.918 68.5091 51.1164 68.447 51.3068C68.4249 51.377 68.3668 51.4351 68.3147 51.5133C68.3147 51.6115 68.3467 51.7417 68.3087 51.846C68.1663 52.2448 68.002 52.6337 67.8416 53.0366C67.6713 53.0105 67.4989 53.0606 67.4327 52.8502C67.4267 52.8281 67.3646 52.8121 67.3285 52.8121C67.0459 52.8041 66.9477 52.6197 66.8956 52.3811C66.7954 51.9201 66.7112 51.4551 66.5849 51.0001C66.4626 50.5632 66.3243 50.1222 66.1259 49.7153C66.0497 49.557 65.7972 49.4628 65.6048 49.3906C65.3602 49.2984 65.0897 49.2744 64.8411 49.1942C64.1436 48.9677 63.4321 48.9878 62.7225 49.0679C62.0891 49.1381 61.5399 49.4367 61.0268 49.8116C59.7922 50.7115 58.8701 51.84 58.4693 53.3372C58.3951 53.6118 58.3811 53.9285 58.4372 54.2071C58.5615 54.8224 58.7459 55.4278 58.9142 56.0351C58.9323 56.0972 58.9884 56.1593 59.0405 56.2014C59.8002 56.8268 60.5578 57.4582 61.3315 58.0675C61.4878 58.1918 61.6803 58.2338 61.7404 58.4804C61.8246 58.8372 61.7244 59.1077 61.3736 59.208C61.0509 59.3002 60.7242 59.3904 60.3935 59.4305C59.2329 59.5728 58.0744 59.7351 56.9079 59.8133C54.4405 59.9776 51.9752 59.9837 49.5599 59.3162C48.1188 58.9173 46.6757 58.5265 45.2345 58.1256C45.0221 58.0655 44.8196 57.9653 44.5911 57.8731C44.5851 57.9572 44.5771 58.0254 44.5771 58.0915C44.5731 58.781 44.5671 59.4705 44.5711 60.158C44.5731 60.6611 44.4488 61.1221 44.1081 61.5992C44.046 61.2604 43.9818 60.9738 43.9457 60.6832C43.9237 60.5128 43.8836 60.3765 43.7774 60.2302C43.623 60.0217 43.4968 59.7772 43.4146 59.5307C43.0738 58.5084 42.5206 57.6005 41.9454 56.7045C41.8812 56.6043 41.7991 56.5121 41.745 56.4059C41.4102 55.7324 40.8109 55.3295 40.2257 54.9146C40.1675 54.8725 40.1074 54.8264 40.0392 54.8064C39.5662 54.6621 39.1854 54.4075 38.9629 53.9365C38.9629 53.9606 38.9509 53.9866 38.9589 54.0087C39.448 55.6863 39.8669 57.378 40.1074 59.1118C40.2978 60.4827 40.4942 61.8557 40.7368 63.2187C41.0314 64.8803 41.2278 66.5639 41.7089 68.1895C42.208 69.8771 42.9035 71.4826 43.7714 73.014C44.0159 73.4449 44.2223 73.8959 44.4428 74.3408C44.4669 74.3869 44.4669 74.4451 44.4809 74.5152C44.4107 74.5152 44.3566 74.5232 44.3045 74.5152C43.9658 74.4531 43.6311 74.3589 43.2903 74.3288C42.7572 74.2827 42.3322 74.0422 41.9594 73.6834C41.9073 73.6333 41.8512 73.5892 41.7991 73.5431C41.4182 73.8297 41.2579 73.8197 40.9552 73.475C40.5965 73.0681 40.2437 72.6592 39.8909 72.2523C40.1936 72.9959 40.5023 73.7495 40.8209 74.5312C39.0952 74.405 37.4857 74.0682 36.0666 73.0801C36.0486 73.1021 36.0325 73.1222 36.0145 73.1442C36.1548 73.5952 36.2951 74.0462 36.4434 74.5252C36.3593 74.4892 36.3031 74.4651 36.249 74.4411C34.9121 73.8438 33.7376 72.9678 32.4888 72.2182C32.3846 72.1561 32.3044 72.0138 32.2664 71.8935C31.7673 70.268 31.1279 68.6825 30.8092 67.0029C30.7972 66.9408 30.7791 66.8746 30.7471 66.8225C30.0977 65.7883 29.7709 64.6277 29.4984 63.4612C28.3899 58.7289 27.2896 53.9966 26.2473 49.2503C25.664 46.5926 25.1148 43.9228 24.744 41.2229C24.6879 40.81 24.6298 40.3971 24.6037 39.9822C24.5917 39.8038 24.5316 39.7337 24.3692 39.7337C23.5775 39.7297 22.7858 39.7297 21.994 39.7276C21.988 39.7276 21.982 39.7357 21.964 39.7477C21.984 39.8058 22.0041 39.868 22.0462 39.9942C21.6754 39.8379 21.3507 39.7156 21.038 39.5673C19.8233 38.988 18.5686 38.5491 17.2157 38.4308C16.2716 38.3487 15.3456 38.493 14.4196 38.6333C13.8343 38.7215 13.245 38.7836 12.6598 38.8798C12.1908 38.958 11.7257 39.0702 11.2287 39.1744C11.2166 39.1183 11.1806 39.0141 11.1705 38.9059C11.0944 38.0761 10.7376 37.3565 10.3147 36.659C9.45882 35.2459 8.38248 34.0172 7.11573 32.973C6.52244 32.4839 5.82092 32.1231 5.15547 31.7263C5.00916 31.6401 4.8007 31.6541 4.62031 31.624C4.16332 31.5499 3.70432 31.4797 3.24733 31.4036C3.15312 31.3875 3.04489 31.3875 2.97073 31.3374C2.87251 31.2713 2.74424 31.1731 2.73221 31.0769C2.72018 30.9827 2.83042 30.8644 2.90058 30.7682C3.00881 30.6179 3.16715 30.4916 3.23731 30.3272C3.49186 29.7319 3.74842 29.1346 3.94885 28.5193C4.07312 28.1365 4.17334 27.7176 4.14728 27.3227C4.1072 26.6753 3.7865 26.09 3.31548 25.6651C2.82842 25.2261 2.24114 24.8994 1.69796 24.5186C1.61979 24.4645 1.53762 24.4044 1.4855 24.3282C1.05457 23.7048 0.846113 23.0113 0.830078 22.2818C1.23295 22.2818 1.62781 22.2737 2.02267 22.2838C2.4035 22.2938 2.78432 22.3459 3.16515 22.3419C3.78249 22.3379 4.39783 22.2757 5.01316 22.2858C6.27591 22.3098 7.54066 22.3399 8.80139 22.412C12.8041 22.6425 16.7206 23.3982 20.595 24.4044C20.9658 24.5006 21.3406 24.5827 21.7134 24.6709C21.7275 24.6749 21.7435 24.6649 21.7575 24.6629C21.6413 24.3041 21.5391 23.9414 21.4068 23.5886C21.1362 22.865 21.0801 22.1094 21.034 21.3497C21.028 21.2575 21.056 21.1573 21.0921 21.0711C21.2023 20.8206 21.1783 20.7284 20.9618 20.56C20.8295 20.4578 20.7012 20.3496 20.589 20.2273C20.5389 20.1732 20.5028 20.077 20.5108 20.0068C20.5669 19.4977 20.2703 19.1089 20.0558 18.706C19.7311 18.0927 19.3583 17.5034 18.9935 16.9121C18.6869 16.415 18.7109 16.0763 19.0296 15.5832C19.3904 15.026 19.5968 14.4046 19.653 13.7352C19.675 13.4726 19.7271 13.21 19.7311 12.9455C19.7371 12.5927 19.663 12.262 19.3082 12.0716C19.1539 11.9894 18.9915 11.9052 18.8693 11.785C18.8051 11.7228 18.7891 11.5705 18.8091 11.4723C18.8713 11.1676 18.9655 10.869 19.0356 10.5643C19.0877 10.3378 19.1479 10.1093 19.1519 9.88081C19.1619 9.49798 19.3764 9.22138 19.5768 8.93476C19.6089 8.88866 19.6971 8.88265 19.7612 8.85859C19.7772 8.93075 19.7933 9.0009 19.8073 9.07306C19.8073 9.07907 19.8013 9.08909 19.7973 9.09511C19.5046 9.44386 19.4585 9.86678 19.3904 10.2977C19.3243 10.7126 19.1719 11.1155 19.0476 11.5504C19.5628 11.5825 19.9576 11.8651 20.3725 12.1097C22.0662 13.1158 23.7599 14.126 25.3333 15.3166C27.039 16.6074 28.6685 17.9964 30.1778 19.5157C30.4725 19.8104 30.7731 20.099 31.0577 20.4037C31.164 20.5179 31.2441 20.6642 31.3063 20.8065C31.3824 20.9809 31.2963 21.0771 31.1119 21.013C30.9675 20.9629 30.8192 20.8807 30.711 20.7745C29.9072 19.9928 29.1496 19.159 28.3058 18.4214C26.556 16.89 24.722 15.4669 22.7437 14.2343C21.9299 13.7272 21.1181 13.2141 20.2723 12.6849C20.2663 12.7811 20.2663 12.8392 20.2603 12.8974C20.1901 13.5007 20.1681 14.116 20.0298 14.7053C19.9296 15.1322 19.6951 15.5331 19.4806 15.9239C19.3283 16.2045 19.3042 16.2887 19.4846 16.5774C19.8354 17.1406 20.1941 17.6998 20.5208 18.2771C20.7293 18.6439 20.8917 19.0387 21.066 19.4235C21.1021 19.5017 21.1322 19.5999 21.1121 19.6781C21.062 19.8926 21.1642 19.9908 21.3126 20.1311C21.515 20.3215 21.6593 20.5801 21.7976 20.8266C21.8397 20.9008 21.8096 21.0751 21.7475 21.1333C21.5411 21.3257 21.5932 21.5482 21.6132 21.7787C21.6754 22.5343 21.8818 23.2539 22.1203 23.9694C22.2165 24.256 22.3127 24.5407 22.417 24.8233C22.431 24.8594 22.4851 24.8894 22.5272 24.9034C23.4793 25.2001 24.4333 25.4927 25.3914 25.7874C25.4035 24.5807 26.0729 23.771 26.9889 23.1476C27.4058 22.863 27.9009 22.6967 28.3599 22.4762C28.3879 22.4621 28.426 22.4601 28.4461 22.4401C28.6064 22.2777 28.7628 22.1114 28.9291 21.939C28.9231 21.935 28.899 21.915 28.875 21.9049C27.7405 21.4479 26.5981 21.011 25.4716 20.534C23.9543 19.8906 22.449 19.2191 20.9378 18.5597C20.9157 18.5496 20.8937 18.5416 20.8716 18.5316C20.7574 18.4735 20.599 18.4093 20.6812 18.259C20.7213 18.1869 20.9077 18.1347 20.9979 18.1628C21.4629 18.3091 21.9299 18.4615 22.3769 18.6519C23.5394 19.1489 24.6939 19.6641 25.8484 20.1812C26.7103 20.566 27.5682 20.9589 28.426 21.3557C28.6786 21.472 28.9191 21.6163 29.1696 21.7386C29.322 21.8127 29.4563 21.8067 29.5986 21.6724C29.6807 21.5963 29.8311 21.5682 29.9533 21.5662C30.256 21.5602 30.5627 21.5622 30.8633 21.5983C31.2622 21.6464 31.5187 21.4279 31.7312 21.1573C31.9356 20.8967 32.088 20.5961 32.2804 20.2894C30.6769 18.7381 29.1115 17.2127 27.5341 15.7015C25.6179 13.8655 23.6116 12.1337 21.5431 10.4701C21.0821 10.0993 20.597 9.75655 20.128 9.39376C20.0117 9.30356 19.9215 9.17729 19.8173 9.06905C19.8374 9.04099 19.8554 9.01293 19.8754 8.98487C19.9596 9.00892 20.0478 9.02095 20.126 9.05702C20.9538 9.43585 21.7295 9.90888 22.413 10.5042C22.9742 10.9952 23.6356 11.2778 24.287 11.6005C26.135 12.5145 28.0272 13.3483 29.7128 14.569C31.1279 15.5952 32.1561 16.9101 32.8617 18.4935C33.03 18.8703 33.2746 19.181 33.5952 19.4255C33.6454 19.4636 33.7015 19.4997 33.7416 19.5478C34.1665 20.0649 34.7538 20.0469 35.341 20.0409C35.4453 20.0409 35.5495 20.081 35.6818 20.107C35.8962 19.8625 36.0786 19.4736 36.5517 19.6941C36.5116 19.8204 36.5056 19.9747 36.4294 20.0689C36.0867 20.4899 35.7379 20.9088 35.3631 21.3016C35.1727 21.5001 35.1446 21.7045 35.2188 21.933C35.3671 22.388 35.5254 22.841 35.6978 23.2859C35.7279 23.3661 35.8341 23.4383 35.9203 23.4723C36.5076 23.7048 37.1009 23.9193 37.6881 24.1538C38.0529 24.2981 38.4117 24.4645 38.7845 24.6268C38.7164 23.9474 38.3917 23.2939 38.7845 22.6325C38.6542 22.4942 38.522 22.3659 38.4017 22.2276C38.1311 21.9129 37.8565 21.6023 37.602 21.2756C37.3233 20.9188 37.0608 20.548 36.8042 20.1752C36.702 20.0289 36.6339 19.8585 36.5517 19.7001L36.5697 19.6941ZM29.336 42.3854C29.9854 42.3854 30.6348 42.3814 31.2822 42.3854C32.3024 42.3954 33.3166 42.3333 34.3148 42.1188C34.9241 41.9886 35.5174 41.7701 36.1308 41.6739C36.5396 41.6097 36.8062 41.4293 37.0147 41.1066C37.0488 41.0525 37.0888 41.0024 37.1289 40.9523C37.3574 40.6637 37.3153 40.4452 36.9866 40.2829C36.6138 40.1005 36.227 39.9441 35.8582 39.7557C35.1647 39.4009 34.7197 38.8437 34.5593 38.0721C34.5413 37.9859 34.4832 37.8977 34.421 37.8335C33.8197 37.2222 33.2164 36.6149 32.6091 36.0116C32.2864 35.6889 31.9577 35.3722 31.627 35.0575C31.5769 35.0094 31.5147 34.9673 31.4506 34.9493C31.2201 34.8831 30.9816 34.845 30.7571 34.7689C30.0776 34.5404 29.4322 34.2357 28.9211 33.7186C28.5443 33.3378 28.2055 32.9189 27.8628 32.506C27.5642 32.1492 27.3337 31.7583 27.4138 31.2613C27.4319 31.145 27.4699 31.0247 27.4639 30.9085C27.3998 29.6518 27.1392 28.4491 26.4858 27.3548C26.4197 27.2425 26.2914 27.1363 26.1691 27.0962C24.716 26.6312 23.2708 26.1341 21.7996 25.7332C18.8913 24.9375 15.9609 24.22 12.9765 23.771C11.1565 23.4984 9.32854 23.2579 7.49656 23.0895C6.02336 22.9532 4.53813 22.9512 3.05892 22.8871C2.53177 22.865 2.00663 22.835 1.42337 22.8069C1.56968 23.1015 1.69796 23.3721 1.84027 23.6387C1.87234 23.6968 1.94049 23.7409 1.99862 23.779C2.29727 23.9654 2.59391 24.1578 2.89857 24.3322C3.72036 24.7972 4.31765 25.4546 4.71452 26.3165C4.95103 26.8316 5.05325 27.3488 4.94301 27.902C4.75059 28.858 4.42789 29.762 3.85465 30.5397C7.65891 31.7563 10.0521 34.4662 11.7518 37.9458C11.7718 37.9338 11.828 37.9057 11.8801 37.8696C12.6858 37.3224 13.5497 36.9035 14.4857 36.6169C16.8028 35.9094 19.1419 35.4023 21.5872 35.5385C22.5493 35.5927 23.4272 35.9354 24.3291 36.206C24.3832 36.222 24.4173 36.3142 24.4594 36.3704C24.3893 36.3844 24.3171 36.4185 24.251 36.4084C23.6276 36.3102 23.0103 36.1479 22.3849 36.1118C20.9438 36.0276 19.5026 36.0677 18.0755 36.3122C15.9309 36.681 13.8403 37.2262 11.8901 38.2324C11.7578 38.3005 11.7237 38.3627 11.8099 38.4829C11.9823 38.4288 12.1467 38.3647 12.317 38.3286C12.9123 38.2023 13.5096 38.0921 14.1049 37.9618C15.7485 37.601 17.3921 37.5068 19.0236 37.9939C19.8815 38.2504 20.6912 38.6353 21.4709 39.0802C21.9059 38.6052 23.1927 37.9438 24.3792 37.583C25.5498 37.2282 27.0791 37.1961 27.6263 37.5209C25.8164 37.8997 23.9363 38.0239 22.3488 39.1344C23.7559 38.7215 25.0767 38.982 26.3475 39.6214C27.6042 40.2508 28.7648 40.9844 29.336 42.3854ZM34.1164 24.6549C33.5632 24.7752 33.0601 24.8994 32.551 24.9896C32.2523 25.0417 32.0198 25.1821 31.8555 25.4166C31.6851 25.6571 31.5648 25.9317 31.4085 26.1822C31.2141 26.4889 31.2141 26.7855 31.4045 27.0922C31.4666 27.1924 31.5087 27.3087 31.5528 27.4209C32.0479 28.6676 32.1381 29.9885 32.2503 31.3033C32.2964 31.8285 32.3185 31.8766 32.8516 31.9047C33.2244 31.9247 33.6093 31.8906 33.934 32.1412C33.9741 32.1712 34.0402 32.1793 34.0943 32.1752C34.7257 32.1372 35.3691 32.1592 35.9844 32.041C37.6601 31.7203 39.3437 31.4577 41.0414 31.2993C41.6828 31.2392 42.3643 31.2132 42.9275 31.6441C43.4607 32.051 43.9898 32.4659 44.4889 32.9149C44.976 33.3538 45.427 33.8328 45.8859 34.3019C46.0944 34.5143 46.3229 34.6246 46.6316 34.6065C47.3972 34.5644 48.1529 34.6667 48.8905 34.8591C50.2113 35.2038 51.4761 35.6969 52.6767 36.3443C53.0876 36.5668 53.5366 36.7853 53.8412 37.12C54.6951 38.064 55.3926 39.1063 55.3345 40.4713C55.3265 40.6777 55.5509 40.8741 55.7534 40.8801C56.6333 40.9002 57.5112 40.9222 58.3911 40.9383C58.4492 40.9383 58.5334 40.9062 58.5635 40.8601C58.7339 40.5935 58.9443 40.331 58.7479 39.9842C58.7298 39.9541 58.7399 39.906 58.7399 39.8659C58.7439 39.417 58.7399 38.97 58.7539 38.521C58.7599 38.3106 58.822 38.1021 58.82 37.8937C58.814 37.5249 58.7018 37.1761 58.4552 36.8995C58.2889 36.7131 58.0504 36.5948 57.884 36.4104C57.3889 35.8592 57.1524 35.1838 57.0041 34.4682C56.98 34.356 56.9119 34.2437 56.8397 34.1515C56.5772 33.8208 56.2585 33.5262 56.044 33.1674C55.6171 32.4478 55.2463 31.6942 54.8614 30.9706C54.7632 31.0909 54.663 31.0408 54.6189 30.8664C54.5668 30.6579 54.5187 30.4455 54.5107 30.233C54.4946 29.8903 54.5307 29.5435 54.5107 29.2008C54.4726 28.5253 54.647 27.908 54.9556 27.3167C55.12 27 55.2683 26.6753 55.4146 26.3726C55.2122 26.2524 55.0378 26.1662 54.8855 26.0539C54.4606 25.7413 54.0437 25.4166 53.6248 25.0959C52.7168 24.3983 51.8088 23.6988 50.9049 22.9993C50.7866 22.9091 50.6784 22.7909 50.7826 22.6305C50.8908 22.4621 51.0472 22.5082 51.1855 22.5924C51.4861 22.7748 51.7928 22.9512 52.0754 23.1577C53.1758 23.9594 54.2541 24.7892 55.3685 25.5689C55.8396 25.8996 56.026 26.3225 55.9338 26.8417C55.8295 27.4209 55.6371 27.9841 55.4888 28.5534C55.4467 28.7137 55.3886 28.8781 55.3886 29.0404C55.3886 29.4794 55.4066 29.9203 55.4367 30.3593C55.4507 30.5657 55.4587 30.7942 55.5529 30.9666C56.0921 31.9528 56.5431 32.999 57.3929 33.7827C57.5393 33.919 57.6214 34.0613 57.5473 34.2718C57.5192 34.35 57.5573 34.4502 57.5653 34.5404C57.6996 34.2638 57.7798 33.9792 57.89 33.7066C58.0464 33.3217 58.1766 32.9148 58.4051 32.5761C58.7158 32.1151 59.0185 31.6802 59.1227 31.1089C59.265 30.3292 59.4554 29.5556 59.3953 28.7578C59.3793 28.5393 59.275 28.3149 59.1648 28.1184C59.0485 27.914 58.9122 27.926 58.7298 28.0824C58.5996 28.1926 58.4573 28.2868 58.2909 28.4111C58.4051 28.6937 58.4472 29.0164 58.1325 29.3391C58.0945 29.1727 58.0644 29.0384 58.0323 28.9061C57.9401 28.5253 57.9842 28.1024 57.6856 27.7857C57.1484 27.2145 56.6333 26.6232 56.0741 26.076C55.6191 25.629 55.2443 25.1059 54.6991 24.7471C53.9775 24.2721 53.3001 23.7249 52.5665 23.2719C51.8649 22.841 51.1935 22.3559 50.2755 22.3619C49.2954 22.3679 48.3152 22.1956 47.3351 22.1254C46.4271 22.0613 45.5131 22.0613 44.6072 21.9691C44.2083 21.929 43.9397 22.0533 43.7132 22.3238C43.2161 22.9211 42.7331 23.5285 42.2501 24.1358C41.7329 24.7852 41.2238 25.4446 40.6987 26.088C40.6406 26.1582 40.4982 26.1602 40.394 26.1922C40.38 26.082 40.3559 25.9718 40.3559 25.8615C40.3559 25.8114 40.396 25.7573 40.4261 25.7112C41.1416 24.6108 41.755 23.4423 42.6329 22.4521C42.9395 22.1074 43.2683 21.7827 43.599 21.4359C42.1779 20.8807 40.7388 20.3195 39.2996 19.7583C39.3077 19.7362 39.3157 19.7122 39.3237 19.6901C39.3538 19.6921 39.3878 19.6901 39.4159 19.6981C40.5443 20.0529 41.6708 20.4117 42.8013 20.7604C43.0959 20.8506 43.4026 20.8987 43.6992 20.9809C44.1762 21.1112 44.6873 21.1834 45.1083 21.4159C45.3528 21.5502 45.5572 21.5882 45.8018 21.5882C46.2688 21.5882 46.7378 21.5882 47.2048 21.5882C47.1687 21.5121 47.1226 21.488 47.0805 21.458C46.7799 21.2495 46.3409 21.1974 46.2507 20.7404C46.2447 20.7103 46.1585 20.6843 46.1064 20.6743C45.7617 20.6101 45.4149 20.556 45.0702 20.4879C43.9718 20.2734 42.8674 20.077 41.775 19.8344C40.7207 19.5999 39.6584 19.4937 38.5821 19.4937C38.1832 19.4937 37.7823 19.4937 37.3835 19.5077C37.3113 19.5097 37.2432 19.5659 37.173 19.5959C37.2111 19.6701 37.2432 19.7503 37.2913 19.8184C37.5599 20.1932 37.8325 20.566 38.105 20.9388C38.2233 21.0992 38.3275 21.2736 38.4618 21.4179C38.7324 21.7125 39.021 21.9911 39.3016 22.2757C39.472 22.4461 39.5241 22.6686 39.3758 22.839C39.1333 23.1196 39.1593 23.4282 39.2235 23.7469C39.3317 24.2881 39.458 24.8253 39.5582 25.3685C39.5762 25.4627 39.5041 25.5729 39.474 25.6771C39.3838 25.613 39.2716 25.5649 39.2115 25.4787C39.1273 25.3584 39.0812 25.2121 39.0491 25.142C38.8286 25.1039 38.6582 25.1039 38.5119 25.0458C37.7322 24.7331 36.9606 24.4044 36.1809 24.0877C35.9844 24.0075 35.762 23.9794 35.5776 23.8812C35.4052 23.789 35.2328 23.6567 35.1246 23.4964C35.0304 23.3581 35.0304 23.1577 34.9823 22.9853C34.88 22.6245 34.7458 22.2697 34.6736 21.9029C34.6054 21.5542 34.5934 21.1934 34.9582 20.9569C35.0043 20.9268 35.0244 20.8587 35.0544 20.8106C34.6896 20.7785 34.3389 20.7484 34.0162 20.7204C33.8578 21.8648 33.928 22.9953 33.5792 24.0857C33.6935 24.0436 33.8217 23.9694 33.956 23.9534C34.0903 23.9373 34.2326 23.9814 34.381 24.0015C34.4311 23.8371 34.5453 23.757 34.7458 23.8792C34.7858 23.9033 34.8339 23.9173 34.878 23.9333C35.9804 24.2941 37.0708 24.687 38.1111 25.2101C38.526 25.4186 38.9509 25.605 39.3738 25.7934C39.5241 25.8595 39.6644 25.9357 39.6123 26.1241C39.5562 26.3265 39.3818 26.3646 39.2054 26.3185C39.0451 26.2764 38.8908 26.2043 38.7384 26.1341C37.9888 25.7914 37.2492 25.4286 36.4935 25.1039C35.8 24.8052 35.0885 24.5487 34.379 24.2701C34.383 24.3122 34.3769 24.3943 34.399 24.4665C34.6656 25.3284 34.7718 26.2183 34.882 27.1082C34.9462 27.6294 35.0905 28.1425 35.2027 28.6576C35.2549 28.9001 35.1907 29.0725 35.0143 29.1106C34.7999 29.1547 34.7017 29.0264 34.6656 28.84C34.5413 28.1886 34.401 27.5392 34.3088 26.8838C34.2427 26.4087 34.2467 25.9257 34.2086 25.4466C34.1885 25.176 34.1485 24.9095 34.1184 24.6589L34.1164 24.6549ZM44.0239 40.0684C44.4188 39.8259 44.7976 39.5352 45.2205 39.3468C46.1185 38.948 47.0505 38.6232 47.9524 38.2324C48.9586 37.7975 49.9929 37.7073 51.0572 37.9037C51.911 38.062 52.7368 38.3046 53.4424 38.8477C53.6508 39.0081 53.8693 39.1564 54.0978 39.3228C53.9755 38.6633 53.715 38.1121 53.1998 37.7033C53.0054 37.5489 52.829 37.3645 52.6166 37.2402C52.0173 36.8875 51.3999 36.5668 50.7986 36.22C49.5178 35.4844 48.1368 35.1317 46.6636 35.1798C46.1786 35.1958 45.8158 35.0234 45.5011 34.6767C45.006 34.1315 44.525 33.5723 43.9938 33.0632C43.7152 32.7966 43.3665 32.5681 43.0077 32.4298C42.5287 32.2434 42.0075 32.1612 41.5064 32.0329C41.3681 31.9989 41.2278 31.9187 41.0955 31.9327C40.1094 32.041 39.1233 32.1552 38.1391 32.2915C37.1329 32.4318 36.1328 32.6002 35.1286 32.7525C35.0003 32.7725 34.868 32.7685 34.6656 32.7786C34.9742 33.1373 35.2007 33.4901 35.5114 33.7426C35.9945 34.1355 36.5136 34.4903 37.0508 34.807C38.4358 35.6227 39.8448 36.3984 41.2318 37.2142C41.7009 37.4908 42.1298 37.8335 42.6209 38.1763C42.7111 38.1342 42.8654 38.046 43.0317 37.9919C43.1901 37.9418 43.3585 37.9277 43.5609 37.8917C43.3845 38.2484 42.3783 38.6393 42.0997 38.4549C42.1879 38.4068 42.2641 38.3667 42.3543 38.3186C42.2701 38.2444 42.228 38.1963 42.1759 38.1622C41.5124 37.7313 40.865 37.2703 40.1796 36.8795C38.8727 36.1358 37.5358 35.4443 36.225 34.7047C35.7199 34.4201 35.2007 34.1315 34.8339 33.6545C34.6375 33.3979 34.411 33.1433 34.5012 32.7665C34.4551 32.7605 34.409 32.7465 34.3609 32.7485C33.6915 32.7645 33.0441 32.6503 32.3966 32.4699C31.9998 32.3596 31.7853 32.1532 31.7252 31.7623C31.7031 31.62 31.6951 31.4757 31.6791 31.3334C31.635 30.9626 31.5909 30.5918 31.5468 30.219C31.5167 30.219 31.4867 30.217 31.4546 30.215C31.4085 30.5417 31.3564 30.8664 31.3223 31.1951C31.3023 31.3815 31.2762 31.5359 31.0096 31.4857C30.9976 31.7503 30.9816 31.9969 30.9736 32.2434C30.9575 32.7786 30.9455 33.3117 30.9375 33.8469C30.9375 33.899 30.9615 33.9832 30.9996 34.0012C31.174 34.0914 31.3524 34.1796 31.5388 34.2377C31.8374 34.3299 32.118 34.4121 32.3546 34.6546C33.2285 35.5566 34.1224 36.4425 35.0183 37.3244C35.2368 37.5389 35.4513 37.7333 35.3992 38.0781C35.3932 38.1202 35.4252 38.1683 35.4433 38.2124C35.6056 38.5872 35.8682 38.8658 36.241 39.0382C36.6479 39.2266 37.0568 39.407 37.4596 39.6054C37.7803 39.7617 37.8465 39.9942 37.6982 40.3109C37.6741 40.365 37.6942 40.4412 37.7022 40.5073C37.7443 40.8681 37.7583 41.2449 37.4296 41.4694C36.69 41.9745 35.9383 42.4696 35.0424 42.672C34.9783 42.6861 34.9161 42.7101 34.874 42.7242C35.1085 43.0008 35.3591 43.2513 35.5555 43.5379C35.7579 43.8346 35.9423 44.1533 36.0686 44.486C36.1769 44.7686 36.1889 45.0873 36.247 45.3899C36.263 45.4721 36.263 45.5643 36.3031 45.6365C36.6599 46.2759 36.3613 46.8732 35.6357 46.9233C35.323 46.9433 35.0063 46.8952 34.6896 46.8772C34.9021 47.0756 35.1226 47.2821 35.343 47.4885C35.6457 47.7731 35.9764 48.0337 36.241 48.3524C36.3673 48.5047 36.4895 48.6009 36.6659 48.659C37.0387 48.7793 37.4156 48.8855 37.7783 49.0339C38.8747 49.4788 39.9631 49.9418 41.0575 50.3948C41.1677 50.4409 41.288 50.465 41.3621 50.489C41.3621 50.1242 41.3902 49.7875 41.3541 49.4568C41.318 49.104 41.2699 48.7372 41.1416 48.4105C40.9472 47.9214 40.6766 47.4625 40.4401 46.9914C40.404 46.9193 40.374 46.8471 40.3399 46.775C40.406 46.7689 40.4361 46.781 40.4562 46.803C40.9352 47.3081 41.308 47.8854 41.5846 48.5207C41.773 48.9517 41.783 49.4107 41.6928 49.8677C41.6608 50.028 41.5946 50.1804 41.5545 50.3006C41.9915 50.1804 42.4224 50.036 42.8634 49.9438C43.6311 49.7835 44.4087 49.6712 45.1744 49.5069C46.371 49.2503 47.5576 48.9457 48.7562 48.7011C49.4677 48.5568 50.1913 48.4486 50.9149 48.3985C51.6465 48.3484 52.3841 48.3905 53.1177 48.3905C53.1497 48.3905 53.1838 48.3704 53.2159 48.3584C53.1918 48.3744 53.1658 48.3925 53.1417 48.4085C52.9353 48.164 52.7509 47.8934 52.5163 47.6769C51.7206 46.9333 50.9309 46.1837 50.0931 45.4902C49.8165 45.2617 49.4056 45.1013 49.0468 45.0813C48.0988 45.0292 47.1888 44.8488 46.3169 44.494C45.6975 44.2415 45.0962 43.9428 44.545 43.6903C44.3566 43.7183 44.1702 43.8045 44.074 43.7444C43.9578 43.6722 43.9137 43.4778 43.8475 43.3335C43.8295 43.2934 43.8395 43.2393 43.8415 43.1912C43.8676 42.3594 43.8956 41.5256 43.9197 40.6937C43.9197 40.6296 43.9197 40.5394 43.8796 40.5013C43.4867 40.1405 43.0879 39.7838 42.685 39.435C42.5267 39.2987 42.3523 39.1825 42.22 39.0843C42.0997 39.4992 41.9855 39.894 41.8592 40.331C41.6628 40.1225 41.7129 39.9241 41.749 39.7317C41.8031 39.449 41.8692 39.1684 41.9173 38.8858C41.9594 38.6433 42.0396 38.5852 42.2501 38.7215C42.665 38.9921 43.0738 39.2747 43.4727 39.5713C43.6812 39.7276 43.8575 39.9241 44.0199 40.0744L44.0239 40.0684ZM57.8279 55.1512C57.8479 55.1411 57.868 55.1311 57.888 55.1211C57.888 54.7944 57.9 54.4677 57.886 54.143C57.8339 52.9544 58.2107 51.8961 58.9122 50.96C59.5135 50.1603 60.2471 49.4828 61.105 48.9657C62.1733 48.3223 63.3358 48.2201 64.5385 48.4827C64.9413 48.5709 65.3382 48.6791 65.727 48.7733C65.5146 48.2462 65.3021 47.719 65.0897 47.1959C64.791 46.4623 64.5224 45.7147 64.1777 45.0031C63.8931 44.4138 63.5523 43.8446 63.1655 43.3195C62.9951 43.089 62.9049 42.8945 62.9049 42.6199C62.9089 40.8621 62.7907 39.1163 62.4319 37.3906C62.3838 37.1561 62.3758 36.9055 62.2856 36.687C61.9268 35.8232 61.554 34.9633 61.1651 34.1115C60.7703 33.2456 60.189 32.502 59.6098 31.7603C59.4654 32.0209 59.3612 32.3035 59.1768 32.516C58.8701 32.8708 58.6858 33.2816 58.5174 33.7046C58.4172 33.9571 58.3831 34.2437 58.2468 34.4722C58.0103 34.8711 58.0223 35.2599 58.1426 35.6809C58.2789 36.1599 58.4853 36.5868 58.8842 36.9075C58.9744 36.9797 59.0546 37.0839 59.0946 37.1921C59.4775 38.2003 59.5817 39.2446 59.4715 40.3109C59.4454 40.5615 59.3392 40.802 59.271 41.0485C59.243 41.1487 59.2189 41.249 59.1929 41.3472C59.1067 41.5456 58.9343 41.4915 58.7519 41.4855C57.5834 41.4474 56.4148 41.4253 55.2463 41.3993C54.8133 41.3893 54.4445 41.3532 54.1319 40.9283C53.747 40.4071 53.2259 39.9882 52.6506 39.6515C52.1335 39.3488 51.5964 39.1183 51.0091 39.0021C50.6262 38.9259 50.2474 38.8077 49.8626 38.7535C49.4697 38.6994 49.0288 38.5852 48.678 38.7014C47.3812 39.1324 46.1124 39.6475 44.8377 40.1405C44.7635 40.1686 44.6733 40.2809 44.6693 40.357C44.6212 41.259 44.5851 42.1609 44.5591 43.0629C44.5591 43.121 44.6392 43.2112 44.7034 43.2373C45.2045 43.4477 45.7116 43.6482 46.2167 43.8486C47.4313 44.3316 48.1409 44.4619 49.4657 44.5381C49.8646 44.5601 50.2855 44.6323 50.5842 44.965C51.6344 46.1336 52.9894 47.0175 53.8212 48.3925C53.8613 48.4606 53.8853 48.5388 53.9174 48.6109C53.8392 48.637 53.7611 48.6851 53.6809 48.6871C53.5065 48.6911 53.3321 48.653 53.1597 48.6691C52.9393 48.6891 52.7228 48.7513 52.5023 48.7813C52.2538 48.8154 52.0032 48.8354 51.7226 48.8635C53.6208 51.1224 55.6391 53.219 57.8279 55.1471V55.1512ZM33.938 46.5665C33.3848 46.4082 32.8577 46.2719 32.3405 46.1095C31.3343 45.7948 30.3282 45.4741 29.33 45.1374C28.9411 45.0071 28.7888 44.7506 28.8329 44.3377C28.883 43.8787 28.9652 43.4237 29.0353 42.9486C28.7106 42.8484 28.5343 42.5738 28.3599 42.2912C28.1695 41.9805 27.951 41.6959 27.6123 41.4634C27.7325 41.8563 27.8788 42.199 27.941 42.5578C28.2917 44.5682 28.6345 46.5805 28.9532 48.5969C29.2258 50.3126 29.4603 52.0344 29.7128 53.7541C29.9092 55.093 30.1518 56.4259 30.2981 57.7708C30.5406 60.0318 30.7591 62.2967 31.166 64.5375C31.5789 66.8245 32.116 69.0814 32.7173 71.3243C32.7414 71.4105 32.8156 71.5107 32.8937 71.5488C33.5431 71.8775 34.1986 72.1942 34.854 72.5129C34.9301 72.5489 35.0063 72.583 35.1166 72.6351C35.0985 72.5409 35.0885 72.4888 35.0765 72.4367C34.8179 71.3704 34.5333 70.3121 34.3048 69.2398C33.962 67.6263 33.6975 65.9967 33.3347 64.3892C32.6452 61.3286 32.1902 58.2318 31.8575 55.1171C31.7031 53.6759 31.5849 52.2288 31.4025 50.7917C31.2441 49.545 31.0136 48.3083 30.8252 47.0656C30.7912 46.8451 30.7851 46.6166 30.8072 46.3981C30.8132 46.33 30.9515 46.2318 31.0377 46.2218C31.174 46.2077 31.17 46.324 31.172 46.4422C31.174 46.5906 31.2161 46.7429 31.2602 46.8852C31.7011 48.3143 31.9537 49.7815 32.1401 51.2587C32.4568 53.7782 32.6913 56.3097 33.0581 58.8211C33.3347 60.7132 33.7576 62.5833 34.1264 64.4614C34.4631 66.1731 34.8059 67.8848 35.1627 69.5925C35.3551 70.5165 35.5776 71.4345 35.8 72.3525C35.8221 72.4467 35.9243 72.569 36.0125 72.593C36.9505 72.8576 37.8946 73.1062 38.8366 73.3527C39.0611 73.4108 39.2896 73.4509 39.5582 73.509C39.1593 72.4608 38.7885 71.4726 38.4097 70.4885C38.2373 70.0395 38.0469 69.6005 37.8846 69.1476C37.8565 69.0694 37.9367 68.9531 37.9667 68.8549C38.063 68.885 38.1892 68.887 38.2514 68.9511C38.4017 69.1075 38.53 69.2879 38.6562 69.4662C39.1613 70.1778 39.6604 70.8933 40.1675 71.6049C40.2718 71.7492 40.392 71.8835 40.5043 72.0218C40.2918 71.2902 40.0573 70.5767 39.8128 69.8691C39.3938 68.6505 38.9629 67.4378 38.544 66.2192C37.9888 64.6017 37.5919 62.9401 37.3254 61.2564C36.9044 58.5906 36.5737 55.9108 36.1769 53.243C36.0285 52.2468 35.8081 51.2587 35.6056 50.2705C35.5014 49.7614 35.4553 49.2143 35.2248 48.7653C34.9322 48.2001 34.6054 47.6228 34.0843 47.2059C33.8959 47.0536 33.7917 46.8652 33.938 46.5725V46.5665ZM42.6589 50.6915C42.7892 50.8658 42.9175 51.0102 43.0137 51.1725C43.4587 51.9201 43.7814 52.7219 43.9978 53.5637C44.3085 54.7603 44.523 55.9749 44.5551 57.2136C44.5591 57.378 44.6092 57.4542 44.7775 57.4862C45.1864 57.5644 45.5913 57.6566 45.9962 57.7548C47.2088 58.0474 48.4195 58.3521 49.6321 58.6427C50.8808 58.9414 52.1375 59.1799 53.4283 59.1779C54.7492 59.1779 56.0721 59.1599 57.3929 59.1619C58.5895 59.1639 59.7721 59.0256 60.9507 58.8512C61.0268 58.8392 61.1331 58.779 61.1551 58.7169C61.1992 58.5966 61.1752 58.4884 61.0208 58.4102C60.644 58.2178 60.2632 58.0214 59.9204 57.7749C58.1686 56.5261 56.5391 55.1311 55.0198 53.6078C53.6889 52.2729 52.3841 50.916 51.3418 49.3365C51.2195 49.1501 51.1133 49.098 50.8868 49.1401C49.8385 49.3405 48.8163 49.7113 47.7239 49.6171C47.6718 49.6131 47.6157 49.6432 47.5616 49.6572C46.7218 49.8577 45.8859 50.0761 45.0401 50.2545C44.2504 50.4209 43.4527 50.5471 42.6589 50.6895V50.6915ZM36.0987 49.9458C36.0847 49.9519 36.0706 49.9559 36.0566 49.9619C36.0987 50.1603 36.1308 50.3627 36.1869 50.5572C36.69 52.317 36.9445 54.1269 37.2452 55.9248C37.4236 56.9811 37.5218 58.0515 37.6581 59.1158C37.8705 60.7854 38.1652 62.445 38.6101 64.0665C39.3738 66.8546 40.3319 69.5785 41.4283 72.2543C41.5666 72.591 41.7269 72.8416 42.0897 72.9719C42.4365 73.0961 42.7592 73.2906 43.152 73.485C43.0779 73.3447 43.0438 73.2645 42.9977 73.1923C42.1258 71.8414 41.5646 70.3522 41.0695 68.8349C40.4682 66.9909 40.2557 65.0647 39.9631 63.1605C39.6965 61.4288 39.5582 59.675 39.2575 57.9492C39.005 56.4941 38.562 55.071 38.2834 53.6178C38.1431 52.8902 37.8505 52.2809 37.4115 51.7117C36.9646 51.1304 36.5356 50.5351 36.0987 49.9458ZM67.4327 52.1166H67.4989C67.531 52.0384 67.567 51.9582 67.5931 51.876C67.7114 51.5012 67.8156 51.1244 67.9439 50.7536C68.012 50.5572 68.028 50.3768 67.9759 50.1723C67.3446 47.7551 66.7092 45.3398 66.0999 42.9186C65.729 41.4434 65.4023 39.9581 65.0516 38.4769C64.9273 37.9498 64.7209 37.4287 64.6788 36.8955C64.6467 36.5047 64.4483 36.2661 64.2378 36.0076C63.8931 35.5867 63.4922 35.2078 63.1815 34.7649C62.1874 33.3398 61.2233 31.8946 60.2491 30.4575C60.1529 30.3172 60.0587 30.1769 59.9405 30.0025C59.8503 30.4816 59.7681 30.9105 59.6879 31.3294C59.7861 31.3915 59.8984 31.4336 59.9705 31.5118C60.3393 31.9127 60.7222 32.3035 61.0549 32.7325C61.7544 33.6344 62.1352 34.7087 62.6083 35.731C62.8869 36.3343 63.0633 36.9596 63.1394 37.6171C63.1535 37.7353 63.1815 37.8536 63.2016 37.9718C63.388 39.0602 63.6124 40.1446 63.6004 41.257C63.5984 41.4554 63.6105 41.6598 63.6545 41.8523C63.7948 42.4716 63.9131 43.103 64.3781 43.588C64.3881 43.6001 64.3941 43.6161 64.4022 43.6301C64.8131 44.5942 65.238 45.5523 65.6348 46.5224C66.1119 47.6869 66.2321 48.9717 66.8254 50.1042C67.0118 50.459 67.0659 50.8819 67.1822 51.2727C67.2644 51.5533 67.3506 51.8339 67.4348 52.1146L67.4327 52.1166ZM36.249 48.8755C36.4956 49.2183 36.708 49.5169 36.9245 49.8136C37.8946 51.1364 38.8647 52.4593 39.8388 53.7782C39.8889 53.8443 39.9631 53.8984 40.0372 53.9405C40.3499 54.1169 40.6786 54.2652 40.9753 54.4637C41.3762 54.7342 41.749 55.0409 41.8412 55.564C41.8532 55.6302 41.9133 55.6863 41.9534 55.7464C42.5768 56.6504 43.2001 57.5504 43.6411 58.5646C43.7192 58.745 43.7974 58.9254 43.8996 59.1579C44.06 56.1974 43.5609 53.4274 42.2601 50.7777C42.1338 50.8518 41.9855 50.9059 41.8833 51.0061C41.6989 51.1885 41.4964 51.2266 41.2679 51.1465C41.0114 51.0583 40.7568 50.96 40.5103 50.8478C39.941 50.5912 39.3758 50.3287 38.8126 50.0641C38.105 49.7314 37.3995 49.3906 36.692 49.0579C36.5637 48.9978 36.4314 48.9517 36.251 48.8795L36.249 48.8755ZM29.815 61.4007C29.815 61.3426 29.817 61.3105 29.815 61.2785C29.6787 59.9716 29.5845 58.6588 29.3981 57.3599C28.8509 53.5477 28.2797 49.7394 27.6944 45.9311C27.4299 44.2094 27.2976 42.4596 26.6462 40.816C26.6241 40.7599 26.5981 40.6857 26.552 40.6597C26.097 40.4031 25.636 40.1546 25.1289 39.878C26.58 47.1137 28.1354 54.2532 29.813 61.3987L29.815 61.4007ZM25.64 25.8535C26.6702 26.2764 26.9749 26.7054 27.494 27.7757C27.951 28.7157 28.1334 29.7339 28.1735 30.7782C28.1795 30.9566 28.2116 31.147 28.2837 31.3094C28.402 31.58 28.5543 31.8345 28.7066 32.0891C28.887 32.3917 29.0734 32.6904 29.2679 32.983C29.334 33.0812 29.4122 33.2195 29.5725 33.0932C29.7068 32.987 29.9573 32.969 29.8371 32.6783C29.7529 32.4739 29.7088 32.2494 29.6707 32.0289C29.5906 31.5639 29.5064 31.0969 29.4603 30.6279C29.344 29.4493 29.2438 28.2688 29.1476 27.0882C29.1295 26.8597 29.1696 26.6252 29.1556 26.3947C29.1416 26.1542 29.0975 25.9156 29.4422 25.8655C29.344 25.6451 29.2478 25.4587 29.1797 25.2642C29.1296 25.1239 29.0774 24.9676 29.0915 24.8233C29.1476 24.2741 29.2278 23.7289 29.3019 23.1817C29.342 22.8911 29.3881 22.6024 29.4422 22.2477C29.1877 22.392 28.9772 22.4942 28.7828 22.6225C28.4661 22.835 28.1795 23.1015 27.8448 23.2799C26.7724 23.8552 26.0168 24.689 25.642 25.8535H25.64ZM29.5404 42.8665C29.5485 43.0549 29.5725 43.2473 29.5625 43.4357C29.5445 43.7303 29.4903 44.023 29.4783 44.3176C29.4743 44.3938 29.5525 44.5221 29.6226 44.5461C30.3001 44.7906 30.9776 45.0332 31.6651 45.2436C32.5891 45.5283 33.5211 45.7928 34.4531 46.0474C34.8199 46.1476 35.1987 46.2177 35.5776 46.2659C35.8061 46.2959 35.9243 46.0774 35.8121 45.865C35.768 45.7808 35.6938 45.7147 35.6357 45.6385C35.3871 45.3178 35.1406 44.9951 34.8881 44.6804C34.7057 44.4539 34.5373 44.2094 34.3188 44.023C33.9159 43.6762 33.483 43.3615 33.0581 43.0388C33.02 43.0108 32.9499 43.0188 32.8957 43.0228C31.7573 43.125 30.6288 43.0128 29.5445 42.8625L29.5404 42.8665ZM33.0721 19.9507C32.9478 20.2453 32.8236 20.5119 32.7214 20.7885C32.5229 21.3297 32.1421 21.7245 31.7031 22.0653C31.619 22.1314 31.4666 22.1294 31.3464 22.1234C30.9355 22.1054 30.5266 22.0713 30.1598 22.0452C30.0916 22.6065 30.0115 23.1356 29.9694 23.6668C29.9233 24.238 29.7409 24.8173 30.0596 25.3745C30.2801 25.7613 30.4745 26.1622 30.6609 26.521C30.7992 26.4328 30.9094 26.3626 31.0477 26.2764C31.1459 25.7753 31.3243 25.2823 31.7192 24.8614C32.1241 24.4284 32.6352 24.3142 33.1302 24.232C33.0982 24.0476 33.034 23.8792 33.0481 23.7189C33.1463 22.6686 33.2365 21.6143 33.3828 20.57C33.4289 20.2353 33.2325 20.1331 33.0741 19.9487L33.0721 19.9507ZM24.5476 12.1798C27.2254 14.6812 30.0415 17.0223 32.543 19.7402C32.5911 19.5779 32.6452 19.4316 32.6793 19.2792C32.6953 19.2071 32.6973 19.1129 32.6612 19.0547C32.4468 18.69 32.1922 18.3452 31.9998 17.9704C31.3464 16.6996 30.4123 15.6814 29.2298 14.8997C28.3899 14.3445 27.5181 13.8354 26.6462 13.3283C25.9567 12.9274 25.2471 12.5626 24.5456 12.1838L24.5476 12.1798ZM29.6988 26.3366C29.6286 28.4872 30.0215 30.5217 30.2981 32.6122C30.3522 32.0389 30.3883 31.5138 30.4604 30.9947C30.4905 30.7722 30.6028 30.5617 30.6749 30.3433C30.713 30.225 30.7952 30.0907 30.7691 29.9845C30.6468 29.4493 30.5085 28.9142 30.3462 28.389C30.2821 28.1806 30.2059 28.0102 30.5065 27.8799C30.24 27.3688 29.9834 26.8777 29.7008 26.3366H29.6988ZM35.4112 44.3697C35.4332 44.3537 35.4553 44.3377 35.4773 44.3216C35.2428 43.9889 35.0163 43.6482 34.7698 43.3235C34.6515 43.1671 34.4732 43.0489 34.5513 42.7923C34.2326 42.8464 33.938 42.8945 33.5752 42.9547C34.3429 43.2974 34.876 43.8346 35.4112 44.3697Z" fill="#F7F8C5"/>
<path d="M30.8334 21.3113C30.4525 21.1189 30.0717 20.9265 29.6909 20.7361C27.8609 19.8181 26.045 18.87 24.1949 17.9941C22.83 17.3487 21.4209 16.7975 20.0299 16.2042C19.9998 16.1922 19.9617 16.1862 19.9437 16.1662C19.8856 16.1 19.8335 16.0279 19.7773 15.9597C19.8595 15.9256 19.9457 15.8575 20.0259 15.8615C20.1922 15.8695 20.3586 15.9096 20.521 15.9477C21.8418 16.2684 23.0785 16.8176 24.2952 17.4089C25.7263 18.1044 27.1634 18.7919 28.5684 19.5375C29.2299 19.8882 29.8272 20.3573 30.4425 20.7902C30.6109 20.9085 30.7371 21.0909 30.8815 21.2452C30.8654 21.2672 30.8474 21.2893 30.8314 21.3113H30.8334Z" fill="#F7F8C5"/>
<path d="M27.5461 21.5977C27.5902 21.6397 27.7005 21.6979 27.6965 21.75C27.6924 21.8342 27.6343 21.9504 27.5642 21.9905C27.1052 22.2471 26.6141 22.4515 26.1772 22.7381C25.4436 23.2192 24.73 23.7363 24.0325 24.2675C23.8301 24.4218 23.7118 24.6824 23.5454 24.8868C23.5013 24.9409 23.4232 24.969 23.361 25.0091C23.349 24.9309 23.3009 24.8327 23.329 24.7766C23.4753 24.4939 23.5955 24.1793 23.806 23.9508C24.7901 22.8905 25.9467 22.0807 27.3437 21.6498C27.3978 21.6337 27.4519 21.6217 27.5461 21.5997V21.5977Z" fill="#F7F8C5"/>
<path d="M24.5437 30.2558C24.5437 30.4643 24.4675 30.5064 24.2831 30.3921C23.8061 30.0975 23.3331 29.7968 22.864 29.4922C20.4749 27.9448 17.8772 26.9346 15.0731 26.4455C13.4336 26.1589 11.78 26.0868 10.1244 26.0587C8.83557 26.0366 7.54276 26.1389 6.26398 25.9204C5.79296 25.8402 5.33196 25.6999 4.86895 25.5776C4.78677 25.5556 4.7066 25.5055 4.64446 25.4474C4.6144 25.4213 4.60839 25.3351 4.63043 25.297C4.64847 25.265 4.72865 25.2369 4.76673 25.2489C5.87313 25.6037 7.01962 25.5215 8.15008 25.5035C10.1204 25.4714 12.0926 25.4434 14.0529 25.6658C16.1595 25.9044 18.1979 26.4375 20.1542 27.2854C21.4991 27.8686 22.7518 28.5982 23.9664 29.406C24.2791 29.6124 24.4916 29.895 24.5457 30.2578L24.5437 30.2558Z" fill="#F7F8C5"/>
<path d="M4.17974 30.2053C4.28597 30.1592 4.3902 30.077 4.49843 30.073C6.19411 30.0069 7.8898 29.9247 9.58548 29.9007C11.4295 29.8746 13.2555 30.0811 15.0874 30.3076C16.7891 30.52 18.4307 30.9449 20.0683 31.4079C20.8139 31.6184 21.5575 31.8389 22.2931 32.0854C22.7541 32.2397 23.1971 32.4502 23.648 32.6326C23.8545 32.7168 24.0669 32.7909 24.2674 32.8872C24.3455 32.9252 24.3997 33.0114 24.4638 33.0756C24.3716 33.0916 24.2734 33.1337 24.1872 33.1177C22.5537 32.831 20.9762 32.336 19.3908 31.8629C18.3585 31.5543 17.3103 31.2676 16.248 31.1013C13.9951 30.7525 11.7362 30.4238 9.44518 30.4479C8.0281 30.4619 6.61102 30.4358 5.19394 30.4158C4.86322 30.4118 4.53451 30.3577 4.20379 30.3256C4.19577 30.2855 4.18575 30.2434 4.17773 30.2033L4.17974 30.2053Z" fill="#F7F8C5"/>
<path d="M24.9779 31.3145C25.0621 31.3686 25.1402 31.3986 25.1903 31.4548C25.503 31.7975 25.8297 32.1302 26.1123 32.497C26.5413 33.0542 26.9341 33.6395 27.353 34.2067C27.4853 34.3871 27.6397 34.5515 27.8 34.7078C28.0866 34.9884 28.3813 35.257 28.6759 35.5296C28.9505 35.7862 29.2191 36.0267 29.638 36.0568C29.9928 36.0828 30.3435 36.1931 30.6943 36.2792C32.1314 36.634 33.334 37.3636 34.26 38.5321C34.3302 38.6203 34.4164 38.6945 34.4785 38.7867C34.5086 38.8288 34.4986 38.8989 34.5066 38.9551C34.4484 38.9571 34.3743 38.9851 34.3362 38.9591C34.0696 38.7827 33.785 38.6243 33.5525 38.4079C32.6044 37.5259 31.5421 36.8825 30.2453 36.6701C29.8986 36.614 29.5518 36.5498 29.2151 36.4536C29.0387 36.4035 28.8563 36.3013 28.722 36.173C27.8782 35.3793 27.0023 34.6277 26.3929 33.6054C25.9861 32.924 25.4248 32.3347 24.9378 31.6993C24.8857 31.6311 24.8576 31.5329 24.8516 31.4447C24.8496 31.4067 24.9318 31.3626 24.9839 31.3145H24.9779Z" fill="#F7F8C5"/>
<path d="M33.8377 38.9336C33.9039 38.9937 33.978 39.0498 34.0362 39.116C34.1985 39.3024 34.3468 39.5008 34.5132 39.6832C34.5854 39.7634 34.6856 39.8235 34.7818 39.8736C35.2949 40.1482 35.814 40.4148 36.3271 40.6914C36.3933 40.7275 36.4514 40.7956 36.4875 40.8638C36.5837 41.0462 36.4995 41.1745 36.2991 41.1404C36.1528 41.1163 36.0084 41.0562 35.8762 40.9861C35.4593 40.7676 35.0283 40.5651 34.6395 40.3026C34.1745 39.9899 33.8518 39.5569 33.7676 38.9897C33.7916 38.9717 33.8177 38.9516 33.8417 38.9336H33.8377Z" fill="#F7F8C5"/>
<path d="M36.3124 30.0782C35.3002 29.7916 34.2719 29.7034 33.4561 29.0359C33.394 28.9858 33.376 28.8836 33.3379 28.8054C33.4181 28.7954 33.5043 28.7593 33.5764 28.7774C34.4102 28.9958 35.24 29.2243 36.0718 29.4408C36.148 29.4609 36.2602 29.4388 36.3244 29.3927C36.7573 29.078 37.1682 28.7313 37.6112 28.4346C38.1443 28.0779 38.5953 27.6389 38.9741 27.1298C39.2547 26.753 39.6155 26.4904 40.0064 26.2559C40.0665 26.2198 40.1928 26.2218 40.2389 26.2639C40.283 26.304 40.301 26.4383 40.2669 26.4924C39.8641 27.1538 39.4271 27.8013 38.8398 28.3104C38.4009 28.6912 37.9018 29.0019 37.4288 29.3406C37.1642 29.531 36.8996 29.7234 36.629 29.9078C36.5208 29.982 36.3985 30.0341 36.3103 30.0802L36.3124 30.0782Z" fill="#F7F8C5"/>
<path d="M48.2703 31.7911C48.3626 31.8151 48.4748 31.8492 48.591 31.8732C49.1883 32.0015 49.6333 32.3984 50.1023 32.7471C50.1625 32.7932 50.2206 32.9376 50.1925 32.9857C50.1524 33.0558 50.0302 33.122 49.946 33.1159C48.4467 33.0378 46.9575 32.8975 45.5204 32.4264C45.4001 32.3864 45.2678 32.3844 45.1436 32.3563C45.1015 32.3463 45.0333 32.3142 45.0333 32.2881C45.0313 32.24 45.0554 32.1659 45.0914 32.1478C45.1977 32.0977 45.3119 32.0496 45.4262 32.0356C45.6567 32.0095 45.8892 32.0115 46.1197 31.9915C46.723 31.9414 47.3263 31.8853 47.9296 31.8312C48.0318 31.8211 48.1361 31.8051 48.2683 31.7891L48.2703 31.7911Z" fill="#F7F8C5"/>
<path d="M42.7887 27.252C43.0392 27.3421 43.2797 27.4083 43.5022 27.5105C44.9814 28.198 46.3103 29.136 47.6592 30.036C48.1523 30.3647 48.5572 30.8237 48.9961 31.2306C49.0483 31.2787 49.0563 31.3769 49.0843 31.4531C48.9941 31.4491 48.8859 31.4771 48.8158 31.437C48.4369 31.2146 48.0601 30.9861 47.6933 30.7435C46.3544 29.8556 45.0436 28.9236 43.6205 28.1679C43.3098 28.0036 43.0051 27.8272 42.7065 27.6408C42.6423 27.6007 42.5862 27.4865 42.5922 27.4123C42.5962 27.3582 42.7085 27.3121 42.7867 27.252H42.7887Z" fill="#F7F8C5"/>
<path d="M55.3899 34.8269C55.458 34.5422 55.5081 34.2757 55.5863 34.0191C55.6224 33.8968 55.7126 33.7926 55.7767 33.6784C55.8168 33.6924 55.8589 33.7064 55.899 33.7205C55.8669 33.973 55.8429 34.2296 55.7988 34.4801C55.7727 34.6284 55.7166 34.7707 55.6665 34.9131C55.5963 35.1075 55.4239 35.1355 55.2696 35.0834C55.005 34.9932 54.7465 35.0233 54.4779 35.0353C54.2294 35.0453 53.9768 34.9772 53.7303 34.9231C53.6581 34.907 53.5659 34.8289 53.5479 34.7607C53.3675 34.0792 52.8684 33.7345 52.241 33.5641C51.5916 33.3857 50.9983 33.1111 50.4672 32.7023C50.405 32.6541 50.3369 32.598 50.3108 32.5299C50.2888 32.4758 50.3048 32.3615 50.3409 32.3415C50.4071 32.3054 50.5173 32.2853 50.5834 32.3154C50.832 32.4256 51.0605 32.582 51.313 32.6762C51.752 32.8406 52.211 32.9488 52.6479 33.1172C53.2773 33.3617 53.7764 33.7666 54.083 34.3859C54.1211 34.4641 54.2173 34.5463 54.2975 34.5623C54.6202 34.6244 54.965 34.5984 55.2476 34.8188C55.2736 34.8389 55.3237 34.8249 55.3899 34.8269Z" fill="#F7F8C5"/>
<path d="M49.9064 22.6602C49.9525 22.6883 49.9886 22.7043 50.0166 22.7304C50.7302 23.4199 51.4437 24.1094 52.1533 24.8029C52.6684 25.308 53.1775 25.8171 53.6886 26.3262C53.7387 26.3763 53.7948 26.4324 53.8149 26.4965C53.8349 26.5567 53.8349 26.6509 53.7988 26.695C53.7648 26.7371 53.6565 26.7711 53.6104 26.7471C53.4641 26.6729 53.3118 26.5907 53.1955 26.4745C52.2896 25.5685 51.3876 24.6585 50.4917 23.7426C50.2632 23.508 50.0467 23.2615 49.8382 23.009C49.7901 22.9508 49.7841 22.8486 49.7881 22.7664C49.7881 22.7304 49.8623 22.6963 49.9064 22.6582V22.6602Z" fill="#F7F8C5"/>
<path d="M49.492 27.7148C49.2595 27.6066 49.019 27.5104 48.7965 27.3841C48.6021 27.2759 48.4136 27.1496 48.2393 27.0093C46.9685 25.9851 45.7038 24.9549 44.437 23.9246C44.3629 23.8645 44.2787 23.8084 44.2225 23.7342C44.1785 23.6741 44.1724 23.5859 44.1504 23.5117C44.2225 23.5237 44.3087 23.5117 44.3629 23.5498C44.7878 23.8485 45.2187 24.1431 45.6276 24.4618C46.6238 25.2395 47.6139 26.0252 48.6001 26.8169C48.9208 27.0755 49.2194 27.3601 49.5301 27.6327C49.518 27.6607 49.506 27.6868 49.492 27.7148Z" fill="#F7F8C5"/>
<path d="M55.7432 38.2695C56.2563 38.1973 56.581 38.4138 56.8235 38.8708C57.0881 39.3679 57.4308 39.8269 57.7375 40.3019C57.7716 40.356 57.8297 40.4161 57.8257 40.4683C57.8157 40.5685 57.7956 40.6948 57.7275 40.7509C57.6854 40.787 57.5251 40.7409 57.4649 40.6827C56.9959 40.2317 56.5349 39.7707 56.0779 39.3077C55.9556 39.1835 55.8334 39.0512 55.7532 38.9009C55.667 38.7385 55.5668 38.6684 55.3844 38.6764C55.2621 38.6824 55.0998 38.6884 55.0958 38.506C55.0918 38.3216 55.2501 38.3056 55.3864 38.2895C55.5047 38.2755 55.6249 38.2755 55.7452 38.2695H55.7432Z" fill="#F7F8C5"/>
<path d="M55.863 36.1339C55.2075 36.156 54.6704 35.8193 54.1132 35.5447C54.0711 35.5226 54.0651 35.4284 54.041 35.3683C54.1112 35.3482 54.1913 35.2981 54.2475 35.3162C54.5201 35.4044 54.7806 35.5366 55.0592 35.6028C55.3659 35.6769 55.6846 35.715 55.9993 35.7331C56.2157 35.7471 56.3781 35.6509 56.3881 35.3883C56.3941 35.264 56.4402 35.1378 56.4963 35.0235C56.5284 34.9574 56.6146 34.9193 56.6767 34.8672C56.7228 34.9373 56.799 35.0015 56.813 35.0776C56.9253 35.707 56.5946 36.1119 55.9572 36.1339C55.9251 36.1339 55.893 36.1339 55.861 36.1339H55.863Z" fill="#F7F8C5"/>
<path d="M58.4269 39.0773C58.3668 39.4341 58.3347 39.6786 58.2806 39.9192C58.2686 39.9753 58.1924 40.0154 58.1443 40.0635C58.0982 40.0134 58.0221 39.9713 58.01 39.9152C57.9679 39.7127 57.9459 39.5063 57.9178 39.3018C57.8457 38.7967 57.7755 38.2916 57.7034 37.7865C57.6974 37.7384 57.6733 37.6943 57.6693 37.6462C57.6533 37.5019 57.6653 37.3576 57.8336 37.3175C57.998 37.2794 58.0601 37.4037 58.0902 37.538C58.2125 38.0812 58.3307 38.6264 58.4289 39.0773H58.4269Z" fill="#F7F8C5"/>
<path d="M54.93 36.4252C55.0783 36.4252 55.2286 36.4052 55.373 36.4292C55.7498 36.4934 56.1266 36.5675 56.4994 36.6577C56.7139 36.7098 56.7399 36.6196 56.75 36.4413C56.762 36.2569 56.8101 36.0725 56.8482 35.8901C56.8522 35.868 56.8943 35.852 56.9183 35.8359C57.2049 36.0564 57.1749 36.808 56.8742 36.9824C56.8161 37.0165 56.7319 37.0365 56.6698 37.0205C56.0845 36.8802 55.5012 36.7299 54.918 36.5816C54.922 36.5294 54.928 36.4773 54.932 36.4232L54.93 36.4252Z" fill="#F7F8C5"/>
<path d="M49.4342 27.0843C48.5202 26.3266 47.6063 25.567 46.6582 24.7812C47.2074 24.8634 49.3982 26.6233 49.4884 27.0221C49.4703 27.0422 49.4523 27.0642 49.4342 27.0843Z" fill="#F7F8C5"/>
<path d="M55.3367 34.3508C55.1523 34.451 54.9699 34.5352 54.8336 34.3347C54.7354 34.1924 54.6853 34.0181 54.6091 33.8597C54.571 33.7795 54.539 33.6853 54.4768 33.6252C54.3165 33.4709 54.1321 33.3406 53.9777 33.1802C53.9276 33.1301 53.9457 33.0159 53.9316 32.9297C54.0098 32.9417 54.108 32.9297 54.1621 32.9698C54.3846 33.1381 54.6071 33.3105 54.8015 33.5089C54.8777 33.5871 54.8797 33.7394 54.9198 33.8557C54.9398 33.9118 54.9599 33.972 54.998 34.014C55.1042 34.1303 55.2224 34.2365 55.3367 34.3508Z" fill="#F7F8C5"/>
<path d="M49.1855 31.5286C49.2076 31.4905 49.2096 31.4785 49.2156 31.4765C49.4862 31.3943 50.2779 31.7651 50.3641 32.0177C50.3781 32.0618 50.3661 32.1279 50.3401 32.166C50.324 32.188 50.2479 32.192 50.2138 32.174C49.9071 32.0097 49.6025 31.8393 49.3038 31.6649C49.2517 31.6348 49.2196 31.5667 49.1855 31.5286Z" fill="#F7F8C5"/>
<path d="M57.6265 38.9245C57.5884 38.9806 57.5503 39.0347 57.5142 39.0889C57.4641 39.0367 57.3819 38.9947 57.3659 38.9345C57.2877 38.6178 57.2196 38.2971 57.1675 37.9744C57.1554 37.9063 57.2216 37.8261 57.2516 37.752C57.2998 37.8121 57.3719 37.8662 57.3899 37.9344C57.4761 38.2571 57.5483 38.5838 57.6285 38.9265L57.6265 38.9245Z" fill="#F7F8C5"/>
<path d="M54.8161 55.1203C54.7259 55.1163 54.6317 55.1263 54.5475 55.1043C52.8738 54.6854 51.2022 54.7816 49.5206 55.0662C48.7489 55.1965 47.9652 55.2606 47.1855 55.3268C46.518 55.3829 45.9067 55.1624 45.3315 54.8437C45.2713 54.8096 45.2433 54.7134 45.2012 54.6473C45.2693 54.6252 45.3515 54.5671 45.4056 54.5851C46.6183 55.0081 47.8108 54.6753 49.0114 54.519C50.0096 54.3887 51.0118 54.2645 52.016 54.2003C52.8578 54.1462 53.6716 54.3406 54.4252 54.7315C54.5795 54.8116 54.7098 54.9399 54.8501 55.0482L54.8161 55.1203Z" fill="#F7F8C5"/>
<path d="M51.512 53.761C51.3336 53.8392 51.1632 53.9614 50.9768 53.9895C50.3534 54.0837 49.7261 54.1478 49.1007 54.216C49.0386 54.222 48.9704 54.1659 48.9043 54.1398C48.9524 54.0817 48.9905 53.9975 49.0526 53.9735C49.1849 53.9214 49.3272 53.8913 49.4675 53.8652C49.9866 53.773 50.5058 53.6808 51.0269 53.6047C51.1792 53.5826 51.3396 53.6187 51.4979 53.6287C51.5019 53.6728 51.508 53.7169 51.512 53.763V53.761Z" fill="#F7F8C5"/>
</svg>
