<svg width="40" height="55" viewBox="0 0 40 55" fill="none" xmlns="http://www.w3.org/2000/svg">
<path d="M0.500381 34.0606C0.500381 44.9277 9.16455 53.7232 19.8352 53.7232C30.5058 53.7232 39.1699 44.9277 39.1699 34.0606C39.1699 23.1934 30.5058 14.3979 19.8352 14.3979C9.16455 14.3979 0.500381 23.1934 0.500381 34.0606Z" stroke="#F7F8C5"/>
<path d="M22.9637 23.1304C23.4179 22.9009 23.4896 22.9224 23.8387 23.3838C23.8769 23.434 23.9558 23.4842 24.018 23.4842C24.5702 23.4914 25.1201 23.489 25.6723 23.489C25.6603 23.4532 25.646 23.4197 25.6341 23.3838C25.811 23.2715 25.9735 23.0898 26.1648 23.0587C26.5712 22.9894 26.8461 23.2093 26.8437 23.7376C26.8389 24.2851 27.1091 24.4907 27.5442 24.6246C27.8621 24.7226 27.9984 24.9067 27.9673 25.2557C27.9434 25.5282 27.9793 25.8103 28.0271 26.0805C28.0558 26.2311 28.137 26.396 28.2446 26.5036C28.5698 26.8287 28.5124 27.3475 28.0821 27.5531C27.8645 27.6559 27.6111 27.7276 27.372 27.7348C26.4206 27.7635 25.4667 27.8065 24.5272 27.5794C24.2666 27.5172 24.104 27.4144 24.0371 27.1419C23.9702 26.8718 23.9654 26.6184 24.1877 26.4343C24.3359 26.3124 24.3646 26.1809 24.3479 26.0135C24.3479 25.9944 24.3479 25.9753 24.3479 25.9562C24.3527 25.6597 24.3335 25.3609 24.3718 25.0716C24.4172 24.7202 24.8284 24.7847 24.991 24.5959C24.8236 24.5959 24.6395 24.5935 24.4555 24.5959C24.2068 24.6007 23.9702 24.56 23.8506 24.9043C23.798 25.0525 23.5016 25.117 23.2673 25.2461C23.2673 25.8032 23.2673 26.4295 23.2673 27.0582C23.2673 27.2208 23.2721 27.3834 23.2673 27.5459C23.2434 28.3301 22.3756 28.9038 21.6297 28.6217C21.1683 28.4472 20.7811 28.201 20.7117 27.6368C20.6759 27.3403 20.3818 27.5077 20.1667 27.3953C20.1667 27.8328 20.1667 28.2273 20.1667 28.6217C20.1667 28.7819 20.1045 28.9516 20.3053 29.0664C20.3555 29.0951 20.346 29.2409 20.3531 29.3341C20.389 29.9055 20.3938 30.4792 20.4631 31.0458C20.5492 31.7606 21.0153 32.2316 21.6943 32.3726C21.962 32.4284 22.1182 32.6117 22.1628 32.9225C22.6003 32.8866 23.0426 32.8412 23.4849 32.8197C23.6976 32.8101 23.9224 32.8101 24.1232 32.8723C24.6945 33.0444 25.2707 33.2189 25.8205 33.4532C26.2532 33.6373 26.6788 33.8739 27.0565 34.1536C27.9912 34.8445 28.9116 35.5569 29.8105 36.2957C30.0735 36.5108 30.2767 36.8216 30.444 37.1252C30.6879 37.5627 30.5396 38.0002 30.1045 38.2464C29.9061 38.3564 29.691 38.4448 29.4758 38.5142C29.3013 38.5715 29.2128 38.6337 29.2248 38.8465C29.275 39.7214 29.3037 40.5988 29.3419 41.4738C29.9133 41.7726 30.5133 42.0188 30.9054 42.5567C31.0345 42.7336 31.1445 42.9225 31.2425 43.1185C31.3238 43.2787 31.2712 43.4006 31.0775 43.4198C30.3412 43.501 29.6049 43.5728 28.8686 43.6588C27.7235 43.7927 26.5807 43.9361 25.438 44.0748C24.257 44.2206 23.0761 44.3736 21.8951 44.5099C21.0727 44.6055 20.2479 44.6748 19.4232 44.7609C19.1124 44.792 18.804 44.8374 18.4908 44.8613C18.3928 44.8685 18.2828 44.8374 18.192 44.7944C16.3847 43.9361 14.5774 43.0755 12.7724 42.2125C12.6027 42.1312 12.4377 42.0332 12.2704 41.9471C12.0935 41.8563 12.1509 41.732 12.2202 41.6124C12.4903 41.1415 12.8752 40.7853 13.3844 40.6036C13.5852 40.5319 13.5996 40.4219 13.5972 40.2689C13.5924 39.2194 13.5852 38.1675 13.5805 37.118C13.5805 36.6112 13.5757 36.1068 13.5876 35.6C13.5924 35.435 13.5589 35.3274 13.382 35.294C13.3079 35.2796 13.2386 35.2414 13.1693 35.2103C12.6768 34.9952 12.5023 34.584 12.715 34.0915C12.7581 33.9911 12.8633 33.8739 12.9613 33.8476C14.2331 33.501 15.5288 33.3002 16.8413 33.2046C16.8748 33.2022 16.9106 33.2117 16.9536 33.2189C16.9704 33.1161 16.9943 33.0324 16.9919 32.9488C16.9895 32.7288 17.109 32.6236 17.3051 32.5687C18.388 32.2698 18.5291 31.7534 18.5673 30.9837C18.5936 30.4506 18.5865 29.915 18.6199 29.3843C18.6271 29.2552 18.7347 29.1309 18.7944 29.0042C18.816 28.9588 18.8542 28.9134 18.8542 28.8656C18.859 28.3803 18.8566 27.8974 18.8566 27.4216C18.4406 27.2973 18.2111 27.4168 18.137 27.7802C17.9697 28.5859 17.6206 28.8417 16.6716 28.7054C16.3297 28.6552 16.093 28.4305 15.9807 28.091C15.787 27.5053 15.7153 26.9076 15.7344 26.2908C15.7488 25.8534 15.7368 25.4159 15.7368 24.964C15.034 24.9234 14.3335 24.8851 13.6259 24.8445C13.5661 25.0549 13.6091 25.2127 13.8195 25.3418C14.2116 25.5784 14.5917 25.8342 14.967 26.0948C15.0674 26.1641 15.1344 26.2861 15.2157 26.3841C15.1248 26.4582 15.0387 26.5443 14.9383 26.604C14.7734 26.6996 14.606 26.8 14.4291 26.8598C13.9271 27.0295 13.7406 27.4479 13.5805 27.8902C13.5613 27.9404 13.5685 28.0504 13.5924 28.0599C13.8171 28.1555 14.0466 28.2416 14.2809 28.3085C14.312 28.3181 14.3885 28.1986 14.4291 28.1316C14.6802 27.7061 14.826 27.6224 15.2228 27.6846C15.5408 27.7348 15.7081 27.9404 15.8277 28.2249C16.1647 29.0401 16.0882 29.8553 15.7822 30.6466C15.6101 31.096 15.3328 31.5024 15.1057 31.9327C14.9264 32.277 14.6084 32.3368 14.2785 32.2961C13.9271 32.2531 13.7096 32.014 13.59 31.6817C13.5613 31.6028 13.5231 31.4976 13.4585 31.4666C12.2728 30.888 11.852 29.8864 11.8544 28.6361C11.8544 28.3611 11.9166 28.0982 11.809 27.8041C11.6106 27.2567 11.2376 26.9363 10.7428 26.6925C10.5826 26.6136 10.4559 26.4678 10.3149 26.3506C10.4511 26.2287 10.5802 26.0948 10.726 25.9872C11.0177 25.7745 11.3213 25.5808 11.613 25.3681C11.7062 25.2987 11.7755 25.1983 11.9166 25.0501C11.7373 25.0358 11.6417 25.0166 11.546 25.0214C10.879 25.0453 10.2121 25.086 9.54507 25.0979C9.05977 25.1051 9 25.0381 9 24.5529C9 24.3162 9.04303 24.0771 9.04064 23.8404C9.03586 23.5727 9.16974 23.4818 9.41358 23.4986C10.0591 23.5464 10.7045 23.5966 11.35 23.6468C11.491 23.6588 11.6321 23.6707 11.7684 23.6803C12.0337 22.9344 12.4999 22.7073 13.2529 22.9726C13.3677 23.0133 13.4681 23.1639 13.5231 23.2882C13.5805 23.4125 13.5733 23.5655 13.5972 23.7185C14.5032 23.6564 15.4021 23.5942 16.3177 23.532C16.1958 23.3241 16.3464 23.2213 16.5138 23.1735C17.1329 22.9965 17.7497 22.7981 18.3809 22.6786C19.5833 22.4515 20.793 22.4873 21.9883 22.7599C22.3087 22.8316 22.6075 22.9918 22.9661 23.1328L22.9637 23.1304ZM13.0258 34.0939C13.0139 34.1871 13.0067 34.223 13.0019 34.2612C12.9374 34.8111 12.9422 34.7919 13.4538 34.9808C14.214 35.2605 14.9646 35.5952 15.5743 36.1331C16.3393 36.8073 17.0421 37.5507 17.7832 38.2536C18.204 38.6528 18.6223 39.0592 19.0837 39.4059C19.306 39.5732 19.6336 39.7143 19.8965 39.6904C20.8145 39.6019 21.7254 39.4322 22.6386 39.2959C24.2786 39.0521 25.9185 38.813 27.5585 38.5692C28.3618 38.4496 29.1483 38.2632 29.8942 37.9332C30.1069 37.84 30.1882 37.7133 30.1476 37.4647C30.0926 37.1324 29.9396 36.8718 29.6933 36.6638C29.024 36.0972 28.3546 35.5283 27.6685 34.9832C27.023 34.4692 26.3943 33.917 25.5791 33.6683C24.8069 33.4317 24.0849 32.9942 23.2243 33.1305C22.88 33.1854 22.5286 33.1878 22.182 33.2141C22.1509 33.8142 21.9525 34.058 21.3883 34.2134C21.2974 34.2397 21.2042 34.2564 21.1086 34.2756C19.973 34.4955 18.8375 34.4812 17.7019 34.2756C17.0636 34.1608 17.0564 34.1608 16.913 33.5034C15.6197 33.6994 14.3263 33.8978 13.0211 34.0963L13.0258 34.0939ZM19.0622 39.7932C19.1124 40.814 19.1602 41.7774 19.2056 42.7241C22.476 42.3487 25.7225 41.9758 28.957 41.6053V38.7293C27.9099 38.9062 26.8724 39.1047 25.8301 39.2553C24.4077 39.4609 22.9804 39.6378 21.5532 39.8147C20.7428 39.9151 19.9324 40.0681 19.0598 39.7932H19.0622ZM18.8351 42.5591C18.8351 41.9376 18.8279 41.3184 18.8351 40.7016C18.8446 40.1135 18.7849 39.6258 18.2542 39.1788C17.3122 38.3803 16.4899 37.4384 15.5958 36.5801C15.0937 36.0972 14.4841 35.7625 13.8602 35.5067C13.8602 36.047 13.8554 36.5682 13.8602 37.0893C13.8745 38.158 13.8936 39.2242 13.9223 40.2928C13.9223 40.3741 14.0132 40.4912 14.0897 40.5223C14.9909 40.9072 15.8994 41.273 16.8006 41.6579C17.4892 41.9519 18.1705 42.2651 18.8303 42.5591H18.8351ZM18.6916 44.4621L18.761 44.5673C22.7629 44.0844 26.7672 43.6014 30.8313 43.109C30.7261 42.9584 30.6807 42.858 30.6042 42.7958C30.2647 42.5233 29.9252 42.2507 29.569 42.0021C29.4662 41.9304 29.3037 41.8993 29.1746 41.9113C27.9171 42.0499 26.6596 42.2053 25.4045 42.3464C23.4657 42.5663 21.5269 42.7767 19.5881 42.999C19.5045 43.0086 19.3825 43.0516 19.3491 43.1138C19.1196 43.556 18.9092 44.0102 18.694 44.4597L18.6916 44.4621ZM22.9398 25.0597C22.6553 25.0095 22.4473 25.172 22.4641 25.4852C22.476 25.7243 22.5047 25.9609 22.5095 26.1976C22.5143 26.4869 22.3493 26.6447 22.0553 26.6614C21.5795 26.6877 21.1038 26.7212 20.6281 26.7427C19.6359 26.7905 18.6462 26.8335 17.6541 26.8718C17.4652 26.8789 17.2596 26.7857 17.0899 26.8359C16.8437 26.91 16.7935 26.7977 16.772 26.6184C16.7313 26.2789 16.6979 25.937 16.6763 25.5928C16.6716 25.5282 16.7361 25.4565 16.7672 25.3896C16.815 25.4493 16.8867 25.5043 16.9034 25.5737C16.9776 25.906 17.0373 26.243 17.1066 26.5945C18.7873 26.4917 20.4703 26.3913 22.182 26.2861V25.3011C22.1557 25.3059 22.1222 25.3083 22.0863 25.3155C20.3675 25.686 18.6486 25.7267 16.9274 25.3346C16.6859 25.2796 16.4325 25.2461 16.3775 24.9282C16.2628 24.9354 16.1623 24.9401 16.0404 24.9473C16.0404 25.337 16.0858 25.7171 16.0309 26.0781C15.9328 26.7212 16.0715 27.326 16.2221 27.9332C16.2819 28.1723 16.4181 28.3659 16.6835 28.4281C17.1975 28.5524 17.6684 28.5141 17.7928 27.7085C17.8669 27.2232 18.0892 27.0606 18.5817 27.0391C19.0837 27.0176 19.1602 27.0941 19.1554 27.6033C19.1506 28.0599 19.1554 28.5165 19.1554 29.0042C19.3013 29.0042 19.4112 29.009 19.5236 29.0042C19.9443 28.9779 19.9443 28.9564 19.9109 28.5452C19.8798 28.1651 19.8893 27.7826 19.8965 27.4025C19.8965 27.3284 19.9491 27.2328 20.0089 27.1849C20.2814 26.9746 20.9651 27.1897 21.0416 27.5244C21.1373 27.9428 21.4194 28.146 21.7851 28.2751C22.3421 28.4711 22.9255 28.091 22.9541 27.5148C22.9613 27.3714 22.9446 27.228 22.9422 27.0869C22.9422 26.4128 22.9422 25.741 22.9422 25.0573L22.9398 25.0597ZM18.9188 29.3365C18.9188 29.4489 18.9188 29.5421 18.9188 29.6353C18.914 30.0943 18.9188 30.551 18.8996 31.01C18.8685 31.8156 18.5745 32.4587 17.7641 32.7575C17.6063 32.8149 17.4366 32.846 17.2405 32.8962C17.2597 33.2356 17.2788 33.5751 17.2979 33.9361C18.2972 34.1202 19.2845 34.2541 20.2862 34.0724C20.6878 33.9983 21.0894 33.917 21.4815 33.807C21.5915 33.7759 21.7325 33.6325 21.7469 33.5273C21.7756 33.2882 21.7349 33.0396 21.723 32.7838C21.656 32.7671 21.5939 32.7503 21.5293 32.7384C20.75 32.6021 20.2216 32.0834 20.1212 31.2944C20.0495 30.7398 20.0328 30.178 19.9921 29.6186C19.985 29.5182 19.9921 29.4178 19.9921 29.3341H18.9188V29.3365ZM18.3617 44.4645C18.5123 43.9839 18.6653 43.4915 18.8279 42.9703C18.4908 42.8221 18.1514 42.6739 17.8143 42.5233C16.5735 41.9662 15.328 41.414 14.0944 40.8403C13.8554 40.7279 13.6546 40.7303 13.4705 40.8761C13.1406 41.1367 12.8322 41.4236 12.4808 41.7272C14.4961 42.6667 16.4277 43.5656 18.3617 44.4669V44.4645ZM17.7497 25.1625C19.0813 25.3155 20.3746 25.337 21.6417 25.0262V23.0683C20.3173 22.8675 19.0215 22.889 17.7497 23.1256V25.1649V25.1625ZM14.8595 28.7652C14.7973 28.7365 14.7806 28.7197 14.7638 28.7197C14.2403 28.7126 13.7406 28.6361 13.3271 28.2751C13.2984 28.2488 13.2338 28.2464 13.1908 28.2536C12.8943 28.3038 12.5979 28.3516 12.3063 28.4233C12.2393 28.44 12.158 28.5452 12.1485 28.6193C12.0074 29.5947 12.8011 30.8354 13.7454 31.1486C13.9319 31.2108 14.0682 31.194 14.1446 31.01C14.3239 30.582 14.5128 30.1565 14.6586 29.7166C14.7614 29.4058 14.7973 29.0735 14.8595 28.7652ZM24.6515 26.2359H27.6661C27.6661 25.8749 27.6661 25.533 27.6661 25.1912C27.6661 25.1338 27.6733 25.0429 27.6446 25.0286C27.3697 24.8851 27.0899 24.6461 26.8055 24.6389C26.1122 24.6222 25.3974 24.6246 24.7615 24.9927C24.6874 25.0358 24.5846 25.1218 24.5846 25.1864C24.5917 25.5354 24.6252 25.8844 24.6515 26.2359ZM10.7476 26.3602C11.2568 26.6638 11.7277 27.0798 12.4401 27.0367C13.2792 26.9889 14.0682 26.8718 14.7447 26.3315C14.3981 26.0805 14.0538 25.8247 13.7024 25.5832C13.6331 25.5354 13.5326 25.5211 13.4442 25.5115C12.9828 25.4661 12.5214 25.423 12.06 25.3872C11.9955 25.3824 11.9094 25.3824 11.8664 25.4183C11.4863 25.729 11.1157 26.0494 10.7499 26.3602H10.7476ZM25.9401 26.6327C25.4117 26.604 24.9814 26.5753 24.5535 26.5658C24.4698 26.5658 24.3527 26.6184 24.3049 26.6877C24.1542 26.9028 24.2786 27.1825 24.5296 27.2614C25.4045 27.5292 26.3034 27.467 27.1975 27.4431C27.439 27.436 27.6948 27.3834 27.9099 27.2806C28.0366 27.2208 28.1538 27.0319 28.1729 26.8861C28.1825 26.8096 27.9864 26.6781 27.8597 26.6208C27.745 26.5682 27.5992 26.561 27.4677 26.5634C26.925 26.5825 26.3823 26.6136 25.9401 26.6351V26.6327ZM13.9032 31.6865C14.2068 32.1407 14.6276 32.1431 14.9383 31.6339C15.0722 31.4164 15.218 31.1988 15.3185 30.9645C15.6794 30.1206 15.9137 29.26 15.5743 28.3444C15.481 28.0886 15.3208 27.9523 15.0435 27.9643C14.7901 27.9762 14.7447 28.1747 14.6562 28.3516C15.1057 28.4329 15.2228 28.5357 15.1655 28.8942C15.0364 29.7142 14.8714 30.5271 14.3909 31.2275C14.2737 31.3996 14.0825 31.5192 13.9008 31.6865H13.9032ZM11.7899 24.6748V23.9289C10.9508 23.8835 10.1236 23.8357 9.29166 23.7902C9.27253 24.1512 9.2558 24.4692 9.23667 24.8278C10.0997 24.7752 10.9316 24.725 11.7899 24.6724V24.6748ZM13.2171 25.1935C13.2171 24.5744 13.2219 24.003 13.2099 23.434C13.2099 23.3647 13.1191 23.2452 13.0617 23.238C12.8561 23.2117 12.6338 23.183 12.4425 23.238C12.3063 23.2763 12.1198 23.4412 12.1102 23.5607C12.0744 24.0699 12.0935 24.5839 12.0935 25.1338C12.4951 25.1553 12.8728 25.1744 13.2171 25.1912V25.1935ZM13.6235 23.8906V24.6031H16.3775C16.356 24.3353 16.3369 24.113 16.3177 23.8906H13.6235ZM16.5735 23.3958C16.6213 23.9671 16.6692 24.5026 16.7146 25.0381C16.9776 25.0668 17.1999 25.0907 17.4461 25.117V23.1639C17.1401 23.2452 16.8532 23.3217 16.5735 23.3958ZM22.0003 23.1185V24.964C22.1796 24.9043 22.2991 24.8493 22.4258 24.823C22.641 24.78 22.7103 24.6628 22.6936 24.4453C22.6721 24.1608 22.696 23.8739 22.6864 23.5894C22.6864 23.5177 22.6505 23.4101 22.5956 23.3814C22.4067 23.2786 22.2011 23.2045 21.9979 23.1185H22.0003ZM12.1891 28.0121C12.5381 27.981 12.8776 27.9499 13.2171 27.9141C13.2649 27.9093 13.3318 27.8806 13.3486 27.8424C13.4394 27.6535 13.5159 27.4599 13.5948 27.271H11.8162C11.9381 27.5125 12.0648 27.7635 12.1915 28.0121H12.1891ZM24.0275 23.7113V24.2899H25.6412V23.7113H24.0275ZM23.7239 24.003C23.6474 23.8165 23.5638 23.5775 23.449 23.3504C23.4227 23.2978 23.2817 23.2547 23.2219 23.2786C23.1311 23.3169 22.9996 23.4125 22.9972 23.489C22.9876 23.8404 22.9972 24.1966 23.045 24.5433C23.0593 24.6437 23.2195 24.7871 23.3223 24.7943C23.4179 24.8015 23.5685 24.6748 23.6187 24.572C23.6881 24.4214 23.6857 24.2397 23.7263 24.003H23.7239ZM26.6118 24.3568C26.564 24.0604 26.5353 23.7807 26.4612 23.5129C26.4397 23.434 26.2867 23.3599 26.1863 23.348C26.1289 23.3408 26.0094 23.4579 25.9998 23.5297C25.964 23.7974 25.9616 24.0699 25.9472 24.3568H26.6118Z" fill="#F7F8C5"/>
<path d="M23.0601 37.6107C21.9676 37.5868 21.0304 37.4505 20.1961 36.9246C20.0288 36.8194 19.8686 36.6927 19.7299 36.5517C19.204 36.0138 19.247 35.33 19.8782 34.9236C20.2224 34.7013 20.6217 34.5292 21.0185 34.4407C22.3094 34.1491 23.5956 34.1778 24.8172 34.7348C25.1615 34.8926 25.489 35.1412 25.7496 35.4185C26.1464 35.8416 26.0938 36.3604 25.6802 36.7716C25.1973 37.2497 24.5758 37.4338 23.9303 37.5342C23.6028 37.5844 23.2681 37.594 23.0625 37.6107H23.0601ZM22.1708 34.4933C21.5827 34.4694 20.8966 34.5937 20.2654 34.9356C19.926 35.1197 19.5937 35.3492 19.6008 35.7891C19.6056 36.2194 19.914 36.4847 20.2583 36.6592C21.7381 37.4075 23.2729 37.5294 24.8387 36.9485C25.2332 36.8027 25.63 36.5827 25.6587 36.0927C25.6874 35.5906 25.3121 35.3372 24.932 35.1221C24.1168 34.6583 23.2274 34.4981 22.1732 34.4981L22.1708 34.4933Z" fill="#F7F8C5"/>
<path d="M7.91396 12.922L5.99615 9.11869L4.77408 9.73601L4.50755 9.19678L7.52831 7.67764L7.79484 8.21687L6.56031 8.84019L8.47812 12.6435L7.92318 12.9252L7.91396 12.922Z" fill="#F7F8C5"/>
<path d="M11.1444 11.57C10.6718 11.7355 10.2205 11.7221 9.78472 11.5172C9.35815 11.3155 9.05448 10.9705 8.88568 10.507C8.71688 10.0436 8.73033 9.59232 8.92601 9.15329C9.1217 8.71425 9.45102 8.42579 9.89278 8.25974C10.3562 8.09094 10.7825 8.11635 11.1934 8.33323C11.595 8.54687 11.9042 8.93527 12.1149 9.48598L9.50221 10.4334C9.6366 10.7294 9.83755 10.9243 10.1203 11.034C10.3938 11.1404 10.672 11.1449 10.9549 11.0474C11.3219 10.9173 11.5949 10.6712 11.7582 10.3244L12.2488 10.5797C12.0434 11.0464 11.6794 11.3745 11.1444 11.57ZM10.0514 8.78178C9.83671 8.86181 9.65198 9.00417 9.50964 9.20288C9.36729 9.40158 9.31994 9.65437 9.3556 9.93633L11.3151 9.22574C11.183 8.98242 11 8.82487 10.7694 8.74385C10.5387 8.66284 10.2942 8.68055 10.0454 8.76931L10.0514 8.78178Z" fill="#F7F8C5"/>
<path d="M12.6696 10.955L13.7168 7.17773L16.21 10.1987L15.5491 10.3396L13.9669 8.3537L13.3088 10.8169L12.6696 10.955Z" fill="#F7F8C5"/>
<path d="M17.9892 10.1405C17.4908 10.1726 17.06 10.042 16.694 9.72692C16.3373 9.41506 16.1398 9.00371 16.0951 8.51134C16.063 8.01298 16.1936 7.58218 16.5054 7.22541C16.8081 6.8654 17.201 6.66145 17.6809 6.62279C18.17 6.58737 18.5759 6.72995 18.9077 7.05378C19.2428 7.36839 19.4333 7.8291 19.4857 8.41746L16.7119 8.61403C16.7655 8.93338 16.9069 9.17994 17.1453 9.35694C17.3836 9.53393 17.6451 9.61544 17.9423 9.59549C18.3354 9.5678 18.6503 9.40898 18.9086 9.11628L19.3137 9.49695C18.9889 9.89062 18.5494 10.1093 17.9859 10.1497L17.9892 10.1405ZM17.6969 7.16727C17.4648 7.179 17.2561 7.2715 17.0649 7.43231C16.8737 7.59312 16.765 7.814 16.7264 8.10096L18.8006 7.94879C18.74 7.6788 18.6041 7.47562 18.4022 7.3425C18.2002 7.20938 17.9631 7.14682 17.6936 7.17649L17.6969 7.16727Z" fill="#F7F8C5"/>
<path d="M22.2997 11.416L21.7193 11.3572L21.8314 10.1531C21.2358 10.0786 20.7941 9.86119 20.4844 9.5037C20.1748 9.14621 20.0456 8.71741 20.0969 8.2173C20.145 7.72642 20.3495 7.32154 20.7162 7.01513C21.0829 6.70872 21.561 6.58654 22.1571 6.63014L22.2875 5.25622L22.8678 5.31503L22.7375 6.68895C23.3363 6.75424 23.7781 6.97162 24.0845 7.33833C24.3909 7.70505 24.5201 8.13384 24.472 8.62473C24.4239 9.11561 24.2195 9.52049 23.856 9.81767C23.4925 10.1149 23.0112 10.2463 22.4118 10.2119L22.2997 11.416ZM21.1143 7.44516C20.8635 7.65758 20.7262 7.93057 20.6958 8.28259C20.6686 8.62539 20.7504 8.92355 20.9596 9.18357C21.1628 9.43112 21.4819 9.58468 21.8893 9.63452L22.1205 7.17687C21.6974 7.14223 21.3651 7.23274 21.1143 7.44516ZM22.6917 7.23244L22.4637 9.68087C22.8775 9.71226 23.219 9.62499 23.4606 9.40933C23.7114 9.19691 23.8488 8.92392 23.8792 8.5719C23.9063 8.22911 23.8245 7.93094 23.6154 7.67092C23.4122 7.42337 23.093 7.26982 22.6857 7.21997L22.6917 7.23244Z" fill="#F7F8C5"/>
<path d="M26.3744 10.9615C25.8818 10.8299 25.5121 10.5549 25.2745 10.1398C25.0369 9.72475 24.9885 9.27251 25.1136 8.79833C25.242 8.31493 25.5137 7.95442 25.9288 7.71681C26.3439 7.47921 26.7993 7.4216 27.292 7.55321C27.7846 7.68483 28.1451 7.95655 28.3827 8.37164C28.6203 8.78672 28.6687 9.23895 28.5436 9.71314C28.4152 10.1965 28.1435 10.557 27.7284 10.7947C27.3133 11.0323 26.8578 11.0899 26.3744 10.9615ZM25.792 9.87605C25.9421 10.1568 26.1897 10.337 26.5098 10.4287C26.8424 10.5145 27.146 10.4761 27.4115 10.3103C27.677 10.1445 27.8572 9.8969 27.9555 9.55834C28.0537 9.21978 28.0153 8.91613 27.8652 8.63542C27.7151 8.35471 27.4767 8.17771 27.1474 8.08274C26.8148 7.997 26.5112 8.0354 26.2457 8.2012C25.9709 8.36376 25.7907 8.61133 25.7017 8.95313C25.616 9.2857 25.6419 9.59534 25.792 9.87605Z" fill="#F7F8C5"/>
<path d="M28.6894 11.5987L30.0786 8.47013L30.6066 8.70745L30.0293 9.99687L31.7149 10.7445L32.2922 9.45504L32.8202 9.69235L31.431 12.8209L30.903 12.5836L31.503 11.2296L29.8174 10.482L29.2174 11.836L28.6894 11.5987Z" fill="#F7F8C5"/>
</svg>
