<svg width="54" height="59" viewBox="0 0 54 59" fill="none" xmlns="http://www.w3.org/2000/svg">
<path d="M8.23059 26.9832C4.41059 36.7942 9.14103 47.7801 18.774 51.5308C28.407 55.2815 39.3207 50.3868 43.1407 40.5758C46.9607 30.7648 42.2303 19.779 32.5973 16.0282C22.9643 12.2775 12.0506 17.1722 8.23059 26.9832Z" stroke="#F7F8C5"/>
<path d="M28.9705 26.6797C29.0568 26.4635 29.2138 26.3772 29.4699 26.4414C29.6652 26.4903 29.851 26.5741 30.0412 26.644C30.674 26.8768 31.2493 27.2168 31.7978 27.6039C32.0553 27.7857 32.3292 27.9467 32.5696 28.148C32.8095 28.348 33.0154 28.587 33.2383 28.8066C33.3568 28.9238 33.4844 29.031 33.5967 29.1531C33.7263 29.2955 33.8426 29.4506 33.9653 29.5998C33.9825 29.62 33.9992 29.6443 34.0221 29.6553C34.344 29.8193 34.6671 29.9828 34.9897 30.1449C35.0029 30.1512 35.0187 30.151 35.0575 30.1588C35.0579 29.9886 35.0709 29.8264 35.0551 29.6655C35.0239 29.3482 34.9948 29.0284 34.9313 28.7163C34.8947 28.5337 34.7937 28.3637 34.7219 28.1884C34.6998 28.1349 34.6594 28.0804 34.6614 28.0269C34.663 27.9637 34.6833 27.866 34.725 27.8447C34.9229 27.7472 34.9777 27.55 35.0829 27.3872C35.1074 27.3486 35.1416 27.317 35.1699 27.282C35.1982 27.247 35.2386 27.2157 35.2498 27.1762C35.355 26.8011 35.4579 26.4241 35.3875 26.0277C35.3408 25.7638 35.3204 25.4914 35.2392 25.2382C35.1775 25.0449 35.0369 24.8772 34.9373 24.6952C34.9116 24.6486 34.8884 24.5821 34.9026 24.5375C34.9147 24.4983 34.9817 24.447 35.0226 24.4494C35.1466 24.4558 35.2141 24.3817 35.287 24.3046C35.8873 23.6676 36.3456 22.9334 36.7637 22.1711C36.8797 21.9591 36.9303 21.7405 36.9056 21.4978C36.8939 21.3856 36.9209 21.2707 36.9269 21.1559C36.9281 21.1261 36.9204 21.0948 36.912 21.0654C36.8468 20.8488 36.7767 20.6344 36.7159 20.4173C36.6813 20.2941 36.6555 20.167 36.6377 20.0409C36.6098 19.8387 36.696 19.7542 36.8969 19.7833C36.9523 19.7912 37.0173 19.8124 37.0549 19.85C37.2048 20.0045 37.3627 20.1549 37.4857 20.3303C37.7945 20.7693 38.009 21.2574 38.1913 21.7611C38.3069 22.079 38.4442 22.3895 38.5538 22.7093C38.6072 22.8649 38.629 23.0343 38.6486 23.1988C38.6676 23.3567 38.6222 23.5 38.5414 23.6431C38.3816 23.9248 38.359 24.2432 38.3476 24.5597C38.3356 24.902 38.3331 25.2439 38.3298 25.5855C38.328 25.7217 38.3274 25.8574 38.3352 25.9931C38.3594 26.4249 38.1819 26.776 37.9128 27.0966C37.8155 27.2124 37.7164 27.3327 37.6523 27.4677C37.612 27.5524 37.6018 27.6832 37.6393 27.7668C37.7065 27.9163 37.8131 28.0508 37.9132 28.1829C38.0128 28.3136 38.0524 28.4482 38.0299 28.6161C37.9072 29.5164 37.5056 30.3332 37.2559 31.1946C37.1532 31.5497 37.0356 31.9001 36.9234 32.2526C36.9041 32.313 36.8771 32.3715 36.8538 32.4314C36.8422 32.429 36.8293 32.4271 36.8177 32.4247C36.8175 32.3608 36.8099 32.2972 36.8185 32.2347C36.9271 31.4188 37.0836 30.6142 37.3719 29.839C37.4933 29.511 37.5902 29.1735 37.6986 28.8415C37.7332 28.7337 37.7134 28.6424 37.6485 28.546C37.5494 28.3977 37.4686 28.2376 37.3794 28.0827C37.3601 28.049 37.3411 28.0145 37.317 27.9852C37.1465 27.7735 37.1666 27.5796 37.3388 27.3655C37.5423 27.1113 37.7301 26.8436 37.9069 26.5696C38.0308 26.3774 38.0276 26.1494 38.0292 25.9252C38.0309 25.5558 38.0304 25.1866 38.0517 24.8176C38.0701 24.4965 38.1073 24.1755 38.1576 23.8585C38.1788 23.7235 38.2505 23.5957 38.3092 23.4691C38.41 23.2532 38.361 23.0408 38.2945 22.833C38.2252 22.6189 38.1381 22.4105 38.0548 22.2003C37.8163 21.5994 37.5774 20.9994 37.336 20.4006C37.2882 20.2816 37.2279 20.1682 37.1742 20.0564C37.0955 20.0571 37.0268 20.0565 36.945 20.057C36.9655 20.1413 36.9794 20.221 37.0024 20.2989C37.101 20.631 37.2068 20.9607 37.3019 21.2936C37.4417 21.7829 37.5047 22.2841 37.5246 22.7914C37.5318 22.9688 37.5367 23.1578 37.4846 23.3236C37.399 23.5945 37.4621 23.8647 37.4349 24.1332C37.4079 24.4039 37.4114 24.677 37.3954 24.9488C37.3872 25.0962 37.3724 25.2441 37.3501 25.3901C37.3279 25.533 37.2763 25.6655 37.1186 25.7724C37.1121 25.6925 37.1018 25.6384 37.1048 25.5852C37.1383 24.9407 37.1761 24.2959 37.2084 23.652C37.213 23.5597 37.2003 23.4659 37.1948 23.3728C37.1864 23.2305 37.2248 23.1911 37.3391 23.198C37.2595 22.7771 37.1798 22.3509 37.1035 21.948C36.6806 22.9457 36.113 23.8798 35.3101 24.6857C35.7282 25.3513 35.9698 26.0893 36.1253 26.8794C36.1948 26.7706 36.2625 26.6611 36.333 26.5526C36.4942 26.3049 36.6531 26.0553 36.8205 25.8132C36.8514 25.7687 36.9212 25.7426 36.9782 25.7303C37.0095 25.7226 37.0559 25.7564 37.0849 25.7812C37.0926 25.7884 37.0663 25.8398 37.0495 25.8668C36.8475 26.1895 36.6446 26.5119 36.4427 26.8347C36.4179 26.8742 36.3995 26.9214 36.366 26.9512C36.2436 27.0614 36.2483 27.2022 36.2764 27.3396C36.3375 27.6363 36.4168 27.9295 36.4776 28.227C36.5297 28.4825 36.5684 28.7401 36.6102 28.9978C36.6194 29.0547 36.6228 29.1157 36.6114 29.1718C36.5226 29.6014 36.431 30.0298 36.3346 30.4574C36.3224 30.5102 36.2787 30.558 36.2426 30.6025C36.2209 30.6285 36.1845 30.6415 36.1548 30.6613C36.1386 30.6278 36.1128 30.5948 36.1105 30.5604C36.1069 30.5078 36.1158 30.4528 36.128 30.4C36.2039 30.0627 36.2897 29.7271 36.3537 29.3882C36.3745 29.2782 36.351 29.1562 36.3313 29.0429C36.2783 28.7442 36.2175 28.4467 36.1551 28.1506C36.1151 27.9605 36.0335 27.7729 36.0303 27.5825C36.0257 27.2399 35.9021 26.9263 35.8394 26.5988C35.816 26.4736 35.7792 26.3506 35.7529 26.2463C35.7062 26.5166 35.6609 26.8021 35.6058 27.0859C35.5835 27.1995 35.5426 27.31 35.5075 27.4218C35.4983 27.4506 35.4794 27.4777 35.4606 27.5018C35.3473 27.6532 35.2335 27.8033 35.1187 27.953C35.0907 27.9902 35.0579 28.0234 35.0056 28.0825C35.0247 28.114 35.0589 28.1576 35.0805 28.2068C35.3128 28.754 35.5634 29.2969 35.7024 29.8768C35.7721 30.1705 35.7899 30.4764 35.8296 30.7772C35.8328 30.7983 35.8209 30.8209 35.807 30.8834C35.7563 30.7936 35.7138 30.7363 35.6895 30.6725C35.6582 30.5892 35.6391 30.5013 35.6188 30.4139C35.5382 30.0731 35.4595 29.7331 35.3798 29.3927C35.3755 29.3742 35.3664 29.3571 35.3495 29.339C35.3699 29.6919 35.4577 30.0491 35.2692 30.3907C35.3626 30.4866 35.4581 30.5876 35.5559 30.6853C35.9499 31.0749 36.2308 31.5481 36.5421 31.9996C36.6811 32.2011 36.7849 32.415 36.8545 32.647C36.872 32.704 36.8806 32.7732 36.8634 32.8282C36.8385 32.9084 36.8572 32.9596 36.9013 33.029C36.9892 33.1656 37.063 33.3115 37.1285 33.4603C37.2267 33.6804 37.3136 33.9056 37.4078 34.1335C37.4378 34.1264 37.4668 34.1189 37.4961 34.1135C37.7169 34.0699 37.8807 34.1567 37.9575 34.3674C38.0219 34.543 38.0479 34.7204 37.9827 34.9041C37.967 34.9471 37.97 35.0037 37.9804 35.0495C38.045 35.3213 38.116 35.5926 38.1827 35.8642C38.1951 35.9129 38.2113 35.9652 38.2062 36.0134C38.1815 36.2379 38.268 36.4399 38.3199 36.6503C38.423 37.07 38.5078 37.4939 38.6203 37.9109C38.7042 38.2216 38.8163 38.5245 38.9224 38.8292C38.9688 38.9623 38.9788 39.0843 38.9394 39.2257C38.8913 39.4004 38.8608 39.5861 38.8648 39.7664C38.8754 40.2869 38.8068 40.7985 38.7446 41.3126C38.6098 42.4403 38.4834 43.5702 38.3476 44.6975C38.2938 45.1417 38.2263 45.5837 38.1645 46.0269C38.1458 46.1607 38.0965 46.2795 38.0068 46.3836C37.9436 46.4573 37.8941 46.5415 37.8324 46.6167C37.81 46.6446 37.7735 46.6607 37.7361 46.6869C37.7188 46.7314 37.7103 46.796 37.6747 46.8365C37.5399 46.9921 37.3969 47.1392 37.2533 47.2933C37.1807 47.2515 37.0938 47.2438 37.101 47.1368C37.1021 47.1258 37.0768 47.1076 37.0605 47.1012C36.9339 47.0477 36.922 46.9469 36.9404 46.8297C36.9763 46.6033 37.0202 46.3778 37.0432 46.1495C37.0649 45.9301 37.08 45.706 37.0619 45.4868C37.0553 45.4016 36.9576 45.3144 36.8832 45.2478C36.7887 45.163 36.6704 45.1043 36.572 45.0242C36.296 44.7987 35.9702 44.6823 35.6348 44.5935C35.3356 44.5136 35.0342 44.552 34.7358 44.6312C34.0179 44.8211 33.4014 45.1695 32.9559 45.7769C32.8739 45.8882 32.8117 46.0291 32.788 46.1652C32.7357 46.4658 32.7125 46.7724 32.6817 47.0771C32.6789 47.1084 32.6933 47.1465 32.7095 47.1747C32.9433 47.5919 33.1751 48.0114 33.418 48.4237C33.4669 48.5076 33.5466 48.5606 33.5304 48.6828C33.5056 48.8592 33.4125 48.9641 33.2359 48.9477C33.0736 48.9325 32.9097 48.9157 32.7529 48.8756C32.2022 48.7354 31.6489 48.6046 31.1069 48.4344C29.9605 48.0737 28.843 47.6417 27.8669 46.9136C27.2846 46.4789 26.7 46.0474 26.118 45.6117C26.0324 45.5471 25.9584 45.466 25.8712 45.3839C25.8536 45.421 25.838 45.4504 25.8263 45.4804C25.7029 45.7919 25.5786 46.1031 25.4592 46.4152C25.3714 46.6434 25.2338 46.8302 24.9954 46.9862C25.027 46.8218 25.0485 46.6807 25.0834 46.5427C25.1035 46.4617 25.1093 46.3929 25.087 46.3079C25.0539 46.1863 25.0398 46.0533 25.0461 45.9271C25.072 45.4041 24.9816 44.8954 24.8791 44.3882C24.8677 44.3315 24.8467 44.2753 24.8409 44.2176C24.8081 43.8536 24.6078 43.5655 24.4159 43.2744C24.397 43.2451 24.3779 43.2136 24.3505 43.1925C24.1618 43.0438 24.0342 42.8613 24.0165 42.6088C24.0122 42.6197 24.0022 42.6294 24.0019 42.6408C23.9276 43.4868 23.819 44.3267 23.6222 45.1543C23.4667 45.8087 23.3136 46.4651 23.1831 47.1251C23.0235 47.9296 22.8156 48.7267 22.7468 49.5476C22.6753 50.3999 22.7072 51.2496 22.8302 52.0961C22.8649 52.3344 22.8789 52.575 22.9003 52.8154C22.9031 52.8405 22.8928 52.8669 22.8868 52.9011C22.855 52.8887 22.8291 52.8828 22.8069 52.87C22.6645 52.7821 22.5295 52.6805 22.3805 52.6068C22.1472 52.4919 21.9972 52.308 21.8916 52.0798C21.8768 52.0479 21.8592 52.0181 21.8437 51.988C21.6207 52.0506 21.5499 52.0178 21.4736 51.8083C21.3829 51.5608 21.2952 51.3134 21.2072 51.067C21.2131 51.4571 21.22 51.8528 21.2265 52.263C20.4673 51.9015 19.7977 51.4652 19.3293 50.7675C19.3173 50.7743 19.3065 50.7806 19.2944 50.7874C19.2784 51.0164 19.2625 51.2453 19.2452 51.4884C19.2134 51.4572 19.1922 51.4365 19.172 51.416C18.6718 50.9098 18.2944 50.306 17.8611 49.7464C17.8248 49.6998 17.8136 49.6213 17.8176 49.5601C17.8782 48.7359 17.8682 47.9052 18.02 47.0884C18.0255 47.0581 18.029 47.025 18.0237 46.9957C17.912 46.4128 17.9686 45.8297 18.0509 45.2533C18.3833 42.9148 18.7194 40.5777 19.0843 38.2445C19.2888 36.9381 19.5109 35.6322 19.819 34.3441C19.8664 34.1472 19.9129 33.95 19.9743 33.7575C20.0003 33.6746 19.9854 33.6322 19.9119 33.6036C19.554 33.4622 19.1955 33.3226 18.8373 33.1821C18.8346 33.181 18.8305 33.1836 18.8202 33.1859C18.819 33.2157 18.8171 33.2474 18.8139 33.312C18.6736 33.1758 18.5481 33.0632 18.4326 32.9409C17.9847 32.4644 17.4939 32.0444 16.902 31.7522C16.489 31.5486 16.0442 31.4506 15.6001 31.3509C15.3195 31.2876 15.0417 31.2119 14.7597 31.1522C14.5335 31.1049 14.3031 31.0738 14.0596 31.0333C14.0641 31.0058 14.0661 30.9522 14.0807 30.9014C14.1925 30.5122 14.1578 30.1235 14.0892 29.733C13.9508 28.9422 13.68 28.196 13.2905 27.4997C13.1081 27.1736 12.854 26.8865 12.6226 26.5895C12.5715 26.5246 12.4747 26.4942 12.3983 26.4488C12.2044 26.3346 12.0089 26.2219 11.8154 26.1069C11.7755 26.083 11.7265 26.0639 11.7018 26.0281C11.669 25.9809 11.6282 25.9138 11.6397 25.8681C11.6509 25.8233 11.7216 25.7892 11.7704 25.758C11.8459 25.709 11.9399 25.6797 12.0006 25.6177C12.2209 25.393 12.4424 25.1677 12.6416 24.9244C12.7654 24.7729 12.8847 24.6009 12.9425 24.4175C13.0385 24.1172 12.9965 23.7956 12.8581 23.5201C12.7149 23.2355 12.5066 22.984 12.3277 22.7157C12.3019 22.6774 12.2753 22.6357 12.2651 22.592C12.1798 22.2338 12.2077 21.8829 12.3291 21.5497C12.5116 21.6207 12.6918 21.6867 12.8688 21.7609C13.0395 21.8326 13.2028 21.9233 13.376 21.9887C13.6563 22.0957 13.9459 22.1761 14.2228 22.2891C14.7904 22.5227 15.3578 22.7593 15.9161 23.0143C17.6881 23.8244 19.3285 24.8572 20.9056 25.996C21.0566 26.105 21.2119 26.2083 21.3651 26.314C21.3708 26.3183 21.3798 26.3166 21.3865 26.3181C21.3971 26.1351 21.4148 25.9528 21.4171 25.7697C21.4222 25.3944 21.53 25.0423 21.643 24.6901C21.6566 24.6473 21.687 24.6069 21.7185 24.5742C21.8126 24.4802 21.818 24.4342 21.7496 24.3198C21.7077 24.2501 21.6687 24.1785 21.6395 24.1033C21.6263 24.07 21.6269 24.0201 21.6429 23.9897C21.7581 23.769 21.6923 23.5406 21.6663 23.3204C21.6274 22.9854 21.5624 22.6528 21.5015 22.3207C21.4503 22.0415 21.5209 21.8923 21.7521 21.7252C22.0138 21.5365 22.2168 21.2915 22.3603 20.9983C22.4166 20.8832 22.4865 20.7735 22.5349 20.6544C22.5999 20.4957 22.6246 20.3329 22.4975 20.1841C22.4421 20.1197 22.3834 20.0529 22.3493 19.9769C22.3312 19.9374 22.3508 19.8656 22.3772 19.8247C22.459 19.6977 22.5543 19.579 22.6398 19.4534C22.7034 19.36 22.7709 19.2672 22.813 19.1644C22.885 18.9928 23.0309 18.9054 23.1722 18.8109C23.1949 18.7957 23.2359 18.8085 23.2692 18.8089C23.2637 18.8444 23.2586 18.879 23.2522 18.9142C23.2512 18.9169 23.2467 18.9204 23.2438 18.9224C23.0498 19.0287 22.9543 19.2121 22.8475 19.3953C22.7444 19.5715 22.6044 19.7271 22.4714 19.9021C22.699 20.0075 22.828 20.2051 22.9728 20.389C23.5624 21.1433 24.1512 21.8994 24.6539 22.716C25.1987 23.6013 25.6917 24.5177 26.1073 25.4719C26.1888 25.6573 26.2741 25.841 26.3493 26.0291C26.3772 26.0996 26.3877 26.18 26.3908 26.2554C26.3945 26.3478 26.3385 26.3762 26.2663 26.3146C26.2098 26.2665 26.1571 26.2031 26.1268 26.1359C25.9007 25.6402 25.7046 25.129 25.4525 24.6462C24.9301 23.6442 24.3505 22.6763 23.672 21.7692C23.3928 21.3961 23.1157 21.0206 22.826 20.6318C22.8063 20.6743 22.796 20.7007 22.7831 20.7259C22.6449 20.9868 22.5264 21.2615 22.3599 21.504C22.2392 21.6797 22.0623 21.8199 21.8963 21.9591C21.7778 22.0593 21.7521 22.0932 21.7829 22.2557C21.8424 22.5726 21.9063 22.8891 21.9525 23.2081C21.9822 23.411 21.9861 23.6184 21.9972 23.8235C21.9998 23.8652 21.9961 23.915 21.9732 23.9469C21.9127 24.0352 21.9417 24.0977 21.9841 24.1874C22.0422 24.3093 22.062 24.4518 22.0811 24.5879C22.0871 24.6289 22.0427 24.7025 22.0044 24.7179C21.8769 24.7686 21.8613 24.8786 21.8297 24.9865C21.7246 25.3397 21.6913 25.7019 21.6731 26.068C21.6661 26.2148 21.6595 26.3606 21.6569 26.507C21.6569 26.5258 21.6761 26.549 21.6927 26.5628C22.0715 26.865 22.452 27.1657 22.8339 27.4681C23.0521 26.9238 23.4981 26.6751 24.0228 26.5543C24.2618 26.4989 24.5153 26.5109 24.7621 26.492C24.7772 26.4906 24.7948 26.4964 24.8075 26.4908C24.9087 26.4456 25.0088 26.3978 25.1146 26.3491C25.1125 26.3462 25.1052 26.3329 25.0961 26.3241C24.6629 25.9171 24.2225 25.5178 23.7965 25.1031C23.2229 24.5442 22.6596 23.9747 22.0914 23.4096C22.0832 23.4012 22.0746 23.3937 22.0664 23.3853C22.0249 23.3388 21.9645 23.2818 22.0283 23.2282C22.0591 23.2026 22.1527 23.2119 22.1886 23.2405C22.3734 23.3888 22.5581 23.5401 22.7269 23.7051C23.1657 24.1352 23.5977 24.5721 24.0294 25.0098C24.3518 25.3361 24.6711 25.6653 24.9896 25.9962C25.0834 26.0934 25.1669 26.2012 25.2588 26.3007C25.3147 26.3612 25.3766 26.3821 25.4647 26.3464C25.5154 26.3264 25.5884 26.3402 25.6441 26.3609C25.7823 26.4115 25.9208 26.4665 26.0506 26.5358C26.2227 26.628 26.3774 26.5743 26.5214 26.4892C26.6599 26.4072 26.7819 26.2979 26.9231 26.193C26.4705 25.2077 26.0305 24.2409 25.5827 23.2784C25.0386 22.109 24.4354 20.971 23.792 19.8529C23.6486 19.6037 23.4894 19.3629 23.3409 19.1159C23.3042 19.0546 23.2856 18.9815 23.2575 18.9141C23.2715 18.9049 23.2846 18.8954 23.2987 18.8862C23.3325 18.912 23.3704 18.933 23.3994 18.9631C23.7075 19.2806 23.9753 19.6316 24.1799 20.0217C24.3475 20.3431 24.5972 20.5877 24.8353 20.8487C25.511 21.5884 26.2209 22.2997 26.769 23.1497C27.2289 23.8639 27.4627 24.6407 27.503 25.4822C27.5128 25.6825 27.5688 25.8663 27.6709 26.0336C27.6868 26.0597 27.7059 26.0859 27.7156 26.1148C27.8168 26.4239 28.086 26.5193 28.353 26.6201C28.4002 26.6385 28.4403 26.675 28.4956 26.7101C28.6359 26.6372 28.787 26.4933 28.9624 26.6765C28.9219 26.7267 28.892 26.7955 28.8409 26.8247C28.6115 26.9549 28.3797 27.0831 28.1407 27.1949C28.0194 27.2512 27.9707 27.3389 27.964 27.4554C27.9509 27.6876 27.9428 27.9207 27.9424 28.1526C27.9418 28.1942 27.9772 28.2456 28.0102 28.2762C28.2352 28.4851 28.4661 28.6868 28.6907 28.8966C28.8304 29.0262 28.9636 29.1648 29.1038 29.3041C29.1927 28.9844 29.1609 28.6312 29.4554 28.4009C29.4208 28.3153 29.3835 28.2339 29.3534 28.1501C29.2864 27.9599 29.2168 27.7707 29.1592 27.5779C29.0959 27.3672 29.0424 27.153 28.9919 26.9389C28.9714 26.8546 28.9706 26.7655 28.9613 26.6793L28.9705 26.6797ZM21.6936 35.6803C21.9877 35.7948 22.2825 35.9075 22.5749 36.0234C23.0352 36.2079 23.5054 36.3586 23.9953 36.4374C24.2942 36.4859 24.6014 36.4916 24.8961 36.5561C25.0926 36.5992 25.2451 36.5645 25.3964 36.4551C25.4214 36.4366 25.4484 36.421 25.4754 36.4054C25.6298 36.3149 25.6492 36.2086 25.529 36.0771C25.3923 35.9288 25.2447 35.7897 25.1109 35.6394C24.8594 35.3565 24.7561 35.0257 24.8196 34.6479C24.8266 34.6057 24.8159 34.5555 24.799 34.5155C24.6345 34.1326 24.4684 33.7512 24.2997 33.3709C24.2105 33.1679 24.1175 32.9665 24.0232 32.7657C24.009 32.7351 23.9883 32.705 23.9624 32.6856C23.8697 32.615 23.7684 32.5557 23.6801 32.4816C23.4127 32.2583 23.1742 32.0065 23.0339 31.6822C22.9304 31.4433 22.8508 31.1939 22.7684 30.9465C22.6961 30.7322 22.6606 30.5146 22.7846 30.3036C22.8132 30.2541 22.8517 30.2064 22.8695 30.1527C23.062 29.5723 23.1561 28.9817 23.0531 28.3709C23.043 28.3084 23.0036 28.2377 22.9553 28.1979C22.3792 27.7311 21.8124 27.2512 21.2169 26.8102C20.0401 25.9371 18.8396 25.0954 17.5672 24.3659C16.791 23.9215 16.0056 23.4903 15.2057 23.091C14.5626 22.7695 13.8903 22.5067 13.2317 22.2168C12.9969 22.1139 12.7644 22.0077 12.5052 21.8921C12.5195 22.0514 12.5299 22.1965 12.5473 22.3423C12.5516 22.3743 12.5747 22.4063 12.5943 22.4338C12.6967 22.5709 12.7971 22.7103 12.9043 22.843C13.1945 23.1985 13.349 23.6015 13.3768 24.0618C13.3931 24.3368 13.3482 24.589 13.2007 24.8201C12.945 25.2192 12.6395 25.5716 12.2427 25.8227C13.751 27.0445 14.357 28.6937 14.5132 30.5692C14.5244 30.5672 14.5547 30.5644 14.5847 30.5573C15.0461 30.4516 15.5112 30.4142 15.9856 30.4494C17.1596 30.5376 18.3083 30.7203 19.3917 31.2132C19.8179 31.4074 20.155 31.7174 20.5157 31.999C20.5374 32.0158 20.5366 32.0636 20.5458 32.0964C20.5115 32.0904 20.4728 32.0931 20.4446 32.0769C20.1797 31.9225 19.9287 31.7401 19.6519 31.6135C19.0141 31.3213 18.3544 31.0853 17.665 30.9444C16.6287 30.7333 15.5859 30.6116 14.5253 30.7233C14.4533 30.7309 14.427 30.753 14.4448 30.8227C14.5324 30.8285 14.6181 30.8285 14.7016 30.8422C14.9935 30.89 15.2834 30.9454 15.576 30.9913C16.3839 31.1177 17.1448 31.3649 17.7978 31.8731C18.1411 32.1406 18.4399 32.4577 18.7146 32.7966C18.9953 32.6582 19.6947 32.5856 20.2956 32.6314C20.8883 32.6771 21.5865 32.9323 21.7771 33.1758C20.8906 33.0282 20.0173 32.753 19.1026 32.976C19.8126 33.0371 20.3648 33.388 20.8276 33.9016C21.2857 34.4082 21.6819 34.9451 21.6936 35.6803ZM26.9848 28.4937C26.7131 28.4506 26.4633 28.4182 26.2169 28.3692C26.0724 28.3402 25.9424 28.3627 25.8266 28.4399C25.707 28.5188 25.6042 28.622 25.4892 28.7079C25.3471 28.8125 25.2948 28.9468 25.3269 29.1193C25.3374 29.1756 25.336 29.2357 25.3361 29.2943C25.3405 29.9462 25.1484 30.5602 24.9674 31.1755C24.8957 31.4214 24.8972 31.4471 25.1337 31.5538C25.299 31.6286 25.4793 31.6811 25.5822 31.8518C25.595 31.8725 25.6236 31.8877 25.6488 31.8955C25.9414 31.9896 26.2289 32.113 26.5284 32.1679C27.3438 32.3182 28.1526 32.4961 28.9493 32.7238C29.2504 32.8096 29.5636 32.918 29.7427 33.2125C29.9124 33.4907 30.0788 33.7719 30.2257 34.0633C30.3689 34.3479 30.4886 34.6444 30.6138 34.9377C30.6707 35.0707 30.7548 35.1609 30.8977 35.2072C31.2519 35.3231 31.5761 35.5026 31.8762 35.7198C32.4136 36.1089 32.8994 36.5552 33.3289 37.0601C33.4758 37.2333 33.6406 37.4114 33.7195 37.6167C33.9397 38.1948 34.0718 38.7897 33.8048 39.3976C33.7648 39.4897 33.8318 39.6183 33.9224 39.6567C34.3174 39.8209 34.7111 39.9857 35.1067 40.1481C35.1331 40.1583 35.1768 40.1587 35.1986 40.1431C35.3227 40.0524 35.4643 39.9706 35.4365 39.7789C35.4337 39.7621 35.4467 39.7421 35.4537 39.724C35.5347 39.5214 35.6117 39.3182 35.6972 39.1174C35.7371 39.0231 35.802 38.9397 35.8378 38.8449C35.9001 38.6769 35.9108 38.4991 35.8479 38.3304C35.8054 38.2166 35.7183 38.121 35.6755 38.0082C35.5484 37.6713 35.5604 37.3237 35.6194 36.9735C35.6283 36.9184 35.6173 36.8556 35.6009 36.8011C35.5403 36.605 35.4479 36.4154 35.414 36.2151C35.3476 35.814 35.3125 35.4073 35.2658 35.0117C35.2002 35.0489 35.1636 35.0085 35.1744 34.9218C35.1875 34.8182 35.2032 34.7135 35.237 34.6159C35.2902 34.4578 35.3677 34.3071 35.4191 34.1484C35.5209 33.8358 35.7087 33.587 35.9528 33.3736C36.0831 33.2592 36.2075 33.1383 36.3271 33.027C36.2566 32.9369 36.1929 32.8671 36.1437 32.7894C36.0064 32.5729 35.8748 32.3523 35.7417 32.1332C35.4535 31.6572 35.1656 31.1804 34.8796 30.7042C34.8419 30.6425 34.8138 30.5698 34.8893 30.5156C34.968 30.4584 35.0306 30.5069 35.0784 30.5694C35.1824 30.705 35.2902 30.839 35.3818 30.9823C35.7387 31.5394 36.0808 32.1053 36.448 32.6549C36.6029 32.8877 36.6128 33.1121 36.4795 33.331C36.3302 33.5749 36.1437 33.796 35.9762 34.0277C35.9288 34.0929 35.8735 34.1571 35.8449 34.2306C35.7675 34.4294 35.6979 34.6322 35.6341 34.8363C35.6041 34.9323 35.5674 35.0372 35.5797 35.1319C35.65 35.6735 35.6697 36.2269 35.9164 36.7316C35.9586 36.8191 35.9708 36.8981 35.9001 36.9803C35.8736 37.0108 35.8731 37.0629 35.8609 37.1051C35.9705 37.0035 36.057 36.8888 36.1549 36.7848C36.2936 36.6381 36.4244 36.4768 36.5876 36.3637C36.8095 36.2097 37.0233 36.0661 37.1712 35.8257C37.3731 35.4977 37.5958 35.1809 37.7092 34.8091C37.7405 34.7073 37.7329 34.5873 37.7176 34.4789C37.701 34.3658 37.6371 34.3472 37.527 34.3859C37.4485 34.4128 37.3675 34.4304 37.2702 34.4573C37.2721 34.6054 37.2343 34.759 37.0349 34.8497C37.047 34.7676 37.057 34.7015 37.0658 34.6359C37.0912 34.4472 37.1858 34.2635 37.1064 34.0674C36.9638 33.714 36.8348 33.3554 36.678 33.009C36.5508 32.7263 36.4733 32.4233 36.2897 32.1647C36.0467 31.8224 35.8364 31.4551 35.584 31.1206C35.3423 30.8018 35.1238 30.4637 34.707 30.3046C34.262 30.1345 33.8486 29.8836 33.4171 29.679C33.0172 29.4898 32.6033 29.3287 32.2093 29.1272C32.0357 29.0387 31.8922 29.0476 31.7419 29.1302C31.4115 29.3131 31.0856 29.5029 30.7598 29.6928C30.4111 29.8957 30.0642 30.1045 29.713 30.3033C29.6743 30.3248 29.6095 30.3007 29.5566 30.2968C29.5697 30.2444 29.5783 30.1902 29.5977 30.1403C29.6065 30.1176 29.6342 30.1002 29.656 30.0846C30.1741 29.7125 30.6579 29.2914 31.23 28.9978C31.4297 28.8958 31.6358 28.8067 31.8467 28.708C31.301 28.2059 30.7483 27.698 30.1955 27.1901C30.203 27.1816 30.2109 27.1721 30.2184 27.1635C30.2317 27.1697 30.2475 27.1748 30.2588 27.1834C30.7072 27.543 31.1541 27.9041 31.6045 28.2614C31.7221 28.3542 31.8525 28.4301 31.9723 28.5196C32.1654 28.6627 32.3841 28.7855 32.5337 28.965C32.6208 29.0689 32.7067 29.1222 32.8174 29.1653C33.0289 29.2477 33.2413 29.3304 33.4528 29.4127C33.4499 29.3719 33.4333 29.3529 33.4195 29.3318C33.3201 29.1844 33.1305 29.0834 33.1702 28.8606C33.1728 28.8459 33.1384 28.8189 33.1165 28.8052C32.9717 28.7153 32.8242 28.6297 32.6801 28.538C32.2205 28.2472 31.755 27.9635 31.3031 27.6611C30.867 27.369 30.4046 27.1336 29.9172 26.9438C29.7366 26.8735 29.555 26.8028 29.3719 26.7388C29.3389 26.727 29.2981 26.7404 29.2611 26.7416C29.2652 26.7819 29.2656 26.8239 29.2754 26.8632C29.3309 27.0803 29.3886 27.2972 29.4464 27.5141C29.4716 27.6076 29.4881 27.7049 29.5235 27.794C29.594 27.9751 29.6756 28.1522 29.7525 28.3305C29.7996 28.4377 29.784 28.5477 29.6868 28.5987C29.5275 28.683 29.4849 28.8274 29.4577 28.983C29.4113 29.2472 29.3738 29.5127 29.3234 29.7764C29.3149 29.8222 29.2628 29.8594 29.2308 29.9013C29.2013 29.8564 29.1589 29.8148 29.1469 29.7651C29.13 29.6958 29.1349 29.6214 29.1328 29.584C29.0396 29.5279 28.9625 29.4979 28.9065 29.4457C28.6085 29.1667 28.317 28.8817 28.0197 28.6008C27.9449 28.5299 27.8491 28.4779 27.7829 28.401C27.7211 28.3288 27.6664 28.2385 27.6456 28.1468C27.6274 28.0676 27.6627 27.9768 27.6713 27.8902C27.6886 27.7088 27.6904 27.5245 27.7224 27.3457C27.753 27.1757 27.8112 27.0102 28.0181 26.9674C28.0443 26.9619 28.0654 26.9346 28.0875 26.9181C27.9279 26.8393 27.7744 26.7638 27.6332 26.6942C27.3597 27.1846 27.1921 27.7089 26.8419 28.1412C26.9011 28.1423 26.9722 28.1313 27.0359 28.1477C27.0995 28.1641 27.1562 28.2092 27.2198 28.2444C27.2715 28.1788 27.3374 28.1627 27.4066 28.2534C27.4205 28.2713 27.4398 28.2862 27.457 28.3012C27.8926 28.659 28.3171 29.0291 28.6959 29.4495C28.8471 29.617 29.0066 29.7764 29.1649 29.9363C29.2214 29.9927 29.2715 30.052 29.2146 30.1281C29.1535 30.2099 29.0678 30.1964 28.9961 30.1444C28.9309 30.0971 28.8737 30.0372 28.8171 29.9786C28.5381 29.6912 28.2671 29.3964 27.9822 29.1162C27.7208 28.8586 27.4438 28.617 27.1716 28.3657C27.166 28.3855 27.1487 28.4216 27.146 28.4582C27.1148 28.8955 27.0059 29.3173 26.8989 29.7397C26.8361 29.987 26.811 30.2448 26.771 30.4979C26.7518 30.6169 26.6924 30.6837 26.6058 30.6698C26.5009 30.652 26.479 30.5766 26.4956 30.4858C26.5541 30.1689 26.6051 29.85 26.6789 29.537C26.7327 29.3102 26.8197 29.0921 26.8869 28.8685C26.9256 28.7424 26.9544 28.6146 26.985 28.4958L26.9848 28.4937ZM28.7537 37.2208C28.9753 37.1806 29.1981 37.1158 29.4229 37.1051C29.8998 37.0828 30.3792 37.1001 30.8566 37.0821C31.3889 37.0625 31.8732 37.2041 32.3205 37.4807C32.6793 37.7029 33.0105 37.9584 33.2342 38.3288C33.3004 38.4381 33.3732 38.5438 33.4473 38.6595C33.5082 38.3393 33.4874 38.0437 33.3262 37.7677C33.2654 37.6635 33.218 37.5489 33.1437 37.4552C32.9345 37.1898 32.7115 36.9357 32.5003 36.6726C32.05 36.1137 31.4868 35.7104 30.8112 35.4724C30.5887 35.3942 30.4548 35.2521 30.3734 35.0396C30.2453 34.7054 30.1261 34.3673 29.9753 34.0431C29.8962 33.8733 29.7785 33.7083 29.6404 33.5824C29.4564 33.4135 29.2348 33.2844 29.0305 33.138C28.9739 33.0982 28.9245 33.0371 28.8621 33.0201C28.3965 32.8953 27.9297 32.7731 27.46 32.6613C26.9796 32.5474 26.497 32.4473 26.0154 32.3393C25.9537 32.3257 25.8945 32.3006 25.8011 32.2694C25.8776 32.4863 25.918 32.686 26.0141 32.8552C26.1636 33.1182 26.3362 33.3704 26.5236 33.6086C27.007 34.2222 27.5083 34.822 27.9926 35.436C28.1562 35.6439 28.29 35.8748 28.452 36.1166C28.5002 36.1134 28.5857 36.1007 28.6706 36.1055C28.7511 36.1107 28.8298 36.1341 28.9279 36.1534C28.7851 36.2839 28.2605 36.2835 28.1669 36.1509C28.2153 36.1446 28.2568 36.1399 28.3062 36.134C28.2811 36.0856 28.2705 36.0564 28.2529 36.0318C28.0285 35.7196 27.8166 35.3967 27.5751 35.0988C27.1144 34.5316 26.6309 33.9828 26.1676 33.4167C25.9891 33.1987 25.8049 32.9765 25.7229 32.6958C25.6792 32.5449 25.6215 32.3897 25.7288 32.235C25.709 32.2241 25.6906 32.2097 25.6684 32.2021C25.3624 32.0913 25.0894 31.9254 24.828 31.7296C24.6677 31.6097 24.607 31.4783 24.6487 31.2907C24.6638 31.2224 24.6856 31.1556 24.7034 31.0884C24.7488 30.9127 24.7943 30.737 24.84 30.5604C24.8264 30.5551 24.8132 30.5489 24.799 30.5423C24.7205 30.6821 24.6396 30.82 24.5663 30.9628C24.5243 31.0437 24.4853 31.109 24.3734 31.0393C24.3213 31.157 24.2706 31.2658 24.2235 31.3761C24.1218 31.6156 24.0224 31.8549 23.9244 32.0959C23.9152 32.1195 23.9113 32.1618 23.9253 32.1767C23.9884 32.2483 24.0536 32.3197 24.1278 32.3789C24.2468 32.4733 24.3594 32.56 24.4237 32.7115C24.6604 33.2741 24.9091 33.8329 25.1593 34.3903C25.2204 34.5259 25.2833 34.6518 25.1989 34.7987C25.1887 34.8167 25.1948 34.8442 25.1952 34.8673C25.2026 35.0657 25.2724 35.2381 25.4108 35.3819C25.5618 35.539 25.7152 35.6928 25.8627 35.8537C25.9803 35.9811 25.9693 36.098 25.8463 36.2153C25.8258 36.2355 25.8215 36.2736 25.8135 36.3049C25.7689 36.4757 25.7088 36.6489 25.5204 36.6926C25.0964 36.7909 24.6687 36.8826 24.2273 36.8163C24.1957 36.8113 24.1634 36.8112 24.1418 36.8102C24.1992 36.9768 24.2685 37.1344 24.3069 37.2989C24.3463 37.4689 24.3736 37.6457 24.3721 37.8187C24.3713 37.9657 24.3206 38.1122 24.2935 38.2595C24.2863 38.2995 24.2701 38.3413 24.2755 38.381C24.3243 38.7335 24.0837 38.9513 23.7463 38.8461C23.6012 38.8 23.4663 38.7224 23.326 38.6584C23.3872 38.7857 23.4507 38.9181 23.5141 39.0505C23.601 39.2327 23.7048 39.409 23.7685 39.6C23.7988 39.6913 23.8372 39.7564 23.9068 39.8138C24.0544 39.934 24.2064 40.0486 24.3445 40.1797C24.7626 40.5745 25.1738 40.9761 25.5895 41.3742C25.6313 41.4145 25.6815 41.4466 25.7109 41.4706C25.7752 41.3054 25.8473 41.1579 25.8893 41.0017C25.9351 40.8356 25.978 40.661 25.9775 40.4905C25.9757 40.2347 25.9341 39.9791 25.9101 39.7241C25.9064 39.6851 25.9056 39.6471 25.9028 39.6084C25.9339 39.6173 25.9454 39.6281 25.9505 39.6416C26.0784 39.9548 26.1455 40.282 26.1587 40.6185C26.168 40.8469 26.0916 41.0565 25.9702 41.2475C25.9274 41.3145 25.8706 41.3718 25.8312 41.4192C26.0503 41.4418 26.2709 41.4524 26.4869 41.4884C26.8628 41.5512 27.2348 41.6375 27.6105 41.698C28.1976 41.7929 28.7887 41.8641 29.3746 41.9647C29.7223 42.0248 30.0691 42.1034 30.4056 42.2083C30.7457 42.3146 31.0723 42.4637 31.4046 42.5931C31.4191 42.5987 31.438 42.5957 31.4547 42.5959C31.441 42.5989 31.426 42.6025 31.4123 42.6055C31.3619 42.4583 31.3261 42.3033 31.2581 42.1639C31.0288 41.6868 30.8034 41.2081 30.5462 40.7463C30.4613 40.5941 30.3035 40.449 30.1445 40.3767C29.7244 40.1859 29.3441 39.9437 29.0118 39.6293C28.7758 39.4058 28.5562 39.1645 28.3511 38.9529C28.2608 38.9324 28.1612 38.9386 28.1283 38.8944C28.0883 38.8412 28.1026 38.7454 28.0981 38.6684C28.097 38.647 28.1111 38.6243 28.1205 38.6029C28.279 38.2308 28.4387 37.8581 28.5963 37.4857C28.6076 37.4566 28.6235 37.4158 28.612 37.3915C28.4978 37.1588 28.38 36.9269 28.2591 36.6979C28.2114 36.6083 28.1529 36.5249 28.1103 36.4571C27.9827 36.6238 27.8614 36.7824 27.7271 36.958C27.6749 36.829 27.7326 36.748 27.7829 36.6672C27.8572 36.5488 27.9366 36.4334 28.0083 36.3138C28.0701 36.2114 28.1166 36.1993 28.1879 36.2981C28.3281 36.4938 28.4634 36.6939 28.5918 36.8985C28.6586 37.0061 28.7038 37.1261 28.7509 37.2229L28.7537 37.2208ZM32.3456 46.4853C32.3564 46.4843 32.3672 46.4833 32.3781 46.4823C32.4357 46.3343 32.4988 46.1885 32.5497 46.0389C32.7356 45.4915 33.0929 45.0787 33.5756 44.7785C33.9889 44.5223 34.4406 44.3449 34.9203 44.262C35.5176 44.159 36.062 44.3177 36.5604 44.6486C36.7273 44.7596 36.8879 44.8786 37.0474 44.9898C37.0441 44.7136 37.0408 44.4374 37.0369 44.1631C37.031 43.7782 37.0412 43.3923 37.0105 43.0092C36.9855 42.6922 36.9316 42.3743 36.849 42.0683C36.8125 41.9339 36.8059 41.8299 36.8543 41.7056C37.1661 40.9102 37.4204 40.0988 37.5622 39.254C37.5818 39.1393 37.6223 39.0244 37.62 38.9096C37.6098 38.4551 37.5926 38 37.5667 37.5456C37.5406 37.0839 37.4085 36.6446 37.2769 36.2066C37.1656 36.2992 37.0686 36.4088 36.9476 36.4725C36.7462 36.5791 36.5902 36.7326 36.4394 36.8945C36.3495 36.9912 36.2835 37.115 36.1815 37.1944C36.0041 37.3333 35.941 37.5116 35.9212 37.7234C35.8985 37.9644 35.9167 38.1941 36.0408 38.4097C36.0689 38.4582 36.0868 38.5196 36.0859 38.5757C36.0815 39.0997 35.9445 39.591 35.7066 40.0545C35.6506 40.1633 35.5601 40.2535 35.4858 40.3532C35.4554 40.3936 35.4268 40.4348 35.3977 40.4746C35.3237 40.5493 35.2552 40.4944 35.1736 40.4595C34.6512 40.2362 34.1259 40.0202 33.6013 39.8024C33.407 39.7215 33.2463 39.6401 33.1796 39.3925C33.0972 39.0887 32.9351 38.8071 32.734 38.5532C32.5532 38.3249 32.3505 38.1258 32.1051 37.9696C31.9451 37.8676 31.7944 37.7473 31.6297 37.6549C31.4613 37.5611 31.2818 37.4316 31.1024 37.4224C30.4392 37.3889 29.7738 37.3985 29.1095 37.397C29.071 37.3966 29.0104 37.4316 28.9951 37.4653C28.8143 37.8653 28.6389 38.2674 28.4681 38.6713C28.4578 38.6976 28.4782 38.7526 28.5027 38.7757C28.6925 38.9594 28.8868 39.1396 29.0802 39.3194C29.5451 39.7523 29.8434 39.9364 30.43 40.2045C30.6068 40.2849 30.7846 40.3917 30.8612 40.5951C31.1308 41.3095 31.5886 41.9487 31.7228 42.718C31.7289 42.756 31.726 42.7956 31.7279 42.8339C31.6879 42.8319 31.644 42.8399 31.6073 42.8267C31.5276 42.7978 31.4554 42.7498 31.3745 42.7267C31.2711 42.6969 31.1621 42.6868 31.057 42.6616C30.9384 42.6332 30.8214 42.5981 30.6894 42.5613C31.1507 43.919 31.695 45.2243 32.3463 46.4835L32.3456 46.4853ZM23.0404 38.3852C22.8178 38.2159 22.6031 38.0613 22.3976 37.8965C21.9974 37.5766 21.5983 37.254 21.2056 36.9255C21.0525 36.7979 21.0287 36.6549 21.1215 36.4757C21.2251 36.2766 21.3426 36.0851 21.4581 35.8823C21.3287 35.7797 21.2973 35.6242 21.2681 35.4655C21.2367 35.2912 21.1879 35.1238 21.0755 34.9588C21.0607 35.1579 21.0665 35.3389 21.0314 35.5123C20.8358 36.4846 20.6362 37.4564 20.425 38.4257C20.2459 39.2508 20.0485 40.0718 19.8596 40.8952C19.7125 41.5361 19.5873 42.1825 19.4164 42.8174C19.1276 43.884 18.8272 44.9483 18.6163 46.0348C18.4 47.1433 18.2453 48.2601 18.1222 49.3818C18.1179 49.4251 18.1338 49.4836 18.1625 49.5146C18.3986 49.778 18.6396 50.0369 18.8802 50.2968C18.9083 50.3266 18.9368 50.3555 18.9775 50.3985C18.986 50.3527 18.9906 50.3273 18.9944 50.3016C19.0653 49.7731 19.123 49.2436 19.2086 48.7177C19.3379 47.9266 19.5054 47.142 19.6246 46.35C19.852 44.8424 20.192 43.3598 20.5905 41.8906C20.7747 41.2107 20.9764 40.5345 21.1472 39.8515C21.2953 39.259 21.409 38.6583 21.5428 38.0623C21.5662 37.9565 21.6038 37.8519 21.6523 37.7569C21.667 37.7271 21.747 37.707 21.7878 37.7177C21.852 37.7353 21.8296 37.7873 21.8097 37.8412C21.7845 37.9087 21.7767 37.9851 21.7715 38.0573C21.7192 38.7823 21.5749 39.4912 21.3988 40.1931C21.098 41.3899 20.7578 42.5777 20.4811 43.7797C20.2727 44.6853 20.1345 45.6068 19.9704 46.5223C19.8211 47.3569 19.6745 48.1925 19.5349 49.0287C19.4591 49.4811 19.398 49.9361 19.3369 50.391C19.3303 50.4376 19.355 50.511 19.3907 50.5374C19.7689 50.8226 20.1526 51.1017 20.5357 51.3794C20.6271 51.4453 20.7235 51.5038 20.8349 51.5774C20.8391 51.0324 20.8454 50.5195 20.8474 50.007C20.8485 49.7733 20.8397 49.5409 20.846 49.3072C20.8471 49.2668 20.9039 49.2283 20.9348 49.1891C20.9731 49.2197 21.0299 49.2429 21.0468 49.2829C21.0873 49.3802 21.1136 49.4845 21.1393 49.5876C21.2426 49.9989 21.3424 50.4109 21.4466 50.8226C21.4684 50.9063 21.4991 50.9883 21.5256 51.0707C21.5584 50.702 21.578 50.3375 21.592 49.9739C21.6172 49.3482 21.6358 48.7231 21.661 48.0973C21.6948 47.2669 21.808 46.4444 21.9842 45.635C22.2636 44.3535 22.5864 43.0816 22.8771 41.8035C22.9855 41.3262 23.0599 40.8398 23.1425 40.3566C23.1851 40.1077 23.2607 39.8518 23.2355 39.6078C23.2026 39.3002 23.1564 38.9812 22.9939 38.7005C22.9355 38.5983 22.9215 38.4946 23.0394 38.3879L23.0404 38.3852ZM26.2625 41.791C26.2907 41.8929 26.3234 41.9809 26.3383 42.0714C26.408 42.4884 26.4128 42.9084 26.3624 43.3278C26.2921 43.9244 26.175 44.5123 25.9711 45.0789C25.9439 45.1541 25.9532 45.1974 26.0238 45.2416C26.1952 45.3491 26.3623 45.4623 26.5283 45.5781C27.0259 45.9245 27.5204 46.2759 28.0183 46.6213C28.5312 46.9768 29.0582 47.3064 29.6431 47.5331C30.2413 47.766 30.8436 47.9911 31.4414 48.2249C31.9829 48.4368 32.5429 48.5827 33.1073 48.7115C33.1439 48.7195 33.2027 48.711 33.2236 48.6867C33.2648 48.6401 33.273 48.5868 33.2169 48.5242C33.0801 48.3706 32.9423 48.2145 32.8306 48.0424C32.2574 47.168 31.7654 46.2489 31.346 45.2912C30.9787 44.452 30.627 43.6074 30.4335 42.7084C30.411 42.6024 30.3721 42.5601 30.2621 42.5392C29.752 42.4451 29.2237 42.4328 28.7456 42.1975C28.7228 42.1865 28.692 42.1902 28.6651 42.187C28.2494 42.1297 27.8324 42.0813 27.4179 42.0129C27.0309 41.949 26.6474 41.8656 26.2628 41.79L26.2625 41.791ZM23.423 40.2965C23.4156 40.2968 23.4086 40.2961 23.4012 40.2964C23.3852 40.3937 23.3641 40.491 23.3552 40.5889C23.2727 41.4746 23.0689 42.3391 22.888 43.2064C22.7825 43.7162 22.6383 44.2182 22.5123 44.7242C22.3141 45.5178 22.1549 46.3213 22.0705 47.1341C21.9248 48.5314 21.8783 49.9339 21.903 51.339C21.9063 51.5158 21.9347 51.6576 22.076 51.7805C22.2112 51.898 22.323 52.0429 22.4667 52.2002C22.4578 52.1236 22.4565 52.0813 22.4484 52.0405C22.2917 51.275 22.3002 50.5016 22.3435 49.7272C22.3963 48.7861 22.6398 47.8763 22.843 46.9624C23.0276 46.1311 23.2742 45.3125 23.4424 44.478C23.5846 43.7744 23.6349 43.0519 23.765 42.3447C23.8297 41.9904 23.8046 41.6629 23.7062 41.3277C23.6063 40.9857 23.517 40.6405 23.423 40.2965ZM37.2303 46.8046L37.2603 46.8163C37.2886 46.7865 37.3191 46.7566 37.3453 46.724C37.465 46.5751 37.5786 46.4228 37.7021 46.2775C37.7676 46.2006 37.8067 46.1217 37.8191 46.0199C37.9594 44.8139 38.0976 43.6081 38.2486 42.4042C38.3407 41.6707 38.4547 40.9405 38.557 40.2079C38.5937 39.9472 38.5921 39.6748 38.667 39.426C38.7214 39.2433 38.6736 39.1003 38.6239 38.9461C38.542 38.6947 38.4272 38.4524 38.3647 38.1971C38.1657 37.3764 37.9839 36.552 37.7962 35.7294C37.7774 35.6489 37.7595 35.5687 37.7366 35.4689C37.6113 35.6699 37.4985 35.8497 37.3883 36.0253C37.4218 36.0707 37.4652 36.1096 37.4841 36.1577C37.5805 36.4043 37.6849 36.6488 37.76 36.9017C37.9177 37.4335 37.9007 37.9872 37.9347 38.5335C37.9545 38.8558 37.9241 39.1701 37.8427 39.4813C37.8282 39.5373 37.82 39.5958 37.8083 39.6529C37.7008 40.1787 37.6112 40.7093 37.4096 41.211C37.3737 41.3005 37.3431 41.3952 37.3292 41.4901C37.2835 41.7953 37.2257 42.1021 37.3508 42.4037C37.3532 42.411 37.3531 42.4193 37.3543 42.427C37.3704 42.9361 37.3938 43.4449 37.4025 43.9542C37.4132 44.5657 37.2411 45.1687 37.3101 45.7862C37.332 45.9797 37.2819 46.1808 37.2656 46.3783C37.2534 46.5199 37.2429 46.6621 37.2316 46.8041L37.2303 46.8046ZM23.6798 39.8383C23.7311 40.037 23.7746 40.2097 23.8203 40.3822C24.0264 41.1524 24.2325 41.9225 24.4411 42.6915C24.4521 42.7303 24.4761 42.7679 24.5023 42.8001C24.6128 42.9351 24.7355 43.0602 24.8349 43.2024C24.9687 43.3956 25.0834 43.6002 25.033 43.8534C25.0267 43.8854 25.0441 43.9215 25.0516 43.9558C25.1745 44.475 25.2981 44.9925 25.319 45.5296C25.3226 45.625 25.3262 45.7205 25.3315 45.8438C25.9261 44.5314 26.1885 43.189 26.0666 41.7597C25.9964 41.771 25.9197 41.7693 25.8557 41.7967C25.74 41.8468 25.6416 41.8283 25.5523 41.7517C25.4517 41.6665 25.3537 41.5772 25.2618 41.4829C25.0493 41.2663 24.8396 41.0478 24.6312 40.8286C24.3695 40.5532 24.11 40.2745 23.8483 39.999C23.8008 39.9492 23.749 39.905 23.68 39.8405L23.6798 39.8383ZM18.5576 44.3761C18.5679 44.3497 18.5744 44.3356 18.5792 44.3207C18.7479 43.7048 18.9367 43.0937 19.0813 42.4726C19.5057 40.6497 19.9185 38.8244 20.325 36.9965C20.5087 36.1702 20.7574 35.3544 20.7522 34.4952C20.7521 34.4659 20.7534 34.4278 20.7371 34.4078C20.5763 34.2114 20.4113 34.0176 20.2304 33.8029C19.6118 37.3356 19.0573 40.843 18.5571 44.3748L18.5576 44.3761ZM22.9348 27.5419C23.3268 27.915 23.3891 28.163 23.4355 28.7393C23.4767 29.2456 23.3797 29.7388 23.2138 30.2188C23.185 30.3006 23.166 30.3925 23.17 30.4788C23.1759 30.6222 23.2 30.7643 23.2241 30.9064C23.2524 31.0753 23.2842 31.2434 23.3206 31.4102C23.3332 31.4664 23.3443 31.5428 23.4391 31.5139C23.5187 31.4895 23.6353 31.5255 23.6321 31.3726C23.63 31.2652 23.6497 31.1558 23.6713 31.0492C23.717 30.8245 23.7612 30.5982 23.823 30.3776C23.9782 29.8234 24.141 29.2711 24.3056 28.7195C24.3377 28.6128 24.3972 28.5137 24.4315 28.4068C24.4675 28.2954 24.4896 28.1797 24.6546 28.2178C24.649 28.1006 24.6383 27.9992 24.6417 27.8991C24.6437 27.8268 24.6477 27.7468 24.6795 27.6839C24.8018 27.4451 24.9342 27.2123 25.0643 26.9776C25.1337 26.8531 25.2054 26.7305 25.2925 26.5794C25.1518 26.5998 25.0384 26.609 24.9278 26.6328C24.7469 26.6732 24.5701 26.7434 24.3871 26.7651C23.8 26.8366 23.3108 27.0809 22.9357 27.5422L22.9348 27.5419ZM21.7013 35.9342C21.6717 36.0209 21.6487 36.1123 21.611 36.1958C21.5508 36.3261 21.4747 36.4491 21.4173 36.5804C21.4021 36.6142 21.4149 36.686 21.4424 36.7093C21.7061 36.9395 21.9701 37.1688 22.2443 37.3853C22.6126 37.6771 22.988 37.9613 23.3652 38.2409C23.5137 38.351 23.6728 38.4495 23.8359 38.5381C23.9341 38.592 24.0262 38.5139 24.0128 38.3979C24.0077 38.352 23.9858 38.309 23.9729 38.2643C23.9169 38.0752 23.8621 37.8856 23.8032 37.6986C23.7606 37.5638 23.7274 37.4234 23.6614 37.3005C23.5401 37.0724 23.3995 36.8535 23.264 36.6325C23.2517 36.6131 23.2185 36.6043 23.1933 36.5966C22.6597 36.4421 22.1684 36.1923 21.7039 35.9331L21.7013 35.9342ZM27.3414 26.1792C27.2331 26.2907 27.1299 26.3895 27.0348 26.4968C26.8495 26.7068 26.6074 26.8185 26.3485 26.8954C26.2988 26.9105 26.2301 26.8828 26.1767 26.8588C25.9938 26.7782 25.8147 26.6907 25.6532 26.6142C25.5233 26.8563 25.3937 27.0818 25.281 27.315C25.1594 27.5655 24.9747 27.7957 25.0207 28.1042C25.0524 28.3183 25.0697 28.5341 25.0909 28.7294C25.1691 28.7139 25.2314 28.7016 25.3092 28.6869C25.442 28.4773 25.6098 28.2855 25.8628 28.1645C26.1225 28.0398 26.3741 28.0782 26.6128 28.1283C26.6308 28.0391 26.6314 27.9516 26.666 27.8814C26.8957 27.4231 27.1225 26.9616 27.3729 26.5144C27.4527 26.371 27.3818 26.2901 27.3426 26.1786L27.3414 26.1792ZM24.8511 21.1569C25.6228 22.7619 26.4853 24.3187 27.1388 25.9906C27.1893 25.9255 27.2396 25.8688 27.2819 25.8058C27.3018 25.776 27.3194 25.7337 27.3133 25.701C27.2805 25.498 27.226 25.297 27.2049 25.0933C27.1331 24.4026 26.8896 23.7768 26.4919 23.2143C26.2095 22.8148 25.9044 22.4305 25.599 22.0471C25.3574 21.744 25.1004 21.4537 24.8495 21.1584L24.8511 21.1569ZM24.6877 28.4763C24.2767 29.4379 24.0959 30.4285 23.8526 31.424C23.9781 31.1739 24.0871 30.9425 24.2113 30.7201C24.2641 30.6246 24.3521 30.5491 24.4233 30.4629C24.4614 30.4161 24.5223 30.3697 24.5292 30.317C24.5682 30.0531 24.5999 29.7864 24.619 29.5199C24.6267 29.4142 24.6223 29.3236 24.7814 29.3177C24.7508 29.0392 24.7212 28.7716 24.6886 28.4767L24.6877 28.4763ZM24.0949 37.6501C24.1077 37.6467 24.1205 37.6434 24.1334 37.64C24.0858 37.448 24.0433 37.2537 23.9889 37.0632C23.963 36.9715 23.903 36.8865 23.9837 36.7841C23.8298 36.7524 23.6879 36.7223 23.513 36.6855C23.8002 36.9761 23.9469 37.3134 24.0949 37.6501Z" fill="#F7F8C5"/>
<path d="M26.0874 26.401C25.9488 26.2467 25.8103 26.0924 25.6714 25.939C25.0046 25.2006 24.3494 24.4511 23.666 23.7282C23.1617 23.1952 22.6207 22.6972 22.0954 22.1832C22.0839 22.1725 22.0677 22.163 22.0631 22.1508C22.0484 22.1106 22.0376 22.0687 22.0242 22.028C22.0674 22.027 22.1184 22.0113 22.154 22.0273C22.228 22.0603 22.2962 22.1078 22.363 22.1536C22.9047 22.5318 23.3679 22.9985 23.8146 23.4808C24.34 24.0481 24.8696 24.6129 25.3745 25.1983C25.6122 25.4738 25.7999 25.7915 26.0023 26.0961C26.0577 26.1793 26.0827 26.2842 26.1208 26.3795C26.1097 26.3867 26.0976 26.3935 26.0865 26.4006L26.0874 26.401Z" fill="#F7F8C5"/>
<path d="M24.549 25.9512C24.5615 25.978 24.6012 26.0238 24.5902 26.0467C24.5735 26.0841 24.5267 26.1265 24.4879 26.1323C24.2348 26.1675 23.9763 26.1735 23.7279 26.2263C23.3109 26.3148 22.8966 26.4231 22.487 26.5407C22.3681 26.5749 22.2686 26.672 22.1572 26.7353C22.1277 26.752 22.0874 26.7509 22.0522 26.7581C22.0605 26.7206 22.056 26.6677 22.0786 26.6472C22.1947 26.545 22.3047 26.4237 22.4403 26.3573C23.0729 26.0507 23.7395 25.8879 24.4481 25.9391C24.4754 25.9414 24.5021 25.9455 24.5486 25.9521L24.549 25.9512Z" fill="#F7F8C5"/>
<path d="M21.6611 29.3433C21.6244 29.4377 21.5825 29.4434 21.5191 29.3591C21.355 29.1416 21.1938 28.922 21.0351 28.7013C20.226 27.5793 19.2278 26.6638 18.0441 25.9479C17.3522 25.529 16.616 25.2047 15.8712 24.9001C15.2915 24.6629 14.688 24.4812 14.1474 24.1568C13.9482 24.0374 13.7642 23.8926 13.5761 23.7556C13.5427 23.7311 13.5153 23.6943 13.4974 23.657C13.4883 23.6399 13.5008 23.5998 13.5175 23.5864C13.5313 23.5751 13.5726 23.5765 13.5877 23.5887C14.0262 23.9444 14.5599 24.1094 15.075 24.3005C15.973 24.6334 16.8711 24.9685 17.7196 25.4149C18.6315 25.8944 19.4606 26.4952 20.197 27.2241C20.7033 27.7254 21.1419 28.2767 21.5496 28.8567C21.6548 29.0053 21.7012 29.1708 21.6617 29.3446L21.6611 29.3433Z" fill="#F7F8C5"/>
<path d="M12.4485 25.7297C12.5047 25.7275 12.5664 25.7087 12.6162 25.726C13.3957 25.995 14.1781 26.2568 14.9503 26.5449C15.79 26.8582 16.5805 27.2737 17.3702 27.6993C18.1033 28.0955 18.7718 28.5774 19.4318 29.0759C19.7323 29.3026 20.0302 29.5336 20.3199 29.775C20.5014 29.9261 20.6649 30.0995 20.837 30.2617C20.9156 30.3362 20.9988 30.4072 21.0726 30.4862C21.1013 30.5172 21.1106 30.5658 21.1283 30.6061C21.0837 30.5971 21.0318 30.5989 20.9956 30.5764C20.3064 30.1586 19.6793 29.6562 19.0447 29.1624C18.6317 28.8406 18.2075 28.526 17.7558 28.2634C16.797 27.7082 15.832 27.161 14.7903 26.7679C14.146 26.5244 13.5089 26.2628 12.8707 26.0038C12.7216 25.9437 12.5823 25.8612 12.4382 25.7884C12.4416 25.7688 12.4445 25.748 12.4479 25.7284L12.4485 25.7297Z" fill="#F7F8C5"/>
<path d="M21.6717 29.8987C21.7003 29.9381 21.7304 29.9655 21.7432 29.9997C21.8243 30.2101 21.9136 30.4184 21.9769 30.6343C22.0729 30.9623 22.1476 31.2966 22.2373 31.6273C22.2654 31.7324 22.3064 31.834 22.3514 31.9331C22.4317 32.1107 22.5178 32.2843 22.6032 32.4597C22.6823 32.6243 22.7615 32.7806 22.9459 32.8681C23.102 32.9424 23.2414 33.0542 23.385 33.1551C23.9733 33.5691 24.3893 34.1116 24.6026 34.804C24.6188 34.8564 24.6448 34.9051 24.6566 34.9578C24.6628 34.9822 24.6459 35.0122 24.6397 35.039C24.613 35.0297 24.5744 35.0293 24.5618 35.0108C24.4722 34.8839 24.3712 34.762 24.3041 34.623C24.0302 34.0565 23.6626 33.5778 23.1128 33.2529C22.9657 33.1663 22.8199 33.0761 22.6844 32.9732C22.6134 32.9194 22.5488 32.841 22.5106 32.7592C22.2684 32.2509 22.0043 31.7561 21.9086 31.1858C21.8445 30.8054 21.6942 30.4396 21.5857 30.0659C21.5741 30.0259 21.5787 29.9765 21.5915 29.9355C21.5974 29.9179 21.6423 29.9124 21.6744 29.8998L21.6717 29.8987Z" fill="#F7F8C5"/>
<path d="M24.3406 34.9118C24.36 34.9507 24.3836 34.9892 24.3983 35.0294C24.439 35.1424 24.4711 35.2584 24.5143 35.3704C24.5329 35.4194 24.5676 35.4643 24.6024 35.504C24.7863 35.7188 24.9744 35.931 25.158 36.1468C25.1816 36.1748 25.1959 36.2159 25.2002 36.2531C25.2116 36.3527 25.1509 36.3959 25.0661 36.3452C25.0041 36.3085 24.9494 36.2558 24.9018 36.2007C24.7516 36.0282 24.5921 35.8606 24.4623 35.6731C24.3068 35.4495 24.237 35.1966 24.2989 34.9248C24.313 34.9209 24.3283 34.9164 24.3424 34.9125L24.3406 34.9118Z" fill="#F7F8C5"/>
<path d="M27.0226 31.3383C26.6147 31.03 26.1646 30.8087 25.9129 30.3626C25.8936 30.329 25.9034 30.2795 25.9 30.2374C25.938 30.247 25.9834 30.2459 26.0129 30.2667C26.352 30.5127 26.6875 30.7625 27.026 31.0072C27.057 31.0297 27.1117 31.0395 27.1489 31.0299C27.4004 30.9638 27.6477 30.8792 27.9006 30.823C28.2049 30.7554 28.4866 30.6361 28.7479 30.4724C28.9414 30.3512 29.1511 30.2959 29.3694 30.2586C29.403 30.2529 29.4599 30.2761 29.4733 30.3033C29.4862 30.3292 29.4707 30.3932 29.4457 30.4117C29.1467 30.6402 28.8346 30.8563 28.4789 30.9833C28.213 31.0784 27.9322 31.1311 27.6582 31.2011C27.5048 31.2407 27.3511 31.2811 27.196 31.3169C27.1339 31.3314 27.0694 31.3335 27.0213 31.3388L27.0226 31.3383Z" fill="#F7F8C5"/>
<path d="M32.1363 34.2216C32.1738 34.2488 32.2186 34.284 32.267 34.3154C32.5149 34.4788 32.6464 34.737 32.7973 34.9776C32.8164 35.0091 32.8173 35.0847 32.7961 35.1015C32.7656 35.1262 32.6986 35.1346 32.6615 35.1171C31.9963 34.8173 31.3467 34.4912 30.7789 34.0245C30.7315 33.9851 30.6719 33.9609 30.6206 33.9262C30.6033 33.9143 30.5781 33.8877 30.5827 33.8759C30.5903 33.8538 30.6142 33.8245 30.6338 33.8226C30.6907 33.8187 30.7509 33.817 30.8051 33.8308C30.9141 33.8597 31.0191 33.9016 31.127 33.9332C31.409 34.0168 31.6921 34.0978 31.9749 34.1797C32.023 34.1932 32.073 34.2043 32.1357 34.2203L32.1363 34.2216Z" fill="#F7F8C5"/>
<path d="M30.4541 31.2002C30.5517 31.2853 30.649 31.3576 30.7317 31.4432C31.2804 32.0153 31.7168 32.6744 32.1689 33.3198C32.3343 33.5556 32.4367 33.8349 32.5637 34.0966C32.5789 34.1275 32.5652 34.1734 32.5645 34.2129C32.5243 34.1952 32.4703 34.1888 32.4456 34.1583C32.3133 33.9907 32.183 33.8208 32.0596 33.6463C31.6098 33.0081 31.1806 32.3549 30.6693 31.7617C30.5576 31.6325 30.4507 31.4989 30.3484 31.3618C30.3264 31.3324 30.3211 31.2707 30.3369 31.2382C30.3483 31.2144 30.4072 31.2133 30.4532 31.1999L30.4541 31.2002Z" fill="#F7F8C5"/>
<path d="M34.8246 36.8528C34.9056 36.736 34.9753 36.6241 35.056 36.5217C35.0939 36.4727 35.1531 36.4414 35.2023 36.4009C35.218 36.4144 35.2345 36.4281 35.2502 36.4416C35.1912 36.5503 35.135 36.6622 35.0709 36.7679C35.0329 36.8305 34.9824 36.885 34.9346 36.9406C34.8686 37.0163 34.7856 36.9986 34.7249 36.9478C34.621 36.8603 34.4986 36.8283 34.3748 36.7864C34.2605 36.7471 34.1581 36.6718 34.056 36.6038C34.0262 36.5838 33.9982 36.5321 34.0021 36.4981C34.0405 36.1577 33.8753 35.9135 33.6212 35.7258C33.3586 35.5305 33.1383 35.3015 32.9699 35.0227C32.9502 34.9899 32.9293 34.9525 32.9295 34.917C32.9291 34.8887 32.9565 34.8397 32.9763 34.837C33.0126 34.8323 33.0661 34.8427 33.0908 34.868C33.1839 34.9617 33.2598 35.0728 33.3575 35.16C33.5273 35.3118 33.7161 35.4418 33.8843 35.5951C34.1262 35.8168 34.2808 36.0882 34.3105 36.4227C34.314 36.4648 34.3431 36.519 34.3765 36.5404C34.5117 36.6254 34.6724 36.6744 34.7615 36.8241C34.7698 36.8378 34.795 36.8403 34.8246 36.8528Z" fill="#F7F8C5"/>
<path d="M34.4873 30.3759C34.5032 30.3968 34.5167 30.4104 34.5248 30.4272C34.7264 30.8652 34.9279 31.3033 35.127 31.7425C35.2712 32.062 35.412 32.3824 35.5537 32.703C35.5675 32.7346 35.5831 32.7699 35.5808 32.8024C35.5793 32.8332 35.5627 32.8759 35.5386 32.8895C35.5157 32.9025 35.4607 32.8989 35.4441 32.8799C35.3909 32.8205 35.3364 32.7564 35.3042 32.6833C35.0537 32.1132 34.8057 31.5421 34.5615 30.9693C34.4993 30.8228 34.4448 30.673 34.3949 30.5219C34.3834 30.4871 34.3987 30.4397 34.415 30.4032C34.4213 30.3869 34.4609 30.3845 34.4876 30.375L34.4873 30.3759Z" fill="#F7F8C5"/>
<path d="M33.4091 32.5904C33.3229 32.5004 33.2309 32.4144 33.1524 32.318C33.0835 32.2347 33.0204 32.1443 32.9662 32.05C32.5713 31.3621 32.1802 30.6726 31.7882 29.9826C31.7652 29.9423 31.737 29.9021 31.7246 29.8586C31.7153 29.8236 31.7281 29.7826 31.7312 29.7451C31.7618 29.7633 31.8029 29.773 31.8207 29.7998C31.9605 30.01 32.1037 30.2194 32.2327 30.4358C32.5467 30.9637 32.8565 31.4941 33.1635 32.0265C33.2631 32.2001 33.3482 32.3817 33.4408 32.5599C33.4304 32.5705 33.4204 32.5802 33.4091 32.5904Z" fill="#F7F8C5"/>
<path d="M34.3777 38.4734C34.6228 38.5312 34.7317 38.6864 34.761 38.9362C34.7931 39.2079 34.8674 39.4762 34.9225 39.7454C34.9284 39.7759 34.9441 39.8134 34.9331 39.8363C34.9109 39.8799 34.8796 39.9336 34.8388 39.947C34.8134 39.9559 34.7489 39.9067 34.7319 39.8698C34.599 39.5829 34.4716 39.2928 34.3462 39.0026C34.3128 38.9247 34.2807 38.8433 34.2709 38.7611C34.2605 38.6723 34.2275 38.6229 34.1435 38.5944C34.0871 38.5755 34.0125 38.5496 34.0428 38.4663C34.0735 38.3821 34.1481 38.4028 34.2126 38.4195C34.2687 38.434 34.3231 38.4552 34.3786 38.4737L34.3777 38.4734Z" fill="#F7F8C5"/>
<path d="M34.8083 37.5277C34.5076 37.4222 34.3237 37.1749 34.1198 36.9523C34.1046 36.9349 34.1185 36.8912 34.1182 36.8597C34.1535 36.863 34.1986 36.8545 34.2209 36.8725C34.3288 36.9605 34.4234 37.0664 34.5379 37.1455C34.6637 37.2331 34.8014 37.3066 34.9407 37.3702C35.0362 37.4148 35.1267 37.3998 35.1776 37.2827C35.2022 37.2275 35.2453 37.1784 35.2909 37.1366C35.3171 37.1123 35.3628 37.1102 35.4002 37.0976C35.4087 37.1375 35.4319 37.1799 35.4248 37.2169C35.3646 37.5217 35.1435 37.6468 34.8509 37.5443C34.8364 37.5387 34.8219 37.533 34.8074 37.5274L34.8083 37.5277Z" fill="#F7F8C5"/>
<path d="M35.4504 39.3121C35.3603 39.463 35.3027 39.5681 35.2358 39.6675C35.2204 39.6908 35.1788 39.6955 35.1486 39.7088C35.1365 39.678 35.1095 39.6455 35.1139 39.618C35.1306 39.5189 35.157 39.4215 35.1803 39.324C35.2367 39.0825 35.294 38.8414 35.3504 38.5999C35.3561 38.5771 35.353 38.5529 35.3597 38.5304C35.3779 38.4622 35.4088 38.399 35.4921 38.4105C35.5732 38.4222 35.5794 38.4895 35.5694 38.5556C35.529 38.8231 35.4864 39.0909 35.4514 39.3124L35.4504 39.3121Z" fill="#F7F8C5"/>
<path d="M34.3344 37.4946C34.4016 37.5207 34.4732 37.5382 34.5343 37.5745C34.6936 37.67 34.8512 37.77 35.0041 37.8766C35.0921 37.938 35.1198 37.9018 35.1558 37.8227C35.1937 37.7414 35.248 37.6663 35.2974 37.5904C35.3031 37.5812 35.325 37.5813 35.3387 37.5783C35.4297 37.7287 35.2835 38.0638 35.1166 38.0897C35.0843 38.0949 35.0426 38.0891 35.0173 38.0709C34.777 37.9042 34.5394 37.7333 34.3014 37.5632C34.3124 37.5404 34.3243 37.5178 34.3357 37.494L34.3344 37.4946Z" fill="#F7F8C5"/>
<path d="M33.4932 32.2956C33.2129 31.7913 32.9329 31.2862 32.6421 30.7632C32.8763 30.8972 33.5581 32.0805 33.5286 32.277C33.5169 32.2829 33.5049 32.2897 33.4932 32.2956Z" fill="#F7F8C5"/>
<path d="M34.8843 36.6271C34.7831 36.64 34.6856 36.646 34.6593 36.5312C34.6399 36.4494 34.6479 36.3616 34.6413 36.2765C34.6382 36.2334 34.6403 36.1851 34.6228 36.1469C34.5774 36.0488 34.5169 35.9573 34.4752 35.8574C34.4614 35.8259 34.4897 35.7773 34.4985 35.7358C34.5318 35.7551 34.5784 35.7669 34.5959 35.7946C34.6669 35.9101 34.7373 36.0274 34.7903 36.1515C34.811 36.2004 34.7851 36.2697 34.7827 36.3294C34.7819 36.3584 34.7804 36.3891 34.7902 36.4149C34.8178 36.4863 34.8527 36.5553 34.8843 36.6271Z" fill="#F7F8C5"/>
<path d="M32.5969 34.2647C32.6136 34.2514 32.6166 34.2463 32.6197 34.2464C32.7567 34.2569 33.0499 34.5644 33.0444 34.694C33.043 34.7164 33.0259 34.7443 33.0074 34.7569C32.9962 34.7641 32.961 34.7525 32.9488 34.7383C32.8389 34.6098 32.7309 34.4789 32.6264 34.3473C32.6081 34.3245 32.6056 34.288 32.5969 34.2647Z" fill="#F7F8C5"/>
<path d="M35.115 39.1034C35.0879 39.1221 35.0611 39.1399 35.0352 39.158C35.0217 39.1256 34.9919 39.0921 34.9953 39.062C35.0157 38.9048 35.0414 38.7475 35.0747 38.5922C35.0813 38.5592 35.1254 38.5346 35.1521 38.5063C35.1632 38.542 35.1864 38.5793 35.1825 38.6133C35.1647 38.7746 35.1397 38.9353 35.1156 39.1047L35.115 39.1034Z" fill="#F7F8C5"/>
<path d="M30.9871 45.9402C30.9469 45.9225 30.9025 45.9105 30.8683 45.8856C30.1842 45.4008 29.4102 45.1496 28.5985 44.982C28.226 44.9049 27.8598 44.7958 27.4951 44.6883C27.1829 44.596 26.9449 44.3884 26.7406 44.1426C26.7194 44.1166 26.7236 44.068 26.7162 44.0307C26.751 44.0327 26.7985 44.0209 26.8198 44.0386C27.2944 44.4439 27.8931 44.5035 28.4644 44.6444C28.9394 44.7614 29.4152 44.8819 29.8812 45.0299C30.272 45.1538 30.6063 45.3853 30.8786 45.6952C30.9344 45.7588 30.9708 45.8398 31.0152 45.9136L30.9871 45.9402Z" fill="#F7F8C5"/>
<path d="M29.7305 44.7433C29.6359 44.7472 29.5372 44.7725 29.4478 44.7524C29.1489 44.6851 28.8535 44.6035 28.5583 44.5241C28.5291 44.5159 28.5081 44.4785 28.4828 44.455C28.5148 44.4372 28.5469 44.4058 28.5793 44.4058C28.6484 44.4055 28.7181 44.417 28.7863 44.43C29.0376 44.4797 29.289 44.5295 29.5384 44.5869C29.6113 44.6038 29.6775 44.6484 29.7475 44.6809C29.7415 44.7015 29.7364 44.7226 29.7301 44.7442L29.7305 44.7433Z" fill="#F7F8C5"/>
<path d="M17.9745 10.3402L16.968 5.73167L17.5573 5.60463L18.4387 9.64499L20.1186 9.28055L19.2371 5.24019L19.8264 5.11315L20.7078 9.15351L22.3877 8.78907L21.5062 4.74871L22.0955 4.62167L23.102 9.23017L17.9711 10.349L17.9745 10.3402Z" fill="#F7F8C5"/>
<path d="M23.4881 9.25834L25.1539 5.84313L26.9929 9.17672L26.3462 9.18973L25.1893 7.00782L24.1259 9.24189L23.4881 9.25834Z" fill="#F7F8C5"/>
<path d="M28.7084 9.42685C28.2214 9.36965 27.8406 9.17047 27.5464 8.80129C27.2611 8.43555 27.1408 8.0119 27.1946 7.53376C27.2484 7.05563 27.451 6.66601 27.8079 6.3772C28.1648 6.08839 28.5796 5.96472 29.0366 6.02044C29.5059 6.07075 29.8709 6.28418 30.1297 6.63959C30.3851 7.00384 30.4916 7.46287 30.4388 8.04322L27.7552 7.74186C27.7458 8.05391 27.838 8.31391 28.0286 8.53071C28.2192 8.74751 28.46 8.86162 28.7494 8.90301C29.1288 8.94887 29.4644 8.84532 29.7584 8.61349L30.0762 9.05295C29.6967 9.37369 29.2396 9.50128 28.6927 9.4411L28.7084 9.42685ZM28.9602 6.5305C28.7361 6.50437 28.5233 6.55391 28.3075 6.66341C28.1006 6.77636 27.9526 6.97336 27.8616 7.23328L29.8729 7.45623C29.8651 7.1884 29.7768 6.97066 29.6078 6.80302C29.4388 6.63537 29.2211 6.54044 28.9671 6.51281L28.9602 6.5305Z" fill="#F7F8C5"/>
<path d="M33.7183 10.4507L34.2592 8.51225L32.7088 9.53821L31.9056 7.86065L31.3647 9.79909L30.8222 9.64899L31.7351 6.38876L32.9067 8.82081L35.1703 7.34943L34.2574 10.6097L33.7149 10.4595L33.7183 10.4507Z" fill="#F7F8C5"/>
</svg>
