<svg width="68" height="39" viewBox="0 0 68 39" fill="none" xmlns="http://www.w3.org/2000/svg">
<path d="M60.1205 22.2506C60.3762 22.5999 60.6042 22.9212 60.8322 23.2355C62.3593 25.3448 62.152 27.8173 60.4245 29.8358C60.3001 29.9825 60.1619 30.1152 60.0237 30.2479C59.6368 30.6251 59.2222 30.8975 59.1116 31.561C59.0356 32.0499 58.4414 32.4481 58.089 32.8951C57.9577 33.0627 57.8333 33.2513 57.7642 33.4469C57.4256 34.4177 56.7553 35.1231 55.8847 35.5841C55.1384 35.9753 54.4198 35.6121 53.8739 35.1092C52.4919 33.831 52.6646 32.2036 53.7909 31.0512C54.0673 30.7718 54.5027 30.66 54.8551 30.4645C55.2075 30.2689 55.5668 30.0873 55.8916 29.8568C56.244 29.6123 56.548 29.305 56.9073 29.0676C57.0594 28.9628 57.3496 28.886 57.474 28.9628C57.7987 29.1583 57.9715 28.9907 58.1719 28.8021C58.8145 28.1875 59.3742 27.5379 59.5124 26.602C59.6437 25.708 59.4848 24.8838 58.8905 24.2273C58.2271 23.5009 57.4878 22.8373 56.7415 22.1948C56.5688 22.0411 56.244 22.0201 55.9814 22.0201C50.0388 21.9084 44.0893 21.8176 38.1468 21.6989C36.0392 21.657 33.9317 21.5382 31.8241 21.4754C31.5892 21.4754 31.3197 21.5452 31.1262 21.6779C28.7215 23.3891 26.3307 25.1143 23.9329 26.8395C23.622 27.063 23.3248 27.2935 23.007 27.503C22.164 28.0548 21.397 28.6694 21.0998 29.7381C21.314 29.8568 21.5766 30.0035 21.8323 30.1432C22.9724 30.7648 23.5943 31.7915 23.8569 33.0208C24.0988 34.1453 23.5667 35.0603 22.8135 35.8286C21.5697 37.0998 19.9666 37.7493 18.3013 38.1684C15.406 38.9018 12.5245 38.8669 9.71218 37.7563C8.344 37.2185 7.37661 36.2756 7.0933 34.7739C6.84454 33.4748 7.21768 32.3643 8.25417 31.5261C8.61349 31.2397 8.99355 30.9743 9.35978 30.695C8.29564 29.2422 8.4131 27.9919 9.75364 26.7766C11.0182 25.6312 12.566 25.1283 14.1968 24.8768C16.0072 24.6044 17.7969 24.6743 19.5313 25.3518C19.6349 25.3937 19.8077 25.3588 19.8975 25.2959C21.2173 24.2762 22.5233 23.2494 23.8638 22.2017C23.7256 22.2017 23.5667 22.2017 23.4147 22.2017C21.8323 22.2297 20.243 22.3484 18.6675 22.2506C17.479 22.1808 16.2905 21.8805 15.1296 21.5871C14.1207 21.3287 13.3261 20.6861 12.6697 19.8619C12.5591 19.7222 12.3449 19.6105 12.1652 19.5895C9.53943 19.2403 7.11403 18.2904 4.77155 17.0821C3.58994 16.4744 2.54653 15.6642 1.66897 14.6515C0.563368 13.3803 0.349156 11.9205 0.715384 10.3001C1.16453 8.29552 2.46362 6.96846 4.08055 5.89983C7.83958 3.40635 11.9925 1.95356 16.3941 1.22018C19.3585 0.724282 22.3436 0.549669 25.3495 0.738251C28.0651 0.90588 30.7185 1.3948 33.3374 2.12817C33.7796 2.2539 34.2219 2.36565 34.6641 2.4774C36.7302 2.99426 38.3471 4.22354 39.6669 5.85094C40.89 7.3596 40.9591 9.13367 40.5998 10.9636C40.3234 12.3605 39.9364 13.7225 38.9759 14.9029C40.0608 15.0915 41.0628 15.2871 42.0716 15.4407C44.8909 15.8668 47.6549 16.5163 50.336 17.5221C52.2017 18.2206 54.0743 18.905 55.9469 19.5756C56.1611 19.6524 56.4098 19.6524 56.6448 19.6664C58.9942 19.834 61.3505 19.9946 63.6999 20.1623C64.2734 20.2042 64.8469 20.3089 65.4204 20.3439C66.4777 20.4067 67.3069 21.175 67.528 22.3414C67.68 23.1586 67.0512 24.3111 66.2565 24.6743C65.1993 25.1562 64.149 24.9327 63.5202 23.9828C63.2093 23.5148 63.071 22.9212 62.7947 22.2506H60.1067H60.1205ZM22.5233 3.6508C20.8165 3.69271 17.8107 3.97209 14.8394 4.61467C11.4742 5.34106 8.28872 6.50748 5.56619 8.70063C4.85447 9.27336 4.19111 9.93689 3.62449 10.6563C2.99568 11.4595 3.23753 12.2069 4.12892 12.6748C5.73894 13.52 7.41116 14.1067 9.24231 14.3372C12.7595 14.7911 16.2421 14.8261 19.704 13.946C22.5647 13.2196 25.4462 12.6888 28.4313 12.8075C30.4421 12.8914 32.3976 13.2057 34.3048 13.8343C34.6503 13.946 35.0303 14.2394 35.3137 14.1556C35.6246 14.0648 35.8388 13.6317 36.0876 13.3453C37.7252 11.4875 37.7805 9.06382 36.2258 7.13609C35.4726 6.20016 34.5743 5.54362 33.372 5.21534C30.2486 4.36323 27.1253 3.57397 22.5302 3.63684L22.5233 3.6508ZM34.2288 14.6096C31.4924 13.6247 28.6455 13.4571 25.7641 13.5828C23.546 13.6806 21.4315 14.3441 19.2687 14.7492C17.2579 15.1264 15.2471 15.5036 13.1879 15.3709C11.6262 15.2731 10.0646 15.0705 8.50985 14.9099C6.68562 14.7283 5.07559 13.946 3.52084 13.031C2.56036 12.4653 2.2425 11.5014 2.69856 10.4747C2.90586 10.0067 3.23062 9.55973 3.58303 9.18256C5.31053 7.33166 7.43189 6.06746 9.76056 5.1455C12.9115 3.89526 16.2007 3.25967 19.552 2.90346C22.9448 2.54725 26.3238 2.58915 29.6613 3.41333C31.5408 3.87431 33.3858 4.4191 35.1064 5.33408C38.2089 6.98243 38.7825 10.1813 37.3175 12.8425C36.979 13.4571 36.4953 13.9949 36.0668 14.5746C36.7648 14.6445 37.4972 14.7213 38.2297 14.7772C38.3402 14.7842 38.4992 14.7003 38.5683 14.6026C39.7084 12.9193 40.2681 11.0265 40.0815 9.02192C39.819 6.23509 38.0638 4.45403 35.6246 3.46222C32.6119 2.23294 29.3987 1.80689 26.1718 1.5764C21.8807 1.27606 17.6448 1.59037 13.5058 2.77774C10.4377 3.65779 7.44571 4.75436 4.77846 6.59828C3.48629 7.49929 2.30469 8.50506 1.56532 9.93689C1.4133 10.2302 1.2129 10.5515 1.2129 10.8658C1.2129 12.1021 1.56532 13.2196 2.46362 14.1206C3.43793 15.1055 4.54352 15.8877 5.77349 16.5163C7.8534 17.571 10.037 18.3114 12.3518 18.6257C12.7457 18.6815 13.1119 18.7514 13.3399 19.1565C13.8582 20.0784 14.6805 20.6163 15.6755 20.8188C16.7258 21.0353 17.7969 21.2379 18.8679 21.2798C21.0515 21.3776 23.2419 21.3776 25.4255 21.4055C25.923 21.4055 26.4205 21.3566 26.8973 21.3287C26.9388 20.4975 26.9733 19.7432 27.0079 19.0098C25.9645 19.0098 24.8934 19.0238 23.8155 19.0098C22.0119 18.9819 20.2015 18.9609 18.398 18.8911C18.0042 18.8771 17.4237 18.926 17.3477 18.3812C17.2786 17.8853 17.783 17.6618 18.1838 17.5291C19.2894 17.1589 20.395 16.7189 21.5352 16.5163C25.0938 15.8668 28.6732 16.202 32.2525 16.3766C32.8606 16.4046 33.4687 16.4954 34.0353 16.5513C34.0975 15.8738 34.1528 15.2731 34.2081 14.6165L34.2288 14.6096ZM9.63617 30.9254C9.19393 31.3305 8.73788 31.7077 8.32328 32.1268C7.65992 32.7973 7.54245 33.6285 7.72902 34.5225C7.99851 35.8146 8.92445 36.5131 9.99549 37.0718C11.26 37.7214 12.6213 38.0148 14.0309 38.0148C16.5807 38.0148 18.9854 37.3861 21.2242 36.1499C22.0534 35.6889 22.7029 35.0393 23.0899 34.1593C23.2281 33.852 23.3456 33.4469 23.2696 33.1465C22.9102 31.7915 22.2054 30.688 20.8096 30.213C20.706 30.1781 20.5539 30.1921 20.4641 30.2549C20.0702 30.5203 19.6902 30.8067 19.3171 31.0861C19.3585 31.554 19.324 32.05 19.4553 32.504C19.628 33.1116 19.2825 33.377 18.8679 33.5866C18.3427 33.845 17.7969 34.0545 17.2579 34.278C15.9104 34.8298 14.5146 34.9485 13.1119 34.5853C12.0823 34.3199 11.2462 33.7751 11.1564 32.5459C11.1149 31.9661 10.9283 31.5191 10.3134 31.3305C10.0922 31.2607 9.90566 31.0931 9.63617 30.9324V30.9254ZM16.0072 25.4286C14.0793 25.4496 12.338 25.7778 10.7971 26.7557C10.265 27.0979 9.78128 27.5798 9.40814 28.0967C8.94517 28.7323 9.02809 29.4936 9.61544 30.0035C10.1337 30.4505 10.728 30.8626 11.3568 31.107C13.2708 31.8474 15.2402 31.7356 17.1957 31.2537C18.3427 30.9743 19.4345 30.5483 20.3259 29.7241C21.4937 28.6485 21.4039 27.3633 20.091 26.4833C18.8126 25.6242 17.3615 25.4286 16.0003 25.4216L16.0072 25.4286ZM34.4292 19.4987C34.4292 19.4987 34.4292 19.4987 34.4292 19.5057C32.446 19.5057 30.4628 19.5337 28.4866 19.4917C27.8647 19.4778 27.9753 19.8549 27.9753 20.2042C27.9753 20.742 28.0858 20.8607 28.5557 20.8607C29.7304 20.8607 30.9051 20.8398 32.0729 20.8607C37.1448 20.9725 42.2167 21.1191 47.2887 21.2239C51.0615 21.3077 54.8344 21.3636 58.6072 21.4125C60.2103 21.4334 61.8134 21.4265 63.382 21.7966C64.0592 21.9573 64.7087 22.2157 65.379 22.3973C65.5517 22.4462 65.7729 22.3833 65.9387 22.2995C65.9871 22.2786 65.9594 21.9293 65.8696 21.8455C65.5034 21.5173 65.1371 21.0772 64.6949 20.9585C63.7413 20.7071 62.7394 20.5464 61.7582 20.4835C59.0218 20.3159 56.2854 20.2112 53.5491 20.0854C52.3813 20.0296 51.2066 19.9597 50.0388 19.9108C48.6568 19.8549 47.2748 19.7781 45.8928 19.6314C43.9028 19.4219 41.8781 19.5197 39.8604 19.4987C38.05 19.4848 36.2465 19.4987 34.4361 19.4987H34.4292ZM53.9775 19.4708C52.8996 19.0936 51.8285 18.7234 50.7575 18.3393C49.4515 17.8713 48.18 17.2357 46.8326 16.9424C44.041 16.3347 41.2079 15.8877 38.3886 15.4337C37.4765 15.2871 36.5367 15.308 35.6177 15.2312C35.1824 15.1963 35.058 15.2801 35.0234 15.776C34.9958 16.223 35.1547 16.3906 35.5693 16.4255C37.5732 16.5792 39.584 16.656 41.5672 16.9354C44.5523 17.3475 47.4683 18.0948 50.2116 19.394C50.3221 19.4498 50.4534 19.4778 50.5778 19.4778C51.6972 19.4778 52.8235 19.4778 53.9706 19.4778L53.9775 19.4708ZM21.7494 27.8592C24.4304 25.4845 27.1599 23.2774 30.2901 21.4055C29.454 21.4684 28.763 21.5173 28.072 21.5801C27.996 21.5801 27.9062 21.6081 27.8509 21.65C27.1944 22.1948 26.3929 22.09 25.6328 22.1738C25.4808 22.1878 25.3149 22.2017 25.1905 22.2786C24.5134 22.7116 23.8362 23.1516 23.1728 23.6196C22.2123 24.2971 21.2588 25.0026 20.2706 25.722C21.0169 26.2737 21.6043 26.8814 21.7425 27.8662L21.7494 27.8592ZM18.1078 18.1926C18.1078 18.2415 18.1078 18.2904 18.1147 18.3323C18.3427 18.3323 18.5777 18.3323 18.8057 18.3323C21.5766 18.3672 24.3475 18.3952 27.1184 18.4301C27.4432 18.4301 27.768 18.4091 28.0029 18.7444C28.0651 18.8282 28.3622 18.8492 28.4797 18.7793C29.4194 18.2555 30.3454 17.6967 31.2713 17.1519C31.3542 17.103 31.4233 17.0332 31.5201 16.9564C31.4441 16.9214 31.4164 16.9005 31.3888 16.9005C28.1757 16.8027 24.9556 16.6211 21.7563 17.096C20.4918 17.2846 19.2756 17.6758 18.1009 18.1856L18.1078 18.1926ZM34.8783 18.8212C39.3076 18.933 43.7093 19.0447 47.9935 19.1565C47.9382 19.1355 47.7654 19.0657 47.5858 19.0098C44.7665 18.1088 41.8574 17.6548 38.9552 17.1659C38.0569 17.0122 37.2968 17.0472 36.5713 17.7316C36.0876 18.1856 35.445 18.465 34.8714 18.8212H34.8783ZM11.5295 31.8684C11.6332 32.2525 11.7506 32.5528 11.799 32.8602C11.8543 33.2373 12.027 33.4958 12.3863 33.5796C12.9668 33.7193 13.5472 33.8939 14.1346 33.9218C15.6409 33.9847 17.0989 33.7472 18.4464 33.0138C18.6191 32.923 18.8126 32.7205 18.8403 32.5459C18.9025 32.1617 18.861 31.7566 18.861 31.2817C16.4425 32.3014 14.0378 32.4411 11.5295 31.8684ZM53.404 33.0627C53.404 33.7053 54.2124 34.753 54.938 34.9485C55.2144 35.0254 55.5875 35.0044 55.8363 34.8717C56.4789 34.5225 56.9488 33.9847 57.1768 33.2653C57.2252 33.1116 57.1976 32.8602 57.1008 32.7484C56.6379 32.2036 56.1472 31.6798 55.6566 31.1699C55.4355 30.9394 55.1729 30.8835 54.8413 31.0093C54.0604 31.2956 53.4109 32.1827 53.404 33.0627ZM58.932 30.2689C59.2775 29.9476 59.6022 29.6682 59.8994 29.3609C60.9842 28.1875 61.5578 26.8535 61.2054 25.2051C60.9635 24.0666 60.2587 23.2075 59.5815 22.3275C59.5262 22.2576 59.4295 22.2017 59.3466 22.1948C58.7523 22.1529 58.165 22.1179 57.4671 22.076C58.6832 23.0958 59.9201 23.9549 60.079 25.6451C60.231 27.3074 59.5539 28.5507 58.3032 29.5565C58.5312 29.8079 58.7178 30.0174 58.9458 30.2689H58.932ZM29.5991 18.8841C29.8479 18.933 29.9377 18.9539 30.0344 18.9609C30.2417 18.9749 30.4421 18.9889 30.6494 18.9889C32.3078 19.0098 33.9317 18.912 35.3068 17.7875C35.6868 17.4732 36.1359 17.2567 36.6473 16.9284C36.129 16.8725 35.7421 16.8306 35.3482 16.7957C35.2446 16.7887 35.0718 16.7887 35.0442 16.8446C34.7885 17.3196 34.3324 17.2288 33.9869 17.1449C33.1025 16.9354 32.4046 17.2357 31.6928 17.7037C31.064 18.1228 30.3799 18.4441 29.5991 18.8771V18.8841ZM63.382 22.3554C63.6584 23.6056 64.3563 24.36 65.1509 24.3809C66.0285 24.4089 66.685 23.899 66.9545 22.977C67.1272 22.3903 66.8784 21.7408 66.3395 21.4265C66.374 21.5941 66.4016 21.7478 66.4362 21.9014C66.5744 22.5161 66.3118 22.9491 65.7037 23.0189C65.4826 23.0469 65.2408 22.9631 65.0127 22.8932C64.4876 22.7326 63.9763 22.551 63.3751 22.3484L63.382 22.3554ZM57.8817 32.462C58.006 32.3223 58.2202 32.0779 58.4275 31.8195C58.7799 31.3864 58.7938 31.0581 58.4275 30.6321C58.1235 30.2689 57.778 29.9336 57.4256 29.6193C57.3496 29.5495 57.1146 29.5355 57.0317 29.5984C56.624 29.9127 56.2371 30.2619 55.8432 30.5972C56.5342 31.2258 57.1768 31.8264 57.8747 32.462H57.8817Z" fill="#F7F8C5"/>
</svg>
