<svg width="61" height="50" viewBox="0 0 61 50" fill="none" xmlns="http://www.w3.org/2000/svg">
<path d="M3.66771 48.749C3.33634 48.7681 3.08993 48.5896 2.82865 48.4027C2.1298 47.8993 1.6731 47.1856 1.1718 46.5164C0.98487 46.2658 0.899897 45.9132 0.846792 45.5945C0.685355 44.6153 0.834058 43.6785 1.37572 42.8352C1.47768 42.6759 1.66673 42.5315 1.84729 42.472C2.13193 42.3764 2.44419 42.3552 2.7437 42.3042C2.78618 42.2978 2.83503 42.3063 2.86901 42.2872C3.39794 41.9643 4.02669 41.9473 4.59597 41.7392C5.28208 41.4864 5.83012 41.0233 6.45676 40.6898C6.54597 40.6431 6.61606 40.5602 6.70316 40.5114C7.8842 39.8486 8.78698 38.829 9.87668 38.0473C10.7179 37.4441 11.5463 36.8217 12.3705 36.1972C12.9397 35.7681 13.4984 35.3241 14.0528 34.8781C15.6545 33.5887 17.2922 32.3439 18.8386 30.9929C20.7461 29.3255 22.7683 27.8024 24.7183 26.1923C25.5892 25.4722 26.4092 24.6926 27.2928 23.9895C28.3294 23.1653 29.417 22.407 30.4706 21.6041C31.3734 20.9158 32.2592 20.2042 33.2044 19.4629C33.0239 19.3269 32.8943 19.2292 32.7668 19.1315C32.6458 19.0402 32.5183 18.9552 32.4057 18.8533C32.0998 18.5729 31.7961 18.2903 31.5008 17.9993C30.6235 17.1369 29.7463 16.2766 28.8796 15.4036C28.5928 15.1147 28.323 14.8067 28.0766 14.4838C27.9641 14.3372 27.9237 14.1355 27.8812 13.9443C27.6667 13.7573 27.5711 13.5003 27.5159 13.2199C27.4139 12.6974 27.2949 12.1791 27.2015 11.6565C27.0613 10.8727 26.9275 10.0889 26.8106 9.30294C26.7618 8.96945 26.7533 8.62745 26.7469 8.28971C26.7384 7.8585 26.8616 7.49314 27.2801 7.27223C27.4181 7.20001 27.5137 7.04707 27.6518 6.9706C27.7474 6.91749 27.8812 6.93023 27.998 6.91537C28.0044 7.00671 28.049 7.11929 28.0108 7.18514C27.8876 7.39968 27.7602 7.62697 27.5838 7.79265C27.4394 7.93072 27.3566 8.06242 27.3693 8.24935C27.4054 8.72304 27.45 9.19461 27.4883 9.66618C27.5668 10.6391 27.9789 11.5355 28.1489 12.4807C28.2869 13.2475 28.8095 13.7106 29.2747 14.2119C30.152 15.1572 31.0824 16.0515 32.0043 16.9521C32.3675 17.3068 32.7541 17.6403 33.1534 17.9505C33.5018 18.2202 33.9479 18.2118 34.3642 18.2755C34.6467 18.318 34.9038 18.2245 35.1757 18.1799C35.6345 18.1055 36.1188 18.1247 36.5861 18.1735C36.8431 18.199 37.0853 18.3626 37.3338 18.4645C37.3657 18.4773 37.3997 18.5091 37.4252 18.5028C37.9031 18.4072 38.1155 18.7577 38.3279 19.0635C39.0034 20.0407 39.4261 21.1495 39.817 22.2562C40.0103 22.8021 40.2163 23.3289 40.4989 23.8323C41.0894 24.888 41.8583 25.776 42.776 26.5683C43.7318 27.3946 44.624 28.2952 45.5204 29.1895C46.2044 29.8714 46.8416 30.6021 47.5193 31.2903C47.8591 31.6366 48.2521 31.9339 48.7364 32.0423C48.9488 32.0911 49.1825 32.0508 49.4438 32.0508C49.3652 31.0885 49.2887 30.19 49.2165 29.2915C49.2037 29.1237 49.2016 28.9537 49.2165 28.7859C49.2229 28.7307 49.3036 28.684 49.3524 28.633C49.3949 28.6797 49.4671 28.7222 49.4735 28.7753C49.5818 29.4763 49.8304 30.156 49.7985 30.8825C49.7879 31.148 49.8367 31.4135 49.8622 31.7258C50.1023 31.6068 50.3104 31.5134 50.508 31.405C51.791 30.6956 52.9359 29.7864 54.0851 28.8879C54.6055 28.4822 55.0643 27.9978 55.5635 27.5624C56.0223 27.1609 56.5258 26.8062 56.9591 26.3792C57.7089 25.64 58.3823 24.8434 58.8305 23.8621C59.1513 23.1611 59.54 22.492 59.7184 21.7315C59.7588 21.5616 59.797 21.3895 59.8544 21.141C59.7227 21.2408 59.6441 21.2961 59.5718 21.3577C58.0786 22.6279 56.632 23.9555 55.0027 25.058C53.6666 25.9608 52.3114 26.8338 50.9711 27.7302C50.7268 27.8938 50.5186 28.1083 50.2828 28.2867C50.2085 28.3441 50.1001 28.3568 50.0067 28.3887C50.0003 28.2825 49.943 28.1317 49.9939 28.0786C50.3402 27.7068 50.6715 27.3075 51.0751 27.0101C52.2817 26.1158 53.5477 25.298 54.7415 24.3867C55.9607 23.4542 57.1205 22.4431 58.3058 21.4681C58.7774 21.0815 59.249 20.697 59.6759 20.3466C58.8156 19.4459 57.9405 18.541 57.0781 17.6255C56.7424 17.2686 56.4429 16.8756 56.1073 16.5145C55.8843 16.2724 55.6336 16.0557 55.3893 15.8348C55.1684 15.6351 54.922 15.4631 54.7181 15.2485C53.6411 14.1121 52.4495 13.1031 51.2536 12.0962C48.3031 9.61307 45.4885 6.97697 42.6315 4.38972C41.6863 3.5358 40.7261 2.69887 39.7936 1.83221C39.4346 1.49871 39.1266 1.10998 38.8101 0.736129C38.6189 0.510966 38.4851 0.445117 38.2536 0.623548C36.96 1.62404 35.3859 2.13384 34.0413 3.04511C33.1067 3.67812 32.1572 4.29201 31.2374 4.94625C30.3198 5.6005 29.3575 6.16341 28.3039 6.56913C28.219 6.60099 28.1382 6.65409 28.0639 6.7072C27.9152 6.81341 27.7835 6.78367 27.6879 6.64772C27.5945 6.50965 27.6497 6.39069 27.7899 6.30785C28.1425 6.10393 28.5015 5.90851 28.8456 5.69184C29.5551 5.24364 30.2794 4.81455 30.9592 4.32387C32.9049 2.91979 34.8995 1.60067 37.1235 0.668157C37.4379 0.536458 37.7948 0.504595 38.1325 0.432373C38.2961 0.396262 38.4979 0.449366 38.5658 0.209334C38.5743 0.175347 38.7315 0.147732 38.7931 0.175346C38.9057 0.226326 39.0034 0.315541 39.099 0.400508C40.2567 1.41162 41.4229 2.41211 42.5678 3.43596C44.4095 5.08433 46.2341 6.74968 48.0694 8.40654C49.9918 10.142 51.9227 11.8668 53.8387 13.6087C54.4993 14.2098 55.1111 14.8577 55.555 15.6457C55.5784 15.6861 55.6272 15.7477 55.6527 15.7435C55.9353 15.6882 56.0988 15.8879 56.2645 16.0472C56.6362 16.4062 56.9889 16.7843 57.3457 17.156C57.9299 17.7614 58.5161 18.3604 59.0918 18.9743C59.4104 19.3142 59.746 19.6243 60.1326 19.8941C60.5022 20.1511 60.7125 20.5016 60.721 21.0114C60.7423 22.065 60.5936 23.091 60.3897 24.1148C60.3089 24.5227 60.2686 24.9412 60.1517 25.3384C60.0732 25.6081 59.9053 25.8567 59.7503 26.0946C59.4232 26.5938 58.8964 26.8593 58.4205 27.1843C57.2799 27.9639 56.1328 28.7392 54.9964 29.5273C54.2444 30.0498 53.5137 30.6021 52.7617 31.1246C52.4983 31.3073 52.2073 31.4518 51.9206 31.5983C51.3853 31.8723 50.8457 32.1336 50.3062 32.3991C50.2616 32.4225 50.1978 32.431 50.1724 32.4692C49.8835 32.8856 49.4204 32.8027 49.0168 32.8707C48.5707 32.9451 48.1862 32.7199 47.8209 32.5139C47.1433 32.1336 46.6653 31.5282 46.1449 30.9696C45.5608 30.3429 44.9745 29.7184 44.3627 29.1194C43.0606 27.8385 41.7436 26.5768 40.4351 25.3044C39.8467 24.733 39.2668 24.1488 38.6742 23.5817C38.415 23.3331 38.2493 23.3374 38.0136 23.5689C37.0067 24.563 35.8703 25.3957 34.736 26.2327C33.882 26.8635 33.0409 27.5093 32.1806 28.1295C31.3139 28.7562 30.4239 29.3509 29.5551 29.9733C28.9348 30.4173 28.3677 30.9547 27.7092 31.3264C26.8701 31.8001 26.1351 32.4055 25.3577 32.9578C24.4549 33.6014 23.533 34.2174 22.5899 34.8653C22.6175 34.8016 22.6345 34.7634 22.6557 34.7145C22.626 34.723 22.6005 34.7251 22.5814 34.7379C22.1651 35.0459 21.753 35.3581 21.3324 35.6619C20.7843 36.0591 20.2193 36.4351 19.6819 36.8472C18.9363 37.4207 18.2183 38.0303 17.477 38.6102C16.7973 39.1434 16.1005 39.6575 15.4165 40.1885C15.1149 40.4222 14.8196 40.6664 14.5435 40.9298C13.8043 41.6351 13.0141 42.2702 12.1198 42.7758C11.9605 42.865 11.8267 43.0052 11.6929 43.1369C11.0705 43.7529 10.4566 44.3753 9.83419 44.9892C9.67276 45.1485 9.48371 45.2802 9.30953 45.4267C9.23306 45.4926 9.15659 45.5627 9.08862 45.637C8.69564 46.0576 8.28992 46.4676 7.91607 46.903C7.55708 47.3194 7.21721 47.7527 6.89434 48.1988C6.461 48.7936 5.94271 49.2035 5.15889 49.161C4.8615 49.144 4.56199 49.1717 4.26885 49.1398C4.02457 49.1122 3.77179 49.0442 3.66558 48.7532L3.66771 48.749ZM1.52229 44.7003C1.52229 44.9318 1.4968 45.106 1.52866 45.2717C1.57964 45.5436 1.59876 45.8558 1.74745 46.0704C2.10007 46.5759 2.46967 47.0942 2.93274 47.4914C3.29385 47.8016 3.53813 48.2816 4.15839 48.3262C4.60235 48.3581 5.04842 48.4048 5.486 48.3623C5.66656 48.3454 5.86411 48.1775 5.99156 48.0267C6.30381 47.6614 6.55872 47.2493 6.8731 46.886C7.20022 46.5122 7.57195 46.1766 7.91819 45.8218C8.07751 45.6583 8.22407 45.4841 8.37701 45.3142C8.52783 45.1442 8.66803 44.9615 8.83371 44.8086C9.04188 44.6132 9.28404 44.4539 9.48796 44.2542C10.0764 43.6785 10.6478 43.0838 11.2404 42.5102C11.4273 42.3297 11.6398 42.1661 11.8649 42.0323C12.5956 41.5947 13.2626 41.0764 13.8871 40.4965C14.2291 40.1779 14.5817 39.872 14.9513 39.5852C15.561 39.1116 16.194 38.6697 16.8036 38.196C17.5237 37.631 18.2247 37.0384 18.9427 36.4712C19.3484 36.1504 19.7647 35.8446 20.1896 35.5493C20.7036 35.1903 21.2325 34.8526 21.7508 34.5C22.5644 33.9455 23.3588 33.3614 24.1915 32.8367C25.2834 32.1485 26.3433 31.4305 27.3523 30.6191C28.4484 29.7397 29.6507 28.992 30.7998 28.1805C32.6925 26.8423 34.5936 25.5147 36.4629 24.1467C37.0534 23.7134 37.5611 23.1653 38.1028 22.6662C38.1474 22.6237 38.192 22.5557 38.1941 22.4983C38.2154 21.6232 38.2387 20.7544 37.7395 19.9621C37.2467 19.1825 36.7072 18.5367 35.66 18.5856C35.3328 18.6005 35.0971 18.7279 34.8719 18.9191C34.6913 19.072 34.5278 19.2484 34.3472 19.3992C33.8799 19.7921 33.4083 20.183 32.9346 20.5653C32.1168 21.2281 31.299 21.8908 30.4727 22.5408C29.6188 23.2121 28.7351 23.8493 27.894 24.5354C26.6789 25.5295 25.4936 26.5619 24.2871 27.5666C22.677 28.9091 21.0647 30.2495 19.4419 31.5771C17.8126 32.9111 16.1685 34.2281 14.5286 35.5493C13.9806 35.9911 13.4411 36.45 12.8633 36.8493C11.5973 37.7245 10.3822 38.6612 9.20119 39.6447C8.77211 40.0037 8.36214 40.3924 7.90332 40.7111C7.1195 41.257 6.30381 41.7625 5.49875 42.2808C5.39891 42.3446 5.28845 42.3977 5.178 42.4316C4.87211 42.5294 4.56624 42.6313 4.25186 42.6993C3.93111 42.7673 3.60398 42.8055 3.27685 42.8395C3.07506 42.8607 2.86476 42.8289 2.66721 42.8607C2.39744 42.9053 2.07032 42.9117 1.92375 43.1709C1.64761 43.6594 1.40333 44.1713 1.52441 44.7045L1.52229 44.7003Z" fill="#F7F8C5"/>
<path d="M49.4887 27.4238C49.3931 27.5321 49.3102 27.6851 49.1807 27.7594C49.0192 27.8529 48.8259 27.7913 48.7388 27.6235C48.3522 26.8885 47.7192 26.3957 47.1032 25.8731C46.4957 25.3591 45.9625 24.7579 45.355 24.2418C44.1187 23.1945 42.8485 22.1856 41.6016 21.149C40.7986 20.482 40.0106 19.798 39.2182 19.1161C37.6803 17.7906 36.1297 16.4821 34.6194 15.1248C33.6657 14.2687 32.7735 13.3469 31.8643 12.4441C30.8001 11.3841 29.7423 10.3156 28.6929 9.23869C28.4147 8.95405 28.1619 8.6418 27.9261 8.32317C27.8327 8.19572 27.7965 8.01304 27.7795 7.8516C27.7732 7.78363 27.89 7.70503 27.9495 7.63281C28.0132 7.68592 28.0833 7.73052 28.1385 7.79213C28.2511 7.91745 28.3446 8.0619 28.4657 8.1766C30.0333 9.68264 31.5861 11.2036 33.1813 12.6799C34.3156 13.7292 35.5052 14.717 36.6714 15.7323C38.2539 17.1088 39.8258 18.498 41.4253 19.8553C42.1942 20.5075 43.0269 21.0874 43.8107 21.7225C45.0066 22.689 46.1728 23.6852 47.2264 24.8132C47.5663 25.1764 48.0081 25.4419 48.3543 25.803C48.7091 26.1726 49.0086 26.5996 49.3187 27.0096C49.3931 27.1073 49.4164 27.2411 49.4908 27.4217L49.4887 27.4238Z" fill="#F7F8C5"/>
<path d="M35.9795 23.5355C35.937 23.3358 35.8945 23.1383 35.852 22.9386C35.7352 22.3863 35.6396 21.8298 35.4909 21.286C35.4421 21.1054 35.2594 20.9631 35.1447 20.7996C35.0958 20.7295 35.0618 20.6487 35.0215 20.5723C35.1107 20.5871 35.2105 20.5808 35.2849 20.6211C35.5759 20.7804 35.7926 21.0162 35.903 21.3348C36.0878 21.8616 36.2811 22.3906 36.2365 22.962C36.2217 23.1553 36.1537 23.3464 36.1091 23.5376C36.0645 23.5376 36.022 23.5376 35.9774 23.5376L35.9795 23.5355Z" fill="#F7F8C5"/>
<path d="M6.81421 46.1854C6.76323 46.2449 6.70375 46.3809 6.61453 46.4042C6.4531 46.4446 6.40423 46.3002 6.3575 46.16C6.20881 45.7309 6.04525 45.3082 5.88381 44.8855C5.82221 44.7198 5.74362 44.5605 5.69901 44.3905C5.68627 44.3395 5.74575 44.2482 5.79673 44.2078C5.8201 44.1887 5.92629 44.2312 5.95816 44.2737C6.3044 44.7453 6.62728 45.2296 6.74623 45.818C6.76535 45.9178 6.78234 46.0155 6.81421 46.1833V46.1854Z" fill="#F7F8C5"/>
<path d="M36.8669 23.3778C36.6418 23.1207 36.5419 22.1394 36.714 21.9609C37.1133 22.3008 37.194 22.9763 36.8669 23.3778Z" fill="#F7F8C5"/>
<path d="M38.0945 22.1713C38.0945 22.2498 38.1051 22.303 38.0924 22.3497C38.0733 22.4092 38.0456 22.492 38.001 22.5069C37.9543 22.5239 37.8715 22.4878 37.8269 22.4495C37.7036 22.3412 37.6718 21.9652 37.7737 21.8335C37.8056 21.7932 37.8757 21.7464 37.9139 21.7549C37.9692 21.7677 38.0393 21.8229 38.0541 21.876C38.086 21.978 38.086 22.0905 38.0966 22.1713H38.0945Z" fill="#F7F8C5"/>
</svg>
