<svg width="53" height="58" viewBox="0 0 53 58" fill="none" xmlns="http://www.w3.org/2000/svg">
<path d="M7.88858 28.3238C5.0433 38.4605 10.8223 48.9329 20.7751 51.7265C30.7279 54.5202 41.1123 48.5848 43.9576 38.4481C46.8029 28.3114 41.0239 17.839 31.0711 15.0454C21.1183 12.2517 10.7338 18.1871 7.88858 28.3238Z" stroke="#F7F8C5"/>
<path d="M13.692 43.4561C13.5309 43.4637 13.4121 43.3757 13.286 43.2836C12.949 43.0354 12.7306 42.6863 12.4904 42.3586C12.4008 42.2358 12.3613 42.064 12.3371 41.9089C12.2636 41.4323 12.3406 40.9778 12.6081 40.5707C12.6584 40.4938 12.751 40.4246 12.8391 40.3966C12.9779 40.3516 13.1297 40.3428 13.2755 40.3196C13.2962 40.3167 13.3199 40.321 13.3365 40.3119C13.5952 40.1577 13.9008 40.1526 14.1785 40.0543C14.5132 39.9349 14.7819 39.7127 15.088 39.5538C15.1316 39.5315 15.1661 39.4916 15.2087 39.4683C15.786 39.1522 16.2298 38.6613 16.7633 38.2869C17.1751 37.998 17.5808 37.6997 17.9845 37.4004C18.2633 37.1948 18.537 36.9818 18.8087 36.7679C19.5935 36.1494 20.3957 35.5527 21.154 34.904C22.0893 34.1033 23.0797 33.3734 24.0355 32.6008C24.4623 32.2553 24.8647 31.8806 25.2977 31.5433C25.8056 31.1481 26.3379 30.785 26.8539 30.4001C27.2961 30.0703 27.7302 29.7289 28.1933 29.3734C28.1062 29.3065 28.0437 29.2583 27.9823 29.2102C27.9239 29.1652 27.8624 29.1233 27.8082 29.0731C27.661 28.9353 27.5148 28.7965 27.3728 28.6536C26.9508 28.2301 26.5288 27.8076 26.1121 27.379C25.9742 27.2371 25.8446 27.0861 25.7265 26.928C25.6725 26.8562 25.654 26.7579 25.6343 26.6648C25.531 26.5729 25.4858 26.4475 25.4604 26.3109C25.4135 26.0565 25.3583 25.804 25.3155 25.5496C25.2513 25.168 25.1902 24.7864 25.1374 24.4039C25.1154 24.2416 25.113 24.0754 25.1116 23.9112C25.1096 23.7016 25.1713 23.5247 25.3758 23.4195C25.4433 23.3851 25.4905 23.3112 25.558 23.2747C25.6047 23.2494 25.6697 23.2563 25.7265 23.2497C25.7291 23.2941 25.7503 23.349 25.7313 23.3808C25.6704 23.4845 25.6073 23.5943 25.5208 23.6739C25.4499 23.7403 25.409 23.8038 25.4142 23.8947C25.4294 24.1251 25.4487 24.3545 25.4649 24.5838C25.4982 25.057 25.6939 25.4947 25.7717 25.9549C25.8349 26.3283 26.0865 26.5559 26.3101 26.8019C26.7316 27.2657 27.1792 27.7049 27.6227 28.1473C27.7974 28.3215 27.9836 28.4855 28.1761 28.6382C28.344 28.7711 28.5609 28.7692 28.7629 28.8023C28.8999 28.8243 29.0253 28.7802 29.1577 28.7599C29.381 28.7261 29.6162 28.7378 29.8431 28.7639C29.9679 28.7776 30.0847 28.8583 30.205 28.9091C30.2204 28.9155 30.2368 28.9311 30.2492 28.9281C30.4819 28.8841 30.5834 29.0555 30.6851 29.2052C31.0084 29.6835 31.2082 30.2244 31.3926 30.7642C31.4837 31.0305 31.5812 31.2875 31.716 31.5336C31.9976 32.0496 32.3668 32.4849 32.8087 32.8746C33.2691 33.281 33.6981 33.7231 34.1292 34.1622C34.4581 34.4971 34.7641 34.8554 35.0899 35.1932C35.2533 35.3632 35.4428 35.5097 35.6776 35.5648C35.7806 35.5896 35.8943 35.5712 36.0213 35.5725C35.988 35.1045 35.9553 34.6674 35.9248 34.2304C35.9194 34.1488 35.9193 34.0662 35.9273 33.9848C35.9307 33.958 35.9702 33.9357 35.9942 33.9111C36.0146 33.9341 36.0495 33.9551 36.0523 33.9809C36.1014 34.3221 36.2187 34.6537 36.1996 35.0065C36.1931 35.1355 36.2155 35.2648 36.2263 35.4167C36.3435 35.3601 36.4452 35.3157 36.5417 35.2641C37.1688 34.9258 37.7297 34.4897 38.2927 34.0589C38.5477 33.8643 38.7731 33.6313 39.0179 33.4222C39.2429 33.2294 39.4893 33.0596 39.702 32.8543C40.0701 32.4988 40.4014 32.1152 40.6241 31.6405C40.7835 31.3015 40.9758 30.9783 41.0664 30.6096C41.0868 30.5273 41.1063 30.4438 41.1354 30.3234C41.0709 30.3712 41.0324 30.3977 40.997 30.4272C40.2649 31.037 39.5553 31.6748 38.758 32.2024C38.1041 32.6343 37.4412 33.0517 36.7853 33.4806C36.6658 33.5588 36.5635 33.662 36.448 33.7476C36.4116 33.7751 36.3589 33.7807 36.3133 33.7957C36.3108 33.7441 36.2837 33.6705 36.3087 33.645C36.4788 33.4661 36.6419 33.2737 36.8395 33.1312C37.4303 32.7027 38.0497 32.3117 38.6344 31.8748C39.2316 31.4278 39.8003 30.9423 40.3812 30.4745C40.6124 30.289 40.8435 30.1046 41.0527 29.9364C40.6392 29.4944 40.2185 29.0502 39.804 28.601C39.6427 28.4259 39.4991 28.2334 39.3379 28.0562C39.2307 27.9374 39.11 27.8309 38.9924 27.7223C38.886 27.6241 38.7672 27.5393 38.6692 27.434C38.1515 26.8763 37.5775 26.38 37.0015 25.8846C35.5802 24.6631 34.2258 23.3678 32.8504 22.0961C32.3954 21.6764 31.933 21.2649 31.4842 20.839C31.3115 20.6751 31.1638 20.4847 31.0118 20.3014C30.9201 20.191 30.8554 20.1583 30.742 20.2439C30.1083 20.7235 29.3408 20.9633 28.6828 21.3994C28.2254 21.7023 27.7609 21.9958 27.3106 22.3091C26.8614 22.6224 26.3909 22.8911 25.8769 23.0829C25.8354 23.098 25.796 23.1234 25.7596 23.1488C25.6868 23.1997 25.6229 23.1846 25.5772 23.118C25.5324 23.0505 25.5599 22.9929 25.6284 22.9534C25.8008 22.8561 25.9762 22.7629 26.1445 22.6594C26.4916 22.4451 26.8457 22.2403 27.1785 22.0052C28.1312 21.3327 29.1071 20.7018 30.1926 20.2598C30.346 20.1974 30.5196 20.1837 30.6841 20.1504C30.7638 20.1336 30.8615 20.1605 30.8958 20.0442C30.9001 20.0277 30.9766 20.0151 31.0064 20.0288C31.0609 20.0541 31.1079 20.098 31.1539 20.1397C31.7114 20.6369 32.2731 21.129 32.8243 21.6323C33.7109 22.4427 34.5892 23.2611 35.4727 24.0756C36.3982 24.9286 37.3278 25.7765 38.2501 26.6327C38.5681 26.9281 38.8621 27.246 39.0739 27.6312C39.085 27.651 39.1084 27.6812 39.1208 27.6792C39.2584 27.6538 39.3369 27.7517 39.4166 27.8299C39.5954 28.0062 39.7649 28.1918 39.9364 28.3742C40.2172 28.6713 40.4991 28.9654 40.7758 29.2666C40.9289 29.4334 41.0904 29.5858 41.2769 29.7188C41.4552 29.8456 41.5557 30.017 41.5572 30.2648C41.5622 30.7769 41.4848 31.2747 41.3805 31.7712C41.3393 31.969 41.3175 32.1722 41.2587 32.3646C41.2192 32.4953 41.1364 32.6152 41.0598 32.7301C40.8984 32.971 40.641 33.0974 40.4082 33.2529C39.8499 33.626 39.2886 33.997 38.7323 34.3742C38.3643 34.6243 38.0064 34.889 37.6384 35.1392C37.5094 35.2266 37.3673 35.2953 37.2272 35.3651C36.9657 35.4956 36.7022 35.6198 36.4386 35.7461C36.4168 35.7573 36.3858 35.7611 36.3733 35.7795C36.2308 35.9804 36.0062 35.9378 35.8097 35.9688C35.5925 36.0027 35.4068 35.8913 35.2303 35.7893C34.903 35.6011 34.6738 35.3045 34.4237 35.0304C34.143 34.723 33.8612 34.4165 33.567 34.1223C32.9406 33.4933 32.307 32.8735 31.6776 32.2486C31.3945 31.968 31.1157 31.6812 30.8305 31.4026C30.7058 31.2805 30.6253 31.2817 30.5096 31.393C30.0153 31.871 29.4588 32.27 28.9034 32.6709C28.4852 32.9732 28.0732 33.2828 27.652 33.5799C27.2277 33.88 26.7921 34.1645 26.3668 34.4626C26.0632 34.6752 25.7848 34.9335 25.463 35.1108C25.0528 35.3368 24.6926 35.6273 24.312 35.8917C23.8701 36.2 23.419 36.4947 22.9574 36.8047C22.9711 36.7739 22.9796 36.7554 22.9901 36.7318C22.9757 36.7358 22.9632 36.7367 22.9539 36.7428C22.75 36.8903 22.5482 37.04 22.3423 37.1855C22.0739 37.3758 21.7975 37.5556 21.5342 37.7532C21.169 38.0281 20.817 38.3207 20.4539 38.5988C20.1209 38.8545 19.7797 39.1008 19.4446 39.3554C19.2969 39.4674 19.1521 39.5846 19.0166 39.7112C18.6538 40.0502 18.2666 40.3549 17.8295 40.596C17.7516 40.6386 17.6859 40.706 17.6202 40.7693C17.3146 41.0656 17.0132 41.3649 16.7076 41.6601C16.6284 41.7367 16.5358 41.7997 16.4505 41.8701C16.413 41.9017 16.3755 41.9354 16.342 41.9712C16.149 42.1736 15.9497 42.3707 15.7659 42.5805C15.5893 42.781 15.422 42.9898 15.2628 43.205C15.0492 43.4918 14.7953 43.6884 14.4146 43.6638C14.2702 43.6541 14.1245 43.666 13.9822 43.649C13.8636 43.6344 13.7411 43.6001 13.691 43.4581L13.692 43.4561ZM12.6699 41.4778C12.6687 41.5903 12.6555 41.6748 12.6701 41.7555C12.6935 41.8879 12.7012 42.0397 12.7724 42.1447C12.9412 42.3922 13.1182 42.6459 13.3412 42.8413C13.5151 42.9938 13.6314 43.2283 13.9326 43.2531C14.1482 43.2708 14.3647 43.2958 14.5776 43.2774C14.6654 43.27 14.7623 43.1895 14.825 43.1168C14.9786 42.9409 15.1045 42.7419 15.2591 42.567C15.42 42.3869 15.6023 42.2257 15.7723 42.0551C15.8506 41.9764 15.9227 41.8925 15.9979 41.8107C16.072 41.7289 16.1411 41.6408 16.2224 41.5673C16.3245 41.4734 16.443 41.3972 16.5431 41.3012C16.8319 41.0244 17.1126 40.7383 17.4035 40.4625C17.4952 40.3758 17.5993 40.2973 17.7094 40.2334C18.0667 40.0245 18.3934 39.776 18.6998 39.4973C18.8676 39.3442 19.0405 39.1973 19.2216 39.0599C19.5202 38.8327 19.8301 38.6212 20.1287 38.3941C20.4815 38.1232 20.8251 37.8387 21.1769 37.5667C21.3757 37.4129 21.5795 37.2664 21.7875 37.125C22.0391 36.9532 22.2978 36.7917 22.5515 36.623C22.9496 36.3576 23.3386 36.0778 23.7459 35.827C24.28 35.4981 24.7987 35.1545 25.2931 34.7653C25.8302 34.3435 26.4182 33.9862 26.9808 33.5977C27.9072 32.9569 28.8378 32.3213 29.7531 31.666C30.0422 31.4584 30.2917 31.1946 30.5575 30.9548C30.5794 30.9344 30.6014 30.9016 30.6027 30.8737C30.6174 30.4485 30.6332 30.0264 30.3946 29.6389C30.159 29.2576 29.9001 28.941 29.391 28.9595C29.2319 28.9651 29.1167 29.0258 29.0063 29.1176C28.9178 29.191 28.8374 29.2759 28.7489 29.3482C28.5198 29.5368 28.2887 29.7244 28.0566 29.9078C27.6558 30.2257 27.2551 30.5437 26.8502 30.8554C26.4319 31.1773 25.9993 31.4825 25.587 31.8117C24.9916 32.2886 24.4104 32.7843 23.819 33.2665C23.0298 33.9107 22.2395 34.554 21.4442 35.1909C20.6457 35.831 19.8401 36.4627 19.0365 37.0965C18.768 37.3084 18.5035 37.5286 18.2207 37.7198C17.6011 38.1387 17.0059 38.5878 16.427 39.0598C16.2167 39.232 16.0155 39.4189 15.7909 39.5714C15.4072 39.8327 15.0083 40.0743 14.6145 40.3221C14.5656 40.3526 14.5117 40.3778 14.4578 40.3938C14.3087 40.4397 14.1595 40.4877 14.0064 40.5192C13.8502 40.5506 13.6911 40.5675 13.5319 40.5824C13.4337 40.5917 13.3317 40.5751 13.2356 40.5896C13.1042 40.6099 12.9452 40.6114 12.8727 40.7366C12.736 40.9726 12.6148 41.2201 12.6709 41.4798L12.6699 41.4778Z" fill="#F7F8C5"/>
<path d="M36.066 33.3242C36.019 33.3763 35.9779 33.4503 35.9146 33.4857C35.8357 33.5303 35.7421 33.4994 35.7006 33.4174C35.5164 33.0583 35.2113 32.8156 34.9146 32.5586C34.6219 32.3057 34.3659 32.0109 34.0733 31.757C33.4778 31.2419 32.8656 30.7452 32.2649 30.2351C31.8781 29.9069 31.4985 29.5706 31.1169 29.2352C30.3763 28.5833 29.6293 27.9397 28.9023 27.2724C28.4431 26.8516 28.0142 26.3991 27.577 25.9558C27.0651 25.4354 26.5565 24.9108 26.052 24.3822C25.9182 24.2424 25.7969 24.0894 25.684 23.9334C25.6392 23.871 25.6226 23.782 25.6151 23.7035C25.6124 23.6704 25.6695 23.6328 25.6988 23.598C25.7295 23.6242 25.7633 23.6462 25.7899 23.6764C25.8439 23.7379 25.8886 23.8085 25.9469 23.8649C26.7011 24.6047 27.448 25.3516 28.2158 26.0771C28.7617 26.5927 29.3348 27.0787 29.8963 27.578C30.6584 28.2549 31.4153 28.9379 32.1857 29.6056C32.5561 29.9264 32.9578 30.2124 33.3355 30.525C33.9118 31.0007 34.4735 31.4907 34.9798 32.0441C35.1431 32.2224 35.3565 32.3536 35.5229 32.5309C35.6934 32.7123 35.8368 32.9212 35.9855 33.122C36.0211 33.1699 36.0318 33.235 36.067 33.3232L36.066 33.3242Z" fill="#F7F8C5"/>
<path d="M29.5212 31.3652C29.5015 31.268 29.4819 31.1718 29.4622 31.0745C29.4082 30.8056 29.3646 30.5346 29.2951 30.2696C29.2723 30.1816 29.1842 30.1115 29.1293 30.0315C29.1059 29.9972 29.0898 29.9578 29.0706 29.9204C29.1138 29.9281 29.1624 29.9255 29.1983 29.9455C29.3389 30.0244 29.443 30.14 29.4951 30.2954C29.5822 30.5524 29.6735 30.8104 29.649 31.0878C29.6408 31.1817 29.6068 31.2742 29.5841 31.3669C29.5624 31.3667 29.5418 31.3665 29.5201 31.3663L29.5212 31.3652Z" fill="#F7F8C5"/>
<path d="M15.2341 42.2243C15.209 42.253 15.1794 42.3187 15.1359 42.3296C15.0573 42.3484 15.0343 42.278 15.0123 42.2096C14.9422 42.0004 14.8648 41.7941 14.7885 41.5879C14.7594 41.5071 14.722 41.4293 14.7012 41.3464C14.6953 41.3216 14.7246 41.2775 14.7496 41.2582C14.7611 41.249 14.8124 41.2702 14.8277 41.291C14.9936 41.5219 15.1481 41.7589 15.2029 42.0454C15.2117 42.094 15.2194 42.1416 15.2341 42.2233L15.2341 42.2243Z" fill="#F7F8C5"/>
<path d="M29.953 31.2942C29.8448 31.1682 29.8013 30.6908 29.8858 30.6049C30.0781 30.7721 30.114 31.1008 29.953 31.2942Z" fill="#F7F8C5"/>
<path d="M30.5559 30.7135C30.5555 30.7517 30.5604 30.7776 30.554 30.8002C30.5444 30.829 30.5305 30.8691 30.5088 30.8761C30.486 30.8842 30.4459 30.8662 30.4244 30.8474C30.3651 30.7941 30.3515 30.6113 30.4017 30.5478C30.4174 30.5283 30.4517 30.506 30.4703 30.5103C30.497 30.5168 30.5308 30.544 30.5378 30.5698C30.5527 30.6195 30.5522 30.6743 30.5569 30.7135L30.5559 30.7135Z" fill="#F7F8C5"/>
<path d="M13.2729 11.6795L11.2737 7.35268L14.4179 8.68869L15.4418 5.42728L17.441 9.75409L16.8972 10.0056L15.5157 7.02527L14.7735 9.45882L12.4443 8.45016L13.8258 11.4305L13.282 11.6821L13.2729 11.6795Z" fill="#F7F8C5"/>
<path d="M19.7501 9.21866C19.2722 9.34082 18.8274 9.2751 18.4312 9.03575C18.0351 8.79641 17.7805 8.43908 17.6558 7.97033C17.5402 7.50415 17.6034 7.06841 17.8336 6.66971C18.0729 6.27358 18.4328 6.00986 18.9107 5.8877C19.3886 5.76553 19.8243 5.82869 20.2204 6.06804C20.6166 6.30738 20.8712 6.66471 20.9959 7.13346C21.1115 7.59965 21.0483 8.03538 20.8181 8.43408C20.5788 8.83022 20.2189 9.09393 19.741 9.2161L19.7501 9.21866ZM18.7485 8.57277C19.0087 8.73452 19.3022 8.77748 19.6199 8.69909C19.9377 8.62069 20.1754 8.44098 20.328 8.17823C20.4807 7.91547 20.517 7.61024 20.4295 7.28994C20.3445 6.96049 20.1765 6.71618 19.9163 6.55443C19.6562 6.39268 19.3626 6.34971 19.0449 6.42811C18.7271 6.50651 18.4894 6.68622 18.3368 6.94897C18.1816 7.22086 18.1478 7.51696 18.2328 7.8464C18.3177 8.17585 18.4857 8.42016 18.7459 8.58191L18.7485 8.57277Z" fill="#F7F8C5"/>
<path d="M21.4217 8.74219L22.8106 5.19879L24.9165 8.37263L24.2675 8.43692L22.9385 6.35849L22.0523 8.67276L21.4217 8.74219Z" fill="#F7F8C5"/>
<path d="M26.6778 8.49248C26.181 8.47132 25.7761 8.29851 25.459 7.9532C25.1393 7.61703 24.9901 7.20054 25.0061 6.72201C25.0221 6.24348 25.2041 5.84109 25.5402 5.52143C25.8764 5.20176 26.2929 5.0525 26.7897 5.07366C27.2774 5.09225 27.6823 5.26506 27.9994 5.61037C28.3165 5.95568 28.4683 6.36303 28.4523 6.84157C28.4337 7.32924 28.2543 7.72249 27.9182 8.04215C27.582 8.36182 27.1655 8.51107 26.6778 8.49248ZM25.8953 7.59266C26.0959 7.82639 26.3689 7.94245 26.7001 7.95656C27.0313 7.97066 27.3059 7.8703 27.5265 7.64635C27.7445 7.43152 27.8606 7.15851 27.8773 6.81817C27.8914 6.48696 27.7961 6.19407 27.593 5.96948C27.3925 5.73574 27.1195 5.61968 26.7883 5.60558C26.4571 5.59147 26.1824 5.69183 25.9619 5.91579C25.7413 6.13975 25.6278 6.40362 25.6111 6.74397C25.5944 7.08431 25.6922 7.36806 25.9045 7.59522L25.8953 7.59266Z" fill="#F7F8C5"/>
<path d="M29.544 8.70536L30.0057 5.93676L28.9697 5.76427L29.0534 5.25544L31.7281 5.7006L31.6444 6.20943L30.5628 6.02412L30.1011 8.79272L29.5466 8.69622L29.544 8.70536Z" fill="#F7F8C5"/>
<path d="M32.969 9.53854C32.4964 9.39603 32.1496 9.12126 31.9312 8.70509C31.7129 8.28892 31.677 7.85495 31.8169 7.39149C31.9569 6.92803 32.2291 6.59041 32.6453 6.37206C33.0523 6.15114 33.4954 6.11779 33.968 6.2603C34.4406 6.40282 34.7848 6.68673 34.9966 7.09119C35.2175 7.49822 35.2508 7.94132 35.1134 8.39565C34.9735 8.85912 34.7013 9.19674 34.2851 9.41509C33.8781 9.636 33.435 9.66935 32.9624 9.52684L32.969 9.53854ZM32.4425 8.46413C32.582 8.73987 32.8045 8.93048 33.1243 9.02025C33.4441 9.11002 33.7348 9.09303 34.0039 8.94185C34.2731 8.79067 34.448 8.55389 34.5495 8.22749C34.6509 7.90109 34.6248 7.60788 34.4945 7.33471C34.355 7.05898 34.1299 6.8775 33.8127 6.77859C33.4928 6.68882 33.2022 6.70582 32.933 6.857C32.6639 7.00817 32.4798 7.24239 32.3783 7.56879C32.2769 7.89519 32.303 8.1884 32.4425 8.46413Z" fill="#F7F8C5"/>
<path d="M35.1838 10.2497L36.5896 7.24337L37.1031 7.48608L36.4086 8.97683L38.4345 8.11609L39.0707 8.41298L37.0006 9.29087L37.8009 11.4969L37.1307 11.1806L36.3738 9.06564L35.7013 10.5133L35.1878 10.2706L35.1838 10.2497Z" fill="#F7F8C5"/>
</svg>
