<svg width="40" height="54" viewBox="0 0 40 54" fill="none" xmlns="http://www.w3.org/2000/svg">
<path d="M0.499866 33.002C0.499866 43.827 9.13048 52.5884 19.7597 52.5884C30.3889 52.5884 39.0195 43.827 39.0195 33.002C39.0195 22.1769 30.3889 13.4155 19.7597 13.4155C9.13048 13.4155 0.499866 22.1769 0.499866 33.002Z" stroke="#F7F8C5"/>
<path d="M32.1623 33.6143C32.2794 33.7745 32.3838 33.9219 32.4882 34.0661C33.1876 35.0339 33.0927 36.1683 32.3015 37.0944C32.2446 37.1617 32.1813 37.2225 32.118 37.2834C31.9408 37.4565 31.7509 37.5814 31.7002 37.8859C31.6654 38.1102 31.3933 38.2928 31.2319 38.4979C31.1718 38.5748 31.1148 38.6614 31.0832 38.7511C30.9281 39.1965 30.6211 39.5202 30.2224 39.7316C29.8806 39.9111 29.5515 39.7445 29.3015 39.5137C28.6686 38.9273 28.7477 38.1807 29.2635 37.6519C29.3901 37.5238 29.5895 37.4725 29.7509 37.3828C29.9123 37.293 30.0768 37.2097 30.2255 37.104C30.3869 36.9918 30.5262 36.8508 30.6907 36.7419C30.7604 36.6938 30.8933 36.6586 30.9502 36.6938C31.099 36.7835 31.1781 36.7066 31.2699 36.6201C31.5642 36.3381 31.8205 36.0401 31.8838 35.6107C31.9439 35.2005 31.8711 34.8224 31.599 34.5212C31.2952 34.1879 30.9566 33.8835 30.6148 33.5887C30.5357 33.5182 30.3869 33.5085 30.2667 33.5085C27.5451 33.4573 24.8204 33.4156 22.0989 33.3611C21.1337 33.3419 20.1685 33.2874 19.2033 33.2586C19.0957 33.2586 18.9722 33.2906 18.8836 33.3515C17.7824 34.1366 16.6874 34.9281 15.5893 35.7196C15.4469 35.8222 15.3108 35.9279 15.1652 36.0241C14.7792 36.2772 14.4279 36.5592 14.2918 37.0495C14.3899 37.104 14.5102 37.1713 14.6273 37.2354C15.1494 37.5206 15.4342 37.9916 15.5545 38.5556C15.6652 39.0715 15.4216 39.4913 15.0766 39.8438C14.507 40.427 13.7728 40.725 13.0101 40.9173C11.6842 41.2538 10.3645 41.2378 9.07655 40.7282C8.44996 40.4815 8.00692 40.0489 7.87717 39.3599C7.76324 38.7639 7.93413 38.2544 8.40882 37.8698C8.57338 37.7385 8.74743 37.6167 8.91516 37.4885C8.42781 36.822 8.4816 36.2484 9.09554 35.6908C9.67466 35.1653 10.3835 34.9345 11.1304 34.8192C11.9595 34.6942 12.7791 34.7262 13.5734 35.0371C13.6209 35.0563 13.7 35.0403 13.7412 35.0114C14.3456 34.5436 14.9437 34.0725 15.5576 33.5919C15.4943 33.5919 15.4216 33.5919 15.3519 33.5919C14.6273 33.6047 13.8994 33.6592 13.1779 33.6143C12.6336 33.5822 12.0892 33.4445 11.5576 33.3099C11.0956 33.1913 10.7316 32.8965 10.431 32.5184C10.3804 32.4543 10.2823 32.403 10.2 32.3934C8.99743 32.2332 7.88666 31.7974 6.81386 31.243C6.27272 30.9642 5.79486 30.5925 5.39296 30.1278C4.88662 29.5446 4.78852 28.8749 4.95624 28.1314C5.16194 27.2117 5.75689 26.6029 6.4974 26.1126C8.21895 24.9686 10.1209 24.3021 12.1367 23.9656C13.4943 23.7381 14.8614 23.658 16.238 23.7445C17.4817 23.8214 18.6969 24.0457 19.8963 24.3822C20.0988 24.4399 20.3014 24.4911 20.5039 24.5424C21.4501 24.7795 22.1906 25.3435 22.7951 26.0902C23.3552 26.7823 23.3869 27.5963 23.2223 28.4358C23.0957 29.0767 22.9185 29.7016 22.4786 30.2432C22.9755 30.3297 23.4343 30.4194 23.8964 30.4899C25.1875 30.6854 26.4533 30.9834 27.6812 31.4449C28.5357 31.7653 29.3933 32.0793 30.2509 32.387C30.349 32.4222 30.4629 32.4222 30.5705 32.4286C31.6464 32.5055 32.7256 32.5792 33.8015 32.6562C34.0642 32.6754 34.3269 32.7234 34.5895 32.7395C35.0737 32.7683 35.4535 33.1208 35.5547 33.656C35.6243 34.0309 35.3364 34.5596 34.9724 34.7262C34.4883 34.9474 34.0072 34.8448 33.7193 34.409C33.5769 34.1943 33.5136 33.9219 33.387 33.6143H32.156H32.1623ZM14.9437 25.0808C14.1621 25.1 12.7855 25.2282 11.4247 25.523C9.88352 25.8562 8.42464 26.3914 7.17779 27.3976C6.85184 27.6604 6.54804 27.9648 6.28854 28.2949C6.00056 28.6634 6.11132 29.0062 6.51955 29.2209C7.25691 29.6087 8.02274 29.8779 8.86136 29.9836C10.4721 30.1919 12.0671 30.2079 13.6526 29.8042C14.9627 29.4709 16.2823 29.2274 17.6494 29.2818C18.5703 29.3203 19.4659 29.4645 20.3393 29.7529C20.4976 29.8042 20.6716 29.9388 20.8014 29.9003C20.9438 29.8586 21.0419 29.66 21.1558 29.5286C21.9058 28.6762 21.9311 27.5642 21.2191 26.6798C20.8742 26.2504 20.4628 25.9492 19.9121 25.7986C18.4817 25.4076 17.0513 25.0455 14.9469 25.0743L14.9437 25.0808ZM20.3045 30.1086C19.0514 29.6568 17.7475 29.5798 16.4279 29.6375C15.4121 29.6824 14.4437 29.9868 13.4532 30.1727C12.5323 30.3457 11.6114 30.5188 10.6683 30.4579C9.95314 30.413 9.23795 30.3201 8.52591 30.2464C7.69046 30.1631 6.95311 29.8042 6.24107 29.3844C5.80119 29.1248 5.65562 28.6826 5.86449 28.2115C5.95942 27.9968 6.10816 27.7917 6.26955 27.6187C7.0607 26.7695 8.03223 26.1895 9.0987 25.7665C10.5418 25.1929 12.0481 24.9013 13.5829 24.7379C15.1368 24.5744 16.6842 24.5937 18.2127 24.9718C19.0735 25.1833 19.9185 25.4332 20.7064 25.853C22.1273 26.6093 22.39 28.0769 21.7191 29.2979C21.564 29.5798 21.3425 29.8266 21.1463 30.0926C21.4659 30.1246 21.8014 30.1599 22.1368 30.1855C22.1875 30.1887 22.2603 30.1502 22.2919 30.1054C22.8141 29.3331 23.0704 28.4647 22.9849 27.545C22.8647 26.2664 22.0609 25.4493 20.9438 24.9942C19.564 24.4302 18.0925 24.2348 16.6146 24.129C14.6494 23.9912 12.7095 24.1354 10.8139 24.6802C9.40883 25.084 8.03856 25.5871 6.81703 26.433C6.22525 26.8464 5.6841 27.3079 5.34549 27.9648C5.27587 28.0994 5.18409 28.2468 5.18409 28.391C5.18409 28.9582 5.34549 29.4709 5.75689 29.8843C6.2031 30.3361 6.70943 30.695 7.27273 30.9834C8.22527 31.4673 9.22529 31.807 10.2854 31.9512C10.4658 31.9768 10.6335 32.0088 10.738 32.1947C10.9753 32.6177 11.3519 32.8644 11.8076 32.9574C12.2886 33.0567 12.7791 33.1496 13.2696 33.1689C14.2697 33.2137 15.2728 33.2137 16.2728 33.2266C16.5007 33.2266 16.7285 33.2041 16.9469 33.1913C16.9659 32.81 16.9817 32.4639 16.9975 32.1274C16.5197 32.1274 16.0292 32.1338 15.5355 32.1274C14.7095 32.1146 13.8804 32.105 13.0544 32.0729C12.8741 32.0665 12.6082 32.089 12.5734 31.839C12.5418 31.6115 12.7728 31.5089 12.9563 31.4481C13.4627 31.2782 13.969 31.0763 14.4912 30.9834C16.1209 30.6854 17.7602 30.8392 19.3995 30.9193C19.6779 30.9321 19.9564 30.9738 20.2159 30.9994C20.2444 30.6886 20.2697 30.413 20.295 30.1118L20.3045 30.1086ZM9.04174 37.5943C8.8392 37.7801 8.63034 37.9532 8.44047 38.1454C8.13667 38.4531 8.08287 38.8344 8.16831 39.2446C8.29173 39.8374 8.71579 40.1578 9.2063 40.4142C9.78542 40.7122 10.4088 40.8468 11.0544 40.8468C12.2222 40.8468 13.3234 40.5584 14.3488 39.9912C14.7285 39.7797 15.026 39.4817 15.2032 39.0779C15.2665 38.9369 15.3203 38.7511 15.2855 38.6133C15.1209 37.9916 14.7981 37.4853 14.1589 37.2674C14.1114 37.2514 14.0418 37.2578 14.0007 37.2866C13.8203 37.4084 13.6462 37.5398 13.4753 37.668C13.4943 37.8827 13.4785 38.1102 13.5386 38.3185C13.6177 38.5973 13.4595 38.719 13.2696 38.8152C13.0291 38.9337 12.7791 39.0299 12.5323 39.1324C11.9152 39.3856 11.2759 39.44 10.6335 39.2734C10.162 39.1516 9.77909 38.9017 9.73795 38.3377C9.71896 38.0717 9.63352 37.8666 9.35187 37.7801C9.2506 37.7481 9.16516 37.6712 9.04174 37.5975V37.5943ZM11.9595 35.0723C11.0766 35.0819 10.2791 35.2326 9.57339 35.6812C9.32972 35.8382 9.10819 36.0593 8.93731 36.2964C8.72528 36.5881 8.76325 36.9373 9.03224 37.1713C9.26959 37.3764 9.54175 37.5654 9.82972 37.6776C10.7063 38.0173 11.6082 37.966 12.5038 37.7449C13.0291 37.6167 13.5291 37.4212 13.9374 37.0431C14.4722 36.5496 14.431 35.96 13.8298 35.5562C13.2443 35.1621 12.5798 35.0723 11.9563 35.0691L11.9595 35.0723ZM20.3963 32.3517C20.3963 32.3517 20.3963 32.3517 20.3963 32.3549C19.4881 32.3549 18.5798 32.3677 17.6748 32.3485C17.3899 32.3421 17.4406 32.5152 17.4406 32.6754C17.4406 32.9221 17.4912 32.9766 17.7064 32.9766C18.2444 32.9766 18.7824 32.967 19.3172 32.9766C21.64 33.0279 23.9628 33.0952 26.2856 33.1432C28.0135 33.1817 29.7414 33.2073 31.4692 33.2298C32.2034 33.2394 32.9376 33.2362 33.656 33.406C33.9661 33.4797 34.2636 33.5983 34.5705 33.6816C34.6496 33.704 34.7509 33.6752 34.8269 33.6367C34.849 33.6271 34.8364 33.4669 34.7952 33.4284C34.6275 33.2778 34.4598 33.0759 34.2572 33.0215C33.8205 32.9061 33.3617 32.8324 32.9123 32.8036C31.6591 32.7267 30.4059 32.6786 29.1527 32.6209C28.6179 32.5953 28.0799 32.5632 27.5451 32.5408C26.9122 32.5152 26.2793 32.4799 25.6464 32.4126C24.735 32.3165 23.8077 32.3613 22.8837 32.3517C22.0546 32.3453 21.2286 32.3517 20.3995 32.3517H20.3963ZM29.3489 32.3389C28.8553 32.1659 28.3648 31.996 27.8743 31.8198C27.2761 31.6051 26.6939 31.3135 26.0768 31.1789C24.7983 30.9001 23.5008 30.695 22.2096 30.4867C21.7919 30.4194 21.3615 30.429 20.9406 30.3938C20.7413 30.3778 20.6843 30.4162 20.6685 30.6437C20.6558 30.8488 20.7286 30.9257 20.9185 30.9418C21.8362 31.0123 22.7571 31.0475 23.6653 31.1757C25.0324 31.3647 26.3679 31.7076 27.6242 32.3037C27.6749 32.3293 27.735 32.3421 27.792 32.3421C28.3046 32.3421 28.8205 32.3421 29.3458 32.3421L29.3489 32.3389ZM14.5893 36.1875C15.8171 35.098 17.0672 34.0854 18.5007 33.2266C18.1178 33.2554 17.8013 33.2778 17.4849 33.3067C17.4501 33.3067 17.4089 33.3195 17.3836 33.3387C17.083 33.5887 16.7159 33.5406 16.3678 33.579C16.2982 33.5855 16.2222 33.5919 16.1652 33.6271C15.8551 33.8258 15.545 34.0277 15.2412 34.2424C14.8013 34.5532 14.3646 34.8769 13.9121 35.2069C14.2538 35.4601 14.5228 35.7389 14.5861 36.1907L14.5893 36.1875ZM12.9215 31.7525C12.9215 31.7749 12.9215 31.7974 12.9247 31.8166C13.0291 31.8166 13.1367 31.8166 13.2412 31.8166C14.5102 31.8326 15.7792 31.8454 17.0482 31.8614C17.1969 31.8614 17.3456 31.8518 17.4532 32.0056C17.4817 32.0441 17.6178 32.0537 17.6716 32.0217C18.102 31.7813 18.526 31.525 18.9501 31.275C18.9881 31.2526 19.0197 31.2205 19.064 31.1853C19.0292 31.1693 19.0165 31.1597 19.0039 31.1597C17.5324 31.1148 16.0576 31.0315 14.5924 31.2494C14.0133 31.3359 13.4563 31.5154 12.9184 31.7493L12.9215 31.7525ZM20.602 32.0409C22.6305 32.0922 24.6464 32.1434 26.6084 32.1947C26.5831 32.1851 26.504 32.153 26.4217 32.1274C25.1305 31.714 23.7983 31.5057 22.4691 31.2814C22.0577 31.2109 21.7096 31.227 21.3773 31.541C21.1558 31.7493 20.8615 31.8775 20.5988 32.0409H20.602ZM9.90884 38.0269C9.95631 38.2031 10.0101 38.3409 10.0323 38.4819C10.0576 38.6549 10.1367 38.7735 10.3013 38.812C10.5671 38.8761 10.8329 38.9562 11.1019 38.969C11.7918 38.9978 12.4595 38.8889 13.0766 38.5524C13.1557 38.5107 13.2443 38.4178 13.257 38.3377C13.2855 38.1615 13.2665 37.9756 13.2665 37.7577C12.1589 38.2255 11.0576 38.2896 9.90884 38.0269ZM29.0863 38.5748C29.0863 38.8696 29.4565 39.3503 29.7888 39.44C29.9154 39.4753 30.0863 39.4657 30.2002 39.4048C30.4945 39.2446 30.7097 38.9978 30.8142 38.6678C30.8363 38.5973 30.8237 38.4819 30.7793 38.4306C30.5673 38.1807 30.3426 37.9403 30.118 37.7064C30.0167 37.6007 29.8964 37.575 29.7445 37.6327C29.3869 37.7641 29.0895 38.1711 29.0863 38.5748ZM31.618 37.293C31.7762 37.1456 31.9249 37.0175 32.061 36.8765C32.5579 36.3381 32.8205 35.726 32.6591 34.9698C32.5484 34.4475 32.2256 34.0533 31.9154 33.6495C31.8901 33.6175 31.8458 33.5919 31.8078 33.5887C31.5357 33.5694 31.2667 33.5534 30.9471 33.5342C31.504 34.002 32.0705 34.3962 32.1433 35.1717C32.2129 35.9343 31.9028 36.5047 31.33 36.9662C31.4344 37.0815 31.5199 37.1777 31.6243 37.293H31.618ZM18.1843 32.0697C18.2982 32.0922 18.3393 32.1018 18.3836 32.105C18.4786 32.1114 18.5703 32.1178 18.6653 32.1178C19.4248 32.1274 20.1685 32.0826 20.7982 31.5666C20.9723 31.4224 21.178 31.3231 21.4121 31.1725C21.1748 31.1468 20.9976 31.1276 20.8172 31.1116C20.7697 31.1084 20.6906 31.1084 20.678 31.134C20.5609 31.3519 20.352 31.3103 20.1938 31.2718C19.7887 31.1757 19.4691 31.3135 19.1431 31.5282C18.8552 31.7204 18.5419 31.8679 18.1843 32.0665V32.0697ZM33.656 33.6624C33.7825 34.236 34.1022 34.582 34.4661 34.5917C34.868 34.6045 35.1686 34.3706 35.2921 33.9476C35.3712 33.6784 35.2572 33.3804 35.0104 33.2362C35.0262 33.3131 35.0389 33.3836 35.0547 33.4541C35.118 33.7361 34.9978 33.9347 34.7193 33.9668C34.618 33.9796 34.5072 33.9412 34.4028 33.9091C34.1623 33.8354 33.9281 33.7521 33.6528 33.6592L33.656 33.6624ZM31.1369 38.2992C31.1939 38.2352 31.292 38.123 31.387 38.0044C31.5483 37.8058 31.5547 37.6551 31.387 37.4597C31.2477 37.293 31.0895 37.1392 30.9281 36.995C30.8933 36.963 30.7857 36.9566 30.7477 36.9854C30.561 37.1296 30.3838 37.2898 30.2034 37.4437C30.5199 37.7321 30.8142 38.0076 31.1338 38.2992H31.1369Z" fill="#F7F8C5"/>
<path d="M7.18338 12.8631C6.59122 13.2312 5.97466 13.3473 5.31797 13.1963C4.66128 13.0453 4.14133 12.6816 3.77316 12.0895C3.40499 11.4973 3.29175 10.8714 3.44276 10.2147C3.59376 9.55804 3.96391 9.05026 4.54963 8.66992C4.89261 8.44931 5.25638 8.3268 5.64665 8.28377C6.03406 8.25006 6.37708 8.29441 6.67572 8.41682L6.50107 8.98472C5.9568 8.76638 5.40683 8.83163 4.86336 9.17401C4.42013 9.45551 4.14878 9.84082 4.03714 10.3364C3.93768 10.8255 4.02583 11.301 4.30446 11.7535C4.5831 12.2061 4.97485 12.4896 5.45824 12.6077C5.95094 12.7286 6.41425 12.6469 6.85748 12.3654C7.40096 12.023 7.69807 11.5539 7.73665 10.9646L8.31815 11.0619C8.29814 11.392 8.18863 11.715 7.99318 12.0523C7.79129 12.3774 7.52064 12.6611 7.17121 12.8695L7.18338 12.8631Z" fill="#F7F8C5"/>
<path d="M9.88312 11.361L8.71547 8.72949L7.7273 9.1593L7.50953 8.67453L10.0558 7.55201L10.2736 8.03678L9.24607 8.49524L10.4137 11.1268L9.88312 11.361Z" fill="#F7F8C5"/>
<path d="M13.2554 10.1547C12.772 10.3016 12.3273 10.2565 11.9091 10.026C11.4908 9.79549 11.2115 9.44464 11.0711 8.97346C10.9306 8.50228 10.9664 8.05471 11.1876 7.6336C11.4088 7.2125 11.7475 6.93961 12.2 6.79346C12.6712 6.65303 13.0944 6.70166 13.4819 6.93291C13.8787 7.16702 14.1623 7.57014 14.3357 8.13298L11.6862 8.92826C11.798 9.22757 11.9971 9.44166 12.2649 9.56479C12.5327 9.68792 12.8106 9.71222 13.092 9.62553C13.4622 9.51519 13.7465 9.28671 13.9233 8.94367L14.3981 9.22217C14.1683 9.6712 13.7874 9.98205 13.2489 10.1425L13.2554 10.1547ZM12.3233 7.32049C12.0999 7.38426 11.9151 7.52107 11.7655 7.70943C11.613 7.9071 11.5507 8.1427 11.573 8.43487L13.5615 7.83376C13.4448 7.58386 13.2714 7.41846 13.0444 7.32826C12.8174 7.23807 12.5739 7.23452 12.3233 7.32049Z" fill="#F7F8C5"/>
<path d="M15.9958 9.44936L15.5228 6.61364L14.4608 6.78638L14.3777 6.26148L17.1181 5.7999L17.2013 6.3248L16.0935 6.51401L16.5666 9.34973L15.9958 9.44936Z" fill="#F7F8C5"/>
<path d="M20.631 9.03027L20.6231 8.69155C20.346 8.963 19.9858 9.10699 19.5518 9.12639C19.047 9.14437 18.6366 8.9876 18.2871 8.66612C17.9498 8.3382 17.7707 7.92646 17.7499 7.43092C17.7319 6.92606 17.8822 6.50354 18.2008 6.16334C18.5223 5.81383 18.9247 5.63188 19.4296 5.6139C19.8607 5.60381 20.2238 5.71547 20.5317 5.97322L20.5238 5.63451L21.1117 5.6115L21.2254 9.01944L20.6375 9.04245L20.631 9.03027ZM19.5389 8.57213C19.7759 8.5635 19.9871 8.50618 20.1633 8.39731C20.3488 8.29129 20.4841 8.14948 20.5879 7.9776L20.5419 6.66928C20.4301 6.50244 20.2854 6.37643 20.0892 6.28551C19.9023 6.19746 19.6825 6.15023 19.4454 6.15886C19.116 6.16965 18.8446 6.28999 18.6377 6.53207C18.4337 6.76483 18.3327 7.05989 18.3378 7.40791C18.3522 7.7588 18.4696 8.0395 18.6874 8.25931C18.9144 8.48199 19.188 8.5865 19.5174 8.57571L19.5389 8.57213Z" fill="#F7F8C5"/>
<path d="M23.5551 9.29749C23.0638 9.23812 22.6613 9.02263 22.3662 8.65675C22.074 8.28155 21.9529 7.84689 22.0123 7.35563C22.0716 6.86437 22.2843 6.47119 22.653 6.16679C23.0218 5.86239 23.4564 5.74131 23.957 5.80353C24.4697 5.85931 24.888 6.08984 25.1931 6.48938L24.7764 6.85036C24.5415 6.55393 24.2543 6.39428 23.8991 6.35638C23.5747 6.31776 23.2839 6.40158 23.0484 6.60428C22.8128 6.80697 22.6682 7.0784 22.6332 7.42428C22.5981 7.77017 22.6698 8.06734 22.8574 8.31867C23.0451 8.57 23.3072 8.71175 23.6316 8.75037C23.9868 8.78827 24.3019 8.69154 24.5983 8.45662L24.9292 8.90485C24.5454 9.22501 24.0893 9.34968 23.5766 9.2939L23.5551 9.29749Z" fill="#F7F8C5"/>
<path d="M25.4034 9.50961L26.2285 6.19677L26.7957 6.34063L26.3842 7.977L28.2523 6.70706L28.9434 6.87882L27.0388 8.1681L28.2794 10.231L27.5417 10.0449L26.3677 8.06365L25.9705 9.65347L25.4034 9.50961Z" fill="#F7F8C5"/>
<path d="M29.808 10.8945C29.3353 10.7084 29.0044 10.3927 28.8124 9.95657C28.6205 9.52049 28.6254 9.07364 28.8087 8.61029C28.9919 8.14694 29.3048 7.82536 29.7409 7.63338C30.177 7.4414 30.636 7.4399 31.1087 7.62602C31.5813 7.81213 31.9029 8.12502 32.0949 8.5611C32.2869 8.99719 32.2819 9.44404 32.0987 9.90739C31.9154 10.3707 31.6025 10.6923 31.1664 10.8843C30.7304 11.0763 30.2713 11.0778 29.808 10.8945ZM29.3559 9.74667C29.4706 10.0367 29.6912 10.2472 30.0084 10.3753C30.3257 10.5035 30.6243 10.4934 30.9107 10.3573C31.1971 10.2212 31.3983 9.99772 31.5293 9.67116C31.6575 9.3539 31.6624 9.03953 31.5478 8.74952C31.4332 8.45952 31.2126 8.24901 30.8953 8.12088C30.5781 7.99274 30.2795 8.00281 29.9866 8.12674C29.7002 8.26285 29.4897 8.48344 29.368 8.81286C29.2463 9.14229 29.2349 9.44449 29.3495 9.7345L29.3559 9.74667Z" fill="#F7F8C5"/>
<path d="M32.0208 11.7888L33.7326 8.8403L36.2564 10.3094L34.5353 13.255L34.0261 12.9557L35.4744 10.4663L33.9626 9.58359L32.5143 12.073L32.0051 11.7737L32.0208 11.7888Z" fill="#F7F8C5"/>
</svg>
