<svg width="96" height="92" viewBox="0 0 96 92" fill="none" xmlns="http://www.w3.org/2000/svg">
<path d="M18.7648 51.7131C18.7648 72.8562 35.6175 89.9398 56.3375 89.9398C77.0575 89.9398 93.9102 72.8562 93.9102 51.7131C93.9102 30.57 77.0575 13.4863 56.3375 13.4863C35.6175 13.4863 18.7648 30.57 18.7648 51.7131Z" stroke="#F7F8C5" stroke-width="4"/>
<path d="M83.2045 53.0449C82.9845 54.6949 82.6345 56.3449 82.3245 57.9649C82.2045 58.5849 81.7545 59.1749 81.3845 59.7249C80.9445 60.3749 80.3745 60.9349 79.9245 61.5849C79.0645 62.8549 78.3145 63.1349 76.8145 62.8549C75.4845 62.6049 74.8145 61.8549 74.7545 60.7349C71.3345 61.3349 67.9745 61.9349 64.6145 62.5249C64.2245 62.5949 63.7845 62.5149 63.4445 62.6749C62.9645 62.8949 62.2245 63.2349 62.1645 63.6049C61.9545 65.0549 60.9045 65.3949 59.8145 65.4849C58.6145 65.5749 57.3845 65.4749 56.2045 65.2549C55.6645 65.1549 54.8845 64.6449 54.7845 64.1849C54.5545 63.1749 53.9245 63.1749 53.2045 63.1749C51.8545 63.1649 50.4945 63.2249 49.1545 63.1349C45.5645 62.9049 41.9745 62.5849 38.3745 62.3649C37.8045 62.3349 37.1645 62.5449 36.6345 62.8149C35.0845 63.6149 32.2845 63.0949 31.0845 61.8349C29.7745 60.4349 29.1645 58.8949 29.3345 56.9549C29.5145 54.8249 29.4645 52.6649 30.5245 50.7049C30.7845 50.2149 31.5445 50.0249 32.0045 49.8249C34.9845 48.8649 36.5445 48.2949 39.5345 47.2349C40.3145 46.9649 41.0745 46.0249 41.6345 45.3949C42.7145 44.1949 43.7045 42.8849 44.6545 41.5749C46.4145 39.1649 49.0145 38.5149 51.7145 38.2749C55.5945 37.9249 59.5045 37.6049 63.3945 37.5849C67.2445 37.5649 71.0945 37.8749 74.9445 38.1549C77.3745 38.3349 78.7945 39.6049 79.2845 42.0349C79.6345 43.7549 79.6645 45.5349 79.8845 47.2849C79.9345 47.6449 80.1345 48.0149 80.3745 48.2949C81.5245 49.6549 81.9845 50.1849 83.1345 51.5449C83.3545 51.8049 83.2145 52.9949 83.2045 53.0449ZM38.2345 58.1549C40.7445 58.1549 43.2445 58.4049 45.7845 58.4749C46.4645 58.4949 49.7045 58.7849 50.3145 58.7849C52.4345 58.7849 54.5645 58.7849 56.7245 58.7849C57.1645 57.9149 57.6045 56.8149 58.2445 55.8349C58.9745 54.7049 60.4245 54.6449 61.2745 55.6949C61.8045 56.3649 62.3045 57.1549 62.4845 57.9749C62.7645 59.2049 62.7545 60.5049 62.8445 61.5949C65.5745 60.9949 68.3445 60.3749 71.1945 59.7449C71.3545 57.3549 71.5345 54.9449 71.6545 52.5349C71.6845 51.8049 71.6845 51.0549 70.8945 50.5349C70.5745 50.3149 70.5345 49.6849 70.3645 49.2349C70.9045 49.5249 71.0845 50.0449 71.4345 50.2249C72.3345 50.6849 72.5645 51.4249 72.5245 52.2949C72.4345 54.3249 72.2845 56.3449 72.1845 58.3749C72.1645 58.7449 72.1645 59.2649 72.3845 59.4649C72.9045 59.9349 74.8445 59.0049 75.0245 58.3349C75.4745 56.6949 75.8645 55.0249 76.5145 53.4649C77.1745 51.8849 78.4945 50.9649 80.3345 50.7449C79.9845 50.3249 79.7245 49.8749 79.3445 49.5649C78.4645 48.8349 78.0545 47.9849 78.0945 46.7949C78.1345 45.6149 77.8845 44.4249 77.7645 43.2449C77.5245 40.7749 76.3345 39.9749 73.6345 39.6549C69.8045 39.2049 65.9745 38.6949 62.0645 38.9149C57.3445 39.1849 52.5645 38.7049 47.9445 40.1449C47.5445 40.2749 47.0545 40.4049 46.8145 40.7049C45.1745 42.7549 43.6045 44.8749 41.9745 46.9349C41.6645 47.3249 41.2145 47.7249 40.7545 47.8649C38.8945 48.4349 36.9845 48.8549 35.1245 49.4349C34.2245 49.7149 33.3545 50.1549 32.5445 50.6449C30.8745 51.6449 31.1545 53.3249 31.1345 54.9149C31.1045 57.8949 30.9345 57.9149 33.7845 58.0149C33.9445 58.0149 36.1145 58.0549 38.2345 58.1549ZM59.9745 56.9749C59.8245 56.9149 59.6845 56.8649 59.5345 56.8049C59.2945 57.3249 58.9145 57.8249 58.8345 58.3749C58.6445 59.6949 58.5445 61.0449 58.5145 62.3849C58.5145 62.7949 58.8545 63.2049 59.0445 63.6249C59.4845 63.2949 60.1745 63.0549 60.3145 62.6249C60.9345 60.7249 60.7445 58.8149 59.9745 56.9849V56.9749ZM79.4645 55.3349C79.1045 56.9449 78.7445 58.5549 78.3945 60.1549C79.9745 58.8249 80.0145 57.1449 79.4645 55.3349Z" fill="#F7F8C5"/>
<path d="M61.4261 48.8753C55.0961 48.5953 49.2061 48.3353 42.9961 48.0653C44.1361 46.4653 45.2961 44.9753 46.3061 43.3853C47.3261 41.7753 48.6061 41.2053 50.5661 41.2953C54.0461 41.4553 57.5561 41.2253 61.0461 41.1953C61.7561 41.1953 62.4661 41.3053 63.1761 41.4053C64.1461 41.5453 64.7361 42.4253 64.3061 43.3253C63.3561 45.3153 62.2761 47.2553 61.4361 48.8653L61.4261 48.8753ZM63.4561 42.6353C63.3661 42.4953 63.2861 42.3453 63.1961 42.2053C62.3561 42.2053 61.5161 42.2053 60.6861 42.2053C56.7861 42.1653 52.8861 42.1053 48.9861 42.0753C48.6861 42.0753 48.2761 42.0953 48.0961 42.2853C46.7761 43.6453 45.7461 45.1853 45.0361 47.1353H48.6661C47.6728 46.0086 47.7061 44.972 48.7661 44.0253C49.0061 43.8153 49.2261 43.5753 49.4861 43.4053C49.6961 43.2653 49.9561 43.1853 50.1961 43.0853L50.4261 43.4053C49.8361 44.0453 49.2461 44.6853 48.6961 45.2853C50.8761 48.1153 53.9161 47.4153 56.8761 47.4953C55.7161 45.1253 56.6461 43.0753 59.0461 42.9953C58.6661 43.4553 58.4161 43.8153 58.1061 44.1153C57.7361 44.4753 56.9461 44.6953 57.4661 45.3753C58.0861 46.1753 57.8761 47.7353 59.4661 47.6653C59.8761 47.6453 60.4961 47.6453 60.6561 47.4053C61.6461 45.8653 62.5361 44.2553 63.4561 42.6653V42.6353Z" fill="#F7F8C5"/>
<path d="M76.3233 48.0751C74.1833 48.2051 72.0133 48.3351 69.5633 48.4851C69.4833 47.8151 69.2833 46.8651 69.2933 45.9251C69.3133 44.5751 69.4333 43.2251 69.6233 41.8851C69.6733 41.5351 70.0733 40.9851 70.3433 40.9651C71.9233 40.8551 73.5333 40.7251 75.0933 40.9151C75.6733 40.9851 76.4433 41.8251 76.6233 42.4551C76.9933 43.7751 77.0433 45.1951 77.1633 46.5751C77.1833 46.8051 76.9433 47.0651 76.8033 47.3051C76.6533 47.5651 76.4833 47.8151 76.3233 48.0651V48.0751Z" fill="#F7F8C5"/>
<path d="M62.9336 49.0447C63.2336 48.0747 63.4036 47.4547 63.6236 46.8447C64.1436 45.4347 64.6736 44.0347 65.2236 42.6347C65.3536 42.3047 65.4736 41.8947 65.7336 41.7247C66.3036 41.3447 66.9536 41.1047 67.5736 40.8047C67.8336 41.3747 68.2736 41.9347 68.3236 42.5147C68.4536 44.0947 68.4436 45.6847 68.4036 47.2747C68.3936 47.7447 68.1136 48.1947 67.8936 48.8247C66.3936 48.8947 64.8336 48.9547 62.9336 49.0447Z" fill="#F7F8C5"/>
<path d="M66.3945 51.5851C67.2945 49.8151 68.3145 49.8051 69.1745 51.3351C68.1945 51.4251 67.2945 51.5051 66.3945 51.5851Z" fill="#F7F8C5"/>
<path d="M73.3047 50.9504C74.2047 49.1804 75.2247 49.1704 76.0847 50.7004C75.1047 50.7904 74.2047 50.8704 73.3047 50.9504Z" fill="#F7F8C5"/>
<path d="M36.2039 55.4656C36.1139 55.5156 36.0039 55.5656 35.9139 55.6356C35.1439 56.2656 34.1339 56.4156 33.5739 55.7156C33.0939 55.1156 32.9239 54.0356 33.0539 53.2456C33.2039 52.3656 33.9539 51.7756 35.0339 52.0356C35.5539 52.1556 36.0939 52.3256 36.6139 52.3156C37.6039 52.2856 38.5839 52.0656 39.5739 52.0656C43.3939 52.0456 47.2139 52.0856 51.0339 52.0656C51.7639 52.0656 52.5239 51.7156 53.2239 51.8356C54.4039 52.0356 55.0639 53.7756 54.6339 55.2156C54.2539 56.5056 53.1239 57.0656 51.8239 56.7156C50.9939 56.4956 50.7939 55.9856 49.9439 55.9556C48.7139 55.9056 46.7739 55.9956 45.5439 56.0056C43.2539 56.0056 41.1239 55.8856 38.8839 55.7256L36.2039 55.4856V55.4656Z" fill="#F7F8C5"/>
<path d="M8.99612 43.5291L0 41.2356L5.87897 38.1185L2.21269 32.5625L11.2088 34.8559L10.9181 36.0027L4.73225 34.4199L7.49407 38.5222L3.11715 40.7995L9.30299 42.3823L9.01227 43.5291H8.99612Z" fill="#F7F8C5"/>
<path d="M13.9552 28.8163L13.3738 28.5417C13.5999 29.2524 13.5353 29.9792 13.1961 30.7221C12.8085 31.5781 12.1786 32.1596 11.3387 32.4664C10.4989 32.7733 9.64289 32.7248 8.78689 32.3211C7.91473 31.9334 7.33329 31.3197 7.01027 30.4799C6.68725 29.64 6.73571 28.8001 7.12333 27.9441C7.4625 27.2012 7.97933 26.6844 8.65768 26.3936L8.07624 26.1191L8.54462 25.1016L14.4236 27.7988L13.9552 28.8163ZM12.2594 30.2699C12.4532 29.8661 12.5339 29.4623 12.5016 29.0586C12.4693 28.6548 12.3563 28.2995 12.1463 27.9926L9.88515 26.9589C9.51368 27.0074 9.17451 27.1527 8.85149 27.395C8.52847 27.6373 8.27005 27.9603 8.09239 28.3641C7.83397 28.9294 7.81783 29.4946 8.04394 30.0438C8.27005 30.5929 8.67383 31.0128 9.27142 31.2874C9.86901 31.562 10.4504 31.5943 11.0157 31.4166C11.581 31.2228 12.0009 30.8352 12.2594 30.2699Z" fill="#F7F8C5"/>
<path d="M15.0857 26.425L9.75586 22.7749L10.3696 21.8704L14.8757 24.9553L16.3132 22.8718L11.807 19.7869L12.4208 18.8825L16.9269 21.9673L18.3644 19.8838L13.8582 16.799L14.472 15.8945L19.8018 19.5447L15.0695 26.4411L15.0857 26.425Z" fill="#F7F8C5"/>
<path d="M20.9812 18.4307L16.2812 13.8599L17.0403 13.0686L20.1413 16.0727L20.2382 9.64453L24.9382 14.2153L24.1791 15.0067L21.1266 12.051L20.9812 18.4468V18.4307Z" fill="#F7F8C5"/>
<path d="M26.1493 13.1499L22.2246 8.02999L23.0968 7.36782L24.7119 9.4836L27.4737 7.36782L25.8586 5.25202L26.7307 4.58984L30.6554 9.70971L29.7833 10.3719L28.0874 8.15921L25.3256 10.275L27.0215 12.4877L26.1493 13.1499Z" fill="#F7F8C5"/>
<path d="M36.292 6.39873L35.9851 5.83344C35.7429 6.54408 35.2745 7.09323 34.5477 7.48085C33.724 7.94923 32.8841 8.04614 32.0281 7.78772C31.1721 7.52931 30.5099 6.99632 30.0577 6.17262C29.6055 5.34892 29.4924 4.4929 29.7185 3.6369C29.9608 2.78089 30.4938 2.11871 31.3175 1.65033C32.0281 1.24655 32.7549 1.13351 33.4817 1.31117L33.1748 0.745877L34.1439 0.212891L37.2772 5.86575L36.3081 6.39873H36.292ZM34.0632 6.56025C34.4508 6.35029 34.7576 6.05956 34.9676 5.73654C35.1776 5.39737 35.3068 5.04204 35.3229 4.67056L34.1116 2.50633C33.7886 2.32867 33.4171 2.23176 33.0133 2.24791C32.6096 2.24791 32.2219 2.36098 31.8182 2.58709C31.269 2.89396 30.9137 3.33003 30.7683 3.91146C30.623 4.4929 30.7037 5.0582 31.0268 5.63963C31.3498 6.20492 31.7859 6.59254 32.3511 6.7702C32.9164 6.94786 33.4817 6.88327 34.0308 6.5764L34.0632 6.56025Z" fill="#F7F8C5"/>
</svg>
