<svg width="55" height="29" viewBox="0 0 55 29" fill="none" xmlns="http://www.w3.org/2000/svg">
<path d="M54.2045 16.0449C53.9845 17.6949 53.6345 19.3449 53.3245 20.9649C53.2045 21.5849 52.7545 22.1749 52.3845 22.7249C51.9445 23.3749 51.3745 23.9349 50.9245 24.5849C50.0645 25.8549 49.3145 26.1349 47.8145 25.8549C46.4845 25.6049 45.8145 24.8549 45.7545 23.7349C42.3345 24.3349 38.9745 24.9349 35.6145 25.5249C35.2245 25.5949 34.7845 25.5149 34.4445 25.6749C33.9645 25.8949 33.2245 26.2349 33.1645 26.6049C32.9545 28.0549 31.9045 28.3949 30.8145 28.4849C29.6145 28.5749 28.3845 28.4749 27.2045 28.2549C26.6645 28.1549 25.8845 27.6449 25.7845 27.1849C25.5545 26.1749 24.9245 26.1749 24.2045 26.1749C22.8545 26.1649 21.4945 26.2249 20.1545 26.1349C16.5645 25.9049 12.9745 25.5849 9.37453 25.3649C8.80453 25.3349 8.16453 25.5449 7.63453 25.8149C6.08453 26.6149 3.28453 26.0949 2.08453 24.8349C0.774534 23.4349 0.164533 21.8949 0.334533 19.9549C0.514534 17.8249 0.464534 15.6649 1.52453 13.7049C1.78453 13.2149 2.54453 13.0249 3.00453 12.8249C5.98453 11.8649 7.54453 11.2949 10.5345 10.2349C11.3145 9.9649 12.0745 9.0249 12.6345 8.3949C13.7145 7.1949 14.7045 5.8849 15.6545 4.5749C17.4145 2.1649 20.0145 1.5149 22.7145 1.2749C26.5945 0.924904 30.5045 0.604904 34.3945 0.584904C38.2445 0.564904 42.0945 0.874904 45.9445 1.1549C48.3745 1.3349 49.7945 2.6049 50.2845 5.0349C50.6345 6.7549 50.6645 8.5349 50.8845 10.2849C50.9345 10.6449 51.1345 11.0149 51.3745 11.2949C52.5245 12.6549 52.9845 13.1849 54.1345 14.5449C54.3545 14.8049 54.2145 15.9949 54.2045 16.0449ZM9.23453 21.1549C11.7445 21.1549 14.2445 21.4049 16.7845 21.4749C17.4645 21.4949 20.7045 21.7849 21.3145 21.7849C23.4345 21.7849 25.5645 21.7849 27.7245 21.7849C28.1645 20.9149 28.6045 19.8149 29.2445 18.8349C29.9745 17.7049 31.4245 17.6449 32.2745 18.6949C32.8045 19.3649 33.3045 20.1549 33.4845 20.9749C33.7645 22.2049 33.7545 23.5049 33.8445 24.5949C36.5745 23.9949 39.3445 23.3749 42.1945 22.7449C42.3545 20.3549 42.5345 17.9449 42.6545 15.5349C42.6845 14.8049 42.6845 14.0549 41.8945 13.5349C41.5745 13.3149 41.5345 12.6849 41.3645 12.2349C41.9045 12.5249 42.0845 13.0449 42.4345 13.2249C43.3345 13.6849 43.5645 14.4249 43.5245 15.2949C43.4345 17.3249 43.2845 19.3449 43.1845 21.3749C43.1645 21.7449 43.1645 22.2649 43.3845 22.4649C43.9045 22.9349 45.8445 22.0049 46.0245 21.3349C46.4745 19.6949 46.8645 18.0249 47.5145 16.4649C48.1745 14.8849 49.4945 13.9649 51.3345 13.7449C50.9845 13.3249 50.7245 12.8749 50.3445 12.5649C49.4645 11.8349 49.0545 10.9849 49.0945 9.7949C49.1345 8.6149 48.8845 7.4249 48.7645 6.2449C48.5245 3.7749 47.3345 2.9749 44.6345 2.6549C40.8045 2.2049 36.9745 1.6949 33.0645 1.9149C28.3445 2.1849 23.5645 1.7049 18.9445 3.1449C18.5445 3.2749 18.0545 3.4049 17.8145 3.7049C16.1745 5.7549 14.6045 7.8749 12.9745 9.9349C12.6645 10.3249 12.2145 10.7249 11.7545 10.8649C9.89453 11.4349 7.98453 11.8549 6.12453 12.4349C5.22453 12.7149 4.35453 13.1549 3.54453 13.6449C1.87453 14.6449 2.15453 16.3249 2.13453 17.9149C2.10453 20.8949 1.93453 20.9149 4.78453 21.0149C4.94453 21.0149 7.11453 21.0549 9.23453 21.1549ZM30.9745 19.9749C30.8245 19.9149 30.6845 19.8649 30.5345 19.8049C30.2945 20.3249 29.9145 20.8249 29.8345 21.3749C29.6445 22.6949 29.5445 24.0449 29.5145 25.3849C29.5145 25.7949 29.8545 26.2049 30.0445 26.6249C30.4845 26.2949 31.1745 26.0549 31.3145 25.6249C31.9345 23.7249 31.7445 21.8149 30.9745 19.9849V19.9749ZM50.4645 18.3349C50.1045 19.9449 49.7445 21.5549 49.3945 23.1549C50.9745 21.8249 51.0145 20.1449 50.4645 18.3349Z" fill="#F7F8C5"/>
<path d="M32.4261 11.8753C26.0961 11.5953 20.2061 11.3353 13.9961 11.0653C15.1361 9.46531 16.2961 7.97531 17.3061 6.38531C18.3261 4.77531 19.6061 4.20531 21.5661 4.29531C25.0461 4.45531 28.5561 4.22531 32.0461 4.19531C32.7561 4.19531 33.4661 4.30531 34.1761 4.40531C35.1461 4.54531 35.7361 5.42531 35.3061 6.32531C34.3561 8.31531 33.2761 10.2553 32.4361 11.8653L32.4261 11.8753ZM34.4561 5.63531C34.3661 5.49531 34.2861 5.34531 34.1961 5.20531C33.3561 5.20531 32.5161 5.20531 31.6861 5.20531C27.7861 5.16531 23.8861 5.10531 19.9861 5.07531C19.6861 5.07531 19.2761 5.09531 19.0961 5.28531C17.7761 6.64531 16.7461 8.18531 16.0361 10.1353H19.6661C18.6728 9.00865 18.7061 7.97198 19.7661 7.02531C20.0061 6.81531 20.2261 6.57531 20.4861 6.40531C20.6961 6.26531 20.9561 6.18531 21.1961 6.08531L21.4261 6.40531C20.8361 7.04531 20.2461 7.68531 19.6961 8.28531C21.8761 11.1153 24.9161 10.4153 27.8761 10.4953C26.7161 8.12531 27.6461 6.07531 30.0461 5.99531C29.6661 6.45531 29.4161 6.81531 29.1061 7.11531C28.7361 7.47531 27.9461 7.69531 28.4661 8.37531C29.0861 9.17531 28.8761 10.7353 30.4661 10.6653C30.8761 10.6453 31.4961 10.6453 31.6561 10.4053C32.6461 8.86531 33.5361 7.25531 34.4561 5.66531V5.63531Z" fill="#F7F8C5"/>
<path d="M47.3233 11.0751C45.1833 11.2051 43.0133 11.3351 40.5633 11.4851C40.4833 10.8151 40.2833 9.86506 40.2933 8.92506C40.3133 7.57506 40.4333 6.22506 40.6233 4.88506C40.6733 4.53506 41.0733 3.98506 41.3433 3.96506C42.9233 3.85506 44.5333 3.72506 46.0933 3.91506C46.6733 3.98506 47.4433 4.82506 47.6233 5.45506C47.9933 6.77506 48.0433 8.19506 48.1633 9.57506C48.1833 9.80506 47.9433 10.0651 47.8033 10.3051C47.6533 10.5651 47.4833 10.8151 47.3233 11.0651V11.0751Z" fill="#F7F8C5"/>
<path d="M33.9336 12.0447C34.2336 11.0747 34.4036 10.4547 34.6236 9.84469C35.1436 8.43469 35.6736 7.03469 36.2236 5.63469C36.3536 5.30469 36.4736 4.89469 36.7336 4.72469C37.3036 4.34469 37.9536 4.10469 38.5736 3.80469C38.8336 4.37469 39.2736 4.93469 39.3236 5.51469C39.4536 7.09469 39.4436 8.68469 39.4036 10.2747C39.3936 10.7447 39.1136 11.1947 38.8936 11.8247C37.3936 11.8947 35.8336 11.9547 33.9336 12.0447Z" fill="#F7F8C5"/>
<path d="M37.3945 14.5851C38.2945 12.8151 39.3145 12.8051 40.1745 14.3351C39.1945 14.4251 38.2945 14.5051 37.3945 14.5851Z" fill="#F7F8C5"/>
<path d="M44.3047 13.9504C45.2047 12.1804 46.2247 12.1704 47.0847 13.7004C46.1047 13.7904 45.2047 13.8704 44.3047 13.9504Z" fill="#F7F8C5"/>
<path d="M7.20387 18.4656C7.11387 18.5156 7.00387 18.5656 6.91387 18.6356C6.14387 19.2656 5.13387 19.4156 4.57387 18.7156C4.09387 18.1156 3.92387 17.0356 4.05387 16.2456C4.20387 15.3656 4.95387 14.7756 6.03387 15.0356C6.55387 15.1556 7.09387 15.3256 7.61387 15.3156C8.60387 15.2856 9.58387 15.0656 10.5739 15.0656C14.3939 15.0456 18.2139 15.0856 22.0339 15.0656C22.7639 15.0656 23.5239 14.7156 24.2239 14.8356C25.4039 15.0356 26.0639 16.7756 25.6339 18.2156C25.2539 19.5056 24.1239 20.0656 22.8239 19.7156C21.9939 19.4956 21.7939 18.9856 20.9439 18.9556C19.7139 18.9056 17.7739 18.9956 16.5439 19.0056C14.2539 19.0056 12.1239 18.8856 9.88387 18.7256L7.20387 18.4856V18.4656Z" fill="#F7F8C5"/>
</svg>
