<svg width="63" height="26" viewBox="0 0 63 26" fill="none" xmlns="http://www.w3.org/2000/svg">
<path d="M3.96439 8.0508C3.58439 8.6708 3.25442 9.3008 2.83442 9.8608C2.66442 10.0908 2.29441 10.3308 2.04441 10.3108C1.84441 10.2908 1.57439 9.9008 1.52439 9.6308C1.27439 8.3808 1.07441 7.1108 0.894414 5.8508C0.854414 5.5508 0.924399 5.2208 1.0044 4.9208C1.2244 4.1308 1.46441 3.3508 1.73441 2.5808C2.29441 0.950802 3.62439 0.400801 5.15439 1.2008C5.75439 1.5108 6.32442 1.9308 6.83442 2.3808C8.55442 3.9008 10.2444 5.4608 11.9244 7.0208C12.1444 7.2208 12.3144 7.2608 12.6344 7.2208C13.3844 7.1208 14.1544 7.1708 14.9044 7.1208C15.1344 7.1008 15.3944 7.0108 15.5744 6.8708C17.2244 5.6108 18.8544 4.3108 20.5144 3.0608C20.7744 2.8608 21.1644 2.7608 21.4944 2.7408C24.1044 2.6308 26.6844 2.8508 29.2744 3.1908C30.0944 3.3008 30.3644 3.8908 30.7344 4.3908C32.0844 6.2108 33.3744 8.0708 34.6944 9.9108C34.7644 10.0108 34.8444 10.1208 34.9544 10.2708C35.5944 9.5108 36.3344 9.0308 37.3644 9.1508C38.3044 9.2608 39.1844 9.5008 39.9844 10.1108C40.6544 9.2608 41.2844 8.4008 41.9844 7.5908C43.1244 6.2708 44.2944 4.9708 45.4744 3.6908C45.6244 3.5308 45.9544 3.4708 46.1844 3.4808C47.7244 3.5608 49.2544 3.6608 50.7944 3.7708C51.7344 3.8308 52.6844 3.8708 53.6244 4.0008C54.0844 4.0608 54.6044 4.1908 54.9344 4.4808C56.5444 5.8508 58.0944 7.2808 59.6844 8.6808C59.8144 8.8008 60.0344 8.8608 60.2244 8.8708C62.0544 8.9008 62.1444 8.8808 62.2444 10.6808C62.3444 12.7008 62.2644 14.7208 62.2244 16.7408C62.2244 17.3008 61.8044 17.7008 61.1744 17.6608C60.2544 17.5908 59.8744 18.0708 59.3944 18.7608C58.0544 20.6908 56.5744 22.5108 55.1544 24.3708C54.7544 24.9008 54.1144 24.8608 53.5744 24.9108C50.9544 25.1908 48.3444 24.8908 45.7544 24.4808C44.8044 24.3308 44.0844 23.8608 43.5844 23.0008C42.4344 21.0308 41.1644 19.1208 40.1244 17.1008C39.7144 16.3008 39.3344 16.0608 38.4944 16.0808C37.3744 16.1108 36.2444 16.0008 35.2144 15.9508C34.9344 16.4708 34.7244 16.9608 34.4244 17.3908C32.8844 19.5908 31.1144 21.5908 29.1144 23.3808C28.6244 23.8208 28.0744 24.0708 27.3944 24.0108C24.5444 23.7608 21.6944 23.5108 18.8544 23.2508C18.3344 23.2008 17.9144 22.9808 17.6044 22.5308C16.7144 21.2308 15.7144 19.9908 14.9444 18.6208C14.4544 17.7308 13.8044 17.4708 12.9344 17.5008C11.9044 17.5408 11.0644 17.1208 10.4144 16.4008C9.4044 15.2608 8.44439 14.0808 7.52439 12.8708C6.32439 11.2908 5.17439 9.6708 3.96439 8.0308V8.0508ZM23.8944 4.0408C23.8944 4.0408 23.8944 4.0708 23.8944 4.0808C23.1144 4.0408 22.3344 3.9908 21.5544 3.9708C21.3644 3.9708 21.1244 3.9908 20.9844 4.1008C19.4444 5.2908 17.9144 6.5008 16.4044 7.7308C16.2144 7.8808 16.0644 8.1808 16.0344 8.4208C15.9544 9.1008 15.9644 9.7908 15.8944 10.4708C15.7144 12.2408 15.4944 14.0108 15.3044 15.7808C15.2744 16.0208 15.2744 16.3308 15.3944 16.5208C16.2844 17.9708 17.2344 19.4008 18.1244 20.8508C18.4844 21.4408 18.9744 21.7508 19.6544 21.8108C22.0044 22.0308 24.3444 22.2508 26.6944 22.4808C27.2944 22.5408 27.7544 22.3508 28.2144 21.9808C29.9644 20.5508 31.4644 18.8808 32.8444 17.1008C33.2644 16.5608 33.5744 15.9408 33.9044 15.3408C34.3844 14.4808 34.2344 13.5008 34.3944 12.5708C34.5244 11.8108 34.3044 11.2508 33.8544 10.6308C32.3644 8.6208 30.9544 6.5508 29.5044 4.5108C29.4244 4.4008 29.2444 4.3208 29.1044 4.3108C27.3644 4.2108 25.6244 4.1208 23.8744 4.0408H23.8944ZM59.2044 13.1408C59.2044 13.1408 59.1344 13.1408 59.1044 13.1408C59.1044 12.0508 59.1044 10.9508 59.1044 9.8608C59.1044 9.7408 59.0844 9.5808 59.0044 9.5108C58.4744 8.9708 57.9544 8.4108 57.3644 7.9308C56.3544 7.1008 55.3044 6.3008 54.2444 5.5208C53.9544 5.3108 53.5644 5.1408 53.2044 5.1108C51.0044 4.9408 48.7944 4.8108 46.5944 4.6908C46.3944 4.6808 46.1244 4.7908 45.9844 4.9308C44.2544 6.8008 42.5444 8.6808 40.8444 10.5708C40.7344 10.6908 40.6544 10.8908 40.6544 11.0508C40.6544 11.6608 40.6744 12.2708 40.7144 12.8808C40.8444 14.6908 41.1044 16.4508 42.2644 17.9608C43.1544 19.1208 43.9544 20.3608 44.8244 21.5308C45.4844 22.4308 46.2444 23.1108 47.5044 23.1208C49.0744 23.1308 50.6444 23.3608 52.2144 23.4508C53.5044 23.5208 54.5944 23.1308 55.4044 22.0308C56.4244 20.6408 57.5044 19.3008 58.5644 17.9308C59.0144 17.3508 59.2344 16.7208 59.2144 15.9708C59.1844 15.0208 59.2144 14.0808 59.2144 13.1308L59.2044 13.1408ZM11.6444 16.0808C11.6944 15.9008 11.7144 15.8608 11.7144 15.8308C11.8344 13.3808 11.9644 10.9408 12.0644 8.4908C12.0644 8.3208 11.9144 8.0908 11.7644 7.9708C9.85441 6.3508 7.94441 4.7308 6.01441 3.1308C5.46441 2.6708 4.8544 2.2708 4.2244 1.9208C3.6444 1.6008 2.9844 1.9808 2.8144 2.6208C2.6344 3.3008 2.47441 3.9908 2.23441 4.6508C1.99441 5.3008 1.89441 5.9208 2.04441 6.6008C2.17441 7.1808 2.23442 7.7608 2.33442 8.3408C2.55442 8.1008 2.6744 7.8708 2.7844 7.6408C2.8944 7.4108 2.98442 7.1608 3.11442 6.9308C3.48442 6.3108 3.7144 6.2708 4.1944 6.8308C5.0844 7.8608 5.96442 8.8808 6.80442 9.9508C8.09442 11.5808 9.33441 13.2508 10.6044 14.8908C10.9044 15.2808 11.2644 15.6308 11.6544 16.0608L11.6444 16.0808ZM39.6944 15.5908C39.6144 14.1808 39.5444 12.8708 39.4444 11.5608C39.4344 11.3908 39.3244 11.2108 39.1944 11.0808C38.0944 9.9908 35.7544 10.4808 35.3944 11.9708C35.1244 13.0608 35.1744 14.2308 35.0844 15.4008C36.6944 15.4608 38.1644 15.5208 39.6944 15.5808V15.5908ZM14.0444 16.4608C14.3644 13.7208 14.6844 11.0408 15.0044 8.3308C14.3944 8.2908 13.7644 8.2508 13.0344 8.2008V16.3408C13.3444 16.3808 13.6744 16.4208 14.0444 16.4708V16.4608ZM60.2944 9.7708V16.5408C61.2744 16.7408 61.3444 16.7208 61.3744 15.8308C61.4244 14.0708 61.4244 12.3108 61.4444 10.5508C61.4444 9.7608 61.4444 9.7608 60.6544 9.7508C60.5344 9.7508 60.4044 9.7608 60.3044 9.7708H60.2944Z" fill="#F7F8C5"/>
</svg>
