<svg width="55" height="55" viewBox="0 0 55 55" fill="none" xmlns="http://www.w3.org/2000/svg">
<path d="M54.2318 30.9166C54.516 33.8339 53.8725 36.7618 53.2826 39.6952C53.2397 39.907 53.1486 40.1322 53.0145 40.3011C52.3067 41.1886 51.6229 42.1029 50.8454 42.9261C49.5664 44.2802 48.1453 45.4814 46.6089 46.5458C44.9626 47.6854 43.3431 48.8652 41.662 49.9564C39.7475 51.1979 37.7821 52.3589 35.6505 53.2035C35.2751 53.3509 34.8488 53.3751 34.4466 53.4555C34.0391 53.5359 33.6315 53.6218 33.224 53.6968C30.7867 54.1419 28.336 54.5253 25.8477 54.3966C23.4346 54.2706 21.059 53.8657 18.7423 53.1686C17.3588 52.753 16.0021 52.2516 14.6266 51.8146C12.0793 51.0075 9.75467 49.7419 7.47558 48.3745C7.1994 48.2082 7.02512 47.9776 6.8562 47.7068C6.07863 46.4734 5.31179 45.2347 4.46718 44.0469C3.55555 42.7652 2.92008 41.3736 2.40527 39.8963C2.0433 38.8586 1.53921 37.8719 1.12093 36.8557C0.989544 36.5366 0.922523 36.1907 0.847447 35.8502C0.807228 35.6625 0.831353 35.4614 0.791134 35.2764C0.488149 33.9009 0.659745 32.5227 0.801853 31.1499C0.893017 30.2651 1.00563 29.3829 1.1531 28.5061C1.30325 27.5999 1.44536 26.6856 1.70545 25.8088C1.94676 25.0044 2.34628 24.2483 2.66535 23.468C2.74043 23.283 2.76456 23.0765 2.84768 22.8942C2.92275 22.728 3.06219 22.5912 3.14263 22.425C3.36249 21.9853 3.5609 21.5321 3.77541 21.0897C4.68436 19.2316 5.83195 17.529 7.18868 15.9711C7.96893 15.0756 8.76527 14.1827 9.63401 13.3783C10.4089 12.6624 11.1302 11.9117 11.7951 11.0992C11.8622 11.0188 11.9399 10.9357 12.0284 10.8821C12.5807 10.5603 12.7631 10.0509 12.8006 9.45025C12.8167 9.16871 12.7631 8.92203 12.6451 8.66195C11.8809 6.96469 12.259 4.78481 13.5943 3.48439C14.0072 3.08219 14.5488 2.80334 15.0556 2.51108C16.5973 1.61821 18.308 1.22674 20.024 0.840638C20.7614 0.674398 21.4853 0.57251 22.2441 0.577873C23.0753 0.583235 23.9065 0.411633 24.735 0.422358C26.813 0.454533 28.891 0.540333 30.9395 0.915713C31.3524 0.990789 31.7305 1.23747 32.1407 1.35008C32.6877 1.50024 33.2454 1.61017 33.8031 1.70938C35.4226 1.99627 36.9054 2.66927 38.3961 3.32083C38.5517 3.39054 38.7099 3.45758 38.8627 3.53801C39.2274 3.7257 39.6108 3.88658 39.9459 4.11985C40.383 4.42552 40.5439 4.93764 40.635 5.42564C40.7477 6.03429 40.9863 6.43112 41.5789 6.71802C42.3886 7.10948 43.2359 7.34276 44.0832 7.60552C44.6007 7.7664 45.0994 7.99699 45.6008 8.21149C45.7134 8.25976 45.8046 8.36433 45.8957 8.45281C46.255 8.80137 46.5955 9.17139 46.9682 9.50656C47.8772 10.3163 48.7003 11.1984 49.3894 12.2012C49.9552 13.0217 50.5236 13.8395 51.0652 14.6788C51.6739 15.6199 52.0815 16.6522 52.3281 17.7435C52.7839 19.7571 53.221 21.7761 53.6553 23.7951C54.1514 26.1091 54.3605 28.4525 54.2291 30.9247L54.2318 30.9166ZM43.1876 33.6596C43.1876 33.6596 43.2117 33.6596 43.2225 33.6569C43.1367 32.7292 43.067 31.7988 42.9597 30.8737C42.6701 28.3774 42.2304 25.916 41.2946 23.5645C40.3133 21.0951 39.348 18.6176 37.6266 16.5369C36.9295 15.695 36.2136 14.8664 35.302 14.2417C34.9695 14.0138 34.6209 13.7323 34.2455 13.6652C33.7066 13.5687 33.1355 13.6196 32.626 13.9173C31.6608 14.475 30.7089 15.0488 29.9233 15.8612C29.6418 16.1535 29.3039 16.3894 29.0063 16.6683C28.3977 17.2367 27.7783 17.7944 27.2045 18.395C26.3411 19.3013 25.5448 20.2746 24.6599 21.1594C23.448 22.374 22.2682 23.5994 21.3539 25.0741C20.9893 25.664 20.756 26.2726 20.5388 26.9054C20.4476 27.1682 20.3431 27.4256 20.2492 27.6857C20.0803 28.1576 19.8899 28.6268 19.7559 29.1094C19.5494 29.8522 19.4851 30.619 19.3724 31.3805C19.1794 32.6836 19.166 33.984 19.1955 35.2898C19.2062 35.7563 19.2008 36.2336 19.2974 36.6868C19.7264 38.687 20.3994 40.5987 21.3727 42.4059C21.673 42.9663 22.051 43.4436 22.5551 43.8216C22.7348 43.9584 22.8849 44.1246 23.0512 44.2721C24.1451 45.232 25.2337 46.1973 26.3679 47.1116C27.427 47.9642 28.6658 48.2672 30.0171 48.0849C31.5884 47.8731 33.1006 47.4333 34.5217 46.7442C35.5406 46.2509 36.5568 45.712 37.3371 44.8593C38.1951 43.9209 39.037 42.9663 39.8333 41.9769C41.0077 40.5183 41.9381 38.9095 42.654 37.1721C43.016 36.298 43.2734 35.4212 43.185 34.464C43.1608 34.1985 43.1823 33.9277 43.1823 33.6596H43.1876ZM36.101 13.0914C36.3906 13.381 36.6372 13.6465 36.9054 13.8931C37.9725 14.8718 38.7796 16.0221 39.3453 17.36C39.7073 18.2154 40.139 19.0439 40.5626 19.8724C41.3992 21.5187 42.1178 23.2186 42.6406 24.9856C43.5389 28.0128 44.1288 31.0989 43.9518 34.2843C43.9169 34.8822 43.8606 35.4802 43.7802 36.0727C43.5255 37.9443 42.5548 39.5209 41.5574 41.0412C40.7637 42.2504 39.7422 43.3149 38.8091 44.433C37.0448 46.5405 34.7014 47.7202 32.1434 48.5354C31.4489 48.7579 30.717 48.8678 29.9796 49.0341C30.0359 49.0609 30.0681 49.0797 30.1056 49.0931C31.2774 49.4899 32.4678 49.7848 33.7146 49.7982C34.0793 49.8009 34.444 49.8411 34.8059 49.8331C35.2966 49.8224 35.7846 49.7875 36.2753 49.758C36.5836 49.7393 36.892 49.7312 37.1976 49.6856C37.6749 49.6186 38.1736 49.6347 38.5972 49.3344C38.9217 49.1065 39.2595 48.9 39.5974 48.6962C39.6644 48.656 39.7663 48.6775 39.8548 48.6721C39.828 48.7552 39.8226 48.8491 39.7716 48.9161C39.6966 49.018 39.5947 49.1011 39.4982 49.1869C39.0048 49.6213 38.498 50.0101 37.7955 50.0637C37.3933 50.0932 36.9939 50.2058 36.6051 50.3238C35.798 50.5678 34.9802 50.6911 34.1383 50.6857C33.6047 50.6831 33.0711 50.6857 32.6019 50.6857C32.4732 51.4124 32.3579 52.0693 32.2372 52.753C32.7547 52.6618 33.2508 52.5814 33.7441 52.4849C34.8005 52.2811 35.8972 52.2409 36.8544 51.6564C37.2566 51.4124 37.6749 51.1952 38.0985 50.986C38.4122 50.8305 38.7447 50.7099 39.0692 50.5758C39.0906 50.5678 39.1228 50.5812 39.1496 50.5865C39.1201 50.6804 39.0933 50.7635 39.0477 50.911C39.8092 50.4417 40.5412 50.0503 41.2088 49.5676C43.311 48.05 45.397 46.511 47.467 44.9505C48.2016 44.3981 48.888 43.7787 49.5637 43.1567C49.9874 42.7652 50.3574 42.3148 50.7381 41.8831C51.7087 40.7864 52.4702 39.5691 52.7974 38.1212C52.9207 37.5796 52.9609 37.0165 53.1137 36.4857C53.4757 35.2228 53.5695 33.9384 53.5213 32.638C53.5025 32.1366 53.5025 31.6325 53.4811 31.1284C53.4221 29.7503 53.3926 28.3667 53.2853 26.9912C53.2103 26.0233 52.9448 25.0821 52.725 24.1303C52.2423 22.0442 51.8213 19.9448 51.1376 17.9124C50.8105 16.9391 50.5585 15.9202 50.0785 15.0273C49.4886 13.9307 48.7567 12.893 47.9764 11.9197C47.2551 11.0215 46.4025 10.2278 45.574 9.42075C45.3139 9.16871 44.9626 8.98639 44.6221 8.84964C43.4477 8.38042 42.2733 7.91655 41.1981 7.23551C41.1579 7.21137 41.1069 7.20065 41.1203 7.20601C41.0024 7.82807 40.8844 8.43672 40.7611 9.08023C41.0265 9.03465 41.2946 8.98102 41.5654 8.94348C42.3779 8.82551 43.1742 8.90058 43.9867 9.04001C44.6972 9.16067 45.22 9.46366 45.6544 9.99723C46.0486 10.4772 46.4293 10.9732 46.8583 11.4183C47.4509 12.0323 47.6976 12.8421 48.148 13.5365C48.1507 13.5419 48.1265 13.5607 48.0836 13.6143C47.9898 13.507 47.904 13.3998 47.8102 13.2979C46.9253 12.3541 46.0298 11.4156 45.1557 10.4611C44.7803 10.0509 44.3727 9.82831 43.7936 9.73715C42.6728 9.56018 41.6459 9.7586 40.6431 10.2144C40.3294 10.3565 39.9647 10.512 39.769 10.7721C39.037 11.7374 38.0208 12.2602 36.9643 12.7402C36.6935 12.8635 36.4093 12.9627 36.101 13.0834V13.0914ZM3.25255 24.6424C3.20429 24.7094 3.16674 24.747 3.14529 24.7926C3.06486 24.9668 2.97907 25.1411 2.90936 25.3208C2.34092 26.833 2.22831 28.4338 2.01917 30.013C1.87438 31.0909 1.81806 32.1822 1.74299 33.2708C1.68936 34.0135 1.70009 34.7723 2.13178 35.4105C2.96566 36.6412 3.81027 37.8692 4.71654 39.049C5.58796 40.1805 6.6846 41.0707 7.97966 41.7034C9.18892 42.296 10.484 42.3067 11.7817 42.2906C12.7336 42.2799 13.6264 42.0493 14.3799 41.4192C14.6882 41.1591 14.9805 40.8776 15.3076 40.6416C16.4284 39.8292 17.4794 38.9417 18.3294 37.837C18.4528 37.6761 18.4983 37.5448 18.4474 37.3463C18.2383 36.5205 18.1525 35.6839 18.2302 34.8286C18.3616 33.3566 18.4796 31.8819 18.6029 30.4072C18.6324 30.0613 18.6565 29.7154 18.686 29.3266C18.4662 29.4312 18.2919 29.5089 18.123 29.5974C17.391 29.9701 16.6188 30.2597 15.801 30.2919C14.345 30.3482 12.8891 30.3321 11.4492 30.0452C9.64474 29.6859 7.90191 29.2274 6.37626 28.0932C5.10265 27.1494 3.90947 26.1761 3.25792 24.6451L3.25255 24.6424ZM9.3927 15.5314C9.33908 15.5984 9.26399 15.6869 9.19696 15.7808C7.56405 18.092 5.93115 20.4006 4.30361 22.7146C4.23122 22.8165 4.18563 22.9746 4.20172 23.098C4.30897 23.8487 4.42696 24.5995 4.56102 25.3476C4.59588 25.5514 4.6361 25.8007 4.77017 25.9321C6.01429 27.1441 7.38173 28.1924 9.04681 28.7582C10.358 29.2033 11.712 29.4821 13.0956 29.5787C13.8088 29.6269 14.5461 29.71 15.2433 29.6001C16.474 29.4071 17.6001 28.8949 18.5278 28.0342C18.7852 27.7956 19.0936 27.5972 19.1794 27.1896C19.2572 26.8089 19.3966 26.4255 19.5816 26.0796C20.0481 25.2135 20.5174 24.3448 21.0563 23.5243C21.5228 22.8111 22.0859 22.1595 22.6088 21.4865C22.8501 21.1755 23.1021 20.8752 23.4078 20.4971C22.7777 20.6419 22.2387 20.7814 21.6944 20.8859C21.2038 20.9798 20.705 21.0843 20.2063 21.0978C19.1043 21.1299 17.9996 21.1085 16.8949 21.1085C16.7448 21.1085 16.5946 21.0951 16.4472 21.0736C14.7955 20.843 13.3315 20.1459 11.9989 19.186C11.5484 18.8616 11.1489 18.4272 10.8379 17.966C10.3124 17.1911 9.87533 16.3546 9.3927 15.5314ZM27.9338 8.62977C27.9338 8.66463 27.9365 8.70217 27.9391 8.73703C29.1645 8.63514 30.3925 8.57347 31.6125 8.42331C33.1033 8.2383 34.5512 7.84952 35.9482 7.28645C36.294 7.14702 36.4978 6.9218 36.6426 6.58664C36.9939 5.77421 36.9644 4.93764 36.5032 4.24319C36.0661 3.58627 35.3234 3.1814 34.5941 2.87037C33.9506 2.59688 33.2615 2.4226 32.5831 2.22955C31.5562 1.93729 30.5346 1.61821 29.4568 1.54045C28.6899 1.48683 27.9231 1.41979 27.1562 1.35544C26.8479 1.32863 26.5395 1.25356 26.2312 1.2616C24.6894 1.3045 23.145 1.31523 21.6113 1.44125C20.8203 1.5056 19.9891 1.65307 19.284 1.99091C18.4152 2.40383 17.6323 3.01784 16.8681 3.61309C16.5759 3.841 16.3292 4.20297 16.4391 4.67756C16.5785 5.27817 16.9941 5.66159 17.4446 6.00211C18.56 6.8494 19.847 7.35616 21.1769 7.75031C23.381 8.40186 25.6359 8.68876 27.9365 8.63246L27.9338 8.62977ZM3.16407 38.317C3.1453 38.3304 3.12654 38.3438 3.10777 38.3572C3.12118 38.4269 3.12921 38.502 3.15335 38.569C3.47778 39.4512 3.74591 40.3601 4.14274 41.2101C4.7353 42.481 5.3815 43.7278 6.07595 44.9451C6.55054 45.7763 6.96882 46.6719 7.88314 47.1733C8.68752 47.613 9.39269 48.2324 10.3016 48.4817C10.787 48.6158 11.2696 48.7633 11.7415 48.9322C12.9266 49.3585 14.1493 49.6588 15.3934 49.7687C16.8038 49.8948 18.2114 49.7527 19.5977 49.4121C20.2707 49.2459 20.7721 48.8196 21.067 48.3021C21.496 47.554 21.7293 46.6879 22.0189 45.8621C22.0698 45.7173 22.0242 45.4894 21.9411 45.3527C21.0884 43.9289 20.2278 42.5078 19.6138 40.958C19.359 40.3145 19.115 39.6683 18.8576 39.0034C18.7986 39.0543 18.7236 39.0999 18.6726 39.1616C17.8334 40.21 16.6965 40.899 15.6026 41.6149C14.892 42.0788 14.0501 42.363 13.2403 42.6499C12.2456 43.0012 11.2026 42.969 10.1595 42.9207C9.02 42.8644 7.97161 42.5427 7.00367 41.9528C5.79977 41.2181 4.79966 40.2609 3.94701 39.1428C3.7191 38.8425 3.42416 38.5931 3.1614 38.3197L3.16407 38.317ZM38.4712 5.37737C38.3908 5.75275 38.4015 6.14422 38.2273 6.41771C37.6266 7.36421 36.8276 8.1096 35.7739 8.54933C34.4011 9.12581 32.9639 9.45561 31.4972 9.65403C29.4916 9.92752 27.478 9.9302 25.4643 9.79077C23.0485 9.62453 20.7265 9.06682 18.5547 7.97286C17.5358 7.46073 16.5732 6.85745 15.9484 5.84928C15.7339 5.50071 15.565 5.1307 15.6615 4.72582C15.7661 4.29414 15.9109 3.86245 16.112 3.4683C16.2487 3.20017 16.5061 2.99103 16.7099 2.75508C16.6885 2.7229 16.6643 2.69341 16.6429 2.66123C15.9565 3.06611 15.262 3.45758 14.5917 3.88926C14.3665 4.03405 14.1627 4.2566 14.0313 4.49255C13.5862 5.29157 13.5514 5.00736 14.1198 5.78225C14.286 6.00748 14.4469 6.23539 14.6453 6.5062C14.1627 6.45793 14.101 5.89486 13.6533 5.87609C13.8731 6.94593 14.8035 7.44465 15.3612 8.2249C14.5354 7.77445 13.8383 7.20065 13.3905 6.33727C13.3985 6.59468 13.3985 6.8789 13.538 7.04782C13.9026 7.49023 14.3075 7.90046 14.7311 8.28925C15.1441 8.66731 15.5972 8.99711 16.0342 9.35104C16.0021 9.39126 15.9672 9.43416 15.935 9.47438C14.9751 8.93008 14.1171 8.25708 13.3985 7.32399C13.4843 7.84952 13.6238 8.27316 14.0286 8.57078C14.5274 8.93812 15.0154 9.32155 15.5114 9.69424C15.7447 9.86853 15.9833 10.0348 16.2192 10.2064C16.2005 10.2385 16.1817 10.2734 16.1629 10.3056C15.7768 10.1206 15.3773 9.96237 15.0127 9.74519C14.6453 9.52532 14.3129 9.24647 13.9294 8.96762C14.0099 9.28401 13.9965 9.62721 14.16 9.81222C14.699 10.4236 15.3157 10.9732 16.0932 11.2708C17.0719 11.6462 18.0693 11.9733 19.0507 12.3353C20.7345 12.9574 22.4854 13.2925 24.2658 13.3247C26.3518 13.3622 28.4405 13.2523 30.5293 13.1853C31.0065 13.1692 31.4892 13.0968 31.9584 13.0029C32.6073 12.8742 33.2454 12.6785 33.8943 12.5525C34.5458 12.4265 35.2188 12.397 35.857 12.2361C37.0394 11.9385 38.0717 11.3298 38.9699 10.5067C39.8575 9.69156 40.2087 8.62441 40.273 7.46073C40.2999 6.95397 40.2007 6.43916 40.1443 5.92704C40.0827 5.36933 39.8012 4.90815 39.3212 4.65343C38.8627 4.41211 38.3425 4.29413 37.8304 4.11717C37.8974 4.20833 37.9672 4.28073 38.0074 4.36385C38.1602 4.68828 38.4149 4.84112 38.7635 4.92692C39.1577 5.02345 39.5518 5.16019 39.8387 5.57847C39.34 5.50339 38.8815 5.43368 38.482 5.37201L38.4712 5.37737ZM30.1619 14.4133C30.1539 14.3865 30.1459 14.357 30.1378 14.3302C29.9072 14.3543 29.6766 14.3999 29.446 14.3999C27.4029 14.4079 25.3571 14.4428 23.3139 14.3892C22.5873 14.3704 21.866 14.1425 21.1474 13.9816C20.9651 13.9414 20.8123 13.7698 20.63 13.7081C19.41 13.3086 18.182 12.9413 16.9646 12.531C16.2058 12.2736 15.4444 11.9948 14.8143 11.4746C14.4791 11.1984 14.1707 10.8847 13.9562 10.6863C13.7337 10.8472 13.479 10.9839 13.2886 11.1824C12.3796 12.1208 11.4841 13.07 10.5939 14.0272C10.5108 14.1184 10.4384 14.2792 10.4545 14.3919C10.6234 15.4885 10.8755 16.561 11.6208 17.4378C11.9587 17.8373 12.2724 18.2636 12.6424 18.631C13.8812 19.8563 15.3505 20.5642 17.1255 20.5132C17.9487 20.4891 18.7719 20.4274 19.5923 20.3631C20.024 20.3282 20.4691 20.3068 20.8793 20.1834C21.6676 19.9502 22.4398 19.6606 23.2121 19.3737C23.7832 19.1619 24.3462 18.9259 24.9039 18.6792C25.0541 18.6122 25.1881 18.4862 25.3034 18.3628C26.4135 17.1643 27.604 16.065 28.9822 15.1775C29.3763 14.9228 29.7678 14.6707 30.1619 14.416V14.4133ZM13.3985 49.9537C13.3959 49.9806 13.3932 50.0101 13.3905 50.0369C13.428 50.0583 13.4629 50.0798 13.5004 50.0985C15.868 51.1416 18.308 51.9754 20.8337 52.5197C23.4667 53.0855 26.1239 53.4743 28.8374 53.1927C29.7919 53.0935 30.6714 52.7879 31.5321 52.3964C31.7787 52.2838 31.8967 51.9754 31.8136 51.7154C31.7707 51.584 31.7278 51.4472 31.6634 51.3266C31.4248 50.8868 31.1245 50.4525 30.6392 50.313C29.5881 50.0074 28.6336 49.514 27.6871 48.9885C27.5396 48.9054 27.3788 48.8357 27.2179 48.7928C25.5474 48.3664 24.0245 47.6827 22.8394 46.3796C22.783 46.3152 22.708 46.267 22.6919 46.2536C22.3996 46.9534 22.1154 47.6318 21.8339 48.3101C21.4665 49.1923 20.7479 49.6347 19.8658 49.8545C19.3697 49.9779 18.863 50.069 18.3562 50.1575C17.1765 50.3694 15.994 50.3801 14.8089 50.1897C14.337 50.1146 13.8678 50.0315 13.3985 49.9511V49.9537ZM36.8598 3.44417C36.8437 3.48439 36.8249 3.52461 36.8088 3.56483C36.9751 3.65599 37.136 3.7686 37.3129 3.83295C37.4336 3.87585 37.5891 3.82223 37.7071 3.86781C38.0717 4.00724 38.4257 4.17079 38.7823 4.32631C38.7957 4.29413 38.8064 4.26196 38.8198 4.23247C38.1656 3.9697 37.514 3.70693 36.8598 3.44417ZM39.0263 5.14142C38.793 5.06366 38.5624 4.98591 38.3077 4.89742C38.3363 5.05651 38.5758 5.13785 39.0263 5.14142Z" fill="#F7F8C5"/>
<path d="M27.9645 3.39258C28.002 3.41135 28.0825 3.45157 28.1629 3.4891C28.1066 3.57222 28.0691 3.69825 27.994 3.72506C27.7553 3.81354 27.5033 3.86716 27.2566 3.93152C26.4844 4.13529 25.6961 4.29885 24.94 4.55358C24.0525 4.84852 23.1703 5.12737 22.2292 5.13809C22.1702 5.13809 22.1085 5.08983 22.0469 5.06302C22.0817 5.00403 22.1059 4.92627 22.1568 4.88874C22.2131 4.84852 22.2963 4.84047 22.366 4.8217C23.1998 4.59648 24.0498 4.41683 24.8622 4.13261C25.8168 3.79745 26.7901 3.57759 27.7821 3.40599C27.825 3.39794 27.868 3.40062 27.9645 3.39258Z" fill="#F7F8C5"/>
<path d="M24.0621 1.57031C24.7244 1.79286 25.3894 2.00468 26.0463 2.23795C26.6576 2.45514 27.2636 2.69109 27.8642 2.93777C27.9366 2.96726 27.9607 3.11742 28.0063 3.21126C27.9071 3.23807 27.7864 3.31583 27.7087 3.28634C26.9499 2.98067 26.1991 2.65355 25.4457 2.33984C25.0623 2.17897 24.6708 2.03686 24.29 1.86526C24.1721 1.81163 24.0863 1.69097 23.9844 1.60249L24.0621 1.573V1.57031Z" fill="#F7F8C5"/>
</svg>
