<svg width="66" height="67" viewBox="0 0 66 67" fill="none" xmlns="http://www.w3.org/2000/svg">
<path d="M22.2534 23.0199C13.6521 29.4889 11.8483 41.5822 18.2002 50.0277C24.5521 58.4733 36.6711 60.0951 45.2724 53.6261C53.8736 47.1572 55.6774 35.0639 49.3255 26.6183C42.9736 18.1728 30.8546 16.5509 22.2534 23.0199Z" stroke="#F7F8C5"/>
<path d="M47.1778 38.9939C47.0686 39.8131 46.8948 40.6324 46.7409 41.4367C46.6813 41.7445 46.4579 42.0375 46.2742 42.3106C46.0557 42.6333 45.7727 42.9113 45.5493 43.2341C45.1223 43.8646 44.7499 44.0037 44.0051 43.8646C43.3448 43.7405 43.0121 43.3681 42.9823 42.812C41.2842 43.1099 39.616 43.4079 37.9477 43.7008C37.7541 43.7355 37.5356 43.6958 37.3668 43.7753C37.1285 43.8845 36.761 44.0533 36.7313 44.237C36.627 44.957 36.1057 45.1258 35.5645 45.1705C34.9686 45.2151 34.3579 45.1655 33.7721 45.0563C33.5039 45.0066 33.1167 44.7534 33.067 44.525C32.9528 44.0235 32.64 44.0235 32.2825 44.0235C31.6122 44.0186 30.937 44.0483 30.2717 44.0037C28.4892 43.8895 26.7067 43.7306 24.9193 43.6213C24.6363 43.6065 24.3185 43.7107 24.0554 43.8448C23.2858 44.242 21.8955 43.9838 21.2997 43.3582C20.6493 42.6631 20.3464 41.8985 20.4308 40.9352C20.5202 39.8777 20.4954 38.8052 21.0217 37.832C21.1508 37.5888 21.5281 37.4944 21.7565 37.3951C23.2361 36.9185 24.0107 36.6355 25.4952 36.1092C25.8825 35.9751 26.2599 35.5084 26.5379 35.1956C27.0741 34.5998 27.5657 33.9493 28.0374 33.2989C28.9112 32.1023 30.2022 31.7796 31.5427 31.6604C33.4692 31.4867 35.4105 31.3278 37.342 31.3178C39.2535 31.3079 41.1651 31.4618 43.0766 31.6009C44.2832 31.6902 44.9882 32.3208 45.2315 33.5273C45.4053 34.3813 45.4202 35.2651 45.5294 36.134C45.5542 36.3127 45.6535 36.4964 45.7727 36.6355C46.3437 37.3107 46.5721 37.5739 47.1431 38.2491C47.2523 38.3782 47.1828 38.9691 47.1778 38.9939ZM24.8498 41.531C26.096 41.531 27.3373 41.6552 28.5984 41.6899C28.9361 41.6999 30.5447 41.8438 30.8476 41.8438C31.9002 41.8438 32.9578 41.8438 34.0302 41.8438C34.2487 41.4119 34.4672 40.8657 34.7849 40.3791C35.1474 39.8181 35.8673 39.7883 36.2894 40.3096C36.5525 40.6423 36.8008 41.0345 36.8901 41.4417C37.0292 42.0524 37.0242 42.6978 37.0689 43.239C38.4244 42.9411 39.7997 42.6333 41.2147 42.3205C41.2942 41.1338 41.3836 39.9372 41.4431 38.7407C41.458 38.3782 41.458 38.0058 41.0658 37.7476C40.9069 37.6384 40.887 37.3256 40.8026 37.1022C41.0708 37.2462 41.1601 37.5044 41.3339 37.5937C41.7808 37.8221 41.895 38.1895 41.8751 38.6215C41.8304 39.6294 41.7559 40.6324 41.7063 41.6403C41.6964 41.824 41.6964 42.0822 41.8056 42.1815C42.0638 42.4148 43.027 41.9531 43.1164 41.6204C43.3398 40.8061 43.5334 39.977 43.8562 39.2024C44.1839 38.4179 44.8393 37.9611 45.7528 37.8519C45.5791 37.6434 45.45 37.4199 45.2613 37.266C44.8244 36.9036 44.6208 36.4815 44.6407 35.8907C44.6605 35.3048 44.5364 34.714 44.4768 34.1281C44.3576 32.9017 43.7668 32.5045 42.4262 32.3456C40.5246 32.1222 38.623 31.869 36.6816 31.9782C34.3381 32.1123 31.9648 31.8739 29.6709 32.5889C29.4723 32.6535 29.229 32.718 29.1098 32.8669C28.2956 33.8848 27.516 34.9374 26.7067 35.9602C26.5528 36.1538 26.3294 36.3524 26.101 36.422C25.1775 36.705 24.2291 36.9135 23.3056 37.2015C22.8588 37.3405 22.4268 37.559 22.0246 37.8023C21.1955 38.2988 21.3345 39.1329 21.3246 39.9224C21.3097 41.402 21.2253 41.4119 22.6403 41.4615C22.7198 41.4615 23.7972 41.4814 24.8498 41.531ZM35.6439 40.9452C35.5694 40.9154 35.4999 40.8905 35.4254 40.8608C35.3063 41.1189 35.1176 41.3672 35.0779 41.6403C34.9835 42.2957 34.9339 42.966 34.919 43.6313C34.919 43.8348 35.0878 44.0384 35.1821 44.247C35.4006 44.0831 35.7432 43.9639 35.8127 43.7504C36.1205 42.8071 36.0262 41.8587 35.6439 40.9501L35.6439 40.9452ZM45.3209 40.1309C45.1421 40.9303 44.9634 41.7296 44.7896 42.5241C45.5741 41.8637 45.594 41.0296 45.3209 40.1309Z" fill="#F7F8C5"/>
<path d="M36.3643 36.9231C33.2214 36.784 30.2969 36.6549 27.2136 36.5209C27.7796 35.7265 28.3556 34.9867 28.8571 34.1972C29.3635 33.3978 29.999 33.1148 30.9722 33.1595C32.7001 33.239 34.4428 33.1248 36.1756 33.1099C36.5281 33.1099 36.8807 33.1645 37.2332 33.2141C37.7148 33.2836 38.0077 33.7206 37.7942 34.1674C37.3226 35.1555 36.7863 36.1187 36.3693 36.9181L36.3643 36.9231ZM37.3722 33.8248C37.3275 33.7553 37.2878 33.6808 37.2431 33.6113C36.8261 33.6113 36.409 33.6113 35.9969 33.6113C34.0605 33.5915 32.1241 33.5617 30.1877 33.5468C30.0388 33.5468 29.8352 33.5567 29.7458 33.6511C29.0904 34.3263 28.579 35.0909 28.2265 36.0591L30.0288 36.0591C29.5356 35.4997 29.5522 34.985 30.0785 34.515C30.1976 34.4107 30.3069 34.2916 30.436 34.2071C30.5402 34.1376 30.6693 34.0979 30.7885 34.0483L30.9027 34.2071C30.6097 34.5249 30.3168 34.8427 30.0437 35.1406C31.1261 36.5457 32.6355 36.1982 34.1052 36.2379C33.5292 35.0611 33.991 34.0433 35.1826 34.0036C34.9939 34.232 34.8698 34.4107 34.7159 34.5597C34.5322 34.7384 34.1399 34.8476 34.3981 35.1853C34.706 35.5825 34.6017 36.357 35.3911 36.3223C35.5947 36.3124 35.9025 36.3124 35.982 36.1932C36.4735 35.4286 36.9154 34.6292 37.3722 33.8397L37.3722 33.8248Z" fill="#F7F8C5"/>
<path d="M43.7616 36.5259C42.6991 36.5904 41.6217 36.655 40.4052 36.7294C40.3655 36.3968 40.2662 35.9251 40.2712 35.4584C40.2811 34.7881 40.3407 34.1178 40.435 33.4525C40.4598 33.2787 40.6585 33.0056 40.7925 32.9957C41.577 32.9411 42.3764 32.8765 43.1509 32.9709C43.4389 33.0056 43.8212 33.4227 43.9106 33.7355C44.0943 34.3909 44.1191 35.0959 44.1787 35.7811C44.1886 35.8953 44.0695 36.0244 44 36.1436C43.9255 36.2727 43.8411 36.3968 43.7616 36.5209L43.7616 36.5259Z" fill="#F7F8C5"/>
<path d="M37.1138 37.0082C37.2627 36.5266 37.3471 36.2188 37.4564 35.9159C37.7145 35.2158 37.9777 34.5207 38.2508 33.8256C38.3153 33.6618 38.3749 33.4582 38.504 33.3738C38.787 33.1851 39.1097 33.0659 39.4176 32.917C39.5467 33.2 39.7651 33.478 39.79 33.766C39.8545 34.5505 39.8495 35.34 39.8297 36.1294C39.8247 36.3628 39.6857 36.5862 39.5765 36.899C38.8317 36.9338 38.0571 36.9635 37.1138 37.0082Z" fill="#F7F8C5"/>
<path d="M38.8318 38.2692C39.2786 37.3904 39.7851 37.3855 40.2121 38.1451C39.7255 38.1898 39.2786 38.2295 38.8318 38.2692Z" fill="#F7F8C5"/>
<path d="M42.2627 37.9533C42.7096 37.0745 43.216 37.0695 43.643 37.8292C43.1564 37.8739 42.7096 37.9136 42.2627 37.9533Z" fill="#F7F8C5"/>
<path d="M23.842 40.1956C23.7973 40.2205 23.7427 40.2453 23.698 40.28C23.3157 40.5928 22.8142 40.6673 22.5362 40.3198C22.2979 40.0219 22.2135 39.4856 22.278 39.0934C22.3525 38.6565 22.7249 38.3635 23.2611 38.4926C23.5193 38.5522 23.7874 38.6366 24.0456 38.6316C24.5371 38.6167 25.0237 38.5075 25.5153 38.5075C27.4119 38.4976 29.3086 38.5174 31.2053 38.5075C31.5677 38.5075 31.9451 38.3337 32.2926 38.3933C32.8785 38.4926 33.2062 39.3565 32.9927 40.0715C32.804 40.712 32.243 40.99 31.5975 40.8163C31.1854 40.707 31.0861 40.4538 30.6641 40.4389C30.0533 40.4141 29.0901 40.4588 28.4794 40.4637C27.3424 40.4637 26.2848 40.4042 25.1727 40.3247L23.842 40.2056L23.842 40.1956Z" fill="#F7F8C5"/>
<path d="M22.8813 17.0955L21.1066 12.8413L24.098 14.2439L25.2084 11.1309L26.9832 15.3851L26.4414 15.612L25.2234 12.685L24.4198 15.0052L22.2099 13.9481L23.4279 16.875L22.8861 17.1019L22.8813 17.0955Z" fill="#F7F8C5"/>
<path d="M30.1999 14.6722L30.1353 14.3596C29.9208 14.6614 29.6131 14.8527 29.2171 14.9398C28.7618 15.0415 28.3431 14.965 27.9706 14.7234C27.5982 14.4817 27.362 14.1275 27.2667 13.6674C27.1603 13.2056 27.2303 12.7917 27.4671 12.4129C27.704 12.0341 28.0517 11.8027 28.5071 11.701C28.9031 11.6139 29.2624 11.6647 29.5802 11.8471L29.5157 11.5345L30.0592 11.4167L30.7434 14.5544L30.1999 14.6722ZM29.117 14.4331C29.3351 14.3895 29.5194 14.3011 29.67 14.1678C29.8205 14.0344 29.9278 13.8835 29.9869 13.7086L29.7222 12.5029C29.5922 12.37 29.4333 12.2788 29.2407 12.2229C29.0482 12.167 28.8429 12.1609 28.6296 12.2109C28.3282 12.277 28.0991 12.4393 27.9487 12.6929C27.7982 12.9465 27.7521 13.2321 27.8215 13.5512C27.8909 13.8702 28.0516 14.1106 28.2908 14.2819C28.5364 14.4483 28.8156 14.4993 29.117 14.4331Z" fill="#F7F8C5"/>
<path d="M31.486 14.407L31.3438 11.2028L31.8859 11.1764L32.0066 13.8851L33.2623 13.8337L33.1416 11.125L33.6837 11.0986L33.8044 13.8073L35.0601 13.7559L34.9394 11.0472L35.4814 11.0208L35.6237 14.2251L31.4748 14.4054L31.486 14.407Z" fill="#F7F8C5"/>
<path d="M36.4172 14.3606L36.8283 11.1316L37.3688 11.1966L37.1023 13.3237L39.6819 11.4437L39.2708 14.6728L38.7303 14.6077L38.9921 12.5144L36.4108 14.3655L36.4172 14.3606Z" fill="#F7F8C5"/>
<path d="M40.0554 14.8351L40.9157 11.7498L41.4387 11.8983L41.0812 13.1706L42.745 13.6351L43.1025 12.3628L43.6256 12.5112L42.7653 15.5965L42.2422 15.4481L42.6141 14.1148L40.9503 13.6503L40.5784 14.9836L40.0554 14.8351Z" fill="#F7F8C5"/>
<path d="M45.7611 16.8455L45.8939 16.5551C45.5396 16.671 45.1819 16.6491 44.8112 16.4763C44.3795 16.2893 44.0904 15.9849 43.9375 15.5681C43.7846 15.1514 43.7984 14.7295 43.9903 14.3043C44.1822 13.879 44.4881 13.5787 44.8953 13.4129C45.3073 13.2536 45.7291 13.2674 46.1608 13.4545C46.5331 13.616 46.7948 13.8707 46.9412 14.2121L47.074 13.9216L47.5747 14.1471L46.2667 17.0774L45.766 16.852L45.7611 16.8455ZM45.0319 16.0093C45.2309 16.1005 45.4378 16.1355 45.6287 16.1224C45.8259 16.1045 46.0055 16.0497 46.1577 15.9453L46.655 14.8187C46.6291 14.6375 46.5567 14.4612 46.4297 14.3058C46.3092 14.1456 46.1487 14.0255 45.9385 13.9328C45.6528 13.8064 45.3737 13.7956 45.0996 13.9114C44.8255 14.0273 44.6253 14.228 44.491 14.5297C44.3631 14.8266 44.3394 15.1153 44.4376 15.3927C44.5358 15.67 44.7302 15.875 45.0158 16.0013L45.0319 16.0093Z" fill="#F7F8C5"/>
</svg>
