<svg width="40" height="55" viewBox="0 0 40 55" fill="none" xmlns="http://www.w3.org/2000/svg">
<path d="M0.499866 34.7046C0.499866 45.5297 9.13048 54.291 19.7597 54.291C30.3889 54.291 39.0195 45.5297 39.0195 34.7046C39.0195 23.8796 30.3889 15.1182 19.7597 15.1182C9.13048 15.1182 0.499866 23.8796 0.499866 34.7046Z" stroke="#F7F8C5"/>
<path d="M6.30044 32.2501C6.1107 32.5596 5.94593 32.8742 5.73621 33.1538C5.65133 33.2687 5.46657 33.3885 5.34174 33.3785C5.24187 33.3686 5.10704 33.1738 5.08208 33.039C4.95724 32.4148 4.85739 31.7807 4.76751 31.1515C4.74754 31.0017 4.78248 30.837 4.82243 30.6872C4.93228 30.2927 5.05213 29.9032 5.18695 29.5187C5.46657 28.7048 6.13067 28.4302 6.89465 28.8296C7.19425 28.9844 7.47888 29.1942 7.73354 29.4189C8.59238 30.1778 9.43625 30.9568 10.2751 31.7358C10.385 31.8356 10.4699 31.8556 10.6296 31.8356C11.0041 31.7857 11.3886 31.8107 11.7631 31.7857C11.878 31.7757 12.0078 31.7308 12.0977 31.6609C12.9216 31.0317 13.7355 30.3826 14.5644 29.7584C14.6942 29.6585 14.8889 29.6086 15.0537 29.5986C16.357 29.5437 17.6452 29.6535 18.9385 29.8233C19.3479 29.8782 19.4828 30.1728 19.6675 30.4225C20.3416 31.3313 20.9858 32.26 21.6449 33.1788C21.6798 33.2287 21.7198 33.2837 21.7747 33.3586C22.0943 32.9791 22.4638 32.7394 22.9781 32.7993C23.4475 32.8543 23.8869 32.9741 24.2863 33.2787C24.6209 32.8543 24.9355 32.4248 25.285 32.0204C25.8542 31.3613 26.4384 30.7121 27.0276 30.073C27.1025 29.9931 27.2673 29.9631 27.3822 29.9681C28.1511 30.0081 28.9151 30.058 29.6841 30.1129C30.1535 30.1429 30.6278 30.1629 31.0972 30.2278C31.3269 30.2577 31.5865 30.3226 31.7513 30.4675C32.5552 31.1515 33.3292 31.8656 34.1231 32.5646C34.188 32.6246 34.2979 32.6545 34.3928 32.6595C35.3065 32.6745 35.3515 32.6645 35.4014 33.5633C35.4513 34.5719 35.4114 35.5806 35.3914 36.5892C35.3914 36.8689 35.1817 37.0686 34.8671 37.0486C34.4078 37.0137 34.218 37.2534 33.9783 37.5979C33.3092 38.5616 32.5702 39.4704 31.8612 40.3991C31.6614 40.6638 31.3419 40.6438 31.0722 40.6688C29.764 40.8086 28.4607 40.6588 27.1675 40.4541C26.6931 40.3792 26.3336 40.1445 26.0839 39.715C25.5097 38.7314 24.8755 37.7776 24.3562 36.769C24.1515 36.3695 23.9618 36.2497 23.5423 36.2597C22.9831 36.2747 22.4188 36.2197 21.9045 36.1948C21.7647 36.4544 21.6599 36.6991 21.5101 36.9138C20.7411 38.0123 19.8573 39.011 18.8586 39.9048C18.6139 40.1245 18.3393 40.2493 17.9998 40.2194C16.5767 40.0945 15.1536 39.9697 13.7355 39.8399C13.4758 39.8149 13.2661 39.7051 13.1113 39.4804C12.6669 38.8312 12.1676 38.2121 11.7831 37.528C11.5384 37.0836 11.2139 36.9538 10.7794 36.9687C10.2651 36.9887 9.8457 36.779 9.52113 36.4195C9.01681 35.8502 8.53744 35.261 8.07806 34.6568C7.47886 33.8679 6.90463 33.059 6.30044 32.2401V32.2501ZM16.2521 30.2477C16.2521 30.2477 16.2521 30.2627 16.2521 30.2677C15.8626 30.2477 15.4732 30.2228 15.0837 30.2128C14.9888 30.2128 14.869 30.2228 14.7991 30.2777C14.0301 30.8719 13.2661 31.4761 12.5121 32.0903C12.4172 32.1652 12.3423 32.315 12.3274 32.4348C12.2874 32.7744 12.2924 33.1189 12.2575 33.4584C12.1676 34.3423 12.0577 35.2261 11.9629 36.1099C11.9479 36.2297 11.9479 36.3845 12.0078 36.4794C12.4522 37.2034 12.9266 37.9175 13.371 38.6415C13.5507 38.9361 13.7954 39.0909 14.1349 39.1208C15.3084 39.2307 16.4768 39.3406 17.6502 39.4554C17.9498 39.4854 18.1795 39.3905 18.4092 39.2057C19.283 38.4917 20.032 37.6578 20.7211 36.769C20.9308 36.4994 21.0856 36.1898 21.2504 35.8902C21.4901 35.4608 21.4152 34.9714 21.4951 34.507C21.56 34.1275 21.4501 33.8479 21.2254 33.5383C20.4814 32.5347 19.7774 31.5011 19.0533 30.4824C19.0134 30.4275 18.9235 30.3876 18.8536 30.3826C17.9848 30.3326 17.1159 30.2877 16.2421 30.2477H16.2521ZM33.8835 34.7917C33.8835 34.7917 33.8485 34.7917 33.8335 34.7917C33.8335 34.2474 33.8335 33.6981 33.8335 33.1538C33.8335 33.0939 33.8235 33.014 33.7836 32.9791C33.5189 32.7094 33.2593 32.4298 32.9647 32.1901C32.4604 31.7757 31.9361 31.3762 31.4068 30.9868C31.262 30.8819 31.0672 30.797 30.8875 30.782C29.789 30.6971 28.6854 30.6322 27.5869 30.5723C27.487 30.5673 27.3522 30.6222 27.2823 30.6922C26.4185 31.6259 25.5646 32.5646 24.7157 33.5084C24.6608 33.5683 24.6209 33.6682 24.6209 33.7481C24.6209 34.0526 24.6309 34.3572 24.6508 34.6618C24.7157 35.5656 24.8456 36.4444 25.4248 37.1984C25.8692 37.7776 26.2687 38.3968 26.7031 38.981C27.0326 39.4304 27.4121 39.77 28.0413 39.775C28.8252 39.78 29.6092 39.8948 30.3931 39.9397C31.0373 39.9747 31.5815 39.78 31.986 39.2307C32.4953 38.5366 33.0346 37.8675 33.5639 37.1834C33.7886 36.8938 33.8984 36.5793 33.8884 36.2048C33.8735 35.7304 33.8884 35.261 33.8884 34.7867L33.8835 34.7917ZM10.1353 36.2597C10.1603 36.1698 10.1703 36.1498 10.1703 36.1349C10.2302 34.9115 10.2951 33.6931 10.345 32.4698C10.345 32.3849 10.2701 32.27 10.1952 32.2101C9.24151 31.4012 8.28779 30.5923 7.32408 29.7934C7.04945 29.5637 6.74485 29.3639 6.43027 29.1892C6.14066 29.0294 5.8111 29.2191 5.72622 29.5387C5.63634 29.8782 5.55645 30.2228 5.43661 30.5523C5.31677 30.8769 5.26684 31.1865 5.34174 31.526C5.40665 31.8156 5.43662 32.1053 5.48655 32.3949C5.5964 32.275 5.65631 32.1602 5.71124 32.0453C5.76616 31.9305 5.81111 31.8057 5.87603 31.6908C6.06078 31.3812 6.17562 31.3613 6.4153 31.6409C6.8597 32.1552 7.29912 32.6645 7.71856 33.1988C8.36269 34.0127 8.98186 34.8466 9.616 35.6655C9.7658 35.8602 9.94556 36.035 10.1403 36.2497L10.1353 36.2597ZM24.1415 36.015C24.1016 35.311 24.0666 34.6568 24.0167 34.0027C24.0117 33.9178 23.9568 33.8279 23.8919 33.763C23.3426 33.2188 22.1742 33.4634 21.9944 34.2074C21.8596 34.7517 21.8846 35.3359 21.8396 35.9201C22.6435 35.9501 23.3775 35.9801 24.1415 36.01V36.015ZM11.3337 36.4494C11.4935 35.0813 11.6533 33.7431 11.8131 32.3899C11.5085 32.3699 11.1939 32.3499 10.8294 32.325V36.3895C10.9842 36.4095 11.149 36.4295 11.3337 36.4544V36.4494ZM34.4277 33.1089V36.4894C34.9171 36.5892 34.952 36.5793 34.967 36.1349C34.992 35.256 34.992 34.3772 35.002 33.4984C35.002 33.1039 35.002 33.1039 34.6075 33.0989C34.5476 33.0989 34.4827 33.1039 34.4327 33.1089H34.4277Z" fill="#F7F8C5"/>
<path d="M16.37 10.3096C16.017 10.8824 15.5007 11.2489 14.821 11.409C14.1413 11.5692 13.5151 11.4728 12.9422 11.1198C12.3694 10.7668 12.0029 10.2504 11.8428 9.57075C11.6826 8.89106 11.779 8.26481 12.132 7.69199C12.485 7.11917 13.0013 6.75269 13.681 6.59253C14.3607 6.43237 14.987 6.52878 15.5598 6.88177C16.1326 7.23476 16.4991 7.75109 16.6593 8.43079C16.8194 9.11048 16.723 9.73673 16.37 10.3096ZM13.279 10.6072C13.7047 10.8748 14.1733 10.9539 14.687 10.8309C15.2007 10.7079 15.5835 10.4393 15.8454 10.0058C16.1072 9.57225 16.1727 9.10151 16.0497 8.58782C15.9267 8.07412 15.6602 7.6777 15.2288 7.40222C14.8031 7.1346 14.3345 7.05548 13.8208 7.17848C13.3071 7.30148 12.9164 7.57583 12.6624 8.00361C12.4006 8.43715 12.335 8.90789 12.4638 9.42944C12.5868 9.94313 12.8533 10.3395 13.2847 10.615L13.279 10.6072Z" fill="#F7F8C5"/>
<path d="M20.4796 10.6434L19.8889 10.6779L19.8121 9.32111C19.4754 9.47136 19.1628 9.55563 18.8606 9.57183C18.4533 9.59273 18.1328 9.50159 17.8799 9.28844C17.627 9.0753 17.494 8.76216 17.4731 8.35477L17.4172 7.40542L18.0079 7.37092L18.0628 8.23649C18.0811 8.52501 18.1685 8.72662 18.3229 8.85493C18.4774 8.98323 18.6795 9.02829 18.933 9.01156C19.2487 8.99745 19.5341 8.90899 19.7813 8.75192L19.6961 7.26846L20.2789 7.23972L20.4796 10.6434Z" fill="#F7F8C5"/>
<path d="M21.3625 10.6604L21.6137 7.26359L22.1996 7.30501L22.0743 8.97906L23.7024 7.41095L24.4188 7.46548L22.7592 9.05663L24.333 10.8738L23.568 10.8187L22.0753 9.06283L21.9563 10.696L21.3704 10.6546L21.3625 10.6604Z" fill="#F7F8C5"/>
<path d="M24.5987 10.9904L25.3426 7.60678L25.9081 7.73565L25.4261 9.96104L28.3361 8.21398L27.5922 11.5976L27.0267 11.4687L27.5102 9.27844L24.6044 10.9983L24.5987 10.9904Z" fill="#F7F8C5"/>
</svg>
