<svg width="62" height="63" viewBox="0 0 62 63" fill="none" xmlns="http://www.w3.org/2000/svg">
<path d="M20.9436 20.3541C12.6239 26.8063 11.0347 38.6613 17.3698 46.8301C23.7049 54.9989 35.5824 56.4101 43.9021 49.9579C52.2219 43.5058 53.8111 31.6508 47.476 23.482C41.1409 15.3132 29.2634 13.902 20.9436 20.3541Z" stroke="#F7F8C5"/>
<path d="M39.2422 46.618C38.2065 47.596 36.8905 48.2209 35.5883 48.868C35.4942 48.9146 35.3805 48.9466 35.2757 48.9455C34.7241 48.938 34.1693 48.9477 33.6216 48.8942C32.7207 48.8063 31.8362 48.6184 30.9699 48.3454C30.0419 48.0525 29.1065 47.782 28.1868 47.4614C27.1399 47.0959 26.1087 46.6869 25.1495 46.1198C24.981 46.0196 24.8448 45.8631 24.6941 45.7326C24.5419 45.6 24.3875 45.4691 24.2373 45.3349C23.3405 44.5315 22.4634 43.7045 21.7718 42.7107C21.1015 41.7464 20.5494 40.7135 20.1272 39.6163C19.8748 38.9612 19.6632 38.2908 19.4214 37.6324C18.9727 36.4138 18.7664 35.1442 18.6128 33.8617C18.5944 33.7061 18.631 33.5705 18.6847 33.425C18.9268 32.7591 19.1741 32.0956 19.3787 31.4175C19.5994 30.6857 19.9446 30.0272 20.3586 29.3895C20.6493 28.9415 20.8781 28.454 21.1438 27.9908C21.2272 27.8453 21.34 27.7165 21.4484 27.5863C21.5085 27.5149 21.593 27.4643 21.652 27.3938C22.09 26.8678 22.6704 26.5232 23.2399 26.1689C23.6069 25.9404 23.9792 25.7209 24.3598 25.5164C24.7525 25.3042 25.146 25.0865 25.5602 24.9252C25.9409 24.7783 26.3503 24.7066 26.745 24.5967C26.8384 24.5704 26.9248 24.5182 27.0196 24.4958C27.1058 24.4752 27.1998 24.488 27.2876 24.4694C27.522 24.4228 27.7551 24.3641 27.9889 24.3147C28.9732 24.1104 29.9688 24.044 30.9711 24.101C31.5474 24.134 32.1275 24.1739 32.6951 24.2679C33.2008 24.3523 33.7039 24.4057 34.214 24.4191C34.2648 24.4209 34.3199 24.426 34.3668 24.444C34.6549 24.5603 34.9048 24.4786 35.1467 24.3141C35.2596 24.2364 35.3384 24.1424 35.4031 24.0196C35.8273 23.2207 36.777 22.7166 37.6741 22.8421C37.9515 22.8809 38.2199 23.0059 38.4831 23.1134C39.2851 23.4396 39.945 23.9799 40.6043 24.524C40.8877 24.7576 41.1425 25.0053 41.3664 25.2983C41.6119 25.6191 41.9253 25.8872 42.168 26.2085C42.7745 27.0161 43.3604 27.8397 43.8264 28.7382C43.9205 28.9191 43.9384 29.1377 44.0173 29.3288C44.1225 29.5836 44.2464 29.8305 44.3744 30.0742C44.7466 30.7816 44.9297 31.5515 45.1235 32.318C45.143 32.3985 45.1644 32.4792 45.179 32.5619C45.2156 32.7578 45.268 32.953 45.2782 33.1512C45.291 33.41 45.1422 33.6243 44.982 33.8047C44.7818 34.0292 44.7005 34.239 44.7668 34.552C44.8576 34.9796 45.0203 35.3744 45.1718 35.7781C45.2641 36.0247 45.3241 36.2849 45.3911 36.5414C45.4061 36.599 45.3931 36.6651 45.3862 36.7265C45.3594 36.9683 45.3187 37.2092 45.301 37.4522C45.2607 38.0424 45.1671 38.6212 44.9872 39.1845C44.8406 39.6462 44.6959 40.108 44.5349 40.5659C44.3547 41.08 44.0797 41.5439 43.7341 41.9637C43.0965 42.7384 42.4513 43.5076 41.8053 44.2757C41.0645 45.1553 40.2268 45.9336 39.2383 46.6194L39.2422 46.618ZM34.8996 43.1937C34.8996 43.1937 34.9068 43.2029 34.911 43.2062C35.2417 42.897 35.5783 42.5931 35.9016 42.2764C36.774 41.4218 37.5882 40.5199 38.2126 39.4602C38.8687 38.3478 39.5326 37.2393 39.819 35.9585C39.9347 35.4401 40.0396 34.9184 40.0081 34.3823C39.9966 34.1867 40.0009 33.969 39.9148 33.8049C39.7914 33.5692 39.6017 33.365 39.3357 33.258C38.834 33.0534 38.3302 32.8588 37.7842 32.799C37.5881 32.7779 37.3969 32.7185 37.2012 32.6872C36.8016 32.6228 36.403 32.551 36.0014 32.5095C35.3963 32.4479 34.7853 32.432 34.182 32.3557C33.3546 32.252 32.5327 32.1639 31.6941 32.252C31.3589 32.2876 31.0557 32.3793 30.748 32.4843C30.62 32.5276 30.49 32.5641 30.3621 32.6055C30.1306 32.6812 29.8937 32.7478 29.6684 32.8401C29.3217 32.982 29.0081 33.1857 28.6821 33.3692C28.1242 33.6832 27.6208 34.0653 27.1281 34.4655C26.9522 34.6086 26.7673 34.7487 26.622 34.9207C25.9816 35.6812 25.4479 36.509 25.0437 37.421C24.918 37.7032 24.8473 37.9905 24.8522 38.2967C24.8532 38.4064 24.8341 38.5136 24.827 38.6214C24.7842 39.3274 24.7377 40.0329 24.7243 40.7408C24.7123 41.4014 24.9649 41.9674 25.4374 42.432C25.9867 42.9723 26.6059 43.4221 27.2938 43.7626C27.7867 44.007 28.2963 44.2367 28.8561 44.2824C29.4721 44.3324 30.0894 44.3715 30.7065 44.3826C31.6164 44.3992 32.5113 44.2774 33.3918 44.0349C33.8353 43.9135 34.2486 43.7513 34.5899 43.4322C34.6846 43.3439 34.795 43.2715 34.898 43.1916L34.8996 43.1937ZM40.6878 34.3465C40.6628 34.544 40.6343 34.7178 40.6194 34.8942C40.5614 35.5955 40.3601 36.248 40.0147 36.8637C39.7941 37.2575 39.6045 37.67 39.4125 38.0795C39.0294 38.891 38.5906 39.6733 38.0677 40.4003C37.1727 41.6468 36.1632 42.7925 34.8873 43.6732C34.6473 43.8379 34.4009 43.9943 34.1494 44.1399C33.3548 44.5995 32.4602 44.6963 31.5793 44.766C30.8786 44.8214 30.1655 44.7461 29.4583 44.7208C28.1235 44.6709 26.9725 44.1223 25.8977 43.3827C25.6054 43.1823 25.3452 42.934 25.0617 42.7003C25.0682 42.7299 25.0706 42.7479 25.0766 42.7663C25.2732 43.3344 25.5144 43.8794 25.8806 44.3622C25.9882 44.5031 26.0814 44.6551 26.1923 44.7917C26.3425 44.977 26.5012 45.154 26.6587 45.3336C26.7577 45.4464 26.8526 45.5625 26.9612 45.6663C27.1291 45.8296 27.2714 46.0259 27.5129 46.0992C27.6971 46.1559 27.877 46.2241 28.0558 46.2932C28.0913 46.3069 28.1134 46.3525 28.1418 46.3848C28.1019 46.3993 28.0642 46.4252 28.0233 46.4256C27.9618 46.4271 27.8996 46.4127 27.8379 46.4012C27.5241 46.3411 27.2239 46.2623 26.9941 46.0085C26.863 45.8628 26.7007 45.7429 26.5396 45.6288C26.2056 45.3915 25.9147 45.1142 25.666 44.7893C25.5081 44.5836 25.3481 44.3794 25.2084 44.1992C24.891 44.3662 24.6044 44.5176 24.3059 44.6749C24.495 44.8465 24.6737 45.013 24.8577 45.1737C25.2505 45.5187 25.5926 45.9279 26.1021 46.1214C26.3156 46.2032 26.5236 46.2991 26.7301 46.3995C26.8833 46.4737 27.0286 46.5654 27.1767 46.6501C27.1862 46.6559 27.1906 46.6723 27.1966 46.6842C27.1517 46.7008 27.1118 46.7153 27.0416 46.7417C27.4486 46.8944 27.8169 47.0589 28.2011 47.1716C29.41 47.5269 30.6223 47.8696 31.8381 48.1997C32.269 48.3174 32.7113 48.3965 33.1514 48.4707C33.4279 48.5168 33.7111 48.5248 33.9903 48.5424C34.7005 48.5886 35.3947 48.5184 36.0482 48.2129C36.2929 48.0989 36.5211 47.9467 36.7705 47.8472C37.3633 47.6101 37.8845 47.2637 38.3695 46.8578C38.5565 46.7013 38.75 46.5512 38.9372 46.3928C39.4489 45.9597 39.9715 45.5363 40.4678 45.0855C40.8171 44.7684 41.0995 44.3861 41.3995 44.0182C42.0569 43.2116 42.7378 42.4247 43.3146 41.5568C43.591 41.1413 43.9072 40.7411 44.1072 40.2908C44.3526 39.7377 44.5331 39.1476 44.6745 38.5581C44.8046 38.0136 44.8555 37.4497 44.9187 36.8912C44.938 36.7163 44.9034 36.5271 44.8545 36.3556C44.6849 35.7648 44.5133 35.1757 44.4546 34.5599C44.4519 34.5373 44.4409 34.5145 44.4428 34.5213C44.1688 34.6612 43.8999 34.7972 43.616 34.9415C43.7126 35.0299 43.8131 35.1169 43.9081 35.2097C44.1954 35.4865 44.4037 35.8147 44.5922 36.1682C44.7574 36.477 44.7968 36.7681 44.7212 37.0938C44.6543 37.3881 44.5772 37.682 44.5341 37.9793C44.4747 38.3898 44.2372 38.7257 44.1047 39.1055C44.1035 39.1081 44.0891 39.1044 44.0557 39.1039C44.0689 39.0359 44.0846 38.9711 44.0957 38.9047C44.1947 38.2838 44.2883 37.6604 44.3946 37.0404C44.4403 36.7741 44.4044 36.5513 44.2669 36.3017C44.0011 35.8186 43.6191 35.4833 43.1454 35.234C42.9973 35.1558 42.829 35.0621 42.6709 35.0644C42.0822 35.0708 41.5787 34.8362 41.0798 34.5735C40.9518 34.5062 40.829 34.4266 40.6908 34.3441L40.6878 34.3465ZM26.4688 25.172C26.4287 25.1734 26.4031 25.1702 26.3792 25.1755C26.2883 25.1965 26.1959 25.2155 26.1061 25.2422C25.3561 25.4743 24.7078 25.9078 24.039 26.2978C23.582 26.5632 23.1461 26.8666 22.7057 27.162C22.4045 27.3626 22.1163 27.5927 21.9998 27.9485C21.7755 28.6353 21.5555 29.3254 21.3723 30.0248C21.1973 30.6964 21.1821 31.3827 21.3248 32.0685C21.4574 32.7094 21.8389 33.2099 22.2316 33.7035C22.5192 34.0658 22.8737 34.34 23.3401 34.4417C23.5318 34.4827 23.7269 34.511 23.915 34.5664C24.5608 34.7548 25.2146 34.8942 25.892 34.8916C25.9905 34.891 26.0545 34.8694 26.1156 34.7907C26.3704 34.4645 26.6661 34.1824 27.0177 33.9575C27.6222 33.5695 28.2236 33.1757 28.8267 32.7838C28.9683 32.6921 29.1083 32.5984 29.2664 32.4939C29.1608 32.4406 29.079 32.3969 28.9947 32.3583C28.6336 32.1882 28.2924 31.9779 28.0365 31.6735C27.5813 31.1311 27.1538 30.5672 26.8352 29.9288C26.4357 29.1288 26.0928 28.323 26.0739 27.3993C26.0571 26.6291 26.0755 25.881 26.4694 25.1748L26.4688 25.172ZM31.7964 24.8165C31.7547 24.8159 31.6983 24.8134 31.6423 24.8156C30.2684 24.8769 28.8955 24.9373 27.5222 25.0015C27.4615 25.004 27.3872 25.0336 27.3446 25.0765C27.0882 25.3413 26.8351 25.6102 26.5877 25.8845C26.5198 25.9586 26.4361 26.0483 26.4255 26.1389C26.3306 26.9776 26.3353 27.815 26.6139 28.6229C26.8335 29.259 27.1297 29.862 27.5047 30.4221C27.6985 30.7104 27.8862 31.0183 28.1361 31.2533C28.5767 31.6684 29.1088 31.9483 29.7156 32.0483C29.8839 32.0761 30.052 32.1354 30.234 32.0469C30.4034 31.9634 30.5922 31.9028 30.7801 31.8708C31.2516 31.792 31.725 31.7135 32.2006 31.6761C32.6134 31.6429 33.0313 31.6651 33.4455 31.6654C33.6368 31.6654 33.8272 31.6728 34.0634 31.6776C33.8202 31.4787 33.6061 31.3133 33.4039 31.1354C33.2217 30.9749 33.033 30.8145 32.8793 30.627C32.5387 30.2134 32.218 29.7828 31.889 29.3585C31.8443 29.3009 31.8047 29.2392 31.769 29.1762C31.3657 28.4732 31.1974 27.7034 31.1691 26.9058C31.1596 26.6362 31.2074 26.3534 31.2918 26.0966C31.4329 25.664 31.624 25.247 31.7964 24.8165ZM39.9688 29.8813C39.9554 29.8917 39.9418 29.9039 39.9292 29.9153C40.3332 30.3555 40.7227 30.8088 41.1437 31.2326C41.6587 31.75 42.2392 32.1902 42.8715 32.559C43.0281 32.6503 43.1753 32.6615 43.3471 32.6172C43.7637 32.5102 44.0762 32.2497 44.2055 31.8658C44.3276 31.5023 44.2619 31.0965 44.1641 30.7238C44.0775 30.3952 43.9392 30.0787 43.8113 29.7607C43.6177 29.2792 43.436 28.7919 43.1448 28.3548C42.9371 28.0443 42.7344 27.7299 42.5307 27.4162C42.4492 27.2898 42.3862 27.1491 42.2913 27.033C41.8156 26.4537 41.3516 25.8638 40.8464 25.3124C40.5861 25.0278 40.2819 24.7525 39.9422 24.5823C39.5249 24.3717 39.0559 24.2539 38.5997 24.1377C38.4251 24.0933 38.2127 24.1064 38.0632 24.29C37.874 24.5224 37.8506 24.7962 37.8539 25.0706C37.8608 25.7513 38.0495 26.3965 38.2942 27.0246C38.7004 28.065 39.2618 29.0164 39.9685 29.8831L39.9688 29.8813ZM21.1911 29.2106C21.1803 29.2074 21.1696 29.2042 21.1589 29.201C21.1361 29.2269 21.1096 29.2523 21.0911 29.2815C20.8489 29.6689 20.5797 30.0425 20.3715 30.4481C20.0599 31.0541 19.7736 31.6736 19.5129 32.3029C19.3351 32.7327 19.1157 33.16 19.1955 33.6605C19.2662 34.1003 19.2383 34.5556 19.4133 34.9789C19.5063 35.2052 19.5934 35.4345 19.6691 35.666C19.8583 36.2481 20.1072 36.8071 20.4355 37.3176C20.8071 37.8968 21.2809 38.395 21.8245 38.8259C22.0888 39.0349 22.4019 39.1005 22.6884 39.0596C23.1035 39.0016 23.5055 38.8332 23.9089 38.6985C23.9797 38.6749 24.0537 38.5895 24.0814 38.5169C24.3742 37.7654 24.6636 37.0117 25.0759 36.3143C25.2472 36.0248 25.4227 35.7387 25.6014 35.4418C25.5643 35.4343 25.5244 35.4191 25.4855 35.4179C24.833 35.4078 24.2298 35.1764 23.629 34.9695C23.2393 34.8348 22.8794 34.5961 22.528 34.3706C22.0969 34.0932 21.7986 33.6831 21.5065 33.2682C21.1888 32.8138 21.0001 32.3153 20.9383 31.7679C20.8619 31.0868 20.9317 30.4177 21.1071 29.7572C21.1546 29.5803 21.1625 29.3927 21.1892 29.2104L21.1911 29.2106ZM44.3561 32.9593C44.188 33.0402 44.0408 33.161 43.8839 33.1755C43.3416 33.2267 42.8173 33.1419 42.3346 32.8682C41.7044 32.5127 41.1497 32.059 40.6367 31.5548C39.9344 30.8661 39.3336 30.0936 38.7875 29.2787C38.1318 28.3015 37.6544 27.2437 37.4277 26.0838C37.3209 25.54 37.2659 24.9907 37.467 24.4505C37.537 24.2643 37.6288 24.0893 37.813 24.0057C38.01 23.9173 38.2189 23.8444 38.4301 23.8042C38.5738 23.7769 38.7308 23.8134 38.8821 23.8214C38.8881 23.8036 38.8922 23.7855 38.8982 23.7677C38.5383 23.6247 38.1811 23.4746 37.8157 23.3457C37.693 23.3024 37.5468 23.2904 37.4171 23.3102C36.9777 23.3773 37.0765 23.2792 36.9482 23.7283C36.9112 23.8592 36.8716 23.9889 36.8267 24.1457C36.7015 23.946 36.8993 23.7546 36.7732 23.5771C36.4278 23.9801 36.5134 24.486 36.3799 24.9325C36.3069 24.4812 36.3196 24.0426 36.5178 23.6135C36.4214 23.6933 36.3122 23.7779 36.2889 23.8818C36.2276 24.1536 36.1906 24.4312 36.1675 24.7097C36.1453 24.9809 36.1536 25.2531 36.1478 25.5264C36.1228 25.526 36.0959 25.5254 36.0709 25.525C35.9941 24.9943 35.997 24.4643 36.1413 23.9105C35.965 24.0999 35.8439 24.2797 35.8502 24.5238C35.8576 24.8247 35.8557 25.1263 35.8603 25.4278C35.8629 25.5693 35.8701 25.7104 35.8745 25.8522C35.8565 25.8545 35.8375 25.8577 35.8196 25.8601C35.7756 25.6567 35.7174 25.4562 35.6922 25.2514C35.6672 25.0449 35.6753 24.8342 35.6682 24.6039C35.5707 24.729 35.4349 24.8261 35.4125 24.944C35.3383 25.333 35.3109 25.7335 35.4281 26.1208C35.5755 26.6084 35.7469 27.0889 35.9002 27.5736C36.1628 28.4055 36.5555 29.1777 37.0734 29.871C37.6802 30.6832 38.3445 31.4526 38.9923 32.2348C39.1407 32.4133 39.3122 32.5771 39.488 32.7293C39.7307 32.9402 39.9959 33.1269 40.2375 33.3386C40.48 33.5513 40.6917 33.8009 40.9436 33.9981C41.41 34.3635 41.9512 34.5787 42.5348 34.6785C43.1122 34.7766 43.6266 34.5936 44.0926 34.2718C44.2952 34.1311 44.4634 33.9397 44.6433 33.7656C44.8391 33.5758 44.9324 33.3303 44.8872 33.0701C44.8434 32.8222 44.7337 32.5873 44.6492 32.3379C44.6341 32.3908 44.6271 32.4392 44.6072 32.4794C44.5281 32.6347 44.5453 32.778 44.6161 32.9374C44.6964 33.1175 44.7613 33.3096 44.6861 33.5444C44.5664 33.3305 44.4566 33.1337 44.3613 32.9619L44.3561 32.9593ZM38.4113 32.4595C38.4192 32.4484 38.4282 32.4365 38.4361 32.4254C38.3581 32.3441 38.272 32.2691 38.2033 32.1805C37.5917 31.3983 36.969 30.623 36.3811 29.8224C36.1719 29.5378 36.0446 29.1929 35.8924 28.8691C35.8535 28.7871 35.8739 28.6773 35.8433 28.5889C35.6334 28.0014 35.4087 27.4204 35.2037 26.8308C35.0766 26.4627 34.9569 26.0872 34.969 25.6903C34.9752 25.4793 35.0039 25.2675 35.0162 25.126C34.8881 25.0885 34.7597 25.0314 34.6268 25.0174C33.9957 24.9478 33.3645 24.8866 32.7318 24.8298C32.672 24.825 32.5887 24.8451 32.5502 24.8849C32.1794 25.2763 31.8426 25.6926 31.7279 26.2399C31.6751 26.4887 31.6048 26.7361 31.5739 26.9876C31.4723 27.8282 31.638 28.6033 32.1862 29.2698C32.4407 29.5787 32.7095 29.8765 32.9786 30.1724C33.1205 30.3278 33.2613 30.4923 33.4309 30.6132C33.7552 30.8464 34.0964 31.0567 34.4366 31.2678C34.688 31.4241 34.9463 31.57 35.2071 31.7107C35.2776 31.7484 35.3659 31.7624 35.4476 31.7699C36.2385 31.8393 37.0152 31.969 37.7665 32.234C37.9817 32.3095 38.1951 32.3847 38.4103 32.4603L38.4113 32.4595ZM19.7703 36.6066C19.7592 36.6136 19.7471 36.6213 19.736 36.6283C19.7389 36.6491 19.7411 36.6689 19.745 36.6889C20.0496 37.9087 20.456 39.0941 20.9993 40.2262C21.5662 41.4058 22.2082 42.542 23.1245 43.5002C23.4469 43.8372 23.8262 44.0839 24.2328 44.2979C24.3495 44.3591 24.5031 44.3125 24.5782 44.2032C24.6159 44.1476 24.6556 44.0904 24.6828 44.0297C24.7806 43.8071 24.858 43.5624 24.767 43.3345C24.5713 42.8398 24.4765 42.3263 24.3965 41.8063C24.3845 41.725 24.3633 41.6424 24.3319 41.5679C23.9981 40.7994 23.8071 40.0109 23.9546 39.1677C23.9625 39.1269 23.9587 39.0837 23.959 39.0735C23.6032 39.1697 23.2581 39.2626 22.9137 39.3565C22.4656 39.4782 22.0816 39.334 21.7345 39.0607C21.5394 38.9069 21.3535 38.7395 21.1686 38.5712C20.7358 38.1812 20.3796 37.7303 20.0997 37.2185C19.988 37.0149 19.8802 36.81 19.7713 36.6058L19.7703 36.6066ZM44.6186 31.7647C44.5983 31.7705 44.5773 31.7753 44.5571 31.7811C44.5716 31.8721 44.5762 31.9674 44.6042 32.0546C44.6237 32.1137 44.6906 32.1574 44.7082 32.2163C44.7633 32.3979 44.8059 32.5825 44.8524 32.7658C44.8687 32.7613 44.8843 32.7559 44.8996 32.7522C44.8056 32.4227 44.7125 32.0942 44.6186 31.7647ZM44.612 33.1022C44.5724 32.9895 44.5336 32.8778 44.4917 32.7536C44.4391 32.812 44.4792 32.9282 44.612 33.1022Z" fill="#F7F8C5"/>
<path d="M41.9885 28.3345C41.9925 28.3545 42.001 28.3974 42.0105 28.4395C41.9618 28.4426 41.9022 28.4657 41.8696 28.4449C41.7645 28.3796 41.6689 28.2988 41.5707 28.2232C41.2625 27.9873 40.9649 27.7333 40.6419 27.5188C40.2643 27.2658 39.8945 27.0101 39.6101 26.6519C39.5925 26.6292 39.5926 26.5912 39.5846 26.5595C39.6176 26.5553 39.6547 26.5414 39.6843 26.5498C39.7165 26.5595 39.7443 26.589 39.7723 26.6102C40.1071 26.8633 40.4293 27.1362 40.7804 27.3636C41.1934 27.6303 41.5677 27.9386 41.929 28.2685C41.9449 28.2826 41.9566 28.2999 41.9885 28.3345Z" fill="#F7F8C5"/>
<path d="M41.5271 26.2916C41.6388 26.6122 41.7555 26.9306 41.8616 27.2524C41.9603 27.5518 42.0501 27.8548 42.1343 28.1589C42.1445 28.1955 42.094 28.2495 42.0716 28.295C42.0317 28.2649 41.9659 28.2417 41.9541 28.203C41.8455 27.8206 41.7475 27.4349 41.6436 27.0521C41.5912 26.8569 41.5292 26.6643 41.4817 26.4669C41.4671 26.4057 41.4879 26.3368 41.4915 26.2713L41.526 26.2924L41.5271 26.2916Z" fill="#F7F8C5"/>
<path d="M27.0176 11.5502L26.4355 11.7134L25.8814 9.72896C25.4989 10.0256 25.0599 10.2339 24.5686 10.3747C24.0848 10.5097 23.6727 10.505 23.34 10.3547C23.0072 10.2044 22.7763 9.89109 22.6512 9.43558L22.2445 7.99743L22.8266 7.83426L23.1952 9.14583C23.2921 9.50307 23.4533 9.72639 23.6729 9.80827C23.8925 9.89016 24.1697 9.89138 24.5003 9.79112C24.9633 9.66025 25.3682 9.45438 25.7224 9.1677L25.1566 7.16827L25.7387 7.0051L27.0118 11.5427L27.0176 11.5502Z" fill="#F7F8C5"/>
<path d="M30.4151 11.1142L30.3756 10.7845C30.1163 11.0697 29.7906 11.2382 29.366 11.2792C28.879 11.3326 28.4613 11.2122 28.1054 10.9237C27.7496 10.6352 27.542 10.2436 27.4944 9.7641C27.4468 9.28456 27.5556 8.85186 27.8441 8.49599C28.1268 8.13262 28.5109 7.93088 28.9979 7.87746C29.4167 7.82893 29.777 7.92184 30.0938 8.14454L30.0543 7.81485L30.6171 7.75071L30.9779 11.0501L30.4151 11.1142ZM29.3252 10.7464C29.5583 10.7218 29.7565 10.6521 29.9273 10.5317C30.0981 10.4112 30.2248 10.2649 30.3075 10.0927L30.1636 8.82305C30.0473 8.67306 29.8859 8.55796 29.6929 8.47945C29.4999 8.40093 29.2927 8.38148 29.0671 8.40031C28.7449 8.43399 28.4966 8.57848 28.3107 8.81879C28.1247 9.0591 28.0535 9.3545 28.0855 9.69001C28.1175 10.0255 28.2528 10.2929 28.4914 10.4922C28.7301 10.6915 28.9972 10.7726 29.3193 10.7389L29.3252 10.7464Z" fill="#F7F8C5"/>
<path d="M33.2998 11.1474C32.8079 11.1326 32.4119 10.9472 32.1027 10.6105C31.7877 10.2663 31.6368 9.85486 31.6575 9.37042C31.6781 8.88599 31.8501 8.48833 32.1886 8.16583C32.527 7.84333 32.9384 7.69241 33.4228 7.71307C33.9281 7.72959 34.3432 7.92413 34.6698 8.28336L34.2964 8.66908C34.0453 8.40735 33.7525 8.26209 33.4088 8.25246C33.0858 8.23868 32.816 8.33986 32.5992 8.55598C32.3825 8.7721 32.2731 9.04915 32.2576 9.38542C32.2421 9.7217 32.3416 10.0049 32.5428 10.2332C32.7439 10.4616 33.0059 10.5827 33.3289 10.5964C33.6726 10.6061 33.9783 10.4891 34.2459 10.2456L34.5999 10.6556C34.2465 10.9898 33.8201 11.1523 33.3148 11.1358L33.2998 11.1474Z" fill="#F7F8C5"/>
<path d="M35.0739 11.1753L35.7028 7.91311L36.2646 8.01796L36.0298 9.23295L36.683 9.3629C37.0925 9.44172 37.3836 9.60028 37.5564 9.83859C37.7367 10.0711 37.7846 10.3342 37.7343 10.6255C37.6839 10.9167 37.5263 11.1471 37.2838 11.2991C37.0339 11.4569 36.7042 11.4964 36.2948 11.4176L35.0798 11.1828L35.0739 11.1753ZM35.7338 10.7717L36.4079 10.8975C36.6192 10.9377 36.7899 10.9255 36.9274 10.8549C37.0648 10.7844 37.1465 10.6729 37.1817 10.5015C37.2169 10.3301 37.1805 10.1902 37.0783 10.0893C36.9835 9.98264 36.8305 9.90916 36.6191 9.86891L35.9317 9.74142L35.7338 10.7717ZM38.0199 11.7372L38.6488 8.47497L39.2105 8.57982L38.5816 11.842L38.0199 11.7372Z" fill="#F7F8C5"/>
</svg>
