<svg width="87" height="98" viewBox="0 0 87 98" fill="none" xmlns="http://www.w3.org/2000/svg">
<path d="M9.49724 57.0412C9.49724 78.1843 26.3499 95.268 47.0699 95.268C67.7899 95.268 84.6426 78.1843 84.6426 57.0412C84.6426 35.8981 67.7899 18.8145 47.0699 18.8145C26.3499 18.8145 9.49724 35.8981 9.49724 57.0412Z" stroke="#F7F8C5" stroke-width="4"/>
<path d="M38.2953 52.0134C35.1573 52.0654 35.9094 51.7323 34.2185 54.1058C32.8388 56.042 31.7133 58.1604 30.5152 60.2164C29.5453 61.8872 28.4509 63.4695 26.8378 64.5521C25.3907 65.5254 23.7361 65.6399 22.0505 65.3016C21.9104 65.2756 21.7756 65.2079 21.6407 65.2027C20.6708 65.1715 19.955 64.7655 19.4052 63.9327C18.6117 62.7252 17.9633 61.476 17.5276 60.0758C16.9208 58.124 16.8274 56.1461 17.2994 54.2203C17.5276 53.299 18.2642 52.3881 18.9955 51.7271C20.4478 50.4103 22.0245 49.2339 23.6013 48.068C26.2621 46.1058 28.9281 44.1539 31.2673 41.8013C32.0971 40.9685 32.8492 40.0576 33.6168 39.1572C33.7673 38.9802 33.8606 38.7147 33.8866 38.4805C34.1459 36.2528 35.2922 34.556 36.8378 32.9841C39.0681 30.7252 41.7652 29.7258 44.8357 29.8455C46.5058 29.908 48.1656 30.3452 49.815 30.6835C53.2227 31.3758 56.5318 32.4168 59.7216 33.7805C61.8067 34.6705 63.8139 35.7427 65.816 36.8149C66.7133 37.2938 67.5743 37.8976 68.3419 38.569C69.4934 39.584 70.0951 40.9581 70.3077 42.4571C70.5774 44.3569 70.5463 46.2931 70.0432 48.1253C69.2963 50.8423 68.3834 53.5176 67.3824 56.1461C67.066 56.9737 67.2527 57.5671 67.5173 58.2385C68.6739 61.1637 69.8876 64.068 71.0027 67.014C71.6874 68.8149 72.0764 70.6679 71.983 72.6458C71.8534 75.4044 70.1262 77.044 67.7351 77.7466C67.2268 77.8976 66.6459 77.8403 66.1013 77.7987C65.0328 77.7154 63.9644 77.6009 62.9063 77.4499C62.6832 77.4187 62.3928 77.2261 62.2994 77.0283C61.7704 75.9145 61.1583 74.811 60.8264 73.6347C60.1988 71.407 59.7372 69.1272 59.2133 66.8683C59.1563 66.6289 59.1303 66.379 59.1148 66.1292C59.0007 64.3699 58.9073 62.6106 58.7621 60.8566C58.7361 60.5599 58.5598 60.2164 58.3471 60.003C53.5857 55.2977 47.6884 53.0856 41.2102 52.1539C40.7175 52.081 40.2195 52.0498 39.7268 52.029C39.2496 52.0082 38.7724 52.029 38.3005 52.029L38.2953 52.0134ZM68.9799 75.649C69.3845 75.2691 69.7994 74.8995 70.1832 74.4987C70.8834 73.7805 71.2776 72.9268 71.065 71.9119C70.759 70.4441 70.4374 68.9711 70.0328 67.5241C69.7216 66.3998 69.3015 65.3068 68.8866 64.2138C68.4716 63.1155 67.9478 62.0537 67.5691 60.9451C67.0816 59.5189 66.6666 58.0667 66.2673 56.6093C66.1376 56.1461 66.1532 55.6412 66.1013 55.152C66.1635 55.1363 66.231 55.1207 66.2932 55.1051C66.4384 55.3914 66.5785 55.6777 66.7237 55.9743C67.2579 54.2567 67.7144 52.5807 68.3005 50.9464C69.1459 48.5833 69.5868 46.1682 69.5297 43.6542C69.4727 41.0674 68.3471 39.1155 66.0598 37.8924C64.5816 37.1012 63.0982 36.3049 61.5733 35.6074C59.7579 34.7746 57.9322 33.9262 56.0442 33.3016C52.5276 32.1409 48.9695 31.0687 45.2818 30.5846C43.2019 30.314 41.2154 30.8032 39.3741 31.8338C38.0722 32.5625 37.1957 33.7596 36.2517 34.8423C34.4 36.9815 34.2704 39.5996 34.4675 42.3114C33.6272 42.6028 34.4571 43.2639 34.2548 43.7219C33.6739 43.5814 33.4146 43.1181 33.7102 42.6185C34.1978 41.8013 33.6272 41.0882 33.6583 40.3127C33.0411 40.9529 32.5691 41.666 31.9623 42.2333C30.4426 43.649 28.9073 45.0544 27.289 46.3556C25.7071 47.6308 24.0162 48.7655 22.3876 49.9835C21.1532 50.9047 19.8409 51.7375 18.9021 53.0179C18.1137 54.0954 17.6521 55.3393 17.8025 56.6093C17.9893 58.2229 18.4198 59.826 18.9073 61.3875C19.3015 62.6419 20.1469 63.6464 21.4021 64.4376C24.3274 61.0752 27.232 57.7492 30.121 54.4025C31.2206 53.1272 32.066 51.6803 32.6521 50.098C33.2693 48.4376 34.0525 46.8865 35.2662 45.5853C35.4633 45.3771 35.6656 45.1585 35.9094 45.0179C36.3243 44.7785 36.76 44.5495 37.2112 44.3985C37.6625 44.2424 38.1449 44.1643 38.622 44.0967C38.9073 44.055 39.2029 44.0863 39.4882 44.1071C40.3855 44.1747 41.3088 44.1383 42.1698 44.3413C46.2984 45.3198 50.4426 46.2723 54.3326 48.0576C57.4758 49.4994 60.2195 51.42 62.009 54.4545C62.5639 55.4018 62.8648 56.5 63.2953 57.5202C63.5027 58.0095 63.7206 58.4831 63.4457 59.0661C62.2061 56.2814 60.8005 53.6269 58.4509 51.5918C58.3938 51.8364 58.4094 52.0498 58.4405 52.2632C58.6687 53.8247 58.9384 55.381 59.1148 56.9477C59.4208 59.6855 59.5764 62.4493 59.9602 65.1767C60.4633 68.7213 61.4851 72.1409 62.8025 75.4721C63.0619 76.1279 63.4353 76.5443 64.1096 76.5963C64.9758 76.6588 65.8523 76.716 66.7081 76.6224C67.0919 76.5807 67.6002 76.2528 67.7714 75.9093C68.15 75.1598 68.4146 74.3322 68.6117 73.5098C69.1822 71.1259 68.8243 68.7629 68.1708 66.4675C67.7559 65.0101 67.1334 63.61 66.5318 62.2151C65.8419 60.6224 65.0484 59.0713 64.3585 57.4786C64.1874 57.083 63.7984 56.6406 64.1874 56.042C64.3482 56.297 64.4934 56.474 64.5868 56.6718C65.8108 59.3263 67.0816 61.96 68.2278 64.651C69.037 66.5508 69.5038 68.5495 69.5816 70.6419C69.649 72.3387 69.3326 73.9678 68.9695 75.649H68.9799ZM58.3938 58.7069C58.4301 58.5196 58.4509 58.4779 58.4457 58.4415C58.093 55.9535 57.7403 53.4708 57.3772 50.988C57.3565 50.8371 57.2787 50.6393 57.1594 50.5612C56.5837 50.1656 56.0287 49.718 55.3959 49.4473C53.5702 48.6614 51.7341 47.8754 49.8513 47.2404C47.9996 46.6106 46.0857 46.1526 44.1978 45.6425C44.011 45.5905 43.731 45.6373 43.5805 45.7466C41.7081 47.1155 39.8461 48.5 37.9944 49.9002C37.6106 50.1917 37.2787 50.5508 36.7859 51.014C40.8834 50.8995 44.6801 51.4565 48.342 52.8149C52.009 54.1786 55.5411 55.7766 58.3938 58.7121V58.7069ZM22.2424 64.6354C23.8191 64.9789 25.1521 64.7134 26.371 64.0004C27.9218 63.0895 28.7154 61.5228 29.4934 59.9978C31.2932 56.474 33.2434 53.0283 36.1428 50.301C37.8959 48.6458 39.9187 47.2769 41.8222 45.7779C42.0245 45.6217 42.232 45.4708 42.5639 45.2209C41.2413 44.9503 40.1106 44.7108 38.9021 44.8514C37.066 45.0596 35.65 45.9392 34.6853 47.4434C34.0007 48.5105 33.4042 49.6712 32.9841 50.8683C32.1075 53.3615 30.6552 55.4591 28.9384 57.4057C27.7092 58.7954 26.4488 60.1591 25.1884 61.5228C24.2496 62.5378 23.2953 63.5319 22.2476 64.6406L22.2424 64.6354Z" fill="#F7F8C5"/>
<path d="M67.1077 44.377C67.7353 46.3809 66.9625 48.0777 66.2519 49.7641C66.0756 50.1857 65.9874 50.8415 65.3027 50.8571C65.8992 48.7127 66.4853 46.5995 67.1077 44.377Z" fill="#F7F8C5"/>
<path d="M64.738 41.4993C64.432 41.7231 64.1674 41.9157 63.877 42.1291C63.8199 40.9736 63.7732 39.9795 63.7266 38.9853C63.7681 38.9645 63.8096 38.9437 63.8562 38.9229C64.0689 39.2768 64.2815 39.6307 64.5098 40.0211C64.9558 39.7713 65.1322 40.146 65.1944 40.4843C65.3033 41.0465 65.3241 41.6242 65.35 42.202C65.35 42.3113 65.1892 42.4258 65.101 42.5403C64.9817 42.4362 64.7847 42.3425 64.7535 42.2176C64.6965 41.9677 64.738 41.6919 64.738 41.5097V41.4993Z" fill="#F7F8C5"/>
<path d="M63.0195 55.6619C63.4397 55.0581 63.865 54.4544 64.2851 53.8506C64.3681 53.8714 64.4459 53.8922 64.5289 53.9078C64.5496 54.1317 64.643 54.3867 64.5704 54.5793C64.311 55.2872 63.7353 55.766 63.0195 55.6619Z" fill="#F7F8C5"/>
<path d="M37.6526 36.8353C37.388 37.7253 37.1287 38.6153 36.859 39.5314C36.3766 39.0265 36.7449 37.4442 37.4606 36.7832C37.5281 36.7988 37.5903 36.8196 37.6577 36.8353H37.6526Z" fill="#F7F8C5"/>
<path d="M37.8125 37.6896C38.02 36.9089 38.4038 36.3519 39.0677 35.9199C39.0781 36.6278 38.409 37.5855 37.8125 37.6896Z" fill="#F7F8C5"/>
<path d="M6.89649 27.0248L0 20.9843L0.775249 20.096L6.81573 25.3935L9.02842 22.874L2.98794 17.5765L3.76319 16.6881L9.80367 21.9856L12.0164 19.4661L5.97588 14.1686L6.75113 13.2803L13.6476 19.3207L6.91264 27.0086L6.89649 27.0248Z" fill="#F7F8C5"/>
<path d="M18.8972 15.2997L18.4935 14.7828C18.3643 15.5096 17.9766 16.1395 17.3306 16.6402C16.5876 17.2216 15.7639 17.4478 14.8756 17.3347C13.9873 17.2217 13.2605 16.7856 12.6791 16.0265C12.0977 15.2835 11.8554 14.4598 11.9685 13.5715C12.0815 12.6832 12.5014 11.9564 13.2444 11.375C13.8904 10.8743 14.5849 10.6482 15.3279 10.7128L14.9241 10.1959L15.7962 9.51758L19.7532 14.6213L18.8811 15.2997H18.8972ZM16.7169 15.8003C17.0722 15.5258 17.3306 15.2028 17.4921 14.8313C17.6536 14.4598 17.7182 14.0883 17.6698 13.7169L16.1516 11.7626C15.7962 11.6334 15.4248 11.6011 15.0371 11.6657C14.6495 11.7303 14.2619 11.908 13.9066 12.1825C13.4059 12.5702 13.1313 13.0547 13.0829 13.6523C13.0344 14.2499 13.1959 14.799 13.5997 15.3158C14.0035 15.8327 14.5042 16.1395 15.0856 16.2364C15.6832 16.3333 16.2162 16.188 16.7169 15.8003Z" fill="#F7F8C5"/>
<path d="M21.1095 13.7485L17.9277 8.12796L22.7569 5.39844L25.9386 11.019L24.9696 11.5681L22.2885 6.81974L19.3975 8.451L22.0785 13.1994L21.1095 13.7485Z" fill="#F7F8C5"/>
<path d="M27.4397 10.3252L25.0332 4.33322L26.0669 3.91333L27.262 6.86895L28.7156 2.84736L29.9754 2.34668L28.4734 6.449L32.6726 8.22563L31.3321 8.75864L27.3266 7.03047L28.4895 9.90535L27.4559 10.3252H27.4397Z" fill="#F7F8C5"/>
<path d="M37.6641 6.94935L37.5026 6.31948C37.0988 6.93322 36.4851 7.35313 35.6937 7.56309C34.7731 7.80536 33.9332 7.69232 33.1741 7.22394C32.415 6.75556 31.9143 6.07722 31.6721 5.15661C31.4298 4.236 31.5429 3.39613 31.9789 2.62089C32.4312 1.84564 33.1095 1.34495 34.0301 1.10269C34.8215 0.892722 35.5483 0.973485 36.2105 1.31266L36.049 0.682792L37.1311 0.408203L38.7462 6.65864L37.6641 6.93323V6.94935ZM35.4676 6.54557C35.9036 6.43251 36.259 6.23873 36.5658 5.96416C36.8565 5.68959 37.0665 5.38269 37.1796 5.02737L36.5658 2.62089C36.2913 2.36247 35.9682 2.18483 35.5806 2.08792C35.193 1.99102 34.7731 2.00713 34.3531 2.10404C33.7394 2.26555 33.3033 2.60473 33.0126 3.12156C32.7219 3.6384 32.6573 4.21984 32.8188 4.84973C32.9803 5.47962 33.3195 5.96413 33.8202 6.28715C34.3208 6.61017 34.8861 6.69096 35.4837 6.52945L35.4676 6.54557Z" fill="#F7F8C5"/>
</svg>
