<svg width="48" height="64" viewBox="0 0 48 64" fill="none" xmlns="http://www.w3.org/2000/svg">
<path d="M19.3095 63.3218C18.8839 63.3688 18.4559 63.4183 18.0303 63.4628C17.9016 63.4752 17.773 63.5 17.6468 63.4851C16.4419 63.349 15.227 63.2624 14.0344 63.0497C12.8023 62.8294 11.6889 62.2455 10.5829 61.6641C8.7644 60.7066 7.20812 59.4398 6.03288 57.7623C5.41432 56.879 4.95414 55.8794 4.44446 54.9219C3.90013 53.905 3.39784 52.8658 2.84115 51.8563C2.5294 51.2898 2.37105 50.6959 2.25971 50.0675C1.96034 48.3529 1.60652 46.6506 1.32941 44.9335C1.14879 43.8226 1.07458 42.6944 0.938497 41.576C0.797468 40.3983 0.616843 39.2255 0.498082 38.0453C0.406536 37.1324 0.376837 36.2095 0.334776 35.2915C0.218488 32.753 0.0651055 30.2145 0.0131472 27.6735C-0.0264401 25.7955 0.0280009 23.9152 0.114598 22.0397C0.220989 19.7387 0.404059 17.4402 0.55746 15.1416C0.683645 13.2612 1.09684 11.4278 1.49024 9.59198C1.80941 8.10499 2.15579 6.62046 2.43785 5.12604C2.66548 3.91616 2.96241 2.73596 3.42508 1.59535C3.76158 0.766495 4.32074 0.387943 5.21393 0.417633C5.72856 0.432478 6.11947 0.729381 6.30751 1.16979C6.49802 1.61267 6.60442 2.10999 6.65143 2.59246C6.72565 3.38915 6.6465 4.20317 6.76526 4.98749C7.08938 7.15242 7.70051 9.2357 8.86834 11.1136C9.25431 11.7322 9.67245 12.3458 10.1648 12.8802C10.9714 13.761 11.8275 14.5998 12.7083 15.4088C13.1462 15.8121 13.6559 16.1412 14.267 16.2798C14.4328 16.3169 14.559 16.5049 14.7198 16.589C16.8427 17.7 19.0967 18.4472 21.4398 18.9197C23.2756 19.2884 25.1387 19.4146 27.0067 19.5012C29.6764 19.6249 32.2916 19.2884 34.8772 18.6624C36.7007 18.2195 38.5316 17.8039 40.3377 17.3016C41.0008 17.116 41.5971 16.7029 42.2355 16.4158C42.9629 16.0892 43.6457 15.6266 44.4573 15.5499C44.8383 15.5128 45.2465 15.5672 45.6201 15.6686C46.3129 15.8542 47.0503 16.0224 47.456 16.7004C47.6688 17.0567 47.884 17.455 47.9335 17.8534C48.0176 18.5536 48.0078 19.2711 47.9805 19.9787C47.9311 21.2826 47.8865 22.589 47.7554 23.8855C47.5451 25.9861 47.1492 28.0421 46.1323 29.9423C45.7389 30.6772 45.5286 31.5085 45.1674 32.2631C44.5513 33.5547 43.9328 34.8511 43.2276 36.0932C42.1315 38.028 41.0181 39.9554 39.8107 41.8185C38.6231 43.6494 37.2796 45.3739 35.8124 46.9995C34.9093 47.9991 34.1102 49.0803 33.6054 50.3496C33.1452 51.505 32.69 52.6605 32.2322 53.8159C31.9205 54.6052 31.5692 55.3796 31.3217 56.1887C31.1485 56.7553 30.9011 57.2476 30.5052 57.6707C30.0351 58.173 29.5032 58.5713 28.8475 58.8311C28.1993 59.0885 27.5733 59.415 26.9696 59.7664C26.2743 60.1722 25.6088 60.6324 24.9383 61.0802C24.5201 61.3573 24.1366 61.6913 23.6987 61.9338C22.7362 62.4682 21.7713 63.0101 20.6529 63.1783C20.2076 63.2451 19.7697 63.3564 19.3293 63.448C19.3218 63.4059 19.3169 63.3663 19.3095 63.3243V63.3218ZM11.8473 52.4576C11.8473 52.9475 11.8374 53.3904 11.8547 53.8332C11.8596 53.9297 11.9512 54.0708 12.0378 54.1079C12.5598 54.3404 13.0918 54.5483 13.6213 54.7685C13.74 54.818 13.8662 54.8625 13.9627 54.9417C14.5343 55.3969 15.1058 55.8522 15.66 56.3248C15.8382 56.4757 16.0113 56.6613 16.1153 56.8666C16.187 57.0076 16.1301 57.213 16.1326 57.3887C15.9668 57.3664 15.7961 57.3664 15.6402 57.312C15.5363 57.2749 15.4596 57.1635 15.373 57.0819C15.1429 56.8641 14.94 56.6068 14.6827 56.4336C14.3438 56.206 13.9776 55.9907 13.5916 55.8646C13.2526 55.7532 12.8716 55.7656 12.5079 55.731C11.9784 55.679 11.439 55.5033 10.9417 55.867C10.8848 55.9091 10.7883 55.9116 10.7116 55.9041C10.1351 55.8547 9.8308 56.2109 9.57595 56.6489C9.34091 57.0522 9.52397 57.3862 9.73923 57.7202C9.77139 57.7697 9.80356 57.8217 9.8283 57.8736C10.2093 58.6629 10.5631 59.4645 10.9813 60.234C11.1817 60.6027 11.3772 61.0356 11.7829 61.2187C12.5648 61.5701 13.3516 61.9387 14.1755 62.1614C15.2097 62.4435 16.2736 62.6389 17.34 62.7651C17.8497 62.8245 18.3965 62.676 18.9111 62.5548C19.7375 62.3593 20.5466 62.0971 21.3705 61.8843C22.083 61.6987 22.761 61.4538 23.3375 60.9787C25.0521 59.566 26.9622 58.4427 28.8401 57.2699C29.5972 56.7973 30.243 56.2382 30.5918 55.4019C30.8492 54.7833 31.057 54.145 31.2995 53.5215C31.7696 52.319 32.2471 51.1166 32.7246 49.9166C33.2565 48.583 34.0953 47.4424 35.0429 46.3908C36.5002 44.7702 37.8338 43.0531 39.0289 41.2371C40.1942 39.4631 41.2557 37.6198 42.3245 35.7839C42.9307 34.7447 43.4923 33.6759 44.0169 32.5922C44.4301 31.7411 44.722 30.833 45.1278 29.9794C45.7439 28.6829 46.2882 27.3766 46.5628 25.9489C46.8424 24.4991 47.0651 23.0492 47.1715 21.5795C47.2284 20.7803 47.2705 19.9812 47.367 19.187C47.4362 18.6204 47.4189 18.0736 47.1418 17.5738C46.9067 17.1482 46.7038 16.6311 46.1447 16.5593C45.5014 16.4752 44.8457 16.4777 44.195 16.4505C44.1307 16.448 44.0614 16.4851 43.9996 16.5123C43.3414 16.7993 42.6957 17.121 42.0202 17.3659C41.1047 17.6975 40.172 17.987 39.2367 18.2665C37.913 18.6649 36.5893 19.0632 35.2557 19.4195C33.5361 19.8797 31.7968 20.2509 30.0104 20.335C27.5362 20.4513 25.0694 20.3449 22.615 19.9935C20.5119 19.6942 18.4831 19.13 16.5186 18.3309C15.9346 18.0934 15.368 17.8187 14.8757 17.596C14.512 18.0637 14.1804 18.5115 13.8241 18.9395C13.5545 19.2661 13.2353 19.5531 12.9706 19.8847C12.3644 20.6368 11.7978 21.4261 11.1743 22.1634C10.3034 23.1927 9.73925 24.3284 9.57843 25.6916C9.4473 26.7976 9.54132 27.8813 9.66998 28.965C9.78874 29.9621 9.97925 30.9518 10.1277 31.9464C10.2192 32.5699 10.3034 33.1959 10.3652 33.8219C10.4073 34.2425 10.4815 34.6829 10.4048 35.0887C10.1401 36.4915 9.66749 37.8276 8.9475 39.0672C8.78915 39.3393 8.58873 39.5843 8.44275 39.8614C8.17059 40.3835 7.94543 40.9303 7.66584 41.4498C7.37884 41.9818 7.29721 42.4791 7.65349 43.0234C7.92318 43.4342 8.06916 43.9315 8.36854 44.3125C8.88812 44.9731 9.55863 45.4927 10.004 46.2424C10.4617 47.0119 10.7735 47.816 10.8081 48.6819C10.8304 49.2337 10.5978 49.7929 10.484 50.352C10.4691 50.4287 10.4568 50.5425 10.5013 50.5896C10.5409 50.6341 10.6596 50.6341 10.7339 50.6118C11.053 50.5178 11.3574 50.5277 11.6567 50.6762C12.8864 51.2848 14.1483 51.8415 15.3384 52.5194C16.0781 52.9401 16.8155 53.1454 17.6493 53.086C17.9041 53.0687 18.1639 53.0959 18.4212 53.0786C18.5623 53.0687 18.7107 53.0266 18.8394 52.9673C19.2674 52.7644 19.6905 52.5516 20.1111 52.3339C20.4748 52.1458 20.8286 51.9429 21.2517 51.7104C20.8484 51.505 20.5317 51.3244 20.1977 51.1834C19.9008 51.0597 19.7499 50.8592 19.6187 50.5648C19.208 49.6395 18.7478 48.7314 18.3074 47.8184C18.2678 47.7393 18.2307 47.6576 18.1936 47.576C18.3891 47.6947 18.5276 47.8457 18.6662 48.0015C19.5668 49.0184 20.3659 50.1368 21.5239 50.8964C21.9098 51.1487 22.3181 51.3714 22.709 51.6188C22.8426 51.7029 23.0431 51.8069 23.0628 51.9256C23.1024 52.1632 22.8971 52.2596 22.6793 52.3289C22.2909 52.4526 21.8975 52.5467 21.5486 52.799C20.9796 53.2122 20.2769 53.3112 19.6187 53.519C18.5845 53.8456 17.5379 53.7961 16.5086 53.6502C15.5264 53.5116 14.5664 53.2048 13.6015 52.9549C13.0126 52.804 12.4312 52.6233 11.8448 52.4551L11.8473 52.4576ZM4.34301 25.3428C3.83579 25.3428 3.50918 25.605 3.49186 25.9984C3.4696 26.5205 3.44734 27.05 3.50177 27.5696C3.54878 28.0273 3.65023 28.4999 3.97187 28.8611C4.43455 29.3832 4.91703 29.8854 5.40197 30.3852C5.58011 30.5683 5.783 30.7316 5.98836 30.885C6.27042 31.0953 6.66629 31.0607 6.88402 30.8231C7.07453 30.6153 7.07204 30.3258 6.8073 30.0537C6.16648 29.3955 5.84978 28.5741 5.56029 27.7304C5.33019 27.0574 5.09022 26.3894 4.84775 25.7213C4.74631 25.4417 4.52115 25.3403 4.34548 25.3403L4.34301 25.3428Z" fill="#F7F8C5"/>
<path d="M12.6348 25.6943C13.1593 25.9888 13.6393 26.2807 14.1391 26.5331C14.7354 26.8325 15.3292 27.164 15.9601 27.3644C16.7568 27.6143 17.5832 27.8048 18.4096 27.9088C19.5947 28.0547 20.807 28.0127 21.9823 28.2057C23.5311 28.4605 25.127 28.3714 26.6388 28.8489C27.2177 29.032 27.7695 29.3067 28.3212 29.564C28.4721 29.6357 28.5934 29.7867 28.7022 29.9252C28.7492 29.9871 28.7319 30.1009 28.7344 30.1207C28.9521 30.5834 29.1427 31.0015 29.3406 31.4122C29.7983 32.3549 30.2585 33.2951 30.7162 34.2378C30.7435 34.2947 30.7632 34.3565 30.741 34.4481C30.6692 34.3714 30.5876 34.3046 30.5282 34.2205C29.9517 33.4139 29.2763 32.7112 28.5266 32.0555C27.7101 31.343 26.9184 30.6205 25.8742 30.2642C25.6738 30.1949 25.4487 30.143 25.2408 30.1553C23.7217 30.2469 22.205 30.3582 20.6883 30.4621C20.1167 30.5017 19.5452 30.5636 18.9737 30.5586C17.7687 30.5463 16.5638 30.5116 15.3613 30.4522C14.911 30.43 14.4731 30.2568 14.191 29.8856C13.3053 28.7252 12.6941 27.4486 12.6372 25.9541C12.6348 25.8675 12.6372 25.7834 12.6372 25.6993L12.6348 25.6943Z" fill="#F7F8C5"/>
<path d="M21.4166 32.3148C21.8991 32.2727 22.2653 32.4904 22.6166 32.8244C23.4133 33.5791 23.9675 34.5193 24.6603 35.3531C24.831 35.5584 25.0215 35.7465 25.1749 35.9642C25.3333 36.1869 25.4867 36.4195 25.5931 36.6694C25.6846 36.8846 25.7415 37.1419 25.5337 37.3349C25.3308 37.5254 25.071 37.5526 24.8112 37.4784C24.4327 37.3696 24.0566 37.2483 23.6805 37.1296C22.6092 36.7906 21.5403 36.4343 20.4641 36.1151C19.9742 35.9692 19.462 35.8999 18.9647 35.7786C18.8608 35.7539 18.7173 35.6648 18.6901 35.5733C18.549 35.123 18.4006 34.6677 18.3288 34.2026C18.215 33.4801 18.5045 32.9605 19.1799 32.6859C19.5684 32.5275 19.989 32.4434 20.4047 32.3717C20.7337 32.3148 21.0752 32.3346 21.4191 32.3172L21.4166 32.3148ZM24.9201 36.892L24.9844 36.8302C24.8805 36.6793 24.784 36.5234 24.6727 36.3799C24.158 35.7292 23.6533 35.071 23.1189 34.4376C22.7379 33.9873 22.3222 33.5667 21.9139 33.1387C21.857 33.0793 21.7581 33.0323 21.6789 33.0298C20.9094 33.015 20.135 32.9729 19.4076 33.3143C19.1057 33.4554 18.9499 33.6879 18.9474 34.0145C18.9474 34.3312 18.9696 34.6455 18.9771 34.9622C18.982 35.1403 19.0686 35.2071 19.2443 35.2417C20.5061 35.4867 21.7457 35.8083 22.9457 36.2784C23.584 36.5308 24.2595 36.6916 24.9176 36.892H24.9201Z" fill="#F7F8C5"/>
<path d="M10.8574 27.2853C10.8648 26.5999 11.0529 25.9566 11.2978 25.3282C11.6071 24.5389 11.9337 23.7546 12.2108 22.9529C12.3122 22.6634 12.2751 22.3269 12.3345 22.0201C12.3568 21.9088 12.4731 21.8173 12.5473 21.7158C12.6215 21.8148 12.7552 21.9113 12.7601 22.0177C12.8096 22.8391 12.629 23.6259 12.3568 24.3979C12.1267 25.0486 11.8719 25.6919 11.6714 26.35C11.4117 27.1937 11.5551 28.0127 11.9386 28.792C12.2207 29.3611 12.5646 29.8856 13.0298 30.331C13.8512 31.1203 14.3807 32.1025 14.7469 33.1689C14.8384 33.4386 14.826 33.7528 14.8161 34.0448C14.8063 34.265 14.643 34.406 14.4129 34.3961C14.1976 34.3862 14.064 34.2452 14.0467 34.0349C13.9403 32.731 13.25 31.7264 12.389 30.8135C11.6517 30.0341 11.1271 29.1483 10.9317 28.0844C10.8847 27.8246 10.8822 27.5549 10.8574 27.2902V27.2853Z" fill="#F7F8C5"/>
<path d="M25.4351 55.5358C25.4351 55.4344 25.4351 55.3577 25.4351 55.281C25.4401 54.5808 25.4673 53.8781 25.4426 53.1779C25.4129 52.3763 24.9403 51.8245 24.3366 51.347C23.0178 50.3054 21.8475 49.1227 20.9444 47.6951C20.791 47.4551 20.6673 47.1953 20.5461 46.9355C20.5016 46.8415 20.4793 46.7227 20.4917 46.6188C20.4991 46.547 20.5684 46.4629 20.6327 46.4258C20.6599 46.411 20.7688 46.4827 20.8059 46.5396C21.808 48.1404 23.0821 49.5136 24.5815 50.6369C26.0537 51.7404 26.2466 53.2002 26.0363 54.8381C25.9968 55.1548 25.7988 55.3577 25.4376 55.5334L25.4351 55.5358Z" fill="#F7F8C5"/>
</svg>
