<svg width="55" height="49" viewBox="0 0 55 49" fill="none" xmlns="http://www.w3.org/2000/svg">
<path d="M21.2953 23.0134C18.1573 23.0654 18.9094 22.7323 17.2185 25.1058C15.8388 27.042 14.7133 29.1604 13.5152 31.2164C12.5453 32.8872 11.4509 34.4695 9.8378 35.5521C8.39071 36.5254 6.73614 36.6399 5.05046 36.3016C4.91042 36.2756 4.77556 36.2079 4.64071 36.2027C3.67079 36.1715 2.95502 35.7655 2.40523 34.9327C1.61166 33.7252 0.963322 32.476 0.527637 31.0758C-0.0792093 29.124 -0.17257 27.1461 0.299421 25.2203C0.527637 24.299 1.26415 23.3881 1.99548 22.7271C3.44776 21.4103 5.02452 20.2339 6.60129 19.068C9.26208 17.1058 11.9281 15.1539 14.2673 12.8013C15.0971 11.9685 15.8492 11.0576 16.6168 10.1572C16.7673 9.9802 16.8606 9.71475 16.8866 9.48053C17.1459 7.25281 18.2922 5.556 19.8378 3.9841C22.0681 1.72516 24.7652 0.725807 27.8357 0.845521C29.5058 0.90798 31.1656 1.3452 32.815 1.68352C36.2227 2.37577 39.5318 3.41676 42.7216 4.78046C44.8067 5.6705 46.8139 6.74272 48.816 7.81494C49.7133 8.2938 50.5743 8.89757 51.3419 9.56901C52.4934 10.584 53.0951 11.9581 53.3077 13.4571C53.5774 15.3569 53.5463 17.2931 53.0432 19.1253C52.2963 21.8423 51.3834 24.5176 50.3824 27.1461C50.066 27.9737 50.2527 28.5671 50.5173 29.2385C51.6739 32.1637 52.8876 35.068 54.0027 38.014C54.6874 39.8149 55.0764 41.6679 54.983 43.6458C54.8534 46.4044 53.1262 48.044 50.7351 48.7466C50.2268 48.8976 49.6459 48.8403 49.1013 48.7987C48.0328 48.7154 46.9644 48.6009 45.9063 48.4499C45.6832 48.4187 45.3928 48.2261 45.2994 48.0283C44.7704 46.9145 44.1583 45.811 43.8264 44.6347C43.1988 42.407 42.7372 40.1272 42.2133 37.8683C42.1563 37.6289 42.1303 37.379 42.1148 37.1292C42.0007 35.3699 41.9073 33.6106 41.7621 31.8566C41.7361 31.5599 41.5598 31.2164 41.3471 31.003C36.5857 26.2977 30.6884 24.0856 24.2102 23.1539C23.7175 23.081 23.2195 23.0498 22.7268 23.029C22.2496 23.0082 21.7724 23.029 21.3005 23.029L21.2953 23.0134ZM51.9799 46.649C52.3845 46.2691 52.7994 45.8995 53.1832 45.4987C53.8834 44.7805 54.2776 43.9268 54.065 42.9119C53.759 41.4441 53.4374 39.9711 53.0328 38.5241C52.7216 37.3998 52.3015 36.3068 51.8866 35.2138C51.4716 34.1155 50.9478 33.0537 50.5691 31.9451C50.0816 30.5189 49.6666 29.0667 49.2673 27.6093C49.1376 27.1461 49.1532 26.6412 49.1013 26.152C49.1635 26.1363 49.231 26.1207 49.2932 26.1051C49.4384 26.3914 49.5785 26.6777 49.7237 26.9743C50.2579 25.2567 50.7144 23.5807 51.3005 21.9464C52.1459 19.5833 52.5868 17.1682 52.5297 14.6542C52.4727 12.0674 51.3471 10.1155 49.0598 8.89237C47.5816 8.10121 46.0982 7.30486 44.5733 6.60739C42.7579 5.7746 40.9322 4.9262 39.0442 4.3016C35.5276 3.1409 31.9695 2.06868 28.2818 1.58462C26.2019 1.31397 24.2154 1.80323 22.3741 2.83381C21.0722 3.5625 20.1957 4.75964 19.2517 5.84227C17.4 7.9815 17.2704 10.5996 17.4675 13.3114C16.6272 13.6028 17.4571 14.2639 17.2548 14.7219C16.6739 14.5814 16.4146 14.1181 16.7102 13.6185C17.1978 12.8013 16.6272 12.0882 16.6583 11.3127C16.0411 11.9529 15.5691 12.666 14.9623 13.2333C13.4426 14.649 11.9073 16.0544 10.289 17.3556C8.7071 18.6308 7.01623 19.7655 5.3876 20.9835C4.15316 21.9047 2.84092 22.7375 1.90212 24.0179C1.11374 25.0954 0.652118 26.3393 0.802533 27.6093C0.989255 29.2229 1.41975 30.826 1.90731 32.3875C2.3015 33.6419 3.14693 34.6464 4.40212 35.4376C7.32743 32.0752 10.232 28.7492 13.121 25.4025C14.2206 24.1272 15.066 22.6803 15.6521 21.098C16.2693 19.4376 17.0525 17.8865 18.2662 16.5853C18.4633 16.3771 18.6656 16.1585 18.9094 16.0179C19.3243 15.7785 19.76 15.5495 20.2112 15.3985C20.6625 15.2424 21.1449 15.1643 21.622 15.0967C21.9073 15.055 22.2029 15.0863 22.4882 15.1071C23.3855 15.1747 24.3088 15.1383 25.1698 15.3413C29.2984 16.3198 33.4426 17.2723 37.3326 19.0576C40.4758 20.4994 43.2195 22.42 45.009 25.4545C45.5639 26.4018 45.8648 27.5 46.2953 28.5202C46.5027 29.0095 46.7206 29.4831 46.4457 30.0661C45.2061 27.2814 43.8005 24.6269 41.4509 22.5918C41.3938 22.8364 41.4094 23.0498 41.4405 23.2632C41.6687 24.8247 41.9384 26.381 42.1148 27.9477C42.4208 30.6855 42.5764 33.4493 42.9602 36.1767C43.4633 39.7213 44.4851 43.1409 45.8025 46.4721C46.0619 47.1279 46.4353 47.5443 47.1096 47.5963C47.9758 47.6588 48.8523 47.716 49.7081 47.6224C50.0919 47.5807 50.6002 47.2528 50.7714 46.9093C51.15 46.1598 51.4146 45.3322 51.6117 44.5098C52.1822 42.1259 51.8243 39.7629 51.1708 37.4675C50.7559 36.0101 50.1334 34.61 49.5318 33.2151C48.8419 31.6224 48.0484 30.0713 47.3585 28.4786C47.1874 28.083 46.7984 27.6406 47.1874 27.042C47.3482 27.297 47.4934 27.474 47.5868 27.6718C48.8108 30.3263 50.0816 32.96 51.2278 35.651C52.037 37.5508 52.5038 39.5495 52.5816 41.6419C52.649 43.3387 52.3326 44.9678 51.9695 46.649H51.9799ZM41.3938 29.7069C41.4301 29.5196 41.4509 29.4779 41.4457 29.4415C41.093 26.9535 40.7403 24.4708 40.3772 21.988C40.3565 21.8371 40.2787 21.6393 40.1594 21.5612C39.5837 21.1656 39.0287 20.718 38.3959 20.4473C36.5702 19.6614 34.7341 18.8754 32.8513 18.2404C30.9996 17.6106 29.0857 17.1526 27.1978 16.6425C27.011 16.5905 26.731 16.6373 26.5805 16.7466C24.7081 18.1155 22.8461 19.5 20.9944 20.9002C20.6106 21.1917 20.2787 21.5508 19.7859 22.014C23.8834 21.8995 27.6801 22.4565 31.342 23.8149C35.009 25.1786 38.5411 26.7766 41.3938 29.7121V29.7069ZM5.24237 35.6354C6.81913 35.9789 8.15212 35.7134 9.371 35.0004C10.9218 34.0895 11.7154 32.5228 12.4934 30.9978C14.2932 27.474 16.2434 24.0283 19.1428 21.301C20.8959 19.6458 22.9187 18.2769 24.8222 16.7779C25.0245 16.6217 25.232 16.4708 25.5639 16.2209C24.2413 15.9503 23.1106 15.7108 21.9021 15.8514C20.066 16.0596 18.65 16.9392 17.6853 18.4434C17.0007 19.5105 16.4042 20.6712 15.9841 21.8683C15.1075 24.3615 13.6552 26.4591 11.9384 28.4057C10.7092 29.7954 9.4488 31.1591 8.18843 32.5228C7.24963 33.5378 6.29527 34.5319 5.24755 35.6406L5.24237 35.6354Z" fill="#F7F8C5"/>
<path d="M50.1077 15.377C50.7353 17.3809 49.9625 19.0777 49.2519 20.7641C49.0756 21.1857 48.9874 21.8415 48.3027 21.8571C48.8992 19.7127 49.4853 17.5995 50.1077 15.377Z" fill="#F7F8C5"/>
<path d="M47.738 12.4993C47.432 12.7231 47.1674 12.9157 46.877 13.1291C46.8199 11.9736 46.7732 10.9795 46.7266 9.98531C46.7681 9.96449 46.8096 9.94367 46.8562 9.92285C47.0689 10.2768 47.2815 10.6307 47.5098 11.0211C47.9558 10.7713 48.1322 11.146 48.1944 11.4843C48.3033 12.0465 48.3241 12.6242 48.35 13.202C48.35 13.3113 48.1892 13.4258 48.101 13.5403C47.9817 13.4362 47.7847 13.3425 47.7535 13.2176C47.6965 12.9677 47.738 12.6919 47.738 12.5097V12.4993Z" fill="#F7F8C5"/>
<path d="M46.0195 26.6619C46.4397 26.0581 46.865 25.4544 47.2851 24.8506C47.3681 24.8714 47.4459 24.8922 47.5289 24.9078C47.5496 25.1317 47.643 25.3867 47.5704 25.5793C47.311 26.2872 46.7353 26.766 46.0195 26.6619Z" fill="#F7F8C5"/>
<path d="M20.6526 7.83525C20.388 8.7253 20.1287 9.61534 19.859 10.5314C19.3766 10.0265 19.7449 8.44423 20.4606 7.7832C20.5281 7.79882 20.5903 7.81964 20.6577 7.83525H20.6526Z" fill="#F7F8C5"/>
<path d="M20.8125 8.6896C21.02 7.90886 21.4038 7.35193 22.0677 6.91992C22.0781 7.62779 21.409 8.5855 20.8125 8.6896Z" fill="#F7F8C5"/>
</svg>
