<svg width="63" height="64" viewBox="0 0 63 64" fill="none" xmlns="http://www.w3.org/2000/svg">
<path d="M14.9526 26.0229C9.12061 34.7885 11.3893 46.5324 19.9959 52.2586C28.6025 57.9848 40.311 55.5402 46.143 46.7746C51.975 38.009 49.7063 26.265 41.0997 20.5389C32.4931 14.8127 20.7845 17.2572 14.9526 26.0229Z" stroke="#F7F8C5"/>
<path d="M30.6334 48.349C30.4693 48.3672 30.3042 48.3862 30.1401 48.4034C30.0905 48.4082 30.0409 48.4177 29.9922 48.412C29.5276 48.3595 29.0591 48.3261 28.5992 48.2441C28.124 48.1592 27.6947 47.934 27.2682 47.7098C26.5669 47.3405 25.9667 46.852 25.5135 46.2051C25.275 45.8645 25.0975 45.479 24.901 45.1097C24.691 44.7176 24.4973 44.3168 24.2827 43.9275C24.1624 43.709 24.1014 43.4801 24.0584 43.2377C23.943 42.5765 23.8065 41.92 23.6997 41.2579C23.63 40.8294 23.6014 40.3944 23.5489 39.9631C23.4945 39.5089 23.4249 39.0567 23.3791 38.6015C23.3438 38.2495 23.3323 37.8936 23.3161 37.5396C23.2713 36.5606 23.2121 35.5817 23.1921 34.6018C23.1768 33.8776 23.1978 33.1524 23.2312 32.4292C23.2722 31.5418 23.3428 30.6554 23.402 29.769C23.4506 29.0439 23.61 28.3369 23.7617 27.6289C23.8848 27.0555 24.0184 26.483 24.1271 25.9067C24.2149 25.4401 24.3294 24.985 24.5078 24.5451C24.6376 24.2255 24.8532 24.0795 25.1977 24.091C25.3961 24.0967 25.5469 24.2112 25.6194 24.381C25.6929 24.5518 25.7339 24.7436 25.752 24.9296C25.7807 25.2369 25.7501 25.5508 25.7959 25.8533C25.9209 26.6881 26.1566 27.4915 26.607 28.2157C26.7558 28.4542 26.9171 28.6909 27.1069 28.897C27.418 29.2366 27.7481 29.5601 28.0878 29.8721C28.2567 30.0276 28.4532 30.1545 28.6889 30.208C28.7528 30.2223 28.8015 30.2948 28.8635 30.3272C29.6821 30.7556 30.5514 31.0438 31.4549 31.226C32.1629 31.3682 32.8814 31.4169 33.6018 31.4502C34.6313 31.498 35.6398 31.3682 36.6369 31.1268C37.3401 30.956 38.0461 30.7957 38.7427 30.602C38.9984 30.5305 39.2283 30.3711 39.4745 30.2604C39.755 30.1345 40.0184 29.9561 40.3313 29.9265C40.4783 29.9122 40.6357 29.9332 40.7798 29.9723C41.0469 30.0438 41.3313 30.1087 41.4877 30.3702C41.5698 30.5076 41.6528 30.6612 41.6719 30.8148C41.7043 31.0848 41.7005 31.3615 41.69 31.6344C41.6709 32.1372 41.6537 32.641 41.6032 33.141C41.5221 33.951 41.3694 34.7439 40.9773 35.4767C40.8256 35.7601 40.7445 36.0807 40.6051 36.3717C40.3676 36.8698 40.129 37.3697 39.8571 37.8487C39.4344 38.5949 39.0051 39.3381 38.5394 40.0566C38.0814 40.7627 37.5633 41.4277 36.9975 42.0546C36.6493 42.44 36.3411 42.857 36.1465 43.3465C35.969 43.7921 35.7934 44.2376 35.6169 44.6832C35.4967 44.9876 35.3612 45.2862 35.2658 45.5982C35.199 45.8167 35.1036 46.0066 34.9509 46.1698C34.7696 46.3635 34.5645 46.5171 34.3116 46.6173C34.0617 46.7165 33.8203 46.8424 33.5874 46.9779C33.3193 47.1344 33.0627 47.3119 32.8041 47.4846C32.6428 47.5914 32.495 47.7203 32.3261 47.8138C31.9549 48.0199 31.5828 48.2288 31.1515 48.2937C30.9798 48.3195 30.8109 48.3624 30.6411 48.3977C30.6382 48.3815 30.6363 48.3662 30.6334 48.35L30.6334 48.349ZM27.7557 44.1594C27.7557 44.3483 27.7519 44.5191 27.7586 44.6899C27.7605 44.7271 27.7958 44.7815 27.8292 44.7958C28.0305 44.8855 28.2357 44.9656 28.4399 45.0506C28.4857 45.0697 28.5343 45.0868 28.5715 45.1174C28.7919 45.2929 29.0123 45.4685 29.2261 45.6507C29.2948 45.7089 29.3616 45.7805 29.4016 45.8597C29.4293 45.9141 29.4074 45.9933 29.4083 46.061C29.3444 46.0524 29.2785 46.0524 29.2184 46.0314C29.1784 46.0171 29.1488 45.9742 29.1154 45.9427C29.0266 45.8587 28.9484 45.7595 28.8492 45.6927C28.7185 45.6049 28.5773 45.5219 28.4284 45.4733C28.2977 45.4303 28.1508 45.4351 28.0105 45.4217C27.8063 45.4017 27.5983 45.3339 27.4065 45.4742C27.3846 45.4904 27.3474 45.4914 27.3178 45.4885C27.0955 45.4694 26.9781 45.6068 26.8798 45.7757C26.7892 45.9312 26.8598 46.06 26.9428 46.1889C26.9552 46.2079 26.9676 46.228 26.9772 46.248C27.1241 46.5524 27.2605 46.8615 27.4218 47.1583C27.4991 47.3004 27.5744 47.4674 27.7309 47.538C28.0324 47.6735 28.3359 47.8157 28.6536 47.9015C29.0524 48.0103 29.4627 48.0857 29.8739 48.1344C30.0705 48.1573 30.2813 48.1 30.4798 48.0532C30.7985 47.9779 31.1105 47.8767 31.4282 47.7947C31.703 47.7231 31.9645 47.6287 32.1868 47.4455C32.848 46.9006 33.5846 46.4675 34.3088 46.0152C34.6007 45.833 34.8498 45.6173 34.9843 45.2948C35.0835 45.0563 35.1637 44.8101 35.2572 44.5697C35.4385 44.106 35.6226 43.6423 35.8068 43.1795C36.0119 42.6652 36.3354 42.2254 36.7008 41.8198C37.2628 41.1949 37.7771 40.5327 38.2379 39.8324C38.6873 39.1483 39.0967 38.4374 39.5088 37.7294C39.7426 37.3287 39.9592 36.9165 40.1615 36.4986C40.3208 36.1704 40.4334 35.8202 40.5899 35.491C40.8275 34.9911 41.0374 34.4873 41.1433 33.9367C41.2511 33.3776 41.337 32.8185 41.378 32.2517C41.3999 31.9435 41.4162 31.6353 41.4534 31.3291C41.4801 31.1106 41.4734 30.8997 41.3666 30.707C41.2759 30.5429 41.1977 30.3434 40.982 30.3158C40.734 30.2833 40.4811 30.2843 40.2302 30.2738C40.2054 30.2728 40.1787 30.2871 40.1548 30.2976C39.901 30.4083 39.652 30.5324 39.3915 30.6268C39.0385 30.7547 38.6787 30.8663 38.3181 30.9741C37.8076 31.1277 37.2971 31.2814 36.7829 31.4188C36.1197 31.5962 35.449 31.7393 34.7601 31.7718C33.8059 31.8166 32.8547 31.7756 31.9082 31.6401C31.0971 31.5247 30.3147 31.3071 29.5572 30.9989C29.332 30.9073 29.1135 30.8014 28.9236 30.7156C28.7833 30.8959 28.6555 31.0686 28.5181 31.2337C28.4141 31.3596 28.291 31.4703 28.1889 31.5981C27.9552 31.8882 27.7367 32.1926 27.4962 32.4769C27.1604 32.8738 26.9428 33.3118 26.8808 33.8375C26.8302 34.264 26.8665 34.6819 26.9161 35.0998C26.9619 35.4844 27.0354 35.866 27.0926 36.2496C27.1279 36.49 27.1603 36.7314 27.1842 36.9728C27.2004 37.135 27.2291 37.3049 27.1995 37.4613C27.0974 38.0023 26.9151 38.5176 26.6375 38.9956C26.5764 39.1005 26.4991 39.195 26.4428 39.3019C26.3379 39.5032 26.2511 39.7141 26.1432 39.9144C26.0326 40.1196 26.0011 40.3113 26.1385 40.5213C26.2425 40.6796 26.2988 40.8714 26.4142 41.0184C26.6146 41.2731 26.8732 41.4735 27.0449 41.7626C27.2214 42.0593 27.3416 42.3694 27.355 42.7034C27.3636 42.9162 27.2739 43.1318 27.23 43.3474C27.2243 43.377 27.2195 43.4209 27.2367 43.439C27.252 43.4562 27.2977 43.4562 27.3264 43.4476C27.4495 43.4114 27.5668 43.4152 27.6823 43.4724C28.1565 43.7071 28.6431 43.9218 29.102 44.1833C29.3873 44.3455 29.6717 44.4247 29.9932 44.4018C30.0915 44.3951 30.1917 44.4056 30.2909 44.3989C30.3453 44.3951 30.4025 44.3789 30.4521 44.356C30.6172 44.2777 30.7804 44.1957 30.9426 44.1117C31.0828 44.0392 31.2193 43.9609 31.3824 43.8713C31.2269 43.7921 31.1048 43.7224 30.976 43.668C30.8615 43.6203 30.8033 43.543 30.7527 43.4295C30.5943 43.0726 30.4168 42.7225 30.247 42.3704C30.2317 42.3399 30.2174 42.3084 30.2031 42.2769C30.2785 42.3227 30.3319 42.3809 30.3854 42.441C30.7327 42.8331 31.0408 43.2644 31.4874 43.5573C31.6362 43.6547 31.7937 43.7405 31.9444 43.8359C31.9959 43.8684 32.0732 43.9085 32.0809 43.9543C32.0961 44.0459 32.0169 44.0831 31.933 44.1098C31.7832 44.1575 31.6315 44.1938 31.4969 44.2911C31.2775 44.4504 31.0065 44.4886 30.7527 44.5687C30.3539 44.6947 29.9503 44.6756 29.5533 44.6193C29.1745 44.5659 28.8043 44.4476 28.4322 44.3512C28.2051 44.293 27.9809 44.2233 27.7548 44.1584L27.7557 44.1594ZM24.8618 33.703C24.6662 33.703 24.5403 33.8041 24.5336 33.9558C24.525 34.1571 24.5164 34.3613 24.5374 34.5617C24.5555 34.7382 24.5947 34.9205 24.7187 35.0598C24.8971 35.2611 25.0832 35.4548 25.2702 35.6475C25.3389 35.7181 25.4171 35.7811 25.4963 35.8402C25.6051 35.9213 25.7578 35.908 25.8417 35.8164C25.9152 35.7362 25.9142 35.6246 25.8121 35.5197C25.565 35.2659 25.4429 34.9491 25.3313 34.6237C25.2425 34.3642 25.15 34.1066 25.0565 33.849C25.0174 33.7411 24.9305 33.702 24.8628 33.702L24.8618 33.703Z" fill="#F7F8C5"/>
<path d="M28.0598 33.8389C28.2621 33.9524 28.4472 34.065 28.6399 34.1623C28.8699 34.2778 29.0989 34.4056 29.3422 34.4829C29.6494 34.5793 29.9681 34.6528 30.2868 34.6928C30.7438 34.7491 31.2113 34.7329 31.6645 34.8073C32.2618 34.9056 32.8773 34.8712 33.4602 35.0554C33.6835 35.126 33.8963 35.2319 34.1091 35.3311C34.1673 35.3588 34.214 35.417 34.256 35.4704C34.2741 35.4943 34.2674 35.5382 34.2684 35.5458C34.3524 35.7243 34.4258 35.8855 34.5022 36.0439C34.6787 36.4074 34.8562 36.77 35.0327 37.1335C35.0432 37.1555 35.0508 37.1793 35.0422 37.2146C35.0145 37.185 34.9831 37.1593 34.9602 37.1268C34.7378 36.8158 34.4774 36.5448 34.1883 36.292C33.8734 36.0172 33.5681 35.7386 33.1654 35.6012C33.0881 35.5744 33.0013 35.5544 32.9212 35.5592C32.3353 35.5945 31.7504 35.6374 31.1655 35.6775C30.9451 35.6928 30.7247 35.7166 30.5043 35.7147C30.0397 35.7099 29.575 35.6966 29.1113 35.6737C28.9376 35.6651 28.7687 35.5983 28.66 35.4552C28.3184 35.0077 28.0827 34.5154 28.0608 33.9391C28.0598 33.9057 28.0608 33.8732 28.0608 33.8408L28.0598 33.8389Z" fill="#F7F8C5"/>
<path d="M31.4457 36.3916C31.6317 36.3754 31.7729 36.4594 31.9084 36.5882C32.2157 36.8792 32.4294 37.2418 32.6966 37.5633C32.7624 37.6425 32.8359 37.715 32.895 37.799C32.9561 37.8849 33.0152 37.9746 33.0563 38.0709C33.0916 38.1539 33.1135 38.2532 33.0334 38.3276C32.9551 38.4011 32.8549 38.4116 32.7548 38.3829C32.6088 38.341 32.4638 38.2942 32.3187 38.2484C31.9056 38.1177 31.4934 37.9803 31.0783 37.8572C30.8894 37.8009 30.6919 37.7742 30.5001 37.7274C30.46 37.7179 30.4047 37.6836 30.3942 37.6483C30.3398 37.4746 30.2826 37.299 30.2549 37.1197C30.211 36.841 30.3227 36.6407 30.5831 36.5348C30.7329 36.4737 30.8951 36.4413 31.0554 36.4136C31.1823 36.3916 31.314 36.3993 31.4466 36.3926L31.4457 36.3916ZM32.7967 38.1568L32.8215 38.133C32.7815 38.0748 32.7443 38.0146 32.7013 37.9593C32.5029 37.7084 32.3082 37.4546 32.1021 37.2103C31.9552 37.0366 31.7949 36.8744 31.6375 36.7094C31.6155 36.6865 31.5773 36.6684 31.5468 36.6674C31.2501 36.6617 30.9514 36.6455 30.6709 36.7771C30.5545 36.8315 30.4944 36.9212 30.4934 37.0471C30.4934 37.1693 30.502 37.2905 30.5049 37.4126C30.5068 37.4813 30.5402 37.507 30.6079 37.5204C31.0946 37.6149 31.5726 37.7389 32.0353 37.9202C32.2815 38.0175 32.542 38.0795 32.7958 38.1568L32.7967 38.1568Z" fill="#F7F8C5"/>
<path d="M27.3735 34.4529C27.3764 34.1887 27.4489 33.9406 27.5434 33.6982C27.6626 33.3939 27.7886 33.0914 27.8954 32.7822C27.9346 32.6706 27.9203 32.5408 27.9432 32.4225C27.9517 32.3796 27.9966 32.3443 28.0252 32.3052C28.0538 32.3433 28.1054 32.3806 28.1073 32.4216C28.1264 32.7384 28.0567 33.0418 27.9518 33.3395C27.863 33.5904 27.7647 33.8385 27.6875 34.0923C27.5873 34.4176 27.6426 34.7335 27.7905 35.034C27.8993 35.2535 28.0319 35.4557 28.2113 35.6275C28.528 35.9319 28.7322 36.3107 28.8734 36.7219C28.9087 36.8259 28.904 36.9471 28.9002 37.0597C28.8963 37.1446 28.8334 37.199 28.7446 37.1951C28.6616 37.1913 28.6101 37.1369 28.6034 37.0558C28.5624 36.553 28.2962 36.1656 27.9642 35.8136C27.6798 35.513 27.4775 35.1714 27.4022 34.7611C27.384 34.6609 27.3831 34.5569 27.3735 34.4549L27.3735 34.4529Z" fill="#F7F8C5"/>
<path d="M32.9958 45.3459C32.9958 45.3068 32.9958 45.2772 32.9958 45.2477C32.9977 44.9776 33.0082 44.7067 32.9987 44.4366C32.9872 44.1275 32.805 43.9147 32.5722 43.7306C32.0636 43.3289 31.6123 42.8728 31.264 42.3223C31.2049 42.2297 31.1572 42.1295 31.1104 42.0293C31.0933 41.9931 31.0847 41.9473 31.0894 41.9072C31.0923 41.8795 31.119 41.8471 31.1438 41.8328C31.1543 41.8271 31.1963 41.8547 31.2106 41.8767C31.597 42.494 32.0884 43.0236 32.6666 43.4567C33.2343 43.8823 33.3088 44.4452 33.2277 45.0769C33.2124 45.199 33.1361 45.2772 32.9968 45.345L32.9958 45.3459Z" fill="#F7F8C5"/>
<path d="M22.26 13.2785L20.9211 8.69429L23.8394 10.4763L25.337 7.40297L26.6811 11.9793L26.0995 12.151L25.1726 9.00358L24.0797 11.2974L21.9199 9.95161L22.8416 13.1069L22.26 13.2785Z" fill="#F7F8C5"/>
<path d="M30.0524 11.6583L30.0205 11.3293C29.7628 11.6138 29.426 11.7773 29.0022 11.8146C28.5179 11.8571 28.0966 11.7365 27.7489 11.4367C27.3959 11.1448 27.2007 10.7528 27.1503 10.2632C27.0998 9.77366 27.2284 9.35764 27.5123 8.99938C27.7963 8.64112 28.1883 8.44596 28.67 8.39023C29.0859 8.34773 29.4545 8.44478 29.76 8.67087L29.7281 8.34187L30.2993 8.28869L30.6156 11.5999L30.0445 11.653L30.0524 11.6583ZM28.9701 11.2802C29.1991 11.2616 29.3965 11.1877 29.5728 11.077C29.7411 10.961 29.87 10.8188 29.9593 10.6502L29.8344 9.38153C29.7211 9.22633 29.5604 9.10803 29.3734 9.02924C29.1865 8.95044 28.9759 8.92431 28.7469 8.94295C28.4257 8.9801 28.1705 9.10669 27.9812 9.35693C27.7972 9.59928 27.7185 9.88892 27.7451 10.2258C27.7718 10.5627 27.9142 10.8285 28.1407 11.0362C28.3726 11.2361 28.6438 11.3253 28.9728 11.2934L28.9701 11.2802Z" fill="#F7F8C5"/>
<path d="M32.9436 11.7337C32.4592 11.7078 32.0589 11.5213 31.7506 11.1794C31.4423 10.8375 31.2972 10.4217 31.3231 9.93732C31.3489 9.45295 31.5302 9.06057 31.8695 8.73911C32.2114 8.43081 32.6272 8.28564 33.1168 8.30361C33.6222 8.3321 34.0304 8.52388 34.3571 8.88947L33.9679 9.26889C33.7229 9.00325 33.4332 8.85611 33.0804 8.83801C32.7619 8.81988 32.4882 8.92279 32.2647 9.13885C32.0411 9.35491 31.9256 9.63141 31.9101 9.9631C31.8946 10.2948 31.987 10.5843 32.1846 10.8183C32.3823 11.0524 32.6404 11.1785 32.9721 11.194C33.3169 11.2069 33.6248 11.1039 33.8957 10.851L34.2462 11.2666C33.8885 11.5986 33.4543 11.7543 32.9568 11.7311L32.9436 11.7337Z" fill="#F7F8C5"/>
<path d="M34.7414 11.8248L35.3306 8.55755L35.8914 8.65705L35.5928 10.2709L37.3341 8.92157L38.016 9.04466L36.2379 10.4151L37.5769 12.3434L36.845 12.2098L35.5771 10.3631L35.2969 11.9322L34.7361 11.8327L34.7414 11.8248Z" fill="#F7F8C5"/>
<path d="M40.0958 13.1641L40.2035 12.8481C39.8509 13.0011 39.4771 13.0146 39.0821 12.8887C38.6213 12.7417 38.2894 12.4524 38.0837 12.042C37.878 11.6315 37.8512 11.192 38.0114 10.7285C38.1584 10.2677 38.4397 9.93051 38.8475 9.71165C39.2501 9.50069 39.6896 9.47396 40.1504 9.62094C40.5533 9.75218 40.8457 9.98092 41.0355 10.3124L41.1432 9.99644L41.6856 10.1749L40.6567 13.3321L40.1142 13.1536L40.0958 13.1641ZM39.2527 12.3752C39.466 12.4487 39.6819 12.4669 39.8872 12.4325C40.0925 12.3981 40.2609 12.3163 40.4134 12.1899L40.8072 10.9812C40.7622 10.7918 40.6673 10.626 40.5277 10.4761C40.388 10.3262 40.201 10.2132 39.9825 10.1476C39.6744 10.0452 39.3848 10.0692 39.1139 10.2194C38.8429 10.3697 38.6562 10.5989 38.5565 10.9202C38.4567 11.2414 38.4623 11.5415 38.5994 11.8151C38.7313 12.0967 38.9473 12.286 39.2554 12.3883L39.2527 12.3752Z" fill="#F7F8C5"/>
</svg>
