<svg width="59" height="62" viewBox="0 0 59 62" fill="none" xmlns="http://www.w3.org/2000/svg">
<path d="M12.0719 26.0136C6.97945 35.1973 10.18 46.69 19.197 51.69C28.2141 56.6901 39.6575 53.3176 44.7499 44.1339C49.8424 34.9501 46.6419 23.4575 37.6248 18.4574C28.6077 13.4574 17.1644 16.8299 12.0719 26.0136Z" stroke="#F7F8C5"/>
<path d="M24.0668 33.2271C22.5457 33.2523 22.9102 33.0908 22.0906 34.2414C21.4218 35.18 20.8762 36.2069 20.2954 37.2035C19.8252 38.0134 19.2947 38.7804 18.5128 39.3052C17.8113 39.777 17.0092 39.8325 16.1921 39.6685C16.1242 39.6559 16.0589 39.6231 15.9935 39.6206C15.5233 39.6055 15.1763 39.4087 14.9098 39.005C14.5251 38.4196 14.2109 37.8141 13.9997 37.1354C13.7055 36.1892 13.6602 35.2304 13.889 34.2969C13.9997 33.8503 14.3567 33.4087 14.7112 33.0883C15.4152 32.45 16.1795 31.8797 16.9439 31.3146C18.2337 30.3634 19.526 29.4172 20.66 28.2768C21.0622 27.8731 21.4268 27.4315 21.7989 26.995C21.8718 26.9092 21.9171 26.7806 21.9297 26.667C22.0554 25.5871 22.611 24.7646 23.3603 24.0026C24.4414 22.9076 25.7488 22.4232 27.2373 22.4812C28.0469 22.5115 28.8514 22.7234 29.651 22.8874C31.3028 23.223 32.9069 23.7276 34.4532 24.3887C35.4639 24.8201 36.437 25.3399 37.4075 25.8596C37.8424 26.0918 38.2598 26.3844 38.6319 26.7099C39.1901 27.2019 39.4817 27.868 39.5848 28.5947C39.7156 29.5156 39.7005 30.4542 39.4566 31.3423C39.0945 32.6594 38.652 33.9563 38.1668 35.2304C38.0134 35.6316 38.1039 35.9192 38.2321 36.2447C38.7928 37.6627 39.3812 39.0706 39.9217 40.4986C40.2536 41.3716 40.4422 42.2699 40.3969 43.2286C40.3341 44.5659 39.4968 45.3607 38.3377 45.7013C38.0913 45.7744 37.8097 45.7467 37.5457 45.7265C37.0278 45.6861 36.5099 45.6306 35.997 45.5575C35.8889 45.5423 35.7481 45.449 35.7028 45.3531C35.4463 44.8131 35.1497 44.2782 34.9887 43.708C34.6845 42.6281 34.4607 41.523 34.2068 40.428C34.1792 40.3119 34.1666 40.1908 34.159 40.0697C34.1037 39.2169 34.0585 38.3641 33.9881 37.5138C33.9755 37.37 33.89 37.2035 33.7869 37.1C31.4788 34.8192 28.6201 33.7468 25.4798 33.2952C25.2409 33.2599 24.9996 33.2447 24.7607 33.2346C24.5294 33.2246 24.2981 33.2346 24.0693 33.2346L24.0668 33.2271ZM38.9412 44.6845C39.1373 44.5003 39.3384 44.3211 39.5245 44.1269C39.8639 43.7787 40.055 43.3649 39.9519 42.8729C39.8036 42.1614 39.6477 41.4473 39.4516 40.7459C39.3007 40.2009 39.0971 39.6711 38.8959 39.1412C38.6948 38.6088 38.4408 38.0941 38.2573 37.5567C38.0209 36.8654 37.8198 36.1614 37.6262 35.455C37.5634 35.2304 37.5709 34.9857 37.5457 34.7485C37.5759 34.7409 37.6086 34.7334 37.6388 34.7258C37.7092 34.8646 37.7771 35.0033 37.8475 35.1472C38.1064 34.3145 38.3277 33.5021 38.6118 32.7098C39.0216 31.5644 39.2353 30.3936 39.2077 29.175C39.18 27.921 38.6344 26.9748 37.5256 26.3819C36.8091 25.9984 36.09 25.6124 35.3508 25.2743C34.4708 24.8706 33.5858 24.4593 32.6706 24.1565C30.9659 23.5939 29.2411 23.0741 27.4535 22.8395C26.4453 22.7083 25.4823 22.9455 24.5897 23.445C23.9587 23.7983 23.5338 24.3786 23.0762 24.9034C22.1786 25.9404 22.1157 27.2095 22.2113 28.524C21.8039 28.6653 22.2062 28.9858 22.1082 29.2078C21.8266 29.1397 21.7009 28.9151 21.8442 28.6729C22.0805 28.2768 21.8039 27.9311 21.819 27.5552C21.5198 27.8655 21.291 28.2112 20.9969 28.4862C20.2602 29.1725 19.516 29.8537 18.7315 30.4845C17.9647 31.1026 17.145 31.6527 16.3555 32.2431C15.7571 32.6897 15.121 33.0934 14.6659 33.714C14.2838 34.2363 14.06 34.8393 14.1329 35.455C14.2234 36.2371 14.4321 37.0142 14.6685 37.7712C14.8595 38.3792 15.2694 38.8662 15.8778 39.2497C17.2959 37.6198 18.7039 36.0075 20.1043 34.3852C20.6373 33.767 21.0472 33.0656 21.3313 32.2986C21.6305 31.4937 22.0101 30.7418 22.5985 30.1111C22.694 30.0101 22.792 29.9042 22.9102 29.836C23.1114 29.72 23.3226 29.609 23.5413 29.5358C23.76 29.4601 23.9939 29.4222 24.2252 29.3894C24.3635 29.3693 24.5068 29.3844 24.6451 29.3945C25.08 29.4273 25.5276 29.4096 25.9449 29.508C27.9463 29.9824 29.9552 30.4441 31.8409 31.3095C33.3645 32.0084 34.6946 32.9394 35.562 34.4104C35.831 34.8696 35.9769 35.402 36.1855 35.8965C36.2861 36.1337 36.3917 36.3633 36.2584 36.6459C35.6575 35.296 34.9762 34.0092 33.8372 33.0227C33.8096 33.1413 33.8171 33.2447 33.8322 33.3482C33.9428 34.1051 34.0736 34.8595 34.159 35.619C34.3074 36.9461 34.3828 38.2859 34.5689 39.608C34.8127 41.3262 35.3081 42.9839 35.9467 44.5987C36.0724 44.9166 36.2534 45.1184 36.5803 45.1437C37.0002 45.1739 37.4251 45.2017 37.8399 45.1563C38.026 45.1361 38.2724 44.9771 38.3553 44.8106C38.5389 44.4473 38.6671 44.0461 38.7627 43.6475C39.0392 42.4919 38.8657 41.3464 38.5489 40.2337C38.3478 39.5273 38.0461 38.8485 37.7544 38.1724C37.42 37.4003 37.0354 36.6484 36.701 35.8763C36.618 35.6846 36.4294 35.4701 36.618 35.18C36.6959 35.3036 36.7663 35.3894 36.8116 35.4853C37.405 36.772 38.0209 38.0487 38.5766 39.3532C38.9688 40.2741 39.1951 41.243 39.2328 42.2572C39.2655 43.0798 39.1121 43.8695 38.9361 44.6845H38.9412ZM33.8096 36.4718C33.8272 36.381 33.8372 36.3608 33.8347 36.3431C33.6637 35.1371 33.4928 33.9335 33.3168 32.73C33.3067 32.6569 33.269 32.561 33.2112 32.5231C32.9321 32.3314 32.663 32.1144 32.3563 31.9832C31.4713 31.6022 30.5812 31.2212 29.6686 30.9134C28.771 30.6081 27.8432 30.3861 26.928 30.1388C26.8375 30.1136 26.7017 30.1363 26.6288 30.1893C25.7212 30.8528 24.8185 31.524 23.921 32.2027C23.7349 32.344 23.574 32.5181 23.3351 32.7426C25.3214 32.6871 27.1618 32.9571 28.9369 33.6156C30.7145 34.2767 32.4267 35.0513 33.8096 36.4743V36.4718ZM16.2851 39.3456C17.0495 39.5121 17.6956 39.3834 18.2865 39.0378C19.0383 38.5962 19.4229 37.8368 19.8001 37.0975C20.6725 35.3894 21.6179 33.7191 23.0234 32.397C23.8732 31.5946 24.8537 30.9311 25.7765 30.2044C25.8745 30.1287 25.9751 30.0555 26.136 29.9344C25.4949 29.8032 24.9468 29.6872 24.361 29.7553C23.4709 29.8562 22.7845 30.2826 22.3169 31.0118C21.985 31.529 21.6958 32.0917 21.4922 32.672C21.0673 33.8806 20.3633 34.8974 19.531 35.841C18.9352 36.5147 18.3242 37.1757 17.7132 37.8368C17.2582 38.3288 16.7955 38.8107 16.2876 39.3481L16.2851 39.3456Z" fill="#F7F8C5"/>
<path d="M38.0334 29.5254C38.3376 30.4968 37.963 31.3193 37.6186 32.1368C37.5331 32.3412 37.4903 32.6591 37.1584 32.6666C37.4476 31.6271 37.7317 30.6028 38.0334 29.5254Z" fill="#F7F8C5"/>
<path d="M36.8846 28.1303C36.7362 28.2388 36.608 28.3321 36.4672 28.4356C36.4395 27.8754 36.4169 27.3935 36.3943 26.9116C36.4144 26.9015 36.4345 26.8914 36.4571 26.8813C36.5602 27.0529 36.6633 27.2245 36.7739 27.4137C36.9902 27.2926 37.0757 27.4743 37.1058 27.6383C37.1586 27.9108 37.1687 28.1908 37.1813 28.4709C37.1813 28.5239 37.1033 28.5794 37.0606 28.6349C37.0027 28.5844 36.9072 28.539 36.8921 28.4785C36.8645 28.3574 36.8846 28.2236 36.8846 28.1353V28.1303Z" fill="#F7F8C5"/>
<path d="M36.0522 34.9952C36.2559 34.7025 36.4621 34.4099 36.6657 34.1172C36.706 34.1273 36.7437 34.1374 36.7839 34.1449C36.794 34.2534 36.8392 34.3771 36.804 34.4704C36.6783 34.8136 36.3992 35.0457 36.0522 34.9952Z" fill="#F7F8C5"/>
<path d="M23.7549 25.8695C23.6267 26.3009 23.501 26.7324 23.3703 27.1764C23.1364 26.9317 23.3149 26.1647 23.6619 25.8442C23.6946 25.8518 23.7248 25.8619 23.7575 25.8695H23.7549Z" fill="#F7F8C5"/>
<path d="M23.833 26.2831C23.9336 25.9047 24.1196 25.6347 24.4415 25.4253C24.4465 25.7684 24.1221 26.2327 23.833 26.2831Z" fill="#F7F8C5"/>
<path d="M20.2824 13.3716L19.0439 9.10356L19.5925 8.9433L20.6755 12.6844L22.2372 12.2334L21.1542 8.49235L21.7028 8.33208L22.7858 12.0731L24.3475 11.6222L23.2645 7.88113L23.8131 7.72087L25.0516 11.9889L20.2932 13.3692L20.2824 13.3716Z" fill="#F7F8C5"/>
<path d="M28.246 11.7176L28.2161 11.401C27.9735 11.6641 27.6507 11.8201 27.2561 11.8558C26.8009 11.8992 26.4054 11.7764 26.0722 11.4982C25.739 11.22 25.5561 10.8521 25.5169 10.3902C25.4735 9.93497 25.5898 9.53531 25.868 9.20209C26.1461 8.86886 26.5075 8.68176 26.9627 8.63838C27.3573 8.60266 27.7 8.69172 27.9865 8.91215L27.9566 8.59563L28.4899 8.54641L28.7728 11.6641L28.2394 11.7133L28.246 11.7176ZM27.2249 11.3525C27.4417 11.3332 27.6316 11.2688 27.7946 11.1593C27.9575 11.0498 28.081 10.9149 28.1582 10.7506L28.0487 9.556C27.9373 9.41043 27.794 9.30021 27.6189 9.22535C27.4437 9.15049 27.239 9.1218 27.0222 9.14111C26.7165 9.16863 26.4778 9.29478 26.3019 9.52616C26.1261 9.75753 26.0486 10.024 26.0785 10.3405C26.1084 10.657 26.2327 10.9131 26.4448 11.1045C26.6635 11.3002 26.9192 11.38 27.2249 11.3525Z" fill="#F7F8C5"/>
<path d="M29.5541 11.6623L29.7229 8.53602L32.4078 8.68273L32.2391 11.809L31.6999 11.7802L31.8453 9.1408L30.2387 9.05183L30.0933 11.6912L29.5541 11.6623Z" fill="#F7F8C5"/>
<path d="M33.0338 11.918L33.6161 8.84248L34.1479 8.941L33.864 10.4601L35.508 9.19754L36.1532 9.32213L34.4683 10.605L35.7191 12.4274L35.0325 12.2949L33.8482 10.543L33.5722 12.0207L33.0404 11.9222L33.0338 11.918Z" fill="#F7F8C5"/>
<path d="M38.0908 13.2099L38.1894 12.9105C37.8642 13.0556 37.5039 13.0668 37.1259 12.9458C36.6866 12.8043 36.3732 12.5388 36.1855 12.1492C35.9979 11.7597 35.9706 11.3519 36.1121 10.9127C36.2537 10.4735 36.5192 10.16 36.8998 9.95735C37.2869 9.75888 37.6947 9.7316 38.1339 9.87313C38.512 9.9941 38.7877 10.2169 38.9695 10.5284L39.068 10.229L39.5817 10.3995L38.6086 13.3738L38.095 13.2033L38.0908 13.2099ZM37.2993 12.4713C37.5069 12.539 37.7026 12.5527 37.8996 12.5207C38.0901 12.4845 38.256 12.414 38.395 12.2984L38.7729 11.1554C38.7283 10.9782 38.6427 10.8213 38.5098 10.6804C38.3768 10.5396 38.2011 10.4365 38.0043 10.3664C37.7115 10.2721 37.4448 10.2967 37.1911 10.4318C36.9374 10.5669 36.7591 10.7875 36.6606 11.0869C36.562 11.3863 36.574 11.6727 36.694 11.9354C36.8141 12.1981 37.0239 12.3788 37.3101 12.4689L37.2993 12.4713Z" fill="#F7F8C5"/>
</svg>
