<svg width="69" height="69" viewBox="0 0 69 69" fill="none" xmlns="http://www.w3.org/2000/svg">
<path d="M19.698 29.8341C13.6009 38.6956 15.7313 50.7288 24.4324 56.7155C33.1335 62.7023 45.1333 60.3913 51.2304 51.5298C57.3275 42.6683 55.1971 30.6351 46.496 24.6484C37.7949 18.6616 25.7951 20.9726 19.698 29.8341Z" stroke="#F7F8C5"/>
<path d="M23.5788 20.3946L21.6263 16.6266L20.4047 17.2577L20.1309 16.7241L23.1183 15.1792L23.3921 15.7129L22.1705 16.344L24.123 20.112L23.5691 20.3937L23.5788 20.3946Z" fill="#F7F8C5"/>
<path d="M26.0049 20.5978L26.1014 18.9051L23.6718 16.5016L24.26 16.2719L26.147 18.1954L26.2479 15.4959L26.8361 15.2663L26.5737 20.3664L25.9961 20.5872L26.0049 20.5978Z" fill="#F7F8C5"/>
<path d="M30.8196 19.0646L30.25 19.1981L29.9855 18.0297C29.3983 18.1421 28.9055 18.0774 28.5072 17.8355C28.1089 17.5936 27.8491 17.2275 27.7375 16.7381C27.625 16.2584 27.695 15.815 27.9475 15.4079C28.1991 15.0104 28.6155 14.7357 29.1957 14.5933L28.8882 13.2548L29.457 13.1309L29.7645 14.4695C30.3429 14.3465 30.8357 14.4113 31.2428 14.6638C31.6499 14.9162 31.9 15.2814 32.0125 15.7611C32.125 16.2408 32.055 16.6843 31.7937 17.0808C31.5421 17.4782 31.1257 17.7529 30.5446 17.905L30.809 19.0734L30.8196 19.0646ZM28.4604 15.6798C28.2883 15.9574 28.2404 16.2659 28.3177 16.5957C28.3942 16.9352 28.5668 17.1858 28.8434 17.3676C29.121 17.5397 29.4587 17.5903 29.8678 17.5007L29.3143 15.1127C28.9043 15.212 28.6229 15.4013 28.4507 15.6789L28.4604 15.6798ZM29.884 14.9792L30.4375 17.3671C30.8475 17.2678 31.1289 17.0785 31.3011 16.8009C31.4732 16.5233 31.5211 16.2148 31.4437 15.885C31.3664 15.5552 31.1947 15.295 30.918 15.1131C30.6404 14.941 30.3028 14.8905 29.8936 14.9801L29.884 14.9792Z" fill="#F7F8C5"/>
<path d="M34.5478 17.3325C34.0461 17.3647 33.6186 17.2277 33.2662 16.9118C32.9138 16.5958 32.7158 16.1963 32.6827 15.7043C32.6496 15.2123 32.7866 14.7848 33.0937 14.4218C33.4008 14.0589 33.7906 13.8599 34.272 13.8356C34.7543 13.8016 35.1615 13.9465 35.4945 14.2607C35.8275 14.5748 36.0105 15.0317 36.0647 15.6136L33.2988 15.8097C33.348 16.1272 33.4915 16.375 33.7197 16.5524C33.9576 16.7307 34.2141 16.8129 34.5094 16.7911C34.9027 16.7685 35.2211 16.6021 35.4726 16.3122L35.8778 16.6917C35.5584 17.0829 35.1086 17.2959 34.5469 17.3421L34.5478 17.3325ZM34.2628 14.3628C34.0265 14.3803 33.8227 14.4692 33.6331 14.618C33.4425 14.7766 33.3242 15.0004 33.2887 15.2807L35.3554 15.1378C35.2921 14.868 35.1636 14.6704 34.9609 14.5344C34.7582 14.3985 34.529 14.3384 34.2628 14.3628Z" fill="#F7F8C5"/>
<path d="M36.1579 17.158L38.1664 13.812L39.7557 17.3804L39.0848 17.3384L38.0957 15.0083L36.8094 17.1982L36.1579 17.158Z" fill="#F7F8C5"/>
<path d="M40.1104 17.4626L40.7302 14.1164L41.3076 14.2182L41.0756 15.4682L41.7491 15.5886C42.1722 15.6666 42.4701 15.8308 42.6436 16.0716C42.8268 16.3133 42.89 16.5832 42.8343 16.8714C42.7776 17.1694 42.6196 17.3994 42.37 17.5623C42.1106 17.7243 41.7738 17.7716 41.3604 17.6946L40.1104 17.4626ZM40.7843 17.0452L41.4763 17.1771C41.6976 17.217 41.8748 17.2039 42.008 17.1379C42.1411 17.0719 42.2312 16.9432 42.2666 16.7705C42.302 16.5977 42.2659 16.4575 42.1594 16.3401C42.0519 16.2325 41.9021 16.1601 41.6905 16.1211L40.9888 15.9883L40.794 17.0461L40.7843 17.0452Z" fill="#F7F8C5"/>
<path d="M43.1909 18.087L44.2127 14.8363L44.7733 15.0149L44.2739 16.6217L46.2188 15.4604L46.9037 15.6699L44.9182 16.847L46.0335 18.9736L45.3019 18.7403L44.2377 16.6966L43.7524 18.2559L43.1918 18.0773L43.1909 18.087Z" fill="#F7F8C5"/>
<path d="M48.5019 20.1091L48.6476 19.7998C48.2746 19.922 47.8867 19.8865 47.5024 19.7045C47.0521 19.497 46.7402 19.1652 46.5845 18.7305C46.4297 18.286 46.4512 17.8381 46.6588 17.3878C46.8663 16.9374 47.1884 16.6247 47.6338 16.4602C48.0694 16.2948 48.5173 16.3163 48.9773 16.5247C49.3713 16.7076 49.64 16.9767 49.7931 17.333L49.9388 17.0236L50.4738 17.2683L49.0457 20.3644L48.5107 20.1197L48.5019 20.1091ZM47.7338 19.2075C47.9497 19.3055 48.1604 19.3542 48.3773 19.3349C48.5836 19.3245 48.775 19.2638 48.9417 19.152L49.4911 17.9605C49.4701 17.763 49.3891 17.5795 49.2676 17.4119C49.1363 17.2434 48.9725 17.111 48.7565 17.013C48.456 16.8779 48.1545 16.86 47.8696 16.9805C47.5751 17.1002 47.3598 17.3152 47.214 17.6245C47.0683 17.9338 47.0496 18.245 47.1489 18.5475C47.2483 18.85 47.4536 19.0644 47.7541 19.1995L47.7338 19.2075Z" fill="#F7F8C5"/>
<path d="M41.6037 38.9854C41.0431 39.1075 40.6759 39.3848 40.4166 39.7558C39.9647 40.3994 39.5122 41.0537 39.1617 41.7543C38.701 42.6738 38.3344 43.6487 37.9292 44.5954C37.8867 44.6944 37.8402 44.7911 37.7977 44.8901C37.3357 45.9467 36.4822 46.3016 35.3959 46.4314C32.8011 46.7374 30.2175 46.4548 27.6284 46.3701C27.2422 46.3578 26.8551 46.3423 26.4745 46.2865C26.0234 46.225 25.866 46.0498 25.8671 45.5901C25.8713 44.3055 26.588 43.4402 27.6651 42.9797C28.832 42.4812 30.0796 42.168 31.295 41.7862C32.7934 41.3146 34.3204 40.8984 35.436 39.6807C35.7486 39.3409 36.0172 38.9533 36.2549 38.553C37.3225 36.7696 38.3417 34.9605 39.4388 33.1972C39.8875 32.4773 40.445 31.8159 41.0245 31.1978C41.98 30.1808 42.3214 30.3734 43.1637 31.2383C43.7349 31.8251 44.0699 32.6506 44.508 33.3714C45.1185 34.3755 45.0141 35.4275 44.7384 36.4973C44.2874 38.2382 43.7819 39.9693 43.4185 41.7288C43.1847 42.8645 43.1776 44.0482 43.0503 45.208C42.9394 46.2231 42.921 46.193 41.9698 46.4408C40.9478 46.7077 40.9514 46.4121 41.0292 45.5953C41.1692 44.1095 41.3618 42.6271 41.5051 41.1404C41.5717 40.4493 41.5702 39.7483 41.6014 38.9895L41.6037 38.9854ZM42.1161 31.1648C41.7882 31.8979 41.484 32.6422 41.121 33.3602C40.6072 34.378 40.0484 35.3694 39.511 36.376C38.4144 38.4373 37.2382 40.4462 35.7085 42.2167C35.0503 42.9787 34.2158 43.3531 33.1994 43.2677C32.5081 43.211 31.9562 42.8118 31.3688 42.4993C31.2208 42.4232 31.0087 42.3784 30.8551 42.423C29.9606 42.6767 29.0562 42.9191 28.1884 43.2463C27.2483 43.5999 26.4725 44.1549 26.3277 45.2878C26.2696 45.7277 26.2895 45.789 26.7283 45.8047C27.7104 45.8396 28.6952 45.8843 29.6791 45.8872C31.5919 45.8937 33.5136 46.1397 35.4166 45.8262C37.0155 45.5626 36.7954 45.9126 37.5419 44.2187C37.9577 43.2727 38.3374 42.3083 38.79 41.384C39.2628 40.4192 39.7993 39.4864 40.7053 38.8509C41.0483 38.6117 41.4193 38.3615 41.8432 38.5916C42.2629 38.8193 42.2505 39.275 42.2126 39.6744C42.0726 41.1602 41.9116 42.6446 41.7432 44.1275C41.6754 44.7243 41.5582 45.3167 41.4624 45.9245C41.8854 45.9199 42.2502 45.9168 42.6183 45.9129C42.6323 45.8495 42.656 45.7835 42.6628 45.7186C42.6971 45.3833 42.7525 45.0493 42.7529 44.7161C42.7409 42.0963 43.3194 39.5952 44.1116 37.1316C44.2363 36.7475 44.3423 36.3579 44.415 35.9597C44.5191 35.3953 44.6889 34.8062 44.4234 34.2532C44.0565 33.4888 43.6624 32.7388 43.2267 32.0139C42.9886 31.6148 42.6561 31.2621 42.1178 31.1713L42.1161 31.1648ZM41.5294 31.4342C41.4958 31.4117 41.4621 31.3891 41.4253 31.3674C41.0114 31.8956 40.5435 32.3892 40.1919 32.9568C38.9157 35.0171 37.6927 37.1087 36.4256 39.1771C35.7368 40.3014 34.8103 41.1563 33.5332 41.5652C32.9456 41.7542 32.3657 41.9587 31.7808 42.1575C31.7703 42.1954 31.7621 42.2291 31.7515 42.267C31.8993 42.3291 32.0564 42.3747 32.1892 42.4583C33.2106 43.1034 34.5017 42.9398 35.3101 42.0429C36.6095 40.5971 37.66 38.969 38.5859 37.2621C39.2296 36.0727 39.8528 34.8712 40.4679 33.6649C40.8411 32.9337 41.1775 32.1808 41.5311 31.4408L41.5294 31.4342Z" fill="#F7F8C5"/>
</svg>
