<svg width="80" height="97" viewBox="0 0 80 97" fill="none" xmlns="http://www.w3.org/2000/svg">
<path d="M1.99919 56.3576C1.99919 77.5007 18.8518 94.5844 39.5719 94.5844C60.2919 94.5844 77.1445 77.5007 77.1445 56.3576C77.1445 35.2145 60.2919 18.1309 39.5719 18.1309C18.8518 18.1309 1.99919 35.2145 1.99919 56.3576Z" stroke="#F7F8C5" stroke-width="4"/>
<path d="M54.2944 46.1573C54.3218 46.1919 54.3452 46.2296 54.3767 46.2612C54.8065 46.6981 55.1429 47.2093 55.5067 47.6982C55.8562 48.1676 56.1092 48.6799 56.2637 49.2441C56.4669 49.9865 56.6762 50.731 56.7443 51.4978C56.8073 52.2015 56.8225 52.9124 56.8042 53.6192C56.791 54.1294 56.6305 54.6202 56.3907 55.0765C56.348 55.158 56.346 55.2303 56.3693 55.3199C56.5228 55.9187 56.6894 56.5145 56.8103 57.1194C56.9587 57.8638 56.917 58.6164 56.8591 59.3711C56.7768 60.4445 56.4476 61.4507 56.0767 62.4487C55.8989 62.9284 55.7759 63.4314 55.5107 63.8755C55.4081 64.0476 55.3776 64.2177 55.3908 64.4162C55.4873 65.8349 55.1876 67.1853 54.6562 68.4898C54.4489 68.998 54.206 69.4909 53.9703 69.9869C53.5963 70.7701 53.0192 71.4015 52.4278 72.0196C52.0792 72.3842 51.7185 72.7366 51.2958 73.0177C51.2348 73.0584 51.1749 73.1093 51.1068 73.1266C50.9869 73.1572 50.933 73.2397 50.8782 73.3385C50.3244 74.3355 49.6548 75.2429 48.7616 75.9619C47.6977 76.8183 46.5047 77.4324 45.198 77.8235C44.7672 77.9528 44.3312 78.0669 43.8943 78.1749C43.751 78.2105 43.5976 78.2044 43.4492 78.2227C43.3984 78.2288 43.3476 78.2482 43.3009 78.2706C42.6313 78.5955 41.9515 78.8938 41.2219 79.0578C40.473 79.2258 39.717 79.3226 38.9498 79.2625C38.0048 79.1882 37.0883 78.9875 36.2215 78.5893C35.9746 78.4763 35.7317 78.35 35.4787 78.2522C35.3588 78.2054 35.2176 78.2125 35.0865 78.1932C34.9818 78.1779 34.8761 78.1698 34.7745 78.1433C33.7554 77.8805 32.7474 77.5842 31.8095 77.0903C31.0951 76.7134 30.4113 76.2898 29.8107 75.747C29.0334 75.0453 28.4207 74.2122 27.9228 73.2926C27.8821 73.2183 27.8262 73.1786 27.7531 73.1368C27.5539 73.0217 27.3568 72.8975 27.179 72.7508C26.6404 72.3078 26.1791 71.7874 25.7157 71.2681C25.3652 70.8749 25.0928 70.434 24.849 69.9737C24.2586 68.8605 23.8054 67.6965 23.5605 66.4561C23.4142 65.7167 23.3898 64.9692 23.4416 64.2187C23.4457 64.1657 23.4345 64.1036 23.4101 64.0578C23.2089 63.685 23.0352 63.3021 22.9051 62.8958C22.7009 62.2562 22.4418 61.633 22.265 60.9873C21.7925 59.257 21.7813 57.5217 22.3117 55.7965C22.3615 55.6335 22.4164 55.4706 22.455 55.3046C22.4702 55.2394 22.4702 55.1559 22.4418 55.0989C22.1369 54.4858 22.0048 53.8371 21.9926 53.1537C21.9662 51.7422 22.2131 50.3735 22.6297 49.0333C22.7314 48.7064 22.8716 48.3785 23.0596 48.0943C23.4183 47.5536 23.8227 47.0413 24.2129 46.5219C24.3094 46.3936 24.4283 46.2805 24.5086 46.1919C24.4598 46.0555 24.4019 45.9536 24.3897 45.8477C24.2373 44.4933 24.4273 43.1724 24.8317 41.8841C25.1386 40.9064 25.6151 40.0123 26.2929 39.2302C26.7319 38.724 27.1343 38.1863 27.5641 37.672C27.7439 37.4571 27.9522 37.2677 28.1483 37.0661C28.1707 37.0426 28.2012 37.0223 28.2134 36.9948C28.5253 36.3124 29.008 35.7493 29.4744 35.1759C29.8483 34.7166 30.266 34.3052 30.7446 33.9518C31.0484 33.7267 31.3969 33.6524 31.7515 33.5831C31.8908 33.5556 32.031 33.5342 32.1702 33.5037C32.2068 33.4955 32.2434 33.4721 32.2728 33.4467C32.4141 33.3244 32.5462 33.191 32.6935 33.078C33.3987 32.5423 34.0988 31.9975 34.8924 31.5921C35.3741 31.3457 35.8801 31.1644 36.4217 31.1379C36.6971 31.1237 36.9765 31.1919 37.2549 31.2174C37.2966 31.2214 37.3596 31.2113 37.3789 31.1838C37.6268 30.8436 37.9875 30.7346 38.3777 30.6705C39.1967 30.5361 40.0086 30.5554 40.8185 30.7489C41.0674 30.808 41.2442 30.9607 41.4038 31.142C41.4637 31.2102 41.5166 31.2398 41.61 31.2153C42.426 31.0025 43.1779 31.2174 43.9014 31.5789C44.4664 31.861 44.9907 32.2093 45.4907 32.5953C45.7315 32.7816 45.9784 32.9619 46.2223 33.1442C46.2578 33.1707 46.3015 33.1931 46.3269 33.2277C46.52 33.5016 46.8147 33.5556 47.1124 33.5882C47.6692 33.6493 48.1143 33.9263 48.5116 34.295C49.2889 35.015 49.9494 35.8338 50.487 36.7463C50.6038 36.9459 50.7369 37.119 50.8955 37.282C51.4208 37.8207 51.9187 38.3839 52.3546 39.001C52.5985 39.3463 52.886 39.6609 53.1167 40.0143C53.7366 40.9645 54.0993 42.0165 54.3076 43.1286C54.4763 44.0268 54.5403 44.9281 54.4397 45.8386C54.4275 45.9496 54.3686 46.0545 54.332 46.1624C54.3198 46.1614 54.3086 46.1594 54.2964 46.1583L54.2944 46.1573ZM33.6822 60.2153C33.6995 60.2459 33.7198 60.2887 33.7462 60.3284C34.05 60.7958 34.3549 61.2612 34.6577 61.7287C35.5417 63.0903 36.5436 64.3592 37.6634 65.5334C38.0262 65.9133 38.4123 66.2646 38.899 66.4907C39.2099 66.6353 39.5097 66.6944 39.8318 66.5335C40.0787 66.4093 40.3226 66.286 40.539 66.1078C41.1233 65.6271 41.6161 65.0599 42.1049 64.4875C43.2166 63.1901 44.1727 61.7816 45.0751 60.3335C45.1015 60.2907 45.1238 60.2459 45.1431 60.2092C44.946 60.1359 44.758 60.0809 44.5832 59.9994C43.6606 59.5687 42.8121 59.0157 41.9769 58.4352C41.1101 57.8333 40.3968 57.1011 39.8694 56.1855C39.7231 55.9309 39.5585 55.6865 39.4122 55.4523C39.2547 55.7038 39.0839 55.9645 38.9254 56.2324C38.4306 57.0715 37.7894 57.7702 36.9897 58.3303C35.9482 59.0605 34.9036 59.7805 33.6822 60.2143V60.2153ZM39.8908 54.7516C39.9192 54.8158 39.9405 54.8769 39.9731 54.9319C40.1367 55.2129 40.3023 55.493 40.4699 55.7721C40.7037 56.1601 40.9861 56.5094 41.3001 56.8373C41.8549 57.4188 42.4636 57.9372 43.0997 58.425C43.7277 58.9067 44.4166 59.2723 45.1706 59.5126C45.2732 59.5452 45.4144 59.5524 45.5049 59.5065C45.6573 59.4291 45.7975 59.313 45.9174 59.1888C46.2893 58.8028 46.6683 58.4209 47.0087 58.0074C47.8105 57.0318 48.4476 55.9493 48.9861 54.8086C49.3418 54.055 49.5369 53.2698 49.4099 52.4297C49.3997 52.3645 49.3631 52.2932 49.3184 52.2443C48.852 51.729 48.35 51.2463 47.967 50.6597C47.9477 50.6312 47.8999 50.6108 47.8633 50.6057C47.715 50.5884 47.5615 50.5976 47.4172 50.5639C46.4174 50.3348 45.5313 49.8735 44.7377 49.2258C44.6828 49.181 44.6269 49.1361 44.567 49.0873C44.5497 49.1178 44.5396 49.1351 44.5294 49.1524C44.1656 49.8012 43.8262 50.4652 43.434 51.0966C42.8741 51.9968 42.303 52.894 41.5206 53.6304C41.0359 54.0856 40.5573 54.5428 39.8918 54.7516H39.8908ZM38.9214 54.7822C38.6663 54.6426 38.4143 54.5337 38.1938 54.3799C37.5496 53.9298 36.9917 53.3798 36.5192 52.7555C35.8313 51.8471 35.2186 50.8878 34.6871 49.8765C34.549 49.6148 34.4036 49.3561 34.2573 49.0883C34.2035 49.1321 34.1527 49.1728 34.1029 49.2146C33.3306 49.847 32.471 50.3073 31.4975 50.5426C31.3227 50.5843 31.1368 50.5823 30.9569 50.6047C30.9234 50.6088 30.8787 50.6271 30.8614 50.6536C30.4753 51.2473 29.9672 51.7371 29.4937 52.2555C29.4561 52.2973 29.4246 52.3563 29.4165 52.4103C29.2834 53.2902 29.4988 54.107 29.8788 54.8901C30.3025 55.7619 30.771 56.6082 31.3471 57.3903C31.906 58.148 32.4923 58.8782 33.2412 59.4617C33.3621 59.5564 33.483 59.5758 33.6141 59.5269C33.921 59.4118 34.2309 59.2978 34.5286 59.1613C35.1759 58.8639 35.7307 58.425 36.2855 57.984C36.8159 57.5614 37.2925 57.0848 37.7518 56.5908C38.2202 56.0867 38.5373 55.4767 38.8767 54.883C38.898 54.8453 38.9122 54.8025 38.9203 54.7822H38.9214ZM46.1013 60.0534C46.1105 60.0667 46.1237 60.0911 46.14 60.1135C47.0382 61.36 47.9355 62.6086 48.8368 63.8541C49.2097 64.3694 49.6273 64.847 50.1313 65.2411C50.175 65.2758 50.2218 65.3073 50.2726 65.345C50.68 65.0293 51.0763 64.7075 51.4015 64.3164C52.0356 63.5537 52.6503 62.7756 53.1513 61.913C53.6461 61.0626 54.0536 60.1848 54.1481 59.1868C54.1938 58.6989 54.2284 58.2142 54.1481 57.7274C53.9926 56.7752 53.641 55.8892 53.2326 55.0225C53.1665 54.882 53.07 54.7913 52.9287 54.7272C52.2256 54.4064 51.559 54.0204 50.9148 53.5927C50.5906 53.3778 50.2705 53.1558 49.9444 52.9348C49.9372 52.9552 49.9271 52.9765 49.923 53C49.8671 53.2953 49.8092 53.5906 49.7574 53.887C49.5206 55.2292 48.9628 56.4503 48.2799 57.6082C47.7221 58.5553 46.9884 59.368 46.1003 60.0544L46.1013 60.0534ZM28.8861 52.9165C28.7032 53.0488 28.5426 53.1731 28.3749 53.2861C27.557 53.8391 26.7166 54.3544 25.8184 54.771C25.7442 54.8056 25.6751 54.8789 25.6355 54.9522C25.3347 55.5042 25.1294 56.0959 24.9242 56.6876C24.596 57.6327 24.5543 58.6012 24.727 59.5778C24.8571 60.3131 25.1548 60.9914 25.5156 61.6421C26.047 62.6004 26.7115 63.463 27.4096 64.3001C27.7409 64.6973 28.1433 65.0222 28.5518 65.344C28.5934 65.3145 28.6269 65.2921 28.6584 65.2676C29.0547 64.958 29.4144 64.6097 29.7132 64.2065C30.5444 63.0821 31.3675 61.9507 32.1915 60.8203C32.3775 60.5646 32.5523 60.3009 32.7169 60.0616C30.458 58.206 29.3271 55.7578 28.885 52.9154L28.8861 52.9165ZM45.7061 60.2612C45.6461 60.3793 45.5973 60.476 45.5465 60.5718C45.0629 61.4904 44.5284 62.3794 43.9248 63.2247C42.8721 64.6983 41.7482 66.1078 40.222 67.1486C40.2566 67.1914 40.2942 67.2393 40.3318 67.2851C40.4384 67.4134 40.5533 67.5356 40.6508 67.67C41.292 68.5611 41.9362 69.4502 42.5652 70.3515C42.931 70.877 43.4157 71.266 43.9289 71.6265C43.9908 71.6703 44.0914 71.6907 44.1666 71.6774C44.4826 71.6225 44.7773 71.5033 45.0354 71.3118C45.4236 71.0236 45.8067 70.7293 46.1847 70.4289C46.8045 69.937 47.3329 69.3484 47.8836 68.7842C48.7219 67.9257 49.3022 66.9083 49.6995 65.7809C49.7117 65.7473 49.6984 65.6831 49.673 65.6607C49.1213 65.1719 48.597 64.6545 48.1641 64.0557C47.7018 63.4172 47.2597 62.7634 46.8228 62.1065C46.5871 61.7511 46.3848 61.3743 46.1654 61.0087C46.018 60.7632 45.8656 60.5198 45.7071 60.2601L45.7061 60.2612ZM33.1213 60.2581C32.9587 60.5239 32.8073 60.7683 32.659 61.0158C32.4476 61.3682 32.2454 61.7246 32.029 62.0739C31.8593 62.3469 31.6682 62.6065 31.4985 62.8785C30.899 63.8408 30.1826 64.7055 29.3647 65.4866C29.2803 65.567 29.1411 65.6302 29.1198 65.7229C29.0974 65.8186 29.1889 65.9398 29.2305 66.0498C29.576 66.9694 30.0587 67.8075 30.7181 68.5367C31.4995 69.4003 32.3257 70.2171 33.2524 70.9269C33.67 71.2467 34.0886 71.5603 34.6191 71.6734C34.7329 71.6978 34.8264 71.6866 34.9168 71.6194C35.0733 71.5033 35.2399 71.3984 35.3842 71.2681C35.6301 71.044 35.8913 70.8271 36.0925 70.5664C36.5416 69.9838 36.9552 69.3738 37.3901 68.7791C37.7742 68.2546 38.1664 67.7362 38.5556 67.2148C38.5738 67.1904 38.5881 67.1639 38.6003 67.1445C38.4204 67.0152 38.2446 66.8971 38.079 66.7667C36.8556 65.8033 35.8902 64.6026 34.9879 63.349C34.2888 62.3784 33.671 61.3549 33.1213 60.2581ZM38.017 44.7998C37.4774 45.4954 36.9552 46.196 36.4034 46.8722C35.8486 47.5525 35.2501 48.1972 34.5906 48.7899C34.7319 49.0221 34.866 49.2492 35.0042 49.4732C35.562 50.3796 36.1626 51.2514 36.9257 52.0019C37.4571 52.5254 37.9997 53.0387 38.6368 53.4277C39.339 53.8575 39.4894 53.8595 40.1885 53.4257C40.6031 53.168 40.979 52.8411 41.3509 52.5203C42.2726 51.7239 43.0184 50.7778 43.6555 49.7421C43.8496 49.4274 44.0416 49.1117 44.2357 48.794C42.9412 47.5851 41.8316 46.2286 40.8347 44.7774C39.8796 45.6186 38.9386 45.6104 38.017 44.7988V44.7998ZM43.7043 40.331C43.6819 40.3881 43.6667 40.4421 43.6413 40.4909C43.2999 41.157 42.9574 41.822 42.615 42.486C42.2543 43.1856 41.7838 43.8069 41.2463 44.3772C41.1701 44.4586 41.1558 44.5157 41.2249 44.6022C41.542 44.9984 41.8224 45.4332 42.1801 45.7887C43.0763 46.6787 43.9665 47.577 45.008 48.3082C45.7 48.794 46.4224 49.2176 47.1866 49.571C47.3979 49.6688 47.6316 49.7217 47.8552 49.792C47.8836 49.8012 47.9294 49.8063 47.9487 49.79C48.0422 49.7136 48.1509 49.6443 48.2169 49.5466C48.853 48.5984 49.2646 47.5556 49.484 46.4374C49.6253 45.7184 49.7208 44.9913 49.7513 44.258C49.7594 44.0564 49.7523 43.8537 49.7523 43.648C49.7523 43.648 49.7462 43.6419 49.7391 43.6419C49.7106 43.6409 49.6822 43.6429 49.6537 43.6419C49.2849 43.6184 48.9181 43.593 48.5665 43.4596C47.7404 43.1449 46.9529 42.7579 46.1979 42.2955C45.6705 41.9717 45.2336 41.5531 44.8332 41.0908C44.7011 40.938 44.5965 40.7628 44.4766 40.5989C44.4593 40.5755 44.4298 40.5541 44.4014 40.5459C44.1697 40.4726 43.936 40.4023 43.7053 40.3321L43.7043 40.331ZM35.1261 40.331C34.8944 40.4013 34.6577 40.4726 34.4219 40.5459C34.3965 40.5541 34.3701 40.5714 34.3549 40.5918C34.2482 40.7394 34.1598 40.9034 34.0368 41.0358C33.7645 41.3311 33.5034 41.6458 33.1894 41.8902C32.3277 42.5624 31.3532 43.0369 30.3371 43.43C30.0617 43.537 29.7792 43.6011 29.4846 43.6174C29.3443 43.6256 29.2041 43.6388 29.0547 43.65C29.0547 43.707 29.0507 43.76 29.0547 43.8119C29.1005 44.3792 29.132 44.9495 29.198 45.5147C29.3332 46.6716 29.6177 47.7878 30.1796 48.8174C30.3594 49.1463 30.5027 49.5028 30.8137 49.7441C30.8756 49.792 30.9254 49.8052 31.0006 49.7879C31.3593 49.7054 31.6865 49.5476 32.0178 49.3907C32.9496 48.9488 33.797 48.3734 34.5886 47.7226C35.2125 47.2093 35.7825 46.6309 36.3719 46.0769C36.8332 45.643 37.2163 45.143 37.5841 44.6297C37.6553 44.5309 37.6664 44.4678 37.5689 44.3649C37.0547 43.8231 36.6026 43.2325 36.254 42.5685C35.8913 41.877 35.5377 41.1814 35.181 40.4869C35.1566 40.439 35.1424 40.385 35.1231 40.331H35.1261ZM43.8161 72.429C43.7145 72.3526 43.6311 72.2936 43.5529 72.2304C43.4736 72.1673 43.3954 72.1021 43.3202 72.0339C42.5083 71.2996 41.8102 70.4645 41.168 69.5806C40.6874 68.9196 40.2058 68.2577 39.8206 67.5346C39.7556 67.4134 39.7038 67.3309 39.5514 67.392C39.5046 67.4103 39.4416 67.4144 39.3949 67.3991C39.1439 67.3156 39.0545 67.4633 38.9366 67.6537C38.5627 68.2587 38.1643 68.8483 37.764 69.437C37.2407 70.2059 36.6351 70.9086 35.9898 71.5746C35.6941 71.8791 35.3639 72.151 35.0397 72.4463C35.057 72.4728 35.0875 72.5207 35.118 72.5675C35.6149 73.3211 36.2083 73.9963 36.8159 74.6593C37.3535 75.2459 37.9835 75.7012 38.7405 75.972C39.1622 76.1228 39.5808 76.1442 40.0035 76.0026C40.7057 75.7673 41.3235 75.3844 41.8285 74.8447C42.3081 74.3314 42.7623 73.7927 43.2135 73.2539C43.4289 72.9963 43.6128 72.7121 43.8181 72.43L43.8161 72.429ZM48.5075 50.3929C49.0949 51.0375 49.6913 51.6883 50.2827 52.3431C50.8944 53.0203 51.6484 53.4918 52.4725 53.8585C52.696 53.9583 52.9338 54.0255 53.1472 54.1009C53.6278 53.2831 53.8737 52.4083 54.1176 51.5345C54.3046 50.8664 54.4153 50.182 54.4489 49.4885C54.5007 48.409 54.2995 47.3672 53.9327 46.3549C53.892 46.2429 53.828 46.1726 53.7213 46.1237C53.0771 45.8284 52.4664 45.477 51.9065 45.0391C51.372 44.6216 50.8264 44.2183 50.2848 43.8079C50.2573 43.7865 50.2299 43.7651 50.1862 43.7315C50.1923 43.7895 50.1933 43.8252 50.2004 43.8598C50.3091 44.4617 50.3081 45.0727 50.2421 45.6736C50.1181 46.8101 49.8336 47.9141 49.4078 48.9763C49.2016 49.4926 48.8845 49.9448 48.5096 50.3929H48.5075ZM28.6422 43.7284C28.6005 43.762 28.5792 43.7794 28.5578 43.7967C27.7155 44.4749 26.8619 45.1369 25.9332 45.695C25.6558 45.862 25.356 45.9913 25.0715 46.1482C25.0075 46.1838 24.9445 46.252 24.9181 46.3192C24.8449 46.5087 24.7931 46.7062 24.7291 46.8987C24.3866 47.9202 24.3084 48.9681 24.4283 50.0323C24.5187 50.8318 24.722 51.6048 24.9567 52.3747C25.1376 52.9704 25.3926 53.5285 25.6609 54.0897C25.6985 54.0815 25.735 54.0774 25.7696 54.0672C26.5479 53.83 27.2592 53.4593 27.8923 52.9511C28.4745 52.4836 28.9572 51.9133 29.452 51.3563C29.7427 51.0283 30.0343 50.7014 30.3076 50.3939C30.1847 50.2207 30.079 50.0598 29.9611 49.9081C29.7112 49.5873 29.5222 49.2339 29.3779 48.8551C29.1939 48.3723 29.0497 47.8784 28.9155 47.3784C28.6503 46.3946 28.5111 45.4027 28.5711 44.3843C28.5833 44.1735 28.6178 43.9647 28.6452 43.7284H28.6422ZM30.0841 68.6365C30.0018 68.943 29.9235 69.2323 29.8453 69.5215C29.5445 70.6265 29.009 71.6174 28.3688 72.5553C28.2876 72.6745 28.2845 72.7549 28.3567 72.8781C28.8637 73.7489 29.5201 74.4903 30.271 75.1553C30.9783 75.7816 31.8318 76.1645 32.6498 76.6055C32.7636 76.6666 32.8856 76.7134 33.0055 76.7644C33.607 77.021 34.2126 77.2624 34.8538 77.409C35.2145 77.4915 35.495 77.3469 35.7155 77.1045C35.9858 76.8071 36.1524 76.4415 36.2367 76.0444C36.2815 75.8346 36.3211 75.6227 36.3567 75.4109C36.3638 75.3692 36.3536 75.308 36.3262 75.2785C35.809 74.7164 35.3984 74.0748 34.9849 73.4362C34.7644 73.0961 34.5581 72.7458 34.3417 72.4015C34.3234 72.372 34.2807 72.3547 34.2461 72.3374C33.9992 72.2152 33.7391 72.1143 33.5064 71.9697C32.4059 71.2884 31.5087 70.3769 30.6765 69.3962C30.4722 69.1549 30.2873 68.8972 30.0831 68.6345L30.0841 68.6365ZM48.7443 68.6324C48.7067 68.6813 48.6762 68.718 48.6488 68.7567C48.0381 69.6172 47.3136 70.3759 46.5271 71.0725C45.9367 71.596 45.3067 72.0726 44.5538 72.3496C44.5263 72.3598 44.4989 72.3832 44.4837 72.4076C44.2886 72.7213 44.1026 73.0411 43.9004 73.3507C43.4665 74.0137 43.0458 74.6878 42.5063 75.2755C42.4758 75.3091 42.4687 75.3804 42.4768 75.4292C42.5022 75.581 42.5581 75.7297 42.5723 75.8824C42.615 76.3326 42.804 76.7216 43.0784 77.0638C43.2765 77.3102 43.5427 77.4813 43.8841 77.4233C44.0955 77.3876 44.3058 77.3347 44.5091 77.2654C45.2102 77.0271 45.9093 76.7807 46.5505 76.3977C46.7131 76.301 46.8929 76.2328 47.0616 76.1452C48.5157 75.3987 49.6192 74.2846 50.4616 72.8934C50.5429 72.76 50.5398 72.6704 50.4494 72.539C49.7726 71.5542 49.228 70.5053 48.9313 69.3392C48.8723 69.108 48.8093 68.8789 48.7433 68.6324H48.7443ZM40.9414 37.507C40.8032 37.6476 40.6589 37.8085 40.5004 37.9531C40.3419 38.0977 40.1712 38.2321 40.0005 38.3625C39.5737 38.6873 39.2475 38.6965 38.8309 38.3635C38.523 38.1181 38.2395 37.8431 37.9469 37.5803C37.9184 37.5549 37.9012 37.5152 37.8727 37.4734C37.7406 37.6659 37.637 37.836 37.5161 37.9918C37.1726 38.4358 36.8261 38.8768 36.4745 39.3147C36.3709 39.444 36.255 39.5672 36.1301 39.6762C35.9228 39.8565 35.7023 40.0215 35.4747 40.2037C35.5834 40.4074 35.687 40.6335 35.8181 40.8423C36.4257 41.8169 37.1055 42.7416 37.8361 43.6256C38.1318 43.983 38.4499 44.3211 38.8736 44.5381C39.2323 44.7224 39.5879 44.7234 39.9477 44.5411C40.2952 44.3649 40.5736 44.1032 40.8246 43.813C41.6527 42.8536 42.3935 41.8291 43.0611 40.7527C43.1739 40.5714 43.2592 40.3728 43.3608 40.1762C42.7877 39.8534 42.3813 39.3768 42.0043 38.8656C41.667 38.4093 41.3052 37.9694 40.9424 37.507H40.9414ZM23.845 64.513C23.8816 64.792 23.9172 65.1026 23.9639 65.4122C24.0676 66.1139 24.2119 66.8064 24.4578 67.4735C24.7463 68.2536 25.105 68.9991 25.5125 69.7242C25.9474 70.4992 26.4423 71.2243 27.0997 71.8282C27.2521 71.9687 27.4035 72.1092 27.558 72.2467C27.621 72.3027 27.683 72.3027 27.746 72.2315C27.8638 72.097 28 71.9779 28.1087 71.8373C28.5772 71.2355 28.9826 70.5939 29.2813 69.8891C29.5018 69.3687 29.7183 68.8463 29.7376 68.2689C29.7396 68.2139 29.7213 68.1507 29.6919 68.1039C29.3057 67.4725 28.9115 66.8461 28.5304 66.2117C28.4532 66.0834 28.3993 65.9581 28.2286 65.9367C28.1758 65.9306 28.1209 65.895 28.0782 65.8593C27.8151 65.6434 27.5509 65.4296 27.2948 65.2045C27.1729 65.0976 27.0743 64.9652 26.9564 64.8531C26.362 64.2889 25.8661 63.6494 25.482 62.9233C25.4688 62.8988 25.4515 62.8774 25.4322 62.8479C25.4119 62.8774 25.3926 62.8998 25.3814 62.9243C25.1315 63.463 24.7321 63.8755 24.2728 64.2339C24.1478 64.3317 24.0056 64.4061 23.843 64.5089L23.845 64.513ZM53.3931 62.8316C53.3545 62.9029 53.3301 62.9538 53.3006 63.0007C53.1543 63.2349 53.012 63.4722 52.8596 63.7023C52.441 64.3358 51.8841 64.846 51.3537 65.3776C51.1444 65.5874 50.8975 65.7819 50.6323 65.9072C50.4443 65.9958 50.3376 66.1058 50.2614 66.2789C50.24 66.3268 50.2126 66.3726 50.1842 66.4174C49.8326 66.9796 49.481 67.5407 49.1294 68.1029C49.106 68.1395 49.0715 68.1833 49.0756 68.22C49.0949 68.4094 49.106 68.6029 49.1538 68.7862C49.4099 69.7741 49.8702 70.6672 50.4575 71.4941C50.6262 71.7314 50.8233 71.9504 51.0184 72.1673C51.1647 72.3292 51.1901 72.3343 51.3507 72.1785C51.6809 71.8597 52.0152 71.543 52.317 71.1978C52.7926 70.6529 53.1421 70.0225 53.4896 69.3901C54.1146 68.2505 54.5921 67.061 54.7994 65.7728C54.8685 65.3399 54.9254 64.9051 54.9813 64.512C54.2649 64.1046 53.7406 63.5669 53.3911 62.8306L53.3931 62.8316ZM39.277 30.9536C39.0413 30.9964 38.6744 31.0605 38.3086 31.1278C37.9713 31.1899 37.6969 31.3834 37.4713 31.6166C36.9917 32.1146 36.6168 32.689 36.3485 33.3306C36.1748 33.745 36.1677 34.1422 36.4298 34.5241C36.441 34.5404 36.4501 34.5598 36.4593 34.5771C36.884 35.3877 37.4632 36.0863 38.0627 36.7666C38.333 37.0742 38.6145 37.3828 38.9356 37.6313C39.3553 37.9551 39.4548 37.9358 39.8897 37.6374C40.0523 37.5264 40.1936 37.3797 40.3318 37.2371C40.8601 36.6943 41.3479 36.1149 41.7838 35.4967C42.047 35.1229 42.2614 34.7135 42.4951 34.3194C42.6252 34.1005 42.6323 33.8703 42.5652 33.6259C42.427 33.1238 42.1821 32.6747 41.8742 32.2633C41.668 31.9883 41.4901 31.6899 41.1853 31.4862C41.0349 31.3854 40.8957 31.251 40.726 31.195C40.3013 31.0554 39.8623 30.975 39.276 30.9536H39.277ZM42.9087 34.5435C42.8711 34.6249 42.8325 34.7135 42.7877 34.7991C42.3762 35.5965 41.8885 36.346 41.3418 37.0548C41.2808 37.1343 41.2818 37.1801 41.3499 37.2463C41.4282 37.3237 41.4932 37.4123 41.5684 37.4928C42.173 38.1466 42.7776 38.8004 43.3842 39.4522C43.5112 39.5886 43.6677 39.6803 43.8496 39.7282C44.0925 39.7913 44.3333 39.8677 44.5792 39.9176C45.1756 40.0388 45.7762 40.1345 46.3889 40.0357C46.4621 40.0235 46.5007 39.995 46.5342 39.9308C46.7029 39.6039 46.7618 39.2464 46.7628 38.891C46.7649 38.3503 46.707 37.8105 46.6978 37.2697C46.6897 36.7605 46.4397 36.3746 46.1237 36.014C46.0891 35.9743 46.0546 35.9336 46.017 35.8969C45.6227 35.516 45.2285 35.1341 44.8312 34.7563C44.8048 34.7319 44.7529 34.7258 44.7133 34.7258C44.4176 34.7207 44.1209 34.739 43.8283 34.7095C43.5234 34.6789 43.2226 34.6015 42.9097 34.5425L42.9087 34.5435ZM32.0269 38.7006C32.0706 38.9827 32.1133 39.3086 32.1743 39.6314C32.1966 39.7485 32.2616 39.8575 32.3135 39.9685C32.3257 39.994 32.3572 40.0225 32.3826 40.0265C32.535 40.05 32.6884 40.0887 32.8398 40.0826C33.416 40.0612 33.9881 39.999 34.55 39.8585C34.992 39.7475 35.3781 39.5703 35.6901 39.2108C36.2703 38.5407 36.8789 37.896 37.4795 37.2443C37.5476 37.1709 37.5364 37.1272 37.4795 37.0528C36.9145 36.3104 36.3983 35.5374 35.9888 34.6962C35.9075 34.5292 35.9126 34.5333 35.7348 34.574C35.1952 34.6983 34.6546 34.8093 34.0958 34.7247C34.0632 34.7197 34.0175 34.739 33.9911 34.7614C33.8275 34.9019 33.6629 35.0415 33.5074 35.1902C33.0796 35.5965 32.6539 36.0069 32.3399 36.512C32.2667 36.6302 32.1986 36.7677 32.1844 36.9031C32.1224 37.4856 32.0808 38.0702 32.0279 38.7026L32.0269 38.7006ZM31.6601 37.2636C31.4843 37.3257 31.3207 37.396 31.15 37.4418C30.5505 37.6038 29.9418 37.6364 29.3271 37.5396C29.2488 37.5274 29.2031 37.5437 29.1604 37.617C28.8607 38.1374 28.6259 38.6843 28.4725 39.2668C28.2794 39.995 28.2764 40.7201 28.4969 41.4431C28.5375 41.5755 28.5721 41.711 28.6269 41.8373C28.7966 42.2243 28.9734 42.6082 29.1513 42.9911C29.1645 43.0186 29.2112 43.0512 29.2387 43.0481C29.8981 42.9881 30.5373 42.8384 31.1317 42.544C31.9914 42.1183 32.7646 41.5735 33.3753 40.8189C33.4119 40.7741 33.4495 40.7313 33.5023 40.6692C33.1619 40.6692 32.854 40.6763 32.5462 40.6651C32.4364 40.661 32.3185 40.6325 32.222 40.5806C31.9009 40.4115 31.7079 40.1365 31.6388 39.7811C31.5107 39.1212 31.4772 38.4572 31.5819 37.7891C31.6083 37.617 31.6327 37.4449 31.6591 37.2626L31.6601 37.2636ZM47.1764 37.2657C47.1723 37.2799 47.1673 37.287 47.1683 37.2942C47.1703 37.3145 47.1744 37.3339 47.1784 37.3543C47.3298 38.1456 47.3593 38.9399 47.1927 39.7322C47.1561 39.9074 47.0911 40.0897 46.9925 40.2374C46.8441 40.4604 46.6338 40.6366 46.3544 40.663C46.0963 40.6875 45.8351 40.6742 45.576 40.6763C45.5008 40.6763 45.4256 40.6763 45.3392 40.6763C45.3535 40.6997 45.3606 40.714 45.3697 40.7252C45.8676 41.3698 46.4976 41.8617 47.1906 42.2701C47.5168 42.4626 47.8704 42.6123 48.222 42.7559C48.6335 42.9239 49.0735 42.984 49.5135 43.042C49.6202 43.0563 49.6609 43.0268 49.7076 42.9392C50.0389 42.3241 50.3122 41.6865 50.428 40.994C50.4768 40.7028 50.5103 40.4013 50.49 40.109C50.4301 39.2159 50.114 38.4002 49.673 37.6282C49.6273 37.5478 49.5775 37.5274 49.4881 37.5406C48.723 37.6496 47.9741 37.5956 47.2547 37.2901C47.2303 37.2799 47.2028 37.2738 47.1774 37.2657H47.1764ZM28.2337 37.2585C28.0549 37.4704 27.8862 37.6903 27.6972 37.891C27.2206 38.3991 26.8365 38.9715 26.5053 39.5805C26.3742 39.8218 26.2898 40.0917 26.1445 40.3239C25.7757 40.9166 25.5267 41.5562 25.3357 42.2232C25.0329 43.2773 24.8439 44.3456 24.8927 45.4465C24.8967 45.531 24.9049 45.6145 24.911 45.7001C25.3255 45.6227 28.2906 43.6001 28.5761 43.2141C28.4461 42.9769 28.2937 42.7569 28.1971 42.5135C27.8445 41.6203 27.7531 40.6916 27.8994 39.7434C27.9888 39.164 28.2774 38.6476 28.4573 38.0967C28.5284 37.8777 28.6564 37.6761 28.7601 37.4653C28.5893 37.395 28.3699 37.4408 28.2337 37.2575V37.2585ZM53.9123 45.7255C53.9205 45.6298 53.9337 45.5616 53.9316 45.4933C53.9195 45.0585 53.9245 44.6226 53.8849 44.1908C53.8016 43.2834 53.5953 42.3994 53.2691 41.5511C53.0659 41.0225 52.7966 40.5195 52.5517 40.0082C52.0589 38.9776 51.3588 38.0946 50.5845 37.2708C50.4545 37.4439 50.2329 37.396 50.0531 37.4734C50.113 37.5773 50.1842 37.672 50.2279 37.7789C50.3914 38.1812 50.5337 38.5916 50.7065 38.9898C50.9463 39.5459 51.0011 40.1284 50.9879 40.7221C50.9727 41.4044 50.8436 42.0654 50.554 42.6866C50.4697 42.8689 50.3478 43.0339 50.2289 43.2284C50.4941 43.4504 50.7552 43.6897 51.0367 43.9005C51.8628 44.5197 52.758 45.034 53.6299 45.584C53.7111 45.6349 53.8016 45.6715 53.9113 45.7265L53.9123 45.7255ZM54.7019 56.6632C54.8177 56.4992 54.9427 56.3536 55.0331 56.1886C55.3258 55.658 55.6012 55.1182 55.8928 54.5877C56.1336 54.1477 56.2393 53.6741 56.224 53.1792C56.2098 52.6832 56.1753 52.1883 56.1275 51.6944C56.0462 50.8511 55.8979 50.0181 55.6865 49.1973C55.4619 48.3245 54.9762 47.5892 54.459 46.8712C54.455 46.8651 54.4428 46.8651 54.4245 46.858C54.4936 47.0739 54.5718 47.2755 54.6226 47.4833C54.8624 48.4569 54.898 49.4468 54.8228 50.4417C54.77 51.1322 54.648 51.8125 54.4621 52.4816C54.266 53.1863 54.0201 53.8636 53.5557 54.4634C53.8727 54.9339 54.0698 55.4879 54.2467 56.044C54.33 56.3057 54.5037 56.4635 54.7019 56.6621V56.6632ZM25.2788 54.4522C25.1843 54.332 25.0837 54.2332 25.0177 54.1141C24.7148 53.5723 24.4974 52.9979 24.3399 52.395C24.1275 51.5834 23.9964 50.7615 23.9771 49.9254C23.9538 48.8999 24.0117 47.8825 24.3887 46.9109C24.3948 46.8957 24.3917 46.8783 24.3958 46.8264C24.2911 46.9731 24.2037 47.0902 24.1235 47.2114C23.718 47.8275 23.3288 48.4508 23.1449 49.1779C22.9529 49.9397 22.8126 50.7116 22.7192 51.4917C22.648 52.0865 22.582 52.6812 22.5993 53.28C22.6104 53.6691 22.6653 54.054 22.8452 54.4033C23.1713 55.0357 23.5077 55.6631 23.8491 56.2863C23.9212 56.4187 24.034 56.5287 24.1285 56.6489C24.4161 56.4157 24.474 56.3332 24.5797 56.0134C24.596 55.9635 24.6142 55.9136 24.6336 55.8637C24.8205 55.3749 24.9872 54.8759 25.2778 54.4502L25.2788 54.4522ZM22.6938 55.5704C22.6551 55.8016 22.6135 56.0134 22.5871 56.2263C22.522 56.763 22.4255 57.2986 22.4103 57.8374C22.3818 58.87 22.5535 59.8823 22.8553 60.8681C23.0799 61.6024 23.3268 62.3316 23.5778 63.0577C23.6743 63.3367 23.8085 63.6015 23.9304 63.8846C24.1214 63.7808 24.2769 63.6524 24.3897 63.4905C24.6183 63.1595 24.8215 62.8112 25.0491 62.4813C25.1447 62.3428 25.1325 62.2338 25.0603 62.0953C24.8398 61.6717 24.7281 61.2042 24.5492 60.7663C24.1438 59.7703 23.9568 58.7417 23.9609 57.6724C23.9609 57.5217 23.9609 57.372 23.9609 57.2742C23.8267 57.1367 23.7089 57.042 23.6245 56.9228C23.3146 56.486 23.0159 56.0409 22.6948 55.5724L22.6938 55.5704ZM54.8594 63.8948C54.8756 63.8867 54.8919 63.8775 54.9081 63.8694C55.0331 63.5689 55.1703 63.2736 55.279 62.9681C55.4569 62.4701 55.6072 61.9629 55.7841 61.4649C56.1529 60.4261 56.3551 59.3548 56.4202 58.2559C56.4638 57.5176 56.3317 56.7966 56.2169 56.0735C56.1915 55.9126 56.1621 55.7517 56.1306 55.5684C56.0361 55.712 55.9598 55.8311 55.8796 55.9472C55.652 56.2792 55.4254 56.6112 55.1917 56.9381C55.1317 57.0226 55.0575 57.1082 54.9701 57.1581C54.8827 57.208 54.8665 57.262 54.8685 57.3485C54.8868 58.0298 54.8543 58.7101 54.7019 59.3752C54.4793 60.3477 54.1308 61.2806 53.7233 62.191C53.6959 62.2511 53.6705 62.302 53.7162 62.3703C53.955 62.7379 54.1776 63.1168 54.4306 63.4752C54.5444 63.6362 54.7151 63.7563 54.8594 63.8948ZM36.9348 75.8722C36.8363 76.1543 36.757 76.4283 36.6462 76.69C36.4471 77.1605 36.5009 77.6035 36.754 78.0323C36.7804 78.0771 36.8261 78.1239 36.8728 78.1423C37.4531 78.3633 38.0363 78.5781 38.6592 78.6454C38.9447 78.6759 39.2333 78.7472 39.5158 78.7268C40.3622 78.6678 41.1802 78.4671 41.9657 78.1392C41.9941 78.127 42.0287 78.1087 42.0419 78.0842C42.1964 77.7879 42.3752 77.4844 42.2898 77.1371C42.1852 76.7104 42.0358 76.2949 41.9017 75.861C41.856 75.9008 41.8194 75.9303 41.7838 75.9629C41.3987 76.3163 40.9811 76.6228 40.5147 76.8621C40.2169 77.0149 39.906 77.0495 39.5798 77.0118C39.468 76.9986 39.3532 76.9996 39.2414 77.0118C38.9193 77.0485 38.6033 77.0322 38.3198 76.8621C37.9967 76.6686 37.6817 76.4599 37.3718 76.245C37.2133 76.135 37.0761 75.9945 36.9328 75.8712L36.9348 75.8722ZM45.258 34.6616C45.5699 34.9437 45.8951 35.2309 46.2131 35.5252C46.4641 35.7584 46.6978 36.0069 46.8319 36.3308C46.8452 36.3613 46.8746 36.3919 46.9041 36.4082C47.1205 36.5273 47.3339 36.6526 47.5575 36.7565C48.0015 36.9632 48.4669 37.0691 48.9618 37.0518C49.3022 37.0406 49.6436 37.0599 49.985 37.063C50.0836 37.063 50.1811 37.0538 50.3041 37.0477C50.238 36.9337 50.1943 36.842 50.1374 36.7595C49.4658 35.789 48.7199 34.8846 47.7851 34.1514C47.4975 33.9263 47.1571 33.8917 46.8055 33.8408C46.7933 34.074 46.6775 34.2125 46.4672 34.2766C46.0617 34.4019 45.6573 34.5323 45.2559 34.6596L45.258 34.6616ZM28.5203 37.0518C28.6442 37.0579 28.7367 37.0661 28.8292 37.0661C29.2031 37.064 29.576 37.063 29.9489 37.0528C30.1268 37.0487 30.3056 37.0355 30.4814 37.009C30.959 36.9357 31.3796 36.7096 31.8024 36.4937C31.8745 36.457 31.9588 36.399 31.9893 36.3287C32.1163 36.0375 32.3175 35.8032 32.5421 35.5924C32.8683 35.2869 33.2087 34.9967 33.543 34.7003C33.5582 34.686 33.5694 34.6677 33.5735 34.6626C33.1955 34.5435 32.8215 34.4223 32.4466 34.3092C32.2129 34.239 32.0239 34.1341 32.0188 33.8448C31.9273 33.856 31.8471 33.8611 31.7678 33.8774C31.525 33.9253 31.279 33.9671 31.0758 34.1249C30.1207 34.8653 29.3606 35.7839 28.6788 36.7738C28.6239 36.8532 28.5833 36.9418 28.5203 37.0528V37.0518ZM46.4895 33.8958C46.3676 33.7746 46.2558 33.6391 46.1207 33.5342C45.5912 33.1238 45.0629 32.7093 44.4735 32.3865C43.7836 32.0087 43.1099 31.5871 42.2878 31.5626C42.1303 31.5575 41.9718 31.5484 41.8153 31.5402C42.0836 31.9221 42.3447 32.2796 42.5896 32.6472C42.8335 33.0128 43.0082 33.409 43.0113 33.8489C44.1605 34.3693 45.3138 34.3927 46.4905 33.8947L46.4895 33.8958ZM32.3379 33.8998C33.5156 34.3805 34.6689 34.3765 35.8069 33.852C35.8709 32.915 36.503 32.2704 37.0253 31.5443C36.443 31.5443 35.8933 31.6064 35.3741 31.8488C34.4199 32.2948 33.541 32.859 32.723 33.519C32.5858 33.63 32.47 33.7674 32.3379 33.8988V33.8998Z" fill="#F7F8C5" stroke="#F7F8C5" stroke-width="0.3"/>
<path d="M7.46863 18.7372L7.01639 14.118C6.43495 14.3926 5.86966 14.4572 5.33668 14.328C4.8037 14.1988 4.33533 13.8758 3.93155 13.3913C3.38242 12.7129 3.1886 12.0023 3.3178 11.2593C3.44701 10.5164 3.8831 9.82189 4.6422 9.20815L6.75798 7.49609L12.54 14.6187L11.6194 15.3617L9.37444 12.5998L8.11466 13.6173L8.53459 17.8651L7.46863 18.7372ZM7.53322 12.6967L8.71225 11.7438L6.54801 9.07891L5.36899 10.0318C4.85216 10.4356 4.56143 10.8717 4.48068 11.3239C4.39992 11.7762 4.52913 12.2122 4.88445 12.6322C5.22363 13.0521 5.62741 13.2782 6.07964 13.2944C6.53187 13.2944 7.0164 13.1005 7.51708 12.6967H7.53322Z" fill="#F7F8C5"/>
<path d="M13.0567 3.49031L13.832 3.03809C14.155 3.60337 14.2358 4.13632 14.0904 4.62085C13.945 5.10538 13.6059 5.50919 13.089 5.81606C12.5561 6.13908 12.0392 6.23599 11.5547 6.12294C11.054 6.00988 10.6502 5.67068 10.2949 5.1377L11.054 4.68547C11.2801 5.04079 11.5385 5.26691 11.8293 5.34767C12.12 5.42842 12.4268 5.37998 12.7337 5.20232C13.0244 5.02466 13.2183 4.79855 13.2829 4.50783C13.3475 4.21712 13.2828 3.87795 13.0729 3.50648L13.0567 3.49031ZM14.155 13.617L10.8118 7.96413L11.7485 7.39883L13.945 11.1136L15.7217 4.92773L19.0649 10.5806L18.112 11.1459L15.9478 7.47962L14.1389 13.6009L14.155 13.617Z" fill="#F7F8C5"/>
<path d="M26.1556 6.47865L27.1569 8.93359L26.204 9.3212L25.5903 7.803L20.5189 9.87033L18.0801 3.89448L19.1137 3.47453L21.1811 8.52981L24.2013 7.30232L22.1501 2.24704L23.1838 1.82715L25.235 6.88243L26.1879 6.49477L26.1556 6.47865Z" fill="#F7F8C5"/>
<path d="M30.2411 6.59192C29.3044 6.81803 28.4484 6.70498 27.6731 6.2366C26.8979 5.76822 26.3972 5.07372 26.1711 4.16927C25.9449 3.26481 26.058 2.40884 26.5264 1.63359C26.9948 0.858346 27.6893 0.35766 28.626 0.115395C29.5466 -0.110719 30.4026 0.00234 31.1779 0.47072C31.9531 0.939099 32.4538 1.63359 32.6799 2.53805C32.906 3.44251 32.793 4.29847 32.3246 5.07372C31.8562 5.84897 31.1617 6.34969 30.2411 6.5758V6.59192ZM28.2869 5.33214C28.7875 5.65516 29.3528 5.73592 29.9827 5.59057C30.6126 5.42905 31.0648 5.08988 31.3555 4.57304C31.6463 4.05621 31.7109 3.47481 31.5655 2.84492C31.4201 2.21503 31.081 1.73048 30.5803 1.40746C30.0796 1.08444 29.5143 1.00368 28.8844 1.14903C28.2545 1.31054 27.8023 1.64972 27.4954 2.16656C27.2047 2.68339 27.124 3.26484 27.2855 3.89473C27.447 4.52462 27.77 5.00912 28.2869 5.33214Z" fill="#F7F8C5"/>
</svg>
