<svg width="37" height="50" viewBox="0 0 37 50" fill="none" xmlns="http://www.w3.org/2000/svg">
<path d="M33.2944 16.1573C33.3218 16.1919 33.3452 16.2296 33.3767 16.2612C33.8065 16.6981 34.1429 17.2093 34.5067 17.6982C34.8562 18.1676 35.1092 18.6799 35.2637 19.2441C35.4669 19.9865 35.6762 20.731 35.7443 21.4978C35.8073 22.2015 35.8225 22.9124 35.8042 23.6192C35.791 24.1294 35.6305 24.6202 35.3907 25.0765C35.348 25.158 35.346 25.2303 35.3693 25.3199C35.5228 25.9187 35.6894 26.5145 35.8103 27.1194C35.9587 27.8638 35.917 28.6164 35.8591 29.3711C35.7768 30.4445 35.4476 31.4507 35.0767 32.4487C34.8989 32.9284 34.7759 33.4314 34.5107 33.8755C34.4081 34.0476 34.3776 34.2177 34.3908 34.4162C34.4873 35.8349 34.1876 37.1853 33.6562 38.4898C33.4489 38.998 33.206 39.4909 32.9703 39.9869C32.5963 40.7701 32.0192 41.4015 31.4278 42.0196C31.0792 42.3842 30.7185 42.7366 30.2958 43.0177C30.2348 43.0584 30.1749 43.1093 30.1068 43.1266C29.9869 43.1572 29.933 43.2397 29.8782 43.3385C29.3244 44.3355 28.6548 45.2429 27.7616 45.9619C26.6977 46.8183 25.5047 47.4324 24.198 47.8235C23.7672 47.9528 23.3312 48.0669 22.8943 48.1749C22.751 48.2105 22.5976 48.2044 22.4492 48.2227C22.3984 48.2288 22.3476 48.2482 22.3009 48.2706C21.6313 48.5955 20.9515 48.8938 20.2219 49.0578C19.473 49.2258 18.717 49.3226 17.9498 49.2625C17.0048 49.1882 16.0883 48.9875 15.2215 48.5893C14.9746 48.4763 14.7317 48.35 14.4787 48.2522C14.3588 48.2054 14.2176 48.2125 14.0865 48.1932C13.9818 48.1779 13.8761 48.1698 13.7745 48.1433C12.7554 47.8805 11.7474 47.5842 10.8095 47.0903C10.0951 46.7134 9.41127 46.2898 8.81074 45.747C8.0334 45.0453 7.42067 44.2122 6.92277 43.2926C6.88212 43.2183 6.82624 43.1786 6.75307 43.1368C6.55391 43.0217 6.35678 42.8975 6.17896 42.7508C5.64041 42.3078 5.17909 41.7874 4.71573 41.2681C4.36517 40.8749 4.09284 40.434 3.84897 39.9737C3.2586 38.8605 2.80541 37.6965 2.56052 36.4561C2.4142 35.7167 2.38981 34.9692 2.44163 34.2187C2.4457 34.1657 2.43452 34.1036 2.41013 34.0578C2.20894 33.685 2.03518 33.3021 1.90511 32.8958C1.70087 32.2562 1.44176 31.633 1.26495 30.9873C0.792451 29.257 0.781274 27.5217 1.31169 25.7965C1.36148 25.6335 1.41636 25.4706 1.45497 25.3046C1.47021 25.2394 1.47021 25.1559 1.44176 25.0989C1.13692 24.4858 1.00482 23.8371 0.992629 23.1537C0.96621 21.7422 1.21313 20.3735 1.62974 19.0333C1.73136 18.7064 1.87158 18.3785 2.05957 18.0943C2.41826 17.5536 2.82268 17.0413 3.21287 16.5219C3.30941 16.3936 3.42829 16.2805 3.50857 16.1919C3.45979 16.0555 3.40187 15.9536 3.38968 15.8477C3.23726 14.4933 3.42728 13.1724 3.8317 11.8841C4.13857 10.9064 4.61513 10.0123 5.29289 9.23015C5.73186 8.72401 6.13425 8.18629 6.56407 7.672C6.74393 7.45712 6.95224 7.26769 7.14835 7.06605C7.1707 7.04263 7.20119 7.02226 7.21338 6.99476C7.52533 6.31243 8.008 5.74926 8.4744 5.1759C8.84834 4.7166 9.26597 4.30516 9.74456 3.95178C10.0484 3.72671 10.3969 3.65237 10.7515 3.58312C10.8908 3.55562 11.031 3.53423 11.1702 3.50368C11.2068 3.49554 11.2434 3.47211 11.2728 3.44665C11.4141 3.32444 11.5462 3.19103 11.6935 3.07799C12.3987 2.54231 13.0988 1.99747 13.8924 1.59214C14.3741 1.34569 14.8801 1.16441 15.4217 1.13794C15.6971 1.12368 15.9765 1.19191 16.2549 1.21737C16.2966 1.22144 16.3596 1.21126 16.3789 1.18376C16.6268 0.843617 16.9875 0.734648 17.3777 0.670489C18.1967 0.53606 19.0086 0.55541 19.8185 0.748906C20.0674 0.807973 20.2442 0.960733 20.4038 1.14201C20.4637 1.21024 20.5166 1.23978 20.61 1.21533C21.426 1.00249 22.1779 1.21737 22.9014 1.5789C23.4664 1.861 23.9907 2.20929 24.4907 2.59527C24.7315 2.78164 24.9784 2.96189 25.2223 3.14419C25.2578 3.17067 25.3015 3.19307 25.3269 3.2277C25.52 3.50165 25.8147 3.55562 26.1124 3.58821C26.6692 3.64931 27.1143 3.92632 27.5116 4.29498C28.2889 5.01499 28.9494 5.83379 29.487 6.74627C29.6038 6.94588 29.7369 7.11901 29.8955 7.28195C30.4208 7.82069 30.9187 8.38386 31.3546 9.00101C31.5985 9.34625 31.886 9.66094 32.1167 10.0143C32.7366 10.9645 33.0993 12.0165 33.3076 13.1286C33.4763 14.0268 33.5403 14.9281 33.4397 15.8386C33.4275 15.9496 33.3686 16.0545 33.332 16.1624C33.3198 16.1614 33.3086 16.1594 33.2964 16.1583L33.2944 16.1573ZM12.6822 30.2153C12.6995 30.2459 12.7198 30.2887 12.7462 30.3284C13.05 30.7958 13.3549 31.2612 13.6577 31.7287C14.5417 33.0903 15.5436 34.3592 16.6634 35.5334C17.0262 35.9133 17.4123 36.2646 17.899 36.4907C18.2099 36.6353 18.5097 36.6944 18.8318 36.5335C19.0787 36.4093 19.3226 36.286 19.539 36.1078C20.1233 35.6271 20.6161 35.0599 21.1049 34.4875C22.2166 33.1901 23.1727 31.7816 24.0751 30.3335C24.1015 30.2907 24.1238 30.2459 24.1431 30.2092C23.946 30.1359 23.758 30.0809 23.5832 29.9994C22.6606 29.5687 21.8121 29.0157 20.9769 28.4352C20.1101 27.8333 19.3968 27.1011 18.8694 26.1855C18.7231 25.9309 18.5585 25.6865 18.4122 25.4523C18.2547 25.7038 18.0839 25.9645 17.9254 26.2324C17.4306 27.0715 16.7894 27.7702 15.9897 28.3303C14.9482 29.0605 13.9036 29.7805 12.6822 30.2143V30.2153ZM18.8908 24.7516C18.9192 24.8158 18.9405 24.8769 18.9731 24.9319C19.1367 25.2129 19.3023 25.493 19.4699 25.7721C19.7037 26.1601 19.9861 26.5094 20.3001 26.8373C20.8549 27.4188 21.4636 27.9372 22.0997 28.425C22.7277 28.9067 23.4166 29.2723 24.1706 29.5126C24.2732 29.5452 24.4144 29.5524 24.5049 29.5065C24.6573 29.4291 24.7975 29.313 24.9174 29.1888C25.2893 28.8028 25.6683 28.4209 26.0087 28.0074C26.8105 27.0318 27.4476 25.9493 27.9861 24.8086C28.3418 24.055 28.5369 23.2698 28.4099 22.4297C28.3997 22.3645 28.3631 22.2932 28.3184 22.2443C27.852 21.729 27.35 21.2463 26.967 20.6597C26.9477 20.6312 26.8999 20.6108 26.8633 20.6057C26.715 20.5884 26.5615 20.5976 26.4172 20.5639C25.4174 20.3348 24.5313 19.8735 23.7377 19.2258C23.6828 19.181 23.6269 19.1361 23.567 19.0873C23.5497 19.1178 23.5396 19.1351 23.5294 19.1524C23.1656 19.8012 22.8262 20.4652 22.434 21.0966C21.8741 21.9968 21.303 22.894 20.5206 23.6304C20.0359 24.0856 19.5573 24.5428 18.8918 24.7516H18.8908ZM17.9214 24.7822C17.6663 24.6426 17.4143 24.5337 17.1938 24.3799C16.5496 23.9298 15.9917 23.3798 15.5192 22.7555C14.8313 21.8471 14.2186 20.8878 13.6871 19.8765C13.549 19.6148 13.4036 19.3561 13.2573 19.0883C13.2035 19.1321 13.1527 19.1728 13.1029 19.2146C12.3306 19.847 11.471 20.3073 10.4975 20.5426C10.3227 20.5843 10.1368 20.5823 9.95693 20.6047C9.9234 20.6088 9.87869 20.6271 9.86142 20.6536C9.47529 21.2473 8.96722 21.7371 8.49371 22.2555C8.45611 22.2973 8.42461 22.3563 8.41648 22.4103C8.28337 23.2902 8.49879 24.107 8.87882 24.8901C9.30255 25.7619 9.77098 26.6082 10.3471 27.3903C10.906 28.148 11.4923 28.8782 12.2412 29.4617C12.3621 29.5564 12.483 29.5758 12.6141 29.5269C12.921 29.4118 13.2309 29.2978 13.5286 29.1613C14.1759 28.8639 14.7307 28.425 15.2855 27.984C15.8159 27.5614 16.2925 27.0848 16.7518 26.5908C17.2202 26.0867 17.5373 25.4767 17.8767 24.883C17.898 24.8453 17.9122 24.8025 17.9203 24.7822H17.9214ZM25.1013 30.0534C25.1105 30.0667 25.1237 30.0911 25.14 30.1135C26.0382 31.36 26.9355 32.6086 27.8368 33.8541C28.2097 34.3694 28.6273 34.847 29.1313 35.2411C29.175 35.2758 29.2218 35.3073 29.2726 35.345C29.68 35.0293 30.0763 34.7075 30.4015 34.3164C31.0356 33.5537 31.6503 32.7756 32.1513 31.913C32.6461 31.0626 33.0536 30.1848 33.1481 29.1868C33.1938 28.6989 33.2284 28.2142 33.1481 27.7274C32.9926 26.7752 32.641 25.8892 32.2326 25.0225C32.1665 24.882 32.07 24.7913 31.9287 24.7272C31.2256 24.4064 30.559 24.0204 29.9148 23.5927C29.5906 23.3778 29.2705 23.1558 28.9444 22.9348C28.9372 22.9552 28.9271 22.9765 28.923 23C28.8671 23.2953 28.8092 23.5906 28.7574 23.887C28.5206 25.2292 27.9628 26.4503 27.2799 27.6082C26.7221 28.5553 25.9884 29.368 25.1003 30.0544L25.1013 30.0534ZM7.88606 22.9165C7.70316 23.0488 7.54261 23.1731 7.37495 23.2861C6.55696 23.8391 5.71662 24.3544 4.81836 24.771C4.74418 24.8056 4.67509 24.8789 4.63546 24.9522C4.33468 25.5042 4.12942 26.0959 3.92417 26.6876C3.59596 27.6327 3.55429 28.6012 3.72704 29.5778C3.8571 30.3131 4.15483 30.9914 4.51555 31.6421C5.04699 32.6004 5.71154 33.463 6.40962 34.3001C6.74088 34.6973 7.14327 35.0222 7.55175 35.344C7.59341 35.3145 7.62695 35.2921 7.65845 35.2676C8.05474 34.958 8.41445 34.6097 8.71319 34.2065C9.54438 33.0821 10.3675 31.9507 11.1915 30.8203C11.3775 30.5646 11.5523 30.3009 11.7169 30.0616C9.45801 28.206 8.32706 25.7578 7.88504 22.9154L7.88606 22.9165ZM24.7061 30.2612C24.6461 30.3793 24.5973 30.476 24.5465 30.5718C24.0629 31.4904 23.5284 32.3794 22.9248 33.2247C21.8721 34.6983 20.7482 36.1078 19.222 37.1486C19.2566 37.1914 19.2942 37.2393 19.3318 37.2851C19.4384 37.4134 19.5533 37.5356 19.6508 37.67C20.292 38.5611 20.9362 39.4502 21.5652 40.3515C21.931 40.877 22.4157 41.266 22.9289 41.6265C22.9908 41.6703 23.0914 41.6907 23.1666 41.6774C23.4826 41.6225 23.7773 41.5033 24.0354 41.3118C24.4236 41.0236 24.8067 40.7293 25.1847 40.4289C25.8045 39.937 26.3329 39.3484 26.8836 38.7842C27.7219 37.9257 28.3022 36.9083 28.6995 35.7809C28.7117 35.7473 28.6984 35.6831 28.673 35.6607C28.1213 35.1719 27.597 34.6545 27.1641 34.0557C26.7018 33.4172 26.2597 32.7634 25.8228 32.1065C25.5871 31.7511 25.3848 31.3743 25.1654 31.0087C25.018 30.7632 24.8656 30.5198 24.7071 30.2601L24.7061 30.2612ZM12.1213 30.2581C11.9587 30.5239 11.8073 30.7683 11.659 31.0158C11.4476 31.3682 11.2454 31.7246 11.029 32.0739C10.8593 32.3469 10.6682 32.6065 10.4985 32.8785C9.89901 33.8408 9.18264 34.7055 8.36466 35.4866C8.28032 35.567 8.14111 35.6302 8.11977 35.7229C8.09741 35.8186 8.18887 35.9398 8.23053 36.0498C8.57601 36.9694 9.05867 37.8075 9.71814 38.5367C10.4995 39.4003 11.3257 40.2171 12.2524 40.9269C12.67 41.2467 13.0886 41.5603 13.6191 41.6734C13.7329 41.6978 13.8264 41.6866 13.9168 41.6194C14.0733 41.5033 14.2399 41.3984 14.3842 41.2681C14.6301 41.044 14.8913 40.8271 15.0925 40.5664C15.5416 39.9838 15.9552 39.3738 16.3901 38.7791C16.7742 38.2546 17.1664 37.7362 17.5556 37.2148C17.5738 37.1904 17.5881 37.1639 17.6003 37.1445C17.4204 37.0152 17.2446 36.8971 17.079 36.7667C15.8556 35.8033 14.8902 34.6026 13.9879 33.349C13.2888 32.3784 12.671 31.3549 12.1213 30.2581ZM17.017 14.7998C16.4774 15.4954 15.9552 16.196 15.4034 16.8722C14.8486 17.5525 14.2501 18.1972 13.5906 18.7899C13.7319 19.0221 13.866 19.2492 14.0042 19.4732C14.562 20.3796 15.1626 21.2514 15.9257 22.0019C16.4571 22.5254 16.9997 23.0387 17.6368 23.4277C18.339 23.8575 18.4894 23.8595 19.1885 23.4257C19.6031 23.168 19.979 22.8411 20.3509 22.5203C21.2726 21.7239 22.0184 20.7778 22.6555 19.7421C22.8496 19.4274 23.0416 19.1117 23.2357 18.794C21.9412 17.5851 20.8316 16.2286 19.8347 14.7774C18.8796 15.6186 17.9386 15.6104 17.017 14.7988V14.7998ZM22.7043 10.331C22.6819 10.3881 22.6667 10.4421 22.6413 10.4909C22.2999 11.157 21.9574 11.822 21.615 12.486C21.2543 13.1856 20.7838 13.8069 20.2463 14.3772C20.1701 14.4586 20.1558 14.5157 20.2249 14.6022C20.542 14.9984 20.8224 15.4332 21.1801 15.7887C22.0763 16.6787 22.9665 17.577 24.008 18.3082C24.7 18.794 25.4224 19.2176 26.1866 19.571C26.3979 19.6688 26.6316 19.7217 26.8552 19.792C26.8836 19.8012 26.9294 19.8063 26.9487 19.79C27.0422 19.7136 27.1509 19.6443 27.2169 19.5466C27.853 18.5984 28.2646 17.5556 28.484 16.4374C28.6253 15.7184 28.7208 14.9913 28.7513 14.258C28.7594 14.0564 28.7523 13.8537 28.7523 13.648C28.7523 13.648 28.7462 13.6419 28.7391 13.6419C28.7106 13.6409 28.6822 13.6429 28.6537 13.6419C28.2849 13.6184 27.9181 13.593 27.5665 13.4596C26.7404 13.1449 25.9529 12.7579 25.1979 12.2955C24.6705 11.9717 24.2336 11.5531 23.8332 11.0908C23.7011 10.938 23.5965 10.7628 23.4766 10.5989C23.4593 10.5755 23.4298 10.5541 23.4014 10.5459C23.1697 10.4726 22.936 10.4023 22.7053 10.3321L22.7043 10.331ZM14.1261 10.331C13.8944 10.4013 13.6577 10.4726 13.4219 10.5459C13.3965 10.5541 13.3701 10.5714 13.3549 10.5918C13.2482 10.7394 13.1598 10.9034 13.0368 11.0358C12.7645 11.3311 12.5034 11.6458 12.1894 11.8902C11.3277 12.5624 10.3532 13.0369 9.33709 13.43C9.06172 13.537 8.77924 13.6011 8.48456 13.6174C8.34433 13.6256 8.20411 13.6388 8.05474 13.65C8.05474 13.707 8.05067 13.76 8.05474 13.8119C8.10046 14.3792 8.13196 14.9495 8.19801 15.5147C8.33316 16.6716 8.61767 17.7878 9.17959 18.8174C9.35945 19.1463 9.50272 19.5028 9.81366 19.7441C9.87564 19.792 9.92543 19.8052 10.0006 19.7879C10.3593 19.7054 10.6865 19.5476 11.0178 19.3907C11.9496 18.9488 12.797 18.3734 13.5886 17.7226C14.2125 17.2093 14.7825 16.6309 15.3719 16.0769C15.8332 15.643 16.2163 15.143 16.5841 14.6297C16.6553 14.5309 16.6664 14.4678 16.5689 14.3649C16.0547 13.8231 15.6026 13.2325 15.254 12.5685C14.8913 11.877 14.5377 11.1814 14.181 10.4869C14.1566 10.439 14.1424 10.385 14.1231 10.331H14.1261ZM22.8161 42.429C22.7145 42.3526 22.6311 42.2936 22.5529 42.2304C22.4736 42.1673 22.3954 42.1021 22.3202 42.0339C21.5083 41.2996 20.8102 40.4645 20.168 39.5806C19.6874 38.9196 19.2058 38.2577 18.8206 37.5346C18.7556 37.4134 18.7038 37.3309 18.5514 37.392C18.5046 37.4103 18.4416 37.4144 18.3949 37.3991C18.1439 37.3156 18.0545 37.4633 17.9366 37.6537C17.5627 38.2587 17.1643 38.8483 16.764 39.437C16.2407 40.2059 15.6351 40.9086 14.9898 41.5746C14.6941 41.8791 14.3639 42.151 14.0397 42.4463C14.057 42.4728 14.0875 42.5207 14.118 42.5675C14.6149 43.3211 15.2083 43.9963 15.8159 44.6593C16.3535 45.2459 16.9835 45.7012 17.7405 45.972C18.1622 46.1228 18.5808 46.1442 19.0035 46.0026C19.7057 45.7673 20.3235 45.3844 20.8285 44.8447C21.3081 44.3314 21.7623 43.7927 22.2135 43.2539C22.4289 42.9963 22.6128 42.7121 22.8181 42.43L22.8161 42.429ZM27.5075 20.3929C28.0949 21.0375 28.6913 21.6883 29.2827 22.3431C29.8944 23.0203 30.6484 23.4918 31.4725 23.8585C31.696 23.9583 31.9338 24.0255 32.1472 24.1009C32.6278 23.2831 32.8737 22.4083 33.1176 21.5345C33.3046 20.8664 33.4153 20.182 33.4489 19.4885C33.5007 18.409 33.2995 17.3672 32.9327 16.3549C32.892 16.2429 32.828 16.1726 32.7213 16.1237C32.0771 15.8284 31.4664 15.477 30.9065 15.0391C30.372 14.6216 29.8264 14.2183 29.2848 13.8079C29.2573 13.7865 29.2299 13.7651 29.1862 13.7315C29.1923 13.7895 29.1933 13.8252 29.2004 13.8598C29.3091 14.4617 29.3081 15.0727 29.2421 15.6736C29.1181 16.8101 28.8336 17.9141 28.4078 18.9763C28.2016 19.4926 27.8845 19.9448 27.5096 20.3929H27.5075ZM7.64219 13.7284C7.60053 13.762 7.57919 13.7794 7.55785 13.7967C6.71548 14.4749 5.86193 15.1369 4.93318 15.695C4.65578 15.862 4.35602 15.9913 4.07151 16.1482C4.00749 16.1838 3.94449 16.252 3.91807 16.3192C3.84491 16.5087 3.79309 16.7062 3.72907 16.8987C3.38663 17.9202 3.30839 18.9681 3.42829 20.0323C3.51873 20.8318 3.72196 21.6048 3.95668 22.3747C4.13755 22.9704 4.3926 23.5285 4.66086 24.0897C4.69846 24.0815 4.73504 24.0774 4.76959 24.0672C5.54794 23.83 6.25923 23.4593 6.89228 22.9511C7.47453 22.4836 7.95719 21.9133 8.45204 21.3563C8.74266 21.0283 9.03429 20.7014 9.30763 20.3939C9.18467 20.2207 9.079 20.0598 8.96113 19.9081C8.71116 19.5873 8.52216 19.2339 8.37787 18.8551C8.19395 18.3723 8.04966 17.8784 7.91553 17.3784C7.65032 16.3946 7.51111 15.4027 7.57106 14.3843C7.58325 14.1735 7.6178 13.9647 7.64524 13.7284H7.64219ZM9.08408 38.6365C9.00177 38.943 8.92353 39.2323 8.84529 39.5215C8.54451 40.6265 8.00901 41.6174 7.36885 42.5553C7.28756 42.6745 7.28451 42.7549 7.35666 42.8781C7.8637 43.7489 8.52012 44.4903 9.27105 45.1553C9.97827 45.7816 10.8318 46.1645 11.6498 46.6055C11.7636 46.6666 11.8856 46.7134 12.0055 46.7644C12.607 47.021 13.2126 47.2624 13.8538 47.409C14.2145 47.4915 14.495 47.3469 14.7155 47.1045C14.9858 46.8071 15.1524 46.4415 15.2367 46.0444C15.2815 45.8346 15.3211 45.6227 15.3567 45.4109C15.3638 45.3692 15.3536 45.308 15.3262 45.2785C14.809 44.7164 14.3984 44.0748 13.9849 43.4362C13.7644 43.0961 13.5581 42.7458 13.3417 42.4015C13.3234 42.372 13.2807 42.3547 13.2461 42.3374C12.9992 42.2152 12.7391 42.1143 12.5064 41.9697C11.4059 41.2884 10.5087 40.3769 9.67648 39.3962C9.47224 39.1549 9.2873 38.8972 9.08306 38.6345L9.08408 38.6365ZM27.7443 38.6324C27.7067 38.6813 27.6762 38.718 27.6488 38.7567C27.0381 39.6172 26.3136 40.3759 25.5271 41.0725C24.9367 41.596 24.3067 42.0726 23.5538 42.3496C23.5263 42.3598 23.4989 42.3832 23.4837 42.4076C23.2886 42.7213 23.1026 43.0411 22.9004 43.3507C22.4665 44.0137 22.0458 44.6878 21.5063 45.2755C21.4758 45.3091 21.4687 45.3804 21.4768 45.4292C21.5022 45.581 21.5581 45.7297 21.5723 45.8824C21.615 46.3326 21.804 46.7216 22.0784 47.0638C22.2765 47.3102 22.5427 47.4813 22.8841 47.4233C23.0955 47.3876 23.3058 47.3347 23.5091 47.2654C24.2102 47.0271 24.9093 46.7807 25.5505 46.3977C25.7131 46.301 25.8929 46.2328 26.0616 46.1452C27.5157 45.3987 28.6192 44.2846 29.4616 42.8934C29.5429 42.76 29.5398 42.6704 29.4494 42.539C28.7726 41.5542 28.228 40.5053 27.9313 39.3392C27.8723 39.108 27.8093 38.8789 27.7433 38.6324H27.7443ZM19.9414 7.50702C19.8032 7.64756 19.6589 7.80847 19.5004 7.95308C19.3419 8.09769 19.1712 8.23212 19.0005 8.36248C18.5737 8.68735 18.2475 8.69651 17.8309 8.3635C17.523 8.11806 17.2395 7.84309 16.9469 7.58034C16.9184 7.55488 16.9012 7.51517 16.8727 7.47341C16.7406 7.66589 16.637 7.83596 16.5161 7.99178C16.1726 8.4358 15.8261 8.87677 15.4745 9.31468C15.3709 9.44402 15.255 9.56725 15.1301 9.67622C14.9228 9.85647 14.7023 10.0215 14.4747 10.2037C14.5834 10.4074 14.687 10.6335 14.8181 10.8423C15.4257 11.8169 16.1055 12.7416 16.8361 13.6256C17.1318 13.983 17.4499 14.3211 17.8736 14.5381C18.2323 14.7224 18.5879 14.7234 18.9477 14.5411C19.2952 14.3649 19.5736 14.1032 19.8246 13.813C20.6527 12.8536 21.3935 11.8291 22.0611 10.7527C22.1739 10.5714 22.2592 10.3728 22.3608 10.1762C21.7877 9.85342 21.3813 9.3768 21.0043 8.86557C20.667 8.40932 20.3052 7.96937 19.9424 7.50702H19.9414ZM2.84504 34.513C2.88162 34.792 2.91718 35.1026 2.96392 35.4122C3.06757 36.1139 3.21186 36.8064 3.45776 37.4735C3.74634 38.2536 4.10504 38.9991 4.51251 39.7242C4.94741 40.4992 5.44227 41.2243 6.0997 41.8282C6.25212 41.9687 6.40352 42.1092 6.55798 42.2467C6.62098 42.3027 6.68296 42.3027 6.74596 42.2315C6.86383 42.097 6.99999 41.9779 7.10872 41.8373C7.57716 41.2355 7.98259 40.5939 8.28133 39.8891C8.50183 39.3687 8.71827 38.8463 8.73758 38.2689C8.73961 38.2139 8.72132 38.1507 8.69185 38.1039C8.30572 37.4725 7.91146 36.8461 7.53041 36.2117C7.45319 36.0834 7.39933 35.9581 7.22862 35.9367C7.17578 35.9306 7.12091 35.895 7.07824 35.8593C6.81506 35.6434 6.55086 35.4296 6.2948 35.2045C6.17286 35.0976 6.0743 34.9652 5.95643 34.8531C5.36199 34.2889 4.86612 33.6494 4.48202 32.9233C4.46881 32.8988 4.45154 32.8774 4.43223 32.8479C4.41191 32.8774 4.3926 32.8998 4.38142 32.9243C4.13146 33.463 3.73212 33.8755 3.27283 34.2339C3.14784 34.3317 3.00558 34.4061 2.843 34.5089L2.84504 34.513ZM32.3931 32.8316C32.3545 32.9029 32.3301 32.9538 32.3006 33.0007C32.1543 33.2349 32.012 33.4722 31.8596 33.7023C31.441 34.3358 30.8841 34.846 30.3537 35.3776C30.1444 35.5874 29.8975 35.7819 29.6323 35.9072C29.4443 35.9958 29.3376 36.1058 29.2614 36.2789C29.24 36.3268 29.2126 36.3726 29.1842 36.4174C28.8326 36.9796 28.481 37.5407 28.1294 38.1029C28.106 38.1395 28.0715 38.1833 28.0756 38.22C28.0949 38.4094 28.106 38.6029 28.1538 38.7862C28.4099 39.7741 28.8702 40.6672 29.4575 41.4941C29.6262 41.7314 29.8233 41.9504 30.0184 42.1673C30.1647 42.3292 30.1901 42.3343 30.3507 42.1785C30.6809 41.8597 31.0152 41.543 31.317 41.1978C31.7926 40.6529 32.1421 40.0225 32.4896 39.3901C33.1146 38.2505 33.5921 37.061 33.7994 35.7728C33.8685 35.3399 33.9254 34.9051 33.9813 34.512C33.2649 34.1046 32.7406 33.5669 32.3911 32.8306L32.3931 32.8316ZM18.277 0.953605C18.0413 0.996378 17.6744 1.06054 17.3086 1.12775C16.9713 1.18987 16.6969 1.38337 16.4713 1.61658C15.9917 2.11458 15.6168 2.68896 15.3485 3.33055C15.1748 3.74504 15.1677 4.14222 15.4298 4.52412C15.441 4.54042 15.4501 4.55976 15.4593 4.57708C15.884 5.38773 16.4632 6.08635 17.0627 6.76664C17.333 7.0742 17.6145 7.38277 17.9356 7.63126C18.3553 7.95512 18.4548 7.93577 18.8897 7.63737C19.0523 7.52637 19.1936 7.37972 19.3318 7.23714C19.8601 6.69433 20.3479 6.11486 20.7838 5.49669C21.047 5.12294 21.2614 4.71354 21.4951 4.31942C21.6252 4.10047 21.6323 3.87031 21.5652 3.62589C21.427 3.12382 21.1821 2.6747 20.8742 2.26327C20.668 1.9883 20.4901 1.68991 20.1853 1.48623C20.0349 1.38541 19.8957 1.25098 19.726 1.19497C19.3013 1.05544 18.8623 0.974991 18.276 0.953605H18.277ZM21.9087 4.54347C21.8711 4.62494 21.8325 4.71354 21.7877 4.79909C21.3762 5.5965 20.8885 6.34604 20.3418 7.05485C20.2808 7.13428 20.2818 7.18011 20.3499 7.24631C20.4282 7.32371 20.4932 7.41231 20.5684 7.49276C21.173 8.14658 21.7776 8.80039 22.3842 9.45217C22.5112 9.58863 22.6677 9.68029 22.8496 9.72815C23.0925 9.79129 23.3333 9.86767 23.5792 9.91758C24.1756 10.0388 24.7762 10.1345 25.3889 10.0357C25.4621 10.0235 25.5007 9.99497 25.5342 9.93081C25.7029 9.60391 25.7618 9.24645 25.7628 8.89103C25.7649 8.35026 25.707 7.8105 25.6978 7.26973C25.6897 6.76053 25.4397 6.37456 25.1237 6.01404C25.0891 5.97432 25.0546 5.93359 25.017 5.89693C24.6227 5.51604 24.2285 5.13414 23.8312 4.75632C23.8048 4.73187 23.7529 4.72576 23.7133 4.72576C23.4176 4.72067 23.1209 4.739 22.8283 4.70947C22.5234 4.67892 22.2226 4.60152 21.9097 4.54245L21.9087 4.54347ZM11.0269 8.70059C11.0706 8.98268 11.1133 9.30857 11.1743 9.6314C11.1966 9.74852 11.2616 9.85749 11.3135 9.9685C11.3257 9.99396 11.3572 10.0225 11.3826 10.0265C11.535 10.05 11.6884 10.0887 11.8398 10.0826C12.416 10.0612 12.9881 9.99905 13.55 9.85851C13.992 9.7475 14.3781 9.5703 14.6901 9.2108C15.2703 8.5407 15.8789 7.89605 16.4795 7.24427C16.5476 7.17095 16.5364 7.12715 16.4795 7.05281C15.9145 6.3104 15.3983 5.53743 14.9888 4.69623C14.9075 4.52921 14.9126 4.53329 14.7348 4.57402C14.1952 4.69827 13.6546 4.80927 13.0958 4.72475C13.0632 4.71965 13.0175 4.739 12.9911 4.76141C12.8275 4.90195 12.6629 5.04147 12.5074 5.19016C12.0796 5.5965 11.6539 6.00691 11.3399 6.51204C11.2667 6.63018 11.1986 6.76766 11.1844 6.90311C11.1224 7.48563 11.0808 8.0702 11.0279 8.70262L11.0269 8.70059ZM10.6601 7.26362C10.4843 7.32574 10.3207 7.39601 10.15 7.44184C9.55048 7.60377 8.94182 7.63636 8.32706 7.53961C8.24882 7.52739 8.20309 7.54368 8.16041 7.61701C7.86066 8.13741 7.62593 8.68429 7.47249 9.26682C7.27943 9.99497 7.27638 10.7201 7.49688 11.4431C7.53753 11.5755 7.57207 11.711 7.62695 11.8373C7.79664 12.2243 7.97345 12.6082 8.15127 12.9911C8.16448 13.0186 8.21122 13.0512 8.23866 13.0481C8.89813 12.9881 9.53727 12.8384 10.1317 12.544C10.9914 12.1183 11.7646 11.5735 12.3753 10.8189C12.4119 10.7741 12.4495 10.7313 12.5023 10.6692C12.1619 10.6692 11.854 10.6763 11.5462 10.6651C11.4364 10.661 11.3185 10.6325 11.222 10.5806C10.9009 10.4115 10.7079 10.1365 10.6388 9.78111C10.5107 9.12119 10.4772 8.45719 10.5819 7.78912C10.6083 7.61701 10.6327 7.4449 10.6591 7.2626L10.6601 7.26362ZM26.1764 7.26566C26.1723 7.27992 26.1673 7.28704 26.1683 7.29417C26.1703 7.31454 26.1744 7.33389 26.1784 7.35426C26.3298 8.14556 26.3593 8.93991 26.1927 9.73223C26.1561 9.90739 26.0911 10.0897 25.9925 10.2374C25.8441 10.4604 25.6338 10.6366 25.3544 10.663C25.0963 10.6875 24.8351 10.6742 24.576 10.6763C24.5008 10.6763 24.4256 10.6763 24.3392 10.6763C24.3535 10.6997 24.3606 10.714 24.3697 10.7252C24.8676 11.3698 25.4976 11.8617 26.1906 12.2701C26.5168 12.4626 26.8704 12.6123 27.222 12.7559C27.6335 12.9239 28.0735 12.984 28.5135 13.042C28.6202 13.0563 28.6609 13.0268 28.7076 12.9392C29.0389 12.3241 29.3122 11.6865 29.428 10.994C29.4768 10.7028 29.5103 10.4013 29.49 10.109C29.4301 9.2159 29.114 8.40016 28.673 7.62821C28.6273 7.54776 28.5775 7.52739 28.4881 7.54063C27.723 7.6496 26.9741 7.59562 26.2547 7.2901C26.2303 7.27992 26.2028 7.27381 26.1774 7.26566H26.1764ZM7.2337 7.25853C7.05486 7.47036 6.88619 7.69033 6.69719 7.89096C6.22062 8.39914 5.83652 8.97148 5.50527 9.58048C5.37418 9.82185 5.28985 10.0917 5.14454 10.3239C4.77568 10.9166 4.52673 11.5562 4.3357 12.2232C4.03289 13.2773 3.84389 14.3456 3.89267 15.4465C3.89673 15.531 3.90486 15.6145 3.91096 15.7001C4.32554 15.6227 7.29061 13.6001 7.57614 13.2141C7.44607 12.9769 7.29366 12.7569 7.19712 12.5135C6.84453 11.6203 6.75307 10.6916 6.8994 9.74343C6.98882 9.16396 7.2774 8.64763 7.45725 8.09667C7.52838 7.87772 7.65641 7.67607 7.76006 7.46526C7.58935 7.395 7.36986 7.44082 7.2337 7.25751V7.25853ZM32.9123 15.7255C32.9205 15.6298 32.9337 15.5616 32.9316 15.4933C32.9195 15.0585 32.9245 14.6226 32.8849 14.1908C32.8016 13.2834 32.5953 12.3994 32.2691 11.5511C32.0659 11.0225 31.7966 10.5195 31.5517 10.0082C31.0589 8.97759 30.3588 8.09464 29.5845 7.27075C29.4545 7.44388 29.2329 7.39601 29.0531 7.47341C29.113 7.57729 29.1842 7.672 29.2279 7.77893C29.3914 8.1812 29.5337 8.59162 29.7065 8.98981C29.9463 9.54586 30.0011 10.1284 29.9879 10.7221C29.9727 11.4044 29.8436 12.0654 29.554 12.6866C29.4697 12.8689 29.3478 13.0339 29.2289 13.2284C29.4941 13.4504 29.7552 13.6897 30.0367 13.9005C30.8628 14.5197 31.758 15.034 32.6299 15.584C32.7111 15.6349 32.8016 15.6715 32.9113 15.7265L32.9123 15.7255ZM33.7019 26.6632C33.8177 26.4992 33.9427 26.3536 34.0331 26.1886C34.3258 25.658 34.6012 25.1182 34.8928 24.5877C35.1336 24.1477 35.2393 23.6741 35.224 23.1792C35.2098 22.6832 35.1753 22.1883 35.1275 21.6944C35.0462 20.8511 34.8979 20.0181 34.6865 19.1973C34.4619 18.3245 33.9762 17.5892 33.459 16.8712C33.455 16.8651 33.4428 16.8651 33.4245 16.858C33.4936 17.0739 33.5718 17.2755 33.6226 17.4833C33.8624 18.4569 33.898 19.4468 33.8228 20.4417C33.77 21.1322 33.648 21.8125 33.4621 22.4816C33.266 23.1863 33.0201 23.8636 32.5557 24.4634C32.8727 24.9339 33.0698 25.4879 33.2467 26.044C33.33 26.3057 33.5037 26.4635 33.7019 26.6621V26.6632ZM4.2788 24.4522C4.1843 24.332 4.0837 24.2332 4.01765 24.1141C3.71484 23.5723 3.49739 22.9979 3.33989 22.395C3.12752 21.5834 2.99644 20.7615 2.97713 19.9254C2.95376 18.8999 3.01168 17.8825 3.38866 16.9109C3.39476 16.8957 3.39171 16.8783 3.39578 16.8264C3.29112 16.9731 3.20373 17.0902 3.12346 17.2114C2.71802 17.8275 2.32884 18.4508 2.14492 19.1779C1.95287 19.9397 1.81265 20.7116 1.71916 21.4917C1.64803 22.0865 1.58198 22.6812 1.59926 23.28C1.61044 23.6691 1.66531 24.054 1.84516 24.4033C2.17134 25.0357 2.50768 25.6631 2.8491 26.2863C2.92125 26.4187 3.03404 26.5287 3.12854 26.6489C3.4161 26.4157 3.47402 26.3332 3.5797 26.0134C3.59596 25.9635 3.61425 25.9136 3.63355 25.8637C3.82052 25.3749 3.98717 24.8759 4.27778 24.4502L4.2788 24.4522ZM1.69376 25.5704C1.65515 25.8016 1.61348 26.0134 1.58707 26.2263C1.52203 26.763 1.4255 27.2986 1.41026 27.8374C1.38181 28.87 1.55353 29.8823 1.85532 30.8681C2.07989 31.6024 2.32681 32.3316 2.57779 33.0577C2.67433 33.3367 2.80845 33.6015 2.93039 33.8846C3.12142 33.7808 3.27689 33.6524 3.38968 33.4905C3.61831 33.1595 3.82154 32.8112 4.04915 32.4813C4.14467 32.3428 4.13247 32.2338 4.06033 32.0953C3.83983 31.6717 3.72805 31.2042 3.54921 30.7663C3.14378 29.7703 2.95681 28.7417 2.96087 27.6724C2.96087 27.5217 2.96087 27.372 2.96087 27.2742C2.82674 27.1367 2.70887 27.042 2.62453 26.9228C2.31462 26.486 2.01587 26.0409 1.69478 25.5724L1.69376 25.5704ZM33.8594 33.8948C33.8756 33.8867 33.8919 33.8775 33.9081 33.8694C34.0331 33.5689 34.1703 33.2736 34.279 32.9681C34.4569 32.4701 34.6072 31.9629 34.7841 31.4649C35.1529 30.4261 35.3551 29.3548 35.4202 28.2559C35.4638 27.5176 35.3317 26.7966 35.2169 26.0735C35.1915 25.9126 35.1621 25.7517 35.1306 25.5684C35.0361 25.712 34.9598 25.8311 34.8796 25.9472C34.652 26.2792 34.4254 26.6112 34.1917 26.9381C34.1317 27.0226 34.0575 27.1082 33.9701 27.1581C33.8827 27.208 33.8665 27.262 33.8685 27.3485C33.8868 28.0298 33.8543 28.7101 33.7019 29.3752C33.4793 30.3477 33.1308 31.2806 32.7233 32.191C32.6959 32.2511 32.6705 32.302 32.7162 32.3703C32.955 32.7379 33.1776 33.1168 33.4306 33.4752C33.5444 33.6362 33.7151 33.7563 33.8594 33.8948ZM15.9348 45.8722C15.8363 46.1543 15.757 46.4283 15.6462 46.69C15.4471 47.1605 15.5009 47.6035 15.754 48.0323C15.7804 48.0771 15.8261 48.1239 15.8728 48.1423C16.4531 48.3633 17.0363 48.5781 17.6592 48.6454C17.9447 48.6759 18.2333 48.7472 18.5158 48.7268C19.3622 48.6678 20.1802 48.4671 20.9657 48.1392C20.9941 48.127 21.0287 48.1087 21.0419 48.0842C21.1964 47.7879 21.3752 47.4844 21.2898 47.1371C21.1852 46.7104 21.0358 46.2949 20.9017 45.861C20.856 45.9008 20.8194 45.9303 20.7838 45.9629C20.3987 46.3163 19.9811 46.6228 19.5147 46.8621C19.2169 47.0149 18.906 47.0495 18.5798 47.0118C18.468 46.9986 18.3532 46.9996 18.2414 47.0118C17.9193 47.0485 17.6033 47.0322 17.3198 46.8621C16.9967 46.6686 16.6817 46.4599 16.3718 46.245C16.2133 46.135 16.0761 45.9945 15.9328 45.8712L15.9348 45.8722ZM24.258 4.6616C24.5699 4.9437 24.8951 5.23089 25.2131 5.52521C25.4641 5.75842 25.6978 6.00691 25.8319 6.33076C25.8452 6.36132 25.8746 6.39187 25.9041 6.40816C26.1205 6.52732 26.3339 6.65258 26.5575 6.75646C27.0015 6.96319 27.4669 7.06911 27.9618 7.05179C28.3022 7.04059 28.6436 7.05994 28.985 7.063C29.0836 7.063 29.1811 7.05383 29.3041 7.04772C29.238 6.93366 29.1943 6.842 29.1374 6.75951C28.4658 5.78898 27.7199 4.88463 26.7851 4.15139C26.4975 3.92632 26.1571 3.89169 25.8055 3.84077C25.7933 4.07399 25.6775 4.21249 25.4672 4.27665C25.0617 4.40191 24.6573 4.53227 24.2559 4.65957L24.258 4.6616ZM7.52025 7.05179C7.64422 7.0579 7.73669 7.06605 7.82916 7.06605C8.20309 7.06401 8.57601 7.063 8.94893 7.05281C9.12675 7.04874 9.30559 7.0355 9.48138 7.00902C9.95897 6.9357 10.3796 6.70961 10.8024 6.49371C10.8745 6.45705 10.9588 6.399 10.9893 6.32873C11.1163 6.03747 11.3175 5.80323 11.5421 5.59242C11.8683 5.2869 12.2087 4.99666 12.543 4.7003C12.5582 4.68605 12.5694 4.66772 12.5735 4.66262C12.1955 4.54347 11.8215 4.42228 11.4466 4.30924C11.2129 4.23897 11.0239 4.13407 11.0188 3.84485C10.9273 3.85605 10.8471 3.86114 10.7678 3.87744C10.525 3.9253 10.279 3.96705 10.0758 4.12491C9.12066 4.86528 8.36059 5.78388 7.67877 6.77377C7.6239 6.85321 7.58325 6.94181 7.52025 7.05281V7.05179ZM25.4895 3.89577C25.3676 3.77458 25.2558 3.63913 25.1207 3.53423C24.5912 3.12382 24.0629 2.70933 23.4735 2.3865C22.7836 2.00867 22.1099 1.58705 21.2878 1.56261C21.1303 1.55752 20.9718 1.54835 20.8153 1.5402C21.0836 1.9221 21.3447 2.27956 21.5896 2.64721C21.8335 3.01281 22.0082 3.40897 22.0113 3.84892C23.1605 4.36932 24.3138 4.39275 25.4905 3.89475L25.4895 3.89577ZM11.3379 3.89984C12.5156 4.38053 13.6689 4.37645 14.8069 3.85198C14.8709 2.91505 15.503 2.2704 16.0253 1.54428C15.443 1.54428 14.8933 1.6064 14.3741 1.84878C13.4199 2.29484 12.541 2.85903 11.723 3.51896C11.5858 3.62996 11.47 3.76745 11.3379 3.89882V3.89984Z" fill="#F7F8C5" stroke="#F7F8C5" stroke-width="0.3"/>
</svg>
