<svg width="37" height="50" viewBox="0 0 37 50" fill="none" xmlns="http://www.w3.org/2000/svg">
<path d="M33.2944 16.1554C33.3218 16.19 33.3452 16.2277 33.3767 16.2592C33.8065 16.6961 34.1429 17.2074 34.5067 17.6962C34.8562 18.1657 35.1092 18.6779 35.2637 19.2421C35.4669 19.9846 35.6762 20.729 35.7443 21.4959C35.8073 22.1996 35.8225 22.9104 35.8042 23.6172C35.791 24.1274 35.6305 24.6183 35.3907 25.0745C35.348 25.156 35.346 25.2283 35.3693 25.3179C35.5228 25.9167 35.6894 26.5125 35.8103 27.1174C35.9587 27.8619 35.917 28.6145 35.8591 29.3691C35.7768 30.4425 35.4476 31.4487 35.0767 32.4467C34.8989 32.9264 34.7759 33.4295 34.5107 33.8735C34.4081 34.0456 34.3776 34.2157 34.3908 34.4143C34.4873 35.8329 34.1876 37.1833 33.6562 38.4879C33.4489 38.9961 33.206 39.489 32.9703 39.985C32.5963 40.7681 32.0192 41.3995 31.4278 42.0177C31.0792 42.3823 30.7185 42.7346 30.2958 43.0157C30.2348 43.0564 30.1749 43.1074 30.1068 43.1247C29.9869 43.1552 29.933 43.2377 29.8782 43.3365C29.3244 44.3335 28.6548 45.2409 27.7616 45.9599C26.6977 46.8164 25.5047 47.4305 24.198 47.8215C23.7672 47.9509 23.3312 48.0649 22.8943 48.1729C22.751 48.2085 22.5976 48.2024 22.4492 48.2208C22.3984 48.2269 22.3476 48.2462 22.3009 48.2686C21.6313 48.5935 20.9515 48.8919 20.2219 49.0559C19.473 49.2239 18.717 49.3206 17.9498 49.2606C17.0048 49.1862 16.0883 48.9856 15.2215 48.5874C14.9746 48.4743 14.7317 48.3481 14.4787 48.2503C14.3588 48.2034 14.2176 48.2106 14.0865 48.1912C13.9818 48.176 13.8761 48.1678 13.7745 48.1413C12.7554 47.8786 11.7474 47.5822 10.8095 47.0883C10.0951 46.7115 9.41127 46.2878 8.81074 45.745C8.0334 45.0434 7.42067 44.2103 6.92277 43.2907C6.88212 43.2163 6.82624 43.1766 6.75307 43.1349C6.55391 43.0198 6.35678 42.8955 6.17896 42.7489C5.64041 42.3059 5.17909 41.7855 4.71573 41.2661C4.36517 40.873 4.09284 40.432 3.84897 39.9717C3.2586 38.8586 2.80541 37.6946 2.56052 36.4542C2.4142 35.7148 2.38981 34.9673 2.44163 34.2167C2.4457 34.1638 2.43452 34.1016 2.41013 34.0558C2.20894 33.6831 2.03518 33.3002 1.90511 32.8938C1.70087 32.2543 1.44176 31.631 1.26495 30.9853C0.792451 29.2551 0.781274 27.5197 1.31169 25.7945C1.36148 25.6316 1.41636 25.4687 1.45497 25.3027C1.47021 25.2375 1.47021 25.154 1.44176 25.0969C1.13692 24.4839 1.00482 23.8351 0.992629 23.1518C0.96621 21.7403 1.21313 20.3716 1.62974 19.0313C1.73136 18.7044 1.87158 18.3765 2.05957 18.0924C2.41826 17.5516 2.82268 17.0393 3.21287 16.52C3.30941 16.3916 3.42829 16.2786 3.50857 16.19C3.45979 16.0535 3.40187 15.9517 3.38968 15.8458C3.23726 14.4913 3.42728 13.1704 3.8317 11.8822C4.13857 10.9045 4.61513 10.0103 5.29289 9.2282C5.73186 8.72206 6.13425 8.18434 6.56407 7.67005C6.74393 7.45516 6.95224 7.26574 7.14835 7.0641C7.1707 7.04067 7.20119 7.02031 7.21338 6.99281C7.52533 6.31048 8.008 5.7473 8.4744 5.17394C8.84834 4.71464 9.26597 4.30321 9.74456 3.94983C10.0484 3.72476 10.3969 3.65042 10.7515 3.58116C10.8908 3.55367 11.031 3.53228 11.1702 3.50173C11.2068 3.49358 11.2434 3.47016 11.2728 3.4447C11.4141 3.32249 11.5462 3.18908 11.6935 3.07604C12.3987 2.54036 13.0988 1.99551 13.8924 1.59019C14.3741 1.34374 14.8801 1.16246 15.4217 1.13598C15.6971 1.12172 15.9765 1.18996 16.2549 1.21542C16.2966 1.21949 16.3596 1.20931 16.3789 1.18181C16.6268 0.841664 16.9875 0.732695 17.3777 0.668536C18.1967 0.534107 19.0086 0.553456 19.8185 0.746953C20.0674 0.80602 20.2442 0.95878 20.4038 1.14006C20.4637 1.20829 20.5166 1.23782 20.61 1.21338C21.426 1.00053 22.1779 1.21542 22.9014 1.57695C23.4664 1.85905 23.9907 2.20734 24.4907 2.59331C24.7315 2.77968 24.9784 2.95994 25.2223 3.14223C25.2578 3.16871 25.3015 3.19112 25.3269 3.22574C25.52 3.49969 25.8147 3.55367 26.1124 3.58626C26.6692 3.64736 27.1143 3.92437 27.5116 4.29303C28.2889 5.01304 28.9494 5.83183 29.487 6.74432C29.6038 6.94393 29.7369 7.11705 29.8955 7.28C30.4208 7.81873 30.9187 8.38191 31.3546 8.99906C31.5985 9.3443 31.886 9.65899 32.1167 10.0124C32.7366 10.9625 33.0993 12.0145 33.3076 13.1266C33.4763 14.0249 33.5403 14.9262 33.4397 15.8366C33.4275 15.9476 33.3686 16.0525 33.332 16.1605C33.3198 16.1594 33.3086 16.1574 33.2964 16.1564L33.2944 16.1554ZM12.6822 30.2134C12.6995 30.2439 12.7198 30.2867 12.7462 30.3264C13.05 30.7939 13.3549 31.2593 13.6577 31.7267C14.5417 33.0883 15.5436 34.3573 16.6634 35.5315C17.0262 35.9113 17.4123 36.2627 17.899 36.4888C18.2099 36.6334 18.5097 36.6925 18.8318 36.5315C19.0787 36.4073 19.3226 36.2841 19.539 36.1059C20.1233 35.6252 20.6161 35.0579 21.1049 34.4856C22.2166 33.1881 23.1727 31.7797 24.0751 30.3315C24.1015 30.2887 24.1238 30.2439 24.1431 30.2073C23.946 30.1339 23.758 30.079 23.5832 29.9975C22.6606 29.5667 21.8121 29.0137 20.9769 28.4332C20.1101 27.8313 19.3968 27.0991 18.8694 26.1836C18.7231 25.929 18.5585 25.6846 18.4122 25.4503C18.2547 25.7019 18.0839 25.9626 17.9254 26.2304C17.4306 27.0696 16.7894 27.7682 15.9897 28.3283C14.9482 29.0585 13.9036 29.7785 12.6822 30.2124V30.2134ZM18.8908 24.7497C18.9192 24.8138 18.9405 24.8749 18.9731 24.9299C19.1367 25.211 19.3023 25.4911 19.4699 25.7701C19.7037 26.1581 19.9861 26.5074 20.3001 26.8353C20.8549 27.4169 21.4636 27.9352 22.0997 28.423C22.7277 28.9047 23.4166 29.2703 24.1706 29.5107C24.2732 29.5433 24.4144 29.5504 24.5049 29.5046C24.6573 29.4272 24.7975 29.3111 24.9174 29.1868C25.2893 28.8009 25.6683 28.419 26.0087 28.0055C26.8105 27.0299 27.4476 25.9473 27.9861 24.8067C28.3418 24.0531 28.5369 23.2679 28.4099 22.4277C28.3997 22.3625 28.3631 22.2912 28.3184 22.2424C27.852 21.727 27.35 21.2443 26.967 20.6577C26.9477 20.6292 26.8999 20.6088 26.8633 20.6037C26.715 20.5864 26.5615 20.5956 26.4172 20.562C25.4174 20.3329 24.5313 19.8715 23.7377 19.2238C23.6828 19.179 23.6269 19.1342 23.567 19.0853C23.5497 19.1159 23.5396 19.1332 23.5294 19.1505C23.1656 19.7992 22.8262 20.4632 22.434 21.0946C21.8741 21.9949 21.303 22.8921 20.5206 23.6284C20.0359 24.0836 19.5573 24.5409 18.8918 24.7497H18.8908ZM17.9214 24.7802C17.6663 24.6407 17.4143 24.5317 17.1938 24.3779C16.5496 23.9278 15.9917 23.3779 15.5192 22.7536C14.8313 21.8452 14.2186 20.8858 13.6871 19.8746C13.549 19.6128 13.4036 19.3542 13.2573 19.0863C13.2035 19.1301 13.1527 19.1709 13.1029 19.2126C12.3306 19.845 11.471 20.3054 10.4975 20.5406C10.3227 20.5824 10.1368 20.5803 9.95693 20.6027C9.9234 20.6068 9.87869 20.6251 9.86142 20.6516C9.47529 21.2453 8.96722 21.7352 8.49371 22.2536C8.45611 22.2953 8.42461 22.3544 8.41648 22.4084C8.28337 23.2883 8.49879 24.105 8.87882 24.8882C9.30255 25.7599 9.77098 26.6062 10.3471 27.3883C10.906 28.146 11.4923 28.8762 12.2412 29.4598C12.3621 29.5545 12.483 29.5738 12.6141 29.5249C12.921 29.4099 13.2309 29.2958 13.5286 29.1593C14.1759 28.862 14.7307 28.423 15.2855 27.9821C15.8159 27.5594 16.2925 27.0828 16.7518 26.5889C17.2202 26.0848 17.5373 25.4748 17.8767 24.881C17.898 24.8434 17.9122 24.8006 17.9203 24.7802H17.9214ZM25.1013 30.0515C25.1105 30.0647 25.1237 30.0891 25.14 30.1115C26.0382 31.3581 26.9355 32.6066 27.8368 33.8521C28.2097 34.3674 28.6273 34.8451 29.1313 35.2392C29.175 35.2738 29.2218 35.3054 29.2726 35.3431C29.68 35.0274 30.0763 34.7056 30.4015 34.3145C31.0356 33.5517 31.6503 32.7736 32.1513 31.9111C32.6461 31.0607 33.0536 30.1828 33.1481 29.1848C33.1938 28.697 33.2284 28.2122 33.1481 27.7254C32.9926 26.7732 32.641 25.8872 32.2326 25.0206C32.1665 24.88 32.07 24.7894 31.9287 24.7252C31.2256 24.4044 30.559 24.0184 29.9148 23.5907C29.5906 23.3758 29.2705 23.1538 28.9444 22.9328C28.9372 22.9532 28.9271 22.9746 28.923 22.998C28.8671 23.2933 28.8092 23.5887 28.7574 23.885C28.5206 25.2273 27.9628 26.4484 27.2799 27.6063C26.7221 28.5534 25.9884 29.3661 25.1003 30.0525L25.1013 30.0515ZM7.88606 22.9145C7.70316 23.0469 7.54261 23.1711 7.37495 23.2842C6.55696 23.8372 5.71662 24.3525 4.81836 24.769C4.74418 24.8036 4.67509 24.877 4.63546 24.9503C4.33468 25.5023 4.12942 26.0939 3.92417 26.6856C3.59596 27.6307 3.55429 28.5992 3.72704 29.5759C3.8571 30.3111 4.15483 30.9894 4.51555 31.6402C5.04699 32.5985 5.71154 33.4611 6.40962 34.2982C6.74088 34.6954 7.14327 35.0202 7.55175 35.3421C7.59341 35.3125 7.62695 35.2901 7.65845 35.2657C8.05474 34.9561 8.41445 34.6078 8.71319 34.2045C9.54438 33.0802 10.3675 31.9487 11.1915 30.8183C11.3775 30.5627 11.5523 30.2989 11.7169 30.0596C9.45801 28.2041 8.32706 25.7558 7.88504 22.9135L7.88606 22.9145ZM24.7061 30.2592C24.6461 30.3773 24.5973 30.4741 24.5465 30.5698C24.0629 31.4884 23.5284 32.3775 22.9248 33.2228C21.8721 34.6964 20.7482 36.1059 19.222 37.1467C19.2566 37.1894 19.2942 37.2373 19.3318 37.2831C19.4384 37.4114 19.5533 37.5337 19.6508 37.6681C20.292 38.5592 20.9362 39.4482 21.5652 40.3495C21.931 40.875 22.4157 41.2641 22.9289 41.6246C22.9908 41.6684 23.0914 41.6887 23.1666 41.6755C23.4826 41.6205 23.7773 41.5013 24.0354 41.3099C24.4236 41.0217 24.8067 40.7274 25.1847 40.4269C25.8045 39.935 26.3329 39.3464 26.8836 38.7822C27.7219 37.9237 28.3022 36.9063 28.6995 35.7789C28.7117 35.7453 28.6984 35.6812 28.673 35.6588C28.1213 35.1699 27.597 34.6526 27.1641 34.0538C26.7018 33.4152 26.2597 32.7614 25.8228 32.1046C25.5871 31.7491 25.3848 31.3723 25.1654 31.0067C25.018 30.7613 24.8656 30.5179 24.7071 30.2582L24.7061 30.2592ZM12.1213 30.2562C11.9587 30.522 11.8073 30.7664 11.659 31.0138C11.4476 31.3662 11.2454 31.7227 11.029 32.072C10.8593 32.3449 10.6682 32.6046 10.4985 32.8765C9.89901 33.8389 9.18264 34.7035 8.36466 35.4846C8.28032 35.5651 8.14111 35.6282 8.11977 35.7209C8.09741 35.8166 8.18887 35.9378 8.23053 36.0478C8.57601 36.9674 9.05867 37.8056 9.71814 38.5347C10.4995 39.3983 11.3257 40.2151 12.2524 40.9249C12.67 41.2447 13.0886 41.5584 13.6191 41.6714C13.7329 41.6959 13.8264 41.6847 13.9168 41.6174C14.0733 41.5014 14.2399 41.3965 14.3842 41.2661C14.6301 41.042 14.8913 40.8251 15.0925 40.5644C15.5416 39.9819 15.9552 39.3719 16.3901 38.7771C16.7742 38.2526 17.1664 37.7343 17.5556 37.2129C17.5738 37.1884 17.5881 37.1619 17.6003 37.1426C17.4204 37.0133 17.2446 36.8951 17.079 36.7648C15.8556 35.8014 14.8902 34.6007 13.9879 33.347C13.2888 32.3765 12.671 31.353 12.1213 30.2562ZM17.017 14.7978C16.4774 15.4934 15.9552 16.1941 15.4034 16.8703C14.8486 17.5506 14.2501 18.1952 13.5906 18.7879C13.7319 19.0201 13.866 19.2472 14.0042 19.4713C14.562 20.3777 15.1626 21.2494 15.9257 22C16.4571 22.5234 16.9997 23.0367 17.6368 23.4257C18.339 23.8555 18.4894 23.8575 19.1885 23.4237C19.6031 23.166 19.979 22.8391 20.3509 22.5183C21.2726 21.722 22.0184 20.7759 22.6555 19.7401C22.8496 19.4255 23.0416 19.1098 23.2357 18.792C21.9412 17.5832 20.8316 16.2267 19.8347 14.7754C18.8796 15.6166 17.9386 15.6085 17.017 14.7968V14.7978ZM22.7043 10.3291C22.6819 10.3861 22.6667 10.4401 22.6413 10.489C22.2999 11.155 21.9574 11.82 21.615 12.484C21.2543 13.1837 20.7838 13.8049 20.2463 14.3752C20.1701 14.4567 20.1558 14.5137 20.2249 14.6003C20.542 14.9964 20.8224 15.4313 21.1801 15.7867C22.0763 16.6768 22.9665 17.575 24.008 18.3062C24.7 18.792 25.4224 19.2157 26.1866 19.569C26.3979 19.6668 26.6316 19.7198 26.8552 19.79C26.8836 19.7992 26.9294 19.8043 26.9487 19.788C27.0422 19.7116 27.1509 19.6424 27.2169 19.5446C27.853 18.5965 28.2646 17.5536 28.484 16.4354C28.6253 15.7164 28.7208 14.9893 28.7513 14.256C28.7594 14.0544 28.7523 13.8517 28.7523 13.646C28.7523 13.646 28.7462 13.6399 28.7391 13.6399C28.7106 13.6389 28.6822 13.6409 28.6537 13.6399C28.2849 13.6165 27.9181 13.591 27.5665 13.4576C26.7404 13.1429 25.9529 12.7559 25.1979 12.2936C24.6705 11.9697 24.2336 11.5512 23.8332 11.0888C23.7011 10.9361 23.5965 10.7609 23.4766 10.5969C23.4593 10.5735 23.4298 10.5521 23.4014 10.544C23.1697 10.4707 22.936 10.4004 22.7053 10.3301L22.7043 10.3291ZM14.1261 10.3291C13.8944 10.3994 13.6577 10.4707 13.4219 10.544C13.3965 10.5521 13.3701 10.5694 13.3549 10.5898C13.2482 10.7375 13.1598 10.9014 13.0368 11.0338C12.7645 11.3292 12.5034 11.6439 12.1894 11.8883C11.3277 12.5604 10.3532 13.035 9.33709 13.4281C9.06172 13.535 8.77924 13.5992 8.48456 13.6155C8.34433 13.6236 8.20411 13.6369 8.05474 13.6481C8.05474 13.7051 8.05067 13.7581 8.05474 13.81C8.10046 14.3772 8.13196 14.9475 8.19801 15.5128C8.33316 16.6697 8.61767 17.7858 9.17959 18.8154C9.35945 19.1444 9.50272 19.5008 9.81366 19.7422C9.87564 19.79 9.92543 19.8033 10.0006 19.786C10.3593 19.7035 10.6865 19.5456 11.0178 19.3888C11.9496 18.9468 12.797 18.3714 13.5886 17.7207C14.2125 17.2074 14.7825 16.6289 15.3719 16.0749C15.8332 15.6411 16.2163 15.141 16.5841 14.6278C16.6553 14.529 16.6664 14.4658 16.5689 14.363C16.0547 13.8212 15.6026 13.2305 15.254 12.5665C14.8913 11.875 14.5377 11.1795 14.181 10.4849C14.1566 10.437 14.1424 10.3831 14.1231 10.3291H14.1261ZM22.8161 42.4271C22.7145 42.3507 22.6311 42.2916 22.5529 42.2285C22.4736 42.1653 22.3954 42.1002 22.3202 42.0319C21.5083 41.2977 20.8102 40.4626 20.168 39.5786C19.6874 38.9177 19.2058 38.2557 18.8206 37.5326C18.7556 37.4114 18.7038 37.329 18.5514 37.3901C18.5046 37.4084 18.4416 37.4125 18.3949 37.3972C18.1439 37.3137 18.0545 37.4613 17.9366 37.6518C17.5627 38.2567 17.1643 38.8464 16.764 39.435C16.2407 40.2039 15.6351 40.9066 14.9898 41.5726C14.6941 41.8771 14.3639 42.1491 14.0397 42.4444C14.057 42.4709 14.0875 42.5187 14.118 42.5656C14.6149 43.3192 15.2083 43.9944 15.8159 44.6574C16.3535 45.244 16.9835 45.6992 17.7405 45.9701C18.1622 46.1208 18.5808 46.1422 19.0035 46.0006C19.7057 45.7654 20.3235 45.3825 20.8285 44.8427C21.3081 44.3294 21.7623 43.7907 22.2135 43.252C22.4289 42.9943 22.6128 42.7102 22.8181 42.4281L22.8161 42.4271ZM27.5075 20.3909C28.0949 21.0355 28.6913 21.6863 29.2827 22.3411C29.8944 23.0184 30.6484 23.4899 31.4725 23.8565C31.696 23.9563 31.9338 24.0235 32.1472 24.0989C32.6278 23.2811 32.8737 22.4063 33.1176 21.5325C33.3046 20.8645 33.4153 20.1801 33.4489 19.4866C33.5007 18.4071 33.2995 17.3652 32.9327 16.3529C32.892 16.2409 32.828 16.1706 32.7213 16.1218C32.0771 15.8264 31.4664 15.4751 30.9065 15.0372C30.372 14.6196 29.8264 14.2163 29.2848 13.8059C29.2573 13.7845 29.2299 13.7631 29.1862 13.7295C29.1923 13.7876 29.1933 13.8232 29.2004 13.8579C29.3091 14.4597 29.3081 15.0708 29.2421 15.6716C29.1181 16.8082 28.8336 17.9121 28.4078 18.9743C28.2016 19.4906 27.8845 19.9428 27.5096 20.3909H27.5075ZM7.64219 13.7265C7.60053 13.7601 7.57919 13.7774 7.55785 13.7947C6.71548 14.473 5.86193 15.1349 4.93318 15.693C4.65578 15.86 4.35602 15.9894 4.07151 16.1462C4.00749 16.1818 3.94449 16.2501 3.91807 16.3173C3.84491 16.5067 3.79309 16.7043 3.72907 16.8968C3.38663 17.9182 3.30839 18.9662 3.42829 20.0304C3.51873 20.8298 3.72196 21.6028 3.95668 22.3727C4.13755 22.9685 4.3926 23.5266 4.66086 24.0877C4.69846 24.0796 4.73504 24.0755 4.76959 24.0653C5.54794 23.828 6.25923 23.4573 6.89228 22.9491C7.47453 22.4817 7.95719 21.9114 8.45204 21.3543C8.74266 21.0264 9.03429 20.6995 9.30763 20.3919C9.18467 20.2188 9.079 20.0579 8.96113 19.9061C8.71116 19.5853 8.52216 19.232 8.37787 18.8531C8.19395 18.3704 8.04966 17.8765 7.91553 17.3764C7.65032 16.3927 7.51111 15.4007 7.57106 14.3823C7.58325 14.1715 7.6178 13.9628 7.64524 13.7265H7.64219ZM9.08408 38.6345C9.00177 38.9411 8.92353 39.2303 8.84529 39.5195C8.54451 40.6245 8.00901 41.6154 7.36885 42.5534C7.28756 42.6725 7.28451 42.753 7.35666 42.8762C7.8637 43.7469 8.52012 44.4883 9.27105 45.1533C9.97827 45.7797 10.8318 46.1626 11.6498 46.6035C11.7636 46.6646 11.8856 46.7115 12.0055 46.7624C12.607 47.019 13.2126 47.2604 13.8538 47.4071C14.2145 47.4895 14.495 47.3449 14.7155 47.1026C14.9858 46.8052 15.1524 46.4396 15.2367 46.0424C15.2815 45.8326 15.3211 45.6208 15.3567 45.409C15.3638 45.3672 15.3536 45.3061 15.3262 45.2766C14.809 44.7144 14.3984 44.0728 13.9849 43.4343C13.7644 43.0941 13.5581 42.7438 13.3417 42.3996C13.3234 42.37 13.2807 42.3527 13.2461 42.3354C12.9992 42.2132 12.7391 42.1124 12.5064 41.9678C11.4059 41.2865 10.5087 40.375 9.67648 39.3943C9.47224 39.1529 9.2873 38.8953 9.08306 38.6325L9.08408 38.6345ZM27.7443 38.6305C27.7067 38.6794 27.6762 38.716 27.6488 38.7547C27.0381 39.6153 26.3136 40.374 25.5271 41.0706C24.9367 41.594 24.3067 42.0706 23.5538 42.3476C23.5263 42.3578 23.4989 42.3812 23.4837 42.4057C23.2886 42.7194 23.1026 43.0391 22.9004 43.3487C22.4665 44.0117 22.0458 44.6859 21.5063 45.2735C21.4758 45.3071 21.4687 45.3784 21.4768 45.4273C21.5022 45.579 21.5581 45.7277 21.5723 45.8805C21.615 46.3306 21.804 46.7196 22.0784 47.0618C22.2765 47.3083 22.5427 47.4794 22.8841 47.4213C23.0955 47.3857 23.3058 47.3327 23.5091 47.2635C24.2102 47.0252 24.9093 46.7787 25.5505 46.3958C25.7131 46.299 25.8929 46.2308 26.0616 46.1432C27.5157 45.3967 28.6192 44.2826 29.4616 42.8915C29.5429 42.7581 29.5398 42.6684 29.4494 42.5371C28.7726 41.5523 28.228 40.5033 27.9313 39.3372C27.8723 39.1061 27.8093 38.8769 27.7433 38.6305H27.7443ZM19.9414 7.50507C19.8032 7.64561 19.6589 7.80651 19.5004 7.95113C19.3419 8.09574 19.1712 8.23017 19.0005 8.36052C18.5737 8.68539 18.2475 8.69456 17.8309 8.36154C17.523 8.11611 17.2395 7.84114 16.9469 7.57839C16.9184 7.55293 16.9012 7.51321 16.8727 7.47146C16.7406 7.66394 16.637 7.83401 16.5161 7.98983C16.1726 8.43385 15.8261 8.87482 15.4745 9.31273C15.3709 9.44207 15.255 9.56529 15.1301 9.67426C14.9228 9.85452 14.7023 10.0195 14.4747 10.2018C14.5834 10.4055 14.687 10.6316 14.8181 10.8403C15.4257 11.8149 16.1055 12.7397 16.8361 13.6236C17.1318 13.9811 17.4499 14.3192 17.8736 14.5361C18.2323 14.7204 18.5879 14.7215 18.9477 14.5392C19.2952 14.363 19.5736 14.1013 19.8246 13.811C20.6527 12.8517 21.3935 11.8272 22.0611 10.7507C22.1739 10.5694 22.2592 10.3708 22.3608 10.1743C21.7877 9.85146 21.3813 9.37485 21.0043 8.86361C20.667 8.40737 20.3052 7.96742 19.9424 7.50507H19.9414ZM2.84504 34.511C2.88162 34.7901 2.91718 35.1007 2.96392 35.4103C3.06757 36.112 3.21186 36.8045 3.45776 37.4715C3.74634 38.2516 4.10504 38.9971 4.51251 39.7222C4.94741 40.4972 5.44227 41.2223 6.0997 41.8262C6.25212 41.9668 6.40352 42.1073 6.55798 42.2448C6.62098 42.3008 6.68296 42.3008 6.74596 42.2295C6.86383 42.0951 6.99999 41.9759 7.10872 41.8354C7.57716 41.2335 7.98259 40.5919 8.28133 39.8872C8.50183 39.3668 8.71827 38.8443 8.73758 38.2669C8.73961 38.2119 8.72132 38.1488 8.69185 38.1019C8.30572 37.4705 7.91146 36.8442 7.53041 36.2097C7.45319 36.0814 7.39933 35.9562 7.22862 35.9348C7.17578 35.9287 7.12091 35.893 7.07824 35.8574C6.81506 35.6415 6.55086 35.4276 6.2948 35.2025C6.17286 35.0956 6.0743 34.9632 5.95643 34.8512C5.36199 34.287 4.86612 33.6474 4.48202 32.9213C4.46881 32.8969 4.45154 32.8755 4.43223 32.846C4.41191 32.8755 4.3926 32.8979 4.38142 32.9223C4.13146 33.4611 3.73212 33.8735 3.27283 34.232C3.14784 34.3298 3.00558 34.4041 2.843 34.507L2.84504 34.511ZM32.3931 32.8297C32.3545 32.9009 32.3301 32.9519 32.3006 32.9987C32.1543 33.2329 32.012 33.4702 31.8596 33.7004C31.441 34.3338 30.8841 34.8441 30.3537 35.3757C30.1444 35.5855 29.8975 35.78 29.6323 35.9052C29.4443 35.9938 29.3376 36.1038 29.2614 36.2769C29.24 36.3248 29.2126 36.3706 29.1842 36.4155C28.8326 36.9776 28.481 37.5387 28.1294 38.1009C28.106 38.1376 28.0715 38.1814 28.0756 38.218C28.0949 38.4074 28.106 38.6009 28.1538 38.7843C28.4099 39.7721 28.8702 40.6652 29.4575 41.4922C29.6262 41.7295 29.8233 41.9484 30.0184 42.1653C30.1647 42.3273 30.1901 42.3324 30.3507 42.1765C30.6809 41.8578 31.0152 41.5411 31.317 41.1958C31.7926 40.651 32.1421 40.0206 32.4896 39.3882C33.1146 38.2486 33.5921 37.0591 33.7994 35.7708C33.8685 35.338 33.9254 34.9031 33.9813 34.51C33.2649 34.1027 32.7406 33.5649 32.3911 32.8286L32.3931 32.8297ZM18.277 0.951652C18.0413 0.994424 17.6744 1.05858 17.3086 1.1258C16.9713 1.18792 16.6969 1.38142 16.4713 1.61463C15.9917 2.11263 15.6168 2.68701 15.3485 3.3286C15.1748 3.74309 15.1677 4.14027 15.4298 4.52217C15.441 4.53846 15.4501 4.55781 15.4593 4.57512C15.884 5.38577 16.4632 6.0844 17.0627 6.76469C17.333 7.07225 17.6145 7.38082 17.9356 7.62931C18.3553 7.95316 18.4548 7.93381 18.8897 7.63542C19.0523 7.52442 19.1936 7.37777 19.3318 7.23519C19.8601 6.69238 20.3479 6.11291 20.7838 5.49474C21.047 5.12099 21.2614 4.71159 21.4951 4.31747C21.6252 4.09851 21.6323 3.86835 21.5652 3.62394C21.427 3.12187 21.1821 2.67275 20.8742 2.26132C20.668 1.98635 20.4901 1.68796 20.1853 1.48428C20.0349 1.38345 19.8957 1.24902 19.726 1.19301C19.3013 1.05349 18.8623 0.973038 18.276 0.951652H18.277ZM21.9087 4.54152C21.8711 4.62299 21.8325 4.71159 21.7877 4.79714C21.3762 5.59454 20.8885 6.34409 20.3418 7.0529C20.2808 7.13233 20.2818 7.17816 20.3499 7.24436C20.4282 7.32175 20.4932 7.41035 20.5684 7.49081C21.173 8.14462 21.7776 8.79844 22.3842 9.45021C22.5112 9.58668 22.6677 9.67834 22.8496 9.7262C23.0925 9.78934 23.3333 9.86572 23.5792 9.91562C24.1756 10.0368 24.7762 10.1325 25.3889 10.0338C25.4621 10.0215 25.5007 9.99302 25.5342 9.92886C25.7029 9.60196 25.7618 9.2445 25.7628 8.88907C25.7649 8.3483 25.707 7.80855 25.6978 7.26778C25.6897 6.75858 25.4397 6.3726 25.1237 6.01209C25.0891 5.97237 25.0546 5.93164 25.017 5.89497C24.6227 5.51409 24.2285 5.13219 23.8312 4.75436C23.8048 4.72992 23.7529 4.72381 23.7133 4.72381C23.4176 4.71872 23.1209 4.73705 22.8283 4.70752C22.5234 4.67696 22.2226 4.59957 21.9097 4.5405L21.9087 4.54152ZM11.0269 8.69863C11.0706 8.98073 11.1133 9.30662 11.1743 9.62945C11.1966 9.74657 11.2616 9.85554 11.3135 9.96654C11.3257 9.992 11.3572 10.0205 11.3826 10.0246C11.535 10.048 11.6884 10.0867 11.8398 10.0806C12.416 10.0592 12.9881 9.9971 13.55 9.85656C13.992 9.74555 14.3781 9.56835 14.6901 9.20885C15.2703 8.53874 15.8789 7.8941 16.4795 7.24232C16.5476 7.16899 16.5364 7.1252 16.4795 7.05086C15.9145 6.30844 15.3983 5.53548 14.9888 4.69428C14.9075 4.52726 14.9126 4.53133 14.7348 4.57207C14.1952 4.69631 13.6546 4.80732 13.0958 4.72279C13.0632 4.7177 13.0175 4.73705 12.9911 4.75945C12.8275 4.89999 12.6629 5.03952 12.5074 5.1882C12.0796 5.59454 11.6539 6.00496 11.3399 6.51009C11.2667 6.62822 11.1986 6.76571 11.1844 6.90115C11.1224 7.48368 11.0808 8.06824 11.0279 8.70067L11.0269 8.69863ZM10.6601 7.26167C10.4843 7.32379 10.3207 7.39406 10.15 7.43989C9.55048 7.60181 8.94182 7.6344 8.32706 7.53765C8.24882 7.52543 8.20309 7.54173 8.16041 7.61505C7.86066 8.13546 7.62593 8.68234 7.47249 9.26486C7.27943 9.99302 7.27638 10.7181 7.49688 11.4412C7.53753 11.5736 7.57207 11.709 7.62695 11.8353C7.79664 12.2223 7.97345 12.6062 8.15127 12.9892C8.16448 13.0167 8.21122 13.0492 8.23866 13.0462C8.89813 12.9861 9.53727 12.8364 10.1317 12.5421C10.9914 12.1164 11.7646 11.5715 12.3753 10.8169C12.4119 10.7721 12.4495 10.7293 12.5023 10.6672C12.1619 10.6672 11.854 10.6743 11.5462 10.6631C11.4364 10.6591 11.3185 10.6305 11.222 10.5786C10.9009 10.4095 10.7079 10.1346 10.6388 9.77916C10.5107 9.11923 10.4772 8.45524 10.5819 7.78716C10.6083 7.61505 10.6327 7.44294 10.6591 7.26065L10.6601 7.26167ZM26.1764 7.26371C26.1723 7.27796 26.1673 7.28509 26.1683 7.29222C26.1703 7.31259 26.1744 7.33194 26.1784 7.35231C26.3298 8.1436 26.3593 8.93796 26.1927 9.73027C26.1561 9.90544 26.0911 10.0877 25.9925 10.2354C25.8441 10.4584 25.6338 10.6346 25.3544 10.6611C25.0963 10.6855 24.8351 10.6723 24.576 10.6743C24.5008 10.6743 24.4256 10.6743 24.3392 10.6743C24.3535 10.6978 24.3606 10.712 24.3697 10.7232C24.8676 11.3679 25.4976 11.8598 26.1906 12.2681C26.5168 12.4606 26.8704 12.6103 27.222 12.7539C27.6335 12.9219 28.0735 12.982 28.5135 13.0401C28.6202 13.0543 28.6609 13.0248 28.7076 12.9372C29.0389 12.3221 29.3122 11.6846 29.428 10.9921C29.4768 10.7008 29.5103 10.3994 29.49 10.1071C29.4301 9.21394 29.114 8.3982 28.673 7.62626C28.6273 7.5458 28.5775 7.52543 28.4881 7.53867C27.723 7.64764 26.9741 7.59367 26.2547 7.28815C26.2303 7.27796 26.2028 7.27185 26.1774 7.26371H26.1764ZM7.2337 7.25658C7.05486 7.4684 6.88619 7.68838 6.69719 7.889C6.22062 8.39719 5.83652 8.96953 5.50527 9.57853C5.37418 9.81989 5.28985 10.0898 5.14454 10.322C4.77568 10.9147 4.52673 11.5542 4.3357 12.2213C4.03289 13.2753 3.84389 14.3436 3.89267 15.4445C3.89673 15.5291 3.90486 15.6126 3.91096 15.6981C4.32554 15.6207 7.29061 13.5982 7.57614 13.2122C7.44607 12.9749 7.29366 12.7549 7.19712 12.5115C6.84453 11.6184 6.75307 10.6896 6.8994 9.74148C6.98882 9.16201 7.2774 8.64568 7.45725 8.09472C7.52838 7.87576 7.65641 7.67412 7.76006 7.46331C7.58935 7.39304 7.36986 7.43887 7.2337 7.25556V7.25658ZM32.9123 15.7236C32.9205 15.6278 32.9337 15.5596 32.9316 15.4914C32.9195 15.0565 32.9245 14.6206 32.8849 14.1888C32.8016 13.2814 32.5953 12.3975 32.2691 11.5491C32.0659 11.0206 31.7966 10.5175 31.5517 10.0063C31.0589 8.97564 30.3588 8.09268 29.5845 7.2688C29.4545 7.44193 29.2329 7.39406 29.0531 7.47146C29.113 7.57534 29.1842 7.67005 29.2279 7.77698C29.3914 8.17925 29.5337 8.58966 29.7065 8.98786C29.9463 9.54391 30.0011 10.1264 29.9879 10.7202C29.9727 11.4025 29.8436 12.0634 29.554 12.6847C29.4697 12.867 29.3478 13.0319 29.2289 13.2264C29.4941 13.4485 29.7552 13.6878 30.0367 13.8986C30.8628 14.5178 31.758 15.0321 32.6299 15.582C32.7111 15.6329 32.8016 15.6696 32.9113 15.7246L32.9123 15.7236ZM33.7019 26.6612C33.8177 26.4972 33.9427 26.3516 34.0331 26.1866C34.3258 25.656 34.6012 25.1163 34.8928 24.5857C35.1336 24.1457 35.2393 23.6722 35.224 23.1772C35.2098 22.6813 35.1753 22.1863 35.1275 21.6924C35.0462 20.8492 34.8979 20.0161 34.6865 19.1953C34.4619 18.3225 33.9762 17.5872 33.459 16.8693C33.455 16.8632 33.4428 16.8632 33.4245 16.856C33.4936 17.0719 33.5718 17.2736 33.6226 17.4813C33.8624 18.4549 33.898 19.4448 33.8228 20.4398C33.77 21.1303 33.648 21.8106 33.4621 22.4796C33.266 23.1844 33.0201 23.8616 32.5557 24.4615C32.8727 24.932 33.0698 25.486 33.2467 26.042C33.33 26.3037 33.5037 26.4616 33.7019 26.6602V26.6612ZM4.2788 24.4503C4.1843 24.3301 4.0837 24.2313 4.01765 24.1121C3.71484 23.5704 3.49739 22.996 3.33989 22.3931C3.12752 21.5814 2.99644 20.7596 2.97713 19.9235C2.95376 18.8979 3.01168 17.8805 3.38866 16.909C3.39476 16.8937 3.39171 16.8764 3.39578 16.8245C3.29112 16.9711 3.20373 17.0882 3.12346 17.2094C2.71802 17.8255 2.32884 18.4488 2.14492 19.1759C1.95287 19.9377 1.81265 20.7097 1.71916 21.4898C1.64803 22.0845 1.58198 22.6792 1.59926 23.2781C1.61044 23.6671 1.66531 24.0521 1.84516 24.4014C2.17134 25.0338 2.50768 25.6611 2.8491 26.2844C2.92125 26.4168 3.03404 26.5268 3.12854 26.6469C3.4161 26.4137 3.47402 26.3312 3.5797 26.0115C3.59596 25.9616 3.61425 25.9117 3.63355 25.8618C3.82052 25.3729 3.98717 24.8739 4.27778 24.4482L4.2788 24.4503ZM1.69376 25.5685C1.65515 25.7996 1.61348 26.0115 1.58707 26.2243C1.52203 26.761 1.4255 27.2967 1.41026 27.8354C1.38181 28.8681 1.55353 29.8804 1.85532 30.8662C2.07989 31.6004 2.32681 32.3296 2.57779 33.0557C2.67433 33.3348 2.80845 33.5996 2.93039 33.8827C3.12142 33.7788 3.27689 33.6505 3.38968 33.4886C3.61831 33.1576 3.82154 32.8093 4.04915 32.4793C4.14467 32.3408 4.13247 32.2319 4.06033 32.0934C3.83983 31.6697 3.72805 31.2023 3.54921 30.7643C3.14378 29.7683 2.95681 28.7398 2.96087 27.6704C2.96087 27.5197 2.96087 27.37 2.96087 27.2722C2.82674 27.1348 2.70887 27.04 2.62453 26.9209C2.31462 26.484 2.01587 26.039 1.69478 25.5705L1.69376 25.5685ZM33.8594 33.8929C33.8756 33.8847 33.8919 33.8756 33.9081 33.8674C34.0331 33.567 34.1703 33.2716 34.279 32.9661C34.4569 32.4681 34.6072 31.961 34.7841 31.463C35.1529 30.4242 35.3551 29.3528 35.4202 28.254C35.4638 27.5156 35.3317 26.7946 35.2169 26.0715C35.1915 25.9106 35.1621 25.7497 35.1306 25.5664C35.0361 25.71 34.9598 25.8292 34.8796 25.9453C34.652 26.2773 34.4254 26.6093 34.1917 26.9362C34.1317 27.0207 34.0575 27.1062 33.9701 27.1561C33.8827 27.206 33.8665 27.26 33.8685 27.3466C33.8868 28.0279 33.8543 28.7082 33.7019 29.3732C33.4793 30.3458 33.1308 31.2786 32.7233 32.1891C32.6959 32.2492 32.6705 32.3001 32.7162 32.3683C32.955 32.736 33.1776 33.1148 33.4306 33.4733C33.5444 33.6342 33.7151 33.7544 33.8594 33.8929ZM15.9348 45.8703C15.8363 46.1524 15.757 46.4263 15.6462 46.6881C15.4471 47.1586 15.5009 47.6016 15.754 48.0303C15.7804 48.0751 15.8261 48.122 15.8728 48.1403C16.4531 48.3613 17.0363 48.5762 17.6592 48.6434C17.9447 48.674 18.2333 48.7452 18.5158 48.7249C19.3622 48.6658 20.1802 48.4652 20.9657 48.1373C20.9941 48.125 21.0287 48.1067 21.0419 48.0823C21.1964 47.7859 21.3752 47.4824 21.2898 47.1351C21.1852 46.7084 21.0358 46.2929 20.9017 45.8591C20.856 45.8988 20.8194 45.9283 20.7838 45.9609C20.3987 46.3143 19.9811 46.6209 19.5147 46.8602C19.2169 47.0129 18.906 47.0476 18.5798 47.0099C18.468 46.9966 18.3532 46.9977 18.2414 47.0099C17.9193 47.0465 17.6033 47.0303 17.3198 46.8602C16.9967 46.6667 16.6817 46.4579 16.3718 46.243C16.2133 46.133 16.0761 45.9925 15.9328 45.8693L15.9348 45.8703ZM24.258 4.65965C24.5699 4.94175 24.8951 5.22894 25.2131 5.52326C25.4641 5.75647 25.6978 6.00496 25.8319 6.32881C25.8452 6.35936 25.8746 6.38992 25.9041 6.40621C26.1205 6.52536 26.3339 6.65063 26.5575 6.7545C27.0015 6.96124 27.4669 7.06715 27.9618 7.04984C28.3022 7.03864 28.6436 7.05799 28.985 7.06104C29.0836 7.06104 29.1811 7.05188 29.3041 7.04577C29.238 6.93171 29.1943 6.84005 29.1374 6.75756C28.4658 5.78702 27.7199 4.88268 26.7851 4.14943C26.4975 3.92437 26.1571 3.88974 25.8055 3.83882C25.7933 4.07203 25.6775 4.21054 25.4672 4.2747C25.0617 4.39996 24.6573 4.53031 24.2559 4.65761L24.258 4.65965ZM7.52025 7.04984C7.64422 7.05595 7.73669 7.0641 7.82916 7.0641C8.20309 7.06206 8.57601 7.06104 8.94893 7.05086C9.12675 7.04678 9.30559 7.03355 9.48138 7.00707C9.95897 6.93374 10.3796 6.70766 10.8024 6.49176C10.8745 6.45509 10.9588 6.39704 10.9893 6.32678C11.1163 6.03551 11.3175 5.80128 11.5421 5.59047C11.8683 5.28495 12.2087 4.99471 12.543 4.69835C12.5582 4.68409 12.5694 4.66576 12.5735 4.66067C12.1955 4.54152 11.8215 4.42033 11.4466 4.30728C11.2129 4.23702 11.0239 4.13212 11.0188 3.84289C10.9273 3.8541 10.8471 3.85919 10.7678 3.87548C10.525 3.92335 10.279 3.9651 10.0758 4.12295C9.12066 4.86333 8.36059 5.78193 7.67877 6.77182C7.6239 6.85125 7.58325 6.93985 7.52025 7.05086V7.04984ZM25.4895 3.89381C25.3676 3.77262 25.2558 3.63718 25.1207 3.53228C24.5912 3.12187 24.0629 2.70738 23.4735 2.38454C22.7836 2.00672 22.1099 1.5851 21.2878 1.56066C21.1303 1.55556 20.9718 1.5464 20.8153 1.53825C21.0836 1.92015 21.3447 2.27761 21.5896 2.64525C21.8335 3.01086 22.0082 3.40702 22.0113 3.84697C23.1605 4.36737 24.3138 4.39079 25.4905 3.8928L25.4895 3.89381ZM11.3379 3.89789C12.5156 4.37857 13.6689 4.3745 14.8069 3.85002C14.8709 2.91309 15.503 2.26844 16.0253 1.54232C15.443 1.54232 14.8933 1.60445 14.3741 1.84683C13.4199 2.29289 12.541 2.85708 11.723 3.51701C11.5858 3.62801 11.47 3.7655 11.3379 3.89687V3.89789Z" fill="#F7F8C5" stroke="#F7F8C5" stroke-width="0.3"/>
</svg>
