<svg width="37" height="50" viewBox="0 0 37 50" fill="none" xmlns="http://www.w3.org/2000/svg">
<path d="M33.2964 16.1554C33.3238 16.19 33.3472 16.2277 33.3787 16.2592C33.8085 16.6961 34.1448 17.2074 34.5086 17.6962C34.8582 18.1657 35.1112 18.6779 35.2656 19.2421C35.4688 19.9846 35.6782 20.729 35.7463 21.4959C35.8092 22.1996 35.8245 22.9104 35.8062 23.6172C35.793 24.1274 35.6324 24.6183 35.3926 25.0745C35.35 25.156 35.3479 25.2283 35.3713 25.3179C35.5247 25.9167 35.6914 26.5125 35.8123 27.1174C35.9607 27.8619 35.919 28.6145 35.8611 29.3691C35.7788 30.4425 35.4495 31.4487 35.0787 32.4467C34.9008 32.9264 34.7779 33.4295 34.5127 33.8735C34.41 34.0456 34.3796 34.2157 34.3928 34.4143C34.4893 35.8329 34.1895 37.1833 33.6581 38.4879C33.4508 38.9961 33.208 39.489 32.9722 39.985C32.5983 40.7681 32.0211 41.3995 31.4297 42.0177C31.0812 42.3823 30.7205 42.7346 30.2978 43.0157C30.2368 43.0564 30.1768 43.1074 30.1088 43.1247C29.9889 43.1552 29.935 43.2377 29.8801 43.3365C29.3263 44.3335 28.6567 45.2409 27.7635 45.9599C26.6996 46.8164 25.5067 47.4305 24.2 47.8215C23.7691 47.9509 23.3332 48.0649 22.8963 48.1729C22.753 48.2085 22.5996 48.2024 22.4512 48.2208C22.4004 48.2269 22.3496 48.2462 22.3028 48.2686C21.6332 48.5935 20.9534 48.8919 20.2238 49.0559C19.475 49.2239 18.7189 49.3206 17.9518 49.2606C17.0068 49.1862 16.0902 48.9856 15.2235 48.5874C14.9765 48.4743 14.7337 48.3481 14.4807 48.2503C14.3608 48.2034 14.2195 48.2106 14.0884 48.1912C13.9838 48.176 13.8781 48.1678 13.7765 48.1413C12.7573 47.8786 11.7493 47.5822 10.8114 47.0883C10.0971 46.7115 9.41323 46.2878 8.81269 45.745C8.03535 45.0434 7.42262 44.2103 6.92472 43.2907C6.88408 43.2163 6.82819 43.1766 6.75503 43.1349C6.55587 43.0198 6.35874 42.8955 6.18091 42.7489C5.64236 42.3059 5.18104 41.7855 4.71768 41.2661C4.36712 40.873 4.0948 40.432 3.85093 39.9717C3.26055 38.8586 2.80736 37.6946 2.56247 36.4542C2.41615 35.7148 2.39176 34.9673 2.44358 34.2167C2.44765 34.1638 2.43647 34.1016 2.41208 34.0558C2.21089 33.6831 2.03713 33.3002 1.90707 32.8938C1.70283 32.2543 1.44371 31.631 1.26691 30.9853C0.794404 29.2551 0.783227 27.5197 1.31365 25.7945C1.36344 25.6316 1.41831 25.4687 1.45692 25.3027C1.47216 25.2375 1.47216 25.154 1.44371 25.0969C1.13887 24.4839 1.00678 23.8351 0.994582 23.1518C0.968163 21.7403 1.21508 20.3716 1.6317 19.0313C1.73331 18.7044 1.87354 18.3765 2.06152 18.0924C2.42021 17.5516 2.82463 17.0393 3.21483 16.52C3.31136 16.3916 3.43025 16.2786 3.51052 16.19C3.46175 16.0535 3.40383 15.9517 3.39163 15.8458C3.23921 14.4913 3.42923 13.1704 3.83365 11.8822C4.14052 10.9045 4.61709 10.0103 5.29485 9.2282C5.73382 8.72206 6.1362 8.18434 6.56603 7.67005C6.74588 7.45516 6.95419 7.26574 7.1503 7.0641C7.17266 7.04067 7.20314 7.02031 7.21533 6.99281C7.52729 6.31048 8.00995 5.7473 8.47635 5.17394C8.85029 4.71464 9.26792 4.30321 9.74652 3.94983C10.0503 3.72476 10.3989 3.65042 10.7535 3.58116C10.8927 3.55367 11.0329 3.53228 11.1721 3.50173C11.2087 3.49358 11.2453 3.47016 11.2748 3.4447C11.416 3.32249 11.5481 3.18908 11.6955 3.07604C12.4006 2.54036 13.1008 1.99551 13.8944 1.59019C14.376 1.34374 14.882 1.16246 15.4236 1.13598C15.699 1.12172 15.9784 1.18996 16.2569 1.21542C16.2985 1.21949 16.3615 1.20931 16.3808 1.18181C16.6288 0.841664 16.9895 0.732695 17.3797 0.668536C18.1987 0.534107 19.0106 0.553456 19.8204 0.746953C20.0694 0.80602 20.2462 0.95878 20.4057 1.14006C20.4657 1.20829 20.5185 1.23782 20.612 1.21338C21.428 1.00053 22.1799 1.21542 22.9034 1.57695C23.4683 1.85905 23.9927 2.20734 24.4926 2.59331C24.7334 2.77968 24.9803 2.95994 25.2242 3.14223C25.2598 3.16871 25.3035 3.19112 25.3289 3.22574C25.5219 3.49969 25.8166 3.55367 26.1143 3.58626C26.6712 3.64736 27.1163 3.92437 27.5136 4.29303C28.2909 5.01304 28.9514 5.83183 29.4889 6.74432C29.6058 6.94393 29.7389 7.11705 29.8974 7.28C30.4227 7.81873 30.9206 8.38191 31.3566 8.99906C31.6004 9.3443 31.888 9.65899 32.1187 10.0124C32.7385 10.9625 33.1013 12.0145 33.3096 13.1266C33.4782 14.0249 33.5423 14.9262 33.4417 15.8366C33.4295 15.9476 33.3705 16.0525 33.334 16.1605C33.3218 16.1594 33.3106 16.1574 33.2984 16.1564L33.2964 16.1554ZM12.6841 30.2134C12.7014 30.2439 12.7217 30.2867 12.7482 30.3264C13.052 30.7939 13.3568 31.2593 13.6596 31.7267C14.5437 33.0883 15.5456 34.3573 16.6653 35.5315C17.0281 35.9113 17.4142 36.2627 17.901 36.4888C18.2119 36.6334 18.5117 36.6925 18.8338 36.5315C19.0807 36.4073 19.3246 36.2841 19.541 36.1059C20.1253 35.6252 20.6181 35.0579 21.1069 34.4856C22.2185 33.1881 23.1747 31.7797 24.077 30.3315C24.1034 30.2887 24.1258 30.2439 24.1451 30.2073C23.948 30.1339 23.76 30.079 23.5852 29.9975C22.6626 29.5667 21.8141 29.0137 20.9788 28.4332C20.1121 27.8313 19.3987 27.0991 18.8714 26.1836C18.725 25.929 18.5604 25.6846 18.4141 25.4503C18.2566 25.7019 18.0859 25.9626 17.9274 26.2304C17.4325 27.0696 16.7913 27.7682 15.9917 28.3283C14.9501 29.0585 13.9055 29.7785 12.6841 30.2124V30.2134ZM18.8927 24.7497C18.9212 24.8138 18.9425 24.8749 18.975 24.9299C19.1386 25.211 19.3042 25.4911 19.4719 25.7701C19.7056 26.1581 19.9881 26.5074 20.3021 26.8353C20.8569 27.4169 21.4655 27.9352 22.1016 28.423C22.7296 28.9047 23.4186 29.2703 24.1725 29.5107C24.2752 29.5433 24.4164 29.5504 24.5068 29.5046C24.6592 29.4272 24.7995 29.3111 24.9194 29.1868C25.2913 28.8009 25.6703 28.419 26.0107 28.0055C26.8124 27.0299 27.4495 25.9473 27.9881 24.8067C28.3437 24.0531 28.5388 23.2679 28.4118 22.4277C28.4017 22.3625 28.3651 22.2912 28.3204 22.2424C27.854 21.727 27.352 21.2443 26.9689 20.6577C26.9496 20.6292 26.9018 20.6088 26.8653 20.6037C26.7169 20.5864 26.5635 20.5956 26.4192 20.562C25.4193 20.3329 24.5332 19.8715 23.7396 19.2238C23.6848 19.179 23.6289 19.1342 23.5689 19.0853C23.5517 19.1159 23.5415 19.1332 23.5313 19.1505C23.1676 19.7992 22.8282 20.4632 22.436 21.0946C21.8761 21.9949 21.305 22.8921 20.5226 23.6284C20.0379 24.0836 19.5593 24.5409 18.8937 24.7497H18.8927ZM17.9233 24.7802C17.6683 24.6407 17.4163 24.5317 17.1958 24.3779C16.5515 23.9278 15.9937 23.3779 15.5212 22.7536C14.8333 21.8452 14.2205 20.8858 13.6891 19.8746C13.5509 19.6128 13.4056 19.3542 13.2593 19.0863C13.2054 19.1301 13.1546 19.1709 13.1048 19.2126C12.3326 19.845 11.4729 20.3054 10.4995 20.5406C10.3247 20.5824 10.1387 20.5803 9.95889 20.6027C9.92535 20.6068 9.88064 20.6251 9.86337 20.6516C9.47724 21.2453 8.96918 21.7352 8.49566 22.2536C8.45806 22.2953 8.42656 22.3544 8.41843 22.4084C8.28532 23.2883 8.50074 24.105 8.88077 24.8882C9.3045 25.7599 9.77293 26.6062 10.3491 27.3883C10.908 28.146 11.4943 28.8762 12.2431 29.4598C12.3641 29.5545 12.485 29.5738 12.6161 29.5249C12.9229 29.4099 13.2329 29.2958 13.5306 29.1593C14.1779 28.862 14.7327 28.423 15.2875 27.9821C15.8179 27.5594 16.2945 27.0828 16.7538 26.5889C17.2222 26.0848 17.5392 25.4748 17.8786 24.881C17.8999 24.8434 17.9142 24.8006 17.9223 24.7802H17.9233ZM25.1033 30.0515C25.1124 30.0647 25.1257 30.0891 25.1419 30.1115C26.0402 31.3581 26.9374 32.6066 27.8387 33.8521C28.2116 34.3674 28.6293 34.8451 29.1333 35.2392C29.177 35.2738 29.2237 35.3054 29.2745 35.3431C29.682 35.0274 30.0783 34.7056 30.4034 34.3145C31.0375 33.5517 31.6523 32.7736 32.1532 31.9111C32.6481 31.0607 33.0555 30.1828 33.15 29.1848C33.1958 28.697 33.2303 28.2122 33.15 27.7254C32.9946 26.7732 32.643 25.8872 32.2345 25.0206C32.1685 24.88 32.0719 24.7894 31.9307 24.7252C31.2275 24.4044 30.5609 24.0184 29.9167 23.5907C29.5926 23.3758 29.2725 23.1538 28.9463 22.9328C28.9392 22.9532 28.929 22.9746 28.925 22.998C28.8691 23.2933 28.8112 23.5887 28.7593 23.885C28.5226 25.2273 27.9647 26.4484 27.2819 27.6063C26.724 28.5534 25.9904 29.3661 25.1023 30.0525L25.1033 30.0515ZM7.88801 22.9145C7.70511 23.0469 7.54456 23.1711 7.3769 23.2842C6.55891 23.8372 5.71857 24.3525 4.82031 24.769C4.74614 24.8036 4.67704 24.877 4.63741 24.9503C4.33664 25.5023 4.13138 26.0939 3.92612 26.6856C3.59791 27.6307 3.55625 28.5992 3.72899 29.5759C3.85905 30.3111 4.15678 30.9894 4.51751 31.6402C5.04894 32.5985 5.71349 33.4611 6.41157 34.2982C6.74283 34.6954 7.14522 35.0202 7.55371 35.3421C7.59537 35.3125 7.6289 35.2901 7.6604 35.2657C8.05669 34.9561 8.4164 34.6078 8.71514 34.2045C9.54634 33.0802 10.3694 31.9487 11.1935 30.8183C11.3794 30.5627 11.5542 30.2989 11.7188 30.0596C9.45997 28.2041 8.32901 25.7558 7.887 22.9135L7.88801 22.9145ZM24.708 30.2592C24.6481 30.3773 24.5993 30.4741 24.5485 30.5698C24.0648 31.4884 23.5303 32.3775 22.9267 33.2228C21.874 34.6964 20.7502 36.1059 19.224 37.1467C19.2585 37.1894 19.2961 37.2373 19.3337 37.2831C19.4404 37.4114 19.5552 37.5337 19.6528 37.6681C20.294 38.5592 20.9382 39.4482 21.5672 40.3495C21.933 40.875 22.4177 41.2641 22.9308 41.6246C22.9928 41.6684 23.0934 41.6887 23.1686 41.6755C23.4846 41.6205 23.7793 41.5013 24.0374 41.3099C24.4255 41.0217 24.8086 40.7274 25.1866 40.4269C25.8065 39.935 26.3348 39.3464 26.8856 38.7822C27.7239 37.9237 28.3041 36.9063 28.7014 35.7789C28.7136 35.7453 28.7004 35.6812 28.675 35.6588C28.1232 35.1699 27.5989 34.6526 27.166 34.0538C26.7037 33.4152 26.2617 32.7614 25.8248 32.1046C25.589 31.7491 25.3868 31.3723 25.1673 31.0067C25.02 30.7613 24.8676 30.5179 24.709 30.2582L24.708 30.2592ZM12.1232 30.2562C11.9607 30.522 11.8093 30.7664 11.6609 31.0138C11.4496 31.3662 11.2473 31.7227 11.0309 32.072C10.8612 32.3449 10.6702 32.6046 10.5005 32.8765C9.90097 33.8389 9.1846 34.7035 8.36661 35.4846C8.28227 35.5651 8.14306 35.6282 8.12172 35.7209C8.09937 35.8166 8.19082 35.9378 8.23248 36.0478C8.57797 36.9674 9.06063 37.8056 9.7201 38.5347C10.5015 39.3983 11.3276 40.2151 12.2543 40.9249C12.672 41.2447 13.0906 41.5584 13.621 41.6714C13.7348 41.6959 13.8283 41.6847 13.9187 41.6174C14.0752 41.5014 14.2419 41.3965 14.3862 41.2661C14.6321 41.042 14.8932 40.8251 15.0944 40.5644C15.5435 39.9819 15.9571 39.3719 16.392 38.7771C16.7761 38.2526 17.1683 37.7343 17.5575 37.2129C17.5758 37.1884 17.59 37.1619 17.6022 37.1426C17.4224 37.0133 17.2466 36.8951 17.0809 36.7648C15.8575 35.8014 14.8922 34.6007 13.9899 33.347C13.2908 32.3765 12.673 31.353 12.1232 30.2562ZM17.019 14.7978C16.4794 15.4934 15.9571 16.1941 15.4053 16.8703C14.8505 17.5506 14.252 18.1952 13.5926 18.7879C13.7338 19.0201 13.8679 19.2472 14.0061 19.4713C14.564 20.3777 15.1645 21.2494 15.9276 22C16.4591 22.5234 17.0017 23.0367 17.6388 23.4257C18.3409 23.8555 18.4913 23.8575 19.1904 23.4237C19.605 23.166 19.981 22.8391 20.3529 22.5183C21.2745 21.722 22.0204 20.7759 22.6575 19.7401C22.8516 19.4255 23.0436 19.1098 23.2377 18.792C21.9431 17.5832 20.8335 16.2267 19.8367 14.7754C18.8815 15.6166 17.9406 15.6085 17.019 14.7968V14.7978ZM22.7062 10.3291C22.6839 10.3861 22.6686 10.4401 22.6432 10.489C22.3018 11.155 21.9594 11.82 21.617 12.484C21.2562 13.1837 20.7858 13.8049 20.2482 14.3752C20.172 14.4567 20.1578 14.5137 20.2269 14.6003C20.5439 14.9964 20.8244 15.4313 21.182 15.7867C22.0783 16.6768 22.9684 17.575 24.0099 18.3062C24.7019 18.792 25.4244 19.2157 26.1885 19.569C26.3999 19.6668 26.6336 19.7198 26.8571 19.79C26.8856 19.7992 26.9313 19.8043 26.9506 19.788C27.0441 19.7116 27.1528 19.6424 27.2189 19.5446C27.855 18.5965 28.2665 17.5536 28.486 16.4354C28.6272 15.7164 28.7228 14.9893 28.7532 14.256C28.7614 14.0544 28.7543 13.8517 28.7543 13.646C28.7543 13.646 28.7482 13.6399 28.741 13.6399C28.7126 13.6389 28.6841 13.6409 28.6557 13.6399C28.2868 13.6165 27.92 13.591 27.5684 13.4576C26.7423 13.1429 25.9548 12.7559 25.1998 12.2936C24.6725 11.9697 24.2355 11.5512 23.8352 11.0888C23.7031 10.9361 23.5984 10.7609 23.4785 10.5969C23.4612 10.5735 23.4318 10.5521 23.4033 10.544C23.1716 10.4707 22.9379 10.4004 22.7073 10.3301L22.7062 10.3291ZM14.1281 10.3291C13.8964 10.3994 13.6596 10.4707 13.4239 10.544C13.3985 10.5521 13.3721 10.5694 13.3568 10.5898C13.2501 10.7375 13.1617 10.9014 13.0388 11.0338C12.7665 11.3292 12.5053 11.6439 12.1913 11.8883C11.3296 12.5604 10.3552 13.035 9.33905 13.4281C9.06368 13.535 8.78119 13.5992 8.48651 13.6155C8.34629 13.6236 8.20606 13.6369 8.05669 13.6481C8.05669 13.7051 8.05263 13.7581 8.05669 13.81C8.10242 14.3772 8.13392 14.9475 8.19997 15.5128C8.33511 16.6697 8.61963 17.7858 9.18155 18.8154C9.3614 19.1444 9.50468 19.5008 9.81561 19.7422C9.8776 19.79 9.92739 19.8033 10.0026 19.786C10.3613 19.7035 10.6885 19.5456 11.0197 19.3888C11.9515 18.9468 12.799 18.3714 13.5905 17.7207C14.2144 17.2074 14.7845 16.6289 15.3738 16.0749C15.8352 15.6411 16.2183 15.141 16.5861 14.6278C16.6572 14.529 16.6684 14.4658 16.5708 14.363C16.0567 13.8212 15.6045 13.2305 15.256 12.5665C14.8932 11.875 14.5396 11.1795 14.1829 10.4849C14.1586 10.437 14.1443 10.3831 14.125 10.3291H14.1281ZM22.818 42.4271C22.7164 42.3507 22.6331 42.2916 22.5548 42.2285C22.4756 42.1653 22.3973 42.1002 22.3221 42.0319C21.5103 41.2977 20.8122 40.4626 20.17 39.5786C19.6894 38.9177 19.2077 38.2557 18.8226 37.5326C18.7576 37.4114 18.7057 37.329 18.5533 37.3901C18.5066 37.4084 18.4436 37.4125 18.3968 37.3972C18.1459 37.3137 18.0564 37.4613 17.9386 37.6518C17.5646 38.2567 17.1663 38.8464 16.7659 39.435C16.2426 40.2039 15.637 40.9066 14.9918 41.5726C14.6961 41.8771 14.3658 42.1491 14.0417 42.4444C14.059 42.4709 14.0895 42.5187 14.1199 42.5656C14.6168 43.3192 15.2102 43.9944 15.8179 44.6574C16.3554 45.244 16.9854 45.6992 17.7424 45.9701C18.1641 46.1208 18.5828 46.1422 19.0055 46.0006C19.7076 45.7654 20.3255 45.3825 20.8305 44.8427C21.3101 44.3294 21.7643 43.7907 22.2155 43.252C22.4309 42.9943 22.6148 42.7102 22.8201 42.4281L22.818 42.4271ZM27.5095 20.3909C28.0968 21.0355 28.6933 21.6863 29.2847 22.3411C29.8964 23.0184 30.6504 23.4899 31.4744 23.8565C31.698 23.9563 31.9358 24.0235 32.1491 24.0989C32.6298 23.2811 32.8757 22.4063 33.1196 21.5325C33.3065 20.8645 33.4173 20.1801 33.4508 19.4866C33.5026 18.4071 33.3014 17.3652 32.9346 16.3529C32.894 16.2409 32.83 16.1706 32.7233 16.1218C32.079 15.8264 31.4683 15.4751 30.9085 15.0372C30.374 14.6196 29.8283 14.2163 29.2867 13.8059C29.2593 13.7845 29.2318 13.7631 29.1881 13.7295C29.1942 13.7876 29.1953 13.8232 29.2024 13.8579C29.3111 14.4597 29.3101 15.0708 29.244 15.6716C29.1201 16.8082 28.8355 17.9121 28.4098 18.9743C28.2035 19.4906 27.8865 19.9428 27.5115 20.3909H27.5095ZM7.64414 13.7265C7.60248 13.7601 7.58114 13.7774 7.5598 13.7947C6.71743 14.473 5.86388 15.1349 4.93514 15.693C4.65773 15.86 4.35797 15.9894 4.07346 16.1462C4.00944 16.1818 3.94644 16.2501 3.92002 16.3173C3.84686 16.5067 3.79504 16.7043 3.73102 16.8968C3.38859 17.9182 3.31034 18.9662 3.43025 20.0304C3.52068 20.8298 3.72391 21.6028 3.95864 22.3727C4.13951 22.9685 4.39456 23.5266 4.66281 24.0877C4.70041 24.0796 4.73699 24.0755 4.77154 24.0653C5.5499 23.828 6.26119 23.4573 6.89424 22.9491C7.47648 22.4817 7.95914 21.9114 8.454 21.3543C8.74461 21.0264 9.03624 20.6995 9.30958 20.3919C9.18663 20.2188 9.08095 20.0579 8.96308 19.9061C8.71311 19.5853 8.52411 19.232 8.37982 18.8531C8.1959 18.3704 8.05161 17.8765 7.91748 17.3764C7.65227 16.3927 7.51306 15.4007 7.57301 14.3823C7.58521 14.1715 7.61975 13.9628 7.64719 13.7265H7.64414ZM9.08603 38.6345C9.00372 38.9411 8.92548 39.2303 8.84724 39.5195C8.54646 40.6245 8.01096 41.6154 7.3708 42.5534C7.28951 42.6725 7.28646 42.753 7.35861 42.8762C7.86566 43.7469 8.52208 44.4883 9.273 45.1533C9.98023 45.7797 10.8338 46.1626 11.6518 46.6035C11.7656 46.6646 11.8875 46.7115 12.0074 46.7624C12.609 47.019 13.2146 47.2604 13.8557 47.4071C14.2165 47.4895 14.4969 47.3449 14.7174 47.1026C14.9877 46.8052 15.1544 46.4396 15.2387 46.0424C15.2834 45.8326 15.323 45.6208 15.3586 45.409C15.3657 45.3672 15.3556 45.3061 15.3281 45.2766C14.8109 44.7144 14.4004 44.0728 13.9868 43.4343C13.7663 43.0941 13.5601 42.7438 13.3436 42.3996C13.3253 42.37 13.2827 42.3527 13.2481 42.3354C13.0012 42.2132 12.7411 42.1124 12.5084 41.9678C11.4079 41.2865 10.5106 40.375 9.67843 39.3943C9.47419 39.1529 9.28926 38.8953 9.08501 38.6325L9.08603 38.6345ZM27.7463 38.6305C27.7087 38.6794 27.6782 38.716 27.6507 38.7547C27.04 39.6153 26.3155 40.374 25.5291 41.0706C24.9387 41.594 24.3087 42.0706 23.5557 42.3476C23.5283 42.3578 23.5009 42.3812 23.4856 42.4057C23.2905 42.7194 23.1046 43.0391 22.9024 43.3487C22.4685 44.0117 22.0478 44.6859 21.5082 45.2735C21.4777 45.3071 21.4706 45.3784 21.4788 45.4273C21.5042 45.579 21.56 45.7277 21.5743 45.8805C21.617 46.3306 21.806 46.7196 22.0803 47.0618C22.2785 47.3083 22.5447 47.4794 22.8861 47.4213C23.0975 47.3857 23.3078 47.3327 23.511 47.2635C24.2122 47.0252 24.9112 46.7787 25.5524 46.3958C25.715 46.299 25.8949 46.2308 26.0635 46.1432C27.5176 45.3967 28.6211 44.2826 29.4635 42.8915C29.5448 42.7581 29.5418 42.6684 29.4513 42.5371C28.7746 41.5523 28.2299 40.5033 27.9332 39.3372C27.8743 39.1061 27.8113 38.8769 27.7452 38.6305H27.7463ZM19.9434 7.50507C19.8052 7.64561 19.6609 7.80651 19.5024 7.95113C19.3439 8.09574 19.1732 8.23017 19.0024 8.36052C18.5757 8.68539 18.2495 8.69456 17.8329 8.36154C17.525 8.11611 17.2415 7.84114 16.9489 7.57839C16.9204 7.55293 16.9031 7.51321 16.8747 7.47146C16.7426 7.66394 16.6389 7.83401 16.518 7.98983C16.1746 8.43385 15.8281 8.87482 15.4765 9.31273C15.3728 9.44207 15.257 9.56529 15.132 9.67426C14.9247 9.85452 14.7042 10.0195 14.4766 10.2018C14.5853 10.4055 14.689 10.6316 14.8201 10.8403C15.4277 11.8149 16.1075 12.7397 16.8381 13.6236C17.1338 13.9811 17.4518 14.3192 17.8756 14.5361C18.2343 14.7204 18.5899 14.7215 18.9496 14.5392C19.2971 14.363 19.5755 14.1013 19.8265 13.811C20.6547 12.8517 21.3954 11.8272 22.063 10.7507C22.1758 10.5694 22.2612 10.3708 22.3628 10.1743C21.7897 9.85146 21.3832 9.37485 21.0063 8.86361C20.6689 8.40737 20.3072 7.96742 19.9444 7.50507H19.9434ZM2.84699 34.511C2.88357 34.7901 2.91913 35.1007 2.96588 35.4103C3.06952 36.112 3.21381 36.8045 3.45972 37.4715C3.7483 38.2516 4.10699 38.9971 4.51446 39.7222C4.94936 40.4972 5.44422 41.2223 6.10166 41.8262C6.25407 41.9668 6.40548 42.1073 6.55993 42.2448C6.62293 42.3008 6.68491 42.3008 6.74791 42.2295C6.86579 42.0951 7.00195 41.9759 7.11067 41.8354C7.57911 41.2335 7.98455 40.5919 8.28329 39.8872C8.50379 39.3668 8.72022 38.8443 8.73953 38.2669C8.74156 38.2119 8.72327 38.1488 8.6938 38.1019C8.30767 37.4705 7.91342 36.8442 7.53237 36.2097C7.45514 36.0814 7.40129 35.9562 7.23058 35.9348C7.17774 35.9287 7.12287 35.893 7.08019 35.8574C6.81701 35.6415 6.55282 35.4276 6.29675 35.2025C6.17482 35.0956 6.07625 34.9632 5.95838 34.8512C5.36394 34.287 4.86807 33.6474 4.48397 32.9213C4.47077 32.8969 4.45349 32.8755 4.43418 32.846C4.41386 32.8755 4.39456 32.8979 4.38338 32.9223C4.13341 33.4611 3.73407 33.8735 3.27478 34.232C3.1498 34.3298 3.00754 34.4041 2.84496 34.507L2.84699 34.511ZM32.3951 32.8297C32.3564 32.9009 32.3321 32.9519 32.3026 32.9987C32.1563 33.2329 32.014 33.4702 31.8616 33.7004C31.4429 34.3338 30.8861 34.8441 30.3557 35.3757C30.1464 35.5855 29.8994 35.78 29.6342 35.9052C29.4462 35.9938 29.3395 36.1038 29.2633 36.2769C29.242 36.3248 29.2146 36.3706 29.1861 36.4155C28.8345 36.9776 28.483 37.5387 28.1314 38.1009C28.108 38.1376 28.0734 38.1814 28.0775 38.218C28.0968 38.4074 28.108 38.6009 28.1558 38.7843C28.4118 39.7721 28.8721 40.6652 29.4595 41.4922C29.6281 41.7295 29.8253 41.9484 30.0204 42.1653C30.1667 42.3273 30.1921 42.3324 30.3526 42.1765C30.6829 41.8578 31.0172 41.5411 31.319 41.1958C31.7945 40.651 32.1441 40.0206 32.4916 39.3882C33.1165 38.2486 33.5941 37.0591 33.8014 35.7708C33.8705 35.338 33.9274 34.9031 33.9833 34.51C33.2669 34.1027 32.7426 33.5649 32.393 32.8286L32.3951 32.8297ZM18.279 0.951652C18.0432 0.994424 17.6764 1.05858 17.3106 1.1258C16.9732 1.18792 16.6989 1.38142 16.4733 1.61463C15.9937 2.11263 15.6187 2.68701 15.3505 3.3286C15.1767 3.74309 15.1696 4.14027 15.4318 4.52217C15.4429 4.53846 15.4521 4.55781 15.4612 4.57512C15.886 5.38577 16.4652 6.0844 17.0647 6.76469C17.335 7.07225 17.6164 7.38082 17.9375 7.62931C18.3572 7.95316 18.4568 7.93381 18.8917 7.63542C19.0543 7.52442 19.1955 7.37777 19.3337 7.23519C19.8621 6.69238 20.3498 6.11291 20.7858 5.49474C21.0489 5.12099 21.2633 4.71159 21.497 4.31747C21.6271 4.09851 21.6342 3.86835 21.5672 3.62394C21.429 3.12187 21.1841 2.67275 20.8762 2.26132C20.6699 1.98635 20.4921 1.68796 20.1873 1.48428C20.0369 1.38345 19.8977 1.24902 19.728 1.19301C19.3032 1.05349 18.8643 0.973038 18.2779 0.951652H18.279ZM21.9106 4.54152C21.873 4.62299 21.8344 4.71159 21.7897 4.79714C21.3782 5.59454 20.8904 6.34409 20.3437 7.0529C20.2828 7.13233 20.2838 7.17816 20.3519 7.24436C20.4301 7.32175 20.4951 7.41035 20.5703 7.49081C21.1749 8.14462 21.7795 8.79844 22.3862 9.45021C22.5132 9.58668 22.6697 9.67834 22.8516 9.7262C23.0944 9.78934 23.3352 9.86572 23.5811 9.91562C24.1776 10.0368 24.7781 10.1325 25.3909 10.0338C25.464 10.0215 25.5026 9.99302 25.5362 9.92886C25.7048 9.60196 25.7638 9.2445 25.7648 8.88907C25.7668 8.3483 25.7089 7.80855 25.6998 7.26778C25.6916 6.75858 25.4417 6.3726 25.1257 6.01209C25.0911 5.97237 25.0566 5.93164 25.019 5.89497C24.6247 5.51409 24.2304 5.13219 23.8331 4.75436C23.8067 4.72992 23.7549 4.72381 23.7153 4.72381C23.4196 4.71872 23.1229 4.73705 22.8302 4.70752C22.5254 4.67696 22.2246 4.59957 21.9116 4.5405L21.9106 4.54152ZM11.0289 8.69863C11.0726 8.98073 11.1152 9.30662 11.1762 9.62945C11.1986 9.74657 11.2636 9.85554 11.3154 9.96654C11.3276 9.992 11.3591 10.0205 11.3845 10.0246C11.5369 10.048 11.6904 10.0867 11.8418 10.0806C12.4179 10.0592 12.99 9.9971 13.5519 9.85656C13.9939 9.74555 14.3801 9.56835 14.692 9.20885C15.2722 8.53874 15.8809 7.8941 16.4814 7.24232C16.5495 7.16899 16.5383 7.1252 16.4814 7.05086C15.9165 6.30844 15.4003 5.53548 14.9908 4.69428C14.9095 4.52726 14.9146 4.53133 14.7367 4.57207C14.1972 4.69631 13.6566 4.80732 13.0977 4.72279C13.0652 4.7177 13.0195 4.73705 12.9931 4.75945C12.8295 4.89999 12.6648 5.03952 12.5094 5.1882C12.0816 5.59454 11.6558 6.00496 11.3418 6.51009C11.2687 6.62822 11.2006 6.76571 11.1864 6.90115C11.1244 7.48368 11.0827 8.06824 11.0299 8.70067L11.0289 8.69863ZM10.662 7.26167C10.4863 7.32379 10.3227 7.39406 10.152 7.43989C9.55243 7.60181 8.94377 7.6344 8.32901 7.53765C8.25077 7.52543 8.20505 7.54173 8.16237 7.61505C7.86261 8.13546 7.62788 8.68234 7.47445 9.26486C7.28138 9.99302 7.27833 10.7181 7.49883 11.4412C7.53948 11.5736 7.57403 11.709 7.6289 11.8353C7.79859 12.2223 7.9754 12.6062 8.15322 12.9892C8.16643 13.0167 8.21317 13.0492 8.24061 13.0462C8.90008 12.9861 9.53922 12.8364 10.1337 12.5421C10.9933 12.1164 11.7666 11.5715 12.3773 10.8169C12.4139 10.7721 12.4515 10.7293 12.5043 10.6672C12.1639 10.6672 11.856 10.6743 11.5481 10.6631C11.4384 10.6591 11.3205 10.6305 11.224 10.5786C10.9029 10.4095 10.7098 10.1346 10.6407 9.77916C10.5127 9.11923 10.4791 8.45524 10.5838 7.78716C10.6102 7.61505 10.6346 7.44294 10.661 7.26065L10.662 7.26167ZM26.1784 7.26371C26.1743 7.27796 26.1692 7.28509 26.1702 7.29222C26.1723 7.31259 26.1763 7.33194 26.1804 7.35231C26.3318 8.1436 26.3613 8.93796 26.1946 9.73027C26.158 9.90544 26.093 10.0877 25.9944 10.2354C25.8461 10.4584 25.6357 10.6346 25.3563 10.6611C25.0982 10.6855 24.8371 10.6723 24.578 10.6743C24.5028 10.6743 24.4276 10.6743 24.3412 10.6743C24.3554 10.6978 24.3625 10.712 24.3717 10.7232C24.8696 11.3679 25.4996 11.8598 26.1926 12.2681C26.5188 12.4606 26.8724 12.6103 27.224 12.7539C27.6355 12.9219 28.0755 12.982 28.5155 13.0401C28.6222 13.0543 28.6628 13.0248 28.7095 12.9372C29.0408 12.3221 29.3141 11.6846 29.43 10.9921C29.4788 10.7008 29.5123 10.3994 29.492 10.1071C29.432 9.21394 29.116 8.3982 28.675 7.62626C28.6293 7.5458 28.5795 7.52543 28.4901 7.53867C27.7249 7.64764 26.976 7.59367 26.2566 7.28815C26.2322 7.27796 26.2048 7.27185 26.1794 7.26371H26.1784ZM7.23566 7.25658C7.05682 7.4684 6.88814 7.68838 6.69914 7.889C6.22257 8.39719 5.83848 8.96953 5.50722 9.57853C5.37614 9.81989 5.2918 10.0898 5.14649 10.322C4.77764 10.9147 4.52868 11.5542 4.33765 12.2213C4.03485 13.2753 3.84584 14.3436 3.89462 15.4445C3.89868 15.5291 3.90681 15.6126 3.91291 15.6981C4.32749 15.6207 7.29256 13.5982 7.57809 13.2122C7.44803 12.9749 7.29561 12.7549 7.19908 12.5115C6.84648 11.6184 6.75503 10.6896 6.90135 9.74148C6.99077 9.16201 7.27935 8.64568 7.45921 8.09472C7.53033 7.87576 7.65837 7.67412 7.76201 7.46331C7.5913 7.39304 7.37182 7.43887 7.23566 7.25556V7.25658ZM32.9143 15.7236C32.9224 15.6278 32.9356 15.5596 32.9336 15.4914C32.9214 15.0565 32.9265 14.6206 32.8869 14.1888C32.8035 13.2814 32.5973 12.3975 32.2711 11.5491C32.0679 11.0206 31.7986 10.5175 31.5537 10.0063C31.0609 8.97564 30.3608 8.09268 29.5865 7.2688C29.4564 7.44193 29.2349 7.39406 29.055 7.47146C29.115 7.57534 29.1861 7.67005 29.2298 7.77698C29.3934 8.17925 29.5357 8.58966 29.7084 8.98786C29.9482 9.54391 30.0031 10.1264 29.9899 10.7202C29.9746 11.4025 29.8456 12.0634 29.556 12.6847C29.4716 12.867 29.3497 13.0319 29.2308 13.2264C29.496 13.4485 29.7572 13.6878 30.0386 13.8986C30.8648 14.5178 31.76 15.0321 32.6318 15.582C32.7131 15.6329 32.8035 15.6696 32.9133 15.7246L32.9143 15.7236ZM33.7038 26.6612C33.8197 26.4972 33.9447 26.3516 34.0351 26.1866C34.3277 25.656 34.6031 25.1163 34.8947 24.5857C35.1356 24.1457 35.2412 23.6722 35.226 23.1772C35.2118 22.6813 35.1772 22.1863 35.1295 21.6924C35.0482 20.8492 34.8998 20.0161 34.6885 19.1953C34.4639 18.3225 33.9782 17.5872 33.461 16.8693C33.4569 16.8632 33.4447 16.8632 33.4264 16.856C33.4955 17.0719 33.5738 17.2736 33.6246 17.4813C33.8644 18.4549 33.8999 19.4448 33.8247 20.4398C33.7719 21.1303 33.65 21.8106 33.464 22.4796C33.2679 23.1844 33.022 23.8616 32.5576 24.4615C32.8747 24.932 33.0718 25.486 33.2486 26.042C33.3319 26.3037 33.5057 26.4616 33.7038 26.6602V26.6612ZM4.28075 24.4503C4.18625 24.3301 4.08565 24.2313 4.0196 24.1121C3.7168 23.5704 3.49934 22.996 3.34184 22.3931C3.12947 21.5814 2.99839 20.7596 2.97909 19.9235C2.95571 18.8979 3.01363 17.8805 3.39062 16.909C3.39671 16.8937 3.39367 16.8764 3.39773 16.8245C3.29307 16.9711 3.20568 17.0882 3.12541 17.2094C2.71997 17.8255 2.33079 18.4488 2.14687 19.1759C1.95483 19.9377 1.8146 20.7097 1.72112 21.4898C1.64999 22.0845 1.58394 22.6792 1.60121 23.2781C1.61239 23.6671 1.66726 24.0521 1.84712 24.4014C2.17329 25.0338 2.50963 25.6611 2.85105 26.2844C2.9232 26.4168 3.03599 26.5268 3.13049 26.6469C3.41805 26.4137 3.47597 26.3312 3.58165 26.0115C3.59791 25.9616 3.6162 25.9117 3.63551 25.8618C3.82247 25.3729 3.98912 24.8739 4.27973 24.4482L4.28075 24.4503ZM1.69571 25.5685C1.6571 25.7996 1.61544 26.0115 1.58902 26.2243C1.52399 26.761 1.42745 27.2967 1.41221 27.8354C1.38376 28.8681 1.55549 29.8804 1.85728 30.8662C2.08184 31.6004 2.32876 32.3296 2.57975 33.0557C2.67628 33.3348 2.81041 33.5996 2.93234 33.8827C3.12338 33.7788 3.27884 33.6505 3.39163 33.4886C3.62026 33.1576 3.82349 32.8093 4.0511 32.4793C4.14662 32.3408 4.13443 32.2319 4.06228 32.0934C3.84178 31.6697 3.73001 31.2023 3.55117 30.7643C3.14573 29.7683 2.95876 28.7398 2.96283 27.6704C2.96283 27.5197 2.96283 27.37 2.96283 27.2722C2.8287 27.1348 2.71083 27.04 2.62649 26.9209C2.31657 26.484 2.01783 26.039 1.69673 25.5705L1.69571 25.5685ZM33.8613 33.8929C33.8776 33.8847 33.8938 33.8756 33.9101 33.8674C34.0351 33.567 34.1723 33.2716 34.281 32.9661C34.4588 32.4681 34.6092 31.961 34.786 31.463C35.1549 30.4242 35.3571 29.3528 35.4221 28.254C35.4658 27.5156 35.3337 26.7946 35.2189 26.0715C35.1935 25.9106 35.164 25.7497 35.1325 25.5664C35.038 25.71 34.9618 25.8292 34.8815 25.9453C34.6539 26.2773 34.4273 26.6093 34.1936 26.9362C34.1337 27.0207 34.0595 27.1062 33.9721 27.1561C33.8847 27.206 33.8684 27.26 33.8705 27.3466C33.8888 28.0279 33.8562 28.7082 33.7038 29.3732C33.4813 30.3458 33.1328 31.2786 32.7253 32.1891C32.6979 32.2492 32.6725 32.3001 32.7182 32.3683C32.957 32.736 33.1795 33.1148 33.4325 33.4733C33.5463 33.6342 33.717 33.7544 33.8613 33.8929ZM15.9368 45.8703C15.8382 46.1524 15.759 46.4263 15.6482 46.6881C15.449 47.1586 15.5029 47.6016 15.7559 48.0303C15.7823 48.0751 15.8281 48.122 15.8748 48.1403C16.455 48.3613 17.0383 48.5762 17.6612 48.6434C17.9467 48.674 18.2353 48.7452 18.5178 48.7249C19.3642 48.6658 20.1822 48.4652 20.9676 48.1373C20.9961 48.125 21.0306 48.1067 21.0439 48.0823C21.1983 47.7859 21.3771 47.4824 21.2918 47.1351C21.1871 46.7084 21.0378 46.2929 20.9036 45.8591C20.8579 45.8988 20.8213 45.9283 20.7858 45.9609C20.4006 46.3143 19.983 46.6209 19.5166 46.8602C19.2189 47.0129 18.9079 47.0476 18.5818 47.0099C18.47 46.9966 18.3552 46.9977 18.2434 47.0099C17.9213 47.0465 17.6053 47.0303 17.3218 46.8602C16.9986 46.6667 16.6836 46.4579 16.3737 46.243C16.2152 46.133 16.078 45.9925 15.9348 45.8693L15.9368 45.8703ZM24.2599 4.65965C24.5719 4.94175 24.897 5.22894 25.2151 5.52326C25.4661 5.75647 25.6998 6.00496 25.8339 6.32881C25.8471 6.35936 25.8766 6.38992 25.906 6.40621C26.1225 6.52536 26.3359 6.65063 26.5594 6.7545C27.0035 6.96124 27.4689 7.06715 27.9637 7.04984C28.3041 7.03864 28.6455 7.05799 28.987 7.06104C29.0855 7.06104 29.1831 7.05188 29.306 7.04577C29.24 6.93171 29.1963 6.84005 29.1394 6.75756C28.4677 5.78702 27.7219 4.88268 26.787 4.14943C26.4995 3.92437 26.1591 3.88974 25.8075 3.83882C25.7953 4.07203 25.6794 4.21054 25.4691 4.2747C25.0637 4.39996 24.6592 4.53031 24.2579 4.65761L24.2599 4.65965ZM7.52221 7.04984C7.64617 7.05595 7.73864 7.0641 7.83111 7.0641C8.20505 7.06206 8.57797 7.06104 8.95089 7.05086C9.12871 7.04678 9.30755 7.03355 9.48334 7.00707C9.96092 6.93374 10.3816 6.70766 10.8043 6.49176C10.8765 6.45509 10.9608 6.39704 10.9913 6.32678C11.1183 6.03551 11.3195 5.80128 11.5441 5.59047C11.8702 5.28495 12.2106 4.99471 12.5449 4.69835C12.5602 4.68409 12.5714 4.66576 12.5754 4.66067C12.1974 4.54152 11.8235 4.42033 11.4485 4.30728C11.2148 4.23702 11.0258 4.13212 11.0207 3.84289C10.9293 3.8541 10.849 3.85919 10.7698 3.87548C10.5269 3.92335 10.281 3.9651 10.0778 4.12295C9.12261 4.86333 8.36255 5.78193 7.68072 6.77182C7.62585 6.85125 7.58521 6.93985 7.52221 7.05086V7.04984ZM25.4915 3.89381C25.3695 3.77262 25.2577 3.63718 25.1226 3.53228C24.5932 3.12187 24.0648 2.70738 23.4755 2.38454C22.7855 2.00672 22.1118 1.5851 21.2898 1.56066C21.1323 1.55556 20.9737 1.5464 20.8173 1.53825C21.0855 1.92015 21.3467 2.27761 21.5915 2.64525C21.8354 3.01086 22.0102 3.40702 22.0132 3.84697C23.1625 4.36737 24.3158 4.39079 25.4925 3.8928L25.4915 3.89381ZM11.3398 3.89789C12.5175 4.37857 13.6708 4.3745 14.8089 3.85002C14.8729 2.91309 15.5049 2.26844 16.0272 1.54232C15.445 1.54232 14.8952 1.60445 14.376 1.84683C13.4219 2.29289 12.5429 2.85708 11.7249 3.51701C11.5877 3.62801 11.4719 3.7655 11.3398 3.89687V3.89789Z" fill="#F7F8C5" stroke="#F7F8C5" stroke-width="0.3"/>
</svg>
