<svg width="54" height="61" viewBox="0 0 54 61" fill="none" xmlns="http://www.w3.org/2000/svg">
<path d="M9.87844 24.4762C4.79228 34.0994 8.34808 45.9432 17.7973 50.9374C27.2464 55.9316 39.0354 52.198 44.1216 42.5749C49.2077 32.9517 45.6519 21.1079 36.2027 16.1137C26.7536 11.1195 14.9646 14.8531 9.87844 24.4762Z" stroke="#F7F8C5"/>
<path d="M34.2719 28.8746C34.2857 28.892 34.2974 28.9109 34.3132 28.9268C34.529 29.1461 34.6978 29.4027 34.8804 29.6481C35.0559 29.8838 35.1829 30.141 35.2605 30.4242C35.3625 30.7969 35.4676 31.1706 35.5017 31.5556C35.5334 31.9089 35.541 32.2657 35.5318 32.6205C35.5252 32.8767 35.4446 33.1231 35.3242 33.3521C35.3028 33.393 35.3018 33.4293 35.3135 33.4743C35.3905 33.7749 35.4742 34.074 35.5349 34.3777C35.6094 34.7514 35.5885 35.1292 35.5594 35.5081C35.5181 36.0469 35.3528 36.552 35.1666 37.0531C35.0773 37.2939 35.0156 37.5464 34.8825 37.7693C34.831 37.8557 34.8157 37.9411 34.8223 38.0408C34.8707 38.753 34.7203 39.4309 34.4535 40.0858C34.3494 40.3409 34.2275 40.5883 34.1092 40.8373C33.9214 41.2305 33.6317 41.5474 33.3348 41.8578C33.1598 42.0408 32.9788 42.2177 32.7665 42.3588C32.7359 42.3792 32.7058 42.4048 32.6717 42.4135C32.6115 42.4288 32.5844 42.4702 32.5569 42.5198C32.2789 43.0203 31.9427 43.4759 31.4943 43.8368C30.9603 44.2668 30.3614 44.5751 29.7054 44.7714C29.4891 44.8363 29.2703 44.8936 29.0509 44.9478C28.979 44.9656 28.902 44.9626 28.8275 44.9718C28.802 44.9748 28.7765 44.9846 28.753 44.9958C28.4169 45.1589 28.0756 45.3087 27.7093 45.391C27.3334 45.4754 26.9539 45.5239 26.5687 45.4938C26.0943 45.4564 25.6342 45.3557 25.1991 45.1558C25.0751 45.0991 24.9532 45.0357 24.8262 44.9866C24.766 44.9631 24.6951 44.9667 24.6293 44.957C24.5768 44.9493 24.5237 44.9452 24.4727 44.9319C23.9611 44.8 23.455 44.6512 22.9842 44.4033C22.6256 44.2141 22.2823 44.0014 21.9808 43.7289C21.5906 43.3767 21.283 42.9585 21.033 42.4968C21.0126 42.4595 20.9846 42.4396 20.9479 42.4186C20.8479 42.3608 20.7489 42.2985 20.6596 42.2248C20.3893 42.0025 20.1577 41.7412 19.9251 41.4805C19.7491 41.2831 19.6124 41.0618 19.49 40.8307C19.1936 40.2719 18.9661 39.6875 18.8431 39.0648C18.7697 38.6937 18.7574 38.3184 18.7835 37.9416C18.7855 37.915 18.7799 37.8838 18.7676 37.8608C18.6666 37.6737 18.5794 37.4815 18.5141 37.2775C18.4116 36.9564 18.2815 36.6435 18.1928 36.3194C17.9556 35.4508 17.9499 34.5796 18.2162 33.7136C18.2412 33.6318 18.2688 33.55 18.2881 33.4667C18.2958 33.4339 18.2958 33.392 18.2815 33.3634C18.1285 33.0556 18.0622 32.7299 18.056 32.3869C18.0428 31.6783 18.1667 30.9912 18.3759 30.3184C18.4269 30.1543 18.4973 29.9897 18.5917 29.847C18.7717 29.5755 18.9748 29.3184 19.1706 29.0576C19.2191 28.9932 19.2788 28.9365 19.3191 28.892C19.2946 28.8235 19.2655 28.7724 19.2594 28.7192C19.1829 28.0392 19.2783 27.3762 19.4813 26.7294C19.6353 26.2386 19.8746 25.7897 20.2148 25.3971C20.4352 25.143 20.6372 24.8731 20.853 24.6149C20.9433 24.507 21.0478 24.4119 21.1463 24.3107C21.1575 24.2989 21.1728 24.2887 21.1789 24.2749C21.3355 23.9324 21.5778 23.6497 21.812 23.3618C21.9997 23.1313 22.2093 22.9247 22.4496 22.7473C22.6021 22.6343 22.7771 22.597 22.9551 22.5622C23.025 22.5484 23.0954 22.5377 23.1653 22.5224C23.1837 22.5183 23.202 22.5065 23.2168 22.4937C23.2877 22.4324 23.354 22.3654 23.428 22.3087C23.782 22.0397 24.1335 21.7662 24.5319 21.5627C24.7737 21.439 25.0277 21.348 25.2996 21.3347C25.4378 21.3276 25.5781 21.3618 25.7179 21.3746C25.7388 21.3767 25.7704 21.3715 25.7801 21.3577C25.9046 21.187 26.0857 21.1323 26.2815 21.1001C26.6927 21.0326 27.1003 21.0423 27.5068 21.1394C27.6318 21.1691 27.7206 21.2458 27.8006 21.3368C27.8307 21.371 27.8573 21.3859 27.9042 21.3736C28.3138 21.2667 28.6913 21.3746 29.0545 21.5561C29.3381 21.6977 29.6013 21.8726 29.8523 22.0663C29.9732 22.1599 30.0972 22.2504 30.2196 22.3419C30.2374 22.3552 30.2594 22.3664 30.2721 22.3838C30.369 22.5213 30.517 22.5484 30.6664 22.5648C30.946 22.5955 31.1694 22.7345 31.3689 22.9196C31.7591 23.2811 32.0907 23.6921 32.3605 24.1502C32.4192 24.2504 32.486 24.3373 32.5656 24.4191C32.8293 24.6895 33.0792 24.9723 33.2981 25.2821C33.4205 25.4554 33.5649 25.6134 33.6807 25.7908C33.9918 26.2678 34.1739 26.7959 34.2785 27.3542C34.3632 27.8051 34.3953 28.2575 34.3448 28.7146C34.3387 28.7703 34.3091 28.823 34.2908 28.8772C34.2846 28.8767 34.279 28.8756 34.2729 28.8751L34.2719 28.8746ZM23.9243 35.9319C23.933 35.9472 23.9432 35.9687 23.9565 35.9886C24.109 36.2233 24.262 36.4569 24.414 36.6916C24.8578 37.3751 25.3608 38.0122 25.9229 38.6016C26.105 38.7923 26.2989 38.9687 26.5432 39.0822C26.6993 39.1548 26.8498 39.1845 27.0115 39.1037C27.1355 39.0413 27.2579 38.9794 27.3665 38.89C27.6599 38.6487 27.9073 38.3639 28.1526 38.0766C28.7107 37.4252 29.1907 36.7182 29.6437 35.9912C29.6569 35.9697 29.6682 35.9472 29.6778 35.9288C29.5789 35.892 29.4845 35.8644 29.3968 35.8235C28.9336 35.6072 28.5077 35.3296 28.0883 35.0382C27.6532 34.7361 27.2951 34.3685 27.0304 33.9089C26.9569 33.7811 26.8743 33.6584 26.8008 33.5408C26.7218 33.6671 26.6361 33.7979 26.5565 33.9324C26.3081 34.3537 25.9862 34.7044 25.5847 34.9856C25.0619 35.3521 24.5375 35.7136 23.9243 35.9314V35.9319ZM27.0411 33.189C27.0554 33.2213 27.0661 33.2519 27.0824 33.2795C27.1645 33.4206 27.2477 33.5612 27.3319 33.7013C27.4492 33.8961 27.591 34.0715 27.7486 34.2361C28.0271 34.528 28.3327 34.7882 28.652 35.0331C28.9673 35.2749 29.3131 35.4585 29.6916 35.5791C29.7431 35.5955 29.814 35.5991 29.8594 35.5761C29.936 35.5372 30.0064 35.4789 30.0665 35.4166C30.2532 35.2228 30.4435 35.0311 30.6144 34.8235C31.0169 34.3337 31.3367 33.7903 31.6071 33.2177C31.7856 32.8393 31.8836 32.4452 31.8198 32.0234C31.8147 31.9907 31.7963 31.9549 31.7739 31.9303C31.5397 31.6717 31.2877 31.4293 31.0954 31.1348C31.0857 31.1205 31.0618 31.1103 31.0434 31.1078C30.9689 31.0991 30.8919 31.1037 30.8195 31.0868C30.3175 30.9718 29.8727 30.7402 29.4743 30.415C29.4468 30.3925 29.4187 30.37 29.3886 30.3455C29.3799 30.3608 29.3748 30.3695 29.3697 30.3782C29.1871 30.7039 29.0167 31.0372 28.8198 31.3542C28.5388 31.8061 28.2521 32.2565 27.8593 32.6262C27.616 32.8547 27.3757 33.0842 27.0416 33.189H27.0411ZM26.5545 33.2044C26.4264 33.1343 26.2999 33.0796 26.1892 33.0024C25.8658 32.7765 25.5858 32.5004 25.3486 32.187C25.0032 31.731 24.6956 31.2494 24.4288 30.7417C24.3595 30.6103 24.2865 30.4804 24.2131 30.346C24.186 30.368 24.1605 30.3884 24.1355 30.4094C23.7478 30.7269 23.3163 30.958 22.8276 31.0761C22.7399 31.097 22.6465 31.096 22.5562 31.1072C22.5394 31.1093 22.5169 31.1185 22.5083 31.1318C22.3144 31.4298 22.0594 31.6757 21.8217 31.936C21.8028 31.9569 21.787 31.9866 21.7829 32.0137C21.7161 32.4554 21.8242 32.8654 22.015 33.2586C22.2277 33.6962 22.4629 34.121 22.7521 34.5137C23.0327 34.8941 23.327 35.2606 23.7029 35.5536C23.7636 35.6011 23.8244 35.6108 23.8902 35.5863C24.0442 35.5285 24.1998 35.4713 24.3493 35.4027C24.6742 35.2535 24.9527 35.0331 25.2312 34.8117C25.4975 34.5996 25.7367 34.3603 25.9673 34.1124C26.2025 33.8593 26.3616 33.5531 26.532 33.255C26.5427 33.2361 26.5499 33.2146 26.5539 33.2044H26.5545ZM30.1589 35.8506C30.1635 35.8572 30.1701 35.8695 30.1783 35.8808C30.6292 36.5065 31.0796 37.1333 31.5321 37.7586C31.7193 38.0173 31.929 38.257 32.182 38.4549C32.2039 38.4723 32.2274 38.4881 32.2529 38.507C32.4574 38.3486 32.6564 38.187 32.8196 37.9907C33.1379 37.6078 33.4465 37.2172 33.698 36.7841C33.9464 36.3572 34.151 35.9166 34.1984 35.4155C34.2214 35.1706 34.2387 34.9273 34.1984 34.6829C34.1204 34.2049 33.9439 33.7601 33.7388 33.325C33.7057 33.2545 33.6572 33.209 33.5863 33.1768C33.2333 33.0157 32.8987 32.822 32.5753 32.6072C32.4125 32.4994 32.2519 32.3879 32.0881 32.277C32.0845 32.2872 32.0794 32.2979 32.0774 32.3097C32.0493 32.458 32.0203 32.6062 31.9942 32.755C31.8754 33.4288 31.5953 34.0418 31.2525 34.6231C30.9725 35.0986 30.6042 35.5065 30.1584 35.8511L30.1589 35.8506ZM21.5166 32.2678C21.4248 32.3342 21.3442 32.3966 21.26 32.4534C20.8494 32.731 20.4275 32.9897 19.9766 33.1988C19.9394 33.2161 19.9047 33.2529 19.8848 33.2898C19.7338 33.5669 19.6308 33.8639 19.5277 34.1609C19.3629 34.6354 19.342 35.1216 19.4287 35.6118C19.494 35.981 19.6435 36.3215 19.8246 36.6481C20.0914 37.1292 20.425 37.5623 20.7754 37.9825C20.9417 38.1819 21.1437 38.345 21.3488 38.5065C21.3697 38.4917 21.3865 38.4805 21.4024 38.4682C21.6013 38.3128 21.7819 38.1379 21.9318 37.9355C22.3491 37.3711 22.7623 36.8031 23.176 36.2356C23.2694 36.1072 23.3571 35.9748 23.4397 35.8547C22.3058 34.9232 21.738 33.6942 21.5161 32.2673L21.5166 32.2678ZM29.9604 35.9549C29.9303 36.0142 29.9059 36.0628 29.8804 36.1108C29.6375 36.572 29.3692 37.0183 29.0662 37.4426C28.5378 38.1824 27.9736 38.89 27.2074 39.4125C27.2247 39.4339 27.2436 39.458 27.2625 39.481C27.316 39.5454 27.3737 39.6067 27.4227 39.6742C27.7445 40.1216 28.0679 40.5679 28.3837 41.0203C28.5673 41.2841 28.8107 41.4794 29.0683 41.6604C29.0994 41.6824 29.1499 41.6926 29.1876 41.686C29.3463 41.6584 29.4942 41.5986 29.6238 41.5025C29.8186 41.3578 30.0109 41.21 30.2007 41.0592C30.5119 40.8123 30.7771 40.5168 31.0536 40.2335C31.4744 39.8025 31.7657 39.2918 31.9652 38.7259C31.9713 38.709 31.9647 38.6768 31.9519 38.6655C31.6749 38.4201 31.4117 38.1604 31.1944 37.8598C30.9623 37.5393 30.7404 37.211 30.5211 36.8813C30.4027 36.7029 30.3012 36.5137 30.191 36.3302C30.117 36.2069 30.0405 36.0848 29.961 35.9544L29.9604 35.9549ZM23.6428 35.9534C23.5611 36.0868 23.4851 36.2095 23.4107 36.3337C23.3046 36.5106 23.203 36.6896 23.0944 36.8649C23.0092 37.0019 22.9133 37.1323 22.8281 37.2688C22.5271 37.7519 22.1675 38.186 21.7569 38.5781C21.7145 38.6185 21.6447 38.6502 21.6339 38.6967C21.6227 38.7448 21.6686 38.8056 21.6895 38.8608C21.863 39.3225 22.1053 39.7432 22.4363 40.1093C22.8286 40.5428 23.2433 40.9529 23.7086 41.3092C23.9182 41.4697 24.1284 41.6272 24.3947 41.6839C24.4518 41.6962 24.4987 41.6906 24.5441 41.6568C24.6227 41.5986 24.7063 41.5459 24.7788 41.4805C24.9022 41.368 25.0333 41.2591 25.1343 41.1282C25.3598 40.8358 25.5674 40.5295 25.7857 40.231C25.9785 39.9677 26.1754 39.7075 26.3708 39.4457C26.38 39.4334 26.3871 39.4201 26.3933 39.4104C26.303 39.3455 26.2147 39.2862 26.1316 39.2207C25.5174 38.7371 25.0328 38.1343 24.5798 37.505C24.2289 37.0178 23.9187 36.504 23.6428 35.9534ZM26.1005 28.1931C25.8296 28.5423 25.5674 28.894 25.2904 29.2335C25.0119 29.575 24.7114 29.8986 24.3804 30.1962C24.4513 30.3128 24.5186 30.4268 24.588 30.5392C24.868 30.9943 25.1695 31.4319 25.5526 31.8087C25.8194 32.0715 26.0918 32.3291 26.4116 32.5244C26.7641 32.7402 26.8396 32.7412 27.1906 32.5234C27.3987 32.3941 27.5874 32.2299 27.7741 32.0689C28.2368 31.6691 28.6112 31.1942 28.931 30.6742C29.0285 30.5162 29.1249 30.3578 29.2223 30.1982C28.5724 29.5914 28.0154 28.9104 27.515 28.1819C27.0355 28.6042 26.5631 28.6001 26.1005 28.1926V28.1931ZM28.9555 25.9498C28.9443 25.9784 28.9367 26.0055 28.9239 26.03C28.7525 26.3644 28.5806 26.6982 28.4087 27.0316C28.2276 27.3828 27.9914 27.6947 27.7216 27.981C27.6833 28.0219 27.6762 28.0505 27.7109 28.0939C27.87 28.2928 28.0108 28.5111 28.1904 28.6895C28.6403 29.1364 29.0871 29.5873 29.61 29.9544C29.9574 30.1982 30.3201 30.4109 30.7037 30.5883C30.8098 30.6374 30.9271 30.664 31.0393 30.6993C31.0536 30.7039 31.0766 30.7064 31.0863 30.6982C31.1332 30.6599 31.1878 30.6251 31.2209 30.5761C31.5402 30.1001 31.7468 29.5766 31.857 29.0152C31.9279 28.6543 31.9759 28.2892 31.9912 27.9211C31.9953 27.8199 31.9917 27.7182 31.9917 27.6149C31.9917 27.6149 31.9886 27.6118 31.9851 27.6118C31.9708 27.6113 31.9565 27.6123 31.9422 27.6118C31.757 27.6001 31.5729 27.5873 31.3964 27.5203C30.9817 27.3623 30.5863 27.1681 30.2073 26.936C29.9426 26.7734 29.7232 26.5633 29.5223 26.3312C29.4559 26.2545 29.4034 26.1665 29.3432 26.0842C29.3345 26.0725 29.3197 26.0617 29.3055 26.0576C29.1892 26.0208 29.0718 25.9856 28.956 25.9503L28.9555 25.9498ZM24.6492 25.9498C24.5329 25.985 24.414 26.0208 24.2957 26.0576C24.2829 26.0617 24.2697 26.0704 24.262 26.0806C24.2085 26.1548 24.1641 26.2371 24.1024 26.3036C23.9657 26.4518 23.8346 26.6098 23.6769 26.7325C23.2444 27.0699 22.7552 27.3082 22.2451 27.5055C22.1068 27.5592 21.965 27.5914 21.8171 27.5996C21.7467 27.6037 21.6763 27.6103 21.6013 27.6159C21.6013 27.6446 21.5993 27.6711 21.6013 27.6972C21.6243 27.982 21.6401 28.2683 21.6732 28.552C21.7411 29.1328 21.8839 29.6931 22.166 30.21C22.2563 30.3751 22.3282 30.5541 22.4843 30.6752C22.5154 30.6993 22.5404 30.7059 22.5782 30.6972C22.7582 30.6558 22.9225 30.5766 23.0888 30.4978C23.5565 30.276 23.982 29.9871 24.3793 29.6604C24.6926 29.4027 24.9787 29.1123 25.2746 28.8342C25.5062 28.6164 25.6985 28.3654 25.8831 28.1077C25.9189 28.0582 25.9245 28.0265 25.8755 27.9748C25.6174 27.7028 25.3904 27.4063 25.2154 27.073C25.0333 26.7258 24.8558 26.3767 24.6767 26.028C24.6645 26.004 24.6574 25.9769 24.6477 25.9498H24.6492ZM29.0116 42.0633C28.9606 42.0249 28.9188 41.9953 28.8795 41.9636C28.8397 41.9319 28.8005 41.8992 28.7627 41.8649C28.3551 41.4963 28.0047 41.0771 27.6823 40.6333C27.441 40.3015 27.1992 39.9692 27.0059 39.6062C26.9732 39.5454 26.9472 39.504 26.8707 39.5347C26.8473 39.5439 26.8156 39.5459 26.7922 39.5382C26.6662 39.4963 26.6213 39.5704 26.5621 39.666C26.3744 39.9697 26.1744 40.2657 25.9734 40.5612C25.7107 40.9472 25.4067 41.3 25.0828 41.6344C24.9343 41.7872 24.7686 41.9237 24.6058 42.072C24.6145 42.0853 24.6298 42.1093 24.6451 42.1328C24.8946 42.5111 25.1925 42.8501 25.4975 43.1829C25.7674 43.4774 26.0836 43.7059 26.4637 43.8419C26.6753 43.9176 26.8855 43.9283 27.0977 43.8573C27.4502 43.7392 27.7603 43.5469 28.0139 43.276C28.2546 43.0183 28.4827 42.7479 28.7091 42.4774C28.8173 42.3481 28.9096 42.2054 29.0127 42.0638L29.0116 42.0633ZM31.3668 31.0009C31.6617 31.3245 31.9611 31.6512 32.258 31.9799C32.5651 32.3199 32.9436 32.5566 33.3573 32.7407C33.4695 32.7908 33.5888 32.8245 33.696 32.8624C33.9372 32.4518 34.0607 32.0127 34.1831 31.574C34.277 31.2386 34.3326 30.8951 34.3494 30.5469C34.3754 30.005 34.2744 29.482 34.0903 28.9738C34.0699 28.9176 34.0377 28.8823 33.9842 28.8577C33.6608 28.7095 33.3542 28.5331 33.0731 28.3133C32.8048 28.1037 32.5309 27.9012 32.259 27.6952C32.2452 27.6844 32.2314 27.6737 32.2095 27.6568C32.2126 27.686 32.2131 27.7039 32.2167 27.7212C32.2712 28.0234 32.2707 28.3301 32.2376 28.6318C32.1753 29.2023 32.0325 29.7565 31.8188 30.2898C31.7152 30.549 31.5561 30.776 31.3678 31.0009H31.3668ZM21.3942 27.6553C21.3733 27.6722 21.3626 27.6809 21.3519 27.6895C20.929 28.03 20.5005 28.3623 20.0342 28.6425C19.895 28.7264 19.7445 28.7913 19.6017 28.87C19.5695 28.8879 19.5379 28.9222 19.5246 28.9559C19.4879 29.051 19.4619 29.1502 19.4298 29.2468C19.2579 29.7596 19.2186 30.2857 19.2788 30.8199C19.3242 31.2212 19.4262 31.6093 19.544 31.9958C19.6348 32.2949 19.7629 32.575 19.8975 32.8567C19.9164 32.8526 19.9348 32.8506 19.9521 32.8455C20.3429 32.7264 20.6999 32.5403 21.0177 32.2852C21.31 32.0505 21.5523 31.7642 21.8008 31.4845C21.9466 31.3199 22.093 31.1558 22.2303 31.0014C22.1685 30.9145 22.1155 30.8337 22.0563 30.7575C21.9308 30.5965 21.8359 30.4191 21.7635 30.2289C21.6712 29.9866 21.5987 29.7386 21.5314 29.4876C21.3983 28.9937 21.3284 28.4958 21.3585 27.9845C21.3646 27.8787 21.382 27.7739 21.3957 27.6553H21.3942ZM22.118 40.1594C22.0767 40.3133 22.0374 40.4585 21.9982 40.6037C21.8472 41.1584 21.5783 41.6558 21.257 42.1267C21.2162 42.1865 21.2146 42.2269 21.2509 42.2887C21.5054 42.7259 21.8349 43.0981 22.2119 43.4319C22.5669 43.7463 22.9954 43.9385 23.4061 44.1599C23.4632 44.1906 23.5244 44.2141 23.5846 44.2397C23.8866 44.3685 24.1906 44.4897 24.5125 44.5633C24.6936 44.6047 24.8344 44.5321 24.9451 44.4104C25.0807 44.2611 25.1644 44.0776 25.2067 43.8782C25.2292 43.7729 25.2491 43.6666 25.2669 43.5602C25.2705 43.5393 25.2654 43.5086 25.2516 43.4938C24.992 43.2116 24.7859 42.8895 24.5783 42.5689C24.4676 42.3982 24.364 42.2223 24.2554 42.0495C24.2462 42.0347 24.2248 42.026 24.2074 42.0173C24.0835 41.9559 23.9529 41.9053 23.8361 41.8327C23.2836 41.4907 22.8332 41.0331 22.4154 40.5408C22.3129 40.4196 22.2201 40.2903 22.1175 40.1584L22.118 40.1594ZM31.4857 40.1574C31.4668 40.1819 31.4515 40.2003 31.4377 40.2197C31.1311 40.6517 30.7674 41.0326 30.3726 41.3823C30.0762 41.6451 29.76 41.8844 29.382 42.0234C29.3682 42.0285 29.3544 42.0403 29.3468 42.0526C29.2488 42.21 29.1555 42.3706 29.054 42.526C28.8362 42.8588 28.625 43.1972 28.3541 43.4922C28.3388 43.5091 28.3352 43.5449 28.3393 43.5694C28.3521 43.6456 28.3801 43.7202 28.3873 43.7969C28.4087 44.0229 28.5036 44.2182 28.6413 44.39C28.7408 44.5137 28.8744 44.5996 29.0458 44.5705C29.1519 44.5526 29.2575 44.526 29.3595 44.4912C29.7115 44.3716 30.0625 44.2479 30.3843 44.0556C30.466 44.0071 30.5562 43.9728 30.6409 43.9288C31.3709 43.5541 31.9249 42.9948 32.3478 42.2964C32.3886 42.2294 32.387 42.1845 32.3416 42.1185C32.0019 41.6241 31.7285 41.0975 31.5795 40.5122C31.5499 40.3961 31.5183 40.2811 31.4852 40.1574H31.4857ZM27.5685 24.5321C27.4992 24.6026 27.4267 24.6834 27.3472 24.756C27.2676 24.8286 27.1819 24.8961 27.0962 24.9615C26.8819 25.1246 26.7182 25.1292 26.5091 24.962C26.3545 24.8388 26.2122 24.7008 26.0653 24.5689C26.051 24.5561 26.0423 24.5362 26.028 24.5152C25.9617 24.6118 25.9097 24.6972 25.849 24.7754C25.6766 24.9983 25.5026 25.2197 25.3261 25.4395C25.2741 25.5045 25.2159 25.5663 25.1532 25.621C25.0491 25.7115 24.9384 25.7943 24.8242 25.8859C24.8787 25.9881 24.9308 26.1016 24.9966 26.2064C25.3016 26.6957 25.6429 27.1599 26.0097 27.6037C26.1581 27.7831 26.3178 27.9528 26.5305 28.0617C26.7105 28.1543 26.8891 28.1548 27.0697 28.0633C27.2441 27.9748 27.3839 27.8434 27.5099 27.6977C27.9256 27.2161 28.2975 26.7018 28.6326 26.1614C28.6893 26.0704 28.7321 25.9707 28.7831 25.8721C28.4954 25.71 28.2914 25.4707 28.1021 25.2141C27.9328 24.985 27.7512 24.7642 27.5691 24.5321H27.5685ZM18.986 38.0894C19.0043 38.2294 19.0222 38.3854 19.0457 38.5408C19.0977 38.893 19.1701 39.2407 19.2936 39.5756C19.4384 39.9672 19.6185 40.3414 19.8231 40.7054C20.0414 41.0945 20.2898 41.4585 20.6199 41.7617C20.6964 41.8322 20.7724 41.9028 20.8499 41.9718C20.8815 41.9999 20.9127 41.9999 20.9443 41.9641C21.0035 41.8966 21.0718 41.8368 21.1264 41.7663C21.3615 41.4641 21.5651 41.142 21.7151 40.7882C21.8257 40.527 21.9344 40.2647 21.9441 39.9748C21.9451 39.9472 21.9359 39.9155 21.9211 39.892C21.7273 39.575 21.5294 39.2606 21.3381 38.9421C21.2993 38.8777 21.2723 38.8148 21.1866 38.8041C21.1601 38.801 21.1325 38.7831 21.1111 38.7652C20.979 38.6568 20.8463 38.5495 20.7178 38.4365C20.6566 38.3828 20.6071 38.3164 20.5479 38.2601C20.2495 37.9769 20.0006 37.6558 19.8078 37.2913C19.8011 37.279 19.7925 37.2683 19.7828 37.2535C19.7726 37.2683 19.7629 37.2795 19.7573 37.2918C19.6318 37.5623 19.4313 37.7693 19.2007 37.9493C19.138 37.9984 19.0666 38.0357 18.985 38.0873L18.986 38.0894ZM33.8194 37.2453C33.8 37.2811 33.7878 37.3066 33.773 37.3302C33.6995 37.4477 33.6281 37.5669 33.5516 37.6824C33.3414 38.0004 33.0619 38.2565 32.7956 38.5234C32.6905 38.6287 32.5666 38.7264 32.4334 38.7893C32.3391 38.8337 32.2855 38.889 32.2473 38.9759C32.2365 38.9999 32.2228 39.0229 32.2085 39.0454C32.032 39.3276 31.8555 39.6093 31.679 39.8915C31.6673 39.9099 31.6499 39.9319 31.652 39.9503C31.6617 40.0454 31.6673 40.1425 31.6912 40.2346C31.8198 40.7305 32.0509 41.1788 32.3457 41.594C32.4304 41.7131 32.5293 41.823 32.6273 41.9319C32.7007 42.0132 32.7135 42.0157 32.7941 41.9375C32.9599 41.7775 33.1277 41.6185 33.2792 41.4452C33.5179 41.1717 33.6934 40.8552 33.8679 40.5377C34.1816 39.9656 34.4213 39.3685 34.5254 38.7218C34.5601 38.5045 34.5887 38.2862 34.6167 38.0888C34.2571 37.8843 33.9939 37.6144 33.8184 37.2448L33.8194 37.2453ZM26.733 21.2422C26.6146 21.2637 26.4305 21.2959 26.2469 21.3296C26.0775 21.3608 25.9398 21.4579 25.8265 21.575C25.5858 21.825 25.3975 22.1134 25.2629 22.4354C25.1756 22.6435 25.1721 22.8429 25.3037 23.0346C25.3093 23.0428 25.3139 23.0525 25.3185 23.0612C25.5317 23.4682 25.8224 23.8189 26.1234 24.1604C26.2591 24.3148 26.4004 24.4697 26.5616 24.5944C26.7723 24.757 26.8223 24.7473 27.0406 24.5975C27.1222 24.5418 27.1931 24.4682 27.2625 24.3966C27.5277 24.1241 27.7726 23.8332 27.9914 23.5229C28.1235 23.3352 28.2312 23.1297 28.3485 22.9319C28.4138 22.822 28.4174 22.7064 28.3837 22.5837C28.3143 22.3317 28.1914 22.1062 28.0368 21.8997C27.9333 21.7616 27.844 21.6118 27.691 21.5096C27.6155 21.459 27.5456 21.3915 27.4604 21.3634C27.2472 21.2933 27.0268 21.2529 26.7325 21.2422H26.733ZM28.5561 23.0443C28.5372 23.0852 28.5179 23.1297 28.4954 23.1727C28.2888 23.573 28.044 23.9493 27.7695 24.3051C27.7389 24.345 27.7394 24.368 27.7736 24.4012C27.8129 24.4401 27.8455 24.4845 27.8833 24.5249C28.1868 24.8531 28.4903 25.1814 28.7948 25.5086C28.8586 25.5771 28.9372 25.6231 29.0285 25.6471C29.1504 25.6788 29.2713 25.7172 29.3947 25.7422C29.6942 25.803 29.9956 25.8511 30.3032 25.8015C30.34 25.7954 30.3593 25.7811 30.3762 25.7488C30.4609 25.5847 30.4904 25.4053 30.491 25.2269C30.492 24.9554 30.4629 24.6844 30.4583 24.413C30.4542 24.1573 30.3287 23.9636 30.1701 23.7826C30.1528 23.7626 30.1354 23.7422 30.1165 23.7238C29.9186 23.5326 29.7207 23.3409 29.5212 23.1512C29.508 23.1389 29.482 23.1359 29.4621 23.1359C29.3136 23.1333 29.1647 23.1425 29.0178 23.1277C28.8647 23.1123 28.7137 23.0735 28.5566 23.0438L28.5561 23.0443ZM23.0934 25.1313C23.1153 25.2729 23.1367 25.4365 23.1673 25.5985C23.1786 25.6573 23.2112 25.712 23.2372 25.7678C23.2433 25.7805 23.2592 25.7949 23.2719 25.7969C23.3484 25.8087 23.4254 25.8281 23.5015 25.825C23.7907 25.8143 24.0779 25.7831 24.36 25.7125C24.5819 25.6568 24.7757 25.5679 24.9323 25.3874C25.2236 25.051 25.5291 24.7274 25.8306 24.4002C25.8648 24.3634 25.8592 24.3414 25.8306 24.3041C25.547 23.9314 25.2879 23.5433 25.0823 23.121C25.0415 23.0372 25.044 23.0392 24.9548 23.0597C24.6839 23.1221 24.4125 23.1778 24.1319 23.1353C24.1156 23.1328 24.0927 23.1425 24.0794 23.1538C23.9973 23.2243 23.9146 23.2943 23.8366 23.369C23.6218 23.573 23.4081 23.779 23.2505 24.0326C23.2138 24.0919 23.1796 24.1609 23.1724 24.2289C23.1413 24.5213 23.1204 24.8148 23.0939 25.1323L23.0934 25.1313ZM22.9092 24.4099C22.821 24.4411 22.7388 24.4764 22.6531 24.4994C22.3522 24.5806 22.0466 24.597 21.738 24.5484C21.6987 24.5423 21.6758 24.5505 21.6544 24.5873C21.5039 24.8485 21.386 25.1231 21.309 25.4155C21.2121 25.7811 21.2106 26.1451 21.3212 26.5081C21.3417 26.5745 21.359 26.6425 21.3865 26.7059C21.4717 26.9002 21.5605 27.0929 21.6498 27.2851C21.6564 27.299 21.6799 27.3153 21.6936 27.3138C22.0247 27.2836 22.3455 27.2085 22.644 27.0607C23.0755 26.847 23.4637 26.5735 23.7703 26.1947C23.7886 26.1722 23.8075 26.1507 23.834 26.1195C23.6632 26.1195 23.5086 26.1231 23.354 26.1175C23.2989 26.1154 23.2398 26.1011 23.1913 26.075C23.0301 25.9902 22.9332 25.8521 22.8985 25.6737C22.8342 25.3424 22.8174 25.0091 22.8699 24.6737C22.8832 24.5873 22.8954 24.5009 22.9087 24.4094L22.9092 24.4099ZM30.6986 24.4109C30.6965 24.4181 30.694 24.4216 30.6945 24.4252C30.6955 24.4355 30.6975 24.4452 30.6996 24.4554C30.7756 24.8526 30.7904 25.2514 30.7067 25.6492C30.6884 25.7371 30.6557 25.8286 30.6062 25.9027C30.5318 26.0147 30.4262 26.1031 30.2859 26.1164C30.1563 26.1287 30.0252 26.1221 29.8951 26.1231C29.8574 26.1231 29.8197 26.1231 29.7763 26.1231C29.7834 26.1348 29.787 26.142 29.7916 26.1476C30.0415 26.4712 30.3578 26.7182 30.7057 26.9232C30.8695 27.0198 31.047 27.095 31.2235 27.167C31.4301 27.2514 31.6509 27.2816 31.8718 27.3107C31.9254 27.3179 31.9458 27.303 31.9692 27.2591C32.1355 26.9503 32.2728 26.6302 32.3309 26.2826C32.3554 26.1364 32.3722 25.985 32.362 25.8383C32.3319 25.39 32.1733 24.9804 31.9519 24.5929C31.929 24.5525 31.904 24.5423 31.8591 24.5489C31.475 24.6037 31.099 24.5766 30.7378 24.4232C30.7256 24.4181 30.7118 24.415 30.6991 24.4109H30.6986ZM21.1891 24.4073C21.0994 24.5137 21.0147 24.6241 20.9198 24.7248C20.6806 24.9799 20.4877 25.2673 20.3214 25.573C20.2556 25.6941 20.2133 25.8296 20.1403 25.9462C19.9552 26.2437 19.8302 26.5648 19.7343 26.8997C19.5823 27.4288 19.4874 27.9651 19.5119 28.5178C19.5139 28.5602 19.518 28.6021 19.5211 28.6451C19.7292 28.6062 21.2177 27.5909 21.361 27.3971C21.2957 27.278 21.2192 27.1676 21.1708 27.0454C20.9938 26.597 20.9479 26.1307 21.0213 25.6548C21.0662 25.3639 21.2111 25.1047 21.3014 24.8281C21.3371 24.7182 21.4013 24.6169 21.4534 24.5111C21.3677 24.4758 21.2575 24.4988 21.1891 24.4068V24.4073ZM34.0801 28.6578C34.0842 28.6098 34.0908 28.5755 34.0898 28.5413C34.0836 28.323 34.0862 28.1042 34.0663 27.8874C34.0245 27.4319 33.9209 26.9881 33.7572 26.5622C33.6552 26.2969 33.52 26.0443 33.397 25.7877C33.1496 25.2703 32.7982 24.8271 32.4095 24.4135C32.3442 24.5004 32.233 24.4764 32.1427 24.5152C32.1728 24.5674 32.2085 24.6149 32.2304 24.6686C32.3126 24.8705 32.384 25.0766 32.4707 25.2765C32.5911 25.5556 32.6186 25.848 32.612 26.1461C32.6043 26.4886 32.5396 26.8204 32.3942 27.1323C32.3518 27.2238 32.2906 27.3066 32.2309 27.4043C32.3641 27.5157 32.4952 27.6359 32.6365 27.7417C33.0512 28.0525 33.5006 28.3107 33.9383 28.5868C33.9791 28.6123 34.0245 28.6308 34.0796 28.6584L34.0801 28.6578ZM34.4764 34.1487C34.5346 34.0663 34.5973 33.9932 34.6427 33.9104C34.7896 33.6441 34.9279 33.3731 35.0743 33.1067C35.1952 32.8859 35.2482 32.6481 35.2406 32.3997C35.2334 32.1507 35.2161 31.9022 35.1921 31.6543C35.1513 31.231 35.0768 30.8128 34.9707 30.4007C34.858 29.9626 34.6142 29.5934 34.3545 29.233C34.3525 29.2299 34.3464 29.2299 34.3372 29.2264C34.3719 29.3347 34.4111 29.436 34.4366 29.5403C34.557 30.029 34.5749 30.526 34.5371 31.0254C34.5106 31.3721 34.4494 31.7136 34.356 32.0495C34.2576 32.4033 34.1341 32.7432 33.901 33.0444C34.0602 33.2806 34.1591 33.5587 34.2479 33.8378C34.2897 33.9692 34.377 34.0485 34.4764 34.1481V34.1487ZM19.7057 33.0387C19.6583 32.9784 19.6078 32.9288 19.5746 32.869C19.4226 32.597 19.3135 32.3087 19.2344 32.006C19.1278 31.5985 19.062 31.186 19.0523 30.7662C19.0406 30.2514 19.0696 29.7407 19.2589 29.2529C19.2619 29.2453 19.2604 29.2366 19.2625 29.2105C19.2099 29.2841 19.166 29.3429 19.1257 29.4038C18.9222 29.7131 18.7268 30.0259 18.6345 30.391C18.5381 30.7734 18.4677 31.1609 18.4208 31.5525C18.3851 31.8511 18.3519 32.1497 18.3606 32.4503C18.3662 32.6456 18.3937 32.8388 18.484 33.0142C18.6478 33.3317 18.8166 33.6466 18.988 33.9595C19.0242 34.026 19.0809 34.0812 19.1283 34.1415C19.2727 34.0244 19.3017 33.983 19.3548 33.8225C19.3629 33.7974 19.3721 33.7724 19.3818 33.7473C19.4757 33.5019 19.5593 33.2514 19.7052 33.0377L19.7057 33.0387ZM18.408 33.6001C18.3886 33.7161 18.3677 33.8225 18.3545 33.9293C18.3218 34.1988 18.2734 34.4677 18.2657 34.7381C18.2514 35.2565 18.3376 35.7647 18.4891 36.2596C18.6019 36.6282 18.7258 36.9943 18.8518 37.3588C18.9003 37.4989 18.9676 37.6318 19.0288 37.7739C19.1247 37.7218 19.2028 37.6574 19.2594 37.5761C19.3742 37.4099 19.4762 37.2351 19.5905 37.0694C19.6384 36.9999 19.6323 36.9452 19.5961 36.8757C19.4854 36.663 19.4293 36.4283 19.3395 36.2085C19.1359 35.7085 19.0421 35.1921 19.0441 34.6553C19.0441 34.5796 19.0441 34.5045 19.0441 34.4554C18.9768 34.3864 18.9176 34.3388 18.8753 34.279C18.7197 34.0597 18.5697 33.8363 18.4085 33.6011L18.408 33.6001ZM34.5555 37.779C34.5637 37.7749 34.5718 37.7703 34.58 37.7662C34.6427 37.6154 34.7116 37.4672 34.7662 37.3138C34.8554 37.0638 34.9309 36.8092 35.0197 36.5592C35.2049 36.0377 35.3064 35.4999 35.339 34.9482C35.361 34.5776 35.2946 34.2156 35.237 33.8526C35.2243 33.7719 35.2095 33.6911 35.1936 33.5991C35.1462 33.6712 35.1079 33.731 35.0676 33.7892C34.9534 33.9559 34.8396 34.1226 34.7223 34.2867C34.6922 34.3291 34.655 34.3721 34.6111 34.3971C34.5672 34.4222 34.5591 34.4493 34.5601 34.4927C34.5693 34.8348 34.5529 35.1763 34.4764 35.5101C34.3647 35.9984 34.1898 36.4667 33.9852 36.9237C33.9714 36.9539 33.9587 36.9794 33.9816 37.0137C34.1015 37.1983 34.2132 37.3884 34.3402 37.5684C34.3974 37.6492 34.4831 37.7095 34.5555 37.779ZM25.5572 43.7918C25.5077 43.9334 25.4679 44.071 25.4123 44.2024C25.3123 44.4385 25.3394 44.6609 25.4664 44.8762C25.4797 44.8987 25.5026 44.9222 25.5261 44.9314C25.8173 45.0423 26.1101 45.1502 26.4228 45.184C26.5662 45.1993 26.7111 45.2351 26.8529 45.2248C27.2778 45.1952 27.6884 45.0945 28.0827 44.9299C28.097 44.9237 28.1144 44.9145 28.121 44.9023C28.1985 44.7535 28.2883 44.6011 28.2455 44.4268C28.1929 44.2126 28.1179 44.004 28.0506 43.7862C28.0276 43.8061 28.0093 43.821 27.9914 43.8373C27.7981 44.0147 27.5884 44.1686 27.3543 44.2888C27.2048 44.3654 27.0487 44.3828 26.885 44.3639C26.8289 44.3573 26.7712 44.3578 26.7151 44.3639C26.5534 44.3823 26.3948 44.3741 26.2525 44.2888C26.0903 44.1916 25.9321 44.0868 25.7765 43.9789C25.697 43.9237 25.6281 43.8532 25.5562 43.7913L25.5572 43.7918ZM29.7355 23.1036C29.8921 23.2453 30.0553 23.3894 30.215 23.5372C30.341 23.6543 30.4583 23.779 30.5256 23.9416C30.5323 23.9569 30.5471 23.9723 30.5619 23.9804C30.6705 24.0403 30.7776 24.1031 30.8899 24.1553C31.1128 24.2591 31.3464 24.3122 31.5948 24.3035C31.7657 24.2979 31.9371 24.3076 32.1085 24.3092C32.158 24.3092 32.207 24.3046 32.2687 24.3015C32.2355 24.2442 32.2136 24.1982 32.185 24.1568C31.8478 23.6696 31.4734 23.2156 31.0041 22.8475C30.8598 22.7345 30.6889 22.7171 30.5124 22.6916C30.5063 22.8087 30.4481 22.8782 30.3425 22.9104C30.139 22.9733 29.936 23.0387 29.7345 23.1026L29.7355 23.1036ZM21.333 24.3035C21.3952 24.3066 21.4416 24.3107 21.4881 24.3107C21.6758 24.3097 21.863 24.3092 22.0502 24.3041C22.1395 24.302 22.2292 24.2954 22.3175 24.2821C22.5572 24.2453 22.7684 24.1318 22.9806 24.0234C23.0168 24.005 23.0592 23.9758 23.0745 23.9406C23.1383 23.7943 23.2393 23.6768 23.352 23.5709C23.5157 23.4176 23.6866 23.2718 23.8544 23.1231C23.8621 23.1159 23.8677 23.1067 23.8698 23.1042C23.68 23.0443 23.4923 22.9835 23.304 22.9268C23.1867 22.8915 23.0918 22.8388 23.0893 22.6936C23.0434 22.6993 23.0031 22.7018 22.9633 22.71C22.8414 22.734 22.7179 22.755 22.6159 22.8342C22.1364 23.2059 21.7548 23.667 21.4126 24.164C21.385 24.2039 21.3646 24.2483 21.333 24.3041V24.3035ZM30.3537 22.7192C30.2925 22.6584 30.2364 22.5904 30.1686 22.5377C29.9028 22.3317 29.6375 22.1236 29.3417 21.9615C28.9953 21.7718 28.6571 21.5602 28.2444 21.5479C28.1654 21.5454 28.0858 21.5408 28.0072 21.5367C28.1419 21.7284 28.273 21.9078 28.3959 22.0924C28.5184 22.2759 28.6061 22.4748 28.6076 22.6957C29.1846 22.9569 29.7635 22.9687 30.3542 22.7187L30.3537 22.7192ZM23.2495 22.7212C23.8407 22.9625 24.4196 22.9605 24.991 22.6972C25.0231 22.2269 25.3404 21.9032 25.6026 21.5387C25.3103 21.5387 25.0343 21.5699 24.7737 21.6916C24.2947 21.9155 23.8534 22.1987 23.4428 22.53C23.3739 22.5858 23.3158 22.6548 23.2495 22.7207V22.7212Z" fill="#F7F8C5"/>
<path d="M21.5737 9.29808L22.4566 7.14184C22.1341 7.12731 21.8681 7.02338 21.6618 6.84101C21.4556 6.65863 21.3235 6.40541 21.2579 6.09564C21.1733 5.66575 21.254 5.30487 21.4856 5.00544C21.7173 4.70601 22.0737 4.50007 22.5546 4.40575L23.8953 4.1422L24.7907 8.6598L24.2078 8.7736L23.8593 7.02117L23.0615 7.17726L22.2514 9.16104L21.5737 9.29808ZM23.0194 6.63226L23.7662 6.48591L23.4308 4.79545L22.684 4.94181C22.3599 4.99978 22.1285 5.12514 21.9866 5.30691C21.8447 5.48868 21.7997 5.71253 21.8589 5.98226C21.911 6.2482 22.0371 6.44328 22.234 6.55653C22.4348 6.66261 22.6953 6.69023 23.0122 6.62848L23.0194 6.63226Z" fill="#F7F8C5"/>
<path d="M27.6317 3.84174L28.0818 3.82289C28.0926 4.14955 28.0034 4.40504 27.8252 4.58599C27.6471 4.76694 27.4018 4.8666 27.1004 4.88156C26.7881 4.8999 26.536 4.82168 26.3474 4.65784C26.1518 4.49021 26.0521 4.24495 26.0194 3.92504L26.4624 3.90239C26.4794 4.11314 26.5411 4.27412 26.6512 4.37816C26.7613 4.4822 26.9088 4.53268 27.0867 4.52581C27.2574 4.51516 27.3965 4.46027 27.4933 4.34639C27.5902 4.23252 27.6411 4.06683 27.635 3.85271L27.6317 3.84174ZM25.7436 8.59392L25.5858 5.30074L26.1342 5.26958L26.2377 7.43358L28.4772 5.10485L28.635 8.39803L28.0795 8.42539L27.979 6.2905L25.7402 8.58297L25.7436 8.59392Z" fill="#F7F8C5"/>
<path d="M32.745 8.24057L32.6135 9.56505L32.0997 9.51355L32.1834 8.69576L29.4476 8.42365L29.767 5.19928L30.3243 5.25538L30.056 7.98402L31.6844 8.14771L31.9599 5.42285L32.5171 5.47897L32.2417 8.20383L32.7555 8.2553L32.745 8.24057Z" fill="#F7F8C5"/>
<path d="M34.5314 9.24929C34.0626 9.1299 33.7092 8.87892 33.475 8.48918C33.2408 8.09944 33.1815 7.67375 33.2933 7.21929C33.4051 6.76482 33.6561 6.41143 34.0458 6.17723C34.4355 5.94302 34.8612 5.88371 35.3338 5.99593C35.7955 6.11153 36.1489 6.36251 36.3831 6.75225C36.6173 7.14199 36.6766 7.56768 36.5648 8.02215C36.453 8.47661 36.202 8.83 35.8123 9.06421C35.4225 9.29842 34.9968 9.35774 34.5352 9.24214L34.5314 9.24929ZM33.9595 8.23173C34.106 8.49255 34.3379 8.66099 34.6516 8.74424C34.9691 8.82031 35.2493 8.77586 35.4996 8.61467C35.7499 8.45348 35.9149 8.21059 35.9982 7.89693C36.0814 7.58326 36.0445 7.28864 35.8981 7.02782C35.7517 6.76701 35.5197 6.59856 35.206 6.51531C34.8886 6.43924 34.6083 6.48369 34.3509 6.64109C34.1006 6.80228 33.9284 7.04141 33.8523 7.35886C33.7762 7.67631 33.8059 7.96712 33.9595 8.23173Z" fill="#F7F8C5"/>
</svg>
