<svg width="87" height="99" viewBox="0 0 87 99" fill="none" xmlns="http://www.w3.org/2000/svg">
<path d="M77.1453 57.8107C77.1453 78.9538 60.2927 96.0375 39.5727 96.0375C18.8526 96.0375 2 78.9538 2 57.8107C2 36.6676 18.8526 19.584 39.5727 19.584C60.2927 19.584 77.1453 36.6676 77.1453 57.8107Z" stroke="#F7F8C5" stroke-width="4"/>
<path d="M46.4863 35.5844C49.2805 35.8534 51.9735 36.1099 54.4958 36.3539C54.7486 36.9733 54.932 37.43 55.1912 38.0682C56.5693 38.0682 57.979 38.0431 59.3824 38.0744C60.2358 38.0932 60.9059 38.2183 61.4116 39.2068C61.772 39.9075 61.8668 40.5207 61.8731 41.2026C61.9237 47.5716 61.949 53.9468 62.0059 60.3158C62.0059 60.9915 61.7593 61.467 61.3674 61.9988C59.8565 64.0571 57.8778 65.1582 55.3555 65.7275C51.5878 66.5722 47.896 67.7421 44.1789 68.7869C43.4456 68.9934 42.9589 69.4063 42.4974 70.0945C41.3974 71.7337 40.0636 73.2164 38.8245 74.768C36.9596 77.1141 34.3046 77.8586 31.5104 78.3779C30.1197 78.6407 28.7542 78.6469 27.3634 78.4092C26.2255 78.2153 25.0371 78.209 23.9561 77.8524C21.7688 77.1204 20.1378 75.5313 18.7344 73.8045C16.6736 71.2769 15.0616 68.4616 14.4168 65.2333C13.7846 62.0926 13.8162 58.9206 14.9225 55.8863C15.6684 53.8467 16.9644 52.0699 18.7597 50.8061C21.459 48.9167 24.4555 47.7092 27.8312 47.8031C28.9565 47.8343 30.0691 48.1472 31.1943 48.2785C32.2753 48.4037 32.288 48.266 32.2311 47.1899C32.1489 45.6571 32.2248 44.1118 32.25 42.5665C32.2627 41.7469 32.288 40.9211 32.3701 40.1077C32.4018 39.8012 32.5408 39.4258 32.7684 39.2318C33.5902 38.5374 34.45 37.8742 35.335 37.2611C36.2137 36.6542 37.2631 36.7731 38.2556 36.7919C39.9434 36.8357 41.6313 36.9358 43.3129 37.0108C43.5152 37.0171 43.7364 36.9796 43.9134 37.0546C45.38 37.6552 46.0628 36.8544 46.48 35.5781L46.4863 35.5844ZM41.1256 64.8767C41.1256 62.3053 40.8854 60.1907 40.0319 58.1949C38.4895 54.5724 36.2327 51.5757 32.5219 49.8552C30.9288 49.1169 29.2915 48.4975 27.5215 48.4099C26.0675 48.3411 24.7589 48.9667 23.4251 49.4547C19.2465 50.9688 16.1931 53.4964 15.2639 58.0572C14.7012 60.7975 14.7202 63.5378 15.542 66.1655C16.5788 69.4939 18.3615 72.4406 20.9976 74.8431C22.3061 76.0318 23.7348 77.014 25.4543 77.3644C28.1663 77.9087 30.9035 77.9963 33.5586 77.0328C35.0379 76.501 36.6562 76.1006 37.6677 74.8118C38.5716 73.6606 39.4377 72.4281 40.0193 71.0955C40.9359 68.9996 41.1382 66.7286 41.1193 64.8704L41.1256 64.8767ZM45.1777 63.4502C46.3915 62.956 47.4156 62.5743 48.4018 62.1176C48.996 61.8423 49.6661 61.542 50.0643 61.0603C50.962 59.9654 50.9114 58.5828 50.7408 57.2752C50.5827 56.0552 50.235 54.854 49.9316 53.6528C49.192 50.7498 47.4346 48.6101 44.7542 47.2588C43.2054 46.4767 41.5112 46.3266 39.798 46.6144C39.0711 46.7395 38.3694 47.0085 37.6487 47.2025C37.0798 47.3526 36.4982 47.4777 35.9292 47.6279C35.3919 47.7718 34.8609 47.947 34.2666 48.1221C37.7246 49.1795 41.0118 50.3306 43.1106 53.3399C45.1777 56.2929 45.3295 59.7277 45.1777 63.444V63.4502ZM58.2888 62.4868C58.4152 55.8675 58.5416 49.3046 58.6681 42.6979C57.3405 42.579 56.1015 42.4726 55.0521 42.3788C54.9257 43.2422 54.8055 44.0054 54.6981 44.775C54.6159 45.3506 54.4515 45.9324 54.4958 46.5017C54.5653 47.509 54.8435 48.5038 54.8941 49.5111C55.0078 51.7258 55.0711 53.9468 54.6159 56.1491C58.0648 56.6367 53.2366 60.8945 58.2888 62.4868ZM52.1694 57.4191C52.2516 57.4566 52.3401 57.4942 52.4223 57.538C52.77 57.0687 53.1114 56.5995 53.4654 56.1365C54.0786 55.3357 53.9711 54.4035 53.9711 53.4964C53.9711 50.9625 54.2303 48.4037 53.3832 45.9449C53.301 45.7009 52.928 45.4256 52.6688 45.4006C50.6839 45.2067 48.6926 45.1003 46.7076 44.9001C44.6594 44.6936 42.6238 44.4121 40.6009 44.1619C40.6894 44.5935 40.7842 45.0252 40.8854 45.5383C41.5175 45.4882 42.1623 45.4382 42.8071 45.3818C48.1995 44.9126 51.7585 48.6727 52.1505 53.7091C52.2453 54.9416 52.1631 56.1803 52.1631 57.4191H52.1694ZM42.9841 66.372C44.9185 64.2948 44.6594 57.369 42.51 53.9468C40.9675 51.4881 35.2149 48.2973 33.35 48.7415C40.5187 52.389 43.6858 58.2887 42.9841 66.372ZM33.1856 47.4214C35.2844 46.8959 37.2694 46.3954 39.267 45.9136C39.7285 45.801 39.9182 45.532 39.8044 45.1066C39.7095 44.7437 39.5641 44.3808 39.3871 44.0492C38.8624 43.0795 39.0268 42.1536 39.5831 41.2526C38.913 40.8773 38.401 41.1463 37.832 41.3965C36.2769 42.0847 34.6965 42.3037 33.1856 41.3277V47.4277V47.4214ZM52.1568 44.5435C52.5171 44.4059 53.1809 44.262 53.6866 43.8991C53.9648 43.6989 54.1039 43.1358 54.0912 42.7417C54.0722 42.2036 53.5539 42.3788 53.1999 42.36C52.7005 42.335 52.201 42.3287 51.708 42.2849C50.0643 42.1285 48.4144 41.9846 46.7708 41.7782C45.3863 41.603 43.9956 41.4153 42.6428 41.0962C41.233 40.7647 40.7147 40.9586 40.2342 42.3162C39.9877 43.0044 40.2026 43.3548 40.9423 43.4486C41.5871 43.5362 42.2382 43.6113 42.8893 43.6739C45.8794 43.9617 48.8759 44.2369 52.1505 44.5498L52.1568 44.5435ZM59.4583 62.6494C59.9513 61.7422 61.026 61.4044 61.0134 60.2282C60.9502 53.7841 60.9185 47.3463 60.868 40.9023C60.868 40.7271 60.8174 40.5519 60.7921 40.3705C60.2801 41.0212 59.6732 41.6906 59.6479 42.3851C59.5088 46.2765 59.4962 50.168 59.4646 54.0657C59.4393 56.8623 59.4646 59.6526 59.4646 62.6494H59.4583ZM42.902 38.0556C41.252 37.9117 39.4567 37.7553 37.6677 37.6052C37.1177 37.5614 36.612 37.5927 36.1189 37.9806C35.3792 38.5624 34.4942 38.9753 33.7862 39.5947C33.2362 40.0702 33.4385 40.7647 34.077 40.8335C35.139 40.9523 36.2706 41.1838 37.2441 40.577C38.1607 40.0076 39.1027 39.9326 40.1268 40.0639C40.4365 40.1015 40.8664 40.1077 41.0624 39.9326C41.7325 39.3445 42.3204 38.6625 42.902 38.0556ZM53.4907 40.3642C53.7878 40.6646 54.0849 41.2339 54.4642 41.2964C55.8107 41.5029 57.1888 41.5404 58.5543 41.628C58.6364 41.628 58.7692 41.578 58.8071 41.5092C59.2623 40.7521 59.7048 39.9951 60.1789 39.1755C58.6491 39.0129 57.2773 38.8627 55.9055 38.7188C55.7791 38.7063 55.6084 38.7188 55.5136 38.7939C54.8624 39.2819 54.224 39.7887 53.4907 40.3642ZM46.1386 38.187C48.1931 38.3935 50.1212 38.5624 52.0367 38.7876C53.6044 38.9691 53.5981 39.0004 53.9585 37.4988C53.9648 37.4613 53.9268 37.4112 53.9205 37.3925C51.8344 37.0671 49.7672 36.7168 47.6874 36.4478C47.3966 36.4102 46.9668 36.673 46.7581 36.9232C46.48 37.2548 46.3599 37.7115 46.1323 38.1995L46.1386 38.187Z" fill="#F7F8C5"/>
<path d="M38.2501 64.7956C38.4271 66.9352 37.8202 68.9123 36.6887 70.6828C35.4496 72.6223 33.6417 73.861 31.3279 74.3178C29.9625 74.5868 28.6033 74.8933 27.2063 74.5868C24.9558 74.0925 23.1984 72.7474 21.8835 71.0207C18.7922 66.9665 18.2169 62.4181 19.7973 57.6258C20.0375 56.9063 20.6065 56.2494 21.1438 55.6738C23.5903 53.0586 26.5867 51.995 30.1016 52.9585C32.902 53.7281 35.0198 55.4298 36.4358 58.0012C37.2513 59.4777 37.8835 60.9854 38.1174 62.6434C38.2185 63.3503 38.1995 64.0761 38.2375 64.7956H38.2501ZM30.3038 53.7531C28.2872 53.1024 26.4413 53.1337 24.6903 53.9658C22.6989 54.9168 20.9226 56.2369 20.2967 58.4328C19.1462 62.4557 19.6962 66.3221 21.9656 69.8695C23.0656 71.5962 24.665 72.8287 26.5741 73.5607C29.0711 74.518 31.3975 73.6984 33.5658 72.5034C34.337 72.078 34.9376 71.2834 35.4939 70.5639C35.6835 70.3199 35.5634 69.7756 35.4686 69.394C35.4307 69.2501 35.064 69.1062 34.8491 69.1125C34.4887 69.1187 34.1284 69.2689 33.7618 69.3127C32.2635 69.4941 30.8349 69.3252 29.501 68.5369C27.7373 67.4983 26.7321 65.8779 26.0304 64.0761C25.4046 62.487 25.1075 60.7915 25.4236 59.0898C25.923 56.4371 27.6235 54.7541 30.2975 53.7531H30.3038ZM32.9526 68.5744C34.6278 68.4618 35.7847 67.8299 36.5243 66.466C36.9226 65.7215 37.4093 64.8957 36.9921 64.1574C36.5117 63.3191 37.3272 62.6309 36.9605 61.8488C36.4674 60.804 36.0818 59.7091 35.6772 58.6268C34.9882 56.8124 33.4836 55.7364 32.036 54.5914C31.4291 54.1097 30.7716 54.3287 30.2533 54.5539C27.7057 55.655 25.9546 57.5632 26.1505 60.5225C26.2833 62.5308 26.8712 64.3826 28.0786 66.0594C29.3303 67.8049 31.0561 68.4743 32.9526 68.5744Z" fill="#F7F8C5"/>
<path d="M32.4785 75.9637C35.7215 74.4935 37.9088 72.2162 39.2047 68.9941C39.3185 71.5467 35.26 76.2077 32.4785 75.9637Z" fill="#F7F8C5"/>
<path d="M23.3442 74.9809C22.1621 74.7932 21.3213 74.1175 20.6449 73.2416C19.0076 71.127 17.9645 68.7308 17.2502 66.1782C17.1933 65.978 17.1806 65.7653 17.2122 65.54C18.5587 69.1374 19.7346 72.8224 23.3442 74.9872V74.9809Z" fill="#F7F8C5"/>
<path d="M37.4909 56.8681C35.0318 53.6023 32.0227 51.325 27.8125 50.8745C31.3652 50.787 37.5288 54.5533 37.4909 56.8681Z" fill="#F7F8C5"/>
<path d="M21.0742 52.1758C19.9553 53.2018 18.9185 54.1653 17.8691 55.1288C18.6404 53.8838 19.576 52.8014 21.0742 52.1758Z" fill="#F7F8C5"/>
<path d="M16.7562 63.5627C16.6993 62.7431 16.6487 61.9172 16.5918 61.0977H16.7435C16.8004 61.911 16.851 62.7306 16.9079 63.5564C16.8573 63.5564 16.8067 63.5564 16.7562 63.5627Z" fill="#F7F8C5"/>
<path d="M39.4961 49.7872C39.9765 48.9613 44.0982 47.9415 44.7936 48.5421C43.0804 48.9425 41.3736 49.343 39.4961 49.7872Z" fill="#F7F8C5"/>
<path d="M42.6367 51.438C43.6039 50.4745 44.9884 50.3431 46.1958 49.8677C46.3728 49.7988 46.6699 50.0178 46.9101 50.1054C46.8975 50.1867 46.8912 50.2743 46.8785 50.3557C45.5131 50.8186 44.1539 51.2816 42.7884 51.7446C42.7379 51.6382 42.6873 51.5381 42.6367 51.4318V51.438Z" fill="#F7F8C5"/>
<path d="M45.627 56.4809C45.8229 56.3245 45.9999 56.118 46.2212 56.0304C47.1252 55.6676 48.0355 55.3297 48.9521 55.0232C49.1102 54.9669 49.3441 55.117 49.54 55.1733C49.4642 55.3172 49.4262 55.555 49.3125 55.5925C48.143 56.0054 46.9545 56.3808 45.7787 56.7687C45.7281 56.6686 45.6775 56.5747 45.627 56.4746V56.4809Z" fill="#F7F8C5"/>
<path d="M46.4927 58.8271C47.188 58.0388 48.1995 57.8324 49.1477 57.5133C49.2173 57.4883 49.3943 57.6009 49.4259 57.6885C49.4575 57.7698 49.4132 57.9763 49.3437 58.0013C48.4397 58.3829 47.5294 58.7458 46.6191 59.1149C46.5748 59.0211 46.5306 58.9273 46.4863 58.8271H46.4927Z" fill="#F7F8C5"/>
<path d="M41.7525 47.8215C40.3807 48.0905 39.0595 48.347 37.7383 48.6036C38.7118 47.7402 41.291 47.2522 41.7525 47.8215Z" fill="#F7F8C5"/>
<path d="M46.0059 61.6978C47.0932 61.1348 48.1868 60.5717 49.3057 59.9961C49.2868 60.6342 47.7127 61.5727 46.1449 61.9356C46.1007 61.8542 46.0501 61.7792 46.0059 61.6978Z" fill="#F7F8C5"/>
<path d="M46.632 52.4512C47.0429 52.8391 47.6561 52.5388 47.6751 52.8391C47.0429 53.4647 45.2729 53.6274 44.5332 53.8463C44.4953 53.7588 44.4637 53.6712 44.4258 53.5773C45.1591 53.2019 45.8987 52.8266 46.632 52.4512Z" fill="#F7F8C5"/>
<path d="M46.6313 52.4515C46.9917 52.4077 47.352 52.3451 47.7123 52.3389C47.8704 52.3389 48.0284 52.464 48.1864 52.5328C48.06 52.6454 47.9525 52.7893 47.8071 52.8644C47.2698 53.1585 46.9537 52.7706 46.625 52.4515H46.6313Z" fill="#F7F8C5"/>
<path d="M29.4766 65.5781C30.8863 66.7919 32.4477 67.1672 34.2115 66.5103C32.8966 67.8242 30.5133 67.1735 29.4766 65.5781Z" fill="#F7F8C5"/>
<path d="M14.0915 14.2619L13.0902 14.8918L12.4925 13.9227C11.2973 14.6172 10.1991 14.8756 9.18158 14.7141C8.16406 14.5526 7.37268 13.9873 6.77509 13.0344C6.19365 12.0976 6.03219 11.1447 6.32291 10.1757C6.61363 9.20662 7.34037 8.33446 8.48709 7.54306L7.93801 6.67091L8.93937 6.04102L9.48845 6.91317C10.6836 6.21868 11.7819 5.96026 12.7994 6.13792C13.8169 6.31558 14.6084 6.86472 15.206 7.80148C15.7874 8.73824 15.9489 9.69115 15.6582 10.6602C15.3674 11.6293 14.6568 12.5176 13.494 13.2928L14.0915 14.2619ZM7.79261 12.3884C8.71322 13.8581 10.086 14.0681 11.9111 13.0021L9.06851 8.46367C7.30805 9.64269 6.88816 10.9509 7.79261 12.4045V12.3884ZM10.0538 7.83378L12.8963 12.3722C14.6568 11.1932 15.0767 9.88496 14.1723 8.43137C13.2517 6.96162 11.8789 6.75166 10.0538 7.81763V7.83378Z" fill="#F7F8C5"/>
<path d="M21.5218 10.3537C20.6335 10.709 19.7614 10.7252 18.9377 10.3537C18.0978 9.99838 17.5163 9.38464 17.161 8.51248C16.8057 7.64033 16.8057 6.78432 17.161 5.96062C17.5163 5.12077 18.1301 4.52318 19.0346 4.16786C19.9229 3.81254 20.7789 3.81254 21.6187 4.16786C22.4424 4.52318 23.04 5.13692 23.3953 6.00908C23.7506 6.88123 23.7506 7.73723 23.3953 8.56094C23.04 9.38464 22.4263 9.98223 21.538 10.3537H21.5218ZM19.406 9.36849C19.9552 9.61075 20.5205 9.6269 21.118 9.36849C21.7156 9.12622 22.1194 8.72245 22.3455 8.17331C22.5555 7.62418 22.5393 7.04274 22.297 6.429C22.0548 5.81526 21.6672 5.39534 21.118 5.13692C20.5689 4.8785 20.0036 4.8785 19.406 5.13692C18.8085 5.37919 18.4047 5.78296 18.1785 6.3321C17.9524 6.89738 17.9686 7.47882 18.2109 8.07641C18.4531 8.69014 18.8569 9.11007 19.3899 9.35234L19.406 9.36849Z" fill="#F7F8C5"/>
<path d="M26.7883 8.44764L25.3831 3.18241L23.4127 3.7154L23.1543 2.74633L28.2418 1.38965L28.5003 2.35871L26.4329 2.90784L27.838 8.17308L26.7721 8.46379L26.7883 8.44764Z" fill="#F7F8C5"/>
<path d="M33.5219 7.15493C32.569 7.28414 31.7292 7.07417 31.0024 6.52504C30.2756 5.9759 29.8557 5.23296 29.7265 4.31235C29.5973 3.37559 29.8072 2.55189 30.3402 1.82509C30.8894 1.0983 31.6322 0.67837 32.5851 0.53301C33.5381 0.403802 34.3618 0.613765 35.0886 1.1629C35.8154 1.71203 36.2353 2.45498 36.3645 3.37559C36.4937 4.31235 36.2838 5.13605 35.7508 5.86285C35.2178 6.58964 34.4587 7.00957 33.5219 7.13878V7.15493ZM31.713 5.68518C32.1814 6.05666 32.7306 6.20202 33.3766 6.10511C34.0227 6.00821 34.5072 5.73364 34.8463 5.23296C35.1855 4.74843 35.3147 4.18314 35.2339 3.5371C35.137 2.89106 34.8625 2.37423 34.3942 2.00275C33.9258 1.63128 33.3766 1.48592 32.7305 1.56668C32.0845 1.66358 31.6 1.93815 31.2447 2.43883C30.8894 2.92336 30.7602 3.48865 30.8571 4.15084C30.954 4.79688 31.2285 5.31371 31.6969 5.68518H31.713Z" fill="#F7F8C5"/>
<path d="M42.9055 6.58962V5.94358C42.3564 6.44426 41.6619 6.68652 40.8544 6.67037C39.9015 6.67037 39.1262 6.3312 38.5125 5.68516C37.8987 5.03912 37.5919 4.24772 37.608 3.29481C37.608 2.3419 37.931 1.5505 38.577 0.936759C39.2069 0.306869 39.9984 0 40.9513 0C41.775 0 42.4533 0.274567 43.0024 0.775249V0.129208H44.1168L44.0523 6.58962H42.9378H42.9055ZM40.8866 5.62055C41.3389 5.62055 41.7426 5.5398 42.098 5.34599C42.4533 5.15217 42.7279 4.90991 42.9378 4.58689L42.9702 2.09963C42.7764 1.77661 42.5018 1.5182 42.1465 1.32438C41.7911 1.13057 41.3874 1.03367 40.9513 1.03367C40.3214 1.03367 39.8045 1.24363 39.3846 1.66355C38.9647 2.09963 38.7547 2.63262 38.7547 3.29481C38.7547 3.957 38.9485 4.48998 39.3523 4.94221C39.756 5.37829 40.2729 5.6044 40.9028 5.6044L40.8866 5.62055Z" fill="#F7F8C5"/>
<path d="M45.6504 6.75172L46.6679 0.37207L52.1431 1.24423L51.1256 7.62388L50.0274 7.44622L50.8833 2.06793L47.6047 1.55109L46.7486 6.92938L45.6504 6.75172Z" fill="#F7F8C5"/>
<path d="M52.6602 7.99443L54.5175 1.80859L59.8312 3.40754L57.9738 9.59339L56.9078 9.27037L58.4745 4.05359L55.2927 3.10068L53.7261 8.31746L52.6602 7.99443Z" fill="#F7F8C5"/>
<path d="M63.9485 12.2746L64.2231 11.6931C63.5124 11.9031 62.7857 11.8385 62.0427 11.4993C61.1867 11.0955 60.6053 10.4657 60.3146 9.6258C60.0238 8.78595 60.0723 7.92994 60.476 7.07394C60.8798 6.21793 61.4936 5.6365 62.3334 5.32963C63.1733 5.02276 64.0132 5.07121 64.8692 5.47499C65.6121 5.83031 66.1289 6.34714 66.4034 7.02548L66.6781 6.44405L67.6794 6.91243L64.9176 12.7591L63.9162 12.2907L63.9485 12.2746ZM62.5111 10.5464C62.9148 10.7402 63.3186 10.821 63.7224 10.8048C64.1262 10.7887 64.4815 10.6756 64.7883 10.4657L65.8543 8.22066C65.8059 7.84919 65.6767 7.49386 65.4344 7.17084C65.1921 6.84782 64.8692 6.58941 64.4654 6.39559C63.9001 6.12103 63.3347 6.10488 62.7856 6.31484C62.2365 6.5248 61.8166 6.94473 61.5259 7.52617C61.2513 8.12375 61.2028 8.70519 61.3805 9.27048C61.5581 9.83576 61.9458 10.2557 62.5111 10.5303V10.5464Z" fill="#F7F8C5"/>
<path d="M69.9729 8.18848L70.8935 8.80221L70.5382 9.3352C71.2488 9.20599 71.9594 9.38365 72.6539 9.85203C73.4453 10.385 73.9137 11.0795 74.0752 11.9678C74.2367 12.84 74.0591 13.6798 73.5262 14.4551C72.9932 15.2465 72.2987 15.731 71.4265 15.9087C70.5544 16.0863 69.7145 15.9087 68.9392 15.3918C68.2447 14.9235 67.8087 14.3259 67.6472 13.6314L65.9675 16.1348L65.0469 15.521L69.9729 8.18848ZM69.5046 14.5197C70.0214 14.875 70.5866 14.9881 71.1681 14.8427C71.7495 14.7135 72.2179 14.3743 72.5894 13.8252C72.9608 13.276 73.0901 12.7108 72.9931 12.1293C72.8962 11.5317 72.5893 11.0634 72.0564 10.7242C71.6849 10.4658 71.2973 10.3366 70.8935 10.2881C70.4898 10.2558 70.1183 10.3043 69.7953 10.4496L68.4063 12.5169C68.4063 12.8723 68.4709 13.2437 68.6647 13.5991C68.8585 13.9544 69.1331 14.2613 69.5046 14.5197Z" fill="#F7F8C5"/>
<path d="M76.2747 21.255L76.7107 20.7866C75.9678 20.7866 75.2894 20.4959 74.6918 19.9467C73.9973 19.3007 73.6259 18.5416 73.6097 17.6533C73.5774 16.765 73.8843 15.9736 74.5303 15.2629C75.1764 14.5523 75.9355 14.197 76.8238 14.1485C77.7121 14.1001 78.5035 14.4069 79.2142 15.0368C79.8118 15.586 80.1509 16.232 80.2155 16.9749L80.6515 16.5066L81.4753 17.2657L77.0983 22.0141L76.2747 21.255ZM75.4186 19.1876C75.7417 19.4945 76.1131 19.6883 76.5007 19.7852C76.8884 19.8821 77.2598 19.8821 77.6313 19.7852L79.3111 17.9602C79.3757 17.5887 79.3434 17.2172 79.2142 16.8457C79.085 16.4743 78.8588 16.1189 78.5196 15.8282C78.0512 15.4083 77.5344 15.2145 76.9368 15.2468C76.3392 15.2952 75.8224 15.5537 75.3863 16.0382C74.9341 16.5227 74.7242 17.0557 74.7242 17.6533C74.7242 18.2509 74.9664 18.7677 75.4348 19.1876H75.4186Z" fill="#F7F8C5"/>
<path d="M78.9863 24.2272L83.1694 20.7225L81.8612 19.1558L82.6365 18.5098L86.0281 22.5475L85.2529 23.1936L83.88 21.5623L79.697 25.0671L78.9863 24.2272Z" fill="#F7F8C5"/>
</svg>
