<svg width="60" height="55" viewBox="0 0 60 55" fill="none" xmlns="http://www.w3.org/2000/svg">
<path d="M0.652545 29.3873C0.826998 28.3406 0.739783 27.3025 0.550793 26.2695C0.270942 24.7408 0.145549 23.1982 0.0456027 21.654C0.0237961 21.3321 0.00562399 21.0084 0.000172353 20.6865C-0.0070965 20.2836 0.216426 19.9823 0.505363 19.7155C0.536255 19.688 0.579866 19.6518 0.61621 19.6535C0.87062 19.6707 0.985102 19.4728 1.15955 19.3609C1.5975 19.082 2.05181 18.8237 2.48249 18.5379C2.83321 18.3055 3.17121 18.0559 3.49649 17.7908C5.50996 16.1467 7.50525 14.4819 9.53508 12.855C10.5436 12.0459 11.6103 11.3039 12.6516 10.5326C14.3343 9.28795 16.0171 8.04326 17.7053 6.80373C19.9205 5.17685 22.1338 3.54824 24.3617 1.93513C25.2104 1.32053 26.0917 0.75069 26.9603 0.163634C27.2547 -0.0360677 27.6981 -0.0808286 28.0125 0.187736C28.5286 0.628458 29.0992 1.01409 29.6098 1.45998C32.69 4.15251 36.0282 6.55582 39.2374 9.10202C41.4326 10.8425 43.6387 12.5693 45.7957 14.3511C48.3616 16.4703 51.1547 18.3141 53.746 20.3972C54.8018 21.246 55.9485 21.9966 56.8971 22.9658C57.0824 23.1552 57.326 23.2946 57.544 23.4548C58.26 23.9816 58.9778 24.5066 59.6956 25.0317C59.7647 25.0816 59.8537 25.1195 59.8991 25.1832C59.9536 25.259 60.0136 25.3657 59.9973 25.4466C59.9064 25.9011 59.8973 26.3522 59.9191 26.8187C59.9682 27.8568 59.9627 28.8966 59.9591 29.9347C59.9555 30.8695 59.9191 31.8061 59.9046 32.7409C59.9028 32.8907 59.9409 33.0405 59.9555 33.1919C59.9991 33.6447 59.8864 34.0062 59.4503 34.2869C59.1832 34.4573 59.0014 34.75 58.7906 34.9944C58.2527 35.6159 57.7294 36.2512 57.1788 36.8623C56.9207 37.1481 56.6118 37.3943 56.3265 37.6594C55.3597 38.5632 54.4002 39.474 53.4262 40.3692C52.4249 41.2885 51.3909 42.1768 50.3987 43.1047C48.1163 45.2395 45.6358 47.1642 43.1935 49.1268C42.0487 50.0461 40.8093 50.8604 39.6172 51.7281C38.4651 52.5665 37.3203 53.4135 36.1682 54.2519C35.8938 54.4516 35.6048 54.6307 35.3213 54.82C35.3086 54.8045 35.2959 54.7908 35.2832 54.7753C35.5103 54.5704 35.7284 54.3586 35.9628 54.1624C37.78 52.6491 39.5863 51.1255 41.4217 49.6347C43.3934 48.0302 45.4196 46.4842 47.3731 44.8607C48.9395 43.5592 50.4351 42.1803 51.9543 40.8271C52.047 40.7445 52.1124 40.5878 52.1087 40.4673C52.0778 39.5531 52.0742 38.6356 51.9724 37.7266C51.8125 36.3183 51.5817 34.9187 51.3782 33.5156C51.3691 33.4553 51.3473 33.3985 51.3237 33.3176C51.2692 33.3503 51.2274 33.371 51.1911 33.3985C49.6828 34.5537 48.1763 35.7106 46.6644 36.8606C46.5317 36.9622 46.5008 37.0586 46.5226 37.2118C46.7389 38.6889 46.966 40.1643 47.1532 41.6449C47.2495 42.4075 47.2768 43.1788 47.3331 43.9466C47.3367 44.0017 47.3531 44.0688 47.3277 44.1084C47.2713 44.1911 47.1914 44.2599 47.1205 44.3357C47.0496 44.2616 46.9751 44.1893 46.9097 44.1101C46.8915 44.0878 46.9061 44.043 46.9042 44.0086C46.8588 43.2821 46.8407 42.5504 46.7607 41.8273C46.5953 40.3433 46.3954 38.8628 46.2101 37.3805C46.2064 37.3461 46.1974 37.3134 46.1864 37.2531C46.1283 37.2858 46.0792 37.3082 46.0392 37.3392C44.0312 38.9351 42.0269 40.5362 40.0152 42.1303C39.0248 42.9154 38.0998 43.7762 37.0295 44.4717C36.995 44.4941 36.9586 44.5147 36.9332 44.5302C39.6899 41.6397 42.8391 39.1503 46.0683 36.716C45.8212 36.2873 45.4868 35.9551 45.0416 35.733C44.9925 35.7089 44.8726 35.776 44.8072 35.8259C44.0076 36.4526 43.2153 37.0896 42.4139 37.7145C41.9832 38.0519 41.5398 38.3756 41.0946 38.6975C40.8929 38.8439 40.6676 38.9472 40.3841 38.9231C41.6416 37.8471 42.9191 36.7952 44.2111 35.7881C43.1335 35.0082 42.0923 34.2421 41.0347 33.4932C38.4415 31.6563 35.8229 29.8487 33.2461 27.9894C29.9224 25.5878 26.7768 22.9865 23.7184 20.2871C21.645 18.457 19.5207 16.6804 17.2873 15.0277C16.286 14.2874 15.2357 13.6074 14.2126 12.8912C14.0363 12.7672 13.9146 12.7638 13.7474 12.9067C12.9587 13.5764 12.1555 14.2323 11.365 14.9003C10.6 15.5441 9.84401 16.1949 9.0826 16.8439C9.03898 16.8801 8.99719 16.9179 8.95176 16.9541C8.80275 17.0694 8.74642 17.1831 8.7973 17.3914C8.96267 18.08 8.57924 18.7824 7.90868 19.113C7.89051 19.1216 7.87778 19.1388 7.87778 19.1388C8.73733 20.0133 8.79003 20.9981 8.38479 22.0792C8.86454 21.9708 9.24979 22.1773 9.58961 22.4786C9.91307 22.7661 10.0821 23.1363 10.1838 23.5374C10.1947 23.5821 10.202 23.639 10.1838 23.6803C10.1584 23.7388 10.1166 23.8077 10.0621 23.8301C10.0294 23.8438 9.94215 23.787 9.91126 23.7423C9.86401 23.6751 9.85128 23.589 9.81312 23.515C9.695 23.2809 9.60232 23.0261 9.4424 22.8195C9.06806 22.3357 8.53199 22.2875 7.95775 22.3994C7.86689 22.4166 7.77239 22.4235 7.6143 22.4425C7.68153 22.3237 7.70334 22.2565 7.74877 22.2118C8.2485 21.7246 8.31575 21.1324 8.21035 20.5023C8.17946 20.3129 8.13039 20.1235 8.0686 19.941C7.97047 19.6484 7.77059 19.4246 7.4871 19.2713C7.43622 19.2438 7.37806 19.2231 7.3399 19.1853C7.26357 19.1112 7.19815 19.0269 7.12909 18.946C7.23267 18.915 7.33627 18.8616 7.44167 18.8582C7.78694 18.8496 8.15401 18.6068 8.27031 18.2263C8.36117 17.9268 8.37571 17.6049 8.4375 17.295C8.45204 17.2261 8.51564 17.159 8.57197 17.1056C8.78277 16.9093 9.01354 16.7303 9.21525 16.5254C10.3474 15.3789 11.4831 14.2392 12.7334 13.208C13.006 12.9824 13.2931 12.7724 13.5984 12.5383C13.5111 12.4884 13.4403 12.4453 13.3676 12.4057C13.0096 12.2112 12.6425 12.027 12.2936 11.8169C12.1537 11.7326 12.0737 11.755 11.9538 11.8376C10.2838 12.991 8.73732 14.2839 7.19451 15.582C5.40092 17.0918 3.49832 18.4725 1.60115 19.8584C1.47576 19.9496 1.33582 20.0271 1.19771 20.1029C1.09958 20.1579 1.06325 20.2199 1.12686 20.3215C1.30313 20.6056 1.48485 20.8862 1.64658 21.1771C1.69928 21.2752 1.69383 21.4009 1.71563 21.5145C1.59388 21.5266 1.41941 21.5937 1.35762 21.5404C1.1232 21.3458 0.917878 21.1169 0.717985 20.8896C0.676189 20.8431 0.681621 20.7398 0.697976 20.6693C0.754309 20.4368 0.825198 20.2096 0.897887 19.9496C0.607133 20.1373 0.39087 20.3318 0.429032 20.6761C0.514441 21.4767 0.58168 22.2789 0.681627 23.0777C0.839724 24.3276 1.02508 25.574 1.185 26.8221C1.21953 27.089 1.41396 27.2284 1.59023 27.3817C3.17666 28.7555 4.79399 30.0983 6.34771 31.5048C7.8142 32.8339 9.36428 34.0665 10.9162 35.2991C11.147 35.4834 11.2996 35.714 11.3668 36.0239C11.4304 36.3149 11.5867 36.6196 11.7902 36.8451C12.5008 37.6336 13.1877 38.4582 14.129 39.0177C14.7668 39.3965 15.4247 39.7528 16.1588 39.9457C16.2806 39.9784 16.4187 39.9698 16.5477 39.956C17.1002 39.8992 17.6671 39.9405 18.1959 39.7322C18.2341 39.7167 18.2995 39.7236 18.334 39.746C19.0555 40.1953 19.7896 40.6257 20.4911 41.1026C22.6899 42.6003 24.8815 44.1101 27.0676 45.6251C28.7903 46.8199 30.5057 48.0215 32.2157 49.2335C33.0698 49.8395 33.9021 50.4748 34.7453 51.0946C34.887 51.1978 35.0342 51.296 35.2396 51.4371C35.2396 51.246 35.2396 51.1135 35.2396 50.9809C35.2559 49.4332 35.2704 47.8838 35.2922 46.3361C35.2941 46.1709 35.3431 46.0056 35.3777 45.8007C34.7089 45.3703 34.002 44.8935 33.2733 44.4493C32.1267 43.7486 30.9637 43.0703 29.8116 42.38C29.7025 42.3145 29.6008 42.2336 29.5135 42.1441C29.4754 42.1045 29.4826 42.0236 29.4681 41.9616C29.5335 41.9616 29.6098 41.941 29.6643 41.9651C29.7879 42.0202 29.9024 42.0976 30.0187 42.1665C31.616 43.1065 33.2134 44.0447 34.8089 44.9864C35.0469 45.1276 35.2777 45.2808 35.514 45.4271C35.6157 45.4908 35.7066 45.5149 35.832 45.4392C35.8974 45.3996 36.0537 45.4116 36.1136 45.4599C36.2227 45.5494 36.19 45.6974 36.0773 45.7628C35.9246 45.8524 35.7429 45.8988 35.5739 45.966C35.5739 46.2328 35.5721 46.5393 35.5739 46.844C35.5866 48.3039 35.5975 49.7621 35.6157 51.2219C35.6194 51.4664 35.503 51.7505 35.8192 51.9278C35.7538 51.9089 35.6884 51.8916 35.6012 51.8675C35.4649 52.73 35.5303 53.6098 35.2505 54.4654C35.2087 54.3001 35.1323 54.1348 35.1342 53.9696C35.1396 53.3378 35.1523 52.7059 35.2014 52.0758C35.2214 51.8193 35.1614 51.6937 34.9234 51.5422C33.9348 50.9155 32.9644 50.2613 32.0031 49.5951C28.2142 46.9645 24.4308 44.3236 20.6437 41.6896C19.9059 41.1766 19.1591 40.6756 18.4122 40.1746C18.354 40.1368 18.2595 40.1092 18.1959 40.1247C17.4927 40.29 16.7803 40.3244 16.0625 40.2762C15.9644 40.2693 15.8735 40.1867 15.779 40.1402C15.7318 40.1178 15.6845 40.0851 15.6355 40.0782C14.954 39.9973 14.3652 39.7115 13.8019 39.3603C12.866 38.7767 12.1773 37.9504 11.4486 37.1688C11.147 36.8468 10.9816 36.4526 10.8889 36.0239C10.8562 35.8742 10.7108 35.7278 10.58 35.6211C9.36608 34.6277 8.12493 33.6619 6.9292 32.6479C6.02605 31.8818 5.18106 31.0555 4.30698 30.2601C3.55829 29.5784 2.79687 28.9087 2.05181 28.2235C1.79377 27.9859 1.56842 27.7156 1.28857 27.4195C1.28857 27.7879 1.29949 28.1013 1.28495 28.4129C1.26678 28.7968 1.24498 29.1807 1.19409 29.5612C1.16138 29.8073 1.26678 29.9967 1.41579 30.162C1.56843 30.3324 1.77014 30.4615 1.93551 30.6234C2.05544 30.7404 2.13541 30.8954 2.25716 31.0073C2.8314 31.5324 3.39291 32.0746 3.99986 32.5653C7.29992 35.2303 10.6091 37.8849 13.9237 40.5344C15.2775 41.6173 16.6386 42.6933 18.0215 43.7417C18.8192 44.3477 19.6751 44.8866 20.4929 45.4685C23.4949 47.6032 26.5097 49.7242 29.6571 51.6661C30.7928 52.3668 31.9813 52.9952 33.1643 53.6235C33.6804 53.8973 34.2455 54.0849 34.7834 54.3242C34.8598 54.3586 34.9561 54.4619 34.947 54.5222C34.9379 54.5859 34.8198 54.6823 34.7453 54.684C34.5854 54.6892 34.4073 54.6771 34.2674 54.6117C33.8058 54.3982 33.3533 54.1693 32.9081 53.9248C31.5833 53.1966 30.2622 52.4632 28.9466 51.7229C26.3752 50.2751 24.0146 48.5432 21.6141 46.8629C20.5765 46.1364 19.4807 45.4805 18.4376 44.7609C17.5072 44.1187 16.5804 43.4646 15.7027 42.7604C12.8097 40.4398 9.94032 38.0898 7.05822 35.7588C6.44582 35.263 5.788 34.8154 5.18832 34.3075C4.45235 33.6843 3.75817 33.0181 3.044 32.3708C2.44069 31.8233 1.81012 31.3034 1.32311 30.6526C1.29403 30.6148 1.25043 30.5528 1.2159 30.5562C0.906973 30.5769 0.866979 30.3341 0.76885 30.1517C0.674355 29.9743 0.585318 29.7936 0.503544 29.6111C0.44721 29.4837 0.45993 29.3804 0.66164 29.3821L0.652545 29.3873ZM19.4098 8.81969C19.4989 8.88855 19.5552 8.93159 19.6134 8.97291C21.0344 10.0213 22.4555 11.0681 23.7929 12.2146C25.5593 13.7279 27.3202 15.2515 29.1501 16.6924C30.7347 17.9388 32.3829 19.113 34.0729 20.2389C35.7811 21.3768 37.4402 22.5905 38.8685 24.0539C38.8867 24.0728 38.8994 24.0986 38.9158 24.121C38.8267 24.0986 38.7577 24.0607 38.6959 24.0143C38.3452 23.7474 38.0072 23.4634 37.6419 23.2137C35.9919 22.0895 34.3128 21.0032 32.6846 19.8498C30.4621 18.2763 28.2724 16.6632 26.2153 14.8934C24.0165 13.0014 21.8758 11.0474 19.5189 9.32583C19.388 9.22942 19.2626 9.12785 19.1409 9.03316C17.5108 10.2056 15.779 11.2127 14.2762 12.5279C14.3471 12.5727 14.4125 12.6157 14.4797 12.6571C16.1643 13.7141 17.8107 14.8245 19.3444 16.0709C21.2125 17.5911 23.0642 19.1284 24.8887 20.6951C27.2783 22.7489 29.7062 24.7614 32.243 26.6465C34.7635 28.5179 37.3384 30.3221 39.8843 32.1624C41.2636 33.1592 42.6901 34.1044 43.8949 35.3009C44.024 35.4283 44.1566 35.5539 44.2874 35.6796C45.9902 34.5055 47.4367 33.0818 49.0049 31.7803C48.8051 31.6219 48.6288 31.479 48.4489 31.3395C47.6475 30.7249 46.8733 30.0742 46.0356 29.5095C44.302 28.3423 42.5338 27.2198 40.7766 26.0819C40.2314 25.7289 39.6808 25.3812 39.1357 25.0283C39.0666 24.9835 39.0157 24.9112 38.9558 24.8509C38.9757 24.832 38.9957 24.8131 39.0157 24.7924C40.7566 25.8736 42.4902 26.9633 44.2384 28.0324C45.9902 29.1032 47.6548 30.2842 49.2103 31.5806C49.2648 31.5496 49.2866 31.541 49.3012 31.5272C49.8881 31.0365 50.4751 30.5425 51.0657 30.057C51.1184 30.0139 51.2092 30.0122 51.2819 29.9916C51.2528 30.0553 51.2401 30.131 51.1929 30.1792C51.0402 30.3359 50.873 30.4788 50.7167 30.6337C50.3369 31.009 49.9608 31.3877 49.5737 31.7751C50.1534 32.0764 50.7149 32.369 51.311 32.6789C53.955 30.3359 56.7626 28.1047 59.2576 25.5447C59.1813 25.4604 59.1268 25.3812 59.0523 25.3209C58.5253 24.8991 57.9947 24.4808 57.4677 24.0607C56.53 23.3136 55.6905 22.4631 54.691 21.7779C53.4498 20.9275 52.2505 20.0237 51.0329 19.1422C49.8154 18.2608 48.5634 17.4189 47.3876 16.4893C44.4219 14.1428 41.4944 11.7532 38.5432 9.38953C35.8029 7.19452 33.0589 5.00297 30.3004 2.83035C29.4027 2.12278 28.4523 1.47891 27.5291 0.800615C27.3965 0.702485 27.2947 0.719702 27.1639 0.810945C25.7373 1.81634 24.2927 2.8028 22.8789 3.82541C21.7195 4.66382 20.6055 5.56075 19.4498 6.40604C17.1329 8.10007 14.8014 9.77688 12.4753 11.4589C12.4354 11.4881 12.3899 11.5071 12.31 11.5518C12.8242 11.8014 13.2785 12.0132 13.7256 12.2422C13.851 12.3059 13.9273 12.2938 14.0291 12.2095C15.2702 11.2109 16.5641 10.2779 17.9179 9.42052C18.2123 9.23459 18.483 9.01422 18.8065 8.78009C18.2868 8.51325 17.8034 8.26534 17.2964 8.0071C17.4799 7.88143 17.6399 7.94169 17.7852 8.00538C18.1614 8.16893 18.5321 8.34109 18.901 8.52013C19.0028 8.57006 19.0736 8.59072 19.1718 8.51325C20.3184 7.61459 21.4669 6.71765 22.6154 5.82243C22.6572 5.78972 22.7044 5.7639 22.7499 5.73463C21.7795 6.90014 20.6691 7.91931 19.4026 8.81797L19.4098 8.81969ZM52.514 40.2848C52.5376 40.2969 52.5594 40.3106 52.583 40.3227C52.7139 40.1867 52.8393 40.0438 52.9774 39.913C53.4826 39.4378 53.9823 38.9575 54.5002 38.4961C55.1998 37.8746 55.9485 37.3013 56.6154 36.6506C57.4732 35.8122 58.2764 34.9221 59.0905 34.0458C59.2704 33.8513 59.3976 33.6223 59.3776 33.3348C59.3394 32.7667 59.3013 32.1952 59.3085 31.627C59.3267 30.1138 59.3721 28.6005 59.3976 27.0855C59.403 26.7343 59.3667 26.3814 59.3485 25.9872C59.0269 26.3281 58.7525 26.6379 58.4563 26.9306C56.3719 28.9879 54.1313 30.8885 51.8943 32.7908C51.689 32.9647 51.4963 33.111 51.6872 33.3934C51.6981 33.4089 51.6944 33.433 51.6962 33.4536C51.8343 34.3161 52.0052 35.1735 52.1051 36.0394C52.2614 37.4046 52.3722 38.775 52.5013 40.1436C52.5049 40.1901 52.5103 40.2366 52.5158 40.2814L52.514 40.2848ZM46.3827 36.4819C47.9073 35.3181 49.4629 34.1302 51.0675 32.9044C50.7858 32.7529 50.575 32.5842 50.3351 32.524C50.0353 32.45 49.7882 32.3139 49.5447 32.1521C49.4701 32.1022 49.3902 32.0574 49.3339 32.023C47.9746 33.2023 46.6353 34.3643 45.3396 35.4885C45.6704 35.8018 46.0084 36.1255 46.3827 36.4819Z" fill="#F7F8C5"/>
<path d="M2.25696 22.1699C2.36962 22.2267 2.49319 22.2698 2.59132 22.3421C3.64894 23.1254 4.732 23.8812 5.75145 24.7075C9.23868 27.5378 12.9022 30.158 16.5021 32.854C19.1734 34.8544 21.9828 36.6828 24.7922 38.5059C25.7844 39.1498 26.693 39.9073 27.6325 40.6217C27.7797 40.7336 27.8851 40.8937 28.0105 41.0332L27.9669 41.0865C27.8815 41.0487 27.787 41.0228 27.7106 40.9729C26.8693 40.4323 26.0297 39.8918 25.192 39.3477C23.6528 38.3475 22.1045 37.3611 20.5835 36.3402C18.3429 34.8372 16.1514 33.274 14.0198 31.6334C11.7483 29.886 9.43676 28.1851 7.17978 26.4205C5.54611 25.1414 3.97241 23.7934 2.37508 22.4729C2.30057 22.4127 2.25333 22.3231 2.19336 22.2474C2.21517 22.2233 2.23697 22.1975 2.25878 22.1734L2.25696 22.1699Z" fill="#F7F8C5"/>
<path d="M30.0985 39.5322C30.044 39.5064 29.9913 39.4805 29.9368 39.4547C28.3176 38.668 26.9148 37.5816 25.4719 36.5539C23.8419 35.3918 22.2572 34.1729 20.6327 33.004C18.1685 31.2308 15.7407 29.4162 13.3765 27.5277C12.6842 26.9733 12.0172 26.388 11.3322 25.825C10.9269 25.4911 10.5053 25.176 10.1001 24.842C9.95652 24.7232 9.76391 24.6027 9.89112 24.3428C10.1946 24.5511 10.4944 24.737 10.7725 24.9505C12.7387 26.4637 14.6886 27.9959 16.6639 29.4954C17.9959 30.506 19.3679 31.4666 20.7126 32.4617C22.2863 33.6255 23.8455 34.8065 25.4174 35.9737C26.6731 36.9068 27.9378 37.8313 29.199 38.7609C29.497 38.9796 29.7896 39.2034 30.084 39.4272C30.104 39.4427 30.113 39.4685 30.1276 39.4909C30.1167 39.5046 30.1076 39.5201 30.0967 39.5339L30.0985 39.5322Z" fill="#F7F8C5"/>
<path d="M40.058 38.866C39.5437 38.7076 39.0731 38.3788 38.4806 38.4855V39.119C38.4697 39.1225 38.4588 39.1276 38.4479 39.1311C38.2807 38.8419 38.099 38.5578 37.9464 38.2634C37.4339 37.2787 35.9184 36.8603 34.8499 37.4681C34.2992 37.7814 33.7922 38.1653 33.267 38.5182C33.2271 38.544 33.1889 38.5716 33.1035 38.5802C33.1235 38.5165 33.1253 38.4407 33.1653 38.3908C33.6578 37.771 34.1902 37.196 34.9807 36.8965C36.071 36.4816 37.4703 36.8362 38.1535 37.7177C38.2589 37.8537 38.3334 38.0138 38.4316 38.1791C38.9131 38.0809 39.402 38.093 39.8181 38.4115C39.9489 38.5113 40.0271 38.6714 40.1288 38.8057C40.107 38.8264 40.0834 38.847 40.0616 38.8677L40.058 38.866Z" fill="#F7F8C5"/>
<path d="M34.4751 39.2404C34.3134 38.9425 34.3188 38.8427 34.546 38.5827C34.6005 38.519 34.6532 38.4519 34.7059 38.3865C35.1202 37.87 35.818 37.8304 36.3141 38.2918C36.6775 38.6309 36.9592 39.0269 37.2045 39.447C37.3463 39.6897 37.2445 39.867 36.9556 39.8584C36.6321 39.8481 36.3087 39.8102 35.9888 39.762C35.6054 39.7035 35.2238 39.6226 34.8422 39.5537C34.8149 39.5485 34.7695 39.5382 34.7586 39.5503C34.6532 39.6725 34.5405 39.6484 34.4824 39.5313C34.4424 39.4521 34.4751 39.3385 34.4751 39.2421V39.2404ZM34.6677 39.1767C35.3892 39.2937 36.0579 39.4005 36.7793 39.5175C36.5812 39.0217 36.2669 38.6809 35.8889 38.4071C35.6036 38.2005 35.2565 38.2935 35.0384 38.5655C34.9676 38.6533 34.884 38.7325 34.8276 38.8272C34.7622 38.9391 34.7186 39.063 34.6695 39.1767H34.6677Z" fill="#F7F8C5"/>
<path d="M15.5823 38.582C15.5623 38.7387 15.4878 38.8041 15.3442 38.7851C15.068 38.749 14.7936 38.7111 14.5174 38.675C14.1448 38.6268 13.8341 38.477 13.5597 38.2308C13.1363 37.852 12.7656 37.4475 12.602 36.9052C12.5857 36.8501 12.5875 36.7916 12.582 36.733C12.6402 36.733 12.7001 36.7313 12.7583 36.7296C13.0672 36.7244 13.2453 36.9499 13.467 37.0963C13.9886 37.4423 14.5137 37.7849 15.0371 38.1309C15.1916 38.2325 15.346 38.3341 15.4932 38.446C15.5386 38.4804 15.5586 38.5476 15.5823 38.5837V38.582ZM13.1036 37.2082C13.4925 37.6661 13.8177 38.1981 14.5174 38.3048C14.0467 37.9398 13.5742 37.5731 13.1036 37.2082Z" fill="#F7F8C5"/>
<path d="M5.60321 19.8028C5.75041 20.0731 5.91396 20.3176 6.01936 20.5844C6.12476 20.8495 6.18111 21.1336 6.23562 21.4142C6.24834 21.4745 6.16112 21.5537 6.12114 21.6242C6.06662 21.564 5.96849 21.5072 5.96486 21.4435C5.91761 20.8547 5.63412 20.3554 5.31792 19.8665C5.28885 19.82 5.30884 19.7408 5.31792 19.6789C5.33791 19.5256 5.44512 19.4809 5.58323 19.5205C5.86671 19.6014 6.16473 19.6599 6.42278 19.7908C6.868 20.0146 7.04972 20.4191 7.10423 20.8771C7.12241 21.0269 7.12605 21.1801 7.11879 21.3298C7.10606 21.6019 6.88617 21.8635 6.60632 21.9238C6.53545 21.9393 6.44641 21.8825 6.36464 21.8601C6.40643 21.7964 6.43187 21.6983 6.49183 21.6724C6.76623 21.5554 6.86256 21.3557 6.82076 21.0888C6.78805 20.8805 6.76988 20.6619 6.68993 20.4691C6.50457 20.0163 6.07933 19.8855 5.60503 19.8045L5.60321 19.8028Z" fill="#F7F8C5"/>
<path d="M33.5031 39.0815C33.3232 39.054 33.1869 39.0488 33.0634 39.0092C32.6127 38.868 32.1566 38.8543 31.6913 38.9111C31.2207 38.9679 30.9263 39.233 30.6973 39.598C30.6537 39.6668 30.5665 39.7133 30.4992 39.7684C30.4829 39.6686 30.4211 39.5515 30.4556 39.4723C30.661 39.0023 30.9972 38.6442 31.5532 38.5788C31.9367 38.5341 32.3328 38.5323 32.7199 38.5616C33.0361 38.5857 33.3068 38.7406 33.5049 39.0781L33.5031 39.0815Z" fill="#F7F8C5"/>
<path d="M9.18357 23.8367C9.14359 23.9021 9.11452 24.0192 9.05455 24.0347C8.97641 24.0553 8.86373 24.0123 8.78922 23.9641C8.66565 23.8832 8.57479 23.7558 8.44577 23.6852C8.30766 23.6094 8.14229 23.575 7.98965 23.5251C7.91514 23.501 7.82429 23.5027 7.76795 23.4597C7.72616 23.427 7.72434 23.3426 7.7207 23.2806C7.7207 23.2703 7.8152 23.241 7.85881 23.2479C7.96966 23.2669 8.07871 23.3237 8.14413 23.1722C8.15503 23.1463 8.26224 23.1291 8.30041 23.1498C8.5748 23.2944 8.84556 23.4425 9.10724 23.606C9.1563 23.637 9.15267 23.742 9.18175 23.8384L9.18357 23.8367Z" fill="#F7F8C5"/>
<path d="M31.9764 39.4326C32.129 39.4584 32.2671 39.467 32.3944 39.5066C32.458 39.5256 32.547 39.603 32.5434 39.6495C32.5379 39.715 32.4725 39.8045 32.4089 39.8303C32.2235 39.9026 32.0218 39.9388 31.8347 40.0093C31.7347 40.0472 31.6384 40.1144 31.5657 40.1901C31.4203 40.3416 31.3404 40.3433 31.2368 40.1746C31.0896 39.9319 31.2204 39.6048 31.5039 39.5273C31.662 39.4843 31.8256 39.4619 31.9782 39.4326H31.9764ZM31.8474 39.6874C31.4676 39.6203 31.3022 39.7218 31.3222 39.9629C31.4876 39.8768 31.6693 39.7804 31.8474 39.6874Z" fill="#F7F8C5"/>
<path d="M6.51717 18.5777C6.35726 18.4951 6.22642 18.4366 6.10648 18.3591C6.08286 18.3436 6.08468 18.2506 6.11012 18.2145C6.25004 18.0148 6.39543 17.8185 6.55171 17.6309C6.60804 17.5637 6.69345 17.5121 6.77522 17.4725C6.92969 17.4002 7.07688 17.4845 7.04417 17.6395C6.99147 17.8839 6.91878 18.1284 6.8152 18.3574C6.7734 18.4486 6.62802 18.4968 6.51535 18.576L6.51717 18.5777ZM6.39725 18.2455C6.61168 18.261 6.70617 18.1422 6.70435 17.8753C6.60077 18.001 6.5081 18.1112 6.39725 18.2455Z" fill="#F7F8C5"/>
<path d="M39.4511 39.5601C39.4475 39.8132 39.3203 39.8941 39.1385 39.8097C38.9768 39.734 38.8169 39.6548 38.6624 39.5687C38.6134 39.5412 38.5425 39.4706 38.5516 39.4396C38.5697 39.3845 38.6352 39.3139 38.6915 39.3036C38.9223 39.2605 39.1549 39.2726 39.353 39.4034C39.4129 39.443 39.4365 39.5343 39.4511 39.5601Z" fill="#F7F8C5"/>
<path d="M31.2459 5.50563C31.4676 5.65368 31.7056 5.78452 31.9091 5.95152C33.1067 6.94142 34.2951 7.94165 35.4909 8.93327C37.3917 10.5102 39.2816 12.0975 41.206 13.6487C42.2781 14.5129 43.4194 15.2979 44.506 16.1484C45.0421 16.5667 45.5201 17.0522 46.0307 17.5015C46.2706 17.7116 46.525 17.9061 46.7721 18.1075C46.8194 18.1454 46.863 18.1867 46.9084 18.2263L46.8811 18.2728C46.8375 18.2556 46.7866 18.2487 46.7503 18.2211C46.0943 17.7443 45.4401 17.2639 44.7859 16.7836C43.8446 16.0933 42.8851 15.4236 41.9674 14.7074C40.4101 13.492 38.8636 12.2628 37.3426 11.006C35.8052 9.73552 34.3042 8.42713 32.7941 7.12735C32.278 6.68318 31.7856 6.21492 31.2858 5.75526C31.2331 5.70705 31.204 5.63303 31.1641 5.57105C31.1913 5.54867 31.2168 5.52629 31.244 5.50391L31.2459 5.50563Z" fill="#F7F8C5"/>
<path d="M52.3976 23.1157C52.8138 22.9452 53.2172 22.7782 53.6188 22.613L53.6515 22.6715C53.468 22.8092 53.2881 22.9504 53.1009 23.083C52.7465 23.336 52.3976 23.5891 52.145 23.9472C51.787 24.455 51.7216 24.9973 51.8707 25.5827C52.0015 26.1026 52.185 26.5984 52.5321 27.0271C52.6284 27.1459 52.7465 27.2474 52.8628 27.3645C53.1736 27.2388 53.4861 27.1011 53.8823 27.2939C53.657 27.4093 53.4716 27.5212 53.2735 27.6004C52.8683 27.7605 52.643 28.0239 52.643 28.4491C52.643 28.6419 52.6321 28.833 52.6193 29.0258C52.6157 29.0671 52.583 29.1067 52.563 29.1463C52.5176 29.1205 52.454 29.105 52.4303 29.0654C52.394 29.0086 52.3704 28.938 52.3649 28.8709C52.3468 28.6316 52.2922 28.3819 52.3395 28.153C52.3904 27.9085 52.543 27.683 52.6539 27.4454C52.4067 27.4265 52.265 27.2164 52.1196 27.0081C51.6726 26.3608 51.469 25.636 51.4527 24.8786C51.44 24.307 51.7562 23.8284 52.1578 23.4083C52.1905 23.3739 52.2395 23.3515 52.2777 23.3257C52.0978 23.0279 51.9633 22.7507 52.016 22.4236C52.0251 22.3719 51.9742 22.2945 51.927 22.2566C51.6871 22.0672 51.4254 21.902 51.1983 21.7005C50.6368 21.2047 50.0879 20.6934 49.5355 20.1873C49.4955 20.1494 49.4574 20.1029 49.4374 20.053C49.4247 20.022 49.4338 19.9635 49.4574 19.9428C49.481 19.9222 49.5428 19.9153 49.5737 19.929C49.6318 19.9531 49.6827 19.9945 49.7318 20.0358C50.3424 20.5522 50.9475 21.0773 51.5672 21.5852C51.7816 21.7608 52.0451 21.8796 52.2613 22.0517C52.3377 22.1137 52.4067 22.2945 52.3667 22.3582C52.2232 22.5889 52.3013 22.7955 52.3722 23.0124C52.3867 23.0571 52.394 23.1053 52.3976 23.1157Z" fill="#F7F8C5"/>
<path d="M29.5114 3.92518C29.5641 3.97166 29.615 4.01126 29.6586 4.05774C29.704 4.10594 29.7731 4.15759 29.7749 4.21096C29.7895 4.57937 30.0257 4.72915 30.3692 4.78424C30.5291 4.81006 30.6908 4.83072 30.8525 4.8531C30.7944 5.08724 30.6326 5.18537 30.3655 5.13716C29.9821 5.0683 29.6423 4.93057 29.4987 4.55699C28.7918 5.22324 27.9232 5.21291 27.0382 5.12855C26.3186 5.05969 25.7116 4.76186 25.1774 4.27982C24.9829 4.82728 24.5868 5.11134 23.9944 5.132C23.8272 5.13716 23.6473 5.12511 23.5273 4.9168C23.6745 4.89098 23.7981 4.8531 23.9217 4.85138C24.4632 4.85138 24.7994 4.57765 25.0084 4.13349C25.032 4.08356 25.0157 4.01642 25.0229 3.95789C25.032 3.87525 25.0465 3.79262 25.0629 3.67383C25.1229 3.72375 25.1556 3.73581 25.161 3.75646C25.2246 3.99576 25.4064 4.1421 25.6135 4.26088C26.5875 4.81867 27.6233 4.9409 28.7082 4.62758C29.088 4.5174 29.3224 4.23162 29.5096 3.9269L29.5114 3.92518Z" fill="#F7F8C5"/>
<path d="M54.2226 26.7263C54.0991 26.7263 53.97 26.7504 53.8556 26.7211C53.6193 26.6591 53.3813 26.5868 53.1614 26.4852C52.8561 26.3441 52.6635 26.0979 52.6344 25.776C52.5835 25.2319 52.7434 24.7275 53.0124 24.2541C53.1305 24.0458 53.4358 23.9304 53.6611 23.9959C53.7156 24.0113 53.7702 24.0871 53.7865 24.1439C53.8792 24.4951 53.9628 24.8498 54.0464 25.2027C54.1118 25.4764 54.1718 25.7519 54.2408 26.0239C54.279 26.1719 54.3244 26.3096 54.2063 26.4543C54.1718 26.4956 54.2099 26.5903 54.2154 26.6591C54.2172 26.6815 54.2208 26.7039 54.2226 26.7245V26.7263ZM53.881 26.2563C53.8119 25.8775 53.7411 25.4953 53.6757 25.1132C53.6411 24.9169 53.6211 24.7189 53.5812 24.5227C53.5721 24.4727 53.5158 24.4314 53.4812 24.3849C53.4358 24.4211 53.3595 24.4521 53.3504 24.4951C53.2613 24.8876 53.1668 25.2801 53.1087 25.6778C53.0832 25.8569 53.2086 26.0066 53.3885 26.0824C53.5521 26.1513 53.7229 26.2012 53.8792 26.2563H53.881Z" fill="#F7F8C5"/>
<path d="M28.0803 3.38109C27.8859 3.80632 27.5115 3.98536 27.1153 3.95437C26.5611 3.91306 26.1831 3.61695 25.8488 3.24337C25.807 3.19516 25.8051 3.11425 25.7852 3.04883C25.856 3.06604 25.9396 3.06432 25.9941 3.1022C26.1341 3.1986 26.2703 3.30362 26.3921 3.41897C26.6374 3.64966 26.9518 3.7013 27.2698 3.71335C27.3916 3.71852 27.5188 3.62383 27.6405 3.57219C27.7714 3.5171 27.9004 3.46028 28.0803 3.38109Z" fill="#F7F8C5"/>
<path d="M28.1916 3.1708C28.1153 3.19834 28.039 3.2431 27.9608 3.24999C27.4302 3.29647 26.905 3.28614 26.4089 3.06234C26.3707 3.04512 26.3235 3.0279 26.2999 2.99864C26.2726 2.96593 26.2454 2.90567 26.2599 2.87641C26.2744 2.84542 26.3381 2.83165 26.3835 2.81959C26.4089 2.81443 26.4398 2.82648 26.4671 2.83681C26.8941 2.99692 27.3412 3.00897 27.7918 3.00208C27.9245 3.00036 28.0589 3.04684 28.1916 3.07094C28.1916 3.10365 28.1916 3.13809 28.1916 3.1708Z" fill="#F7F8C5"/>
<path d="M24.4408 3.95619C24.2591 4.04054 24.0865 4.11973 23.8848 3.95102C24.0574 3.87011 24.21 3.7978 24.3645 3.7255C24.3718 3.72205 24.3772 3.71861 24.3845 3.71689C24.4935 3.69106 24.6026 3.66524 24.7134 3.6377C24.7243 3.76337 24.7697 3.89937 24.737 4.013C24.6516 4.30394 24.4754 4.53808 24.1337 4.59145C24.0592 4.6035 23.972 4.54668 23.892 4.52086C23.9411 4.46405 23.9774 4.37969 24.041 4.35559C24.2319 4.27984 24.4099 4.20409 24.4426 3.95446L24.4408 3.95619Z" fill="#F7F8C5"/>
<path d="M53.2752 28.2822C53.3752 28.1479 53.4679 28.0067 53.5823 27.8828C53.6387 27.8225 53.7332 27.795 53.8113 27.752C53.8059 27.8294 53.8295 27.9224 53.7913 27.9792C53.6623 28.1755 53.5206 28.3648 53.3679 28.5456C53.2643 28.6678 53.1117 28.7298 52.9663 28.6248C52.8355 28.5318 52.9009 28.4027 52.9645 28.2908C53.0263 28.1841 53.079 28.0704 53.1571 27.9758C53.188 27.9379 53.2789 27.9465 53.3443 27.9327C53.3388 27.9913 53.3443 28.0532 53.3243 28.1083C53.3061 28.1617 53.2625 28.2047 53.2298 28.2529C53.2444 28.2633 53.2607 28.2736 53.2752 28.2822Z" fill="#F7F8C5"/>
<path d="M30.2693 4.07018C29.7895 4.05124 29.4951 3.8481 29.4424 3.53133C29.4352 3.48657 29.4679 3.43492 29.4824 3.38672C29.5315 3.40566 29.6133 3.41598 29.6223 3.44525C29.7168 3.74653 29.9876 3.78096 30.2493 3.84121C30.3056 3.85499 30.3474 3.91868 30.3965 3.96C30.3438 4.00476 30.2911 4.04952 30.2693 4.06846V4.07018Z" fill="#F7F8C5"/>
<path d="M53.0707 22.2204C53.0362 22.3805 53.0344 22.4975 52.9835 22.5905C52.949 22.6542 52.8417 22.7248 52.7727 22.7179C52.7109 22.7127 52.6255 22.6163 52.6073 22.5475C52.5819 22.4442 52.571 22.3116 52.6218 22.2273C52.6764 22.1377 52.8036 22.0706 52.9126 22.0396C52.9453 22.0293 53.0271 22.1687 53.0689 22.2204H53.0707Z" fill="#F7F8C5"/>
<path d="M23.5816 5.17026C23.4617 5.30627 23.3726 5.45088 23.2418 5.54384C23.1455 5.61098 23.031 5.80896 22.8856 5.65747C22.753 5.52146 22.9728 5.46121 23.031 5.36652C23.0946 5.26151 23.1818 5.16854 23.2727 5.08074C23.3108 5.04287 23.3872 5.01016 23.4344 5.02049C23.4817 5.03081 23.5162 5.09796 23.5834 5.17026H23.5816Z" fill="#F7F8C5"/>
<path d="M29.625 3.32574C29.8794 3.28614 30.1338 3.4342 30.2228 3.658C29.9793 3.6098 29.8285 3.47552 29.625 3.32574Z" fill="#F7F8C5"/>
</svg>
