<svg width="48" height="44" viewBox="0 0 48 44" fill="none" xmlns="http://www.w3.org/2000/svg">
<path d="M32.4863 0.584381C35.2805 0.853405 37.9735 1.10992 40.4958 1.35391C40.7486 1.97329 40.932 2.43001 41.1912 3.06816C42.5693 3.06816 43.979 3.04313 45.3824 3.07441C46.2358 3.09318 46.9059 3.21831 47.4116 4.20682C47.772 4.90753 47.8668 5.52065 47.8731 6.2026C47.9237 12.5716 47.949 18.9468 48.0059 25.3158C48.0059 25.9915 47.7593 26.467 47.3674 26.9988C45.8565 29.0571 43.8778 30.1582 41.3555 30.7275C37.5878 31.5722 33.896 32.7421 30.1789 33.7869C29.4456 33.9934 28.9589 34.4063 28.4974 35.0945C27.3974 36.7337 26.0636 38.2164 24.8245 39.768C22.9596 42.1141 20.3046 42.8586 17.5104 43.3779C16.1197 43.6407 14.7542 43.6469 13.3634 43.4092C12.2255 43.2153 11.0371 43.209 9.95608 42.8524C7.76881 42.1204 6.13783 40.5313 4.73443 38.8045C2.67359 36.2769 1.06157 33.4616 0.41677 30.2333C-0.215391 27.0926 -0.183783 23.9206 0.922499 20.8863C1.66845 18.8467 2.96438 17.0699 4.75972 15.8061C7.45905 13.9167 10.4555 12.7092 13.8312 12.8031C14.9565 12.8343 16.0691 13.1472 17.1943 13.2785C18.2753 13.4037 18.288 13.266 18.2311 12.1899C18.1489 10.6571 18.2248 9.11181 18.25 7.56648C18.2627 6.7469 18.288 5.92106 18.3701 5.10773C18.4018 4.80117 18.5408 4.42579 18.7684 4.23184C19.5902 3.53739 20.45 2.87421 21.335 2.26109C22.2137 1.65422 23.2631 1.77309 24.2556 1.79186C25.9434 1.83565 27.6313 1.93576 29.3129 2.01083C29.5152 2.01709 29.7364 1.97955 29.9134 2.05463C31.38 2.65524 32.0628 1.85442 32.48 0.578125L32.4863 0.584381ZM27.1256 29.8767C27.1256 27.3053 26.8854 25.1907 26.0319 23.1949C24.4895 19.5724 22.2327 16.5757 18.5219 14.8552C16.9288 14.1169 15.2915 13.4975 13.5215 13.4099C12.0675 13.3411 10.7589 13.9667 9.42507 14.4547C5.24648 15.9688 2.19314 18.4964 1.26387 23.0572C0.701243 25.7975 0.720208 28.5378 1.54202 31.1655C2.57876 34.4939 4.36146 37.4406 6.99757 39.8431C8.30614 41.0318 9.73483 42.014 11.4543 42.3644C14.1663 42.9087 16.9035 42.9963 19.5586 42.0328C21.0379 41.501 22.6562 41.1006 23.6677 39.8118C24.5716 38.6606 25.4377 37.4281 26.0193 36.0955C26.9359 33.9996 27.1382 31.7286 27.1193 29.8704L27.1256 29.8767ZM31.1777 28.4502C32.3915 27.956 33.4156 27.5743 34.4018 27.1176C34.996 26.8423 35.6661 26.542 36.0643 26.0603C36.962 24.9654 36.9114 23.5828 36.7408 22.2752C36.5827 21.0552 36.235 19.854 35.9316 18.6528C35.192 15.7498 33.4346 13.6101 30.7542 12.2588C29.2054 11.4767 27.5112 11.3266 25.798 11.6144C25.0711 11.7395 24.3694 12.0085 23.6487 12.2025C23.0798 12.3526 22.4982 12.4777 21.9292 12.6279C21.3919 12.7718 20.8609 12.947 20.2666 13.1221C23.7246 14.1795 27.0118 15.3306 29.1106 18.3399C31.1777 21.2929 31.3295 24.7277 31.1777 28.444V28.4502ZM44.2888 27.4868C44.4152 20.8675 44.5416 14.3046 44.6681 7.69787C43.3405 7.579 42.1015 7.47264 41.0521 7.37879C40.9257 8.24217 40.8055 9.00545 40.6981 9.77498C40.6159 10.3506 40.4515 10.9324 40.4958 11.5017C40.5653 12.509 40.8435 13.5038 40.8941 14.5111C41.0078 16.7258 41.0711 18.9468 40.6159 21.1491C44.0648 21.6367 39.2366 25.8945 44.2888 27.4868ZM38.1694 22.4191C38.2516 22.4566 38.3401 22.4942 38.4223 22.538C38.77 22.0687 39.1114 21.5995 39.4654 21.1365C40.0786 20.3357 39.9711 19.4035 39.9711 18.4964C39.9711 15.9625 40.2303 13.4037 39.3832 10.9449C39.301 10.7009 38.928 10.4256 38.6688 10.4006C36.6839 10.2067 34.6926 10.1003 32.7076 9.90011C30.6594 9.69365 28.6238 9.41211 26.6009 9.16186C26.6894 9.59355 26.7842 10.0252 26.8854 10.5383C27.5175 10.4882 28.1623 10.4382 28.8071 10.3818C34.1995 9.91262 37.7585 13.6727 38.1505 18.7091C38.2453 19.9416 38.1631 21.1803 38.1631 22.4191H38.1694ZM28.9841 31.372C30.9185 29.2948 30.6594 22.369 28.51 18.9468C26.9675 16.4881 21.2149 13.2973 19.35 13.7415C26.5187 17.389 29.6858 23.2887 28.9841 31.372ZM19.1856 12.4214C21.2844 11.8959 23.2694 11.3954 25.267 10.9136C25.7285 10.801 25.9182 10.532 25.8044 10.1066C25.7095 9.7437 25.5641 9.38083 25.3871 9.04924C24.8624 8.07951 25.0268 7.15357 25.5831 6.25265C24.913 5.87727 24.401 6.14629 23.832 6.39654C22.2769 7.08475 20.6965 7.30372 19.1856 6.32772V12.4277V12.4214ZM38.1568 9.5435C38.5171 9.40586 39.1809 9.26196 39.6866 8.89909C39.9648 8.69889 40.1039 8.13581 40.0912 7.74166C40.0722 7.20362 39.5539 7.37879 39.1999 7.36002C38.7005 7.335 38.201 7.32874 37.708 7.28495C36.0643 7.12854 34.4144 6.98464 32.7708 6.77818C31.3863 6.603 29.9956 6.41531 28.6428 6.09624C27.233 5.76465 26.7147 5.9586 26.2342 7.31623C25.9877 8.00443 26.2026 8.35479 26.9423 8.44863C27.5871 8.53622 28.2382 8.6113 28.8893 8.67386C31.8794 8.96165 34.8759 9.23693 38.1505 9.54975L38.1568 9.5435ZM45.4583 27.6494C45.9513 26.7422 47.026 26.4044 47.0134 25.2282C46.9502 18.7841 46.9185 12.3463 46.868 5.90229C46.868 5.72711 46.8174 5.55194 46.7921 5.3705C46.2801 6.02116 45.6732 6.69059 45.6479 7.38505C45.5088 11.2765 45.4962 15.168 45.4646 19.0657C45.4393 21.8623 45.4646 24.6526 45.4646 27.6494H45.4583ZM28.902 3.05565C27.252 2.91175 25.4567 2.75534 23.6677 2.60519C23.1177 2.56139 22.612 2.59267 22.1189 2.98057C21.3792 3.56241 20.4942 3.97533 19.7862 4.59471C19.2362 5.0702 19.4385 5.76465 20.077 5.83347C21.139 5.95234 22.2706 6.18383 23.2441 5.57696C24.1607 5.00763 25.1027 4.93256 26.1268 5.06394C26.4365 5.10148 26.8664 5.10773 27.0624 4.93256C27.7325 4.34446 28.3204 3.66251 28.902 3.05565ZM39.4907 5.36424C39.7878 5.66455 40.0849 6.23388 40.4642 6.29644C41.8107 6.5029 43.1888 6.54044 44.5543 6.62803C44.6364 6.62803 44.7692 6.57798 44.8071 6.50916C45.2623 5.75214 45.7048 4.99512 46.1789 4.17553C44.6491 4.01287 43.2773 3.86272 41.9055 3.71882C41.7791 3.70631 41.6084 3.71882 41.5136 3.7939C40.8624 4.28189 40.224 4.78866 39.4907 5.36424ZM32.1386 3.18703C34.1931 3.39349 36.1212 3.56241 38.0367 3.78764C39.6044 3.96908 39.5981 4.00036 39.9585 2.49883C39.9648 2.46129 39.9268 2.41124 39.9205 2.39247C37.8344 2.06714 35.7672 1.71678 33.6874 1.44776C33.3966 1.41022 32.9668 1.67299 32.7581 1.92324C32.48 2.25483 32.3599 2.71155 32.1323 3.19954L32.1386 3.18703Z" fill="#F7F8C5"/>
<path d="M24.2501 29.7956C24.4271 31.9352 23.8202 33.9123 22.6887 35.6828C21.4496 37.6223 19.6417 38.861 17.3279 39.3178C15.9625 39.5868 14.6033 39.8933 13.2063 39.5868C10.9558 39.0925 9.19835 37.7474 7.88346 36.0207C4.79219 31.9665 4.21692 27.4181 5.79732 22.6258C6.03754 21.9063 6.60649 21.2494 7.14383 20.6738C9.59029 18.0586 12.5867 16.995 16.1016 17.9585C18.902 18.7281 21.0198 20.4298 22.4358 23.0012C23.2513 24.4777 23.8835 25.9854 24.1174 27.6434C24.2185 28.3503 24.1995 29.0761 24.2375 29.7956H24.2501ZM16.3038 18.7531C14.2872 18.1024 12.4413 18.1337 10.6903 18.9658C8.69894 19.9168 6.92257 21.2369 6.29673 23.4328C5.1462 27.4557 5.69618 31.3221 7.96564 34.8695C9.0656 36.5962 10.665 37.8287 12.5741 38.5607C15.0711 39.518 17.3975 38.6984 19.5658 37.5034C20.337 37.078 20.9376 36.2834 21.4939 35.5639C21.6835 35.3199 21.5634 34.7756 21.4686 34.394C21.4307 34.2501 21.064 34.1062 20.8491 34.1125C20.4887 34.1187 20.1284 34.2689 19.7618 34.3127C18.2635 34.4941 16.8349 34.3252 15.501 33.5369C13.7373 32.4983 12.7321 30.8779 12.0304 29.0761C11.4046 27.487 11.1075 25.7915 11.4236 24.0898C11.923 21.4371 13.6235 19.7541 16.2975 18.7531H16.3038ZM18.9526 33.5744C20.6278 33.4618 21.7847 32.8299 22.5243 31.466C22.9226 30.7215 23.4093 29.8957 22.9921 29.1574C22.5117 28.3191 23.3272 27.6309 22.9605 26.8488C22.4674 25.804 22.0818 24.7091 21.6772 23.6268C20.9882 21.8124 19.4836 20.7364 18.036 19.5914C17.4291 19.1097 16.7716 19.3287 16.2533 19.5539C13.7057 20.655 11.9546 22.5632 12.1505 25.5225C12.2833 27.5308 12.8712 29.3826 14.0786 31.0594C15.3303 32.8049 17.0561 33.4743 18.9526 33.5744Z" fill="#F7F8C5"/>
<path d="M18.4785 40.9637C21.7215 39.4935 23.9088 37.2162 25.2047 33.9941C25.3185 36.5467 21.26 41.2077 18.4785 40.9637Z" fill="#F7F8C5"/>
<path d="M9.34421 39.9809C8.16207 39.7932 7.32129 39.1175 6.64488 38.2416C5.00758 36.127 3.96452 33.7308 3.25018 31.1782C3.19328 30.978 3.18064 30.7653 3.21225 30.54C4.55875 34.1374 5.73457 37.8224 9.34421 39.9872V39.9809Z" fill="#F7F8C5"/>
<path d="M23.4909 21.8681C21.0318 18.6023 18.0227 16.325 13.8125 15.8745C17.3652 15.787 23.5288 19.5533 23.4909 21.8681Z" fill="#F7F8C5"/>
<path d="M7.0742 17.1758C5.95527 18.2018 4.91853 19.1653 3.86914 20.1288C4.64038 18.8838 5.57598 17.8014 7.0742 17.1758Z" fill="#F7F8C5"/>
<path d="M2.75616 28.5627C2.69926 27.7431 2.64869 26.9172 2.5918 26.0977H2.74352C2.80041 26.911 2.85098 27.7306 2.90788 28.5564C2.8573 28.5564 2.80673 28.5564 2.75616 28.5627Z" fill="#F7F8C5"/>
<path d="M25.4961 14.7872C25.9765 13.9613 30.0982 12.9415 30.7936 13.5421C29.0804 13.9425 27.3736 14.343 25.4961 14.7872Z" fill="#F7F8C5"/>
<path d="M28.6367 16.438C29.6039 15.4745 30.9884 15.3431 32.1958 14.8677C32.3728 14.7988 32.6699 15.0178 32.9101 15.1054C32.8975 15.1867 32.8912 15.2743 32.8785 15.3557C31.5131 15.8186 30.1539 16.2816 28.7884 16.7446C28.7379 16.6382 28.6873 16.5381 28.6367 16.4318V16.438Z" fill="#F7F8C5"/>
<path d="M31.627 21.4809C31.8229 21.3245 31.9999 21.118 32.2212 21.0304C33.1252 20.6676 34.0355 20.3297 34.9521 20.0232C35.1102 19.9669 35.3441 20.117 35.54 20.1733C35.4642 20.3172 35.4262 20.555 35.3125 20.5925C34.143 21.0054 32.9545 21.3808 31.7787 21.7687C31.7281 21.6686 31.6775 21.5747 31.627 21.4746V21.4809Z" fill="#F7F8C5"/>
<path d="M32.4927 23.8271C33.188 23.0388 34.1995 22.8324 35.1477 22.5133C35.2173 22.4883 35.3943 22.6009 35.4259 22.6885C35.4575 22.7698 35.4132 22.9763 35.3437 23.0013C34.4397 23.3829 33.5294 23.7458 32.6191 24.1149C32.5748 24.0211 32.5306 23.9273 32.4863 23.8271H32.4927Z" fill="#F7F8C5"/>
<path d="M27.7525 12.8215C26.3807 13.0905 25.0595 13.347 23.7383 13.6036C24.7118 12.7402 27.291 12.2522 27.7525 12.8215Z" fill="#F7F8C5"/>
<path d="M32.0059 26.6978C33.0932 26.1348 34.1868 25.5717 35.3057 24.9961C35.2868 25.6342 33.7127 26.5727 32.1449 26.9356C32.1007 26.8542 32.0501 26.7792 32.0059 26.6978Z" fill="#F7F8C5"/>
<path d="M32.632 17.4512C33.0429 17.8391 33.6561 17.5388 33.6751 17.8391C33.0429 18.4647 31.2729 18.6274 30.5332 18.8463C30.4953 18.7588 30.4637 18.6712 30.4258 18.5773C31.1591 18.2019 31.8987 17.8266 32.632 17.4512Z" fill="#F7F8C5"/>
<path d="M32.6313 17.4515C32.9917 17.4077 33.352 17.3451 33.7123 17.3389C33.8704 17.3389 34.0284 17.464 34.1864 17.5328C34.06 17.6454 33.9525 17.7893 33.8071 17.8644C33.2698 18.1585 32.9537 17.7706 32.625 17.4515H32.6313Z" fill="#F7F8C5"/>
<path d="M15.4766 30.5781C16.8863 31.7919 18.4477 32.1672 20.2115 31.5103C18.8966 32.8242 16.5133 32.1735 15.4766 30.5781Z" fill="#F7F8C5"/>
</svg>
