<svg width="48" height="57" viewBox="0 0 48 57" fill="none" xmlns="http://www.w3.org/2000/svg">
<path d="M9.75617 15.923C8.64128 16.6028 7.54385 17.3 6.41155 17.9536C5.04407 18.7467 3.53722 19.043 1.97812 19.0953C1.71682 19.104 1.4555 19.0692 1.1942 19.0343C0.906769 18.9907 0.802287 18.7467 0.906807 18.433C1.80394 15.9579 2.69233 13.4827 3.59817 11.0076C3.92044 10.1274 4.26883 9.24718 4.61723 8.37567C4.70433 8.14907 4.70433 7.97477 4.56497 7.74817C4.25141 7.23398 3.97269 6.70236 3.69397 6.16202C3.64171 6.06615 3.62433 5.85699 3.67659 5.83084C3.7724 5.76983 3.94658 5.74369 4.04239 5.79598C4.60855 6.09229 5.15726 6.41475 5.7147 6.7285C5.75825 6.75465 5.80183 6.77208 5.79312 6.69364C7.44802 5.70011 9.09423 4.68916 10.7666 3.73049C12.3692 2.79797 14.0066 1.91774 15.6267 1.01136C16.0709 0.767336 16.3758 0.924208 16.4455 1.42969C16.6719 3.09428 16.4803 4.70658 15.9577 6.29274C15.679 7.12068 15.3916 7.94862 15.1041 8.81142C15.7661 8.63712 16.4106 8.47153 17.0639 8.30594C19.7727 7.62616 22.5251 7.53029 25.2949 7.66974C26.6362 7.73946 27.9688 7.8789 29.3102 7.98348C29.4844 8.00091 29.6673 7.93991 29.824 7.98348C30.8867 8.2798 31.9406 8.59354 33.0032 8.90729C33.0468 8.92472 33.099 8.93344 33.099 8.94215C33.5694 8.2798 33.97 7.5913 34.4926 7.00739C36.0692 5.24692 38.0463 4.10524 40.4242 4.04423C42.9588 3.98323 45.7199 5.08134 47.1222 8.07064C48.4809 10.9728 47.8973 13.6483 46.0508 16.1147C45.1624 17.3 44.0998 18.3109 42.7062 18.9036C41.391 19.4613 40.0322 19.6705 38.6212 19.4962C38.3338 19.4613 38.177 19.5223 38.0115 19.7664C36.9663 21.2654 35.5901 22.3635 33.9178 23.0956C33.7174 23.1827 33.6478 23.2873 33.6216 23.5052C33.4736 24.8386 33.3516 26.1807 33.1077 27.4967C32.8813 28.6907 32.35 29.7975 31.6706 30.791C31.2177 31.4534 30.5905 32.0112 30.007 32.5689C29.6673 32.8914 29.2492 33.1267 28.8921 33.4404C28.7005 33.606 28.535 33.8239 28.4044 34.0505C27.7076 35.2881 27.4027 36.6476 27.1849 38.0246C26.8365 40.308 26.7755 42.5826 27.4462 44.8224C27.5769 45.2582 27.7598 45.6678 27.8992 46.1036C27.995 46.3999 28.1517 46.4958 28.474 46.4783C30.2334 46.3563 31.958 46.548 33.639 47.0622C34.632 47.3673 35.5553 47.803 36.3392 48.5177C37.5847 49.6594 37.7328 51.2281 36.7137 52.5789C36.0866 53.4156 35.2678 54.0431 34.3968 54.6008C32.0277 56.0911 29.4408 56.7971 26.6536 56.8668C24.9116 56.9104 23.1609 56.9714 21.445 56.5705C19.311 56.0737 17.3513 55.2109 15.6877 53.7555C14.8864 53.0583 14.3551 52.2216 14.3899 51.1148C14.416 50.374 14.7383 49.7639 15.2347 49.2323C15.9925 48.4218 16.942 47.925 17.9523 47.5241C18.9366 47.132 19.9469 46.8792 21.0095 46.8444C21.6192 46.8182 22.2289 46.8095 22.8386 46.7572C22.9693 46.7485 23.1348 46.6352 23.2044 46.5219C23.727 45.6504 23.9361 44.683 24.058 43.6895C24.3716 41.1272 24.0319 38.6173 23.2741 36.1683C23.0651 35.5059 22.6209 34.9046 22.2289 34.312C21.7673 33.6148 21.0792 33.1354 20.3911 32.6648C20.1037 32.4731 19.825 32.2465 19.5724 32.0025C17.7433 30.2158 16.5151 28.0719 15.9577 25.5707C15.827 24.9867 15.8097 24.3767 15.7138 23.7841C15.6964 23.6533 15.5832 23.4877 15.4612 23.4355C13.5363 22.5116 12.0992 21.0824 11.1062 19.2086C10.5662 18.1889 10.061 17.1518 9.79971 16.0101C9.78229 15.9404 9.74746 15.8794 9.75617 15.9056V15.923ZM28.413 47.132C28.5698 47.3673 28.6743 47.5329 28.7963 47.6897C29.3885 48.4305 30.0854 49.058 30.878 49.5809C31.0783 49.7116 31.2089 49.8947 31.0347 50.1213C30.878 50.3304 30.6776 50.2433 30.4947 50.1213C29.1969 49.2497 28.1169 48.1952 27.4549 46.7572C26.9759 45.7288 26.61 44.6569 26.4533 43.5326C26.0091 40.3167 26.3226 37.1967 27.5769 34.1812C27.5943 34.1377 27.603 34.0941 27.6291 33.9808C26.8452 34.3643 26.0962 34.2771 25.3384 34.1202C24.4151 33.9198 23.4832 33.7455 22.4554 33.545C22.5773 33.7019 22.6296 33.7891 22.6992 33.8588C23.3177 34.556 23.7619 35.3578 24.0057 36.2554C24.6154 38.4865 24.9639 40.7525 24.7897 43.0707C24.6852 44.4564 24.4326 45.8073 23.6922 47.0274C22.9431 48.2562 21.924 49.241 20.8963 50.2171C20.8527 50.2607 20.8005 50.3217 20.7482 50.3217C20.6176 50.3217 20.4347 50.3566 20.3824 50.2868C20.3127 50.191 20.304 50.0167 20.3389 49.8859C20.3563 49.7901 20.4782 49.7204 20.5566 49.6332C21.1489 49.0144 21.7412 48.4044 22.3334 47.7856C22.4205 47.6897 22.4815 47.5764 22.586 47.437C22.4205 47.4196 22.3247 47.3847 22.2289 47.3934C21.4189 47.4719 20.6002 47.5329 19.7901 47.6462C18.3268 47.8553 16.9942 48.3957 15.9142 49.4066C15.5396 49.7552 15.2348 50.2258 15.0519 50.7052C14.7557 51.4895 15.1128 52.1693 15.6006 52.7881C16.2452 53.5986 17.1161 54.0954 18.0307 54.5224C19.703 55.3068 21.4799 55.699 23.3264 55.821C23.8403 55.8558 24.3455 55.943 24.8594 55.9604C26.5056 56.0388 28.1169 55.7948 29.7195 55.4898C31.7054 55.115 33.5694 54.4353 35.1982 53.2064C35.5901 52.9101 35.9559 52.5354 36.252 52.1345C37.1143 50.9666 36.9837 49.8511 35.8862 48.9011C34.8672 48.0122 33.6478 47.5241 32.3151 47.3498C31.5835 47.254 30.8431 47.1755 30.1028 47.132C29.5715 47.0971 29.0314 47.132 28.413 47.132ZM38.1595 14.9905C36.7137 15.3652 35.3636 15.6964 34.0223 16.0537C30.9563 16.8642 27.8469 17.2303 24.6764 17.2128C22.046 17.2041 19.433 17.0124 16.8549 16.4982C14.8428 16.0973 12.7698 15.8271 10.993 14.6331C10.8188 14.79 10.662 14.9643 10.4878 15.095C10.2962 15.2432 10.2614 15.3826 10.3659 15.6005C10.6533 16.2106 10.8972 16.8468 11.2194 17.4481C12.343 19.5659 13.9631 21.1608 16.1406 22.1979C18.3878 23.2612 20.8005 23.6185 23.2306 23.7405C24.9291 23.8276 26.6449 23.6969 28.3347 23.5313C30.8606 23.2786 33.2471 22.5116 35.381 21.0998C36.0865 20.6292 36.7311 20.0453 37.3147 19.4265C37.9157 18.7816 38.2118 17.9711 38.1683 17.056C38.1334 16.3675 38.1683 15.679 38.1683 14.9992L38.1595 14.9905ZM11.2369 14.3804C11.9859 14.6854 12.6653 15.0166 13.3796 15.2345C16.4019 16.1409 19.5114 16.5156 22.647 16.6376C25.3645 16.7422 28.0995 16.8119 30.7909 16.228C31.6706 16.0363 32.5503 15.8446 33.3429 15.6702C33.0903 14.7813 32.8551 13.9359 32.6025 13.108C32.5677 13.0034 32.4545 12.8814 32.35 12.8553C31.8274 12.7332 31.296 12.5938 30.7647 12.5502C28.8747 12.3934 26.9933 12.219 25.0945 12.1406C22.4554 12.036 19.8249 12.219 17.2119 12.5938C16.9332 12.6374 16.6545 12.6461 16.3671 12.6722C16.3671 12.6025 16.3584 12.5328 16.3497 12.4718C18.9975 11.8269 21.6976 11.6351 24.4151 11.6264C27.1501 11.6177 29.8763 11.7049 32.5329 12.3062C32.6548 11.4521 32.7768 10.6242 32.8987 9.7788C32.7855 9.74394 32.6548 9.70037 32.5242 9.67422C30.8344 9.38662 29.1447 9.09031 27.4462 8.82885C24.7984 8.41924 22.1331 8.37567 19.494 8.79399C17.8826 9.04673 16.2974 9.51735 14.7122 9.91825C14.5031 9.97054 14.2941 10.1797 14.1634 10.3714C13.6234 11.1645 13.1269 12.0012 12.5695 12.7855C12.195 13.3172 11.7334 13.7878 11.2369 14.3804ZM16.5935 23.9061C16.698 24.4726 16.759 24.9693 16.8897 25.4487C17.5691 28.0283 18.9191 30.2158 20.905 31.985C21.5582 32.5689 22.3247 33.0047 23.1957 33.2226C23.7009 33.3533 24.2148 33.4666 24.7374 33.545C25.0945 33.5973 25.469 33.6496 25.8174 33.5973C27.7424 33.2923 29.2666 32.2726 30.4947 30.8085C31.5748 29.5273 32.1671 27.9848 32.5677 26.3812C32.7942 25.4574 32.89 24.49 33.0555 23.4616C32.6026 23.6098 32.2803 23.6969 31.9667 23.8276C31.8622 23.8712 31.749 24.0107 31.7229 24.1239C31.6183 24.7427 31.5835 25.3702 31.4441 25.9803C30.7648 29.048 29.1186 31.2704 25.9481 32.0983C24.4674 32.4818 23.0825 32.2203 21.8718 31.2617C20.1995 29.937 19.4156 28.1068 19.0324 26.0761C19.0149 25.9628 19.041 25.8496 19.0497 25.6927C19.1281 25.7537 19.163 25.7624 19.1804 25.7885C19.3111 26.1371 19.433 26.4945 19.5637 26.8431C20.426 29.2485 21.776 31.1658 24.5022 31.6277C25.4429 31.7846 26.3749 31.7061 27.2024 31.1396C29.0924 29.8498 30.1115 28.0022 30.5992 25.8147C30.7212 25.2743 30.756 24.7166 30.8344 24.1327C28.4218 24.6556 26.0962 25.0739 23.7009 24.978C21.3144 24.8909 18.9365 24.8124 16.6197 23.8974L16.5935 23.9061ZM38.6299 18.5375C42.1052 18.8949 44.5092 17.2477 46.3034 14.5373C47.1483 13.2562 47.3138 11.7746 47.1135 10.2581C46.7302 7.29499 44.3088 5.06391 41.3387 4.8286C39.649 4.68915 38.177 5.22078 36.7747 6.06615C35.4595 6.85051 34.4317 7.90505 33.8307 9.34305C33.0119 11.2865 32.9597 13.23 33.7784 15.1909C33.8917 15.4611 34.0223 15.5221 34.2923 15.4349C34.6494 15.3216 35.0152 15.2432 35.381 15.1561C35.381 15.1299 35.381 15.1125 35.381 15.1038C35.3375 15.0253 35.3027 14.9469 35.2591 14.8772C34.5536 13.657 34.3794 12.3672 34.7017 10.9989C35.503 7.58259 38.8912 5.32536 42.1313 5.97028C44.6746 6.47576 46.5125 8.73299 46.3557 11.2517C46.1641 14.3543 43.943 16.9252 40.8858 17.5091C40.1628 17.6486 39.4051 17.605 38.6473 17.6486V18.5462L38.6299 18.5375ZM14.0328 8.7417C11.2543 8.51511 8.4845 8.28851 5.7844 8.07064C6.16764 9.32562 6.60315 10.5893 6.93413 11.8792C7.26511 13.1777 7.5003 14.5024 7.77031 15.8271C10.0175 14.4763 13.1096 10.9728 14.0328 8.7417ZM6.21118 7.71331C6.53345 7.71331 6.88184 7.69588 7.23024 7.71331C9.52097 7.86147 11.8117 8.00963 14.0937 8.1665C14.2941 8.18393 14.3899 8.12293 14.4596 7.94862C14.6425 7.478 14.8428 7.02482 15.017 6.5542C15.4961 5.25564 15.7835 3.91351 15.8706 2.5278C15.888 2.29249 15.8706 2.05718 15.8706 1.81315C15.6529 1.86545 15.409 1.87416 15.2086 1.97003C12.3256 3.32959 9.56456 4.90703 6.88187 6.63264C6.4725 6.89409 6.12408 7.12068 6.21118 7.71331ZM5.45341 8.22751C5.40986 8.21008 5.36634 8.20136 5.31408 8.18393C5.23569 8.29723 5.13116 8.41053 5.08761 8.53254C4.83502 9.36919 4.62594 10.2233 4.34722 11.0512C3.64171 13.1341 2.91009 15.1996 2.19587 17.2738C2.10006 17.5527 1.89973 17.91 2.19587 18.1018C2.3962 18.2325 2.77075 18.2064 3.03205 18.1279C4.36469 17.7532 5.61889 17.1693 6.80346 16.4546C6.89927 16.4023 6.97765 16.2106 6.96023 16.106C6.69022 14.4763 6.42023 12.8378 6.11538 11.2081C5.92376 10.2058 5.67115 9.21232 5.44469 8.21879L5.45341 8.22751ZM44.7008 14.3455C43.4901 13.4827 42.2881 12.6287 41.1035 11.7833C40.9293 11.9227 40.79 12.036 40.6767 12.1232C41.0077 13.6745 41.3387 15.1996 41.6697 16.7335C42.9762 16.2455 43.9691 15.4785 44.7008 14.3368V14.3455ZM34.9891 12.5677C35.0501 13.3956 35.3375 14.1364 35.834 14.7813C35.9037 14.8772 36.104 14.9469 36.2259 14.9207C36.8966 14.7726 37.5585 14.5983 38.2205 14.424C38.2902 14.4066 38.3773 14.3455 38.4122 14.2758C38.8302 13.535 39.2483 12.7942 39.6577 12.0535C39.7012 11.975 39.6925 11.8356 39.6402 11.7659C39.5967 11.7049 39.466 11.7049 39.3702 11.6961C39.3006 11.6961 39.2222 11.7136 39.1525 11.7223C37.785 12.0012 36.4176 12.2801 34.9891 12.5677ZM34.9891 12.2016C36.5047 11.9053 37.9766 11.6177 39.4748 11.3214C39.527 11.1732 39.588 10.9728 39.6577 10.7549C38.5776 10.0315 37.4976 9.3169 36.3914 8.57611C35.503 9.63065 35.024 10.8246 34.9891 12.2016ZM41.3823 16.8555C41.0164 15.2955 40.6593 13.7965 40.3022 12.2975C40.2848 12.2103 40.1716 12.1058 40.0845 12.0883C40.0322 12.0796 39.919 12.1929 39.8754 12.2801C39.4661 13.0557 39.0567 13.8226 38.6735 14.607C38.5689 14.8074 38.4818 15.0428 38.4818 15.2694C38.4818 15.7574 38.5341 16.2455 38.5515 16.7335C38.5515 16.9775 38.656 17.0734 38.8912 17.0647C39.3267 17.0472 39.7709 17.0734 40.2064 17.0385C40.5984 17.0124 40.9903 16.9252 41.391 16.8642L41.3823 16.8555ZM45.5718 10.2843C45.5021 10.2756 45.476 10.2581 45.4585 10.2669C44.1085 10.5893 42.7585 10.9031 41.4084 11.2342C41.3387 11.2517 41.2255 11.3388 41.2342 11.365C41.2603 11.4434 41.3126 11.5393 41.3823 11.5828C41.9658 11.9663 42.5668 12.3323 43.1504 12.7245C43.7427 13.1254 44.3175 13.5438 44.9272 13.9708C45.5544 12.803 45.7982 11.5916 45.5718 10.2843ZM45.4498 9.70908C45.1363 8.57611 44.4221 7.69588 43.4117 7.05096C43.1243 7.46929 42.8542 7.8789 42.5755 8.27108C42.0878 8.9683 41.6 9.66551 41.121 10.3714C41.0687 10.4586 41.06 10.6416 41.121 10.72C41.1732 10.7985 41.3474 10.8508 41.4432 10.8246C42.7672 10.4673 44.0824 10.0926 45.4585 9.70908H45.4498ZM39.7796 6.50191C38.5341 6.76336 37.515 7.36471 36.6353 8.28851C37.7589 9.06416 38.8476 9.81367 40.0148 10.6242C40.067 10.4673 40.189 10.3017 40.1715 10.1448C40.0496 8.94215 39.9103 7.73074 39.7709 6.50191H39.7796ZM40.2412 6.42347C40.2587 6.78079 40.2761 7.10325 40.3022 7.42571C40.3806 8.33209 40.4677 9.24718 40.5548 10.1536C40.5635 10.2581 40.6245 10.354 40.6593 10.4586C40.729 10.3889 40.8248 10.3366 40.8771 10.2494C41.4606 9.35176 42.0442 8.4541 42.6278 7.54773C42.7758 7.32113 42.9152 7.09454 43.0807 6.8418C42.1749 6.38861 41.2603 6.27531 40.25 6.42347H40.2412ZM40.8597 11.1907C40.851 10.9728 40.7203 10.8508 40.459 10.8508C40.2064 10.8508 39.7186 11.1732 39.8057 11.3301C39.9016 11.5131 40.128 11.6961 40.337 11.7571C40.6245 11.8443 40.851 11.5741 40.8684 11.1907H40.8597ZM4.46046 6.46705L4.39948 6.52805C4.62594 6.94638 4.85241 7.37342 5.11371 7.86147C5.35759 7.65231 5.55795 7.48672 5.80183 7.27756C5.30536 6.98124 4.87858 6.71979 4.45179 6.45833L4.46046 6.46705Z" fill="#F7F8C5"/>
</svg>
