<svg width="51" height="55" viewBox="0 0 51 55" fill="none" xmlns="http://www.w3.org/2000/svg">
<path d="M43.5327 28.088C45.2387 38.7891 38.0876 48.8105 27.58 50.4856C17.0725 52.1608 7.1598 44.8599 5.45376 34.1587C3.74772 23.4575 10.8988 13.4362 21.4064 11.761C31.914 10.0858 41.8266 17.3868 43.5327 28.088Z" stroke="#F7F8C5"/>
<path d="M27.9012 20.1413C29.2978 20.2758 30.6439 20.404 31.9046 20.526C32.031 20.8355 32.1227 21.0638 32.2522 21.3828C32.941 21.3828 33.6457 21.3703 34.3471 21.3859C34.7737 21.3953 35.1086 21.4578 35.3614 21.9519C35.5415 22.3022 35.5889 22.6086 35.5921 22.9495C35.6174 26.133 35.63 29.3195 35.6584 32.503C35.6584 32.8407 35.5352 33.0784 35.3393 33.3442C34.5841 34.373 33.5951 34.9234 32.3344 35.208C30.4511 35.6301 28.6058 36.2149 26.7479 36.7372C26.3813 36.8404 26.138 37.0468 25.9074 37.3907C25.3576 38.2101 24.6909 38.9512 24.0715 39.7267C23.1394 40.8994 21.8123 41.2716 20.4157 41.5311C19.7205 41.6624 19.038 41.6656 18.3429 41.5467C17.7741 41.4498 17.1801 41.4467 16.6397 41.2684C15.5465 40.9025 14.7312 40.1082 14.0298 39.2451C12.9997 37.9818 12.1939 36.5746 11.8716 34.9609C11.5557 33.3911 11.5715 31.8056 12.1244 30.289C12.4973 29.2695 13.145 28.3814 14.0424 27.7497C15.3916 26.8053 16.8894 26.2018 18.5767 26.2487C19.1391 26.2643 19.6953 26.4207 20.2577 26.4863C20.798 26.5489 20.8043 26.4801 20.7759 25.9422C20.7348 25.176 20.7727 24.4036 20.7854 23.6312C20.7917 23.2216 20.8043 22.8088 20.8454 22.4022C20.8612 22.249 20.9307 22.0614 21.0445 21.9644C21.4552 21.6173 21.885 21.2859 22.3273 20.9794C22.7666 20.6761 23.2911 20.7355 23.7872 20.7449C24.6308 20.7667 25.4745 20.8168 26.315 20.8543C26.4161 20.8574 26.5267 20.8387 26.6152 20.8762C27.3482 21.1764 27.6895 20.7761 27.898 20.1382L27.9012 20.1413ZM25.2217 34.7827C25.2217 33.4974 25.1016 32.4404 24.6751 31.4429C23.9041 29.6322 22.776 28.1343 20.9212 27.2744C20.125 26.9054 19.3066 26.5958 18.4219 26.552C17.6951 26.5176 17.041 26.8303 16.3743 27.0742C14.2857 27.831 12.7595 29.0944 12.2951 31.3741C12.0138 32.7438 12.0233 34.1135 12.4341 35.4269C12.9523 37.0905 13.8433 38.5634 15.161 39.7643C15.815 40.3584 16.5292 40.8494 17.3886 41.0245C18.7442 41.2966 20.1123 41.3404 21.4394 40.8588C22.1788 40.593 22.9877 40.3928 23.4933 39.7486C23.9452 39.1732 24.378 38.5572 24.6687 37.8911C25.1269 36.8435 25.228 35.7083 25.2185 34.7796L25.2217 34.7827ZM27.2471 34.0697C27.8538 33.8226 28.3657 33.6319 28.8586 33.4036C29.1556 33.266 29.4906 33.1159 29.6896 32.8751C30.1383 32.3279 30.113 31.6368 30.0277 30.9832C29.9487 30.3734 29.7749 29.773 29.6233 29.1726C29.2536 27.7216 28.3752 26.6521 27.0354 25.9766C26.2613 25.5857 25.4144 25.5106 24.5581 25.6545C24.1948 25.717 23.844 25.8515 23.4838 25.9485C23.1994 26.0235 22.9087 26.086 22.6244 26.1611C22.3558 26.233 22.0904 26.3206 21.7933 26.4081C23.5217 26.9366 25.1648 27.512 26.2139 29.0162C27.2471 30.4922 27.323 32.209 27.2471 34.0666V34.0697ZM33.8005 33.5881C33.8637 30.2796 33.9269 26.9992 33.9901 23.6969C33.3265 23.6375 32.7072 23.5843 32.1827 23.5374C32.1195 23.969 32.0595 24.3505 32.0057 24.7351C31.9647 25.0228 31.8825 25.3136 31.9046 25.5982C31.9394 26.1017 32.0784 26.5989 32.1037 27.1024C32.1606 28.2094 32.1922 29.3195 31.9647 30.4203C33.6885 30.664 31.2752 32.7922 33.8005 33.5881ZM30.7418 31.0551C30.7829 31.0739 30.8271 31.0926 30.8682 31.1145C31.042 30.88 31.2126 30.6455 31.3896 30.414C31.6961 30.0138 31.6424 29.5478 31.6424 29.0944C31.6424 27.8279 31.7719 26.5489 31.3485 25.3199C31.3074 25.1979 31.121 25.0603 30.9914 25.0478C29.9993 24.9509 29.004 24.8977 28.0118 24.7977C26.988 24.6945 25.9706 24.5537 24.9594 24.4287C25.0037 24.6444 25.0511 24.8602 25.1016 25.1166C25.4176 25.0916 25.7399 25.0666 26.0622 25.0384C28.7575 24.8039 30.5364 26.6833 30.7323 29.2007C30.7797 29.8168 30.7387 30.4359 30.7387 31.0551H30.7418ZM26.1507 35.5301C27.1176 34.4919 26.988 31.0301 25.9137 29.3195C25.1427 28.0906 22.2673 26.4957 21.3352 26.7177C24.9184 28.5409 26.5014 31.4898 26.1507 35.5301ZM21.253 26.0579C22.3021 25.7952 23.2942 25.545 24.2927 25.3043C24.5234 25.248 24.6182 25.1135 24.5613 24.9009C24.5139 24.7195 24.4412 24.5381 24.3528 24.3724C24.0905 23.8877 24.1727 23.4248 24.4507 22.9745C24.1158 22.7869 23.8598 22.9214 23.5755 23.0464C22.7982 23.3904 22.0082 23.4999 21.253 23.012V26.061V26.0579ZM30.7355 24.6194C30.9156 24.5506 31.2474 24.4787 31.5002 24.2973C31.6392 24.1972 31.7087 23.9158 31.7024 23.7188C31.6929 23.4498 31.4338 23.5374 31.2569 23.528C31.0072 23.5155 30.7576 23.5124 30.5112 23.4905C29.6896 23.4123 28.8649 23.3404 28.0434 23.2372C27.3514 23.1496 26.6562 23.0558 25.98 22.8963C25.2754 22.7306 25.0163 22.8275 24.7762 23.5061C24.6529 23.8501 24.7604 24.0252 25.1301 24.0722C25.4524 24.1159 25.7778 24.1535 26.1033 24.1847C27.5979 24.3286 29.0956 24.4662 30.7323 24.6225L30.7355 24.6194ZM34.385 33.6694C34.6315 33.216 35.1687 33.0471 35.1624 32.4592C35.1308 29.2382 35.115 26.0204 35.0897 22.7994C35.0897 22.7118 35.0644 22.6243 35.0518 22.5336C34.7958 22.8588 34.4925 23.1934 34.4798 23.5405C34.4103 25.4856 34.404 27.4307 34.3882 29.379C34.3756 30.7768 34.3882 32.1715 34.3882 33.6694H34.385ZM26.1096 21.3765C25.2849 21.3046 24.3875 21.2264 23.4933 21.1514C23.2184 21.1295 22.9656 21.1451 22.7192 21.339C22.3495 21.6298 21.9071 21.8362 21.5532 22.1458C21.2783 22.3835 21.3794 22.7306 21.6986 22.765C22.2294 22.8244 22.795 22.9401 23.2816 22.6368C23.7398 22.3522 24.2106 22.3147 24.7225 22.3804C24.8773 22.3991 25.0921 22.4022 25.1901 22.3147C25.525 22.0207 25.8189 21.6799 26.1096 21.3765ZM31.4022 22.5305C31.5507 22.6806 31.6992 22.9651 31.8888 22.9964C32.5619 23.0996 33.2507 23.1184 33.9332 23.1622C33.9743 23.1622 34.0406 23.1371 34.0596 23.1027C34.2871 22.7243 34.5083 22.346 34.7453 21.9363C33.9806 21.855 33.2949 21.7799 32.6093 21.708C32.5461 21.7018 32.4607 21.708 32.4133 21.7455C32.0879 21.9895 31.7688 22.2428 31.4022 22.5305ZM27.7274 21.4422C28.7543 21.5454 29.7181 21.6298 30.6755 21.7424C31.4591 21.8331 31.4559 21.8487 31.636 21.0982C31.6392 21.0795 31.6202 21.0544 31.6171 21.0451C30.5744 20.8824 29.5411 20.7073 28.5015 20.5729C28.3562 20.5541 28.1413 20.6854 28.0371 20.8105C27.898 20.9763 27.838 21.2045 27.7242 21.4485L27.7274 21.4422Z" fill="#F7F8C5"/>
<path d="M23.7843 34.742C23.8727 35.8115 23.5694 36.7997 23.0038 37.6847C22.3845 38.6541 21.4808 39.2733 20.3243 39.5015C19.6418 39.636 18.9624 39.7892 18.2641 39.636C17.1393 39.389 16.2608 38.7166 15.6036 37.8535C14.0585 35.8271 13.7709 33.5537 14.5609 31.1583C14.6809 30.7986 14.9653 30.4703 15.2339 30.1826C16.4567 28.8754 17.9545 28.3438 19.7113 28.8254C21.1111 29.21 22.1696 30.0606 22.8774 31.3459C23.285 32.0839 23.601 32.8375 23.7179 33.6662C23.7685 34.0196 23.759 34.3824 23.7779 34.742H23.7843ZM19.8124 29.2225C18.8045 28.8973 17.8818 28.913 17.0065 29.3289C16.0112 29.8042 15.1233 30.464 14.8105 31.5617C14.2354 33.5724 14.5103 35.505 15.6447 37.2781C16.1945 38.1412 16.9939 38.7573 17.9482 39.1231C19.1963 39.6016 20.3591 39.1919 21.4429 38.5947C21.8284 38.382 22.1285 37.9849 22.4066 37.6252C22.5014 37.5033 22.4414 37.2312 22.394 37.0405C22.375 36.9685 22.1917 36.8966 22.0843 36.8997C21.9042 36.9029 21.7241 36.9779 21.5408 36.9998C20.792 37.0905 20.0778 37.0061 19.4111 36.612C18.5296 36.0929 18.0272 35.283 17.6764 34.3824C17.3636 33.5881 17.2151 32.7406 17.3731 31.89C17.6227 30.5641 18.4727 29.7229 19.8093 29.2225H19.8124ZM21.1364 36.6308C21.9737 36.5745 22.552 36.2587 22.9216 35.5769C23.1207 35.2048 23.364 34.792 23.1555 34.423C22.9153 34.004 23.3229 33.66 23.1397 33.2691C22.8932 32.7469 22.7005 32.1996 22.4982 31.6586C22.1538 30.7517 21.4018 30.2139 20.6782 29.6416C20.3749 29.4008 20.0462 29.5102 19.7871 29.6228C18.5138 30.1732 17.6385 31.127 17.7365 32.6061C17.8028 33.61 18.0967 34.5356 18.7002 35.3737C19.3258 36.2462 20.1884 36.5808 21.1364 36.6308Z" fill="#F7F8C5"/>
<path d="M20.8997 40.3245C22.5206 39.5896 23.6139 38.4513 24.2617 36.8408C24.3185 38.1167 22.29 40.4464 20.8997 40.3245Z" fill="#F7F8C5"/>
<path d="M16.3335 39.8331C15.7426 39.7393 15.3223 39.4016 14.9842 38.9638C14.1658 37.9068 13.6445 36.7091 13.2874 35.4332C13.259 35.3332 13.2527 35.2268 13.2685 35.1143C13.9415 36.9124 14.5292 38.7543 16.3335 39.8363V39.8331Z" fill="#F7F8C5"/>
<path d="M23.405 30.7798C22.1758 29.1474 20.6718 28.0091 18.5674 27.784C20.3432 27.7402 23.424 29.6227 23.405 30.7798Z" fill="#F7F8C5"/>
<path d="M15.1994 28.4346C14.6401 28.9474 14.1219 29.429 13.5974 29.9106C13.9829 29.2883 14.4506 28.7473 15.1994 28.4346Z" fill="#F7F8C5"/>
<path d="M13.0409 34.1261C13.0125 33.7165 12.9872 33.3037 12.9587 32.894H13.0346C13.063 33.3006 13.0883 33.7102 13.1167 34.123C13.0915 34.123 13.0662 34.123 13.0409 34.1261Z" fill="#F7F8C5"/>
<path d="M24.4065 27.24C24.6466 26.8272 26.7068 26.3175 27.0544 26.6177C26.1981 26.8179 25.3449 27.018 24.4065 27.24Z" fill="#F7F8C5"/>
<path d="M25.9768 28.0654C26.4603 27.5838 27.1522 27.5182 27.7558 27.2805C27.8442 27.2461 27.9927 27.3556 28.1128 27.3993C28.1065 27.44 28.1033 27.4838 28.097 27.5244C27.4145 27.7558 26.7352 27.9872 26.0526 28.2187C26.0274 28.1655 26.0021 28.1155 25.9768 28.0623V28.0654Z" fill="#F7F8C5"/>
<path d="M27.4717 30.5859C27.5696 30.5077 27.6581 30.4045 27.7687 30.3608C28.2205 30.1794 28.6756 30.0105 29.1337 29.8573C29.2127 29.8291 29.3296 29.9042 29.4276 29.9323C29.3897 30.0043 29.3707 30.1231 29.3138 30.1419C28.7293 30.3482 28.1352 30.5359 27.5475 30.7298C27.5222 30.6797 27.497 30.6328 27.4717 30.5828V30.5859Z" fill="#F7F8C5"/>
<path d="M27.9043 31.7586C28.2519 31.3646 28.7574 31.2614 29.2314 31.1019C29.2661 31.0894 29.3546 31.1457 29.3704 31.1894C29.3862 31.2301 29.3641 31.3333 29.3293 31.3458C28.8775 31.5365 28.4225 31.7179 27.9675 31.9024C27.9454 31.8555 27.9232 31.8086 27.9011 31.7586H27.9043Z" fill="#F7F8C5"/>
<path d="M25.5343 26.2584C24.8486 26.3928 24.1882 26.5211 23.5278 26.6493C24.0144 26.2177 25.3036 25.9738 25.5343 26.2584Z" fill="#F7F8C5"/>
<path d="M27.6609 33.1939C28.2044 32.9124 28.751 32.631 29.3103 32.3433C29.3008 32.6622 28.514 33.1313 27.7304 33.3127C27.7083 33.272 27.683 33.2345 27.6609 33.1939Z" fill="#F7F8C5"/>
<path d="M27.9741 28.5723C28.1795 28.7661 28.486 28.616 28.4955 28.7661C28.1795 29.0789 27.2947 29.1602 26.9251 29.2696C26.9061 29.2258 26.8903 29.1821 26.8713 29.1352C27.2379 28.9475 27.6076 28.7599 27.9741 28.5723Z" fill="#F7F8C5"/>
<path d="M27.9741 28.5719C28.1542 28.55 28.3343 28.5188 28.5144 28.5156C28.5934 28.5156 28.6724 28.5782 28.7514 28.6126C28.6882 28.6689 28.6345 28.7408 28.5618 28.7783C28.2932 28.9253 28.1353 28.7314 27.9709 28.5719H27.9741Z" fill="#F7F8C5"/>
<path d="M19.3987 35.1328C20.1033 35.7395 20.8838 35.9271 21.7654 35.5988C21.1081 36.2555 19.9169 35.9302 19.3987 35.1328Z" fill="#F7F8C5"/>
<path d="M8.48878 13.6332L8.04408 14.0229L7.6728 13.5916C7.13751 14.0284 6.61575 14.2424 6.10079 14.2428C5.58583 14.2431 5.15072 14.0264 4.78076 13.603C4.42004 13.1864 4.26536 12.7287 4.3326 12.2275C4.39984 11.7263 4.68993 11.2386 5.19368 10.7577L4.85402 10.3705L5.29873 9.98074L5.63839 10.368C6.17368 9.93117 6.69544 9.71719 7.21167 9.72482C7.7279 9.73244 8.16179 9.94121 8.53048 10.3566C8.89119 10.7732 9.04588 11.2309 8.97864 11.7321C8.9114 12.2333 8.63055 12.7277 8.11756 13.2018L8.48878 13.6332ZM5.23217 13.2041C5.80225 13.8571 6.4964 13.8527 7.31337 13.1829L5.55311 11.1664C4.77692 11.8869 4.67261 12.5657 5.23344 13.212L5.23217 13.2041ZM5.98989 10.778L7.7501 12.7945C8.52628 12.074 8.63064 11.3952 8.06981 10.7488C7.49974 10.0958 6.80559 10.1002 5.98862 10.77L5.98989 10.778Z" fill="#F7F8C5"/>
<path d="M11.8487 11.1191C11.4382 11.3644 11.009 11.441 10.5732 11.3225C10.1306 11.2132 9.79531 10.956 9.55129 10.5534C9.30727 10.1509 9.23991 9.72837 9.35047 9.29382C9.45977 8.85131 9.71572 8.50804 10.1342 8.26147C10.5447 8.01618 10.9672 7.94882 11.4097 8.05812C11.8443 8.16869 12.1875 8.42461 12.4315 8.82715C12.6756 9.22969 12.7429 9.65221 12.6324 10.0868C12.5218 10.5213 12.2659 10.8646 11.8567 11.1178L11.8487 11.1191ZM10.7268 10.7993C11.0169 10.8757 11.2972 10.8392 11.5718 10.6646C11.8478 10.498 12.0153 10.2669 12.0837 9.97803C12.1441 9.69045 12.0904 9.40473 11.9225 9.12085C11.7546 8.83697 11.5302 8.6602 11.2389 8.57585C10.9475 8.49151 10.6684 8.53599 10.3938 8.71058C10.1179 8.87718 9.95036 9.10826 9.88196 9.39711C9.81483 9.69393 9.86858 9.97966 10.0352 10.2556C10.2031 10.5394 10.4354 10.715 10.7175 10.7926L10.7268 10.7993Z" fill="#F7F8C5"/>
<path d="M14.2976 9.7638L13.1897 7.27544L12.259 7.69358L12.0552 7.23558L14.4597 6.16557L14.6635 6.62356L13.6863 7.0573L14.7942 9.54567L14.2909 9.77305L14.2976 9.7638Z" fill="#F7F8C5"/>
<path d="M17.52 8.59608C17.0598 8.73484 16.6287 8.69729 16.2267 8.48343C15.8248 8.26957 15.5591 7.93589 15.4228 7.49164C15.2853 7.03942 15.3242 6.61632 15.5301 6.21563C15.7439 5.81366 16.0776 5.54793 16.5365 5.40119C16.9967 5.26243 17.4198 5.30124 17.8218 5.5151C18.2237 5.72896 18.4895 6.06264 18.6257 6.50689C18.7632 6.95911 18.7244 7.38221 18.5185 7.7829C18.3126 8.1836 17.9709 8.45061 17.5187 8.5881L17.52 8.59608ZM16.5114 8.01295C16.7719 8.15946 17.0544 8.18799 17.3656 8.08932C17.6769 7.99064 17.8944 7.81699 18.0225 7.54316C18.1517 7.27731 18.171 6.98811 18.0803 6.67558C17.9817 6.36432 17.8055 6.13081 17.5451 5.98431C17.2846 5.8378 17.0021 5.80927 16.6896 5.89997C16.3783 5.99864 16.1608 6.1723 16.0248 6.4474C15.8875 6.71452 15.8682 7.00372 15.9682 7.32295C16.0669 7.63421 16.243 7.86772 16.5035 8.01423L16.5114 8.01295Z" fill="#F7F8C5"/>
<path d="M22.1069 7.57841L22.056 7.25952C21.8244 7.54988 21.5007 7.7241 21.1008 7.77968C20.6304 7.85467 20.221 7.74826 19.8673 7.47767C19.5135 7.20708 19.2997 6.84059 19.2327 6.36896C19.1577 5.8986 19.2549 5.48254 19.5255 5.12876C19.7868 4.76828 20.1533 4.55452 20.6237 4.47954C21.0303 4.41472 21.3867 4.49687 21.6971 4.70079L21.6463 4.38191L22.1964 4.29421L22.6729 7.48817L22.1228 7.57587L22.1069 7.57841ZM21.0341 7.25895C21.2573 7.22336 21.4502 7.15173 21.6104 7.0281C21.7705 6.90447 21.887 6.76328 21.9652 6.58731L21.7854 5.35705C21.6644 5.21286 21.5085 5.10691 21.3178 5.03921C21.1272 4.9715 20.9203 4.95544 20.705 4.98976C20.3941 5.03932 20.1555 5.18364 19.9813 5.42396C19.8083 5.67226 19.7466 5.95186 19.7987 6.27872C19.8508 6.60558 19.9884 6.85341 20.2233 7.04486C20.4569 7.22834 20.7299 7.29927 21.0408 7.24971L21.0341 7.25895Z" fill="#F7F8C5"/>
<path d="M23.4757 7.44199L23.4759 4.2129L26.2471 4.21253L26.2469 7.44163L25.6908 7.44036L25.6901 4.71826L24.0311 4.72115L24.0318 7.44326L23.4757 7.44199Z" fill="#F7F8C5"/>
<path d="M27.0327 7.50453L27.4627 4.30501L30.2114 4.67611L29.7813 7.87563L29.2297 7.80007L29.5925 5.10176L27.947 4.88179L27.5842 7.58009L27.0327 7.50453Z" fill="#F7F8C5"/>
<path d="M32.9422 8.729L33.0319 8.4204C32.6977 8.57996 32.3339 8.60526 31.9405 8.49631C31.4862 8.36436 31.1496 8.0992 30.94 7.70753C30.7304 7.31585 30.6869 6.88951 30.8189 6.43521C30.9508 5.98091 31.208 5.64561 31.5984 5.42805C31.9888 5.21049 32.4072 5.16831 32.8615 5.30026C33.2562 5.41718 33.5519 5.63163 33.7408 5.94485L33.8307 5.63624L34.3618 5.78863L33.4586 8.89191L32.9275 8.73952L32.9422 8.729ZM32.0966 7.98909C32.3112 8.05298 32.5169 8.06107 32.7149 8.02132C32.9129 7.98158 33.0794 7.89781 33.2143 7.77003L33.5639 6.578C33.5107 6.39846 33.419 6.23324 33.274 6.09286C33.129 5.95248 32.9492 5.85034 32.7347 5.78645C32.434 5.6954 32.1537 5.73192 31.8992 5.87877C31.6446 6.02562 31.4704 6.26594 31.3727 6.57582C31.2842 6.8924 31.306 7.18321 31.4382 7.44826C31.5703 7.7133 31.7947 7.89008 32.0954 7.98112L32.0966 7.98909Z" fill="#F7F8C5"/>
<path d="M35.5941 6.23736L36.0968 6.46785L35.9634 6.7589C36.304 6.6392 36.6687 6.67097 37.0484 6.84751C37.481 7.04832 37.7668 7.35427 37.9164 7.78003C38.0648 8.19782 38.0432 8.62635 37.8411 9.05095C37.6403 9.48353 37.3357 9.77735 36.9192 9.93368C36.5026 10.09 36.0741 10.0684 35.6507 9.8743C35.2711 9.69776 35.0088 9.4371 34.8744 9.10701L34.2423 10.4749L33.7396 10.2444L35.5941 6.23736ZM35.8612 9.39931C36.1442 9.53403 36.4321 9.54536 36.7077 9.42785C36.9845 9.31832 37.189 9.11404 37.3292 8.81376C37.4693 8.51347 37.4886 8.22428 37.395 7.9449C37.3002 7.65756 37.1118 7.45051 36.822 7.32504C36.6184 7.22672 36.4169 7.19344 36.2138 7.2013C36.0119 7.21713 35.8324 7.27027 35.6844 7.36744L35.1614 8.49719C35.1894 8.67257 35.2505 8.85085 35.3741 9.01099C35.4978 9.17113 35.6575 9.30099 35.8612 9.39931Z" fill="#F7F8C5"/>
<path d="M39.7324 12.1914L39.9107 11.9259C39.544 11.9844 39.1863 11.8943 38.8481 11.6703C38.4545 11.406 38.2114 11.0606 38.1335 10.6234C38.0477 10.1874 38.1369 9.77263 38.3998 9.37102C38.6628 8.9694 39.0095 8.73428 39.4442 8.64046C39.8788 8.54664 40.2937 8.63583 40.694 8.89082C41.0322 9.11485 41.2504 9.40705 41.3408 9.76869L41.5192 9.50318L41.9855 9.81306L40.1987 12.5013L39.7324 12.1914ZM39.1472 11.2384C39.3307 11.3644 39.5293 11.4308 39.7283 11.4482C39.9273 11.4655 40.1106 11.4363 40.2864 11.3592L40.9719 10.3262C40.9745 10.1377 40.9294 9.9569 40.8364 9.78371C40.7434 9.61052 40.6037 9.45293 40.4134 9.33612C40.1492 9.1657 39.8789 9.1107 39.5864 9.17367C39.2953 9.24461 39.0605 9.41284 38.8834 9.68633C38.6983 9.96108 38.6366 10.2407 38.6836 10.5357C38.7306 10.8306 38.8909 11.0667 39.1551 11.2371L39.1472 11.2384Z" fill="#F7F8C5"/>
<path d="M41.3049 13.4447L43.0939 11.3856L42.3248 10.7152L42.6567 10.3353L44.6486 12.0615L44.3168 12.4414L43.5107 11.7442L41.7218 13.8033L41.3049 13.4447Z" fill="#F7F8C5"/>
</svg>
