<svg width="45" height="53" viewBox="0 0 45 53" fill="none" xmlns="http://www.w3.org/2000/svg">
<path d="M41.8595 28.4784C43.2519 38.9143 36.0583 48.4705 25.8117 49.8376C15.5651 51.2046 6.11788 43.8686 4.72556 33.4326C3.33323 22.9967 10.5267 13.4405 20.7734 12.0734C31.02 10.7064 40.4672 18.0424 41.8595 28.4784Z" stroke="#F7F8C5"/>
<path d="M9.4364 33.373C9.45316 32.8576 9.34443 32.3631 9.18701 31.8777C8.95395 31.1593 8.79442 30.4243 8.64702 29.6868C8.61583 29.5331 8.58628 29.3784 8.56296 29.2237C8.53357 29.0301 8.62188 28.8706 8.74391 28.7235C8.75702 28.7082 8.77571 28.688 8.79333 28.6865C8.91698 28.6784 8.95941 28.5757 9.03625 28.5106C9.22929 28.3481 9.43154 28.1945 9.62064 28.0292C9.77465 27.8947 9.92142 27.7527 10.0611 27.6041C10.9253 26.6827 11.7795 25.7525 12.6527 24.8384C13.0865 24.3838 13.5527 23.9578 14.0047 23.5194C14.7353 22.8117 15.4659 22.1039 16.1995 21.3983C17.162 20.4723 18.1235 19.5455 19.0931 18.6253C19.4624 18.2747 19.8503 17.9435 20.231 17.6049C20.36 17.4898 20.5707 17.4397 20.7394 17.5489C21.0163 17.728 21.316 17.8771 21.5906 18.0591C23.2474 19.1582 25.0099 20.1013 26.7195 21.1216C27.8888 21.819 29.0625 22.509 30.216 23.2287C31.5883 24.0846 33.0522 24.7933 34.4344 25.6302C34.9975 25.9712 35.5981 26.2591 36.1173 26.665C36.2188 26.7443 36.345 26.7959 36.4604 26.859C36.8391 27.0667 37.2187 27.2735 37.5982 27.4803C37.6346 27.4999 37.68 27.5125 37.7059 27.5402C37.7371 27.5732 37.7728 27.6208 37.7701 27.6608C37.7556 27.8856 37.7802 28.1034 37.8207 28.3268C37.911 28.8237 37.9752 29.3249 38.0402 29.8252C38.0985 30.2758 38.1412 30.7293 38.1943 31.1805C38.203 31.2528 38.2311 31.3225 38.2478 31.3945C38.2979 31.6098 38.2669 31.7912 38.0748 31.9544C37.9571 32.0537 37.8884 32.2063 37.8025 32.3376C37.5833 32.6716 37.3721 33.0112 37.1461 33.341C37.0402 33.4953 36.9072 33.6337 36.7868 33.7798C36.3792 34.2773 35.9755 34.7776 35.5638 35.2715C35.1406 35.7787 34.6996 36.273 34.2813 36.7838C33.319 37.9588 32.2478 39.0454 31.1975 40.1478C30.7051 40.6642 30.1604 41.1361 29.6419 41.6307C29.1408 42.1086 28.6438 42.5902 28.1427 43.0681C28.0233 43.1819 27.8956 43.2867 27.7712 43.3962C27.7641 43.3895 27.7571 43.3837 27.75 43.3771C27.8462 43.2638 27.9377 43.1478 28.038 43.0382C28.8161 42.1924 29.5883 41.3424 30.3766 40.5063C31.2233 39.6066 32.1 38.7317 32.9367 37.8241C33.6076 37.0965 34.2394 36.3361 34.8842 35.5867C34.9236 35.5409 34.945 35.4612 34.9355 35.4034C34.8619 34.965 34.8012 34.5233 34.6937 34.0919C34.5262 33.4238 34.325 32.7645 34.1368 32.1017C34.1286 32.0732 34.1144 32.0472 34.0979 32.0098C34.0737 32.029 34.0549 32.0417 34.0392 32.0573C33.3868 32.7107 32.7355 33.3648 32.0811 34.0159C32.0237 34.0734 32.015 34.1218 32.0354 34.1942C32.2345 34.8919 32.4387 35.588 32.624 36.2891C32.7195 36.6503 32.7822 37.0201 32.8586 37.3863C32.8639 37.4127 32.8761 37.4439 32.8664 37.4646C32.8446 37.5081 32.8105 37.5464 32.7812 37.5874C32.7423 37.5563 32.7018 37.5263 32.6652 37.4923C32.655 37.4827 32.6591 37.4602 32.656 37.4438C32.5875 37.0967 32.5317 36.7454 32.4467 36.4023C32.2717 35.698 32.0802 34.9977 31.8957 34.2956C31.8917 34.2792 31.8852 34.264 31.8761 34.2357C31.8502 34.2552 31.828 34.2692 31.8107 34.2866C30.946 35.1845 30.0834 36.0845 29.2168 36.9817C28.7902 37.4236 28.3999 37.8976 27.929 38.3015C27.9138 38.3145 27.8977 38.3268 27.8864 38.3359C29.0286 36.7663 30.3856 35.3647 31.7847 33.9846C31.6381 33.794 31.4557 33.6554 31.2269 33.577C31.2017 33.5686 31.1483 33.6086 31.12 33.6369C30.7751 33.9901 30.4344 34.3479 30.0885 34.7004C29.9027 34.8906 29.7099 35.0751 29.5161 35.2587C29.4284 35.3422 29.3265 35.4064 29.1884 35.4131C29.725 34.8139 30.2728 34.2251 30.8304 33.6569C30.2612 33.3505 29.7104 33.0484 29.1528 32.7556C27.7856 32.0374 26.408 31.335 25.0472 30.6049C23.2918 29.6617 21.6094 28.6107 19.9626 27.507C18.8462 26.7587 17.7087 26.0394 16.5267 25.3868C15.9968 25.0945 15.4471 24.8344 14.9082 24.5552C14.8154 24.5068 14.7565 24.513 14.6852 24.5926C14.3483 24.9659 14.0035 25.3334 13.6657 25.706C13.3385 26.0653 13.0162 26.4274 12.6911 26.789C12.6724 26.8092 12.6547 26.8301 12.6352 26.8505C12.5708 26.9156 12.551 26.9739 12.5889 27.071C12.7128 27.3921 12.5732 27.7551 12.2715 27.9574C12.2632 27.9627 12.2582 27.9719 12.2582 27.9719C12.7285 28.3379 12.8172 28.8089 12.6914 29.3557C12.9156 29.2726 13.1144 29.3474 13.2975 29.4707C13.4718 29.5884 13.577 29.7558 13.6518 29.9425C13.6599 29.9634 13.667 29.9903 13.661 30.0113C13.6525 30.0412 13.6367 30.077 13.6119 30.0913C13.5971 30.1001 13.5514 30.0783 13.5336 30.0587C13.5066 30.0294 13.4949 29.9888 13.4717 29.9556C13.3998 29.8504 13.3388 29.7336 13.2485 29.6443C13.0371 29.4354 12.7757 29.4466 12.5063 29.5374C12.4636 29.5515 12.4186 29.5609 12.3436 29.5802C12.3684 29.5187 12.3746 29.4849 12.3936 29.4605C12.603 29.1936 12.5973 28.904 12.5061 28.6073C12.479 28.5181 12.4432 28.43 12.4017 28.346C12.3356 28.2114 12.225 28.1164 12.0785 28.0608C12.0523 28.0508 12.0229 28.0446 12.0021 28.0288C11.9606 27.9981 11.9236 27.9616 11.8852 27.9271C11.9331 27.9055 11.9796 27.8731 12.0301 27.8647C12.1959 27.8384 12.3571 27.6979 12.3887 27.5071C12.4132 27.357 12.3995 27.201 12.4093 27.0477C12.4119 27.0136 12.4382 26.9772 12.462 26.9478C12.5509 26.8398 12.6505 26.7387 12.7345 26.627C13.2062 26.002 13.6801 25.38 14.2161 24.8029C14.3329 24.6767 14.4577 24.5571 14.5897 24.4247C14.5445 24.4062 14.5076 24.3901 14.47 24.3757C14.2851 24.3049 14.0964 24.2398 13.9148 24.1611C13.842 24.1294 13.8049 24.1453 13.7525 24.1928C13.0221 24.8558 12.3603 25.578 11.7005 26.3024C10.9335 27.145 10.1058 27.9324 9.28095 28.7219C9.22641 28.7739 9.16398 28.8202 9.10232 28.8656C9.05859 28.8984 9.04507 28.9306 9.08224 28.9755C9.18541 29.101 9.29098 29.2245 9.38758 29.3542C9.41928 29.3981 9.42473 29.459 9.44253 29.5123C9.38466 29.526 9.30493 29.5695 9.27174 29.5478C9.14631 29.4691 9.03269 29.372 8.92179 29.2754C8.89867 29.2557 8.89465 29.2056 8.89799 29.1705C8.91019 29.055 8.92974 28.9409 8.94804 28.811C8.82004 28.9201 8.72837 29.0277 8.76888 29.1911C8.86147 29.5713 8.94542 29.9534 9.04491 30.3318C9.20139 30.9237 9.37078 31.5122 9.52803 32.1032C9.56181 32.2295 9.66444 32.2842 9.7592 32.3466C10.6117 32.9065 11.4771 33.4494 12.3159 34.027C13.1077 34.573 13.9337 35.0672 14.7604 35.5612C14.8835 35.6351 14.9718 35.7364 15.0241 35.8814C15.0735 36.0175 15.1683 36.1542 15.2809 36.2498C15.6738 36.5839 16.0577 36.937 16.5471 37.146C16.8787 37.2875 17.2185 37.4169 17.5845 37.4626C17.6453 37.4705 17.7112 37.4575 17.7725 37.4425C18.035 37.3797 18.3107 37.3631 18.5521 37.2288C18.5695 37.2189 18.6014 37.218 18.6195 37.2266C18.9959 37.3967 19.3772 37.5568 19.7457 37.7414C20.9012 38.3216 22.0539 38.9081 23.2044 39.4973C24.111 39.9622 25.0146 40.4308 25.9162 40.9047C26.3666 41.1417 26.8083 41.3942 27.2543 41.6386C27.3292 41.6792 27.4065 41.717 27.5144 41.7719C27.5022 41.6798 27.4936 41.6159 27.4851 41.5521C27.3935 40.8055 27.301 40.0582 27.212 39.3113C27.2022 39.2315 27.2153 39.1488 27.2187 39.0479C26.8689 38.8835 26.4978 38.6992 26.1182 38.5321C25.5208 38.2683 24.917 38.0163 24.3176 37.7578C24.2609 37.7333 24.2067 37.7008 24.1589 37.6633C24.138 37.6467 24.1363 37.6072 24.1253 37.5783C24.1568 37.5741 24.1922 37.5593 24.2201 37.5674C24.2831 37.586 24.3433 37.6159 24.4037 37.6416C25.2336 37.9918 26.0633 38.3411 26.8924 38.6921C27.0162 38.7449 27.1372 38.8038 27.2604 38.8591C27.3135 38.8833 27.3588 38.889 27.4143 38.8445C27.4433 38.8212 27.5194 38.817 27.5513 38.8364C27.6096 38.8725 27.6034 38.9459 27.5533 38.9846C27.4855 39.0376 27.401 39.0716 27.3239 39.1149C27.341 39.2434 27.3599 39.3911 27.3803 39.5378C27.4803 40.2402 27.5792 40.9419 27.6818 41.644C27.6993 41.7615 27.6615 41.9059 27.8252 41.9709C27.7925 41.966 27.7599 41.9619 27.7163 41.9559C27.7061 42.3802 27.7941 42.7997 27.7143 43.2299C27.6836 43.153 27.6362 43.0783 27.6264 42.9985C27.5884 42.6938 27.554 42.3887 27.5371 42.082C27.5303 41.9571 27.4933 41.9004 27.3689 41.8428C26.8524 41.6044 26.3429 41.3517 25.837 41.0925C23.8428 40.0688 21.8506 39.0398 19.857 38.0144C19.4686 37.8147 19.0767 37.6214 18.6847 37.428C18.6542 37.4135 18.607 37.4063 18.5773 37.4179C18.2492 37.5427 17.9082 37.6051 17.5594 37.628C17.5116 37.631 17.4626 37.597 17.4141 37.5807C17.3899 37.5729 17.365 37.5602 17.3409 37.5601C17.0075 37.5649 16.7055 37.465 16.4115 37.3321C15.9232 37.1111 15.5383 36.7573 15.1371 36.4276C14.9711 36.2919 14.8661 36.1126 14.7939 35.9121C14.7685 35.8421 14.6891 35.7809 14.6192 35.7379C13.9706 35.3374 13.3107 34.9519 12.6695 34.5403C12.1852 34.2293 11.725 33.8856 11.2529 33.5586C10.8484 33.2783 10.4386 33.0047 10.0356 32.7225C9.89608 32.6246 9.77015 32.5089 9.61631 32.3843C9.63999 32.5617 9.66539 32.712 9.67841 32.863C9.69433 33.0491 9.7085 33.2354 9.70844 33.422C9.70851 33.5427 9.77145 33.6271 9.85385 33.6972C9.93833 33.7695 10.0438 33.8187 10.1339 33.886C10.1992 33.9347 10.2476 34.0042 10.3135 34.0503C10.6238 34.2663 10.9292 34.4914 11.2531 34.6888C13.014 35.7605 14.7787 36.8266 16.5456 37.8898C17.2674 38.3245 17.9922 38.7553 18.7257 39.1715C19.149 39.4121 19.5959 39.6167 20.0272 39.8444C21.6105 40.6798 23.1991 41.5078 24.84 42.2409C25.4322 42.5055 26.045 42.7318 26.6553 42.9584C26.9215 43.0571 27.2058 43.1112 27.4803 43.1919C27.5193 43.2036 27.5723 43.2472 27.5718 43.2768C27.5715 43.308 27.5208 43.3621 27.485 43.3677C27.4083 43.3804 27.3218 43.3861 27.2502 43.3636C27.0141 43.2904 26.7814 43.2092 26.5512 43.12C25.8663 42.8544 25.1827 42.586 24.5014 42.314C23.1697 41.7818 21.9213 41.0992 20.6569 40.4441C20.1104 40.1608 19.5404 39.9153 18.9917 39.6357C18.5022 39.3861 18.0138 39.1306 17.5457 38.8478C16.003 37.9158 14.4697 36.9682 12.9316 36.0306C12.6047 35.8311 12.2591 35.6578 11.9375 35.4517C11.543 35.1988 11.1658 34.9224 10.7801 34.6565C10.4543 34.4316 10.1172 34.2216 9.84074 33.9395C9.8243 33.9231 9.79931 33.896 9.7829 33.8999C9.63541 33.9297 9.60055 33.8154 9.54155 33.7338C9.48463 33.6544 9.43013 33.5731 9.37901 33.4904C9.34368 33.4327 9.34317 33.3821 9.44045 33.37L9.4364 33.373ZM17.1502 22.2599C17.1975 22.2873 17.2274 22.3045 17.258 22.3206C18.01 22.7343 18.7618 23.1472 19.4797 23.6136C20.4278 24.229 21.374 24.8498 22.3481 25.4263C23.1915 25.9249 24.0609 26.3845 24.9474 26.8183C25.8434 27.2567 26.7206 27.7347 27.5027 28.3478C27.5127 28.3557 27.5205 28.3674 27.5298 28.3771C27.4854 28.372 27.4497 28.3582 27.417 28.3398C27.2309 28.2338 27.0498 28.1187 26.8578 28.0219C25.9907 27.5864 25.1121 27.1711 24.2536 26.7201C23.0819 26.1049 21.9234 25.4686 20.8188 24.7483C19.638 23.9782 18.4812 23.1745 17.2352 22.4967C17.166 22.4587 17.099 22.4178 17.0343 22.38C16.3244 23.0495 15.555 23.646 14.9155 24.3761C14.9526 24.3931 14.9868 24.4097 15.0219 24.4253C15.9013 24.8262 16.7657 25.2553 17.5847 25.7571C18.5822 26.3693 19.573 26.9909 20.5526 27.6283C21.8357 28.4641 23.1345 29.2775 24.4777 30.0225C25.8121 30.762 27.1685 31.4656 28.5131 32.1885C29.2416 32.58 29.9895 32.9436 30.6468 33.4426C30.7171 33.4956 30.7891 33.5477 30.8602 33.5998C31.605 32.9248 32.2103 32.146 32.8821 31.4182C32.7756 31.3548 32.6815 31.2973 32.5859 31.2417C32.1603 30.9971 31.7456 30.7334 31.3058 30.5152C30.3957 30.0644 29.4718 29.6373 28.5522 29.2021C28.2669 29.0671 27.9793 28.935 27.694 28.8C27.6579 28.7829 27.6287 28.7513 27.5959 28.7262C27.6043 28.7157 27.6128 28.7053 27.6211 28.6941C28.5292 29.103 29.4343 29.5166 30.3451 29.9192C31.2578 30.3224 32.1355 30.7844 32.9682 31.3088C32.9924 31.2904 33.0024 31.2849 33.0085 31.2773C33.2597 31.0032 33.5107 30.7275 33.764 30.4557C33.7866 30.4316 33.8303 30.4249 33.864 30.4103C33.8541 30.4428 33.8528 30.4801 33.8331 30.5064C33.7697 30.5917 33.6983 30.6712 33.633 30.7559C33.4742 30.9611 33.3173 31.1677 33.1557 31.3792C33.4543 31.4871 33.7436 31.592 34.0507 31.7029C35.1738 30.4043 36.3828 29.1491 37.4202 27.7556C37.378 27.7199 37.3466 27.6852 37.3069 27.661C37.0259 27.4917 36.7434 27.3243 36.4626 27.1558C35.9628 26.8561 35.5038 26.5004 34.9783 26.2346C34.3257 25.9047 33.6899 25.5464 33.0468 25.2C32.4036 24.8537 31.7464 24.5286 31.1203 24.1563C29.5409 23.2166 27.9771 22.2537 26.4036 21.3047C24.9424 20.4235 23.4798 19.5441 22.0113 18.6749C21.5334 18.3917 21.0342 18.1426 20.5459 17.8752C20.4757 17.8365 20.4278 17.8513 20.3706 17.9037C19.7481 18.4797 19.1156 19.0477 18.5003 19.6312C17.9957 20.1095 17.5167 20.6132 17.0143 21.0947C16.0071 22.0596 14.9917 23.0172 13.9793 23.9769C13.962 23.9935 13.9413 24.0056 13.9057 24.0323C14.1694 24.1195 14.4019 24.1923 14.6319 24.2739C14.6964 24.2965 14.7324 24.2858 14.776 24.2386C15.3097 23.6778 15.873 23.1452 16.4701 22.6452C16.5999 22.5367 16.7162 22.4132 16.857 22.2796C16.5895 22.1845 16.3407 22.0961 16.0799 22.0043C16.1602 21.932 16.2411 21.9507 16.3152 21.9721C16.5069 22.0267 16.6966 22.0858 16.8858 22.1483C16.938 22.1658 16.9735 22.1712 17.0158 22.1276C17.5104 21.621 18.006 21.1151 18.5017 20.6101C18.5197 20.5916 18.5408 20.5762 18.5608 20.5591C18.1683 21.1829 17.6989 21.7452 17.1465 22.2595L17.1502 22.2599ZM35.119 35.2895C35.1311 35.2937 35.1425 35.299 35.1547 35.3033C35.209 35.2293 35.2602 35.1525 35.3183 35.0806C35.5311 34.8192 35.741 34.5557 35.9608 34.3002C36.2579 33.9558 36.5817 33.6316 36.8611 33.2752C37.2204 32.8162 37.5501 32.3359 37.886 31.8614C37.9602 31.7562 38.0067 31.6377 37.9786 31.5005C37.9237 31.2293 37.8686 30.9564 37.8356 30.6822C37.7471 29.9521 37.6717 29.2202 37.5866 28.4888C37.5667 28.3193 37.5265 28.1516 37.4924 27.9629C37.3593 28.1478 37.2471 28.3147 37.1232 28.4747C36.2514 29.5997 35.2942 30.6592 34.3389 31.7193C34.2511 31.8163 34.1677 31.8992 34.2778 32.0229C34.284 32.0297 34.2838 32.0415 34.286 32.0514C34.408 32.458 34.5454 32.86 34.6492 33.2707C34.8122 33.9183 34.9537 34.5713 35.1038 35.2223C35.1085 35.2444 35.1141 35.2665 35.1196 35.2877L35.119 35.2895ZM31.9211 33.8516C32.5807 33.193 33.2537 32.5208 33.9479 31.8272C33.8025 31.7723 33.6901 31.7046 33.5706 31.691C33.4214 31.6746 33.2937 31.625 33.166 31.5627C33.1269 31.5434 33.0855 31.527 33.0561 31.514C32.4771 32.1695 31.9067 32.8153 31.3548 33.4401C31.5342 33.5698 31.7178 33.704 31.9211 33.8516Z" fill="#F7F8C5"/>
<path d="M9.74548 29.7928C9.8034 29.8129 9.86569 29.8257 9.91761 29.8542C10.4774 30.1636 11.0477 30.458 11.5919 30.7906C13.4536 31.9298 15.3868 32.9566 17.2942 34.0239C18.7095 34.8159 20.1803 35.516 21.6508 36.2137C22.1702 36.4601 22.6565 36.7666 23.155 37.0504C23.2331 37.0948 23.2942 37.1652 23.3635 37.2243L23.346 37.2528C23.3024 37.24 23.2552 37.2337 23.2152 37.2145C22.7752 37.0082 22.336 36.8018 21.8975 36.5935C21.0918 36.2106 20.2826 35.835 19.4843 35.4409C18.3084 34.861 17.1522 34.2488 16.02 33.5955C14.8134 32.8997 13.5907 32.2289 12.39 31.5239C11.5209 31.0128 10.6762 30.4646 9.82185 29.9312C9.78209 29.9069 9.75358 29.8668 9.71982 29.8342C9.72878 29.8212 9.73762 29.8073 9.74658 29.7943L9.74548 29.7928Z" fill="#F7F8C5"/>
<path d="M24.2733 36.3676C24.2454 36.3587 24.2183 36.3496 24.1904 36.3407C23.3599 36.0657 22.6143 35.6326 21.8532 35.2303C20.9933 34.7752 20.1516 34.2899 19.2939 33.8313C17.993 33.1354 16.7068 32.4174 15.4466 31.6596C15.0775 31.437 14.7186 31.1979 14.3524 30.9708C14.1357 30.836 13.9124 30.7113 13.6957 30.5765C13.6189 30.5285 13.5184 30.4828 13.563 30.3494C13.7225 30.4302 13.8789 30.5005 14.0266 30.5855C15.071 31.1881 16.1087 31.8008 17.1566 32.3962C17.8632 32.7974 18.5859 33.172 19.2976 33.5649C20.1304 34.0243 20.9574 34.493 21.7896 34.9543C22.4545 35.3231 23.1232 35.6871 23.7904 36.0539C23.948 36.1401 24.1033 36.2291 24.2595 36.3179C24.2702 36.3241 24.2762 36.336 24.2846 36.3458C24.2803 36.3532 24.2769 36.3612 24.2725 36.3685L24.2733 36.3676Z" fill="#F7F8C5"/>
<path d="M29.029 35.4063C28.7711 35.3631 28.5232 35.2349 28.2447 35.3244L28.2854 35.6296C28.2804 35.632 28.2755 35.6352 28.2704 35.6375C28.1713 35.5089 28.0655 35.3838 27.9731 35.2518C27.6629 34.8104 26.906 34.7062 26.4303 35.0676C26.1852 35.254 25.9657 35.4715 25.7354 35.6752C25.7178 35.6903 25.7012 35.706 25.6606 35.7156C25.6661 35.6836 25.6621 35.647 25.6782 35.6204C25.8756 35.2902 26.0951 34.979 26.4566 34.7839C26.9552 34.514 27.652 34.5949 28.0378 34.9756C28.0973 35.0343 28.1435 35.1067 28.2014 35.18C28.427 35.1017 28.6633 35.0761 28.8842 35.2028C28.9537 35.2425 29.0016 35.3146 29.0592 35.3727C29.0501 35.3841 29.04 35.3956 29.0308 35.4069L29.029 35.4063Z" fill="#F7F8C5"/>
<path d="M26.362 35.9448C26.265 35.8117 26.2612 35.7632 26.3539 35.6234C26.3761 35.5892 26.3971 35.5535 26.4183 35.5186C26.5847 35.2432 26.9183 35.1793 27.1869 35.3696C27.3838 35.5096 27.5449 35.6823 27.6901 35.8689C27.774 35.9767 27.7364 36.0686 27.5966 36.0831C27.4401 36.0989 27.2819 36.1014 27.1247 36.0988C26.9363 36.0952 26.7472 36.0807 26.559 36.0721C26.5455 36.0714 26.523 36.0693 26.5185 36.0758C26.4756 36.1415 26.4198 36.1371 26.3842 36.0844C26.3599 36.0489 26.3683 35.992 26.3621 35.9456L26.362 35.9448ZM26.4507 35.9017C26.8058 35.9117 27.1348 35.9202 27.4898 35.9302C27.3625 35.7041 27.1892 35.5601 26.9895 35.4525C26.8388 35.3713 26.6776 35.4384 26.59 35.5835C26.5615 35.6303 26.5263 35.6738 26.5053 35.7231C26.481 35.7812 26.4679 35.8437 26.4516 35.9016L26.4507 35.9017Z" fill="#F7F8C5"/>
<path d="M17.2196 36.8426C17.22 36.9194 17.1883 36.9557 17.118 36.9558C16.9826 36.9561 16.848 36.9555 16.7126 36.9558C16.53 36.9566 16.3707 36.9044 16.2227 36.8034C15.9944 36.6482 15.7898 36.4771 15.6762 36.2264C15.6648 36.2009 15.6619 36.1726 15.6555 36.1448C15.6835 36.141 15.7123 36.1363 15.7402 36.1318C15.8887 36.1094 15.989 36.2066 16.1052 36.2629C16.3786 36.396 16.6536 36.5273 16.928 36.6604C17.0089 36.6994 17.0898 36.7384 17.1679 36.7828C17.192 36.7965 17.206 36.8276 17.2197 36.8434L17.2196 36.8426ZM15.9373 36.3401C16.154 36.5357 16.3449 36.7711 16.6888 36.7775C16.4386 36.632 16.1874 36.4857 15.9373 36.3401Z" fill="#F7F8C5"/>
<path d="M11.205 28.4377C11.2933 28.5585 11.3878 28.6657 11.4557 28.7875C11.5235 28.9084 11.5689 29.0416 11.6132 29.1733C11.6232 29.2015 11.5863 29.2453 11.5716 29.2818C11.5414 29.2563 11.4905 29.2352 11.4847 29.2048C11.4241 28.9242 11.2554 28.7019 11.0717 28.4867C11.0547 28.4662 11.0592 28.4268 11.0596 28.3963C11.0594 28.3213 11.1082 28.2928 11.1773 28.303C11.319 28.3238 11.4663 28.3328 11.599 28.3792C11.8279 28.4584 11.9414 28.6416 11.9971 28.8587C12.0155 28.9297 12.0271 29.0033 12.0332 29.0759C12.0446 29.2078 11.9555 29.3479 11.8245 29.3949C11.7914 29.407 11.7449 29.3853 11.704 29.3798C11.7201 29.3464 11.726 29.2975 11.7532 29.2812C11.8779 29.2072 11.9115 29.1048 11.8742 28.979C11.845 28.8807 11.8222 28.7766 11.7713 28.6888C11.6529 28.4826 11.4397 28.4469 11.206 28.4384L11.205 28.4377Z" fill="#F7F8C5"/>
<path d="M25.8844 35.9311C25.7959 35.9293 25.7299 35.9356 25.6679 35.9245C25.4417 35.8854 25.2211 35.9081 25.0007 35.9654C24.7776 36.023 24.6528 36.1696 24.566 36.3602C24.5494 36.3961 24.5104 36.4241 24.4815 36.455C24.4672 36.4079 24.4299 36.3555 24.4415 36.3152C24.5102 36.0756 24.6491 35.8815 24.9128 35.8142C25.0946 35.768 25.2853 35.7417 25.4737 35.7309C25.6275 35.7222 25.7679 35.7795 25.885 35.9293L25.8844 35.9311Z" fill="#F7F8C5"/>
<path d="M13.1889 30.151C13.1738 30.185 13.1673 30.2433 13.1394 30.2546C13.1031 30.2696 13.0461 30.2561 13.0071 30.2377C12.9424 30.2066 12.8904 30.1511 12.8237 30.1254C12.7523 30.0978 12.6705 30.0918 12.5937 30.0776C12.5563 30.0708 12.5126 30.0774 12.4827 30.0603C12.4605 30.0473 12.4542 30.0067 12.4485 29.9771C12.4478 29.9721 12.4914 29.952 12.5129 29.9525C12.5675 29.9545 12.6237 29.9748 12.6454 29.8977C12.649 29.8845 12.6996 29.8693 12.7193 29.8768C12.8608 29.9289 13.0007 29.9828 13.1373 30.0447C13.1629 30.0565 13.1679 30.1073 13.1881 30.1519L13.1889 30.151Z" fill="#F7F8C5"/>
<path d="M25.1711 36.1985C25.2463 36.2012 25.3133 36.1964 25.3772 36.2073C25.409 36.2124 25.4569 36.244 25.4581 36.2666C25.4597 36.2985 25.4339 36.3458 25.405 36.3623C25.3203 36.4091 25.2255 36.4394 25.1399 36.4855C25.0941 36.5101 25.0521 36.5487 25.0219 36.5898C24.9616 36.6722 24.9232 36.6781 24.8625 36.6035C24.776 36.496 24.818 36.3301 24.9496 36.2745C25.0229 36.2436 25.1003 36.2223 25.1719 36.1984L25.1711 36.1985ZM25.1253 36.3296C24.938 36.3216 24.8649 36.3812 24.89 36.496C24.9641 36.4439 25.0455 36.3858 25.1253 36.3296Z" fill="#F7F8C5"/>
<path d="M11.5662 27.7886C11.4838 27.759 11.417 27.7392 11.3543 27.7096C11.3419 27.7037 11.3368 27.6588 11.3467 27.6397C11.4013 27.5346 11.4587 27.4307 11.5219 27.3302C11.5448 27.2943 11.5826 27.2639 11.6194 27.2396C11.6892 27.1948 11.7655 27.226 11.7597 27.3027C11.75 27.4239 11.7307 27.5463 11.6956 27.6633C11.6813 27.7099 11.6144 27.7425 11.5652 27.7879L11.5662 27.7886ZM11.487 27.6362C11.5913 27.6299 11.6292 27.5666 11.6112 27.4382C11.5694 27.5054 11.5318 27.5644 11.487 27.6362Z" fill="#F7F8C5"/>
<path d="M28.7797 35.7796C28.7942 35.9017 28.7382 35.9489 28.6452 35.9199C28.5624 35.8938 28.4803 35.866 28.4004 35.8344C28.375 35.8243 28.3363 35.7949 28.3387 35.7793C28.3439 35.7516 28.3709 35.7134 28.3973 35.7048C28.5058 35.6693 28.6186 35.6601 28.7224 35.7104C28.7538 35.7256 28.7711 35.7681 28.7797 35.7796Z" fill="#F7F8C5"/>
<path d="M22.6381 19.9033C22.7545 19.9604 22.8775 20.0081 22.9863 20.0755C23.6268 20.4753 24.2636 20.8808 24.9033 21.2816C25.9203 21.9191 26.9327 22.5622 27.9594 23.1858C28.5314 23.5332 29.1316 23.838 29.7097 24.1778C29.9948 24.3449 30.2563 24.548 30.5311 24.7317C30.6602 24.8174 30.7952 24.8948 30.9272 24.9759C30.9524 24.9911 30.9761 25.0082 31.0005 25.0244L30.9903 25.0485C30.9682 25.043 30.9433 25.043 30.924 25.0321C30.5773 24.8445 30.2314 24.6552 29.8853 24.4658C29.3875 24.1938 28.8823 23.9328 28.3942 23.6468C27.5659 23.1614 26.742 22.6687 25.9285 22.1611C25.1063 21.6479 24.2991 21.1141 23.4882 20.585C23.211 20.4042 22.9437 20.2103 22.6734 20.021C22.645 20.0011 22.6262 19.9673 22.6029 19.9401C22.6146 19.9275 22.6255 19.9151 22.6372 19.9026L22.6381 19.9033Z" fill="#F7F8C5"/>
<path d="M33.9602 27.0256C34.1497 26.9168 34.3333 26.8104 34.5161 26.705L34.5356 26.7311C34.4561 26.8092 34.3785 26.8888 34.2968 26.9646C34.1424 27.1093 33.9906 27.2537 33.8919 27.4424C33.7521 27.71 33.7555 27.9755 33.8649 28.2479C33.9613 28.4899 34.0816 28.7169 34.2763 28.9011C34.3304 28.9522 34.3938 28.9935 34.4573 29.0424C34.599 28.9619 34.7407 28.8755 34.9439 28.9429C34.8428 29.0129 34.7607 29.0788 34.6703 29.1296C34.4854 29.2328 34.3938 29.3742 34.4211 29.579C34.4335 29.6719 34.4406 29.7646 34.4468 29.8583C34.4477 29.8785 34.4345 29.8996 34.4274 29.92C34.4039 29.9105 34.3722 29.9071 34.3583 29.8896C34.3372 29.8645 34.3212 29.832 34.3143 29.8C34.2902 29.6859 34.2479 29.5692 34.2559 29.4559C34.2647 29.3348 34.3237 29.2164 34.3619 29.0948C34.2416 29.1016 34.1598 29.0095 34.0764 28.9185C33.8195 28.6354 33.6748 28.2994 33.6183 27.9355C33.5754 27.661 33.697 27.4102 33.8634 27.182C33.877 27.1633 33.8992 27.1494 33.9159 27.1345C33.8101 27.0026 33.7275 26.8777 33.7319 26.7167C33.7329 26.6913 33.7034 26.6572 33.6782 26.642C33.5505 26.5662 33.4139 26.5034 33.2915 26.421C32.9891 26.2182 32.6919 26.0072 32.3933 25.7989C32.3716 25.7832 32.3502 25.7633 32.3374 25.7405C32.3293 25.7264 32.3299 25.6976 32.3399 25.6862C32.35 25.6747 32.3793 25.6674 32.3951 25.6721C32.4246 25.6799 32.4518 25.6966 32.4781 25.7133C32.8054 25.9229 33.1306 26.1369 33.4618 26.3417C33.5764 26.4125 33.7109 26.4528 33.8261 26.5219C33.8669 26.5468 33.9118 26.6294 33.8966 26.6627C33.8423 26.783 33.8932 26.8775 33.9413 26.9775C33.9512 26.9981 33.9578 27.0209 33.9602 27.0256Z" fill="#F7F8C5"/>
<path d="M21.702 19.2526C21.7304 19.2716 21.7574 19.2874 21.7814 19.307C21.8064 19.3273 21.843 19.3477 21.8473 19.3733C21.878 19.5499 22.0014 19.6068 22.1704 19.6113C22.2491 19.6135 22.3283 19.613 22.4076 19.6134C22.3947 19.7299 22.3231 19.7876 22.1913 19.7815C22.0022 19.773 21.8296 19.7285 21.7365 19.5578C21.4387 19.9241 21.0197 19.975 20.5879 19.9912C20.2369 20.0043 19.9254 19.8998 19.637 19.702C19.5785 19.9782 19.406 20.1405 19.1219 20.1885C19.0417 20.2017 18.9543 20.2075 18.8831 20.1149C18.9524 20.093 19.0094 20.0668 19.0689 20.058C19.3297 20.0232 19.4741 19.8697 19.5462 19.6424C19.5544 19.6168 19.5422 19.5855 19.5419 19.5568C19.541 19.5164 19.5427 19.4757 19.5429 19.4174C19.575 19.4376 19.5915 19.4413 19.5955 19.4509C19.6415 19.5621 19.7385 19.6209 19.8459 19.6648C20.3509 19.8709 20.8577 19.8632 21.3602 19.6426C21.5361 19.5651 21.6306 19.4124 21.7012 19.2536L21.702 19.2526Z" fill="#F7F8C5"/>
<path d="M35.0708 28.6467C35.0112 28.6546 34.9506 28.6746 34.8936 28.6678C34.7758 28.6531 34.6565 28.6336 34.5441 28.5988C34.3879 28.5504 34.2793 28.4442 34.2446 28.291C34.1851 28.0322 34.2298 27.779 34.3289 27.5336C34.3724 27.4257 34.5121 27.3505 34.6248 27.3675C34.6521 27.3715 34.6832 27.4045 34.6947 27.4308C34.7619 27.594 34.825 27.7595 34.8879 27.9241C34.937 28.0518 34.9836 28.1806 35.0344 28.3072C35.0623 28.3761 35.093 28.4395 35.0454 28.5167C35.0314 28.5389 35.0559 28.582 35.0629 28.6148C35.0653 28.6255 35.0685 28.636 35.0707 28.6459L35.0708 28.6467ZM34.876 28.4423C34.8184 28.2643 34.7597 28.0847 34.7036 27.9048C34.6744 27.8125 34.652 27.7184 34.6201 27.6264C34.6126 27.603 34.5828 27.5867 34.5631 27.5665C34.5436 27.5868 34.5088 27.6067 34.5072 27.628C34.4895 27.8228 34.4692 28.0179 34.4668 28.2133C34.466 28.3011 34.5361 28.3652 34.6276 28.3902C34.7108 28.4128 34.7963 28.4259 34.8751 28.4424L34.876 28.4423Z" fill="#F7F8C5"/>
<path d="M20.977 19.0819C20.9107 19.2992 20.7419 19.4095 20.5491 19.4201C20.2794 19.4358 20.0783 19.3174 19.8932 19.159C19.87 19.1384 19.8639 19.0996 19.8501 19.0693C19.8853 19.0731 19.9255 19.0669 19.9542 19.0816C20.0278 19.1191 20.1002 19.1609 20.1663 19.2086C20.2993 19.304 20.454 19.3087 20.608 19.294C20.667 19.2887 20.7222 19.2349 20.7775 19.2022C20.837 19.1673 20.8955 19.1316 20.977 19.0819Z" fill="#F7F8C5"/>
<path d="M21.0176 18.9741C20.9826 18.9923 20.9487 19.0187 20.9115 19.0271C20.6589 19.0836 20.4053 19.1123 20.1519 19.0364C20.1324 19.0306 20.1086 19.0253 20.0953 19.0127C20.0801 18.9987 20.0631 18.9714 20.0682 18.9564C20.0732 18.9406 20.1029 18.9298 20.1241 18.9211C20.136 18.917 20.1516 18.9208 20.1654 18.924C20.3814 18.9737 20.5976 18.9508 20.8142 18.9185C20.878 18.9091 20.9458 18.9229 21.0112 18.926C21.0133 18.9417 21.0155 18.9583 21.0176 18.9741Z" fill="#F7F8C5"/>
<path d="M19.2615 19.5928C19.1794 19.6451 19.1013 19.6943 18.9933 19.626C19.0712 19.576 19.1401 19.5313 19.2099 19.4866C19.2132 19.4844 19.2156 19.4824 19.219 19.4811C19.2698 19.4617 19.3207 19.4422 19.3723 19.4218C19.3856 19.4817 19.4163 19.5443 19.4078 19.6011C19.3854 19.7468 19.3155 19.8709 19.1544 19.9185C19.1192 19.9291 19.0736 19.9074 19.0334 19.9001C19.0534 19.8695 19.0655 19.8266 19.0946 19.8109C19.1816 19.7621 19.2625 19.7142 19.2622 19.5918L19.2615 19.5928Z" fill="#F7F8C5"/>
<path d="M34.7145 29.4582C34.754 29.3871 34.7896 29.3132 34.8367 29.2461C34.86 29.2135 34.9037 29.1941 34.9386 29.1684C34.941 29.206 34.9583 29.2493 34.9436 29.2791C34.8941 29.382 34.838 29.4823 34.776 29.5792C34.734 29.6447 34.6644 29.6844 34.5877 29.6431C34.5187 29.6068 34.5419 29.5404 34.5653 29.4824C34.5882 29.427 34.6063 29.3689 34.6379 29.3182C34.6503 29.298 34.6946 29.2963 34.7253 29.2855C34.7264 29.314 34.733 29.3435 34.7269 29.3713C34.7216 29.3982 34.7034 29.4217 34.6907 29.4471C34.6984 29.4511 34.7069 29.455 34.7145 29.4582Z" fill="#F7F8C5"/>
<path d="M22.076 19.2736C21.8437 19.2953 21.6888 19.2164 21.6431 19.0672C21.6367 19.0461 21.6492 19.0191 21.6531 18.9949C21.6779 19.0009 21.718 19.0006 21.7242 19.0141C21.7891 19.1532 21.9217 19.1524 22.0517 19.1646C22.0797 19.1676 22.1039 19.1956 22.1302 19.2123C22.1077 19.2373 22.0852 19.2622 22.0759 19.2728L22.076 19.2736Z" fill="#F7F8C5"/>
<path d="M34.2264 26.5508C34.22 26.6302 34.2267 26.6867 34.2081 26.7347C34.1956 26.7676 34.1485 26.8085 34.1148 26.8096C34.0847 26.8111 34.0374 26.7702 34.0242 26.7382C34.0053 26.69 33.9915 26.6269 34.0106 26.583C34.0311 26.5363 34.0881 26.4958 34.1386 26.4739C34.1537 26.4668 34.202 26.5287 34.2255 26.5509L34.2264 26.5508Z" fill="#F7F8C5"/>
<path d="M18.925 20.2322C18.876 20.3054 18.8424 20.3808 18.7853 20.434C18.7432 20.4725 18.7008 20.5753 18.621 20.5116C18.5484 20.4546 18.6504 20.4115 18.6724 20.3621C18.6963 20.3075 18.7323 20.2571 18.7704 20.2089C18.7864 20.1882 18.821 20.1676 18.8445 20.1695C18.8679 20.1715 18.8888 20.2016 18.9259 20.2321L18.925 20.2322Z" fill="#F7F8C5"/>
<path d="M21.7179 18.9562C21.8379 18.9208 21.97 18.9758 22.0273 19.0778C21.9069 19.0703 21.8256 19.0153 21.7179 18.9562Z" fill="#F7F8C5"/>
<path d="M13.9903 8.35004L12.1197 4.66424L9.98491 5.74379L11.8555 9.42958L11.3173 9.70245L9.17646 5.49737L12.3862 3.86268L14.5271 8.06776L13.989 8.34063L13.9903 8.35004Z" fill="#F7F8C5"/>
<path d="M16.8442 7.35682C16.3663 7.50676 15.9303 7.46917 15.5176 7.24656C15.1062 7.03335 14.8302 6.68716 14.6828 6.22808C14.5353 5.76899 14.5729 5.3331 14.7861 4.92165C14.9993 4.5102 15.3443 4.22481 15.8234 4.08428C16.2919 3.9356 16.7373 3.97193 17.1393 4.1864C17.552 4.40901 17.8267 4.74579 17.9741 5.20488C18.1122 5.66522 18.0839 6.09986 17.8707 6.51131C17.6575 6.92276 17.3114 7.19874 16.8429 7.34742L16.8442 7.35682ZM15.808 6.76736C16.0777 6.92288 16.3674 6.94167 16.6892 6.8413C17.0015 6.74218 17.2354 6.55777 17.3708 6.28117C17.5063 6.00457 17.5238 5.70541 17.4235 5.38367C17.3231 5.06194 17.1387 4.82801 16.869 4.67249C16.5993 4.51697 16.3096 4.49817 15.9972 4.59729C15.6755 4.69767 15.4509 4.88083 15.3155 5.15743C15.18 5.43403 15.1625 5.73319 15.2629 6.05493C15.3633 6.37666 15.5477 6.61059 15.8174 6.76611L15.808 6.76736Z" fill="#F7F8C5"/>
<path d="M19.0442 6.68947L18.5485 3.40433L19.1036 3.33027L19.3018 4.67306L21.0761 4.40761L20.8672 3.05668L21.4222 2.98263L21.9167 6.25836L21.3522 6.33366L21.1357 4.92629L19.3615 5.19173L19.5792 6.60852L19.0242 6.68256L19.0442 6.68947Z" fill="#F7F8C5"/>
<path d="M25.3156 6.17954L24.7411 6.17958L24.7359 4.84933C24.4086 4.97918 24.0925 5.05008 23.8052 5.0501C23.4132 5.05452 23.1015 4.94291 22.8619 4.72593C22.6317 4.50769 22.5138 4.19787 22.5081 3.79647L22.4993 2.86887L23.0737 2.86883L23.0807 3.7105C23.0807 3.99775 23.1554 4.19844 23.3059 4.32198C23.4565 4.44553 23.6465 4.50634 23.8855 4.50319C24.1916 4.50066 24.4687 4.42537 24.729 4.2949L24.7182 2.8505L25.2927 2.85046L25.3143 6.17013L25.3156 6.17954Z" fill="#F7F8C5"/>
<path d="M26.15 6.26832L26.6226 2.92102L27.1789 3L26.8686 5.19578L29.5616 3.27576L29.0984 6.62181L28.542 6.54283L28.8467 4.37652L26.1581 6.25766L26.15 6.26832Z" fill="#F7F8C5"/>
<path d="M29.9211 6.82754L30.8459 3.64013L31.3934 3.79689L30.9332 5.37114L32.7977 4.20318L33.4657 4.40132L31.5648 5.58371L32.7002 7.6345L31.9827 7.42382L30.9056 5.45143L30.4592 6.98555L29.9117 6.8288L29.9211 6.82754Z" fill="#F7F8C5"/>
<path d="M32.9503 7.79325L34.3399 4.71618L34.8586 4.94381L33.9513 6.9703L37.0808 5.88252L35.6912 8.95958L35.1725 8.73196L36.0649 6.73619L32.9503 7.79325Z" fill="#F7F8C5"/>
</svg>
