<svg width="54" height="47" viewBox="0 0 54 47" fill="none" xmlns="http://www.w3.org/2000/svg">
<path d="M43.4225 27.0865C43.4225 37.54 35.0882 46.0001 24.8245 46.0001C14.5609 46.0001 6.22656 37.54 6.22656 27.0865C6.22656 16.633 14.5609 8.17285 24.8245 8.17285C35.0882 8.17285 43.4225 16.633 43.4225 27.0865Z" stroke="#F7F8C5"/>
<path d="M17.7391 20.7148C17.201 21.0429 16.6714 21.3793 16.125 21.6948C15.465 22.0775 14.7378 22.2205 13.9854 22.2458C13.8593 22.25 13.7331 22.2332 13.607 22.2163C13.4683 22.1953 13.4179 22.0775 13.4683 21.9261C13.9013 20.7316 14.33 19.5371 14.7672 18.3426C14.9227 17.9178 15.0909 17.493 15.259 17.0724C15.301 16.9631 15.301 16.8789 15.2338 16.7696C15.0825 16.5214 14.948 16.2649 14.8134 16.0041C14.7882 15.9578 14.7798 15.8569 14.8051 15.8443C14.8513 15.8148 14.9354 15.8022 14.9816 15.8274C15.2548 15.9705 15.5196 16.1261 15.7887 16.2775C15.8097 16.2901 15.8307 16.2985 15.8265 16.2607C16.6252 15.7812 17.4196 15.2933 18.2267 14.8306C19.0002 14.3806 19.7904 13.9558 20.5722 13.5184C20.7866 13.4006 20.9337 13.4763 20.9674 13.7203C21.0767 14.5236 20.9842 15.3017 20.732 16.0672C20.5975 16.4668 20.4588 16.8663 20.32 17.2827C20.6395 17.1986 20.9506 17.1187 21.2658 17.0388C22.5731 16.7107 23.9014 16.6644 25.2381 16.7317C25.8855 16.7654 26.5286 16.8327 27.176 16.8831C27.26 16.8916 27.3483 16.8621 27.424 16.8831C27.9368 17.0262 28.4454 17.1776 28.9582 17.329C28.9793 17.3374 29.0045 17.3416 29.0045 17.3458C29.2315 17.0262 29.4248 16.6939 29.677 16.4121C30.4379 15.5625 31.3921 15.0115 32.5396 14.982C33.7629 14.9526 35.0954 15.4826 35.7721 16.9252C36.4279 18.3258 36.1462 19.617 35.2551 20.8073C34.8263 21.3793 34.3135 21.8672 33.6409 22.1532C33.0062 22.4224 32.3505 22.5234 31.6695 22.4392C31.5308 22.4224 31.4551 22.4519 31.3753 22.5696C30.8708 23.2931 30.2067 23.823 29.3996 24.1763C29.3029 24.2184 29.2693 24.2689 29.2567 24.374C29.1852 25.0175 29.1264 25.6652 29.0087 26.3003C28.8994 26.8766 28.643 27.4107 28.3151 27.8902C28.0965 28.2099 27.7939 28.479 27.5122 28.7482C27.3483 28.9038 27.1465 29.0174 26.9742 29.1688C26.8817 29.2487 26.8019 29.3539 26.7388 29.4632C26.4025 30.0605 26.2554 30.7166 26.1503 31.3812C25.9822 32.4831 25.9527 33.5809 26.2764 34.6618C26.3395 34.8721 26.4277 35.0698 26.495 35.2801C26.5412 35.4231 26.6169 35.4694 26.7724 35.461C27.6215 35.4021 28.4538 35.4946 29.2651 35.7428C29.7443 35.89 30.1899 36.1003 30.5682 36.4452C31.1693 36.9961 31.2407 37.7532 30.7489 38.4051C30.4463 38.8089 30.0511 39.1118 29.6308 39.3809C28.4874 40.1002 27.239 40.4408 25.8939 40.4745C25.0532 40.4955 24.2083 40.525 23.3802 40.3315C22.3503 40.0917 21.4045 39.6754 20.6017 38.973C20.215 38.6365 19.9585 38.2327 19.9754 37.6985C19.988 37.341 20.1435 37.0466 20.3831 36.7901C20.7488 36.3989 21.207 36.1592 21.6946 35.9657C22.1696 35.7764 22.6572 35.6544 23.17 35.6376C23.4643 35.625 23.7585 35.6208 24.0528 35.5956C24.1158 35.5913 24.1957 35.5367 24.2293 35.482C24.4815 35.0614 24.5824 34.5945 24.6412 34.115C24.7926 32.8785 24.6286 31.6672 24.2629 30.4853C24.162 30.1656 23.9477 29.8754 23.7585 29.5894C23.5357 29.2529 23.2037 29.0216 22.8716 28.7945C22.7329 28.702 22.5983 28.5926 22.4764 28.4748C21.5937 27.6126 21.001 26.5779 20.732 25.3708C20.6689 25.089 20.6605 24.7946 20.6143 24.5086C20.6059 24.4455 20.5512 24.3656 20.4924 24.3404C19.5634 23.8945 18.8698 23.2047 18.3906 22.3005C18.13 21.8084 17.8862 21.3078 17.7601 20.7569C17.7517 20.7232 17.7349 20.6938 17.7391 20.7064V20.7148ZM26.743 35.7764C26.8186 35.89 26.8691 35.9699 26.9279 36.0456C27.2138 36.4031 27.5501 36.7059 27.9326 36.9583C28.0293 37.0214 28.0923 37.1097 28.0082 37.2191C27.9326 37.32 27.8359 37.2779 27.7476 37.2191C27.1213 36.7985 26.6001 36.2895 26.2806 35.5956C26.0494 35.0992 25.8729 34.5819 25.7972 34.0393C25.5828 32.4873 25.7342 30.9816 26.3395 29.5263C26.3479 29.5053 26.3521 29.4843 26.3647 29.4296C25.9864 29.6147 25.6249 29.5726 25.2592 29.4969C24.8136 29.4001 24.3638 29.316 23.8678 29.2193C23.9267 29.295 23.9519 29.3371 23.9855 29.3707C24.2839 29.7072 24.4983 30.0941 24.616 30.5273C24.9103 31.6041 25.0784 32.6976 24.9943 33.8164C24.9439 34.4852 24.822 35.1371 24.4647 35.7259C24.1032 36.319 23.6114 36.7943 23.1154 37.2653C23.0943 37.2864 23.0691 37.3158 23.0439 37.3158C22.9809 37.3158 22.8926 37.3326 22.8674 37.299C22.8337 37.2527 22.8295 37.1686 22.8464 37.1055C22.8548 37.0592 22.9136 37.0256 22.9514 36.9835C23.2373 36.6849 23.5231 36.3905 23.8089 36.0919C23.851 36.0456 23.8804 35.9909 23.9308 35.9236C23.851 35.9152 23.8047 35.8984 23.7585 35.9026C23.3676 35.9404 22.9725 35.9699 22.5815 36.0246C21.8753 36.1255 21.2322 36.3863 20.711 36.8742C20.5302 37.0424 20.3831 37.2695 20.2948 37.5009C20.1519 37.8794 20.3243 38.2075 20.5596 38.5061C20.8707 38.8973 21.291 39.137 21.7324 39.3431C22.5395 39.7216 23.397 39.9109 24.2882 39.9698C24.5362 39.9866 24.78 40.0287 25.028 40.0371C25.8224 40.0749 26.6001 39.9572 27.3735 39.8099C28.3319 39.6291 29.2315 39.301 30.0175 38.708C30.2067 38.565 30.3832 38.3841 30.5261 38.1906C30.9423 37.627 30.8792 37.0887 30.3496 36.6302C29.8578 36.2012 29.2693 35.9657 28.6262 35.8816C28.2731 35.8353 27.9158 35.7974 27.5585 35.7764C27.3021 35.7596 27.0414 35.7764 26.743 35.7764ZM31.4467 20.2648C30.7489 20.4456 30.0974 20.6054 29.45 20.7779C27.9704 21.169 26.4698 21.3457 24.9397 21.3373C23.6702 21.3331 22.4092 21.2405 21.165 20.9924C20.1939 20.7989 19.1935 20.6685 18.336 20.0923C18.2519 20.168 18.1763 20.2521 18.0922 20.3152C17.9997 20.3867 17.9829 20.454 18.0333 20.5592C18.1721 20.8536 18.2897 21.1606 18.4453 21.4508C18.9875 22.4729 19.7694 23.2426 20.8203 23.7431C21.9048 24.2562 23.0691 24.4287 24.2419 24.4876C25.0616 24.5296 25.8897 24.4665 26.7052 24.3866C27.9242 24.2646 29.0759 23.8945 30.1058 23.2131C30.4463 22.986 30.7573 22.7042 31.039 22.4056C31.329 22.0944 31.4719 21.7032 31.4509 21.2616C31.4341 20.9293 31.4509 20.597 31.4509 20.269L31.4467 20.2648ZM18.4537 19.9703C18.8152 20.1175 19.1431 20.2774 19.4878 20.3825C20.9464 20.8199 22.447 21.0008 23.9603 21.0597C25.2718 21.1102 26.5917 21.1438 27.8906 20.862C28.3151 20.7695 28.7397 20.6769 29.1222 20.5928C29.0003 20.1638 28.8868 19.7558 28.7649 19.3563C28.7481 19.3058 28.6934 19.2469 28.643 19.2343C28.3908 19.1754 28.1343 19.1081 27.8779 19.0871C26.9658 19.0114 26.0578 18.9273 25.1415 18.8894C23.8678 18.8389 22.5983 18.9273 21.3373 19.1081C21.2028 19.1291 21.0683 19.1333 20.9296 19.146C20.9296 19.1123 20.9253 19.0787 20.9211 19.0492C22.199 18.738 23.5021 18.6455 24.8136 18.6412C26.1335 18.637 27.4492 18.6791 28.7313 18.9693C28.7901 18.5571 28.849 18.1576 28.9078 17.7496C28.8532 17.7328 28.7901 17.7117 28.7271 17.6991C27.9116 17.5603 27.0961 17.4173 26.2764 17.2911C24.9985 17.0934 23.7123 17.0724 22.4386 17.2743C21.661 17.3963 20.8959 17.6234 20.1309 17.8169C20.03 17.8421 19.9291 17.9431 19.8661 18.0356C19.6054 18.4183 19.3658 18.8221 19.0968 19.2006C18.9161 19.4572 18.6933 19.6843 18.4537 19.9703ZM21.0388 24.5675C21.0893 24.8409 21.1187 25.0806 21.1818 25.3119C21.5096 26.5569 22.1612 27.6126 23.1196 28.4664C23.4348 28.7482 23.8047 28.9585 24.2251 29.0637C24.4689 29.1268 24.7169 29.1814 24.9691 29.2193C25.1415 29.2445 25.3222 29.2698 25.4903 29.2445C26.4193 29.0973 27.1549 28.6052 27.7476 27.8986C28.2689 27.2803 28.5547 26.5359 28.7481 25.762C28.8574 25.3161 28.9036 24.8493 28.9835 24.353C28.7649 24.4245 28.6093 24.4665 28.458 24.5296C28.4076 24.5507 28.3529 24.6179 28.3403 24.6726C28.2899 24.9712 28.2731 25.2741 28.2058 25.5685C27.8779 27.049 27.0835 28.1215 25.5534 28.5211C24.8388 28.7062 24.1705 28.58 23.5862 28.1173C22.7791 27.478 22.4008 26.5948 22.2158 25.6148C22.2074 25.5601 22.22 25.5054 22.2242 25.4297C22.2621 25.4591 22.2789 25.4633 22.2873 25.476C22.3503 25.6442 22.4092 25.8167 22.4722 25.9849C22.8884 27.1457 23.5399 28.0711 24.8556 28.294C25.3096 28.3697 25.7594 28.3318 26.1587 28.0584C27.0709 27.436 27.5627 26.5443 27.7981 25.4886C27.8569 25.2278 27.8737 24.9586 27.9116 24.6768C26.7472 24.9292 25.6249 25.1311 24.4689 25.0848C23.3171 25.0428 22.1696 25.0049 21.0515 24.5633L21.0388 24.5675ZM31.6737 21.9766C33.3509 22.149 34.5111 21.3541 35.377 20.046C35.7847 19.4278 35.8646 18.7127 35.7679 17.9809C35.583 16.5509 34.4144 15.4741 32.981 15.3606C32.1655 15.2933 31.4551 15.5499 30.7784 15.9578C30.1436 16.3364 29.6476 16.8453 29.3576 17.5393C28.9624 18.4772 28.9372 19.4151 29.3324 20.3615C29.387 20.4919 29.45 20.5213 29.5804 20.4793C29.7527 20.4246 29.9292 20.3867 30.1058 20.3447C30.1058 20.3321 30.1058 20.3236 30.1058 20.3194C30.0848 20.2816 30.068 20.2437 30.047 20.2101C29.7065 19.6212 29.6224 18.9988 29.7779 18.3384C30.1646 16.6897 31.7998 15.6003 33.3635 15.9116C34.5909 16.1555 35.4779 17.2449 35.4022 18.4604C35.3097 19.9577 34.2378 21.1985 32.7624 21.4803C32.4135 21.5476 32.0478 21.5266 31.6821 21.5476V21.9808L31.6737 21.9766ZM19.803 17.2491C18.4621 17.1397 17.1254 17.0304 15.8223 16.9252C16.0072 17.5309 16.2174 18.1407 16.3772 18.7632C16.5369 19.3899 16.6504 20.0292 16.7807 20.6685C17.8652 20.0166 19.3575 18.3258 19.803 17.2491ZM16.0283 16.7528C16.1838 16.7528 16.3519 16.7444 16.5201 16.7528C17.6256 16.8243 18.7311 16.8958 19.8324 16.9715C19.9291 16.9799 19.9754 16.9504 20.009 16.8663C20.0973 16.6392 20.1939 16.4205 20.278 16.1934C20.5092 15.5667 20.6479 14.919 20.69 14.2502C20.6984 14.1366 20.69 14.0231 20.69 13.9053C20.5849 13.9306 20.4672 13.9348 20.3705 13.981C18.9791 14.6372 17.6466 15.3984 16.3519 16.2312C16.1544 16.3574 15.9862 16.4668 16.0283 16.7528ZM15.6626 17.0009C15.6415 16.9925 15.6205 16.9883 15.5953 16.9799C15.5575 17.0346 15.507 17.0892 15.486 17.1481C15.3641 17.5519 15.2632 17.9641 15.1287 18.3637C14.7882 19.3689 14.4351 20.3657 14.0904 21.3667C14.0442 21.5013 13.9475 21.6738 14.0904 21.7663C14.1871 21.8294 14.3679 21.8168 14.494 21.7789C15.1371 21.5981 15.7424 21.3163 16.3141 20.9714C16.3603 20.9461 16.3982 20.8536 16.3898 20.8031C16.2594 20.0166 16.1291 19.2259 15.982 18.4394C15.8895 17.9557 15.7676 17.4762 15.6583 16.9967L15.6626 17.0009ZM34.6035 19.9535C34.0193 19.5371 33.4392 19.1249 32.8675 18.717C32.7834 18.7843 32.7162 18.8389 32.6615 18.881C32.8213 19.6297 32.981 20.3657 33.1407 21.106C33.7713 20.8704 34.2504 20.5003 34.6035 19.9493V19.9535ZM29.9167 19.0955C29.9461 19.4951 30.0848 19.8526 30.3244 20.1638C30.358 20.2101 30.4547 20.2437 30.5135 20.2311C30.8372 20.1596 31.1567 20.0755 31.4761 19.9914C31.5098 19.983 31.5518 19.9535 31.5686 19.9199C31.7704 19.5624 31.9722 19.2048 32.1697 18.8473C32.1907 18.8095 32.1865 18.7422 32.1613 18.7085C32.1403 18.6791 32.0772 18.6791 32.031 18.6749C31.9974 18.6749 31.9595 18.6833 31.9259 18.6875C31.266 18.8221 30.606 18.9567 29.9167 19.0955ZM29.9167 18.9188C30.6481 18.7758 31.3584 18.637 32.0814 18.494C32.1067 18.4225 32.1361 18.3258 32.1697 18.2207C31.6485 17.8716 31.1273 17.5267 30.5934 17.1692C30.1647 17.6781 29.9335 18.2543 29.9167 18.9188ZM33.002 21.1648C32.8255 20.412 32.6531 19.6885 32.4808 18.9651C32.4724 18.923 32.4177 18.8726 32.3757 18.8642C32.3505 18.86 32.2958 18.9146 32.2748 18.9567C32.0772 19.331 31.8797 19.7012 31.6947 20.0797C31.6443 20.1764 31.6022 20.29 31.6022 20.3993C31.6022 20.6349 31.6275 20.8704 31.6359 21.106C31.6359 21.2237 31.6863 21.27 31.7998 21.2658C32.01 21.2574 32.2244 21.27 32.4345 21.2532C32.6237 21.2405 32.8129 21.1985 33.0062 21.169L33.002 21.1648ZM35.0239 17.9935C34.9903 17.9893 34.9777 17.9809 34.9692 17.9851C34.3177 18.1407 33.6662 18.2922 33.0146 18.452C32.981 18.4604 32.9264 18.5025 32.9306 18.5151C32.9432 18.5529 32.9684 18.5992 33.002 18.6202C33.2836 18.8053 33.5737 18.9819 33.8553 19.1712C34.1412 19.3647 34.4186 19.5666 34.7128 19.7727C35.0155 19.2091 35.1332 18.6244 35.0239 17.9935ZM34.965 17.7159C34.8137 17.1692 34.469 16.7444 33.9814 16.4331C33.8427 16.635 33.7124 16.8327 33.5779 17.0219C33.3425 17.3584 33.1071 17.6949 32.8759 18.0356C32.8507 18.0776 32.8465 18.166 32.8759 18.2038C32.9011 18.2417 32.9852 18.2669 33.0314 18.2543C33.6704 18.0819 34.3051 17.901 34.9692 17.7159H34.965ZM32.2286 16.1681C31.6275 16.2943 31.1356 16.5845 30.7111 17.0304C31.2533 17.4047 31.7788 17.7664 32.3421 18.1576C32.3673 18.0819 32.4261 18.0019 32.4177 17.9262C32.3589 17.3458 32.2916 16.7612 32.2244 16.1681H32.2286ZM32.4514 16.1303C32.4598 16.3027 32.4682 16.4583 32.4808 16.614C32.5186 17.0514 32.5606 17.493 32.6027 17.9304C32.6069 17.9809 32.6363 18.0272 32.6531 18.0776C32.6867 18.044 32.733 18.0188 32.7582 17.9767C33.0398 17.5435 33.3215 17.1103 33.6031 16.6728C33.6746 16.5635 33.7418 16.4541 33.8217 16.3322C33.3845 16.1135 32.9432 16.0588 32.4556 16.1303H32.4514ZM32.7498 18.4309C32.7456 18.3258 32.6825 18.2669 32.5564 18.2669C32.4345 18.2669 32.1991 18.4225 32.2412 18.4982C32.2874 18.5866 32.3967 18.6749 32.4976 18.7043C32.6363 18.7464 32.7456 18.616 32.754 18.4309H32.7498ZM15.1834 16.1513L15.1539 16.1807C15.2632 16.3826 15.3725 16.5887 15.4986 16.8243C15.6163 16.7233 15.713 16.6434 15.8307 16.5425C15.5911 16.3995 15.3851 16.2733 15.1792 16.1471L15.1834 16.1513Z" fill="#F7F8C5"/>
<path d="M0.819003 12.3226L1.94868 13.104L2.57003 12.2097C2.83362 11.8237 3.1537 11.5884 3.52084 11.5036C3.88798 11.4095 4.24566 11.4848 4.58455 11.7201C4.93287 11.9555 5.11175 12.2756 5.13058 12.6709C5.1494 13.0663 5.01762 13.4617 4.72579 13.8853L3.84088 15.1562L0 12.4921L1.60979 10.1763L2.08991 10.5058L0.828426 12.332L0.819003 12.3226ZM3.72792 14.3372L4.33042 13.4711C4.50928 13.2075 4.59402 12.9628 4.57519 12.7368C4.55636 12.5109 4.44336 12.332 4.24567 12.1908C4.04798 12.0496 3.83147 12.012 3.60553 12.0685C3.38901 12.1249 3.18189 12.285 3.00303 12.5486L2.40059 13.4146L3.72792 14.3372Z" fill="#F7F8C5"/>
<path d="M7.11842 11.0429C6.77952 11.4006 6.37475 11.5795 5.91347 11.5889C5.45219 11.5889 5.04741 11.4383 4.6991 11.1088C4.35079 10.7793 4.17192 10.3839 4.1625 9.92264C4.15309 9.46136 4.31308 9.05657 4.65198 8.69884C4.99088 8.35052 5.38629 8.16225 5.84757 8.15283C6.30885 8.15283 6.71362 8.30345 7.06193 8.63294C7.41025 8.96243 7.58912 9.35781 7.59853 9.81909C7.60795 10.2804 7.44795 10.6852 7.10905 11.0429H7.11842ZM5.93232 11.0335C6.23356 11.0335 6.50654 10.9111 6.73247 10.6758C6.95841 10.4404 7.06198 10.1674 7.05257 9.86616C7.03374 9.56491 6.91133 9.29191 6.66657 9.06598C6.42181 8.84005 6.14881 8.71767 5.84757 8.71767C5.54632 8.71767 5.27334 8.83063 5.04741 9.07539C4.82148 9.31074 4.7179 9.58374 4.72731 9.8944C4.74614 10.1956 4.86855 10.4686 5.11331 10.6946C5.35807 10.9299 5.63107 11.0429 5.93232 11.0429V11.0335Z" fill="#F7F8C5"/>
<path d="M8.73616 9.38572L6.69336 6.7969L7.13578 6.44859L8.14308 7.72887L8.27488 5.54485L8.82085 5.11182L8.67967 7.33349L10.9861 7.59708L10.4024 8.05836L8.19013 7.78536L9.16921 9.02799L8.72673 9.3763L8.73616 9.38572Z" fill="#F7F8C5"/>
<path d="M13.2467 6.28849L13.0773 6.00608C12.9643 6.3638 12.729 6.65564 12.3712 6.87215C11.957 7.11692 11.524 7.18281 11.091 7.06043C10.6579 6.93805 10.3096 6.67446 10.0648 6.26025C9.82007 5.84604 9.7542 5.413 9.85775 4.97055C9.97072 4.5281 10.2343 4.1892 10.6485 3.94444C11.0062 3.72792 11.3734 3.66202 11.7499 3.73733L11.5805 3.45492L12.07 3.16309L13.7457 5.99666L13.2561 6.27908L13.2467 6.28849ZM12.1077 6.40146C12.3054 6.28849 12.456 6.13787 12.5595 5.96842C12.6631 5.79897 12.7196 5.61069 12.729 5.42242L12.0888 4.33041C11.9194 4.24568 11.7311 4.19861 11.524 4.20803C11.3169 4.20803 11.1192 4.27392 10.9215 4.3963C10.6485 4.55634 10.4697 4.79169 10.4038 5.08352C10.3379 5.38476 10.3849 5.67659 10.5544 5.95901C10.7238 6.25084 10.9592 6.4297 11.251 6.51443C11.5428 6.59915 11.8253 6.5615 12.1077 6.40146Z" fill="#F7F8C5"/>
<path d="M14.0176 5.8367L14.3659 2.08057L17.2465 4.52818L16.6441 4.77294L14.8084 3.16316L14.6012 5.61077L14.0176 5.84612V5.8367Z" fill="#F7F8C5"/>
<path d="M20.4007 3.84076C19.93 3.9349 19.4969 3.84076 19.1203 3.58658C18.7438 3.33241 18.5084 2.96527 18.4143 2.49457C18.3201 2.02388 18.4049 1.60025 18.6591 1.21428C18.9132 0.828315 19.2804 0.592968 19.7511 0.498829C20.2406 0.404691 20.6831 0.49883 21.0879 0.771832L20.8054 1.23311C20.5042 1.03542 20.1841 0.96011 19.8546 1.02601C19.544 1.0919 19.2992 1.25194 19.1392 1.50611C18.9791 1.76029 18.9321 2.05212 18.9886 2.38161C19.0451 2.71109 19.2051 2.96527 19.4593 3.14413C19.704 3.32299 19.9864 3.37948 20.3065 3.31358C20.6454 3.24768 20.909 3.06882 21.1161 2.76757L21.5491 3.08765C21.2855 3.49244 20.909 3.74662 20.4101 3.84076H20.4007Z" fill="#F7F8C5"/>
<path d="M26.6603 3.42665L26.7074 1.43091L25.4648 2.79592L24.288 1.37443L24.2409 3.37017H23.6855L23.7702 0L25.493 2.05223L27.3099 0.084725L27.2252 3.44548H26.6697L26.6603 3.42665Z" fill="#F7F8C5"/>
<path d="M30.5015 4.01002L30.5674 3.68995C30.2474 3.88764 29.8802 3.94413 29.466 3.86882C28.9953 3.77468 28.6282 3.53933 28.374 3.16278C28.1198 2.78622 28.0445 2.35318 28.1386 1.88249C28.2328 1.41179 28.4587 1.04465 28.8353 0.781064C29.2118 0.526889 29.6355 0.442164 30.1062 0.526889C30.5204 0.6022 30.831 0.799892 31.0663 1.10114L31.1322 0.781064L31.6877 0.884616L31.0663 4.12299L30.511 4.01944L30.5015 4.01002ZM29.579 3.34164C29.8049 3.37929 30.012 3.37929 30.2097 3.3134C30.4074 3.25691 30.5674 3.15336 30.6992 3.01215L30.9346 1.76952C30.8687 1.59066 30.7557 1.44004 30.5956 1.30824C30.4356 1.17645 30.2473 1.09172 30.0214 1.05407C29.7108 0.997583 29.4283 1.05407 29.1836 1.23293C28.9388 1.41179 28.7788 1.66597 28.7223 1.99545C28.6564 2.32494 28.7129 2.61677 28.8729 2.87094C29.033 3.12512 29.2778 3.28516 29.5884 3.35105L29.579 3.34164Z" fill="#F7F8C5"/>
<path d="M32.9775 1.24268L33.5141 1.44037L33.4011 1.75103C33.74 1.6004 34.1166 1.6004 34.5214 1.75103C34.9732 1.92048 35.2933 2.20289 35.4815 2.6171C35.6698 3.03131 35.6793 3.46435 35.5192 3.91622C35.3592 4.36808 35.0673 4.69757 34.6531 4.89526C34.2389 5.09295 33.8059 5.11178 33.3541 4.94233C32.9493 4.79171 32.6668 4.55636 32.4974 4.22688L31.9702 5.67661L31.4336 5.47892L32.9775 1.24268ZM33.5141 4.43398C33.8153 4.54695 34.0977 4.52812 34.3707 4.39633C34.6437 4.25512 34.832 4.02918 34.945 3.71853C35.0579 3.40787 35.0579 3.10662 34.945 2.82421C34.8226 2.54179 34.6155 2.35351 34.3142 2.24055C34.0977 2.16524 33.8906 2.13699 33.6835 2.16524C33.4764 2.19348 33.307 2.26879 33.1563 2.38176L32.7233 3.5679C32.7609 3.74677 32.8457 3.91622 32.9869 4.07625C33.1281 4.23629 33.2976 4.34926 33.5141 4.42457V4.43398Z" fill="#F7F8C5"/>
<path d="M35.4805 5.77084L37.0055 2.85254L38.8036 3.78451L38.5682 4.23638L37.2691 3.55858L35.9889 6.02502L35.4899 5.76143L35.4805 5.77084Z" fill="#F7F8C5"/>
<path d="M39.6521 8.30329L39.8404 8.03028C39.4638 8.07735 39.1062 7.98321 38.7578 7.74787C38.3625 7.47486 38.1271 7.10772 38.0424 6.66527C37.9576 6.22282 38.0612 5.78978 38.3436 5.3944C38.6166 4.99901 38.9837 4.75425 39.4262 4.66953C39.8686 4.5848 40.2923 4.66953 40.6877 4.95194C41.0266 5.18729 41.2431 5.48854 41.3278 5.86509L41.5161 5.59209L41.9774 5.91216L40.104 8.62336L39.6333 8.30329H39.6521ZM39.0779 7.31483C39.2662 7.44662 39.4638 7.52193 39.6615 7.54076C39.8686 7.569 40.057 7.54076 40.2264 7.46545L40.9512 6.42992C40.9512 6.24165 40.923 6.05337 40.8288 5.8745C40.7347 5.69564 40.5935 5.5356 40.4053 5.40381C40.1417 5.22495 39.8592 5.15905 39.5674 5.22495C39.2662 5.29084 39.0214 5.46029 38.8331 5.7333C38.6448 6.0063 38.5695 6.29813 38.6166 6.59937C38.6637 6.90062 38.8143 7.14538 39.0779 7.32424V7.31483Z" fill="#F7F8C5"/>
<path d="M43.0125 6.75L43.4173 7.14538L43.1913 7.38073C43.5585 7.38073 43.8974 7.53135 44.2175 7.8326C44.5658 8.16208 44.7447 8.55746 44.7447 9.01874C44.7447 9.47061 44.5846 9.87541 44.2551 10.2237C43.9256 10.572 43.5302 10.7509 43.069 10.7697C42.6171 10.7886 42.2123 10.6285 41.864 10.2896C41.5534 9.98837 41.3839 9.65889 41.3745 9.29175L40.3107 10.4026L39.8965 10.0072L43.0125 6.75ZM42.2217 9.89424C42.4571 10.1202 42.7207 10.2143 43.0219 10.2049C43.3231 10.1861 43.5962 10.0637 43.8221 9.81892C44.0575 9.57416 44.1704 9.30116 44.1704 8.99992C44.1704 8.69867 44.0574 8.43508 43.8315 8.20915C43.662 8.04912 43.4832 7.94556 43.2855 7.88908C43.0878 7.8326 42.8995 7.8326 42.7206 7.87967L41.8452 8.79281C41.8075 8.97168 41.817 9.15995 41.8829 9.35764C41.9488 9.55534 42.0617 9.7342 42.2217 9.89424Z" fill="#F7F8C5"/>
<path d="M43.4648 11.9089L46.1289 9.87549L46.4679 10.3179L44.7168 11.6547L47.9552 12.1819L45.2911 14.2153L44.9522 13.7728L46.675 12.4549L43.4648 11.9089Z" fill="#F7F8C5"/>
<path d="M46.0625 15.5051L48.4725 14.1213L47.9546 13.2176L48.3971 12.9634L49.7339 15.298L49.2915 15.5522L48.7549 14.6108L46.3449 15.9946L46.0625 15.5051Z" fill="#F7F8C5"/>
<path d="M47.5584 18.6491C47.3702 18.1972 47.3701 17.7547 47.549 17.3311C47.7279 16.9075 48.0385 16.5968 48.481 16.418C48.9234 16.2391 49.3565 16.2297 49.7895 16.418C50.2226 16.6063 50.5238 16.9075 50.7121 17.3688C50.9003 17.8206 50.9003 18.2537 50.7215 18.6867C50.5426 19.1103 50.232 19.4116 49.7895 19.5999C49.3471 19.7787 48.914 19.7881 48.4904 19.5999C48.0668 19.421 47.7561 19.1103 47.5679 18.6585L47.5584 18.6491ZM48.048 17.5665C47.9256 17.8489 47.9256 18.1407 48.048 18.442C48.1703 18.7432 48.3774 18.9503 48.6598 19.0633C48.9423 19.1668 49.2435 19.1574 49.5542 19.035C49.8648 18.9032 50.0813 18.7055 50.2037 18.4325C50.3261 18.1595 50.3261 17.8677 50.2037 17.5571C50.0813 17.2464 49.8743 17.0487 49.5824 16.9357C49.3 16.8228 48.9988 16.8322 48.6881 16.964C48.3774 17.0958 48.1609 17.2935 48.0385 17.5759L48.048 17.5665Z" fill="#F7F8C5"/>
<path d="M48.3789 20.8048L51.6361 20.0234L51.7679 20.5694L49.631 21.0778L52.3798 22.8758L49.1226 23.6572L48.9908 23.1112L51.0995 22.6028L48.3883 20.7954L48.3789 20.8048ZM53.4812 21.7838L53.5848 22.2263C53.2553 22.2922 52.9917 22.2545 52.7752 22.1133C52.5587 21.9721 52.4175 21.7462 52.3422 21.4449C52.2669 21.1343 52.2951 20.8707 52.4269 20.6448C52.5587 20.4188 52.7846 20.2682 53.0953 20.1835L53.1988 20.6165C52.9917 20.673 52.8411 20.7671 52.7564 20.8895C52.6717 21.0119 52.6528 21.1719 52.6905 21.3508C52.7281 21.5202 52.8223 21.6426 52.9447 21.7274C53.0765 21.8027 53.2459 21.8215 53.4624 21.7744L53.4812 21.7838Z" fill="#F7F8C5"/>
</svg>
