<svg width="80" height="100" viewBox="0 0 80 100" fill="none" xmlns="http://www.w3.org/2000/svg">
<path d="M77.1453 59.635C77.1453 80.7781 60.2927 97.8617 39.5727 97.8617C18.8526 97.8617 2 80.7781 2 59.635C2 38.4919 18.8526 21.4082 39.5727 21.4082C60.2927 21.4082 77.1453 38.4919 77.1453 59.635Z" stroke="#F7F8C5" stroke-width="4"/>
<path d="M18.9445 57.3689C18.5322 54.3236 21.1296 54.3337 22.9436 53.7809C26.5613 52.6653 30.2717 51.8111 33.9203 50.7759C34.3017 50.6653 34.7139 50.1025 34.817 49.6804C35.1881 48.1427 36.0332 47.0875 37.6411 46.7056C38.4759 46.5046 38.7439 45.9618 38.7954 45.2282C38.8676 44.1226 38.9191 43.0071 39.0016 41.9015C39.0325 41.4895 39.115 41.0774 39.1768 40.6654C39.3108 40.6352 39.4345 40.6151 39.5685 40.585C39.8055 41.2081 40.1456 41.8111 40.259 42.4543C40.3621 43.0272 40.2178 43.6402 40.2075 44.2432C40.1869 45.389 40.1456 46.2332 41.3722 47.2583C42.7739 48.4342 43.7943 48.2633 45.2166 48.002C47.8654 47.5297 50.5452 47.2181 53.2044 46.7659C55.0699 46.4442 56.2346 47.399 56.987 48.7759C58.131 50.8563 58.667 53.1478 58.5021 55.5297C58.4093 56.7457 58.7082 57.3387 60.0481 57.6603C62.5011 58.2633 64.748 59.3287 66.1497 61.5498C67.1804 63.1779 67.2526 64.9869 67.1083 66.8261C67.0774 67.2884 67.0361 67.7809 67.1392 68.2332C67.5721 70.0724 66.9846 71.7507 65.2118 72.3638C62.9546 73.1377 60.5944 73.811 58.2238 74.0523C54.4618 74.4342 50.6586 74.4844 46.8657 74.5648C43.7015 74.6251 40.527 74.5347 37.3628 74.4945C35.3014 74.4643 33.2298 74.5347 31.1787 74.3437C26.6849 73.9115 22.1912 73.4291 17.718 72.796C16.1514 72.5749 14.4095 72.1729 13.183 71.2884C10.596 69.4291 9.76114 66.7357 10.5754 63.6603C11.5958 59.791 13.2861 58.2734 18.9445 57.3689ZM18.996 58.8462C17.0378 58.7759 13.6468 60.6151 12.8635 62.1427C12.7604 62.3437 12.7089 62.5849 12.6677 62.8161C12.3482 64.595 13.1212 65.992 14.6981 66.6352C16.6667 67.4291 18.7693 68.0221 20.8616 68.404C27.2003 69.5598 33.642 69.6 40.0632 69.5598C44.3096 69.5397 48.5457 69.0874 52.7921 68.8663C56.1934 68.6854 59.5328 68.193 62.8 67.198C64.6965 66.6151 65.5623 64.6854 64.7068 62.9467C63.3772 60.2432 60.5325 59.9015 58.2341 58.6854C57.8734 60.203 57.5951 61.5598 57.2137 62.8864C56.9354 63.8513 56.5438 64.8563 55.3276 64.9769C53.8331 65.1276 52.318 65.208 50.8235 65.198C48.4426 65.1779 46.0618 65.007 43.6809 64.997C41.7638 64.997 39.8467 65.2181 37.9297 65.208C32.9103 65.1779 27.8805 65.0975 22.8611 64.997C21.851 64.9769 20.841 64.806 19.8412 64.6653C18.9136 64.5347 18.5632 63.9518 18.6353 63.0874C18.7487 61.7005 18.8724 60.3236 18.996 58.8462ZM56.0697 60.6251C56.2037 59.2985 56.3067 58.2231 56.4304 57.0573C44.2478 56.7457 32.23 56.4442 20.3565 56.1427V61.0171C32.2197 60.8864 44.0622 60.7558 56.0697 60.6251ZM65.1809 67.9216C63.0062 68.4744 60.883 69.1578 58.7185 69.5095C56.2449 69.9116 53.73 70.0623 51.2255 70.2633C47.9685 70.5246 44.7013 70.8261 41.434 70.9467C39.1974 71.0271 36.9505 70.7859 34.7036 70.7558C33.776 70.7457 32.8381 71.0171 31.9208 70.9467C27.8805 70.605 23.8299 70.2432 19.8103 69.7507C16.9759 69.409 14.1415 68.8864 12.1214 66.595C12.0699 66.5347 11.9359 66.5447 11.8122 66.5146C12.4718 69.6402 13.6056 70.7457 16.7801 71.2985C17.9035 71.4995 19.0476 71.6402 20.1813 71.7608C23.8712 72.1628 27.561 72.6653 31.2715 72.9065C35.2705 73.1678 39.2799 73.2784 43.2789 73.2583C47.783 73.2382 52.2871 73.0975 56.7705 72.796C58.9453 72.6452 61.12 72.1126 63.2123 71.5095C63.9132 71.3085 64.4903 70.394 64.9026 69.6904C65.2015 69.1779 65.1191 68.4643 65.1912 67.9317L65.1809 67.9216ZM19.6557 62.9166C20.2844 63.2281 20.6554 63.5297 21.0574 63.59C22.0159 63.7206 22.9951 63.791 23.9639 63.801C29.1586 63.8312 34.3635 63.8412 39.5581 63.8513C44.3508 63.8513 49.1435 63.8211 53.9465 63.8513C55.1421 63.8513 55.5028 63.2382 55.5646 62.3839C43.9282 62.3839 32.3228 62.3839 20.7276 62.404C20.4905 62.404 20.2432 62.6352 19.6763 62.9367L19.6557 62.9166ZM49.7825 55.4091C51.6171 55.5096 53.3796 55.59 55.1421 55.7005C55.9357 55.7508 56.3686 55.5096 56.3273 54.6452C56.2861 53.7407 56.3273 52.8362 56.3273 51.7709C54.4515 52.0523 52.7921 52.2935 51.1327 52.5648C50.9781 52.595 50.8029 52.806 50.7307 52.9669C50.4009 53.7608 50.102 54.5749 49.7825 55.399V55.4091ZM38.2595 52.6452C40.0013 52.6452 41.6814 51.7206 41.6814 50.7659C41.6814 49.6 40.3002 48.2935 39.0325 48.2432C37.6205 48.193 36.1363 49.2885 36.1157 50.3839C36.0951 51.9417 36.7547 52.6352 38.2492 52.6452H38.2595ZM46.7214 49.188C45.433 49.4493 44.3405 49.6704 43.3098 49.8814C43.6809 52.1628 41.9287 53.6 41.3412 55.4794C42.1761 55.4794 42.9594 55.5096 43.7324 55.4694C44.0313 55.4493 44.4848 55.3789 44.5879 55.1779C45.6186 53.3488 46.5359 51.4694 46.7214 49.1779V49.188ZM50.5143 48.8061C48.1643 48.6352 47.783 48.9367 47.7108 50.7156C47.6902 51.1076 47.649 51.5096 47.5356 51.8814C47.1646 53.0573 46.7626 54.2332 46.371 55.399C47.3192 55.7005 47.9582 55.3789 48.3189 54.4241C49.0198 52.5849 49.7516 50.7558 50.5246 48.8061H50.5143ZM32.4258 52.9166C33.137 53.2282 33.539 53.2784 33.6833 53.4895C34.6521 54.9166 36.0229 55.2985 37.7235 55.3588C38.9088 55.399 39.5581 55.1578 39.8674 54.0824C39.7849 54.0623 39.7024 54.002 39.6303 54.0221C37.7029 54.5849 36.1569 54.1729 35.0231 52.4442C34.8582 52.1829 34.2398 52.0322 33.8894 52.1025C33.4359 52.193 33.0442 52.5548 32.4258 52.9166ZM55.7502 50.0925C54.9668 48.3739 54.3175 48.1427 51.5244 48.595C51.4625 49.3588 51.411 50.1327 51.3388 51.0674C52.9364 50.7156 54.3381 50.4141 55.7502 50.1025V50.0925ZM32.5392 54.9166C32.23 54.1528 31.9517 53.4794 31.6528 52.7256C30.7149 52.987 29.8388 53.2181 28.9112 53.4794C29.8182 54.9669 31.055 55.1779 32.5495 54.9166H32.5392ZM27.7775 55.0674C27.8599 54.9367 27.9321 54.806 28.0145 54.6854C27.6847 54.4442 27.293 53.9618 27.0251 54.0121C25.8707 54.2533 24.7473 54.6653 23.428 55.0674H27.7878H27.7775Z" fill="#F7F8C5"/>
<path d="M43.4269 9.3431L44.0568 1.3322L41.4727 1.13839L41.5696 0.0078125L47.9331 0.508502L47.8523 1.63907L45.2519 1.42911L44.6221 9.44001L43.443 9.3431H43.4269Z" fill="#F7F8C5"/>
<path d="M50.015 10.3283C49.0621 10.1345 48.3515 9.66608 47.8508 8.92313C47.3501 8.16403 47.1885 7.32417 47.3823 6.40357C47.56 5.48296 48.0284 4.77231 48.7875 4.27163C49.5304 3.77095 50.3864 3.60944 51.3394 3.80325C52.2761 3.99706 53.003 4.46545 53.5036 5.20839C54.0043 5.96749 54.1658 6.80734 53.972 7.72795C53.7943 8.64856 53.326 9.3592 52.5669 9.85988C51.8078 10.3606 50.9679 10.5221 50.0311 10.3283H50.015ZM48.7875 8.35784C49.1105 8.85852 49.5789 9.18155 50.2249 9.31075C50.871 9.43996 51.4201 9.31075 51.9046 8.97158C52.3891 8.63241 52.696 8.13173 52.8252 7.48569C52.9544 6.83965 52.8575 6.27437 52.5345 5.75753C52.2115 5.25685 51.7431 4.93383 51.1132 4.80462C50.4833 4.67541 49.9181 4.80461 49.4336 5.12763C48.949 5.4668 48.6421 5.9675 48.5129 6.61354C48.3837 7.25958 48.4806 7.82486 48.8036 8.34169L48.7875 8.35784Z" fill="#F7F8C5"/>
<path d="M56.6242 5.14453L57.6739 5.51601L57.464 6.12974C58.1262 5.83903 58.853 5.82288 59.6444 6.12974C60.5327 6.45276 61.1626 7.01806 61.534 7.82561C61.9055 8.63316 61.9378 9.48915 61.6148 10.3775C61.2918 11.2658 60.7265 11.9118 59.9351 12.2994C59.1276 12.6871 58.2877 12.7194 57.3994 12.3963C56.608 12.1056 56.0427 11.6534 55.7197 10.9912L54.7022 13.8338L53.6523 13.4623L56.6403 5.14453H56.6242ZM57.7224 11.395C58.32 11.6049 58.8691 11.5726 59.4021 11.3142C59.9351 11.0397 60.3066 10.6036 60.5327 9.98984C60.7588 9.3761 60.7426 8.79466 60.5004 8.24552C60.2581 7.69639 59.8382 7.32492 59.2568 7.0988C58.8369 6.95344 58.4169 6.905 58.0293 6.9696C57.6255 7.03421 57.2863 7.17956 56.9956 7.40568L56.1557 9.74757C56.2365 10.1029 56.398 10.4259 56.6726 10.7328C56.9471 11.0397 57.2863 11.2658 57.7063 11.4111L57.7224 11.395Z" fill="#F7F8C5"/>
<path d="M62.5826 14.4795L65.0536 9.61804L63.2286 8.69743L63.6808 7.79297L68.3807 10.1672L67.9286 11.0716L66.0227 10.1026L63.5516 14.964L62.5664 14.4633L62.5826 14.4795Z" fill="#F7F8C5"/>
</svg>
