<svg width="63" height="63" viewBox="0 0 63 63" fill="none" xmlns="http://www.w3.org/2000/svg">
<path d="M40.734 54.0693C41.1475 54.6098 41.5366 55.1178 41.9258 55.6259C41.9717 55.6151 42.0176 55.607 42.0609 55.5962C42.1365 55.2827 42.2123 54.9692 42.3041 54.5827C42.3717 54.6746 42.4636 54.7422 42.4798 54.826C42.6419 55.6151 42.2798 56.2853 41.5312 56.5988C41.2853 56.7015 41.1934 56.6691 40.9042 56.4015C40.788 56.6015 40.6961 56.842 40.5286 57.0096C40.4448 57.0934 40.2205 57.0718 40.0665 57.0447C39.8719 57.0096 39.6881 56.9231 39.4746 56.9204C39.58 56.9907 39.6827 57.0663 39.7935 57.1312C40.2367 57.3933 40.415 57.7987 40.4313 58.296C40.4394 58.596 40.4178 58.8716 39.9827 58.8878C40.7826 58.9905 40.9015 59.5472 40.8934 60.2715C41.1582 59.831 41.4717 59.6526 41.9041 59.704C42.3716 59.7607 42.3933 60.231 42.6527 60.4904C42.5203 59.4743 42.5744 59.4202 43.7175 59.4067C43.6094 59.2446 43.4959 59.104 43.4148 58.9419C43.3743 58.8608 43.3986 58.7446 43.3959 58.6473C43.4905 58.6689 43.6094 58.6608 43.6797 58.7176C43.9715 58.9527 44.2472 59.2121 44.5364 59.4527C44.5959 59.504 44.6904 59.5121 44.7688 59.5418C44.8336 59.5662 44.9039 59.5878 44.9607 59.6256C45.0363 59.677 45.0985 59.7445 45.166 59.804C45.2363 59.7229 45.3066 59.6391 45.3877 59.5418C45.2498 59.4554 45.158 59.3986 45.0444 59.3256C45.3147 59.2554 45.5417 59.377 45.6093 59.604C45.6823 59.8499 45.5444 60.1202 45.3039 60.2067C44.985 60.3202 44.6986 60.1445 44.5337 59.7418C44.2553 59.7716 43.9797 59.8256 43.7067 59.8202C43.4311 59.8148 43.1554 59.7526 42.7878 59.704C43.0365 60.2256 43.0203 60.7796 43.4905 61.1228C43.6716 61.2552 43.6905 61.6039 43.5337 61.8309C43.3797 62.0552 43.0932 62.1416 42.8824 61.9957C42.6365 61.8282 42.496 61.6011 42.5582 61.2768C42.5771 61.1823 42.5474 61.0607 42.5014 60.9715C42.3771 60.7337 42.2285 60.5066 42.0906 60.2769C41.8933 59.9445 41.5988 59.9283 41.3583 60.2364C41.2772 60.3391 41.2258 60.4715 41.1312 60.5499C40.9799 60.6742 40.8015 60.7634 40.6664 60.8471C40.7961 61.0336 40.9583 61.2255 41.0664 61.4417C41.161 61.6282 41.0448 61.7714 40.8691 61.8552C40.6259 61.9714 40.2637 61.8903 40.1016 61.6822C39.8935 61.4201 40.0313 61.1688 40.2205 61.0282C40.4231 60.8769 40.4204 60.7039 40.4313 60.5147C40.4448 60.2877 40.4556 60.0607 40.4394 59.8364C40.4123 59.431 40.1799 59.2851 39.8286 59.4689C39.6259 59.5743 39.3719 59.6256 39.2962 59.9364C39.2773 60.0175 38.8935 60.0553 38.6882 60.0283C38.5665 60.0148 38.4044 59.8553 38.3693 59.731C38.299 59.4851 38.707 59.2338 38.9989 59.3446C39.2232 59.4283 39.3773 59.4986 39.3043 59.1365C39.2881 59.0581 39.4178 58.9446 39.4854 58.8527C39.6016 58.6987 39.7421 58.5608 39.8367 58.396C39.9664 58.1717 39.9719 57.9122 39.7746 57.7366C39.5584 57.542 39.3908 57.2339 38.9909 57.3501C38.7125 57.4312 38.4503 57.342 38.2963 57.0691C38.145 56.8042 38.2558 56.5853 38.5584 56.5123C38.5882 56.6556 38.6179 56.7988 38.6531 56.9664C38.8206 56.8583 38.9314 56.7826 39.0692 56.6934C38.9854 56.6285 38.9016 56.561 38.7341 56.4286C39.0016 56.415 39.1936 56.4069 39.4017 56.3961C39.2179 56.234 39.0314 56.0718 38.8584 55.9232C37.7612 56.842 36.5397 57.6095 35.0587 57.9068C34.7479 57.969 34.4533 58.1203 34.1615 58.2554C32.8697 58.8473 31.64 59.5878 30.2428 59.9202C29.7429 60.0391 29.2051 60.158 28.7078 60.0932C28.0917 60.0094 27.4484 59.8256 26.9079 59.5202C26.0918 59.0635 25.2702 58.6257 24.5568 57.9555C23.746 57.1961 23.1353 56.3502 22.6299 55.3935C22.5813 55.3016 22.5136 55.2205 22.4461 55.126C23.0406 54.7503 23.6406 54.3882 24.2216 53.9963C25.0486 53.4396 25.8269 52.8288 26.3918 51.9829C26.7863 51.3938 26.7053 50.6128 26.1837 50.3128C25.7783 50.0804 25.3513 50.0047 24.881 50.1425C23.8271 50.4506 22.7623 50.702 21.7489 51.1533C21.3786 51.3181 20.876 51.2235 20.4408 51.183C19.9868 51.1398 19.5923 50.9236 19.195 50.683C17.6168 49.7236 16.0331 48.7778 14.4251 47.8724C13.0117 47.0806 11.7388 46.1131 10.5227 45.0537C9.22817 43.9268 7.88231 42.8593 6.58781 41.735C5.95272 41.1837 5.40142 40.5378 4.77444 39.9784C3.62858 38.9542 2.75025 37.7056 1.85573 36.476C1.57737 36.0949 1.44223 35.5679 1.36926 35.0869C1.06118 33.0735 0.817975 31.0466 0.515294 29.0333C0.101811 26.2794 0.331553 23.5229 0.409926 20.7636C0.439653 19.6853 0.482883 18.6043 0.53423 17.526C0.539635 17.3855 0.601801 17.2341 0.677471 17.1125C0.936911 16.7018 1.2504 16.3234 1.48281 15.8991C1.83414 15.2586 2.35839 14.9154 3.06644 14.81C3.30156 14.7749 3.53399 14.7208 3.7583 14.6479C4.45014 14.4208 5.12034 14.456 5.69868 14.9073C6.17432 15.2775 6.73915 15.4316 7.26614 15.6667C8.9417 16.4099 10.6334 17.1206 12.3198 17.8422C12.4793 17.9098 12.636 17.9936 12.8009 18.0287C13.3495 18.1422 13.6549 18.5422 14.0143 18.9259C14.9845 19.9718 15.2277 21.3663 15.8601 22.5689C16.152 23.1229 16.4141 23.6931 16.733 24.2309C16.9844 24.6579 17.3519 24.9417 17.8735 25.0579C18.1545 25.1201 18.4059 25.3714 18.641 25.5687C18.8167 25.7173 18.9491 25.7281 19.1166 25.5876C20.1247 24.7498 21.33 24.3282 22.5542 23.9201C23.4433 23.6229 24.2757 23.8742 25.1297 24.0174C25.7459 24.1228 26.3647 24.2147 26.9836 24.3039C27.8997 24.4336 29.097 23.6688 29.3672 22.9905C29.5159 22.6229 29.6537 22.2446 29.7321 21.8581C29.8537 21.2771 30.1347 20.8123 30.5158 20.3609C31.113 19.6529 31.6752 18.9151 32.2076 18.1557C32.6643 17.5044 33.3048 17.099 33.9561 16.6936C34.202 16.5423 34.4426 16.3775 34.6723 16.1991C36.1181 15.0803 37.2126 13.6614 38.1747 12.1237C39.1692 10.5319 40.1583 8.93746 41.2069 7.38082C42.3933 5.61879 43.6392 3.89729 44.8661 2.16499C45.1391 1.77853 45.4255 1.39748 45.7444 1.05156C45.8741 0.911026 46.1038 0.813737 46.2984 0.786712C47.2226 0.659694 47.974 1.00291 48.5496 1.72178C49.363 2.73522 50.4548 3.3649 51.5791 3.95405C52.9763 4.68642 54.1627 5.66473 55.1707 6.87816C57.0733 9.16988 58.2165 11.821 58.9867 14.6641C59.2569 15.6613 59.5812 16.645 59.9163 17.6233C60.3487 18.8881 60.519 20.2042 60.7298 21.5122C60.8109 22.023 60.9108 22.5311 60.9865 23.0445C61.1433 24.0985 61.3297 25.1498 61.4297 26.2092C61.5891 27.8982 61.881 29.5603 62.2513 31.2115C62.3296 31.5628 62.2161 31.725 61.9243 31.8736C60.5892 32.5573 59.2569 33.2411 57.9327 33.9437C56.4652 34.7248 55.1843 35.7679 53.9249 36.8408C53.4006 37.2894 52.825 37.6786 52.2899 38.1164C51.7521 38.5623 51.217 39.0163 50.7197 39.5055C50.5089 39.7136 50.3251 39.819 50.0279 39.8082C49.4036 39.7838 49.4063 39.8028 49.1874 40.3946C48.9388 41.0729 48.7334 41.7729 48.4091 42.4161C48.0388 43.1485 47.4767 43.7079 46.647 43.9781C46.0363 44.1754 45.4526 44.4646 44.8715 44.7375C44.731 44.8024 44.6067 44.9591 44.5364 45.1051C44.377 45.4348 44.2716 45.7888 44.1229 46.1239C43.3608 47.8319 42.5933 49.5372 41.8231 51.2425C41.6799 51.5559 41.4825 51.8478 41.3717 52.1721C41.2771 52.4505 41.2718 52.7559 41.2231 53.0504C41.161 53.4207 41.1448 53.8098 40.7475 54.0585L40.734 54.0693ZM39.6881 51.9127C39.707 52.3559 40.0556 52.2667 40.3015 52.2694C40.5502 52.2694 40.4907 52.0316 40.5178 51.8721C40.5259 51.8181 40.5421 51.7667 40.561 51.7181C40.9285 50.8344 41.2826 49.9426 41.6744 49.0696C41.9474 48.4616 42.2987 47.8886 42.5771 47.2806C43.0041 46.3482 43.404 45.405 43.7986 44.4592C43.9418 44.1133 44.131 43.7511 44.1391 43.3944C44.1553 42.5863 44.1283 41.7702 44.0148 40.9729C43.8229 39.6298 43.5446 38.2975 43.3095 36.9597C43.2824 36.8138 43.2824 36.6624 43.2689 36.5138C43.3121 36.5057 43.3554 36.5003 43.3986 36.4922C43.9823 37.5354 44.1769 38.7055 44.3472 39.8622C44.5201 41.0405 44.5715 42.2377 44.6796 43.4457C45.0147 43.5052 45.3471 43.3457 45.6714 43.1728C45.7282 43.1431 45.7849 43.0647 45.793 43.0052C45.8741 42.3323 45.9822 41.6594 46.0066 40.981C46.039 40.0325 46.0417 39.0785 45.9876 38.1326C45.9444 37.3462 45.7984 36.5625 45.6984 35.7787H45.6174C45.4769 36.5733 45.412 37.3867 45.0066 38.1056L44.912 38.0867C45.0877 37.0651 45.2606 36.0436 45.4363 35.0274C45.9444 35.0545 45.9552 35.0518 46.0822 35.449C46.4363 36.5543 46.6038 37.6921 46.6741 38.8515C46.7524 40.1162 46.7903 41.3756 46.4038 42.608C46.3741 42.7025 46.4254 42.9106 46.4687 42.9214C46.593 42.9485 46.7876 42.9485 46.8605 42.8701C47.2551 42.4593 47.6145 42.0296 47.828 41.4756C48.1334 40.6811 48.5009 39.9109 48.8685 39.1406C48.9252 39.0217 49.1144 38.8758 49.2306 38.8866C49.9495 38.9542 50.3819 38.5056 50.8521 38.084C51.4521 37.5462 52.044 36.9867 52.7061 36.5381C53.652 35.9003 54.6599 35.3544 55.6355 34.7653C55.7328 34.7058 55.822 34.6139 55.8923 34.5221C56.3139 33.9626 56.7436 33.4086 57.1463 32.833C58.5732 30.7899 59.4704 28.5279 59.8812 26.0767C59.9731 25.5254 59.8974 24.9228 60.0947 24.4174C60.3001 23.8877 60.0704 23.4688 60.0271 23.0013C60.0244 22.958 60.0136 22.9148 60.0082 22.8743C59.8353 21.6906 59.6812 20.5015 59.4839 19.3232C59.3704 18.6557 59.1894 17.999 59.0272 17.3395C58.784 16.345 58.6677 15.2938 58.2597 14.3749C57.503 12.6723 56.5706 11.0481 55.7085 9.39148C55.6788 9.33473 55.6247 9.29419 55.5815 9.24555L55.5302 9.26987C55.5599 9.44283 55.5869 9.61579 55.6167 9.78875C55.4978 9.74281 55.3788 9.66444 55.3572 9.56715C55.3004 9.3077 55.1221 9.23744 54.9059 9.24555C54.2059 9.27257 53.4925 9.24014 52.8114 9.37257C51.7007 9.58606 50.6089 9.90226 49.5144 10.1914C49.336 10.2374 49.1658 10.3536 49.0225 10.4752C48.5091 10.9184 48.047 11.4346 47.4956 11.8237C45.7147 13.0831 43.7527 13.9857 41.6258 14.4641C40.4124 14.737 39.207 14.6857 38.2774 13.6533C38.2666 13.6425 38.2395 13.6452 38.2044 13.6398C37.7639 14.2019 37.3612 14.81 36.864 15.3316C36.2856 15.9396 35.6263 16.4666 35.0101 17.0369C34.9209 17.1206 34.8182 17.2287 34.7966 17.3395C34.5588 18.5881 34.329 19.8394 34.1101 21.0933C34.0345 21.5284 33.9291 21.977 33.9696 22.4067C34.0561 23.3283 34.2425 24.239 34.356 25.1606C34.456 25.9713 34.5398 26.7875 34.5777 27.6037C34.5912 27.8982 34.4452 28.2009 34.3723 28.4982C34.3398 28.4901 34.3074 28.482 34.2749 28.4766C34.2533 28.3604 34.2263 28.2441 34.2128 28.1279C34.0155 26.3173 33.7074 24.5228 33.3561 22.7364C33.3237 22.5689 33.2832 22.3905 33.3048 22.2257C33.3886 21.5852 33.5264 20.9501 33.5859 20.3069C33.6561 19.5205 33.6642 18.7313 33.702 17.9422C33.6561 17.9287 33.6102 17.9125 33.5642 17.899C33.4588 18.0611 33.3562 18.2233 33.2508 18.3881C33.1021 18.6232 32.9886 18.8908 32.8021 19.0881C32.3102 19.6042 31.786 20.088 31.2779 20.588C31.1725 20.6934 31.0617 20.8069 30.9995 20.9366C30.6969 21.5636 30.4266 22.2095 30.1104 22.831C29.6861 23.6742 29.3077 24.5687 28.2619 24.8822C28.5105 25.1174 28.7538 25.3254 28.9754 25.5606C30.4212 27.0983 31.7346 28.736 32.7697 30.5899C33.3156 31.5709 33.9398 32.506 34.4722 33.4924C34.8695 34.2275 35.1884 35.0085 35.5154 35.7787C35.5965 35.9679 35.656 36.23 35.5884 36.403C35.3479 37.0084 35.002 37.5516 34.3155 37.8299C34.3966 38.2975 34.4966 38.7731 34.5614 39.2514C34.6911 40.2 34.8182 41.1513 34.9182 42.1026C34.9398 42.3242 34.9803 42.435 35.202 42.5215C35.8965 42.789 36.0019 42.9944 35.9506 43.7538C35.9424 43.8781 36.0073 44.0187 36.0667 44.1376C36.4208 44.8537 36.8207 45.5483 37.1369 46.278C37.8639 47.9616 38.5504 49.6642 39.2557 51.356C39.3611 51.61 39.4881 51.8559 39.634 52.1667C39.6611 52.0343 39.6718 51.9802 39.6827 51.9235L39.6881 51.9127ZM32.1454 38.5218C31.5427 38.738 31.0022 38.9488 30.4536 39.1298C30.0077 39.2758 29.8402 39.1596 29.6456 38.7434C29.3699 38.1515 29.0673 37.5705 28.7673 36.9894C28.5511 36.5706 28.2484 36.1787 28.1052 35.7382C27.7052 34.5194 26.9647 33.5708 25.9647 32.8033C25.1486 32.1763 24.2487 31.6871 23.3136 31.2628C23.0785 31.1547 22.8434 31.0493 22.6083 30.9412C22.5839 30.9683 22.5569 30.9953 22.5326 31.0223C22.9785 31.679 23.4217 32.3357 23.8676 32.9924C23.9406 33.1005 24.0082 33.2141 24.0973 33.3059C24.4189 33.6437 24.3757 34.041 24.2568 34.5031C24.0974 34.3869 23.9892 34.2275 23.873 34.0734C23.2055 33.1708 22.4894 32.3006 21.8786 31.3628C20.9597 29.9521 20.0328 28.5495 19.0031 27.2145C18.5221 26.5902 17.9248 26.2281 17.1465 26.0362C17.5978 26.974 17.9843 27.9036 18.4842 28.7684C19.1004 29.8332 19.7895 30.8548 20.4895 31.8682C21.4029 33.1924 22.3596 34.4869 23.2893 35.8003C23.5893 36.2246 23.8542 36.676 24.1325 37.1138L24.0595 37.1678C24.0082 37.1354 23.9595 37.1003 23.9055 37.0678C23.3379 36.7246 22.9515 36.2165 22.5759 35.6814C22.1056 35.0112 21.5435 34.4086 21.0706 33.741C20.2868 32.6303 19.5734 31.4709 18.7788 30.3683C17.7438 28.9306 16.9384 27.3712 16.179 25.7822C15.9979 25.4038 15.879 24.9984 15.6952 24.6201C15.4844 24.1877 15.2034 23.785 15.0034 23.3472C14.5386 22.3257 14.117 21.2852 13.6468 20.2664C13.5306 20.015 13.3306 19.7745 13.1117 19.6015C12.0334 18.7557 10.9524 17.9179 9.62542 17.472C8.94709 17.2423 8.29041 16.9423 7.55533 16.645C7.71748 17.0315 7.85802 17.3314 7.96882 17.6395C9.17954 21.0068 10.093 24.4606 10.947 27.928C11.3334 29.4954 11.6064 31.098 12.0874 32.6357C12.7793 34.8464 13.6225 37.0111 14.3846 39.2001C14.4873 39.4974 14.5359 39.8271 14.5386 40.1433C14.5413 40.4081 14.6169 40.6 14.8142 40.754C15.0358 40.927 15.2682 41.0864 15.4871 41.2594C16.8384 42.335 17.9653 43.6727 19.422 44.6267C19.476 44.6619 19.5166 44.7159 19.5652 44.7591C20.4084 45.478 21.2543 46.1969 22.0948 46.9184C22.1272 46.9455 22.1326 47.0022 22.1785 47.1049C21.684 46.9644 21.2949 46.7725 20.9408 46.4806C20.0004 45.705 19.0491 44.9456 18.1059 44.1754C17.7897 43.916 17.4681 43.6565 17.1789 43.3674C16.206 42.3972 15.198 41.4702 14.0818 40.6622C13.9062 40.5351 13.7332 40.4054 13.5576 40.2784C13.5657 40.2568 13.5738 40.2352 13.5819 40.2135H14.1008C14.017 39.9352 13.963 39.6595 13.8549 39.4082C13.3009 38.1218 12.7252 36.8462 12.1712 35.5598C11.9577 35.0653 11.7199 34.5707 11.5847 34.0545C10.8983 31.4574 10.2389 28.8522 9.57139 26.2497C9.42004 25.666 9.28764 25.0768 9.11197 24.4985C8.97685 24.058 8.74712 23.6445 8.62821 23.2013C8.14717 21.4095 7.69317 19.6096 7.23104 17.8098C7.03646 17.0477 6.70946 16.3775 6.02033 15.9261C5.64738 15.6829 5.32032 15.3235 4.81495 15.6099C4.77982 15.6289 4.72848 15.6153 4.68794 15.6208C4.26095 15.6721 3.83125 15.7316 3.40425 15.7721C2.96375 15.8126 2.68539 16.018 2.45567 16.418C2.05841 17.1098 1.71253 17.8017 1.69091 18.6151C1.66388 19.6205 1.61253 20.6231 1.61253 21.6284C1.61253 24.6309 1.57468 27.6307 1.79898 30.6305C1.926 32.3249 2.12061 34.0005 2.57463 35.6382C2.61247 35.776 2.69079 35.9274 2.79619 36.0192C3.97719 37.0273 5.16093 38.0326 6.35543 39.0244C7.8256 40.246 9.4876 41.1675 11.1199 42.1458C11.8658 42.5944 12.5603 43.1295 13.2738 43.6349C13.3765 43.7079 13.4387 43.8322 13.5198 43.9349C13.4982 43.9673 13.4765 43.997 13.4549 44.0295C13.2495 43.9538 13.0252 43.9106 12.8414 43.7998C11.7712 43.1701 10.7037 42.5377 9.64706 41.8864C8.8201 41.3756 7.97421 40.8838 7.2067 40.2946C5.93111 39.3163 4.71226 38.2623 3.46911 37.2435C3.40425 37.1921 3.33128 37.1516 3.19075 37.0543C4.15824 38.4623 5.34464 39.519 6.56888 40.5243C8.02012 41.7161 9.53356 42.8323 10.9983 44.0106C13.2063 45.7861 15.4547 47.4968 17.9221 48.9048C18.4923 49.2291 19.022 49.6291 19.5463 50.0236C19.9922 50.3587 20.4166 50.6425 21.0111 50.3912C21.2246 50.302 21.4759 50.3047 21.7083 50.2479C21.8353 50.2182 21.9515 50.1561 22.1272 50.0858C21.8245 49.929 21.584 49.8155 21.3516 49.6831C20.076 48.9453 18.8869 48.0913 17.814 47.0725C16.0493 45.4023 14.2738 43.7457 12.5063 42.081C12.3658 41.9485 12.2306 41.8053 12.1144 41.6513C12.0739 41.5972 12.0901 41.4999 12.082 41.4216C12.1685 41.427 12.255 41.4216 12.3387 41.4432C12.3847 41.454 12.4225 41.508 12.4631 41.5432C13.9494 42.8755 15.452 44.1943 16.9195 45.5483C18.6166 47.113 20.3814 48.5778 22.4299 49.6723C22.6407 49.7858 22.8164 49.8182 23.0353 49.7263C23.9947 49.3291 25.0027 49.1615 26.035 49.1264C26.9431 49.094 27.8511 49.0642 28.6457 49.6507C28.7808 49.7507 29.0835 49.8047 29.197 49.7236C29.5429 49.4777 29.8321 49.1561 30.1293 48.8778C29.9348 48.6021 29.7753 48.3751 29.6131 48.1454C29.2267 47.6022 28.9429 47.3644 28.2673 47.5022C28.1187 47.5319 27.9782 47.5914 27.8295 47.6184C27.4701 47.686 27.1134 47.7643 26.7485 47.7995C25.6297 47.9076 24.5703 47.5346 23.4839 47.3725C23.3974 47.359 23.3325 47.2103 23.2568 47.1238C23.373 47.0428 23.492 46.8887 23.6055 46.8941C23.9298 46.9103 24.2514 46.9941 24.5757 47.0455C25.7324 47.2211 26.8728 47.3157 28.0295 46.932C28.9916 46.6131 29.7213 47.0374 30.1266 47.967C30.205 48.1454 30.3239 48.3075 30.3996 48.4346C31.6049 47.3022 32.7724 46.2023 33.9264 45.1213C32.9183 44.7483 32.8021 44.0808 33.1912 43.4268C33.4723 42.9539 33.4155 42.5404 33.2561 42.0837C33.2129 41.9621 33.1967 41.8323 33.1561 41.708C32.8183 40.6405 32.4805 39.573 32.1481 38.5272L32.1454 38.5218ZM20.2058 26.5551C20.222 26.5848 20.2598 26.647 20.2949 26.7091C20.7949 27.5901 21.3029 28.4685 21.7921 29.3576C21.8921 29.5386 21.9786 29.6521 22.2056 29.6927C22.5218 29.7467 22.8353 29.8467 23.1298 29.9764C24.0946 30.4034 25.0541 30.8494 26.0107 31.298C26.1648 31.3709 26.3296 31.4547 26.4404 31.579C26.9674 32.1763 27.5809 32.7303 27.9728 33.4086C28.643 34.5707 29.1753 35.8139 29.751 37.0273C29.9618 37.4705 30.1402 37.9326 30.3347 38.3893C30.5374 38.3245 30.7077 38.2894 30.8644 38.2191C31.1887 38.0704 31.513 37.9813 31.8616 38.1326C31.8995 38.1488 31.9778 38.1461 32.0022 38.1191C32.213 37.8786 32.3211 38.0759 32.4211 38.2245C32.5103 38.3569 32.594 38.5001 32.648 38.6515C33.0561 39.8217 33.4615 40.9919 33.8507 42.1674C33.9777 42.5512 33.9993 42.5755 34.3966 42.3945C34.375 42.262 34.3534 42.1269 34.3318 41.9891C34.1831 40.9892 34.0371 39.9865 33.8831 38.9866C33.8263 38.6137 33.7345 38.2461 33.6858 37.8732C33.6534 37.6272 33.7669 37.4948 34.0074 37.357C34.3425 37.1624 34.6425 36.8705 34.8803 36.5597C34.9533 36.4652 34.7722 36.1787 34.7047 35.9787C34.6993 35.9571 34.6911 35.9382 34.683 35.9166C34.4182 35.2598 34.2155 34.568 33.8723 33.9545C33.2669 32.8762 32.5724 31.8466 31.9157 30.7953C31.6022 30.2926 31.3238 29.763 30.9698 29.29C30.1726 28.2279 29.3375 27.1983 28.5214 26.1524C28.0619 25.5633 27.4863 25.3173 26.7242 25.3498C25.8999 25.3849 25.0594 25.3606 24.2433 25.2471C23.4217 25.1336 22.684 25.266 21.9651 25.6335C21.3841 25.9308 20.8057 26.2362 20.2085 26.5497L20.2058 26.5551ZM53.833 6.93761C53.7735 6.85113 53.7519 6.80248 53.7141 6.76735C52.9547 6.04308 52.1602 5.35935 51.2197 4.8756C49.9036 4.19997 48.6793 3.40814 47.7659 2.20282C47.4605 1.80015 47.0443 1.54612 46.5227 1.54882C46.3849 1.54882 46.2092 1.62179 46.12 1.72178C45.9417 1.92176 45.8255 2.17039 45.6633 2.38659C44.9769 3.29734 44.258 4.18916 43.5986 5.12153C43.2256 5.64581 42.9608 6.24577 42.6176 6.79168C41.4771 8.59695 40.3232 10.3941 39.1719 12.1913C38.9395 12.5534 38.6989 12.9074 38.4611 13.2642C39.1476 14.1019 40.0935 14.256 41.0501 14.0776C41.996 13.8993 42.9257 13.5831 43.8256 13.2317C45.7093 12.494 47.4524 11.5129 48.8334 9.98874C49.3631 9.40499 49.8927 8.82125 50.4495 8.26454C50.8305 7.88619 51.244 7.53486 51.6737 7.21056C52.3115 6.72952 53.0466 6.78897 53.8303 6.94031L53.833 6.93761ZM29.3835 50.0344C29.8618 50.5209 29.9996 51.1425 30.105 51.7721C30.1347 51.9613 30.1942 52.2694 30.105 52.3289C29.8483 52.5045 29.9348 52.7613 29.8456 52.9721C29.6996 53.318 29.5915 53.6963 29.3726 53.9909C28.67 54.9341 27.7998 55.7097 26.8188 56.3583C26.608 56.4988 26.381 56.615 26.0891 56.7853C27.1134 57.5879 28.0889 58.3554 29.0672 59.1148C29.1348 59.1662 29.2538 59.2013 29.3348 59.1824C29.7456 59.0905 30.1644 59.0176 30.5536 58.8689C32.7183 58.0447 34.7047 56.861 36.7397 55.7691C37.1396 55.5557 37.4531 55.2746 37.672 54.8638C37.8639 54.5044 37.6882 54.0341 37.2775 53.9855C36.8072 53.926 36.3208 53.9585 35.8613 53.8558C34.6101 53.5774 33.3696 53.2531 32.1265 52.9342C31.9751 52.8964 31.8346 52.791 31.713 52.6883C31.6373 52.6261 31.5779 52.518 31.559 52.4207C31.5157 52.1883 31.4941 51.9505 31.4779 51.7154C31.4211 50.9344 31.2319 50.202 30.705 49.5885C30.5833 49.448 30.4806 49.2885 30.3644 49.1291C30.0239 49.4426 29.7132 49.7263 29.3835 50.029V50.0344ZM34.048 45.3645C33.948 45.505 33.9047 45.5915 33.8399 45.6564C33.2724 46.2293 32.7372 46.8401 32.1102 47.3427C31.8778 47.5292 31.5779 47.6616 31.3725 47.9049C31.1644 48.1535 30.9617 48.4048 30.7779 48.6724C30.7293 48.7453 30.7239 48.8913 30.7617 48.9723C31.2427 49.9344 31.986 50.7857 32.0157 51.9451C32.0157 52.0073 32.1102 52.0883 32.1778 52.1262C32.5994 52.3505 32.9642 52.691 33.475 52.7477C33.7291 52.7748 33.9777 52.8694 34.2236 52.9504C35.1668 53.2531 36.1397 53.3207 37.0721 53.3531C36.0721 50.7128 35.0695 48.0697 34.0453 45.3672L34.048 45.3645ZM40.4204 56.6231C40.4204 56.3096 40.434 55.9962 40.4151 55.6827C40.4016 55.4503 40.3583 55.2449 40.0907 55.1151C39.9475 55.0449 39.8557 54.8125 39.8043 54.6341C39.7503 54.4503 39.8611 54.3287 40.0719 54.3395C40.1151 54.4638 40.1286 54.6098 40.2097 54.6936C40.2773 54.7638 40.4205 54.7638 40.5313 54.7962C40.5232 54.7017 40.5502 54.5827 40.5015 54.5152C40.2691 54.1774 40.0097 53.8585 39.7773 53.5234C39.4232 53.0099 38.9962 52.5261 38.7557 51.964C37.9558 50.0885 37.2261 48.1859 36.4694 46.2942C36.2127 45.6483 35.9613 44.9997 35.7262 44.4051C35.2344 44.6862 34.7858 44.9429 34.3236 45.2051C34.3831 45.3213 34.4615 45.4618 34.5317 45.6077C34.8398 46.2482 35.1938 46.8725 35.4452 47.5346C36.3424 49.8831 37.2504 52.2235 38.4368 54.4476C38.5314 54.626 38.6531 54.7962 38.7909 54.9422C39.3098 55.4935 39.8394 56.0313 40.4177 56.6312L40.4204 56.6231ZM29.3753 52.364C27.4025 53.2342 25.4891 54.0774 23.6379 54.8935C23.7785 55.0719 23.8622 55.2016 23.9676 55.3097C24.0271 55.3719 24.1136 55.4232 24.1947 55.4448C24.7244 55.5854 25.2621 55.707 25.7891 55.8583C26.0377 55.9286 26.2431 55.9016 26.4566 55.7556C27.3457 55.1503 28.1403 54.4395 28.824 53.6098C29.1051 53.2693 29.2808 52.8667 29.3726 52.364H29.3753ZM55.4896 8.94827C55.0545 8.39696 54.6681 7.92402 54.3032 7.43217C54.1357 7.20516 53.9384 7.13219 53.6708 7.13489C52.8574 7.143 52.1088 7.33758 51.5088 7.92132C50.9467 8.46723 50.3981 9.03205 49.8468 9.58606C52.9304 8.74018 53.7735 8.69424 55.4896 8.95098V8.94827ZM60.3785 25.239C60.0704 28.3441 59.0299 31.1574 57.0652 33.6762C57.6976 33.3222 58.2705 33.006 58.838 32.6844C58.8786 32.6627 58.9137 32.6141 58.9353 32.5709C59.0893 32.252 59.2028 31.9033 59.4028 31.6142C59.7623 31.0926 60.0028 30.5332 60.2136 29.9359C60.7568 28.382 60.5514 26.8145 60.3785 25.2363V25.239ZM34.1561 44.5402C34.6614 44.5402 35.3965 43.9835 35.5317 43.4998C35.5965 43.2728 35.5316 43.1106 35.3208 42.9836C34.5885 42.5539 33.7858 42.8998 33.5507 43.7565C33.4372 44.1673 33.7264 44.5402 34.1533 44.5375L34.1561 44.5402ZM28.0944 59.4986C28.0754 59.4689 28.0619 59.4364 28.0376 59.4175C27.189 58.75 26.3945 58.0257 25.7486 57.1528C25.681 57.0636 25.581 56.9745 25.4756 56.9366C25.0541 56.788 24.6243 56.6583 24.1649 56.5096C25.2378 57.8393 26.2783 59.1662 28.0917 59.4959L28.0944 59.4986ZM60.8298 29.0117C60.6433 29.6359 60.5271 30.2872 60.2487 30.8629C59.9731 31.4331 59.5353 31.9223 59.1515 32.4709C59.565 32.2412 59.9758 32.0628 60.3271 31.8033C60.6757 31.5466 60.9649 31.2088 61.2541 30.9331C61.1081 30.2764 60.9676 29.6494 60.8243 29.0117H60.8298ZM41.6528 56.0178C41.3663 55.6881 41.0961 55.3773 40.8285 55.0692C40.6718 55.1395 40.6394 55.2124 40.6583 55.4097C40.6988 55.861 41.1474 55.9124 41.3231 56.2448C41.4501 56.1583 41.5528 56.088 41.6528 56.0205V56.0178Z" fill="#F7F8C5"/>
<path d="M42.7633 57.7174C42.5119 57.5174 42.293 57.2931 42.0282 57.1499C41.7525 57.0012 41.4417 57.158 41.312 57.4445C41.0823 57.9471 41.1444 58.3066 41.512 58.5957C41.8174 58.8389 42.3011 58.8038 42.6741 58.493C42.8362 58.3579 42.9714 58.1849 43.1119 58.0336C43.2957 58.5606 42.9146 59.1362 42.2849 59.2632C41.539 59.4119 40.8472 58.9768 40.6499 58.239C40.4607 57.5255 41.1228 56.7364 41.8444 56.831C42.066 56.8607 42.2903 56.931 42.4903 57.0256C42.7984 57.1688 42.8795 57.4688 42.7579 57.7201L42.7633 57.7174Z" fill="#F7F8C5"/>
<path d="M43.4781 58.3766C43.4564 58.0658 43.6132 57.8307 43.8348 57.6361C43.9564 57.5307 44.0997 57.4496 44.2375 57.3713C44.5131 57.2118 44.8644 57.1307 44.8185 56.6821C44.8077 56.5794 44.9294 56.4551 45.005 56.3524C45.1185 56.1984 45.2293 56.147 45.332 56.3713C45.3536 56.42 45.432 56.4551 45.4914 56.4686C45.7995 56.5362 45.9617 56.7362 45.9157 57.0091C45.8725 57.2821 45.6104 57.5172 45.3374 57.4496C44.6942 57.2875 44.3699 57.7604 43.9672 58.0847C43.824 58.2009 43.697 58.3333 43.5619 58.4577C43.5321 58.4306 43.5024 58.4063 43.4727 58.3793L43.4781 58.3766Z" fill="#F7F8C5"/>
<path d="M43.0372 54.7099C43.0155 55.1396 42.9722 55.5666 42.9858 55.9936C42.9939 56.2314 43.0534 56.4909 43.1642 56.699C43.3696 57.0908 43.5911 57.1449 44.0181 56.9962C44.2154 56.9287 44.4154 56.8665 44.6451 56.7935C44.5019 57.2719 43.9316 57.4394 43.6019 57.3854C43.0749 57.2989 42.6642 56.9233 42.6453 56.4017C42.6291 55.899 42.6885 55.3937 42.7371 54.891C42.7453 54.8018 42.8642 54.7234 42.9317 54.6396C42.9696 54.6613 43.0047 54.6856 43.0426 54.7072L43.0372 54.7099Z" fill="#F7F8C5"/>
<path d="M42.8268 53.8829C42.7782 53.7802 42.7323 53.6775 42.6836 53.5748C42.8728 53.4559 42.9539 53.4532 43.1133 53.6829C43.1998 53.81 43.2673 54.0532 43.2025 54.1586C43.043 54.4234 42.7485 54.4072 42.4782 54.3207C42.2242 54.237 42.1323 54.0343 42.1836 53.7856C42.2025 53.6992 42.2999 53.6316 42.362 53.5532C42.4269 53.6181 42.4944 53.6802 42.5593 53.7478C42.6242 53.8154 42.6836 53.8856 42.7458 53.9532C42.7728 53.9289 42.7998 53.9045 42.8241 53.8829H42.8268Z" fill="#F7F8C5"/>
<path d="M36.6451 42.5752C37.0126 42.0968 37.1045 41.4104 37.7775 41.1618C37.9072 41.1131 38.0261 40.9401 38.0774 40.7996C38.3585 40.0321 38.6395 39.2619 38.8719 38.4809C39.0152 38.0025 39.3827 37.7161 39.6827 37.3728C39.7394 37.308 39.8178 37.2593 39.8584 37.1864C40.4664 36.1216 41.4042 35.3162 42.1203 34.3406C42.5879 33.7056 42.7257 32.9407 42.8771 32.1921C43.0149 31.5165 43.0798 30.8274 43.2392 30.1572C43.3392 29.7464 43.5013 29.3248 43.7364 28.9816C44.3742 28.0492 45.2039 27.3141 46.2606 26.8736C46.3687 26.8277 46.4849 26.7844 46.5795 26.7169C47.6497 25.9223 48.9334 25.8061 50.1765 25.5602C50.4954 25.498 50.8089 25.4278 51.1278 25.371C51.2332 25.3521 51.3467 25.3683 51.4656 25.4143C50.99 25.8737 50.363 25.9061 49.782 26.0277C49.7603 26.2602 49.7387 26.4872 49.7171 26.7142C49.6577 26.7196 49.6009 26.725 49.5414 26.7304C49.4874 26.5439 49.4333 26.3574 49.3658 26.125C48.7361 26.3142 48.0307 26.3331 47.4092 26.6953C46.8497 27.0196 46.2579 27.2898 45.7147 27.6384C44.8877 28.1681 44.1689 28.8302 43.7905 29.7626C43.6365 30.1437 43.6175 30.5815 43.5283 30.9895C43.3229 31.9354 43.1419 32.8867 42.8852 33.8191C42.7825 34.1893 42.5393 34.5379 42.296 34.846C41.9015 35.3514 41.4528 35.8162 41.0285 36.3C40.9718 36.3648 40.9043 36.427 40.8691 36.5026C40.5475 37.1621 40.061 37.6917 39.5611 38.2187C39.3962 38.3917 39.353 38.6809 39.2638 38.9214C38.9936 39.6484 38.7585 40.3888 38.445 41.0942C38.3423 41.3293 38.0423 41.4752 37.8342 41.6671C37.718 41.7752 37.5802 41.8725 37.5018 42.0049C37.2316 42.4644 37.2397 42.4698 36.6289 42.5806L36.6451 42.5752Z" fill="#F7F8C5"/>
<path d="M54.6106 22.9124C54.3268 22.7017 54.3295 22.4206 54.6403 22.2503C54.6565 22.3692 54.6727 22.4773 54.7025 22.6692C55.8483 21.1315 57.2428 19.9505 58.7076 18.8506C58.74 18.8803 58.7751 18.91 58.8076 18.9371C58.6562 19.1154 58.5184 19.31 58.3481 19.4695C57.259 20.4829 56.1537 21.4828 55.2565 22.68C55.0403 22.9692 54.8971 23.3151 54.7187 23.6367C54.9727 23.9097 55.343 24.1151 55.3403 24.6393C54.9457 24.4799 54.8106 24.1394 54.6025 23.9124C54.3079 24.2313 53.9863 24.5258 53.735 24.8745C53.6404 25.0069 53.708 25.2555 53.708 25.4528C53.708 25.5825 53.7161 25.7122 53.7161 25.8447C53.7161 25.8501 53.6133 25.869 53.6052 25.8528C53.5242 25.7204 53.4323 25.5906 53.389 25.4447C53.3539 25.3258 53.381 25.1907 53.381 25.088C53.1783 25.088 52.9864 25.1096 52.8053 25.0772C52.7242 25.0636 52.6621 24.9393 52.5918 24.8664C52.6621 24.8123 52.7269 24.7393 52.808 24.7042C52.9053 24.6637 53.0161 24.6529 53.1188 24.6258C53.7647 24.4583 53.9647 23.8583 54.3079 23.3989C54.4241 23.2449 54.5133 23.0719 54.6133 22.9097L54.6106 22.9124Z" fill="#F7F8C5"/>
<path d="M52.9233 24.0792C52.4801 24.0738 52.0909 23.5387 52.2422 23.1658C52.2639 23.1117 52.318 23.0469 52.3666 23.036C52.4099 23.0279 52.4963 23.0766 52.5152 23.1198C52.653 23.4279 52.78 23.7441 52.9206 24.0792H52.9233Z" fill="#F7F8C5"/>
<path d="M47.4199 27.2411C47.5659 27.1682 47.6659 27.0925 47.6929 27.1141C47.7956 27.1898 47.882 27.2952 47.9604 27.3979C47.9685 27.406 47.8469 27.5384 47.8334 27.5303C47.7118 27.46 47.601 27.3735 47.4199 27.2411Z" fill="#F7F8C5"/>
<path d="M9.14004 33.5813C9.06167 33.4434 8.96171 33.3164 8.91036 33.1678C8.6293 32.3435 8.36174 31.5139 8.08609 30.6869C7.22129 28.0844 6.95104 25.3521 6.33487 22.6956C6.11056 21.7308 5.88085 20.766 5.65925 19.7985C5.57006 19.4039 5.35658 19.2418 4.92958 19.1742C4.27558 19.0688 3.64316 18.831 3.00266 18.6445C2.89186 18.6121 2.78375 18.5608 2.65403 18.5121C2.82699 21.6146 2.29732 24.6981 2.8108 27.7709C2.77566 27.779 2.74056 27.7871 2.70543 27.7952C2.64597 27.6601 2.55405 27.5277 2.53514 27.3871C2.40542 26.4602 2.21083 25.5305 2.19191 24.6008C2.15678 22.9091 2.22704 21.2146 2.25136 19.5201C2.25676 19.1337 2.25136 18.7445 2.25136 18.4391C2.17569 18.2446 2.12166 18.1121 2.07031 17.9797C2.22436 17.9338 2.37839 17.877 2.53514 17.8419C2.59189 17.8284 2.66214 17.8635 2.7243 17.8824C3.64045 18.1608 4.54853 18.4716 5.47549 18.7013C5.74845 18.7688 5.86461 18.958 6.03757 19.1013C6.10513 19.158 6.05918 19.3364 6.09702 19.4472C6.65643 21.0768 6.99698 22.7577 7.27263 24.4522C7.66179 26.8628 8.32932 29.214 8.8401 31.5976C8.97252 32.2192 9.0914 32.8408 9.21572 33.4651C9.22112 33.4921 9.20766 33.5245 9.20226 33.5569C9.18064 33.565 9.15902 33.5732 9.13469 33.584L9.14004 33.5813Z" fill="#F7F8C5"/>
<path d="M10.6323 37.6515C10.1269 37.3434 9.50263 35.9543 9.64316 35.4922C9.94854 35.6273 10.6404 37.1137 10.6323 37.6515Z" fill="#F7F8C5"/>
</svg>
