<svg width="39" height="34" viewBox="0 0 39 34" fill="none" xmlns="http://www.w3.org/2000/svg">
<path d="M3.06944 11.3595C2.93681 11.638 2.87048 12.0094 2.64499 12.1553C2.24707 12.4206 1.76964 12.6594 1.3054 12.6859C0.390189 12.7522 0.13811 12.3675 0.575819 11.5452C1.10638 10.5371 1.02679 9.54233 0.73498 8.49448C0.257479 6.77017 0.111572 5.01933 0.482962 3.24197C0.642129 2.49919 1.07985 2.02168 1.82263 1.80946C5.12535 0.880984 8.48117 0.483068 11.9033 0.562652C12.2747 0.562652 12.6593 0.69529 13.0174 0.841193C14.5958 1.50439 16.1212 2.28696 17.7393 2.84404C18.3362 3.043 19.1719 2.92363 19.7688 2.64509C21.1482 2.00842 22.5277 1.53092 24.0663 1.74314C24.2918 1.76967 24.6234 1.70335 24.756 1.54418C25.711 0.43001 26.9313 0.469806 28.1913 0.735084C30.5258 1.23911 32.8735 1.74314 35.1947 2.30022C35.659 2.40634 36.1895 2.61856 36.4946 2.95016C36.8527 3.33481 37.1976 3.93169 37.1976 4.42246C37.1578 6.84976 37.5689 9.21073 38.1526 11.5452C38.2056 11.7309 38.2852 11.9298 38.272 12.1155C38.272 12.3675 38.2587 12.7522 38.1128 12.845C37.9139 12.9644 37.5159 12.9777 37.3036 12.845C36.2956 12.3012 35.3141 11.6911 34.2662 11.0809C34.1999 12.3278 34.1468 13.548 34.6376 14.7285C35.1549 15.9753 35.6457 17.2354 36.1099 18.4955C36.415 19.3179 36.2823 20.0606 35.6324 20.6973C35.4599 20.8697 35.3804 21.1615 35.3141 21.4268C34.6243 24.4377 33.3245 27.1436 30.8308 29.0536C30.1146 29.6107 28.9474 29.6372 27.9659 29.7831C27.5414 29.8494 27.2231 29.8627 26.9312 30.2473C25.459 32.1706 23.4163 33.1389 21.0819 33.2582C19.6229 33.3378 18.1108 33.0991 16.6915 32.7277C15.909 32.5155 15.2457 31.7727 14.5825 31.2023C14.2244 30.8973 13.9724 30.7779 13.4551 30.7912C11.187 30.8707 8.94539 30.7912 7.48636 28.5893C6.46503 27.0507 5.33762 25.5784 4.35609 24.0133C3.89185 23.2705 3.62654 22.4216 3.08272 21.6656C2.6848 21.0952 2.67154 20.127 2.75112 19.3709C2.93682 17.5272 3.29497 15.7101 3.52045 13.8796C3.6133 13.1369 3.53373 12.3675 3.53373 11.6115C3.37456 11.5187 3.21534 11.4258 3.05617 11.333L3.06944 11.3595ZM20.6707 17.7527L20.6442 17.7262C20.6839 18.973 20.7105 20.2065 20.7636 21.4533C20.7636 21.6921 20.8298 21.9706 20.9758 22.1431C22.6735 24.1061 24.3581 26.0825 26.1222 28.0057C27.0241 28.9873 29.5442 29.0801 30.5788 27.9659C32.2368 26.1886 33.4041 24.1592 34.2928 21.9441C34.3591 21.7849 34.3591 21.5992 34.4121 21.334C33.9744 21.4533 33.6429 21.5462 33.298 21.6258C32.2369 21.838 31.2818 21.4136 30.685 20.5249C29.7565 19.1587 28.8015 17.7925 27.8465 16.4396C26.5466 14.5959 24.8223 13.4154 22.594 12.9512C19.9677 12.4073 17.4476 12.5135 15.0998 13.999C13.3092 15.1397 12.2614 16.8242 11.4523 18.7077C10.9748 19.8219 10.5636 20.9758 9.99326 22.037C9.30353 23.3368 7.85776 23.9337 6.42526 23.6419C6.15998 23.5888 5.90794 23.5225 5.65593 23.4562C5.58961 23.5225 5.52326 23.5888 5.45694 23.6552C6.59763 25.1938 7.75163 26.7456 8.89233 28.2843C9.3831 28.9475 10.0595 29.1862 10.8554 29.3586C12.8847 29.7964 14.6357 29.5311 15.8957 27.7272C17.2486 25.8039 18.575 23.8806 19.8881 21.9308C19.9942 21.7717 19.9279 21.4931 19.9279 21.2809C19.9412 20.3126 19.9412 19.3444 19.981 18.3761C19.9942 17.9649 20.1004 17.5803 20.6707 17.7394V17.7527ZM36.6272 11.2932C36.6935 11.0677 36.7068 11.0412 36.7068 11.0146C36.3884 8.78629 35.8049 6.55795 36.5211 4.30308C36.5742 4.15718 36.415 3.8521 36.2691 3.74599C35.8845 3.48071 35.4865 3.20217 35.0488 3.09606C32.8867 2.57877 30.7115 2.088 28.5362 1.63703C27.3159 1.38501 26.0824 1.17279 25.0611 2.2737C24.8488 2.51245 24.3448 2.6053 23.9867 2.5655C22.6338 2.4196 21.44 2.85731 20.2197 3.33481C19.4504 3.63988 18.5087 3.97148 17.7659 3.79905C16.2803 3.45419 14.808 2.87057 13.4551 2.18085C12.4736 1.67682 11.5053 1.43807 10.4442 1.43807C9.97995 1.43807 9.51572 1.54418 9.03821 1.58398C6.79661 1.75641 4.58157 2.02168 2.44608 2.73794C1.88899 2.92363 1.47776 3.21544 1.47776 3.82558C1.47776 4.92648 1.37166 6.05392 1.57061 7.11503C1.83589 8.60059 2.41956 10.0331 1.54414 11.5452C4.05102 9.13115 6.04058 6.21308 9.13107 4.43572C9.0117 4.87343 8.81272 5.27135 8.53418 5.57642C7.20779 7.04871 5.84162 8.50775 4.4887 9.96678C4.09078 10.4045 3.91833 10.8422 4.14382 11.4523C4.64785 12.8981 4.52847 14.3837 4.30298 15.8825C4.13055 17.0232 4.01119 18.1904 3.8255 19.3311C3.6398 20.432 3.98466 21.082 5.05903 21.586C7.43328 22.7002 9.02494 21.9308 9.94015 19.7688C10.5503 18.3496 11.1605 16.9171 11.9563 15.6039C13.1766 13.6144 15.0335 12.3808 17.3414 11.9166C18.1373 11.7574 18.9729 11.7309 19.7157 11.638V6.57121C19.8085 6.55795 19.9014 6.54468 19.9942 6.51815C20.737 8.0833 20.6972 9.80761 20.7503 11.5319C21.0554 11.585 21.3206 11.6513 21.5859 11.6911C24.7958 12.2216 27.4221 13.6542 29.1331 16.5324C29.7963 17.6466 30.4993 18.7475 31.2686 19.7954C31.5073 20.1269 32.0246 20.5116 32.3695 20.4718C33.2715 20.3922 34.1601 20.0872 35.1152 19.8617C34.7305 18.5618 34.3591 17.4344 34.0672 16.2937C33.6428 14.5959 33.1256 12.9114 33.3776 11.0942C33.4439 10.63 33.0725 9.9933 32.7144 9.62191C31.4543 8.29552 30.0881 7.07524 28.8281 5.76211C28.1649 5.08565 27.6343 4.28982 27.0374 3.54704C27.117 3.46745 27.1966 3.3746 27.2894 3.29502C29.08 4.23676 30.4329 5.74885 31.9318 7.0885C33.4704 8.46795 35.0356 9.82088 36.6803 11.2666L36.6272 11.2932ZM20.3524 22.7532C19.0658 25.7111 17.368 28.2975 14.6091 30.3004C15.4712 30.9238 16.1477 31.6666 16.9833 31.9451C19.2912 32.7277 21.6124 32.5818 23.801 31.4411C24.7825 30.9371 25.6579 30.2341 26.4405 29.7168C24.358 27.3293 22.4216 25.1142 20.3524 22.7399V22.7532Z" fill="#F7F8C5"/>
<path d="M10.2035 11.7971C11.0259 11.7971 11.6493 12.4205 11.6361 13.1898C11.6228 14.0387 10.9994 14.6356 10.1505 14.6223C9.36794 14.6091 8.75781 13.9591 8.75781 13.1633C8.75781 12.3542 9.35464 11.7838 10.2035 11.7971Z" fill="#F7F8C5"/>
<path d="M29.9172 13.2563C29.9172 13.9062 29.3999 14.397 28.7499 14.397C28.047 14.397 27.3971 13.694 27.4104 12.9778C27.4104 12.3013 27.9542 11.8105 28.6572 11.8105C29.3602 11.8105 29.9437 12.4737 29.9305 13.2696L29.9172 13.2563Z" fill="#F7F8C5"/>
<path d="M20.6703 17.7528C20.2061 17.1427 20.3122 16.055 20.8958 15.5377C20.9886 15.4582 21.1876 15.3786 21.2407 15.4184C21.3468 15.498 21.4661 15.6836 21.4528 15.8163C21.4263 16.1346 21.3335 16.453 21.2009 17.0366C21.8906 16.8509 22.7129 16.8774 22.9517 16.506C23.3231 15.9224 22.4211 15.7234 22.1293 15.3123C21.0947 13.9063 19.5561 14.3175 18.243 14.4766C17.6726 14.5429 17.1952 15.498 16.5983 16.1346C17.288 16.5325 17.8186 16.8509 18.5216 17.2488C18.495 16.8509 18.4154 16.5591 18.4817 16.3203C18.5481 16.0418 18.7603 15.803 18.9062 15.551C19.1449 15.7367 19.5429 15.8959 19.5694 16.1081C19.6224 16.5856 19.5959 17.1162 19.4235 17.5539C19.145 18.2303 18.6675 18.2966 18.0308 17.8987C17.4737 17.5539 16.9033 17.1957 16.3197 16.8907C15.8157 16.6254 15.7229 16.254 15.9749 15.803C16.2402 15.3255 16.532 14.848 16.8503 14.397C17.3411 13.6941 18.0175 13.442 18.8929 13.3625C20.8294 13.19 22.315 13.8267 23.5353 15.3255C24.2781 16.2407 23.9333 17.5008 22.766 17.6998C22.0763 17.8191 21.3467 17.7263 20.6438 17.7396L20.6703 17.7661V17.7528Z" fill="#F7F8C5"/>
</svg>
