<svg width="58" height="35" viewBox="0 0 58 35" fill="none" xmlns="http://www.w3.org/2000/svg">
<path d="M8.94452 17.3689C8.53224 14.3236 11.1296 14.3337 12.9436 13.7809C16.5613 12.6653 20.2717 11.8111 23.9203 10.7759C24.3017 10.6653 24.7139 10.1025 24.817 9.68043C25.1881 8.14274 26.0332 7.08746 27.6411 6.70555C28.4759 6.50455 28.7439 5.96184 28.7954 5.22817C28.8676 4.12264 28.9191 3.00707 29.0016 1.90154C29.0325 1.48948 29.115 1.07742 29.1768 0.665363C29.3108 0.635212 29.4345 0.615112 29.5685 0.584961C29.8055 1.20808 30.1456 1.81109 30.259 2.45431C30.3621 3.02717 30.2178 3.64023 30.2075 4.24325C30.1869 5.38897 30.1456 6.23319 31.3722 7.25832C32.7739 8.4342 33.7943 8.26334 35.2166 8.00204C37.8654 7.52967 40.5452 7.21812 43.2044 6.76586C45.0699 6.44425 46.2346 7.39902 46.987 8.7759C48.131 10.8563 48.667 13.1478 48.5021 15.5297C48.4093 16.7457 48.7082 17.3387 50.0481 17.6603C52.5011 18.2633 54.748 19.3287 56.1497 21.5498C57.1804 23.1779 57.2526 24.9869 57.1083 26.8261C57.0774 27.2884 57.0361 27.7809 57.1392 28.2332C57.5721 30.0724 56.9846 31.7507 55.2118 32.3638C52.9546 33.1377 50.5944 33.811 48.2238 34.0523C44.4618 34.4342 40.6586 34.4844 36.8657 34.5648C33.7015 34.6251 30.527 34.5347 27.3628 34.4945C25.3014 34.4643 23.2298 34.5347 21.1787 34.3437C16.6849 33.9115 12.1912 33.4291 7.718 32.796C6.15137 32.5749 4.40952 32.1729 3.183 31.2884C0.595994 29.4291 -0.238858 26.7357 0.57538 23.6603C1.59576 19.791 3.28607 18.2734 8.94452 17.3689ZM8.99605 18.8462C7.03776 18.7759 3.64681 20.6151 2.86349 22.1427C2.76043 22.3437 2.70889 22.5849 2.66766 22.8161C2.34815 24.595 3.12116 25.992 4.69811 26.6352C6.66671 27.4291 8.7693 28.0221 10.8616 28.404C17.2003 29.5598 23.642 29.6 30.0632 29.5598C34.3096 29.5397 38.5457 29.0874 42.7921 28.8663C46.1934 28.6854 49.5328 28.193 52.8 27.198C54.6965 26.6151 55.5623 24.6854 54.7068 22.9467C53.3772 20.2432 50.5325 19.9015 48.2341 18.6854C47.8734 20.203 47.5951 21.5598 47.2137 22.8864C46.9354 23.8513 46.5438 24.8563 45.3276 24.9769C43.8331 25.1276 42.318 25.208 40.8235 25.198C38.4426 25.1779 36.0618 25.007 33.6809 24.997C31.7638 24.997 29.8467 25.2181 27.9297 25.208C22.9103 25.1779 17.8805 25.0975 12.8611 24.997C11.851 24.9769 10.841 24.806 9.84121 24.6653C8.9136 24.5347 8.56316 23.9518 8.63531 23.0874C8.74869 21.7005 8.87237 20.3236 8.99605 18.8462ZM46.0697 20.6251C46.2037 19.2985 46.3067 18.2231 46.4304 17.0573C34.2478 16.7457 22.23 16.4442 10.3565 16.1427V21.0171C22.2197 20.8864 34.0622 20.7558 46.0697 20.6251ZM55.1809 27.9216C53.0062 28.4744 50.883 29.1578 48.7185 29.5095C46.2449 29.9116 43.73 30.0623 41.2255 30.2633C37.9685 30.5246 34.7013 30.8261 31.434 30.9467C29.1974 31.0271 26.9505 30.7859 24.7036 30.7558C23.776 30.7457 22.8381 31.0171 21.9208 30.9467C17.8805 30.605 13.8299 30.2432 9.81029 29.7507C6.97591 29.409 4.14154 28.8864 2.1214 26.595C2.06987 26.5347 1.93588 26.5447 1.8122 26.5146C2.47183 29.6402 3.60558 30.7457 6.78008 31.2985C7.90353 31.4995 9.04758 31.6402 10.1813 31.7608C13.8712 32.1628 17.561 32.6653 21.2715 32.9065C25.2705 33.1678 29.2799 33.2784 33.2789 33.2583C37.783 33.2382 42.2871 33.0975 46.7705 32.796C48.9453 32.6452 51.12 32.1126 53.2123 31.5095C53.9132 31.3085 54.4903 30.394 54.9026 29.6904C55.2015 29.1779 55.1191 28.4643 55.1912 27.9317L55.1809 27.9216ZM9.65569 22.9166C10.2844 23.2281 10.6554 23.5297 11.0574 23.59C12.0159 23.7206 12.9951 23.791 13.9639 23.801C19.1586 23.8312 24.3635 23.8412 29.5581 23.8513C34.3508 23.8513 39.1435 23.8211 43.9465 23.8513C45.1421 23.8513 45.5028 23.2382 45.5646 22.3839C33.9282 22.3839 22.3228 22.3839 10.7276 22.404C10.4905 22.404 10.2432 22.6352 9.6763 22.9367L9.65569 22.9166ZM39.7825 15.4091C41.6171 15.5096 43.3796 15.59 45.1421 15.7005C45.9357 15.7508 46.3686 15.5096 46.3273 14.6452C46.2861 13.7407 46.3273 12.8362 46.3273 11.7709C44.4515 12.0523 42.7921 12.2935 41.1327 12.5648C40.9781 12.595 40.8029 12.806 40.7307 12.9669C40.4009 13.7608 40.102 14.5749 39.7825 15.399V15.4091ZM28.2595 12.6452C30.0013 12.6452 31.6814 11.7206 31.6814 10.7659C31.6814 9.60002 30.3002 8.29349 29.0325 8.24324C27.6205 8.19299 26.1363 9.28847 26.1157 10.3839C26.0951 11.9417 26.7547 12.6352 28.2492 12.6452H28.2595ZM36.7214 9.18796C35.433 9.44927 34.3405 9.67038 33.3098 9.88143C33.6809 12.1628 31.9287 13.6 31.3412 15.4794C32.1761 15.4794 32.9594 15.5096 33.7324 15.4694C34.0313 15.4493 34.4848 15.3789 34.5879 15.1779C35.6186 13.3488 36.5359 11.4694 36.7214 9.17791V9.18796ZM40.5143 8.80605C38.1643 8.6352 37.783 8.93671 37.7108 10.7156C37.6902 11.1076 37.649 11.5096 37.5356 11.8814C37.1646 13.0573 36.7626 14.2332 36.371 15.399C37.3192 15.7005 37.9582 15.3789 38.3189 14.4241C39.0198 12.5849 39.7516 10.7558 40.5246 8.80605H40.5143ZM22.4258 12.9166C23.137 13.2282 23.539 13.2784 23.6833 13.4895C24.6521 14.9166 26.0229 15.2985 27.7235 15.3588C28.9088 15.399 29.5581 15.1578 29.8674 14.0824C29.7849 14.0623 29.7024 14.002 29.6303 14.0221C27.7029 14.5849 26.1569 14.1729 25.0231 12.4442C24.8582 12.1829 24.2398 12.0322 23.8894 12.1025C23.4359 12.193 23.0442 12.5548 22.4258 12.9166ZM45.7502 10.0925C44.9668 8.37389 44.3175 8.14274 41.5244 8.595C41.4625 9.35882 41.411 10.1327 41.3388 11.0674C42.9364 10.7156 44.3381 10.4141 45.7502 10.1025V10.0925ZM22.5392 14.9166C22.23 14.1528 21.9517 13.4794 21.6528 12.7256C20.7149 12.987 19.8388 13.2181 18.9112 13.4794C19.8182 14.9669 21.055 15.1779 22.5495 14.9166H22.5392ZM17.7775 15.0674C17.8599 14.9367 17.9321 14.806 18.0145 14.6854C17.6847 14.4442 17.293 13.9618 17.0251 14.0121C15.8707 14.2533 14.7473 14.6653 13.428 15.0674H17.7878H17.7775Z" fill="#F7F8C5"/>
</svg>
