<svg width="50" height="57" viewBox="0 0 50 57" fill="none" xmlns="http://www.w3.org/2000/svg">
<path d="M44.0719 28.0028C46.8448 38.0247 41.0986 48.3463 31.2587 51.0687C21.4188 53.7912 11.1845 47.891 8.41166 37.8691C5.63884 27.8471 11.385 17.5256 21.2249 14.8031C31.0648 12.0807 41.2991 17.9808 44.0719 28.0028Z" stroke="#F7F8C5"/>
<path d="M17.0895 31.9862C16.8916 30.5241 18.1387 30.5289 19.0096 30.2635C20.7466 29.7279 22.5281 29.3177 24.2799 28.8207C24.463 28.7676 24.6609 28.4974 24.7104 28.2947C24.8885 27.5564 25.2943 27.0498 26.0663 26.8664C26.4672 26.7699 26.5958 26.5093 26.6206 26.1571C26.6552 25.6263 26.6799 25.0907 26.7195 24.5599C26.7344 24.362 26.774 24.1642 26.8037 23.9663C26.868 23.9519 26.9274 23.9422 26.9917 23.9277C27.1055 24.2269 27.2688 24.5164 27.3233 24.8253C27.3727 25.1003 27.3035 25.3947 27.2985 25.6842C27.2886 26.2343 27.2688 26.6396 27.8577 27.1318C28.5307 27.6964 29.0206 27.6144 29.7035 27.4889C30.9753 27.2621 32.262 27.1125 33.5387 26.8954C34.4344 26.741 34.9936 27.1994 35.3549 27.8604C35.9041 28.8593 36.1615 29.9595 36.0823 31.1031C36.0378 31.687 36.1813 31.9717 36.8246 32.1261C38.0024 32.4156 39.0811 32.9271 39.7542 33.9935C40.249 34.7753 40.2837 35.6438 40.2144 36.5269C40.1995 36.7489 40.1797 36.9853 40.2292 37.2024C40.4371 38.0855 40.155 38.8913 39.3038 39.1857C38.2201 39.5572 37.0869 39.8806 35.9487 39.9964C34.1424 40.1797 32.3164 40.2039 30.4953 40.2425C28.9761 40.2714 27.4519 40.228 25.9327 40.2087C24.943 40.1942 23.9483 40.228 22.9635 40.1363C20.8059 39.9288 18.6484 39.6972 16.5007 39.3932C15.7485 39.287 14.9122 39.094 14.3233 38.6694C13.0812 37.7767 12.6803 36.4835 13.0713 35.0069C13.5612 33.1491 14.3728 32.4205 17.0895 31.9862ZM17.1143 32.6955C16.1741 32.6617 14.546 33.5448 14.1699 34.2782C14.1204 34.3748 14.0956 34.4906 14.0758 34.6015C13.9224 35.4556 14.2936 36.1264 15.0507 36.4352C15.9959 36.8164 17.0054 37.1011 18.01 37.2845C21.0534 37.8394 24.1463 37.8587 27.2292 37.8394C29.2681 37.8298 31.3019 37.6126 33.3408 37.5064C34.9738 37.4196 36.5772 37.1831 38.1459 36.7054C39.0564 36.4256 39.4721 35.4991 39.0614 34.6643C38.423 33.3662 37.0572 33.2022 35.9536 32.6183C35.7804 33.3469 35.6468 33.9984 35.4637 34.6353C35.3301 35.0986 35.1421 35.5811 34.5581 35.639C33.8406 35.7114 33.1131 35.75 32.3956 35.7452C31.2525 35.7355 30.1093 35.6535 28.9662 35.6487C28.0458 35.6487 27.1253 35.7548 26.2049 35.75C23.7949 35.7355 21.38 35.6969 18.97 35.6487C18.4851 35.639 18.0001 35.557 17.5201 35.4894C17.0747 35.4267 16.9064 35.1468 16.9411 34.7318C16.9955 34.0659 17.0549 33.4048 17.1143 32.6955ZM34.9144 33.5496C34.9788 32.9127 35.0282 32.3963 35.0876 31.8366C29.2384 31.687 23.4683 31.5422 17.7675 31.3975L17.7675 33.7378C23.4634 33.6751 29.1493 33.6123 34.9144 33.5496ZM39.289 37.0529C38.2448 37.3183 37.2254 37.6464 36.1862 37.8153C34.9986 38.0083 33.7911 38.0807 32.5886 38.1772C31.0248 38.3026 29.4561 38.4474 27.8874 38.5053C26.8136 38.5439 25.7348 38.4281 24.656 38.4136C24.2106 38.4088 23.7603 38.5391 23.3198 38.5053C21.38 38.3412 19.4352 38.1675 17.5052 37.9311C16.1444 37.767 14.7835 37.5161 13.8136 36.4159C13.7888 36.387 13.7245 36.3918 13.6651 36.3773C13.9818 37.878 14.5262 38.4088 16.0503 38.6742C16.5897 38.7707 17.139 38.8383 17.6834 38.8962C19.455 39.0892 21.2266 39.3305 23.0081 39.4463C24.9281 39.5717 26.8531 39.6248 28.7732 39.6152C30.9357 39.6055 33.0983 39.5379 35.2509 39.3932C36.2951 39.3208 37.3392 39.0651 38.3438 38.7755C38.6803 38.679 38.9574 38.2399 39.1554 37.9021C39.2989 37.656 39.2593 37.3134 39.2939 37.0577L39.289 37.0529ZM17.431 34.6498C17.7329 34.7994 17.911 34.9442 18.104 34.9731C18.5642 35.0358 19.0343 35.0696 19.4995 35.0744C21.9936 35.0889 24.4927 35.0937 26.9868 35.0986C29.2879 35.0986 31.589 35.0841 33.895 35.0986C34.469 35.0986 34.6422 34.8042 34.6719 34.3941C29.085 34.3941 23.5128 34.3941 17.9457 34.4037C17.8318 34.4037 17.7131 34.5147 17.4409 34.6595L17.431 34.6498ZM31.8958 31.0452C32.7766 31.0935 33.6228 31.1321 34.469 31.1852C34.8501 31.2093 35.0579 31.0935 35.0381 30.6785C35.0183 30.2442 35.0381 29.8099 35.0381 29.2984C34.1375 29.4335 33.3408 29.5493 32.544 29.6796C32.4698 29.6941 32.3857 29.7954 32.351 29.8726C32.1927 30.2539 32.0492 30.6447 31.8958 31.0404L31.8958 31.0452ZM26.3632 29.7182C27.1995 29.7182 28.0062 29.2743 28.0062 28.8159C28.0062 28.2561 27.3431 27.6288 26.7344 27.6047C26.0564 27.5806 25.3438 28.1065 25.3339 28.6325C25.324 29.3805 25.6407 29.7134 26.3583 29.7182L26.3632 29.7182ZM30.426 28.0583C29.8075 28.1837 29.2829 28.2899 28.7881 28.3912C28.9662 29.4866 28.1249 30.1766 27.8429 31.079C28.2437 31.079 28.6198 31.0935 28.9909 31.0742C29.1345 31.0645 29.3522 31.0307 29.4017 30.9342C29.8965 30.056 30.337 29.1537 30.426 28.0535L30.426 28.0583ZM32.2471 27.8749C31.1188 27.7929 30.9357 27.9377 30.9011 28.7918C30.8912 28.9799 30.8714 29.173 30.817 29.3515C30.6388 29.9161 30.4458 30.4806 30.2578 31.0404C30.7131 31.1852 31.0199 31.0307 31.1931 30.5723C31.5296 29.6893 31.8809 28.8111 32.2521 27.8749L32.2471 27.8749ZM23.5623 29.8485C23.9038 29.9981 24.0968 30.0222 24.1661 30.1236C24.6312 30.8088 25.2894 30.9921 26.1059 31.0211C26.675 31.0404 26.9868 30.9246 27.1352 30.4083C27.0956 30.3986 27.056 30.3697 27.0214 30.3793C26.096 30.6495 25.3537 30.4517 24.8094 29.6217C24.7302 29.4963 24.4333 29.4239 24.265 29.4577C24.0473 29.5011 23.8592 29.6748 23.5623 29.8485ZM34.761 28.4926C34.3849 27.6674 34.0732 27.5564 32.7321 27.7736C32.7024 28.1403 32.6777 28.5119 32.643 28.9606C33.41 28.7918 34.0831 28.647 34.761 28.4974L34.761 28.4926ZM23.6168 30.8088C23.4683 30.442 23.3347 30.1187 23.1912 29.7568C22.7409 29.8823 22.3202 29.9933 21.8748 30.1187C22.3103 30.8329 22.9042 30.9342 23.6217 30.8088L23.6168 30.8088ZM21.3305 30.8812C21.3701 30.8184 21.4047 30.7557 21.4443 30.6978C21.286 30.582 21.0979 30.3504 20.9693 30.3745C20.415 30.4903 19.8756 30.6881 19.2422 30.8812L21.3355 30.8812L21.3305 30.8812Z" fill="#F7F8C5"/>
<path d="M21.5866 9.17073L20.8524 5.38308L19.6318 5.62424L19.5319 5.08867L22.5407 4.50564L22.6481 5.03914L21.4179 5.27491L22.1521 9.06255L21.594 9.16866L21.5866 9.17073Z" fill="#F7F8C5"/>
<path d="M24.7618 8.78323C24.296 8.81554 23.9072 8.68978 23.5804 8.41009C23.2516 8.12293 23.0693 7.75497 23.0411 7.30415C23.0054 6.8554 23.1312 6.46659 23.4183 6.13771C23.698 5.8109 24.0735 5.62657 24.5393 5.59425C24.9975 5.56401 25.3939 5.68769 25.7207 5.96738C26.0495 6.25455 26.2318 6.62251 26.26 7.07333C26.2956 7.52208 26.1699 7.9109 25.8827 8.23977C25.5955 8.56865 25.2276 8.75091 24.7693 8.78116L24.7618 8.78323ZM23.9415 8.02858C24.1551 8.21891 24.4132 8.30842 24.7287 8.2855C25.0442 8.26258 25.2817 8.13249 25.4625 7.9135C25.6433 7.69452 25.7212 7.42354 25.6983 7.10805C25.6754 6.79255 25.5582 6.54338 25.3425 6.34557C25.1289 6.15524 24.8708 6.06573 24.5628 6.08658C24.2548 6.10744 24.0098 6.23959 23.8269 6.4511C23.6461 6.67009 23.5682 6.94107 23.5911 7.25656C23.6141 7.57206 23.7313 7.82124 23.9469 8.01904L23.9415 8.02858Z" fill="#F7F8C5"/>
<path d="M27.1557 5.53846L27.689 5.57596L27.6705 5.88685C27.9397 5.66754 28.2739 5.56701 28.6794 5.60768C29.1319 5.64343 29.4957 5.82437 29.771 6.15051C30.0463 6.47664 30.1708 6.86861 30.1351 7.32102C30.0993 7.77344 29.9205 8.14476 29.6039 8.42546C29.2798 8.70822 28.8953 8.83069 28.4429 8.79494C28.0395 8.76174 27.72 8.62485 27.4857 8.35978L27.3788 9.80544L26.8454 9.76795L27.1632 5.53639L27.1557 5.53846ZM28.4642 8.29021C28.7676 8.31086 29.0175 8.22561 29.2311 8.0378C29.4426 7.8425 29.5587 7.59315 29.5847 7.28019C29.6108 6.96724 29.5288 6.70025 29.3464 6.47716C29.164 6.25407 28.9222 6.13593 28.6242 6.10574C28.4112 6.09224 28.2107 6.12358 28.0396 6.20311C27.861 6.2847 27.7227 6.39539 27.6171 6.53724L27.5283 7.72847C27.6111 7.88255 27.7272 8.01135 27.8936 8.1182C28.0599 8.22505 28.2458 8.28626 28.4588 8.29976L28.4642 8.29021Z" fill="#F7F8C5"/>
<path d="M31.1079 9.09501L31.629 6.52903L30.6666 6.33669L30.7601 5.86025L33.2389 6.35717L33.1455 6.83359L32.1395 6.62917L31.6184 9.19516L31.0984 9.08961L31.1079 9.09501Z" fill="#F7F8C5"/>
</svg>
