<svg width="66" height="67" viewBox="0 0 66 67" fill="none" xmlns="http://www.w3.org/2000/svg">
<path d="M49.893 27.5455C55.4601 36.4817 52.8411 48.1525 44.0671 53.6186C35.293 59.0848 23.6628 56.291 18.0957 47.3548C12.5286 38.4186 15.1476 26.7478 23.9217 21.2817C32.6957 15.8156 44.3259 18.6094 49.893 27.5455Z" stroke="#F7F8C5"/>
<path d="M39.0929 49.5392C39.2939 49.8018 39.483 50.0488 39.6721 50.2957C39.6945 50.2904 39.7168 50.2865 39.7378 50.2812C39.7746 50.1289 39.8114 49.9765 39.856 49.7887C39.8888 49.8334 39.9335 49.8662 39.9414 49.9069C40.0202 50.2904 39.8442 50.6161 39.4804 50.7685C39.3609 50.8184 39.3162 50.8026 39.1757 50.6726C39.1192 50.7698 39.0746 50.8867 38.9931 50.9681C38.9524 51.0088 38.8434 50.9983 38.7685 50.9852C38.674 50.9681 38.5847 50.9261 38.4809 50.9248C38.5321 50.9589 38.582 50.9957 38.6359 51.0272C38.8513 51.1546 38.938 51.3516 38.9458 51.5933C38.9498 51.739 38.9393 51.873 38.7278 51.8809C39.1166 51.9308 39.1744 52.2014 39.1704 52.5533C39.2991 52.3393 39.4515 52.2526 39.6616 52.2775C39.8888 52.3051 39.8993 52.5336 40.0254 52.6597C39.9611 52.1659 39.9873 52.1396 40.5429 52.1331C40.4904 52.0543 40.4352 51.986 40.3958 51.9072C40.3761 51.8678 40.3879 51.8113 40.3866 51.764C40.4326 51.7745 40.4903 51.7706 40.5245 51.7981C40.6663 51.9124 40.8003 52.0385 40.9409 52.1554C40.9697 52.1803 41.0157 52.1843 41.0538 52.1987C41.0853 52.2105 41.1194 52.2211 41.147 52.2394C41.1838 52.2644 41.214 52.2972 41.2468 52.3261C41.281 52.2867 41.3151 52.246 41.3545 52.1987C41.2876 52.1567 41.2429 52.1291 41.1877 52.0937C41.3191 52.0595 41.4294 52.1186 41.4623 52.2289C41.4977 52.3484 41.4307 52.4798 41.3138 52.5218C41.1588 52.577 41.0197 52.4916 40.9395 52.2959C40.8043 52.3104 40.6703 52.3366 40.5376 52.334C40.4037 52.3314 40.2697 52.3012 40.0911 52.2775C40.2119 52.531 40.204 52.8002 40.4326 52.967C40.5206 53.0314 40.5297 53.2008 40.4536 53.3111C40.3787 53.4202 40.2395 53.4622 40.1371 53.3913C40.0175 53.3098 39.9493 53.1995 39.9795 53.0419C39.9887 52.9959 39.9742 52.9368 39.9519 52.8935C39.8915 52.7779 39.8192 52.6676 39.7523 52.556C39.6564 52.3944 39.5132 52.3865 39.3963 52.5363C39.3569 52.5862 39.332 52.6505 39.286 52.6886C39.2125 52.749 39.1258 52.7924 39.0601 52.8331C39.1231 52.9237 39.202 53.017 39.2545 53.122C39.3005 53.2126 39.244 53.2822 39.1586 53.323C39.0404 53.3794 38.8644 53.34 38.7856 53.2389C38.6845 53.1115 38.7514 52.9894 38.8434 52.9211C38.9419 52.8475 38.9406 52.7635 38.9458 52.6715C38.9524 52.5612 38.9577 52.4509 38.9498 52.3419C38.9366 52.1449 38.8237 52.074 38.653 52.1633C38.5545 52.2145 38.431 52.2394 38.3942 52.3905C38.385 52.4299 38.1985 52.4483 38.0987 52.4351C38.0396 52.4286 37.9608 52.3511 37.9438 52.2907C37.9096 52.1711 38.1079 52.049 38.2497 52.1028C38.3588 52.1436 38.4336 52.1777 38.3982 52.0017C38.3903 51.9636 38.4533 51.9085 38.4862 51.8638C38.5426 51.789 38.6109 51.722 38.6569 51.6419C38.7199 51.5329 38.7226 51.4068 38.6267 51.3214C38.5216 51.2268 38.4402 51.0771 38.2458 51.1336C38.1106 51.173 37.9832 51.1297 37.9083 50.997C37.8347 50.8683 37.8886 50.7619 38.0357 50.7264C38.0501 50.7961 38.0646 50.8657 38.0817 50.9471C38.1631 50.8946 38.2169 50.8578 38.2839 50.8144C38.2432 50.7829 38.2025 50.7501 38.121 50.6857C38.2511 50.6792 38.3443 50.6752 38.4455 50.67C38.3562 50.5912 38.2655 50.5124 38.1815 50.4401C37.6483 50.8867 37.0546 51.2597 36.3349 51.4041C36.1838 51.4343 36.0407 51.5079 35.8988 51.5736C35.2711 51.8612 34.6735 52.2211 33.9945 52.3826C33.7515 52.4404 33.4901 52.4982 33.2485 52.4667C32.949 52.4259 32.6364 52.3366 32.3738 52.1882C31.9771 51.9663 31.5779 51.7535 31.2312 51.4278C30.8371 51.0587 30.5403 50.6476 30.2947 50.1827C30.2711 50.1381 30.2382 50.0987 30.2054 50.0527C30.4943 49.8701 30.7859 49.6941 31.0683 49.5037C31.4702 49.2332 31.8484 48.9363 32.1229 48.5253C32.3147 48.2389 32.2753 47.8594 32.0218 47.7136C31.8248 47.6007 31.6173 47.5639 31.3887 47.6309C30.8765 47.7806 30.3591 47.9027 29.8666 48.1221C29.6867 48.2022 29.4424 48.1562 29.2309 48.1365C29.0103 48.1155 28.8185 48.0104 28.6255 47.8935C27.8585 47.4273 27.0888 46.9676 26.3074 46.5276C25.6205 46.1428 25.0019 45.6726 24.4109 45.1578C23.7818 44.6101 23.1277 44.0913 22.4986 43.545C22.19 43.2771 21.9221 42.9632 21.6174 42.6913C21.0605 42.1935 20.6336 41.5868 20.1989 40.9892C20.0636 40.804 19.998 40.5479 19.9625 40.3141C19.8128 39.3357 19.6946 38.3506 19.5475 37.3722C19.3466 36.0339 19.4582 34.6943 19.4963 33.3533C19.5107 32.8293 19.5317 32.3039 19.5567 31.7799C19.5593 31.7116 19.5895 31.6381 19.6263 31.579C19.7524 31.3793 19.9047 31.1955 20.0177 30.9893C20.1884 30.678 20.4432 30.5112 20.7873 30.46C20.9016 30.4429 21.0145 30.4166 21.1235 30.3812C21.4597 30.2709 21.7855 30.2879 22.0665 30.5073C22.2977 30.6872 22.5722 30.762 22.8283 30.8763C23.6426 31.2375 24.4647 31.5829 25.2842 31.9336C25.3617 31.9664 25.4379 32.0071 25.518 32.0242C25.7846 32.0793 25.9331 32.2737 26.1077 32.4602C26.5792 32.9685 26.6974 33.6462 27.0048 34.2306C27.1466 34.4999 27.274 34.777 27.429 35.0384C27.5511 35.2459 27.7297 35.3838 27.9832 35.4402C28.1198 35.4704 28.242 35.5926 28.3562 35.6885C28.4416 35.7607 28.5059 35.766 28.5874 35.6977C29.0773 35.2905 29.663 35.0856 30.258 34.8873C30.6901 34.7428 31.0946 34.865 31.5096 34.9346C31.809 34.9858 32.1098 35.0305 32.4105 35.0738C32.8558 35.1369 33.4376 34.7652 33.5689 34.4355C33.6412 34.2569 33.7082 34.073 33.7463 33.8852C33.8054 33.6028 33.9419 33.3769 34.1271 33.1576C34.4174 32.8135 34.6906 32.455 34.9493 32.0859C35.1712 31.7694 35.4825 31.5724 35.799 31.3754C35.9185 31.3018 36.0354 31.2217 36.1471 31.135C36.8497 30.5913 37.3816 29.9018 37.8492 29.1545C38.3325 28.3809 38.8132 27.606 39.3228 26.8495C39.8993 25.9932 40.5048 25.1566 41.1011 24.3148C41.2337 24.1269 41.3729 23.9418 41.5279 23.7737C41.591 23.7054 41.7026 23.6581 41.7971 23.6449C42.2463 23.5832 42.6114 23.75 42.8912 24.0994C43.2865 24.5919 43.8171 24.8979 44.3634 25.1842C45.0425 25.5401 45.619 26.0156 46.1089 26.6053C47.0335 27.719 47.5891 29.0074 47.9634 30.3891C48.0947 30.8737 48.2523 31.3517 48.4152 31.8272C48.6253 32.4418 48.7081 33.0814 48.8105 33.7171C48.8499 33.9653 48.8985 34.2122 48.9353 34.4618C49.0114 34.974 49.102 35.4849 49.1506 35.9997C49.2281 36.8206 49.37 37.6283 49.5499 38.4308C49.588 38.6015 49.5328 38.6803 49.391 38.7525C48.7422 39.0848 48.0947 39.4171 47.4512 39.7586C46.738 40.1381 46.1155 40.6451 45.5035 41.1665C45.2487 41.3845 44.9689 41.5736 44.7089 41.7864C44.4475 42.0031 44.1875 42.2237 43.9458 42.4615C43.8434 42.5626 43.754 42.6138 43.6096 42.6086C43.3062 42.5967 43.3075 42.6059 43.2011 42.8936C43.0803 43.2232 42.9805 43.5634 42.8229 43.876C42.6429 44.2319 42.3698 44.5037 41.9666 44.6351C41.6697 44.731 41.3861 44.8715 41.1037 45.0041C41.0354 45.0357 40.975 45.1118 40.9409 45.1828C40.8634 45.343 40.8121 45.515 40.7399 45.6779C40.3695 46.5079 39.9965 47.3367 39.6222 48.1654C39.5526 48.3177 39.4567 48.4596 39.4029 48.6172C39.3569 48.7525 39.3543 48.9009 39.3307 49.044C39.3005 49.224 39.2926 49.4131 39.0995 49.5339L39.0929 49.5392ZM38.5847 48.4911C38.5939 48.7065 38.7633 48.6632 38.8828 48.6645C39.0036 48.6645 38.9747 48.5489 38.9879 48.4714C38.9918 48.4451 38.9997 48.4202 39.0089 48.3965C39.1875 47.9671 39.3596 47.5337 39.55 47.1095C39.6826 46.8139 39.8534 46.5355 39.9887 46.24C40.1962 45.7869 40.3905 45.3285 40.5823 44.8689C40.6519 44.7007 40.7438 44.5248 40.7478 44.3514C40.7556 43.9587 40.7425 43.5621 40.6873 43.1746C40.5941 42.5219 40.4588 41.8744 40.3446 41.2243C40.3314 41.1534 40.3314 41.0798 40.3249 41.0076C40.3459 41.0036 40.3669 41.001 40.3879 40.9971C40.6716 41.504 40.7661 42.0727 40.8489 42.6348C40.9329 43.2075 40.9579 43.7893 41.0104 44.3763C41.1733 44.4052 41.3349 44.3278 41.4925 44.2437C41.52 44.2293 41.5476 44.1912 41.5515 44.1623C41.591 43.8352 41.6435 43.5082 41.6553 43.1786C41.6711 42.7176 41.6724 42.254 41.6461 41.7943C41.6251 41.4121 41.5542 41.0312 41.5056 40.6503H41.4662C41.3979 41.0365 41.3664 41.4318 41.1694 41.7811L41.1234 41.772C41.2088 41.2755 41.2928 40.7791 41.3782 40.2852C41.6251 40.2984 41.6304 40.297 41.6921 40.4901C41.8641 41.0273 41.9456 41.5802 41.9797 42.1436C42.0178 42.7583 42.0362 43.3703 41.8484 43.9692C41.8339 44.0152 41.8589 44.1163 41.8799 44.1216C41.9403 44.1347 42.0349 44.1347 42.0703 44.0966C42.2621 43.897 42.4368 43.6881 42.5405 43.4189C42.6889 43.0328 42.8675 42.6585 43.0461 42.2842C43.0737 42.2264 43.1657 42.1555 43.2221 42.1607C43.5715 42.1935 43.7816 41.9755 44.0102 41.7706C44.3017 41.5093 44.5894 41.2374 44.9111 41.0194C45.3708 40.7094 45.8607 40.4441 46.3348 40.1578C46.3821 40.1289 46.4254 40.0843 46.4596 40.0396C46.6644 39.7678 46.8733 39.4985 47.069 39.2188C47.7624 38.2259 48.1985 37.1266 48.3981 35.9354C48.4427 35.6675 48.406 35.3746 48.5018 35.129C48.6017 34.8716 48.49 34.668 48.469 34.4408C48.4677 34.4198 48.4625 34.3987 48.4598 34.379C48.3758 33.8038 48.3009 33.2259 48.205 32.6533C48.1499 32.3289 48.0619 32.0097 47.9831 31.6893C47.8649 31.206 47.8084 30.6951 47.6101 30.2485C47.2423 29.4211 46.7892 28.6318 46.3703 27.8267C46.3558 27.7991 46.3296 27.7794 46.3085 27.7558L46.2836 27.7676C46.298 27.8516 46.3112 27.9357 46.3256 28.0198C46.2678 27.9974 46.21 27.9593 46.1995 27.9121C46.1719 27.786 46.0853 27.7518 45.9802 27.7558C45.64 27.7689 45.2933 27.7531 44.9623 27.8175C44.4226 27.9212 43.892 28.0749 43.3601 28.2154C43.2734 28.2378 43.1906 28.2942 43.121 28.3533C42.8715 28.5687 42.6469 28.8196 42.379 29.0087C41.5135 29.6207 40.56 30.0594 39.5264 30.2919C38.9367 30.4245 38.3509 30.3996 37.8991 29.8979C37.8938 29.8926 37.8807 29.8939 37.8636 29.8913C37.6495 30.1645 37.4539 30.46 37.2122 30.7135C36.9311 31.009 36.6107 31.2651 36.3113 31.5422C36.2679 31.5829 36.218 31.6354 36.2075 31.6893C36.0919 32.2961 35.9803 32.9041 35.8739 33.5135C35.8371 33.725 35.7859 33.943 35.8056 34.1518C35.8476 34.5997 35.9382 35.0423 35.9934 35.4901C36.042 35.8842 36.0827 36.2808 36.1011 36.6774C36.1077 36.8206 36.0367 36.9677 36.0013 37.1121C35.9855 37.1082 35.9698 37.1043 35.954 37.1016C35.9435 37.0452 35.9304 36.9887 35.9238 36.9322C35.8279 36.0523 35.6782 35.1802 35.5075 34.3121C35.4917 34.2306 35.472 34.144 35.4825 34.0638C35.5232 33.7526 35.5902 33.4439 35.6191 33.1313C35.6533 32.7492 35.6572 32.3657 35.6756 31.9822C35.6532 31.9756 35.6309 31.9677 35.6086 31.9611C35.5574 32.0399 35.5075 32.1187 35.4563 32.1989C35.384 32.3131 35.3288 32.4431 35.2382 32.539C34.9992 32.7899 34.7444 33.025 34.4975 33.2679C34.4463 33.3192 34.3924 33.3743 34.3622 33.4374C34.2151 33.7421 34.0838 34.056 33.9301 34.358C33.7239 34.7678 33.54 35.2025 33.0318 35.3549C33.1526 35.4691 33.2708 35.5703 33.3785 35.6845C34.0812 36.4318 34.7195 37.2277 35.2225 38.1287C35.4878 38.6054 35.7911 39.0599 36.0499 39.5392C36.2429 39.8965 36.3979 40.276 36.5568 40.6503C36.5962 40.7423 36.6251 40.8697 36.5923 40.9537C36.4754 41.2479 36.3073 41.5119 35.9737 41.6472C36.0131 41.8744 36.0617 42.1055 36.0932 42.338C36.1563 42.799 36.218 43.2613 36.2666 43.7236C36.2771 43.8313 36.2968 43.8851 36.4045 43.9272C36.742 44.0572 36.7933 44.157 36.7683 44.5261C36.7644 44.5865 36.7959 44.6548 36.8248 44.7126C36.9968 45.0606 37.1912 45.3981 37.3449 45.7527C37.6981 46.571 38.0318 47.3984 38.3745 48.2206C38.4258 48.344 38.4875 48.4635 38.5584 48.6146C38.5715 48.5502 38.5768 48.5239 38.582 48.4964L38.5847 48.4911ZM34.9191 41.9834C34.6262 42.0885 34.3635 42.1909 34.0969 42.2789C33.8802 42.3498 33.7988 42.2934 33.7042 42.0911C33.5703 41.8035 33.4232 41.5211 33.2774 41.2387C33.1723 41.0352 33.0252 40.8447 32.9556 40.6306C32.7612 40.0383 32.4014 39.5773 31.9154 39.2043C31.5188 38.8996 31.0814 38.6619 30.627 38.4557C30.5128 38.4032 30.3985 38.352 30.2842 38.2994C30.2724 38.3126 30.2593 38.3257 30.2474 38.3388C30.4641 38.658 30.6795 38.9771 30.8962 39.2963C30.9317 39.3488 30.9645 39.404 31.0079 39.4486C31.1642 39.6128 31.1432 39.8059 31.0854 40.0304C31.0079 39.974 30.9553 39.8965 30.8989 39.8216C30.5745 39.3829 30.2264 38.96 29.9296 38.5043C29.4831 37.8187 29.0326 37.1371 28.5322 36.4883C28.2984 36.1849 28.0082 36.0089 27.6299 35.9157C27.8493 36.3714 28.0371 36.8232 28.28 37.2435C28.5795 37.7609 28.9144 38.2574 29.2545 38.7499C29.6985 39.3935 30.1634 40.0226 30.6152 40.6608C30.761 40.867 30.8897 41.0864 31.025 41.2991L30.9895 41.3254C30.9646 41.3096 30.9409 41.2926 30.9146 41.2768C30.6388 41.11 30.451 40.8631 30.2685 40.6031C30.04 40.2773 29.7668 39.9845 29.5369 39.6601C29.1561 39.1203 28.8093 38.5568 28.4232 38.021C27.9202 37.3223 27.5288 36.5645 27.1597 35.7922C27.0717 35.6083 27.0139 35.4113 26.9246 35.2275C26.8222 35.0173 26.6856 34.8216 26.5884 34.6089C26.3625 34.1124 26.1577 33.6068 25.9291 33.1117C25.8727 32.9895 25.7755 32.8726 25.6691 32.7886C25.1451 32.3775 24.6197 31.9703 23.9748 31.7536C23.6452 31.642 23.326 31.4962 22.9688 31.3517C23.0476 31.5396 23.1159 31.6853 23.1698 31.8351C23.7581 33.4715 24.2021 35.15 24.6171 36.835C24.8049 37.5968 24.9375 38.3756 25.1713 39.1229C25.5075 40.1972 25.9173 41.2492 26.2877 42.3131C26.3376 42.4575 26.3612 42.6178 26.3625 42.7714C26.3639 42.9001 26.4006 42.9934 26.4965 43.0682C26.6042 43.1523 26.7171 43.2298 26.8235 43.3138C27.4802 43.8366 28.0279 44.4867 28.7358 44.9503C28.762 44.9674 28.7817 44.9936 28.8054 45.0146C29.2151 45.364 29.6262 45.7134 30.0347 46.064C30.0505 46.0772 30.0531 46.1047 30.0754 46.1546C29.835 46.0863 29.6459 45.9931 29.4739 45.8512C29.0168 45.4743 28.5545 45.1053 28.0962 44.731C27.9425 44.6049 27.7862 44.4788 27.6457 44.3383C27.1729 43.8668 26.683 43.4163 26.1406 43.0236C26.0552 42.9619 25.9711 42.8988 25.8858 42.8371C25.8897 42.8266 25.8937 42.8161 25.8976 42.8056H26.1498C26.109 42.6703 26.0828 42.5363 26.0303 42.4142C25.761 41.789 25.4813 41.1691 25.212 40.544C25.1083 40.3036 24.9927 40.0633 24.927 39.8124C24.5934 38.5503 24.273 37.2842 23.9486 36.0194C23.875 35.7357 23.8107 35.4494 23.7253 35.1684C23.6596 34.9543 23.548 34.7534 23.4902 34.538C23.2564 33.6672 23.0358 32.7925 22.8112 31.9178C22.7166 31.5474 22.5577 31.2217 22.2228 31.0024C22.0416 30.8842 21.8826 30.7095 21.637 30.8487C21.62 30.8579 21.595 30.8514 21.5753 30.854C21.3678 30.8789 21.159 30.9078 20.9515 30.9275C20.7374 30.9472 20.6021 31.047 20.4905 31.2414C20.2974 31.5776 20.1293 31.9139 20.1188 32.3092C20.1057 32.7978 20.0807 33.285 20.0807 33.7736C20.0807 35.2327 20.0623 36.6906 20.1713 38.1484C20.2331 38.9719 20.3276 39.7861 20.5483 40.582C20.5667 40.649 20.6047 40.7226 20.656 40.7672C21.2299 41.2571 21.8052 41.7457 22.3857 42.2277C23.1002 42.8213 23.9079 43.2692 24.7011 43.7446C25.0636 43.9626 25.4011 44.2227 25.7479 44.4683C25.7978 44.5037 25.828 44.5642 25.8674 44.6141C25.8569 44.6298 25.8464 44.6443 25.8359 44.66C25.7361 44.6233 25.6271 44.6022 25.5377 44.5484C25.0177 44.2424 24.4989 43.9351 23.9853 43.6185C23.5835 43.3703 23.1724 43.1313 22.7994 42.845C22.1795 42.3695 21.5871 41.8573 20.983 41.3622C20.9515 41.3372 20.916 41.3175 20.8477 41.2702C21.3179 41.9545 21.8945 42.468 22.4894 42.9566C23.1947 43.5358 23.9302 44.0782 24.642 44.6508C25.715 45.5137 26.8077 46.3451 28.0068 47.0293C28.284 47.1869 28.5414 47.3813 28.7962 47.5731C29.0129 47.7359 29.2191 47.8738 29.508 47.7517C29.6118 47.7083 29.7339 47.7097 29.8469 47.6821C29.9086 47.6676 29.9651 47.6374 30.0504 47.6033C29.9033 47.5271 29.7865 47.4719 29.6735 47.4076C29.0536 47.049 28.4757 46.634 27.9543 46.1389C27.0967 45.3272 26.2338 44.5221 25.3749 43.7131C25.3066 43.6487 25.2409 43.5791 25.1844 43.5043C25.1647 43.478 25.1726 43.4307 25.1687 43.3926C25.2107 43.3953 25.2527 43.3926 25.2935 43.4031C25.3158 43.4084 25.3342 43.4347 25.3539 43.4517C26.0762 44.0992 26.8064 44.7401 27.5196 45.3981C28.3444 46.1586 29.202 46.8704 30.1976 47.4023C30.3 47.4575 30.3854 47.4733 30.4917 47.4286C30.958 47.2355 31.4479 47.1541 31.9496 47.137C32.3908 47.1213 32.8322 47.1068 33.2183 47.3918C33.2839 47.4404 33.4311 47.4667 33.4862 47.4273C33.6543 47.3078 33.7948 47.1515 33.9393 47.0162C33.8448 46.8822 33.7672 46.7719 33.6884 46.6603C33.5006 46.3963 33.3627 46.2807 33.0344 46.3477C32.9622 46.3621 32.8939 46.391 32.8216 46.4042C32.647 46.437 32.4736 46.4751 32.2963 46.4922C31.7526 46.5447 31.2377 46.3635 30.7098 46.2847C30.6677 46.2781 30.6362 46.2059 30.5994 46.1638C30.6559 46.1244 30.7137 46.0496 30.7688 46.0522C30.9264 46.0601 31.0827 46.1008 31.2404 46.1257C31.8025 46.2111 32.3567 46.2571 32.9188 46.0706C33.3864 45.9156 33.741 46.1218 33.938 46.5736C33.9761 46.6603 34.0339 46.7391 34.0707 46.8008C34.6564 46.2505 35.2238 45.716 35.7846 45.1906C35.2947 45.0094 35.2382 44.685 35.4273 44.3672C35.5639 44.1373 35.5363 43.9364 35.4589 43.7144C35.4378 43.6553 35.43 43.5923 35.4103 43.5319C35.2461 43.0131 35.0819 42.4943 34.9204 41.986L34.9191 41.9834ZM29.1167 36.1678C29.1245 36.1823 29.1429 36.2125 29.16 36.2427C29.4029 36.6709 29.6499 37.0977 29.8876 37.5298C29.9362 37.6178 29.9782 37.673 30.0885 37.6927C30.2422 37.7189 30.3945 37.7675 30.5377 37.8306C31.0066 38.0381 31.4728 38.2548 31.9378 38.4728C32.0126 38.5082 32.0927 38.549 32.1466 38.6094C32.4027 38.8996 32.7008 39.1689 32.8913 39.4985C33.217 40.0633 33.4757 40.6674 33.7554 41.2571C33.8579 41.4725 33.9446 41.6971 34.0391 41.9191C34.1376 41.8875 34.2204 41.8705 34.2965 41.8363C34.4541 41.7641 34.6117 41.7207 34.7812 41.7943C34.7996 41.8022 34.8376 41.8008 34.8495 41.7877C34.9519 41.6708 35.0044 41.7667 35.053 41.8389C35.0964 41.9033 35.1371 41.9729 35.1633 42.0464C35.3617 42.6151 35.5587 43.1838 35.7478 43.7551C35.8095 43.9416 35.8201 43.9534 36.0131 43.8654C36.0026 43.8011 35.9921 43.7354 35.9816 43.6684C35.9094 43.1825 35.8384 42.6952 35.7636 42.2093C35.736 42.0281 35.6913 41.8494 35.6677 41.6682C35.6519 41.5487 35.7071 41.4843 35.824 41.4173C35.9868 41.3228 36.1326 41.1809 36.2482 41.0299C36.2836 40.9839 36.1957 40.8447 36.1628 40.7475C36.1602 40.737 36.1562 40.7278 36.1523 40.7173C36.0236 40.3982 35.9251 40.062 35.7583 39.7638C35.4641 39.2398 35.1266 38.7394 34.8074 38.2285C34.6551 37.9842 34.5198 37.7268 34.3478 37.497C33.9603 36.9808 33.5545 36.4804 33.1579 35.9722C32.9346 35.6858 32.6548 35.5663 32.2845 35.5821C31.8839 35.5992 31.4754 35.5873 31.0788 35.5322C30.6796 35.477 30.321 35.5414 29.9717 35.72C29.6893 35.8645 29.4082 36.0129 29.118 36.1652L29.1167 36.1678ZM45.4588 26.6342C45.4299 26.5921 45.4194 26.5685 45.401 26.5514C45.032 26.1994 44.6458 25.8672 44.1888 25.6321C43.5492 25.3037 42.9542 24.9189 42.5103 24.3331C42.3619 24.1375 42.1596 24.014 41.9062 24.0153C41.8392 24.0153 41.7538 24.0508 41.7105 24.0994C41.6238 24.1966 41.5673 24.3174 41.4885 24.4225C41.1549 24.8651 40.8055 25.2985 40.4851 25.7516C40.3038 26.0064 40.1751 26.2979 40.0084 26.5632C39.4541 27.4406 38.8933 28.3139 38.3338 29.1873C38.2209 29.3633 38.104 29.5354 37.9884 29.7087C38.322 30.1159 38.7817 30.1907 39.2466 30.1041C39.7063 30.0174 40.1581 29.8637 40.5954 29.693C41.5108 29.3344 42.358 28.8577 43.0291 28.1169C43.2865 27.8333 43.5439 27.5496 43.8145 27.279C43.9997 27.0951 44.2006 26.9244 44.4094 26.7668C44.7194 26.533 45.0766 26.5619 45.4575 26.6355L45.4588 26.6342ZM33.5768 47.5783C33.8093 47.8147 33.8763 48.1168 33.9275 48.4228C33.9419 48.5147 33.9708 48.6645 33.9275 48.6934C33.8027 48.7787 33.8447 48.9035 33.8014 49.0059C33.7305 49.1741 33.678 49.3579 33.5716 49.5011C33.2301 49.9594 32.8072 50.3364 32.3304 50.6516C32.228 50.7199 32.1177 50.7764 31.9758 50.8591C32.4736 51.2492 32.9477 51.6222 33.4231 51.9912C33.456 52.0162 33.5138 52.0332 33.5532 52.024C33.7528 51.9794 33.9564 51.9439 34.1455 51.8717C35.1975 51.4711 36.1628 50.8959 37.1518 50.3653C37.3462 50.2615 37.4985 50.1249 37.6049 49.9253C37.6981 49.7506 37.6128 49.5221 37.4131 49.4985C37.1846 49.4696 36.9482 49.4853 36.7249 49.4354C36.1169 49.3001 35.514 49.1425 34.9099 48.9876C34.8363 48.9692 34.768 48.9179 34.7089 48.868C34.6722 48.8378 34.6433 48.7853 34.6341 48.738C34.6131 48.6251 34.6026 48.5095 34.5947 48.3952C34.5671 48.0157 34.4752 47.6597 34.219 47.3616C34.1599 47.2933 34.11 47.2158 34.0536 47.1383C33.8881 47.2907 33.7371 47.4286 33.5768 47.5757V47.5783ZM35.8437 45.3088C35.7951 45.3771 35.7741 45.4192 35.7426 45.4507C35.4668 45.7291 35.2067 46.0259 34.902 46.2702C34.789 46.3608 34.6433 46.4252 34.5434 46.5434C34.4423 46.6642 34.3438 46.7864 34.2545 46.9164C34.2309 46.9518 34.2282 47.0228 34.2466 47.0622C34.4804 47.5297 34.8416 47.9434 34.856 48.5069C34.856 48.5371 34.902 48.5765 34.9348 48.5949C35.1397 48.7039 35.317 48.8694 35.5652 48.8969C35.6887 48.9101 35.8095 48.956 35.929 48.9954C36.3874 49.1425 36.8602 49.1754 37.3133 49.1911C36.8274 47.908 36.3401 46.6235 35.8424 45.3101L35.8437 45.3088ZM38.9406 50.7803C38.9406 50.6279 38.9472 50.4756 38.938 50.3232C38.9314 50.2103 38.9104 50.1105 38.7803 50.0474C38.7107 50.0133 38.6661 49.9003 38.6412 49.8137C38.6149 49.7244 38.6687 49.6653 38.7712 49.6705C38.7922 49.7309 38.7988 49.8018 38.8382 49.8426C38.871 49.8767 38.9406 49.8767 38.9944 49.8925C38.9905 49.8465 39.0036 49.7887 38.98 49.7559C38.867 49.5917 38.741 49.4367 38.628 49.2739C38.456 49.0243 38.2484 48.7892 38.1316 48.5161C37.7428 47.6046 37.3882 46.68 37.0205 45.7606C36.8957 45.4467 36.7735 45.1315 36.6593 44.8426C36.4202 44.9792 36.2022 45.1039 35.9777 45.2313C36.0065 45.2878 36.0446 45.3561 36.0788 45.427C36.2285 45.7383 36.4005 46.0417 36.5227 46.3635C36.9587 47.5048 37.4 48.6421 37.9766 49.723C38.0226 49.8097 38.0817 49.8925 38.1486 49.9634C38.4008 50.2313 38.6582 50.4927 38.9393 50.7842L38.9406 50.7803ZM33.5729 48.7104C32.6141 49.1333 31.6843 49.5431 30.7846 49.9397C30.8529 50.0264 30.8936 50.0895 30.9448 50.142C30.9737 50.1722 31.0158 50.1972 31.0552 50.2077C31.3126 50.276 31.5739 50.3351 31.8301 50.4086C31.9509 50.4428 32.0507 50.4296 32.1544 50.3587C32.5865 50.0645 32.9727 49.7191 33.305 49.3159C33.4415 49.1504 33.5269 48.9547 33.5716 48.7104H33.5729ZM46.2639 27.6113C46.0524 27.3434 45.8646 27.1135 45.6873 26.8745C45.6059 26.7642 45.51 26.7287 45.38 26.73C44.9847 26.734 44.6209 26.8285 44.3293 27.1122C44.0561 27.3775 43.7895 27.652 43.5216 27.9212C45.0201 27.5102 45.4299 27.4878 46.2639 27.6126V27.6113ZM48.6398 35.5282C48.49 37.0373 47.9844 38.4045 47.0296 39.6285C47.3369 39.4565 47.6153 39.3028 47.8911 39.1465C47.9108 39.136 47.9279 39.1124 47.9384 39.0914C48.0133 38.9364 48.0684 38.767 48.1656 38.6265C48.3403 38.373 48.4572 38.1011 48.5596 37.8109C48.8236 37.0557 48.7238 36.2939 48.6398 35.5269V35.5282ZM35.8962 44.9083C36.1418 44.9083 36.4991 44.6377 36.5647 44.4026C36.5962 44.2923 36.5647 44.2135 36.4623 44.1518C36.1064 43.9429 35.7163 44.111 35.602 44.5274C35.5469 44.727 35.6874 44.9083 35.8949 44.9069L35.8962 44.9083ZM32.9504 52.1777C32.9412 52.1633 32.9346 52.1475 32.9228 52.1383C32.5104 51.8139 32.1243 51.4619 31.8104 51.0377C31.7775 50.9944 31.7289 50.951 31.6777 50.9326C31.4728 50.8604 31.264 50.7974 31.0407 50.7251C31.5621 51.3713 32.0678 52.0162 32.949 52.1764L32.9504 52.1777ZM48.8591 37.3617C48.7685 37.6651 48.712 37.9816 48.5767 38.2613C48.4428 38.5385 48.23 38.7762 48.0435 39.0428C48.2444 38.9312 48.4441 38.8445 48.6148 38.7184C48.7842 38.5936 48.9248 38.4294 49.0653 38.2955C48.9944 37.9763 48.9261 37.6716 48.8564 37.3617H48.8591ZM39.5395 50.4861C39.4003 50.3259 39.2689 50.1748 39.1389 50.0251C39.0627 50.0593 39.047 50.0947 39.0562 50.1906C39.0759 50.4099 39.2939 50.4349 39.3792 50.5964C39.441 50.5544 39.4909 50.5203 39.5395 50.4874V50.4861Z" fill="#F7F8C5"/>
<path d="M40.0788 51.313C39.9567 51.2158 39.8503 51.1068 39.7216 51.0372C39.5876 50.9649 39.4366 51.0411 39.3736 51.1803C39.2619 51.4246 39.2921 51.5993 39.4707 51.7398C39.6191 51.858 39.8542 51.8409 40.0355 51.6899C40.1143 51.6242 40.18 51.5402 40.2483 51.4666C40.3376 51.7227 40.1524 52.0025 39.8464 52.0642C39.4839 52.1364 39.1477 51.925 39.0518 51.5664C38.9598 51.2197 39.2816 50.8362 39.6323 50.8822C39.74 50.8966 39.849 50.9308 39.9462 50.9767C40.0959 51.0464 40.1353 51.1921 40.0762 51.3143L40.0788 51.313Z" fill="#F7F8C5"/>
<path d="M40.4257 51.6322C40.4152 51.4811 40.4914 51.3669 40.5991 51.2723C40.6582 51.2211 40.7278 51.1817 40.7948 51.1436C40.9287 51.0661 41.0995 51.0267 41.0771 50.8087C41.0719 50.7588 41.131 50.6984 41.1678 50.6485C41.223 50.5736 41.2768 50.5486 41.3267 50.6577C41.3372 50.6813 41.3753 50.6984 41.4042 50.7049C41.5539 50.7378 41.6327 50.835 41.6104 50.9676C41.5894 51.1003 41.462 51.2145 41.3293 51.1817C41.0168 51.1029 40.8591 51.3327 40.6635 51.4903C40.5938 51.5468 40.5321 51.6112 40.4664 51.6716C40.452 51.6584 40.4375 51.6466 40.4231 51.6335L40.4257 51.6322Z" fill="#F7F8C5"/>
<path d="M40.2115 49.8515C40.201 50.0604 40.18 50.2679 40.1866 50.4754C40.1905 50.591 40.2194 50.717 40.2733 50.8182C40.3731 51.0086 40.4808 51.0349 40.6883 50.9626C40.7841 50.9298 40.8813 50.8996 40.993 50.8641C40.9234 51.0966 40.6462 51.178 40.486 51.1518C40.2299 51.1097 40.0303 50.9272 40.0211 50.6737C40.0132 50.4294 40.0421 50.1838 40.0657 49.9395C40.0697 49.8962 40.1275 49.8581 40.1603 49.8174C40.1787 49.8279 40.1958 49.8397 40.2142 49.8502L40.2115 49.8515Z" fill="#F7F8C5"/>
<path d="M40.11 49.4492C40.0864 49.3993 40.0641 49.3494 40.0404 49.2995C40.1323 49.2417 40.1718 49.2404 40.2492 49.352C40.2913 49.4138 40.3241 49.5319 40.2926 49.5832C40.2151 49.7119 40.0719 49.704 39.9406 49.662C39.8171 49.6213 39.7725 49.5228 39.7974 49.4019C39.8066 49.3599 39.8539 49.3271 39.8841 49.289C39.9157 49.3205 39.9485 49.3507 39.98 49.3835C40.0115 49.4164 40.0404 49.4505 40.0706 49.4834C40.0838 49.4715 40.0969 49.4597 40.1087 49.4492H40.11Z" fill="#F7F8C5"/>
<path d="M37.106 43.9535C37.2846 43.721 37.3293 43.3874 37.6563 43.2666C37.7194 43.243 37.7771 43.1589 37.8021 43.0906C37.9387 42.7176 38.0753 42.3433 38.1882 41.9637C38.2578 41.7313 38.4364 41.5921 38.5822 41.4253C38.6098 41.3937 38.6479 41.3701 38.6676 41.3346C38.9631 40.8172 39.4188 40.4258 39.7669 39.9517C39.9941 39.643 40.0611 39.2714 40.1346 38.9076C40.2016 38.5792 40.2331 38.2443 40.3106 37.9186C40.3592 37.719 40.438 37.5141 40.5523 37.3473C40.8622 36.8942 41.2654 36.5369 41.7789 36.3229C41.8315 36.3005 41.8879 36.2795 41.9339 36.2467C42.454 35.8606 43.0779 35.8041 43.682 35.6846C43.837 35.6544 43.9893 35.6202 44.1443 35.5926C44.1955 35.5834 44.2507 35.5913 44.3085 35.6136C44.0773 35.8369 43.7726 35.8527 43.4903 35.9118C43.4798 36.0247 43.4692 36.1351 43.4587 36.2454C43.4298 36.248 43.4022 36.2506 43.3734 36.2533C43.3471 36.1626 43.3208 36.072 43.288 35.9591C42.982 36.051 42.6392 36.0602 42.3371 36.2362C42.0653 36.3938 41.7776 36.5251 41.5136 36.6945C41.1118 36.952 40.7624 37.2737 40.5786 37.7268C40.5037 37.912 40.4945 38.1248 40.4511 38.3231C40.3513 38.7828 40.2633 39.2451 40.1386 39.6982C40.0887 39.8781 39.9705 40.0476 39.8523 40.1973C39.6605 40.4429 39.4425 40.6688 39.2363 40.9039C39.2087 40.9354 39.1759 40.9656 39.1588 41.0024C39.0025 41.3228 38.7661 41.5802 38.5231 41.8363C38.443 41.9204 38.422 42.0609 38.3787 42.1778C38.2473 42.5311 38.1331 42.891 37.9807 43.2338C37.9308 43.348 37.785 43.419 37.6839 43.5122C37.6274 43.5647 37.5604 43.612 37.5224 43.6764C37.391 43.8996 37.395 43.9023 37.0981 43.9561L37.106 43.9535Z" fill="#F7F8C5"/>
<path d="M45.8358 34.3988C45.6979 34.2963 45.6992 34.1598 45.8503 34.077C45.8582 34.1348 45.866 34.1873 45.8805 34.2806C46.4373 33.5333 47.115 32.9593 47.8269 32.4248C47.8426 32.4393 47.8597 32.4537 47.8755 32.4668C47.8019 32.5535 47.7349 32.6481 47.6522 32.7256C47.1229 33.2181 46.5858 33.704 46.1497 34.2858C46.0447 34.4264 45.975 34.5945 45.8884 34.7508C46.0118 34.8834 46.1918 34.9832 46.1904 35.238C45.9987 35.1605 45.933 34.9951 45.8319 34.8847C45.6887 35.0397 45.5324 35.1829 45.4103 35.3523C45.3643 35.4166 45.3972 35.5375 45.3972 35.6333C45.3972 35.6964 45.4011 35.7594 45.4011 35.8238C45.4011 35.8264 45.3512 35.8356 45.3472 35.8277C45.3078 35.7634 45.2632 35.7003 45.2422 35.6294C45.2251 35.5716 45.2383 35.5059 45.2383 35.456C45.1398 35.456 45.0465 35.4665 44.9585 35.4508C44.9191 35.4442 44.8889 35.3838 44.8547 35.3483C44.8889 35.3221 44.9204 35.2866 44.9598 35.2695C45.0071 35.2498 45.0609 35.2446 45.1108 35.2315C45.4247 35.15 45.5219 34.8585 45.6887 34.6352C45.7452 34.5603 45.7885 34.4763 45.8371 34.3975L45.8358 34.3988Z" fill="#F7F8C5"/>
<path d="M45.0163 34.9649C44.8009 34.9623 44.6118 34.7022 44.6854 34.521C44.6959 34.4947 44.7222 34.4632 44.7458 34.458C44.7668 34.454 44.8088 34.4777 44.818 34.4987C44.885 34.6484 44.9467 34.8021 45.015 34.9649H45.0163Z" fill="#F7F8C5"/>
<path d="M42.3418 36.502C42.4127 36.4666 42.4613 36.4298 42.4745 36.4403C42.5244 36.4771 42.5664 36.5283 42.6045 36.5782C42.6084 36.5822 42.5493 36.6465 42.5428 36.6426C42.4837 36.6084 42.4298 36.5664 42.3418 36.502Z" fill="#F7F8C5"/>
<path d="M23.7382 39.5836C23.7001 39.5166 23.6516 39.4549 23.6266 39.3826C23.49 38.9821 23.36 38.5789 23.226 38.177C22.8058 36.9122 22.6744 35.5844 22.375 34.2934C22.266 33.8245 22.1543 33.3556 22.0466 32.8854C22.0033 32.6937 21.8995 32.6149 21.692 32.5821C21.3742 32.5308 21.0669 32.4153 20.7556 32.3246C20.7017 32.3089 20.6492 32.2839 20.5862 32.2603C20.6702 33.768 20.4128 35.2666 20.6623 36.7599C20.6453 36.7638 20.6282 36.7677 20.6111 36.7717C20.5822 36.706 20.5376 36.6417 20.5284 36.5734C20.4653 36.1229 20.3708 35.6711 20.3616 35.2193C20.3445 34.3971 20.3787 33.5736 20.3905 32.7502C20.3931 32.5624 20.3905 32.3732 20.3905 32.2248C20.3537 32.1303 20.3274 32.0659 20.3025 32.0016C20.3774 31.9792 20.4522 31.9516 20.5284 31.9346C20.556 31.928 20.5901 31.9451 20.6203 31.9543C21.0655 32.0895 21.5069 32.2406 21.9573 32.3522C22.09 32.3851 22.1464 32.477 22.2305 32.5466C22.2633 32.5742 22.241 32.6609 22.2594 32.7147C22.5313 33.5067 22.6967 34.3236 22.8307 35.1471C23.0198 36.3186 23.3442 37.4612 23.5925 38.6196C23.6568 38.9217 23.7146 39.2237 23.775 39.5271C23.7776 39.5402 23.7711 39.556 23.7685 39.5718C23.758 39.5757 23.7475 39.5796 23.7356 39.5849L23.7382 39.5836Z" fill="#F7F8C5"/>
<path d="M24.4636 41.5606C24.218 41.4109 23.9146 40.7358 23.9829 40.5112C24.1313 40.5769 24.4675 41.2992 24.4636 41.5606Z" fill="#F7F8C5"/>
<path d="M19.6892 12.193L20.3091 13.4393L21.2907 12.9508C21.7105 12.7452 22.11 12.6864 22.473 12.7845C22.8361 12.8826 23.1184 13.1205 23.307 13.495C23.5006 13.8776 23.5051 14.2438 23.3336 14.5967C23.162 14.9495 22.8397 15.2398 22.3877 15.4655L20.9913 16.1677L18.8857 11.9443L21.4268 10.6743L21.6846 11.1958L19.6811 12.198L19.6892 12.193ZM21.2842 15.3814L22.2366 14.8999C22.5255 14.7534 22.7179 14.5776 22.8007 14.3695C22.8916 14.1564 22.8848 13.9481 22.7705 13.7286C22.6561 13.5091 22.4893 13.3671 22.267 13.3154C22.0397 13.2557 21.7882 13.3006 21.5073 13.4421L20.5498 13.9155L21.2791 15.3733L21.2842 15.3814Z" fill="#F7F8C5"/>
<path d="M25.8841 14.1149C25.408 14.2661 24.9694 14.2263 24.5573 14.0134C24.1451 13.8005 23.8659 13.4601 23.7247 13.0001C23.5836 12.5401 23.6103 12.0986 23.8232 11.6864C24.0361 11.2742 24.3765 10.995 24.8526 10.8438C25.3206 10.6976 25.7622 10.7244 26.1794 10.9453C26.5916 11.1582 26.8708 11.4986 27.0119 11.9586C27.1531 12.4186 27.1263 12.8602 26.9135 13.2724C26.7006 13.6845 26.3601 13.9637 25.8971 14.118L25.8841 14.1149ZM24.8356 13.5269C25.105 13.6722 25.4018 13.6998 25.7208 13.6016C26.0399 13.5035 26.2645 13.3076 26.3967 13.0352C26.5289 12.7627 26.5434 12.463 26.4403 12.1358C26.3421 11.8168 26.1493 11.5791 25.888 11.4288C25.6186 11.2835 25.3299 11.2509 25.0158 11.3571C24.6968 11.4553 24.4721 11.6511 24.34 11.9235C24.2078 12.196 24.1852 12.5008 24.2964 12.8229C24.3945 13.1419 24.5873 13.3796 24.8568 13.5249L24.8356 13.5269Z" fill="#F7F8C5"/>
<path d="M28.6605 13.3463L28.1635 10.592L27.128 10.7787L27.0332 10.2675L29.6948 9.78341L29.7897 10.2946L28.712 10.4852L29.214 13.2475L28.6605 13.3463Z" fill="#F7F8C5"/>
<path d="M30.7767 13.0456L30.6226 9.67512L31.1871 9.64776L31.2925 11.8632L33.5887 9.48223L33.7428 12.8527L33.1784 12.8801L33.0799 10.6938L30.7848 13.0406L30.7767 13.0456Z" fill="#F7F8C5"/>
<path d="M34.5773 12.8816L34.9322 9.57418L35.4965 9.63639L35.3516 11.0014L37.1391 11.1961L37.2839 9.83113L37.8482 9.8933L37.4933 13.2007L36.929 13.1385L37.081 11.7131L35.2935 11.5184L35.1416 12.9437L34.5773 12.8816Z" fill="#F7F8C5"/>
<path d="M39.7343 13.7845C39.2536 13.6591 38.8959 13.3899 38.6661 12.9852C38.4363 12.5804 38.3785 12.1467 38.5009 11.6791C38.6234 11.2115 38.8845 10.8587 39.2892 10.6289C39.689 10.3911 40.1276 10.3414 40.6083 10.4669C41.081 10.5973 41.4337 10.8584 41.6635 11.2632C41.8933 11.6679 41.9511 12.1016 41.8287 12.5692C41.7063 13.0369 41.4401 13.3816 41.0404 13.6194C40.6407 13.8573 40.202 13.9069 39.7213 13.7815L39.7343 13.7845ZM39.1664 12.7294C39.3109 12.9972 39.5501 13.1836 39.8689 13.2646C40.1877 13.3455 40.4785 13.3097 40.7362 13.1492C40.994 12.9886 41.1675 12.7463 41.2565 12.4225C41.3455 12.0987 41.3177 11.8029 41.1682 11.527C41.0237 11.2592 40.7896 11.0808 40.4657 10.9918C40.1419 10.9028 39.8562 10.9466 39.5853 11.1042C39.3195 11.2698 39.1461 11.512 39.0571 11.8358C38.9681 12.1596 39.0008 12.4635 39.1453 12.7314L39.1664 12.7294Z" fill="#F7F8C5"/>
<path d="M41.9802 14.4081L43.2834 11.3486L43.8112 11.5677L43.1642 13.0778L45.1575 12.1491L45.797 12.4217L43.7583 13.3674L44.6395 15.5357L43.9558 15.246L43.1248 13.1583L42.4949 14.6242L41.9671 14.4051L41.9802 14.4081Z" fill="#F7F8C5"/>
</svg>
