<svg width="60" height="63" viewBox="0 0 60 63" fill="none" xmlns="http://www.w3.org/2000/svg">
<path d="M46.9077 26.8728C52.0658 35.965 48.9912 47.436 40.064 52.5004C31.1368 57.5648 19.7133 54.3187 14.5552 45.2264C9.39713 36.1341 12.4717 24.6632 21.3989 19.5988C30.3261 14.5343 41.7496 17.7805 46.9077 26.8728Z" stroke="#F7F8C5"/>
<path d="M24.1344 34.1259C24.0806 34.2389 24.0537 34.3896 23.9622 34.4488C23.8008 34.5564 23.6071 34.6533 23.4187 34.6641C23.0474 34.691 22.9451 34.5349 23.1227 34.2012C23.338 33.7922 23.3057 33.3886 23.1873 32.9635C22.9935 32.2638 22.9343 31.5535 23.085 30.8323C23.1496 30.531 23.3272 30.3372 23.6286 30.2511C24.9686 29.8744 26.3302 29.7129 27.7186 29.7452C27.8693 29.7452 28.0254 29.7991 28.1707 29.8582C28.8111 30.1273 29.43 30.4448 30.0865 30.6709C30.3287 30.7516 30.6678 30.7032 30.91 30.5902C31.4697 30.3318 32.0293 30.1381 32.6536 30.2242C32.7451 30.235 32.8797 30.2081 32.9335 30.1435C33.3209 29.6914 33.816 29.7076 34.3273 29.8152C35.2745 30.0197 36.227 30.2242 37.1688 30.4502C37.3572 30.4933 37.5724 30.5794 37.6962 30.7139C37.8415 30.87 37.9815 31.1122 37.9815 31.3113C37.9653 32.2961 38.1321 33.2541 38.3689 34.2012C38.3905 34.2766 38.4228 34.3573 38.4174 34.4327C38.4174 34.5349 38.412 34.691 38.3528 34.7286C38.2721 34.7771 38.1106 34.7825 38.0245 34.7286C37.6155 34.508 37.2173 34.2604 36.7921 34.0129C36.7652 34.5188 36.7437 35.0139 36.9428 35.4928C37.1527 35.9987 37.3518 36.51 37.5402 37.0212C37.6639 37.3549 37.6101 37.6563 37.3464 37.9146C37.2764 37.9845 37.2442 38.1029 37.2172 38.2106C36.9374 39.4322 36.41 40.5301 35.3982 41.305C35.1076 41.5311 34.6341 41.5418 34.2358 41.601C34.0636 41.6279 33.9344 41.6333 33.816 41.7894C33.2187 42.5697 32.3899 42.9626 31.4427 43.011C30.8508 43.0433 30.2372 42.9464 29.6614 42.7957C29.3439 42.7096 29.0748 42.4083 28.8057 42.1769C28.6604 42.0531 28.5582 42.0046 28.3483 42.01C27.428 42.0423 26.5185 42.01 25.9265 41.1167C25.5122 40.4924 25.0547 39.895 24.6565 39.26C24.4681 38.9586 24.3605 38.6142 24.1398 38.3074C23.9784 38.076 23.973 37.6832 24.0053 37.3764C24.0806 36.6284 24.2259 35.8911 24.3174 35.1484C24.3551 34.847 24.3228 34.5349 24.3228 34.2282C24.2582 34.1905 24.1936 34.1528 24.1291 34.1151L24.1344 34.1259ZM31.2759 36.7199L31.2651 36.7091C31.2813 37.215 31.2921 37.7155 31.3136 38.2213C31.3136 38.3182 31.3405 38.4312 31.3997 38.5012C32.0885 39.2977 32.772 40.0995 33.4878 40.8799C33.8537 41.2781 34.8762 41.3158 35.296 40.8637C35.9687 40.1426 36.4423 39.3192 36.8029 38.4205C36.8298 38.3559 36.8298 38.2805 36.8513 38.1729C36.6737 38.2213 36.5392 38.259 36.3993 38.2913C35.9687 38.3774 35.5812 38.2052 35.3391 37.8446C34.9623 37.2903 34.5748 36.736 34.1874 36.1871C33.66 35.439 32.9604 34.9601 32.0563 34.7717C30.9907 34.5511 29.9682 34.5941 29.0156 35.1969C28.2891 35.6597 27.8639 36.3431 27.5357 37.1073C27.3419 37.5594 27.1751 38.0276 26.9437 38.4581C26.6638 38.9855 26.0772 39.2277 25.496 39.1093C25.3884 39.0878 25.2861 39.0609 25.1839 39.034C25.157 39.0609 25.13 39.0878 25.1031 39.1147C25.566 39.739 26.0342 40.3686 26.497 40.9929C26.6961 41.262 26.9706 41.3588 27.2935 41.4288C28.1169 41.6064 28.8273 41.4988 29.3385 40.7669C29.8875 39.9865 30.4256 39.2062 30.9584 38.4151C31.0014 38.3505 30.9745 38.2375 30.9745 38.1514C30.9799 37.7585 30.9799 37.3657 30.9961 36.9728C31.0014 36.806 31.0445 36.6499 31.2759 36.7145V36.7199ZM37.75 34.099C37.7769 34.0075 37.7823 33.9967 37.7823 33.986C37.6531 33.0819 37.4164 32.1777 37.707 31.2629C37.7285 31.2037 37.6639 31.0799 37.6047 31.0368C37.4487 30.9292 37.2872 30.8162 37.1096 30.7731C36.2324 30.5632 35.3498 30.3641 34.4672 30.1811C33.9721 30.0789 33.4716 29.9928 33.0572 30.4395C32.9711 30.5363 32.7666 30.574 32.6213 30.5579C32.0724 30.4987 31.588 30.6763 31.0929 30.87C30.7808 30.9938 30.3987 31.1283 30.0973 31.0584C29.4946 30.9184 28.8972 30.6816 28.3483 30.4018C27.95 30.1973 27.5572 30.1004 27.1266 30.1004C26.9383 30.1004 26.7499 30.1435 26.5562 30.1596C25.6467 30.2296 24.748 30.3372 23.8815 30.6278C23.6555 30.7032 23.4886 30.8216 23.4886 31.0691C23.4886 31.5158 23.4456 31.9732 23.5263 32.4038C23.6339 33.0065 23.8708 33.5877 23.5156 34.2012C24.5327 33.2218 25.3399 32.0378 26.5939 31.3167C26.5454 31.4943 26.4647 31.6557 26.3517 31.7795C25.8135 32.3769 25.2592 32.9688 24.7103 33.5608C24.5488 33.7384 24.4789 33.916 24.5704 34.1636C24.7749 34.7502 24.7264 35.3529 24.6349 35.961C24.565 36.4239 24.5165 36.8975 24.4412 37.3603C24.3659 37.807 24.5058 38.0707 24.9417 38.2752C25.905 38.7272 26.5508 38.4151 26.9221 37.5379C27.1697 36.962 27.4173 36.3808 27.7402 35.848C28.2353 35.0408 28.9887 34.5403 29.9251 34.3519C30.248 34.2873 30.587 34.2766 30.8884 34.2389V32.1831C30.9261 32.1777 30.9638 32.1724 31.0014 32.1616C31.3028 32.7966 31.2867 33.4962 31.3082 34.1959C31.432 34.2174 31.5396 34.2443 31.6472 34.2604C32.9496 34.4757 34.0152 35.0569 34.7094 36.2247C34.9785 36.6768 35.2637 37.1235 35.5758 37.5486C35.6727 37.6832 35.8826 37.8392 36.0225 37.8231C36.3885 37.7908 36.7491 37.667 37.1365 37.5755C36.9805 37.0481 36.8298 36.5907 36.7114 36.1279C36.5392 35.439 36.3293 34.7556 36.4315 34.0183C36.4585 33.8299 36.3078 33.5716 36.1625 33.4209C35.6512 32.8827 35.0969 32.3876 34.5856 31.8548C34.3166 31.5804 34.1013 31.2575 33.8591 30.9561C33.8914 30.9238 33.9237 30.8861 33.9613 30.8539C34.6879 31.236 35.2368 31.8495 35.8449 32.393C36.4692 32.9527 37.1042 33.5016 37.7716 34.0882L37.75 34.099ZM31.1468 38.7487C30.6247 39.9489 29.9359 40.9983 28.8165 41.8109C29.1663 42.0638 29.4407 42.3652 29.7798 42.4782C30.7162 42.7957 31.658 42.7365 32.546 42.2737C32.9442 42.0692 33.2994 41.784 33.6169 41.5741C32.772 40.6054 31.9863 39.7067 31.1468 38.7434V38.7487Z" fill="#F7F8C5"/>
<path d="M27.0299 34.3038C27.3636 34.3038 27.6166 34.5567 27.6112 34.8689C27.6058 35.2133 27.3529 35.4555 27.0084 35.4501C26.6909 35.4447 26.4434 35.181 26.4434 34.8581C26.4434 34.5298 26.6855 34.2984 27.0299 34.3038Z" fill="#F7F8C5"/>
<path d="M35.027 34.8957C35.027 35.1594 34.8171 35.3585 34.5534 35.3585C34.2681 35.3585 34.0045 35.0733 34.0098 34.7827C34.0098 34.5082 34.2305 34.3091 34.5157 34.3091C34.801 34.3091 35.0377 34.5782 35.0323 34.9011L35.027 34.8957Z" fill="#F7F8C5"/>
<path d="M31.2753 36.7202C31.087 36.4727 31.13 36.0314 31.3668 35.8215C31.4045 35.7892 31.4852 35.7569 31.5067 35.773C31.5498 35.8053 31.5982 35.8807 31.5928 35.9345C31.5821 36.0637 31.5444 36.1928 31.4906 36.4296C31.7705 36.3543 32.1041 36.365 32.201 36.2143C32.3516 35.9776 31.9857 35.8968 31.8673 35.73C31.4475 35.1595 30.8233 35.3264 30.2905 35.3909C30.0591 35.4179 29.8653 35.8053 29.6232 36.0637C29.903 36.2251 30.1183 36.3543 30.4035 36.5157C30.3927 36.3543 30.3604 36.2359 30.3873 36.139C30.4142 36.026 30.5004 35.9291 30.5596 35.8269C30.6564 35.9022 30.8179 35.9668 30.8286 36.0529C30.8502 36.2466 30.8394 36.4619 30.7694 36.6395C30.6564 36.914 30.4627 36.9409 30.2044 36.7794C29.9784 36.6395 29.7469 36.4942 29.5101 36.3704C29.3056 36.2628 29.268 36.1121 29.3702 35.9291C29.4779 35.7354 29.5962 35.5416 29.7254 35.3587C29.9245 35.0734 30.199 34.9712 30.5542 34.9389C31.3399 34.8689 31.9426 35.1273 32.4377 35.7354C32.7391 36.1067 32.5992 36.618 32.1256 36.6987C31.8458 36.7471 31.5498 36.7095 31.2646 36.7148L31.2753 36.7256V36.7202Z" fill="#F7F8C5"/>
<path d="M21.7554 13.7331C21.1369 13.9974 20.5308 14.0165 19.9197 13.7788C19.3085 13.541 18.8814 13.1123 18.6042 12.4902C18.3399 11.8717 18.3162 11.2575 18.5586 10.6545C18.801 10.0516 19.225 9.61624 19.8389 9.34376C20.2014 9.18142 20.5647 9.11599 20.9453 9.13819C21.3131 9.15686 21.6385 9.25362 21.9124 9.4121L21.6656 9.93094C21.1656 9.64097 20.6379 9.62649 20.0649 9.87575C19.5949 10.0775 19.2751 10.4104 19.1091 10.8618C18.9348 11.3178 18.9591 11.7802 19.1608 12.2503C19.3625 12.7203 19.6919 13.0529 20.1397 13.2318C20.5922 13.4189 21.0511 13.4075 21.513 13.2104C22.0859 12.9611 22.4316 12.5594 22.5583 12.0005L23.0984 12.1703C23.0344 12.4772 22.8816 12.7803 22.6437 13.0668C22.4058 13.3533 22.1015 13.58 21.7425 13.7295L21.7554 13.7331Z" fill="#F7F8C5"/>
<path d="M25.4142 12.5346C24.9398 12.6522 24.5021 12.5867 24.1059 12.3461C23.7096 12.1055 23.455 11.752 23.342 11.2858C23.2291 10.8195 23.2864 10.3865 23.527 9.99027C23.7677 9.59401 24.1211 9.33939 24.5955 9.22177C25.07 9.10415 25.5076 9.16975 25.891 9.40681C26.2873 9.64741 26.5419 10.0008 26.6549 10.4671C26.7679 10.9333 26.7058 11.3582 26.4652 11.7544C26.2246 12.1507 25.8712 12.4053 25.3968 12.5229L25.4142 12.5346ZM24.4191 11.887C24.6766 12.0548 24.9695 12.0942 25.2816 12.0146C25.6064 11.9386 25.8335 11.7665 25.9837 11.4972C26.134 11.2279 26.1653 10.9396 26.0893 10.6148C26.0132 10.2899 25.84 10.0418 25.5871 9.88225C25.3296 9.71447 25.0448 9.6704 24.7246 9.75464C24.3998 9.83069 24.1645 10.0074 24.0224 10.272C23.8803 10.5367 23.8327 10.8343 23.9169 11.1545C23.993 11.4793 24.1662 11.7274 24.4191 11.887Z" fill="#F7F8C5"/>
<path d="M29.2777 11.9019C28.7743 11.9493 28.3497 11.8114 28.0039 11.488C27.6581 11.1647 27.4633 10.7449 27.4193 10.2287L27.3935 9.89697C27.3282 9.13312 27.4316 8.53325 27.7039 8.0974C27.9762 7.66155 28.4289 7.37221 29.0775 7.19909L30.2706 6.87938L30.311 7.40845L29.2173 7.69344C28.9555 7.76619 28.7322 7.84956 28.5556 7.93892C28.3837 8.03647 28.2502 8.14467 28.1563 8.28449C28.0625 8.42432 27.9897 8.56303 27.9425 8.70884C27.8953 8.85465 27.8632 9.04605 27.8368 9.26666C28.1173 8.82616 28.5174 8.57753 29.0465 8.53714C29.5335 8.49896 29.9488 8.62052 30.2806 8.9193C30.6125 9.21809 30.8005 9.58766 30.8365 10.0326C30.8828 10.515 30.7531 10.935 30.4519 11.3007C30.1589 11.6617 29.7647 11.8637 29.2777 11.9019ZM28.3846 11.1097C28.6151 11.3253 28.902 11.4115 29.2337 11.3856C29.5654 11.3598 29.8321 11.2194 30.0255 10.9689C30.219 10.7185 30.3005 10.4233 30.27 10.0834C30.2406 9.76456 30.113 9.50145 29.8836 9.3069C29.6542 9.11235 29.3672 9.02621 29.0402 9.06022C28.7085 9.08604 28.4454 9.21366 28.2508 9.44308C28.0563 9.6725 27.9737 9.94666 27.9995 10.2784C28.0299 10.6182 28.1541 10.8942 28.3928 11.1051L28.3846 11.1097Z" fill="#F7F8C5"/>
<path d="M34.0526 11.9082L34.0735 11.5824C33.7738 11.8174 33.4209 11.9202 33.0018 11.8874C32.515 11.8497 32.1337 11.6547 31.8417 11.3116C31.5497 10.9686 31.4098 10.5501 31.4521 10.0715C31.4898 9.58471 31.672 9.19998 32.0186 8.89513C32.357 8.59493 32.7719 8.46777 33.254 8.49729C33.6731 8.53013 34.0055 8.67711 34.2731 8.95819L34.3022 8.62785L34.8695 8.67399L34.6246 11.9625L34.0619 11.9245L34.0526 11.9082ZM33.0537 11.3492C33.2778 11.3628 33.4869 11.3307 33.6764 11.2449C33.8658 11.1591 34.0202 11.0498 34.1258 10.8925L34.2197 9.62709C34.1268 9.46333 34.0011 9.31816 33.831 9.20904C33.6608 9.09992 33.4591 9.03038 33.2267 9.02148C32.9092 8.99597 32.6357 9.0862 32.4062 9.29216C32.1849 9.49348 32.0602 9.76983 32.0312 10.1002C32.0021 10.4305 32.0888 10.7169 32.2784 10.9557C32.468 11.1945 32.7233 11.3202 33.0408 11.3457L33.0537 11.3492Z" fill="#F7F8C5"/>
<path d="M35.4382 12.0967L36.1464 8.88084L36.7007 8.99932L36.3455 10.5862L38.1208 9.3085L38.7906 9.45888L36.9825 10.7552L38.2363 12.7172L37.5152 12.5527L36.3289 10.6714L35.9925 12.2152L35.4382 12.0967Z" fill="#F7F8C5"/>
<path d="M40.6905 13.6302L40.8048 13.3165C40.454 13.4613 40.0827 13.4555 39.6873 13.3118C39.236 13.1458 38.9169 12.8505 38.7267 12.4389C38.5365 12.0273 38.5344 11.5848 38.7004 11.1334C38.8665 10.6821 39.1571 10.3549 39.5687 10.1647C39.9803 9.97444 40.4136 9.95593 40.8649 10.122C41.2603 10.2657 41.5386 10.5082 41.7162 10.8404L41.8305 10.5267L42.3635 10.7221L41.2143 13.8093L40.6812 13.6139L40.6905 13.6302ZM39.885 12.8209C40.1043 12.9021 40.312 12.925 40.513 12.8976C40.7139 12.8702 40.8916 12.8018 41.0414 12.6844L41.4807 11.4936C41.4415 11.3101 41.3522 11.1335 41.2219 10.9801C41.0916 10.8268 40.9086 10.7141 40.6976 10.6282C40.3966 10.5175 40.1105 10.5283 39.8392 10.6606C39.5679 10.7928 39.3734 11.0223 39.2591 11.336C39.1449 11.6497 39.1393 11.9451 39.2634 12.2211C39.3792 12.5017 39.5877 12.6973 39.8886 12.808L39.885 12.8209Z" fill="#F7F8C5"/>
</svg>
