<svg width="88" height="93" viewBox="0 0 88 93" fill="none" xmlns="http://www.w3.org/2000/svg">
<path d="M77.1453 52.7131C77.1453 73.8562 60.2927 90.9398 39.5727 90.9398C18.8526 90.9398 2 73.8562 2 52.7131C2 31.57 18.8526 14.4863 39.5727 14.4863C60.2927 14.4863 77.1453 31.57 77.1453 52.7131Z" stroke="#F7F8C5" stroke-width="4"/>
<path d="M22.0996 53.663C21.2441 53.2001 20.2383 52.9886 19.6718 52.301C18.0071 50.2911 15.7412 49.5638 13.718 48.3473C13.3481 48.1225 12.9666 47.9506 12.6082 47.7258C10.982 46.6503 9.52537 46.8266 8.23828 48.2547C8.38857 45.9671 9.74117 44.9886 11.5562 45.9539C13.9724 47.2233 16.3423 48.5853 18.747 49.8944C19.8915 50.5158 21.0591 51.0977 22.3654 51.772C23.2209 49.101 25.3943 49.7357 27.1863 49.7092C31.3712 49.6431 35.5562 49.7621 39.7412 49.9605C41.4059 50.0398 43.1169 50.3704 43.5215 52.9357C44.6198 52.777 45.6949 52.4729 46.7816 52.4861C47.8683 52.4993 49.3019 52.6051 49.3019 52.6051C49.8452 52.0233 50.3192 51.7588 51.3712 51.296C53.5215 50.3439 56.1689 50.9654 58.5504 50.8861C60.7007 50.82 62.8741 51.0977 65.0244 51.296C67.1284 51.4811 67.6949 52.1158 68.0995 54.5225C68.7816 58.5687 66.6545 61.6101 63.0706 61.5968C60.4579 61.5968 57.8452 61.4911 55.2441 61.3456C53.4059 61.2398 52.0995 59.9704 51.036 58.3968C50.3654 57.4051 49.7065 56.3473 49.2903 55.1968C48.8741 54.0729 48.2845 54.0464 47.3712 54.0597C45.8799 54.0729 44.4001 54.4167 43.7065 56.572C42.7701 59.4944 40.5273 60.5522 37.9146 61.015C33.4753 61.7952 29.1631 60.8299 24.851 59.9572C24.1805 59.8249 23.325 59.0051 23.0822 58.2778C22.5504 56.7043 22.3654 54.9853 22.0996 53.663ZM35.3712 60.4332C36.8741 60.0762 38.5157 59.8117 40.0764 59.2696C42.0071 58.5952 42.9666 56.0431 42.5273 53.2927C42.2614 51.6795 41.429 51.1241 39.0706 51.0844C35.6718 51.0183 32.273 50.8993 28.8741 50.939C27.4637 50.9522 26.0302 51.2035 24.6545 51.5605C24.1805 51.6927 23.4753 52.539 23.4984 53.0018C23.614 54.6282 23.9377 56.2679 24.3192 57.8547C24.4348 58.3175 24.9782 58.8861 25.3828 58.9522C28.6429 59.5076 31.9261 59.9439 35.3597 60.4464L35.3712 60.4332ZM59.4637 52.2216C59.4637 52.2216 59.4637 52.1687 59.4637 52.1423C58.1805 52.1423 56.8857 52.1423 55.6024 52.1423C55.0475 52.1423 54.5042 52.182 53.9493 52.2349C52.6545 52.3406 51.6024 52.9621 51.1863 54.3902C50.8857 55.4349 52.7238 58.8993 53.6602 59.3225C57.1516 60.8696 60.7816 60.4993 64.3654 60.2084C66.0533 60.063 67.3597 58.1059 67.4984 56.1754C67.6602 53.8216 66.5735 52.301 64.562 52.2349C62.8626 52.182 61.1631 52.2349 59.4637 52.2349V52.2216Z" fill="#F7F8C5"/>
<path d="M67.8293 10.1108C66.6018 10.4662 65.4066 10.3369 64.2599 9.70705C63.097 9.07716 62.338 8.15655 61.9665 6.92908C61.595 5.7016 61.7242 4.50645 62.3541 3.34357C62.984 2.1807 63.9046 1.40543 65.1321 1.05011C66.3596 0.694785 67.5547 0.823993 68.7014 1.45388C69.8643 2.08377 70.6235 3.00438 70.9949 4.23186C71.3664 5.45934 71.2372 6.65451 70.6073 7.81739C69.9774 8.98026 69.0568 9.75551 67.8293 10.1108ZM63.0809 6.63837C63.3393 7.55898 63.9046 8.25346 64.7929 8.72184C65.6651 9.19022 66.5696 9.28715 67.474 8.99643C68.3785 8.70571 69.0729 8.12426 69.5575 7.23595C70.042 6.34764 70.1551 5.4432 69.8967 4.52259C69.6383 3.60198 69.073 2.90748 68.1847 2.4391C67.3125 1.97072 66.408 1.87381 65.5036 2.16453C64.5991 2.45525 63.9046 3.03671 63.4201 3.92501C62.9356 4.81332 62.8225 5.71776 63.0809 6.63837Z" fill="#F7F8C5"/>
<path d="M73.2887 15.7154L72.4165 15.0371L73.9993 13.0021C73.3371 12.8083 72.7718 12.5337 72.3357 12.1784C71.722 11.71 71.3829 11.1609 71.2859 10.5633C71.189 9.94953 71.3828 9.33579 71.8674 8.72205L72.9656 7.30078L73.8378 7.97912L72.8365 9.27121C72.4973 9.70729 72.368 10.1111 72.4488 10.4825C72.5295 10.854 72.7557 11.177 73.111 11.4677C73.5794 11.8231 74.0963 12.0653 74.6454 12.1622L76.3574 9.94955L77.2295 10.6279L73.2725 15.7316L73.2887 15.7154Z" fill="#F7F8C5"/>
<path d="M74.5162 16.8129L79.0869 12.2422L79.8783 13.0336L77.6171 15.2947L81.8972 15.0525L82.85 16.0054L78.4894 16.2315V20.7861L77.4718 19.7686V15.4078L75.2914 17.6043L74.5 16.8129H74.5162Z" fill="#F7F8C5"/>
<path d="M78.7954 21.3521L84.0122 17.3789L84.6744 18.2511L81.2342 20.8675L87.5815 21.9174L82.3648 25.8905L81.7026 25.0184L85.0781 22.4503L78.7793 21.3682L78.7954 21.3521Z" fill="#F7F8C5"/>
</svg>
