<svg width="49" height="54" viewBox="0 0 49 54" fill="none" xmlns="http://www.w3.org/2000/svg">
<path d="M37.0922 35.6304C37.3536 36.6226 36.9972 37.5168 36.5842 38.3694C35.3128 40.9955 34.0265 43.6156 32.7075 46.2179C32.0213 47.5725 31.2668 48.8915 30.5211 50.2164C29.9686 51.1967 29.3804 52.1592 28.807 53.1306C28.4981 53.6564 27.6039 54.0456 27.0157 53.8822C26.8702 53.8406 26.7335 53.7069 26.6295 53.5851C24.963 51.6839 23.0291 50.0738 21.0893 48.4667C20.1327 47.6765 19.292 46.7407 18.4008 45.8703C17.7651 45.2495 17.1561 44.5929 16.4877 44.0107C15.9827 43.5681 15.7005 42.9947 15.3618 42.4481C15.2816 42.3174 15.2727 42.1303 15.2667 41.9669C15.1776 40.1459 15.4657 38.3753 15.9262 36.6197C16.2233 35.4938 16.4758 34.359 16.7045 33.2183C16.8026 32.7251 16.7847 32.2053 16.8204 31.7002C16.7907 31.6794 16.761 31.6616 16.7342 31.6408C16.5679 31.7745 16.3867 31.8933 16.2352 32.0419C14.5092 33.75 12.9763 35.6245 11.5504 37.5881C10.9682 38.3902 10.2255 39.0318 9.40263 39.5785C9.09962 39.7805 8.93918 39.7359 8.78173 39.4151C8.43119 38.7051 8.0777 37.9951 7.76281 37.2673C6.96371 35.4165 6.17352 33.5599 5.40412 31.6943C5.0922 30.9368 4.83373 30.1585 4.5634 29.3861C4.46537 29.1069 4.39704 28.8187 4.33763 28.5276C4.25742 28.1384 4.3614 27.8295 4.63767 27.4997C6.06656 25.8035 7.56083 24.1518 8.67186 22.2119C9.01645 21.6119 9.27789 20.9643 9.57792 20.3404C9.55119 20.3285 9.52445 20.3137 9.49771 20.3018C8.97487 20.6999 8.45796 21.1068 7.92324 21.4901C7.51923 21.7812 7.11523 22.0901 6.66963 22.304C6.1765 22.5387 5.62693 22.6575 5.11003 22.8506C4.33171 23.1388 3.56229 23.4418 2.78992 23.7478C2.26114 23.9587 1.74423 24.1963 1.21545 24.4043C0.927299 24.5201 0.662941 24.4637 0.431229 24.2379C0.196547 24.0122 0.166802 23.7329 0.392573 23.5012C0.713405 23.1715 1.10857 22.8922 1.35217 22.512C1.91659 21.6356 2.45131 20.7325 2.91177 19.7968C3.30389 19.0036 3.56527 18.1481 3.90689 17.3282C4.13564 16.7786 4.41487 16.2468 4.64361 15.6973C5.17536 14.4258 5.6982 13.1544 6.20619 11.874C6.66664 10.7155 7.28753 9.64601 8.08664 8.70134C9.05805 7.55466 9.95515 6.30995 11.3068 5.56135C12.501 4.89889 13.7309 4.2899 15.0885 4.03442C16.1431 3.83539 17.1531 4.10869 18.077 4.59885C18.9117 5.04148 19.693 5.58808 20.5426 6.11686C20.5931 5.72176 20.6525 5.36528 20.6882 5.00583C20.7832 4.03739 20.8634 3.06896 20.9615 2.10052C20.9852 1.86881 21.0387 1.63412 21.113 1.41132C21.2051 1.14396 21.3566 0.900369 21.6893 0.921164C22.0191 0.941958 22.129 1.20932 22.2122 1.47668C22.3043 1.78266 22.3785 2.09458 22.4736 2.40353C22.7558 3.33334 23.0201 4.27208 23.338 5.19001C23.4479 5.5049 23.6916 5.77226 23.9203 6.13171C24.057 5.92971 24.1371 5.83168 24.1966 5.72473C25.6908 3.0541 28.2545 2.25499 31.044 3.02143C33.0789 3.58288 34.6949 4.77412 35.9931 6.3961C37.0922 7.76558 38.1141 9.19744 39.1925 10.5847C39.9738 11.5918 40.859 12.4979 41.9166 13.2286C42.8701 13.8911 43.7792 14.6249 44.7625 15.2368C45.5319 15.7181 46.3934 16.0567 47.2044 16.4756C47.5252 16.6419 47.8252 16.8558 48.2292 17.1083C47.5014 17.5628 46.8657 17.9876 46.2033 18.3679C45.7725 18.6145 45.315 18.8254 44.8486 18.9947C44.4298 19.1462 43.9841 19.2947 43.5445 19.3185C41.9522 19.4047 40.3629 19.3779 38.8152 18.9056C38.631 18.8491 38.4142 18.8937 38.2121 18.8907C38.325 19.0452 38.4142 19.2234 38.5538 19.3452C39.8401 20.4711 41.1085 21.6237 42.4424 22.6872C43.0454 23.1685 43.3069 23.6913 43.2088 24.4281C43.1405 24.9331 43.0781 25.4381 43.0068 25.9431C42.9058 26.659 42.4929 27.2353 42.1572 27.8503C41.4086 29.2257 40.6214 30.5833 39.9292 31.9854C39.439 32.9806 39.0647 34.0322 38.6607 35.069C38.4498 35.6096 38.4023 35.678 37.823 35.6928C37.6002 35.6988 37.3774 35.6542 37.0892 35.6275L37.0922 35.6304ZM17.468 30.5476C17.4918 30.711 17.5215 30.8596 17.5334 31.0081C17.6255 32.0894 17.367 33.1321 17.1412 34.1718C16.6095 36.6286 15.8727 39.0467 15.7955 41.5866C15.7925 41.7262 15.7747 41.8896 15.84 41.9995C16.2767 42.7303 16.663 43.4879 17.3759 44.0255C17.875 44.3998 18.2998 44.8752 18.7602 45.3059C19.7732 46.2535 20.7417 47.2576 21.8141 48.134C23.6886 49.6698 25.5631 51.2056 27.1643 53.0356C27.3781 53.2792 27.595 53.3534 27.8594 53.1485C27.9931 53.0415 28.1268 52.9168 28.2159 52.7742C28.3704 52.5217 28.4713 52.2365 28.6258 51.9869C29.7873 50.1213 30.8954 48.232 31.8935 46.2714C33.4026 43.3007 35.0336 40.3895 36.2575 37.2792C36.5397 36.5603 36.5783 35.88 36.0584 35.2413C35.8624 35.0007 35.702 34.7363 35.5029 34.5016C34.3325 33.1291 33.1412 31.7715 31.9827 30.3872C31.2964 29.5703 30.6578 28.7147 30.0042 27.8681C29.93 27.773 29.9032 27.6393 29.8557 27.5205C29.8884 27.4968 29.924 27.47 29.9567 27.4463C30.1052 27.568 30.2715 27.672 30.4023 27.8116C30.6756 28.1087 30.9222 28.4295 31.1955 28.7266C32.5531 30.206 33.9077 31.6854 35.2801 33.147C35.7644 33.6639 36.302 34.1332 36.8308 34.6056C36.9972 34.7541 37.2021 34.8581 37.4012 34.968C37.7131 35.1432 37.9032 35.0809 38.025 34.7511C38.2033 34.261 38.3043 33.7381 38.536 33.2777C39.4806 31.4032 40.4639 29.5495 41.4294 27.6839C41.7265 27.1076 42.0622 26.5402 42.2731 25.9312C42.4484 25.4232 42.4632 24.8618 42.5464 24.3211C42.6177 23.8547 42.4394 23.5369 42.0621 23.2309C40.4312 21.906 38.8242 20.5454 37.4428 18.9501C36.9081 18.3322 36.4149 17.6757 35.9129 17.0281C35.8564 16.9539 35.8802 16.8202 35.8683 16.7132C35.9693 16.7518 36.0941 16.7667 36.1624 16.835C36.412 17.0905 36.6407 17.3638 36.8783 17.6282C36.9556 17.7143 37.0358 17.8361 37.1338 17.8629C37.8854 18.0619 38.637 18.2699 39.4004 18.4243C40.7224 18.6947 42.0651 18.7125 43.4078 18.6501C43.8564 18.6293 44.3198 18.5818 44.7387 18.4422C45.5972 18.157 46.3102 17.6044 47.041 17.0192C45.8378 16.74 44.7892 16.1904 43.8059 15.522C43.0128 14.9843 42.2701 14.3664 41.5126 13.7752C39.855 12.483 38.3726 11.0274 37.1903 9.27171C36.6139 8.41615 35.9544 7.61705 35.3009 6.81794C34.279 5.56729 33.0432 4.57211 31.5341 3.96313C29.5794 3.17293 27.6871 3.1759 25.9581 4.54835C25.2363 5.11872 24.6243 5.79009 24.1995 6.62187C23.8668 7.27245 23.445 7.30513 23.142 6.6694C22.8063 5.96833 22.5597 5.21972 22.328 4.47705C22.0666 3.63635 21.8616 2.77486 21.6328 1.92228C21.5407 2.28173 21.4962 2.64415 21.4695 3.00657C21.3863 4.15622 21.3239 5.30587 21.2199 6.45255C21.2021 6.65158 21.0744 6.90409 20.9169 7.00212C20.8041 7.07044 20.5337 6.95162 20.3733 6.85358C19.5415 6.33372 18.7454 5.74553 17.8898 5.27022C17.0313 4.79194 16.0778 4.47705 15.0856 4.74441C12.9288 5.32072 10.9563 6.23866 9.54819 8.0775C9.35509 8.33001 9.10856 8.54687 8.90952 8.7964C8.25004 9.62225 7.58756 10.4511 7.18058 11.4403C5.95072 14.4377 4.71787 17.4321 3.51772 20.4414C3.1345 21.4009 2.57308 22.2119 1.83932 22.9279C1.53631 23.222 1.29569 23.5814 1.02536 23.9082C1.13825 23.8131 1.30757 23.7656 1.46799 23.6973C2.57308 23.2309 3.6811 22.7793 4.77431 22.2892C5.45459 21.9832 6.16463 21.701 6.76174 21.2673C7.93218 20.4206 9.03132 19.473 10.1691 18.5788C10.3503 18.4362 10.5761 18.353 10.7811 18.2402C10.8078 18.2639 10.8316 18.2877 10.8583 18.3114C11.0989 17.6549 11.3336 16.9984 11.5831 16.3449C11.6396 16.1934 11.7376 16.0508 11.8445 15.9319C11.892 15.8785 12.0376 15.8488 12.0881 15.8814C12.1475 15.9201 12.1891 16.0508 12.1713 16.128C12.0881 16.5083 12.005 16.8944 11.8802 17.2628C11.3276 18.8996 10.5731 20.4474 9.67003 21.9149C8.37779 24.0122 6.85973 25.9461 5.24072 27.7968C4.97039 28.1057 4.93769 28.3701 5.07137 28.7207C5.5348 29.9416 5.96856 31.1715 6.45575 32.3835C7.15089 34.1124 7.88166 35.8235 8.60056 37.5406C8.67483 37.7158 8.74317 37.8941 8.83823 38.0545C9.11153 38.5179 9.50663 38.6516 9.87202 38.3011C10.4662 37.7307 11.0217 37.1069 11.5208 36.4503C12.9586 34.5521 14.4736 32.7281 16.2322 31.118C16.5768 30.8001 16.9719 30.6189 17.4621 30.5417L17.468 30.5476Z" fill="#F7F8C5"/>
<path d="M22.3545 10.4126C21.3059 10.4037 20.3374 10.1274 19.3601 9.90166C19.1818 9.86007 18.9858 9.89572 18.7303 9.89572C18.8492 10.1037 18.9085 10.2106 18.9858 10.3413C18.9085 10.3651 18.8432 10.4067 18.8016 10.3918C18.0857 10.1363 17.5747 10.6176 17.0608 10.9325C16.3241 11.384 15.6853 11.99 14.9516 12.4475C14.1822 12.9288 13.3594 13.3268 12.5484 13.7398C12.3909 13.82 12.177 13.7932 11.9898 13.814C11.975 13.7754 11.9602 13.7368 11.9453 13.6982C12.0433 13.612 12.1295 13.5051 12.2424 13.4457C12.6404 13.2318 13.0682 13.0714 13.4425 12.8248C14.405 12.195 15.3408 11.5296 16.2943 10.885C16.7548 10.573 17.2241 10.2789 17.6965 9.97296C17.2093 9.72639 16.6657 9.47686 16.3062 8.99264C16.3241 8.95105 16.3419 8.90946 16.3597 8.8649C16.4963 8.90352 16.6479 8.92134 16.7726 8.9867C17.1737 9.19167 17.5539 9.4323 17.9609 9.62242C18.0916 9.68183 18.3173 9.67886 18.4362 9.60162C18.8372 9.34615 19.2175 9.37883 19.6572 9.50656C20.3939 9.72342 21.1514 9.87195 21.903 10.0472C22.0278 10.0769 22.1555 10.0948 22.3723 10.1363C22.2386 9.45606 22.1109 8.80549 21.9832 8.15491C22.0248 8.14006 22.0664 8.1252 22.105 8.11035C22.1703 8.2173 22.2743 8.3183 22.2951 8.43118C22.5269 9.75016 22.7586 11.0691 22.9606 12.3911C23.0527 12.9882 23.0645 13.5972 23.1477 14.1972C23.1715 14.3606 23.323 14.5032 23.4032 14.6636C24.0122 15.8965 24.63 17.1263 25.2242 18.3681C25.6965 19.3514 26.1362 20.3525 26.5937 21.3447C26.6264 21.416 26.6858 21.4932 26.7511 21.5229C28.183 22.1794 29.4247 23.1479 30.7734 23.9351C31.4299 24.3183 32.2201 24.5976 33.046 24.4698C33.6847 24.3718 34.3026 24.4698 34.9175 24.6035C34.9175 24.6391 34.9175 24.6778 34.9205 24.7134C34.0293 24.7758 33.138 24.8382 32.2052 24.9006C32.5558 25.1085 32.8944 25.2986 33.2212 25.5036C34.3738 26.2344 35.5176 26.9711 36.6702 27.6989C36.9375 27.8683 37.2346 27.996 37.496 28.1713C37.6208 28.2544 37.7455 28.4 37.7782 28.5396C37.805 28.6436 37.6861 28.7832 37.6475 28.8723C36.2186 27.9425 34.8551 27.0484 33.4826 26.1661C32.027 25.2303 30.5684 24.2916 29.0979 23.3825C28.2632 22.8657 27.3928 22.4082 26.5461 21.9121C26.4065 21.8289 26.2639 21.6893 26.1986 21.5407C25.5302 20.0198 24.8885 18.4869 24.2172 16.9689C23.9349 16.3332 23.5992 15.7182 23.2071 15.1033C23.2932 16.0628 23.3646 17.0253 23.4715 17.9819C23.724 20.2485 23.9914 22.5121 24.2587 24.7758C24.336 25.4234 24.4429 26.068 24.5231 26.7156C24.5677 27.081 24.639 27.4553 24.5944 27.8118C24.5172 28.4535 24.7756 29.0209 24.8766 29.6239C25.245 31.7984 25.6965 33.9641 25.9579 36.1534C26.1183 37.4873 26.0411 38.8538 25.9877 40.2054C25.9164 42.0324 25.7738 43.8623 26.1392 45.6715C26.2699 46.3191 26.4986 46.9459 26.7095 47.5727C26.962 48.3302 26.7897 49.0521 26.5669 49.771C26.5372 49.866 26.3887 49.9225 26.2936 49.9938C26.2342 49.8809 26.1451 49.774 26.1243 49.6551C26.1035 49.5333 26.1362 49.3937 26.1748 49.2689C26.4005 48.5649 26.2907 47.8995 26.0471 47.2162C25.4589 45.5734 25.2985 43.8712 25.3846 42.1364C25.4411 41.0461 25.4975 39.9559 25.5361 38.8627C25.5569 38.227 25.5391 37.5883 25.5391 36.9496C25.5094 36.9407 25.4797 36.9288 25.4529 36.9199C24.027 38.8983 22.5981 40.8768 21.1633 42.8701C20.9316 42.6741 20.9762 42.4721 21.098 42.2641C22.1466 40.4461 23.4864 38.8419 24.7934 37.214C25.2747 36.6139 25.5598 36.0673 25.3549 35.2563C25.0519 34.0621 24.8677 32.8382 24.636 31.6232C24.5885 31.3707 24.5617 31.1152 24.529 30.8835C23.4091 32.1609 22.2951 33.4293 21.184 34.7038C20.9999 34.9176 20.8394 35.1523 20.6672 35.3781C20.5483 35.5355 20.3939 35.7168 20.2157 35.5296C20.1503 35.4613 20.2216 35.1702 20.3196 35.0513C20.7533 34.5047 21.2197 33.9849 21.6713 33.4531C21.7366 33.3759 21.793 33.2868 21.8584 33.1976C21.3148 33.1204 20.789 33.0729 20.278 32.9629C20.0077 32.9065 19.7552 32.758 19.5056 32.6273C19.4314 32.5886 19.3957 32.4728 19.3422 32.3956C19.4492 32.3807 19.5621 32.3332 19.6572 32.3569C20.0315 32.4579 20.3998 32.5916 20.7741 32.6956C20.9197 32.7372 21.0801 32.7372 21.2316 32.7609C21.8703 32.859 22.3961 32.7015 22.8209 32.1698C23.1922 31.7093 23.5874 31.2489 24.0508 30.8865C24.7281 30.3577 24.3508 29.7665 24.2706 29.1813C24.2171 28.7743 24.1458 28.3703 24.1013 27.9663C23.9973 27.0365 23.9052 26.1037 23.8042 25.1739C23.5755 23.0736 23.317 20.9733 23.118 18.8701C22.8952 16.5173 22.7288 14.1616 22.5298 11.8059C22.4911 11.3365 22.4199 10.8671 22.3635 10.4007L22.3545 10.4126Z" fill="#F7F8C5"/>
<path d="M16.9187 26.1803C16.8295 25.405 17.1949 24.6801 17.2603 23.8721C17.1622 23.9464 17.0939 23.988 17.0345 24.0414C15.3561 25.5654 13.6717 27.0834 12.0052 28.6222C11.1615 29.4035 10.3713 30.2442 9.51876 31.0166C9.08207 31.4117 8.56515 31.7176 8.07796 32.0533C7.98884 32.1157 7.86999 32.1306 7.76305 32.1692C7.73037 32.1365 7.70065 32.1038 7.66797 32.0711C7.84027 31.8335 7.96801 31.5364 8.19378 31.3701C9.8633 30.1491 11.1615 28.5361 12.6884 27.1636C13.1311 26.7655 13.5796 26.3793 14.0252 25.9872C14.1352 25.8892 14.2421 25.7852 14.3787 25.6545C13.2291 25.3426 12.0913 25.2267 11.0308 24.8227C11.0367 24.7752 11.0427 24.7306 11.0516 24.6831C11.2388 24.6831 11.4318 24.6534 11.613 24.689C12.4775 24.8495 13.339 25.0158 14.1976 25.2C14.5897 25.2832 14.8956 25.2119 15.2046 24.9326C15.9859 24.2226 16.7969 23.5453 17.59 22.8502C17.7029 22.7492 17.7891 22.6155 17.8752 22.4878C18.5317 21.5312 19.212 20.5865 19.8359 19.6092C20.2934 18.8903 20.6825 18.1268 21.1014 17.3842C21.3272 16.9831 21.5469 16.5761 21.7935 16.187C21.8499 16.0979 22.0015 16.0682 22.1084 16.0117C22.1173 16.1276 22.1738 16.2642 22.1322 16.3563C21.4935 17.7704 20.932 19.2141 19.9368 20.4499C19.2684 21.2757 18.7486 22.2174 18.1604 23.1086C18.1277 23.1591 18.1128 23.2364 18.0713 23.2601C17.593 23.4978 17.6435 23.979 17.5484 24.392C17.4504 24.8079 17.3791 25.2297 17.2722 25.6456C17.2217 25.8417 17.1236 26.0258 17.0464 26.216C17.0078 26.2041 16.9662 26.1922 16.9276 26.1833L16.9187 26.1803Z" fill="#F7F8C5"/>
<path d="M33.8934 10.4358C32.4615 11.0656 30.9673 11.3151 29.4137 11.3894C29.687 11.5142 29.9603 11.6449 30.2365 11.7637C31.7248 12.4083 33.2933 12.7797 34.8707 13.1183C35.3698 13.2253 35.8719 13.3114 36.3709 13.4213C36.4571 13.4392 36.5254 13.5342 36.6027 13.5936C36.5165 13.6323 36.4244 13.7125 36.3442 13.7006C35.1232 13.5253 33.8934 13.4006 32.6933 13.1421C31.2169 12.8213 29.8444 12.1885 28.4897 11.5231C27.4797 11.03 26.446 10.5725 25.4033 10.1566C24.9517 9.97834 24.4407 9.94567 23.9595 9.84169C23.8733 9.82387 23.7961 9.76742 23.7129 9.72881C23.7842 9.6486 23.8555 9.50006 23.9298 9.49709C24.2596 9.48224 24.61 9.43768 24.9131 9.53274C25.6943 9.77039 26.4786 10.0199 27.2153 10.3645C28.3471 10.8933 29.5117 10.9943 30.7207 10.8398C31.6624 10.718 32.6011 10.5754 33.5399 10.4447C33.6557 10.4299 33.7745 10.4447 33.8934 10.4447V10.4358Z" fill="#F7F8C5"/>
<path d="M25.3328 29.5314C25.8408 30.2562 26.3665 30.9692 26.8478 31.7089C27.2696 32.3535 27.8192 32.7902 28.547 33.0397C28.856 33.1437 29.1411 33.3309 29.4263 33.5002C29.56 33.5804 29.661 33.7111 29.7739 33.821C29.7502 33.8596 29.7294 33.8983 29.7056 33.9369C29.1501 33.6873 28.5945 33.4378 28.0361 33.1853C28.0153 33.2061 27.9945 33.2298 27.9707 33.2506C28.0688 33.3873 28.1579 33.5299 28.2648 33.6606C29.1738 34.7716 30.1333 35.844 30.9859 36.9996C31.6306 37.87 32.1474 38.8385 32.694 39.7772C32.7921 39.9465 32.7743 40.1901 32.7862 40.401C32.7891 40.4575 32.6881 40.5733 32.6555 40.5644C32.5782 40.5466 32.4832 40.4902 32.4446 40.4218C32.1297 39.8574 31.8147 39.293 31.5207 38.7196C30.7958 37.3086 29.6581 36.2124 28.7164 34.9647C27.7093 33.6309 26.7498 32.2614 25.7784 30.9009C25.5675 30.6038 25.3862 30.28 25.2288 29.9532C25.1724 29.8344 25.2199 29.668 25.2199 29.5225C25.2555 29.5254 25.2912 29.5314 25.3269 29.5343L25.3328 29.5314Z" fill="#F7F8C5"/>
<path d="M35.1335 23.415C34.8899 23.4268 34.6463 23.4684 34.4056 23.4447C33.9125 23.3942 33.5085 23.1862 33.1134 22.8505C31.0072 21.0681 29.4447 18.8609 28.0514 16.5141C28.0009 16.4309 28.0188 16.3062 28.0039 16.1992C28.1287 16.2289 28.295 16.217 28.3723 16.2943C28.5446 16.4695 28.6842 16.6805 28.8208 16.8884C29.9497 18.6114 31.236 20.2126 32.6827 21.6742C33.1996 22.197 33.7284 22.7733 34.5483 22.8951C34.777 22.9307 34.9731 23.1773 35.184 23.3259C35.1662 23.3556 35.1484 23.3823 35.1305 23.412L35.1335 23.415Z" fill="#F7F8C5"/>
<path d="M18.4508 10.5107C18.3469 11.3901 17.5656 13.1962 17.2121 13.3745C17.1735 12.7714 18.1062 10.6207 18.4508 10.5107Z" fill="#F7F8C5"/>
<path d="M20.0082 18.2935C19.1912 18.3618 18.4426 18.1122 17.6465 17.8122C18.0921 17.5805 19.7319 17.8954 20.0082 18.2935Z" fill="#F7F8C5"/>
</svg>
