<svg width="69" height="31" viewBox="0 0 69 31" fill="none" xmlns="http://www.w3.org/2000/svg">
<path d="M24.1197 27.8715H21.5017C21.3665 28.8302 20.9363 29.6046 20.1251 30.1331C19.5597 30.5141 18.9328 30.6247 18.2568 30.5633C16.9663 30.4281 16.1183 29.3465 15.9216 27.5765H14.1025C13.9919 28.0928 13.9919 28.6213 13.7707 29.0515C13.1807 30.256 12.0008 30.7968 10.6979 30.3789C9.46883 29.9856 8.22741 30.047 6.98602 30.047C5.04405 30.047 3.08978 30.0962 1.1478 30.1331C0.975729 30.1331 0.815904 30.1945 0.64383 30.1822C0.508629 30.1822 0.373482 30.1208 0.238281 30.0962C0.287445 29.9487 0.287439 29.7398 0.385767 29.6537C1.09864 29.0515 1.81152 28.4738 2.53669 27.8961C4.49096 26.3352 6.45748 24.7619 8.41175 23.201C8.51007 23.1272 8.59614 23.0412 8.66988 22.9797C6.49438 20.1282 6.7771 17.1907 8.23973 14.2162C8.75595 13.1592 9.75149 12.7782 10.8945 12.7536C11.2141 12.7536 11.5459 12.7045 11.8655 12.6799C11.8409 10.9714 11.6443 9.34901 11.1649 7.73889C10.5504 5.62484 10.1325 3.47392 9.65315 1.323C9.49336 0.622411 9.84979 0.229095 10.5627 0.229095C12.2342 0.229095 13.8935 0.216804 15.5651 0.229095C16.0813 0.229095 16.5976 0.302844 17.1015 0.352008C17.6054 0.401172 17.7652 0.720738 17.6423 1.29841C17.2613 2.96999 16.868 4.64156 16.5115 6.32543C16.2534 7.51766 15.983 8.72217 15.8724 9.92669C15.7863 10.7994 15.9462 11.6966 15.9953 12.5815C16.5976 12.6922 17.1629 12.7413 17.2367 13.5034C17.63 13.4542 17.9987 13.4173 18.4043 13.3682C18.4043 13.2207 18.4289 13.0855 18.4043 12.9503C18.2568 12.2374 18.2815 12.0776 18.9943 12.0039C20.1374 11.8687 21.2927 11.8441 22.4358 11.8441C22.8783 11.8441 23.1486 12.1514 23.0872 12.6553C23.0503 12.938 23.038 13.233 23.0011 13.5648C23.5419 13.5157 24.0459 13.4665 24.6236 13.4173C24.599 13.1715 24.5744 12.9503 24.5375 12.7167C24.4884 12.4095 24.6113 12.1759 24.9185 12.1514C25.9879 12.053 27.0695 11.9793 28.1511 11.9055C28.569 11.881 28.7288 12.1268 28.7165 12.5201C28.7165 12.8397 28.7165 13.1715 28.7165 13.6509C29.0483 13.5034 29.3556 13.4665 29.54 13.2821C30.4372 12.3972 31.5188 12.1759 32.7234 12.2374C33.4239 12.2743 34.1245 12.2374 34.9111 12.2374C34.9111 11.5122 34.8988 10.8485 34.9111 10.1848C34.9234 9.71774 34.948 9.26298 35.0218 8.80821C35.2922 7.22267 36.3615 6.20252 38.0822 5.89524C38.6107 5.80921 39.1392 5.76004 39.68 5.76004C41.5114 5.76004 42.888 7.19809 42.8634 9.04174C42.8634 9.57025 42.802 10.1111 42.802 10.6396C42.802 11.1681 42.8511 11.7089 42.8757 12.3111C43.4288 12.348 43.9942 12.4218 44.5473 12.4218C45.1373 12.4218 45.6166 12.6061 46.0345 13.024C46.1697 13.1592 46.4155 13.2453 46.6122 13.2453C47.6815 13.2698 48.7385 13.2453 49.8078 13.2453C49.8078 12.3849 49.8078 11.6474 49.8078 10.91C49.8078 10.3569 49.7832 9.80378 49.8078 9.25068C49.8201 8.73446 49.8939 8.20595 49.2302 8.00929C49.2056 8.00929 49.1564 7.96013 49.1564 7.93555C49.0827 7.07518 48.9966 6.2271 48.9597 5.36673C48.9597 5.30527 49.267 5.17008 49.4268 5.15779C50.6559 5.04717 51.8973 4.92426 53.1387 4.87509C55.5477 4.77676 57.9568 4.65385 60.3781 4.65385C62.7502 4.65385 65.1347 4.75218 67.5069 4.83822C68.1091 4.8628 68.232 5.03488 68.232 5.66172C68.232 5.88295 68.2198 6.11648 68.232 6.33772C68.2935 7.1858 67.9002 7.60369 67.0644 7.93555C66.794 8.04617 66.499 8.1322 66.2163 8.1322C65.4174 8.1322 64.7414 8.50093 64.0039 8.74675C62.7994 9.15236 62.3447 10.0619 62.2463 11.1681C62.1111 12.7413 62.0251 14.3392 62.0373 15.9124C62.0496 18.7393 62.148 21.5663 62.2094 24.3809C62.2094 24.7988 62.2094 25.2044 62.1848 25.6223C62.1725 26.0648 61.9145 26.372 61.5211 26.4335C60.3043 26.6301 59.0752 26.7653 57.8461 26.9128C57.6249 26.9374 57.4037 26.8883 57.1702 26.8883C56.4819 26.9005 55.9779 27.0235 55.6338 27.8224C54.9086 29.4939 53.446 30.2806 51.6392 30.2314C49.7956 30.1822 48.4804 29.2481 47.7429 27.5643C47.6077 27.257 47.4602 27.1587 47.1407 27.1955C46.4278 27.2816 45.6903 27.2939 44.9774 27.3922C44.8054 27.4168 44.5718 27.5643 44.5104 27.724C43.7238 29.4694 42.3595 30.3666 40.479 30.3543C38.6107 30.3543 37.2219 29.4448 36.423 27.7363C36.2755 27.4291 36.1157 27.3676 35.7961 27.3799C34.8866 27.4168 33.9771 27.3922 33.0552 27.4291C32.9323 27.4291 32.7602 27.5643 32.6865 27.6872C31.7646 29.2235 30.4249 30.0716 28.655 30.2314C26.7499 30.3912 25.2627 29.6537 24.2548 28.019C24.218 27.9576 24.1811 27.9084 24.1443 27.847C24.1443 27.8347 24.1197 27.8224 24.1197 27.8224V27.8715ZM19.1541 24.7742C19.2278 23.5451 19.2893 22.3529 19.3631 21.1729C19.3876 20.7428 19.6089 20.5215 20.0514 20.5092C20.7028 20.4969 21.3542 20.4232 22.0179 20.4232C31.1378 20.3494 40.27 20.288 49.3899 20.2142C49.5743 20.2142 49.7586 20.2142 49.8938 20.2142V13.8967C48.6893 13.9213 47.5709 13.9336 46.4524 13.9827C46.1082 13.995 45.8501 13.909 45.6657 13.6263C45.4445 13.2698 45.1127 13.1469 44.7071 13.1346C43.1338 13.0855 41.5729 12.9994 39.9996 12.9871C37.357 12.9626 34.7268 12.9871 32.0842 12.9871C31.3099 12.9871 30.6339 13.1838 30.0685 13.7369C29.8841 13.9213 29.6015 14.0933 29.3679 14.1056C28.3601 14.1548 27.3399 14.1425 26.332 14.1425C25.2381 14.1425 24.1442 14.1425 23.0134 14.1425C23.0134 14.4744 23.0134 14.7325 23.0134 14.9906C23.0012 16.5638 22.3375 17.203 20.8011 17.0063C19.4737 16.8342 18.8468 16.699 18.601 14.9783C18.5519 14.671 18.5519 14.3637 18.5273 14.0073C18.134 14.0442 17.7652 14.081 17.4825 14.1056C17.5194 15.6051 17.5563 17.0309 17.5685 18.4566C17.5808 19.8947 17.5685 21.345 17.5685 22.8568C18.6624 23.0412 18.0971 24.1228 18.3429 24.8357C18.6502 24.8234 18.9206 24.7988 19.1787 24.7865L19.1541 24.7742ZM56.1868 26.2C57.8707 26.1016 59.5177 26.0033 61.1647 25.8804C61.2876 25.8804 61.4842 25.6223 61.4842 25.4748C61.4965 24.5653 61.4843 23.6434 61.4474 22.7339C61.4228 22.0825 61.3736 21.4433 61.3367 20.8165C47.534 20.9148 33.7804 21.0009 19.9776 21.0992C19.8916 22.3406 19.7932 23.6311 19.6949 24.9217C20.8379 25.5362 21.0961 25.8681 21.514 27.257C22.276 27.2078 23.0381 27.1587 23.8124 27.1095C23.1856 23.3362 26.4181 21.2836 28.9623 21.4556C30.2652 21.5417 31.3713 22.0456 32.2194 23.0289C33.1904 24.1597 33.424 25.4625 33.0552 26.9005C34.0631 26.8145 35.034 26.7285 36.0542 26.6424C35.919 25.3396 36.2631 24.1842 37.062 23.1641C37.8855 22.1316 38.9672 21.6031 40.27 21.5417C41.4254 21.4802 42.4455 21.8735 43.3059 22.611C44.5596 23.6803 44.9652 25.0938 44.8054 26.7162C45.7027 26.667 46.5384 26.6179 47.3742 26.581C47.239 23.2132 49.648 21.6031 51.7252 21.5663C52.7453 21.554 53.6549 21.8735 54.4538 22.5004C55.6338 23.3976 56.15 24.6267 56.1746 26.2H56.1868ZM63.205 8.34115C63.0083 8.31657 62.9469 8.31657 62.8854 8.31657C58.8294 8.31657 54.7856 8.34115 50.7296 8.34115C50.3117 8.34115 50.2995 8.5501 50.3241 8.85737C50.4347 11.0575 50.5576 13.2575 50.619 15.4576C50.6682 17.0309 50.619 18.6041 50.619 20.1897H61.3367C61.3367 19.8578 61.3367 19.5628 61.3367 19.2801C61.3859 16.6867 61.3859 14.081 61.5088 11.4876C61.5703 10.2831 62.0005 9.16465 63.205 8.35344V8.34115ZM16.954 22.6847C16.954 22.6847 16.9786 22.5618 16.9786 22.4758C16.9417 19.8209 16.9048 17.1661 16.868 14.5112C16.868 14.3392 16.7942 14.1671 16.8065 13.995C16.8311 13.5034 16.5361 13.3682 16.1305 13.3559C15.0735 13.3313 14.0288 13.3067 12.9717 13.2944C12.1482 13.2944 11.3248 13.2944 10.4521 13.2944C10.5381 16.5024 10.6241 19.6243 10.7102 22.6847H16.954ZM10.1325 0.929686C10.8454 3.97785 11.5582 6.98914 12.2588 10.0004C13.2544 9.93898 14.2131 9.86523 15.1595 9.80378C15.7863 6.86623 16.4132 3.92869 17.0523 0.917393H10.1325V0.929686ZM67.47 5.56339C66.7326 5.56339 65.9828 5.58797 65.2207 5.56339C60.1569 5.32986 55.0807 5.57568 50.0168 5.63713C49.9676 5.63713 49.9062 5.63713 49.857 5.63713C49.6112 5.6863 49.4637 5.79692 49.5251 6.10419C49.5866 6.46063 49.6112 6.82936 49.5989 7.1858C49.5743 7.64056 49.7955 7.82493 50.2134 7.80035C50.8157 7.77576 51.418 7.7266 52.0202 7.71431C55.3265 7.65285 58.645 7.60369 61.9513 7.55453C63.3279 7.52995 64.7045 7.55453 66.0811 7.49307C67.3225 7.44391 67.7404 6.86623 67.47 5.57568V5.56339ZM28.655 22.3406C27.303 22.3037 25.9756 22.9306 25.1398 23.9999C23.837 25.6837 24.3163 27.9699 26.1845 28.99C27.8684 29.9118 29.9825 29.6046 31.3222 28.2526C32.6742 26.8883 32.7356 24.7865 31.445 23.4714C30.683 22.697 29.7243 22.3775 28.6427 22.3529L28.655 22.3406ZM44.2031 26.0033C44.2031 23.9138 42.5562 22.3037 40.4298 22.316C38.4633 22.316 36.8408 23.9507 36.8408 25.905C36.8408 27.9207 38.4755 29.6046 40.4421 29.6046C42.4701 29.6046 44.1909 27.9576 44.1909 25.991L44.2031 26.0033ZM55.3879 25.9787C55.3879 23.8647 53.8639 22.2791 51.7867 22.2668C49.771 22.2668 48.1977 23.8401 48.1854 25.8681C48.1732 27.7855 49.857 29.4939 51.7621 29.4939C53.7655 29.4939 55.3757 27.933 55.3879 25.9664V25.9787ZM17.4825 26.876C17.4825 25.7452 17.4948 24.7619 17.458 23.7909C17.458 23.6803 17.1998 23.5082 17.0523 23.4959C16.0691 23.4222 15.0981 23.3362 14.1148 23.3239C12.9963 23.3116 11.8779 23.3239 10.7717 23.3976C10.2432 23.4345 9.88671 23.8524 9.83754 24.3563C9.77609 24.9463 9.83749 25.5608 9.86207 26.1631C9.87436 26.4212 9.98504 26.6056 10.3046 26.6179C12.7013 26.7039 15.1103 26.7899 17.4702 26.876H17.4825ZM8.80507 29.2973C8.14135 28.5475 8.15366 27.7978 8.43635 27.0235C8.58384 26.6301 8.82969 26.2614 9.00176 25.8681C9.0878 25.6837 9.14924 25.4625 9.13695 25.2658C9.10007 24.6513 9.00175 24.0245 9.53027 23.5082C9.3459 23.4099 9.19839 23.3239 9.0509 23.2501C9.07548 23.2993 9.10006 23.3485 9.12464 23.3976C6.62957 25.4379 4.1345 27.4782 1.59026 29.5677C4.01159 29.4817 6.34687 29.3956 8.80507 29.2973ZM35.5503 12.262H42.1505V9.57025H35.5503V12.262ZM9.96042 13.4542C9.21067 13.909 8.8051 14.5235 8.5347 15.2241C7.67433 17.4365 7.44077 19.6366 8.80507 21.7506C9.12463 22.2423 9.53024 22.6479 10.194 22.9306C10.1202 19.7226 10.0465 16.613 9.97272 13.4419L9.96042 13.4542ZM16.573 27.4536C16.4747 28.8056 17.249 29.8135 18.3675 29.9241C19.572 30.047 20.629 29.2235 20.7888 28.0313C20.9609 26.7408 20.2234 25.696 19.0066 25.4994C18.3797 25.401 18.2815 25.4994 18.2937 26.1016C18.2937 26.2614 18.2937 26.4089 18.2937 26.5687C18.2937 27.1709 17.9987 27.4659 17.3965 27.4414C17.1261 27.4414 16.8557 27.4414 16.5607 27.4414L16.573 27.4536ZM18.982 12.4955C19.0681 13.3436 19.1172 14.0688 19.2156 14.7693C19.4122 16.1091 19.4737 16.1582 20.8257 16.404C21.8704 16.6007 22.3129 16.2443 22.3252 15.1627C22.3374 14.2531 22.3252 13.3559 22.3252 12.3357C21.219 12.3849 20.1005 12.4341 18.9697 12.4955H18.982ZM42.0153 8.59926C41.7449 7.54224 40.9829 6.78019 39.975 6.70645C39.213 6.65728 38.4018 6.645 37.6766 6.85394C36.6687 7.14893 35.8575 7.80035 35.538 8.88195C37.7135 8.78363 39.8521 8.69759 42.0276 8.59926H42.0153ZM9.28443 26.4212C8.96487 27.3061 8.62072 28.0436 9.28443 28.7688C9.94815 29.4939 10.7594 29.8873 11.7549 29.8258C12.6153 29.7643 13.279 28.8794 13.1315 28.0436C13.0701 27.724 12.9471 27.552 12.5661 27.5397C11.8286 27.5151 11.0912 27.4291 10.3537 27.3553C9.8621 27.3062 9.44421 27.1341 9.28443 26.4335V26.4212ZM12.3572 12.5938H15.4053C15.3684 11.881 15.3193 11.2295 15.2824 10.5658H12.1606C12.2343 11.291 12.2957 11.9301 12.3572 12.5938ZM25.1644 13.5034H28.0159V12.5447C27.0203 12.6061 26.0617 12.6553 25.0538 12.7167C25.0907 12.9994 25.1275 13.233 25.1644 13.5034Z" fill="#F7F8C5"/>
<path d="M55.6953 13.7002C54.5645 13.7002 53.4215 13.7002 52.2907 13.7002C51.5532 13.7002 51.332 13.4421 51.332 12.7415C51.332 11.623 51.3443 10.5045 51.3443 9.38606C51.3443 9.10337 51.418 8.94359 51.7499 8.9313C54.245 8.83297 56.74 8.73464 59.2228 8.62402C59.2966 8.62402 59.358 8.62402 59.4318 8.62402C60.2921 8.64861 60.3782 8.72235 60.3782 9.57043C60.3782 10.6397 60.3905 11.6968 60.3659 12.7661C60.3413 13.4298 60.1815 13.6019 59.5301 13.6265C58.2518 13.6633 56.9859 13.6265 55.7076 13.6265C55.7076 13.651 55.7076 13.6756 55.7076 13.6879L55.6953 13.7002ZM59.7759 9.18941C57.0719 9.32461 54.4293 9.44752 51.7376 9.58272C51.7867 10.7504 51.8359 11.8443 51.8851 12.9013H59.7759V9.18941Z" fill="#F7F8C5"/>
<path d="M30.251 26.2364C30.251 27.2197 29.5258 27.9326 28.5548 27.9203C27.6576 27.9203 26.9693 27.1828 26.957 26.2364C26.957 25.3761 27.7313 24.5894 28.6163 24.5771C29.5012 24.5771 30.2633 25.3392 30.251 26.2364ZM28.6163 25.2654C28.0017 25.2654 27.547 25.6833 27.547 26.2733C27.547 26.8264 28.0386 27.318 28.604 27.3303C29.1448 27.3426 29.6242 26.8633 29.6365 26.3225C29.6365 25.7202 29.2185 25.2654 28.6163 25.2654Z" fill="#F7F8C5"/>
<path d="M42.2594 26.1511C42.2471 27.1098 41.485 27.8719 40.5263 27.8104C39.5308 27.7489 38.9777 27.0729 38.9531 25.9422C38.9531 25.1801 39.8258 24.4672 40.6861 24.4918C41.5588 24.5164 42.2717 25.2662 42.2594 26.1511ZM40.637 27.2573C41.2147 27.2573 41.6326 26.8517 41.6326 26.2986C41.6326 25.6841 41.1409 25.2047 40.5509 25.2293C40.0347 25.2539 39.5677 25.7578 39.5554 26.3109C39.5554 26.8148 40.0593 27.2696 40.637 27.2696V27.2573Z" fill="#F7F8C5"/>
<path d="M50.2117 26.0151C50.2117 25.1178 50.8754 24.4541 51.7727 24.4541C52.6822 24.4541 53.3582 25.167 53.3459 26.1257C53.3336 26.9983 52.633 27.662 51.7358 27.6498C50.8262 27.6498 50.1871 26.9615 50.1994 26.0151H50.2117ZM52.7559 26.0642C52.7559 25.5603 52.2643 25.0932 51.7481 25.1055C51.281 25.1055 50.7894 25.5972 50.7648 26.0642C50.7402 26.5436 51.2565 27.0352 51.7727 27.0352C52.3012 27.0352 52.756 26.5927 52.7682 26.0642H52.7559Z" fill="#F7F8C5"/>
</svg>
