<svg width="62" height="63" viewBox="0 0 62 63" fill="none" xmlns="http://www.w3.org/2000/svg">
<path d="M45.9605 22.9614C52.6471 31.0939 51.5749 43.0068 43.59 49.5721C35.605 56.1374 23.7096 54.8867 17.023 46.7542C10.3364 38.6217 11.4086 26.7088 19.3935 20.1435C27.3784 13.5782 39.2739 14.829 45.9605 22.9614Z" stroke="#F7F8C5"/>
<path d="M38.5313 33.8396C38.9357 34.1314 39.0778 34.5771 39.186 35.0245C39.5192 36.4028 39.845 37.7833 40.1531 39.1673C40.3136 39.8876 40.4375 40.6156 40.5665 41.3431C40.6617 41.8816 40.7379 42.4245 40.8225 42.9661C40.8688 43.2588 40.6533 43.6809 40.3821 43.8011C40.3146 43.8304 40.222 43.8224 40.1454 43.8088C38.933 43.6095 37.7101 43.6019 36.4859 43.5974C35.8829 43.596 35.2785 43.5042 34.6753 43.4525C34.245 43.4157 33.8138 43.3572 33.3832 43.3449C33.057 43.3346 32.7741 43.2065 32.4783 43.1058C32.4078 43.0815 32.3467 43.014 32.294 42.9545C31.6985 42.2985 31.2602 41.5449 30.8912 40.7437C30.6552 40.2294 30.3998 39.7255 30.1336 39.2267C30.0182 39.0113 29.851 38.8216 29.7085 38.6211C29.6909 38.6224 29.6743 38.6249 29.6578 38.6254C29.6366 38.7269 29.6053 38.8274 29.5943 38.9299C29.4736 40.1038 29.4767 41.2806 29.5475 42.4578C29.5765 42.9386 29.4958 43.4087 29.3556 43.8679C29.3042 44.0372 29.2302 44.07 29.0721 43.9982C28.7214 43.8399 28.3695 43.6824 28.0267 43.5064C27.1555 43.0583 26.2858 42.6052 25.4212 42.1424C25.0703 41.9543 24.733 41.7419 24.3932 41.5354C24.2702 41.4609 24.1556 41.3738 24.0434 41.2828C23.8932 41.1615 23.8369 41.0134 23.8388 40.8044C23.8517 39.7266 23.9028 38.6454 23.7212 37.5743C23.6653 37.2427 23.5636 36.9189 23.4836 36.5921C23.4699 36.5959 23.4553 36.5986 23.4416 36.6024C23.3682 36.9132 23.2998 37.2255 23.2173 37.5344C23.1555 37.7684 23.0992 38.009 22.998 38.2268C22.8853 38.4671 22.7157 38.6814 22.5812 38.9134C22.378 39.2618 22.1827 39.613 21.9872 39.9663C21.8538 40.2086 21.7331 40.4574 21.5988 40.6987C21.5264 40.8311 21.4097 40.8915 21.2531 40.8783C21.0953 40.8659 20.9979 40.7703 21.0112 40.6136C21.0298 40.3908 21.092 40.164 21.0661 39.9461C21.0075 39.4429 20.9295 38.9389 20.8135 38.4455C20.7159 38.0267 20.5499 37.6249 20.4251 37.2117C20.3414 36.9348 20.2821 36.649 20.1983 36.3721C20.0055 35.7307 19.8093 35.092 19.6048 34.4546C19.4201 33.8776 19.3231 33.2845 19.3315 32.6832C19.3422 31.953 19.2948 31.2088 19.5712 30.5106C19.815 29.8934 20.0887 29.2852 20.5195 28.7703C20.8539 28.37 21.3174 28.1609 21.8155 28.0598C22.2655 27.9683 22.7275 27.9323 23.2096 27.8686C23.1066 27.7047 23.0189 27.5525 22.9213 27.4066C22.6581 27.0137 22.3893 26.6254 22.1272 26.2316C22.0646 26.1373 22.0122 26.0327 21.9714 25.9262C21.9234 25.7974 21.9051 25.6592 22.0364 25.5643C22.1666 25.4703 22.2904 25.5367 22.4042 25.6114C22.5332 25.6979 22.6573 25.792 22.7883 25.8787C23.1813 26.1406 23.5702 26.4114 23.9729 26.6579C24.1113 26.7422 24.2853 26.7673 24.4821 26.8317C24.4711 26.7136 24.4709 26.6521 24.4602 26.5936C24.1968 25.1299 24.9126 24.0387 26.1963 23.4654C27.1334 23.0481 28.1077 22.9965 29.0957 23.2047C29.9309 23.3795 30.7565 23.6016 31.5895 23.7896C32.1936 23.9265 32.8055 23.9934 33.4281 23.9413C33.9905 23.8956 34.5582 23.8905 35.1162 23.8167C35.5536 23.7599 35.9815 23.6212 36.4152 23.5281C36.587 23.4915 36.7656 23.4792 36.9952 23.4493C36.8623 23.8445 36.7548 24.2002 36.6235 24.5474C36.5379 24.7729 36.4312 24.9933 36.3084 25.2008C36.1979 25.387 36.0765 25.5803 35.9188 25.7249C35.3477 26.2487 34.7428 26.7292 34.016 27.0295C33.9295 27.0652 33.8618 27.1489 33.7851 27.2101C33.8751 27.2332 33.9636 27.2726 34.0536 27.2753C34.884 27.3009 35.7159 27.3421 36.5448 27.3296C36.9197 27.3241 37.1792 27.4397 37.3698 27.7465C37.5 27.9572 37.6325 28.166 37.7616 28.3776C37.9447 28.6775 37.9675 29.0213 38.0313 29.3557C38.1748 30.1031 38.2983 30.8557 38.4712 31.5957C38.5944 32.1206 38.7785 32.6308 38.9468 33.1447C39.0345 33.4128 39.0377 33.4531 38.8249 33.6375C38.7431 33.7085 38.6457 33.7605 38.5293 33.8394L38.5313 33.8396ZM29.5959 37.9885C29.6552 38.0425 29.7122 38.0891 29.7625 38.1412C30.1308 38.5187 30.3556 38.9899 30.5918 39.4498C31.1505 40.5362 31.6202 41.6713 32.3752 42.6486C32.4172 42.7019 32.4609 42.7688 32.5193 42.7898C32.9088 42.9294 33.2876 43.0945 33.7212 43.0763C34.0241 43.0628 34.3302 43.1101 34.636 43.1297C35.3088 43.1728 35.9822 43.2508 36.6553 43.2488C37.833 43.2467 39.0106 43.2447 40.1765 43.4374C40.332 43.4629 40.4363 43.4238 40.4723 43.2653C40.4895 43.1839 40.5011 43.0958 40.4906 43.0147C40.4706 42.8723 40.4205 42.734 40.4015 42.5927C40.2617 41.5339 40.0945 40.4827 39.8641 39.4386C39.5137 37.8577 39.2274 36.2614 38.7268 34.7161C38.6109 34.3592 38.4154 34.0919 38.0231 34.0126C37.8752 33.9828 37.7334 33.933 37.5863 33.9064C36.7233 33.7524 35.8571 33.6105 34.995 33.4484C34.4852 33.3535 33.9814 33.2295 33.4748 33.1134C33.4175 33.1006 33.3662 33.0587 33.3117 33.0288C33.3167 33.0098 33.3218 32.9887 33.3267 32.9697C33.4201 32.9696 33.5146 32.9573 33.6068 32.9694C33.801 32.9965 33.9926 33.0408 34.1869 33.068C35.1531 33.2043 36.1183 33.3416 37.0846 33.4666C37.4259 33.5112 37.7726 33.5214 38.1169 33.5356C38.2251 33.54 38.3342 33.5157 38.4428 33.4956C38.614 33.4651 38.6661 33.383 38.6101 33.2216C38.5257 32.9826 38.4022 32.7552 38.3471 32.5108C38.1232 31.5156 37.9201 30.5162 37.7068 29.5179C37.6404 29.2099 37.5913 28.8933 37.4825 28.5996C37.3915 28.3548 37.2238 28.1395 37.0881 27.9108C36.971 27.7138 36.8059 27.6495 36.5699 27.651C35.5487 27.6571 34.5255 27.6423 33.5146 27.4699C33.1232 27.4029 32.7354 27.3087 32.3471 27.2206C32.303 27.2101 32.2706 27.1526 32.2332 27.1161C32.283 27.0994 32.3344 27.0665 32.3812 27.0711C32.5537 27.0899 32.7239 27.1219 32.8947 27.1478C32.9503 27.1563 33.018 27.1773 33.063 27.1571C33.4066 26.9998 33.7529 26.8459 34.0872 26.6683C34.6669 26.3617 35.1764 25.954 35.6612 25.5161C35.8232 25.3699 35.9824 25.209 36.0966 25.0273C36.3308 24.6553 36.4279 24.2278 36.5216 23.7826C35.9838 24.0491 35.4206 24.1664 34.8452 24.219C34.3815 24.262 33.912 24.2593 33.4451 24.2711C32.424 24.2977 31.4183 24.2088 30.4326 23.9147C29.9522 23.7714 29.458 23.675 28.966 23.5767C28.1964 23.4226 27.4254 23.4305 26.6709 23.6676C25.6932 23.9743 24.9838 24.5595 24.7584 25.6083C24.6635 26.0452 24.641 26.4861 24.7382 26.9295C24.8141 27.2764 24.6659 27.4188 24.3559 27.2737C24.0135 27.1142 23.6899 26.9092 23.3737 26.702C23.0161 26.4671 22.6732 26.207 22.3242 25.9575C22.4006 26.1209 22.4957 26.2707 22.5976 26.415C22.9212 26.8722 23.2526 27.323 23.5675 27.7855C23.6222 27.8658 23.6522 28 23.6233 28.0854C23.6021 28.1459 23.4639 28.1847 23.3734 28.1974C22.9007 28.259 22.4203 28.2839 21.9525 28.3695C21.4826 28.455 21.0274 28.6311 20.7375 29.0377C20.1058 29.9197 19.6486 30.8731 19.6876 31.998C19.693 32.1523 19.6674 32.3098 19.6697 32.4649C19.6771 32.9785 19.6842 33.4941 19.8367 33.9911C20.3002 35.4958 20.7616 37.0004 21.2399 38.5005C21.3922 38.9789 21.4318 39.4567 21.3773 39.9519C21.3543 40.1558 21.3749 40.365 21.3743 40.5711C21.3874 40.5006 21.4362 40.4305 21.4754 40.3553C21.7463 39.8391 22.0228 39.3277 22.2819 38.8062C22.4428 38.4814 22.6223 38.1563 22.7126 37.8092C22.8906 37.1302 23.0107 36.4352 23.1619 35.7484C23.1859 35.6389 23.2449 35.538 23.2871 35.4324C23.3044 35.433 23.3207 35.4346 23.3381 35.4353C23.2257 35.1146 23.1112 34.7957 23.0032 34.4733C22.9776 34.399 22.9704 34.3153 22.9738 34.2377C22.9752 34.2029 23.0207 34.1468 23.0497 34.1435C23.0839 34.1397 23.1399 34.1759 23.157 34.2104C23.2432 34.3788 23.3311 34.5494 23.398 34.7262C23.6958 35.5112 23.8902 36.3251 24.0042 37.1547C24.1664 38.3408 24.1934 39.5353 24.1569 40.7298C24.1508 40.9292 24.2201 41.0385 24.3785 41.1288C24.9293 41.4441 25.4717 41.7719 26.0287 42.0765C26.8232 42.511 27.6257 42.9278 28.4255 43.3504C28.5075 43.3933 28.5882 43.4391 28.6733 43.47C28.919 43.5596 29.1085 43.4879 29.1375 43.2435C29.1845 42.846 29.2005 42.4404 29.1852 42.0399C29.1391 40.8835 29.1448 39.7312 29.308 38.584C29.3393 38.3584 29.4317 38.1684 29.5918 37.9881L29.5959 37.9885Z" fill="#F7F8C5"/>
<path d="M25.216 28.9225C24.8196 29.2428 24.3707 29.438 23.9342 29.6549C23.8544 29.6943 23.7918 29.7682 23.6959 29.847C23.8047 29.8884 23.86 29.9102 23.9294 29.9355C23.9077 29.9682 23.896 30.004 23.8758 30.0113C23.5282 30.1363 23.4849 30.4747 23.3892 30.7515C23.252 31.1484 23.1993 31.573 23.0651 31.9712C22.9248 32.3894 22.7388 32.7928 22.5618 33.1981C22.5274 33.2768 22.4389 33.3328 22.375 33.3983C22.3575 33.3884 22.3401 33.3785 22.3226 33.3686C22.3328 33.306 22.3321 33.2393 22.3561 33.1821C22.4395 32.979 22.5506 32.7867 22.615 32.5786C22.782 32.0451 22.9278 31.5065 23.0868 30.9702C23.1634 30.711 23.2488 30.4558 23.3317 30.1951C23.0727 30.2529 22.7916 30.327 22.5072 30.2562C22.5011 30.2351 22.4949 30.214 22.4879 30.1918C22.5511 30.1641 22.6135 30.124 22.6805 30.11C22.8943 30.0632 23.1113 30.0362 23.3228 29.9819C23.3902 29.9639 23.474 29.8931 23.4947 29.8274C23.5664 29.6077 23.7193 29.5026 23.9237 29.4149C24.2672 29.2689 24.5974 29.0909 24.9337 28.9247C24.9897 28.8973 25.0431 28.8646 25.1374 28.8133C24.8772 28.5992 24.6285 28.3944 24.3797 28.1896C24.3908 28.1712 24.4018 28.1528 24.4117 28.1353C24.4692 28.1552 24.5394 28.161 24.5821 28.197C25.0762 28.6206 25.5702 29.0442 26.0541 29.4781C26.273 29.6738 26.4654 29.8988 26.6818 30.0984C26.7411 30.1524 26.842 30.1591 26.9217 30.1946C27.5308 30.4694 28.1423 30.7404 28.7486 31.0231C29.2294 31.2465 29.7034 31.4866 30.1814 31.7178C30.2157 31.7345 30.2618 31.7451 30.2955 31.7361C31.0356 31.5406 31.8007 31.5209 32.5499 31.4002C32.9146 31.3414 33.2975 31.2023 33.568 30.8995C33.7775 30.6655 34.0398 30.5116 34.3119 30.372C34.3229 30.3854 34.3348 30.3999 34.3469 30.4124C34.0316 30.7108 33.7163 31.0093 33.3854 31.3207C33.5812 31.2905 33.767 31.2574 33.9529 31.2335C34.6111 31.152 35.2679 31.0756 35.9252 30.993C36.0778 30.9741 36.2287 30.9304 36.381 30.9155C36.4535 30.9082 36.5452 30.9243 36.6006 30.9666C36.6427 30.9974 36.6412 31.0865 36.6542 31.1319C35.8309 31.2239 35.043 31.309 34.2555 31.4014C33.4203 31.4994 32.583 31.5973 31.7504 31.7099C31.2775 31.7735 30.8096 31.8704 30.3387 31.9455C30.2606 31.9574 30.164 31.9489 30.0936 31.9134C29.3732 31.5487 28.6593 31.1713 27.9387 30.8087C27.6366 30.6572 27.3207 30.53 26.9837 30.4202C27.3122 30.7538 27.6361 31.093 27.9715 31.4191C28.7658 32.192 29.5648 32.9593 30.3639 33.7265C30.5928 33.9457 30.8319 34.1547 31.0619 34.3731C31.1914 34.4965 31.3337 34.615 31.427 34.7625C31.596 35.0272 31.8681 35.1605 32.0922 35.3557C32.9016 36.0583 33.7395 36.7319 34.5134 37.473C34.9853 37.9242 35.3781 38.461 35.7752 38.9849C36.3123 39.6927 36.8236 40.4237 37.5191 40.99C37.7681 41.1928 38.0474 41.3575 38.32 41.5277C38.6486 41.7341 38.8067 42.0583 38.945 42.3969C38.9632 42.4417 38.9249 42.5088 38.9112 42.5649C38.854 42.5408 38.7876 42.5282 38.7431 42.49C38.6977 42.4507 38.6668 42.3882 38.6428 42.3295C38.5103 41.9955 38.2636 41.7796 37.9613 41.5983C37.2335 41.1632 36.6479 40.5737 36.1448 39.8959C35.8295 39.4692 35.5142 39.0425 35.1912 38.6202C35.0028 38.3752 34.799 38.1409 34.6019 37.9012C34.588 37.907 34.5732 37.9117 34.5604 37.9166C34.6358 39.0994 34.71 40.2831 34.7866 41.4742C34.6391 41.4721 34.5935 41.3825 34.5751 41.2669C34.4076 40.2608 34.4154 39.2451 34.4036 38.2305C34.399 37.8568 34.3374 37.5636 34.0101 37.3224C33.5278 36.9676 33.0809 36.565 32.6189 36.1804C32.5231 36.1003 32.4342 36.0127 32.3505 35.9358C32.3243 36.761 32.2976 37.581 32.2739 38.4023C32.2708 38.5394 32.283 38.677 32.288 38.815C32.292 38.9107 32.29 39.0264 32.1653 39.0112C32.1197 39.0057 32.0566 38.8744 32.0567 38.7996C32.0508 38.4605 32.0654 38.1214 32.0708 37.7824C32.0715 37.7333 32.0652 37.6824 32.0622 37.6288C31.8343 37.7676 31.6223 37.912 31.3965 38.0284C31.2776 38.0907 31.137 38.1129 31.003 38.1408C30.9632 38.1492 30.914 38.1168 30.8701 38.1043C30.9057 38.0657 30.9334 38.013 30.9764 37.9926C31.1481 37.915 31.3276 37.8515 31.5002 37.775C31.5677 37.7456 31.6279 37.6961 31.6921 37.6583C31.9621 37.498 32.1109 37.2766 32.1063 36.9459C32.1035 36.6584 32.1097 36.3636 32.1718 36.0845C32.2629 35.677 31.9388 35.5715 31.7281 35.3766C31.5824 35.2403 31.4309 35.1107 31.2895 34.9727C30.9635 34.6558 30.641 34.3341 30.3161 34.0162C29.582 33.2984 28.8368 32.5898 28.1129 31.8617C27.3031 31.0472 26.5136 30.2143 25.7117 29.3914C25.5524 29.2271 25.3808 29.0729 25.2156 28.9153L25.216 28.9225Z" fill="#F7F8C5"/>
<path d="M28.0429 36.5191C27.7702 36.2555 27.6836 35.8707 27.4588 35.5472C27.4449 35.6053 27.4321 35.642 27.4263 35.6804C27.2666 36.7705 27.1028 37.8602 26.9522 38.9523C26.8766 39.5059 26.8395 40.0654 26.7578 40.6185C26.7158 40.9016 26.6162 41.176 26.537 41.4524C26.5228 41.5033 26.4827 41.5455 26.4545 41.5931C26.4321 41.5909 26.4109 41.5878 26.3885 41.5856C26.3799 41.4432 26.3361 41.2923 26.3695 41.1601C26.6194 40.1865 26.6089 39.1803 26.7585 38.1938C26.8018 37.9078 26.851 37.6244 26.8972 37.3396C26.9082 37.2689 26.9163 37.1969 26.9272 37.1056C26.3994 37.3434 25.9365 37.6511 25.4137 37.8267C25.4013 37.8071 25.3898 37.7885 25.3784 37.7679C25.4487 37.7101 25.512 37.6394 25.591 37.5968C25.965 37.3902 26.3398 37.1868 26.7189 36.9909C26.8918 36.9011 26.9846 36.7799 27.0144 36.5798C27.0886 36.0721 27.184 35.5675 27.2671 35.0618C27.2783 34.989 27.2694 34.9123 27.2623 34.8377C27.2135 34.276 27.1774 33.7114 27.1099 33.152C27.0597 32.7409 26.9702 32.3342 26.8982 31.9262C26.8592 31.7059 26.8161 31.4853 26.7885 31.2631C26.7822 31.2123 26.8299 31.1543 26.8526 31.1002C26.8917 31.1409 26.9551 31.1748 26.9679 31.2222C27.1646 31.9501 27.3994 32.6654 27.4073 33.4364C27.4112 33.9527 27.5067 34.4667 27.561 34.9828C27.5643 35.0118 27.5826 35.0454 27.5743 35.0672C27.4681 35.304 27.6356 35.4691 27.7274 35.6534C27.8189 35.8398 27.9224 36.0201 28.0106 36.2093C28.0522 36.2984 28.0722 36.3978 28.1019 36.493C28.0837 36.5005 28.0645 36.5089 28.0472 36.5174L28.0429 36.5191Z" fill="#F7F8C5"/>
<path d="M29.5549 25.3684C29.2117 26.0468 28.7279 26.6016 28.1676 27.1091C28.3087 27.0715 28.4516 27.0362 28.592 26.9956C29.3496 26.7782 30.053 26.4335 30.7497 26.0738C30.97 25.9599 31.1851 25.8373 31.4064 25.7245C31.4442 25.7046 31.4992 25.7192 31.5465 25.7176C31.5261 25.7587 31.5163 25.8173 31.4825 25.8376C30.9701 26.1486 30.4699 26.4813 29.9396 26.7547C29.2864 27.09 28.5759 27.2761 27.862 27.4444C27.3306 27.571 26.8014 27.7184 26.2816 27.8841C26.0571 27.9565 25.8552 28.102 25.6424 28.2115C25.6046 28.2314 25.5582 28.234 25.515 28.2452C25.517 28.1931 25.498 28.1153 25.525 28.0913C25.6441 27.9839 25.762 27.859 25.905 27.8012C26.2717 27.6492 26.6431 27.5009 27.026 27.4028C27.6141 27.252 28.0824 26.9305 28.4886 26.4993C28.8045 26.163 29.1129 25.8197 29.4249 25.4809C29.4638 25.4396 29.513 25.4085 29.5576 25.3718L29.5549 25.3684Z" fill="#F7F8C5"/>
<path d="M32.2348 35.1795C32.6492 35.2948 33.0666 35.4002 33.4756 35.5293C33.8329 35.6411 34.174 35.6354 34.5242 35.5044C34.6722 35.4481 34.8371 35.4304 34.9964 35.4059C35.0713 35.3948 35.1496 35.4126 35.2259 35.419C35.2289 35.4409 35.233 35.4618 35.236 35.4836C34.9505 35.5614 34.6649 35.6392 34.3773 35.7168C34.3759 35.731 34.3755 35.7464 34.373 35.7615C34.4519 35.7825 34.5294 35.8086 34.6099 35.8246C35.294 35.9611 35.9852 36.0675 36.6619 36.2382C37.1725 36.366 37.6655 36.57 38.1604 36.7536C38.2495 36.7869 38.318 36.8839 38.3875 36.9594C38.4061 36.9797 38.4039 37.0543 38.3889 37.0611C38.3544 37.0782 38.3013 37.0864 38.2657 37.0726C37.9733 36.9579 37.6809 36.8433 37.3935 36.7188C36.6859 36.4128 35.9205 36.3525 35.1819 36.1748C34.3922 35.9849 33.6093 35.767 32.8247 35.5561C32.6539 35.5096 32.4859 35.444 32.3259 35.37C32.2681 35.3428 32.2346 35.2657 32.1896 35.211C32.2039 35.2011 32.2192 35.1924 32.2335 35.1825L32.2348 35.1795Z" fill="#F7F8C5"/>
<path d="M34.0263 29.8592C33.9385 29.9389 33.8599 30.0297 33.7622 30.095C33.5615 30.2283 33.3457 30.2749 33.0937 30.2708C31.753 30.2518 30.4852 29.9056 29.2378 29.4546C29.1932 29.439 29.1614 29.3866 29.1228 29.3511C29.1788 29.3237 29.2376 29.2679 29.2904 29.2731C29.4092 29.2857 29.5267 29.3218 29.6422 29.3576C30.5977 29.656 31.5748 29.8601 32.569 29.9622C32.9244 29.9989 33.3007 30.0521 33.6461 29.8447C33.743 29.7875 33.8927 29.8196 34.0177 29.8102C34.0202 29.8269 34.0217 29.8424 34.0242 29.859L34.0263 29.8592Z" fill="#F7F8C5"/>
<path d="M23.7801 30.1632C24.0125 30.5254 24.2767 31.4445 24.199 31.6205C23.9984 31.4061 23.6847 30.3108 23.7801 30.1632Z" fill="#F7F8C5"/>
<path d="M26.7676 32.6049C26.4821 32.8826 26.124 33.02 25.7326 33.1531C25.8283 32.9286 26.5411 32.5407 26.7676 32.6049Z" fill="#F7F8C5"/>
<path d="M24.7906 11.6141L26.1599 6.49484L29.3047 10.7531L28.6659 10.8728L26.4007 7.75906L25.4306 11.481L24.7919 11.6007L24.7906 11.6141Z" fill="#F7F8C5"/>
<path d="M29.5784 10.8467L29.4961 7.47387L30.0637 7.46185L30.1171 9.67876L32.4621 7.3452L32.5444 10.718L31.9768 10.7301L31.9268 8.54719L29.5784 10.8467Z" fill="#F7F8C5"/>
<path d="M34.884 11.0072C34.3971 10.953 34.0132 10.7402 33.7325 10.3689C33.4445 10.0037 33.3306 9.58124 33.3909 9.10163C33.4512 8.62201 33.6567 8.2442 34.0159 7.94884C34.3751 7.65348 34.8036 7.54693 35.2905 7.60119C35.7908 7.65675 36.1867 7.88419 36.4928 8.27143L36.0749 8.61502C35.8519 8.34377 35.5784 8.17548 35.225 8.13426C34.8984 8.09565 34.6208 8.17642 34.3862 8.36931C34.1516 8.56219 34.0173 8.83234 33.9714 9.16501C33.9315 9.50501 34.005 9.78862 34.1832 10.0353C34.3614 10.2819 34.6169 10.4282 34.9375 10.4595C35.2775 10.4994 35.5965 10.4092 35.8811 10.1874L36.1953 10.6294C35.8141 10.9429 35.371 11.0615 34.878 10.9999L34.884 11.0072Z" fill="#F7F8C5"/>
<path d="M37.3129 11.3927L37.9834 8.66651L36.9691 8.41922L37.0928 7.91207L39.7268 8.56015L39.6031 9.0673L38.5367 8.80141L37.8661 11.5276L37.3129 11.3927Z" fill="#F7F8C5"/>
</svg>
