<svg width="62" height="62" viewBox="0 0 62 62" fill="none" xmlns="http://www.w3.org/2000/svg">
<path d="M45.0263 21.5596C52.0636 29.1638 51.6962 40.9286 44.2302 47.838C36.7642 54.7474 25.0062 54.2039 17.9689 46.5997C10.9317 38.9955 11.299 27.2307 18.765 20.3213C26.2311 13.4119 37.989 13.9554 45.0263 21.5596Z" stroke="#F7F8C5"/>
<path d="M23.5937 34.8584C23.1844 34.637 22.7032 34.5358 22.4321 34.2068C21.6357 33.2452 20.5516 32.8972 19.5836 32.3152C19.4066 32.2077 19.2241 32.1254 19.0527 32.0179C18.2746 31.5033 17.5777 31.5877 16.9619 32.2709C17.0338 31.1765 17.681 30.7083 18.5493 31.1701C19.7053 31.7775 20.8392 32.4291 21.9896 33.0554C22.5372 33.3527 23.0959 33.6311 23.7209 33.9538C24.1302 32.6758 25.17 32.9795 26.0273 32.9668C28.0296 32.9352 30.0318 32.9921 32.034 33.087C32.8305 33.125 33.6491 33.2832 33.8427 34.5105C34.3682 34.4346 34.8825 34.2891 35.4025 34.2954C35.9224 34.3017 36.6082 34.3523 36.6082 34.3523C36.8682 34.074 37.095 33.9474 37.5983 33.726C38.6271 33.2705 39.8937 33.5678 41.0331 33.5299C42.0619 33.4983 43.1017 33.6311 44.1305 33.726C45.1371 33.8146 45.4081 34.1182 45.6017 35.2697C45.9281 37.2055 44.9104 38.6606 43.1957 38.6543C41.9457 38.6543 40.6957 38.6037 39.4512 38.5341C38.5718 38.4835 37.9468 37.8761 37.4379 37.1233C37.1171 36.6488 36.8018 36.1427 36.6027 35.5923C36.4036 35.0546 36.1215 35.0419 35.6845 35.0482C34.971 35.0546 34.2631 35.219 33.9312 36.2503C33.4832 37.6484 32.4102 38.1545 31.1601 38.3759C29.0362 38.7492 26.9731 38.2874 24.91 37.8698C24.5892 37.8066 24.1799 37.4143 24.0638 37.0664C23.8094 36.3135 23.7209 35.4911 23.5937 34.8584ZM29.9433 38.0976C30.6623 37.9268 31.4478 37.8002 32.1945 37.5408C33.1181 37.2182 33.5772 35.9972 33.367 34.6813C33.2398 33.9095 32.8416 33.6438 31.7132 33.6248C30.0871 33.5932 28.461 33.5362 26.8349 33.5552C26.1601 33.5615 25.4742 33.6817 24.816 33.8525C24.5892 33.9158 24.2518 34.3207 24.2629 34.5421C24.3182 35.3203 24.4731 36.1047 24.6556 36.8639C24.7109 37.0853 24.9709 37.3574 25.1645 37.389C26.7242 37.6547 28.2951 37.8635 29.9378 38.1039L29.9433 38.0976ZM41.47 34.1689C41.47 34.1689 41.47 34.1436 41.47 34.1309C40.8561 34.1309 40.2366 34.1309 39.6227 34.1309C39.3572 34.1309 39.0972 34.1499 38.8317 34.1752C38.2122 34.2258 37.7089 34.5231 37.5098 35.2064C37.366 35.7062 38.2454 37.3637 38.6934 37.5662C40.3638 38.3063 42.1006 38.1292 43.8152 37.99C44.6227 37.9204 45.2477 36.9841 45.3141 36.0605C45.3916 34.9344 44.8716 34.2068 43.9092 34.1752C43.0962 34.1499 42.2831 34.1752 41.47 34.1752V34.1689Z" fill="#F7F8C5"/>
<path d="M27.5757 9.93773C27.2601 10.4614 26.7985 10.8044 26.1911 10.9559C25.5781 11.1126 25.0124 11.036 24.483 10.7257C23.9537 10.4154 23.6107 9.95373 23.454 9.3407C23.2973 8.72768 23.3686 8.15627 23.6842 7.63262C23.9997 7.10896 24.4614 6.76597 25.0687 6.6145C25.6818 6.45779 26.2475 6.53436 26.7768 6.84466C27.3062 7.15497 27.6492 7.61663 27.8059 8.22965C27.9626 8.84268 27.8912 9.41408 27.5757 9.93773ZM24.7799 10.2615C25.1698 10.5007 25.594 10.5609 26.0581 10.4367C26.5166 10.3178 26.8657 10.0579 27.0888 9.66187C27.3119 9.26587 27.3668 8.83602 27.2483 8.36665C27.1298 7.89727 26.8756 7.54293 26.4857 7.30364C26.0958 7.06435 25.6716 7.00418 25.2074 7.12838C24.749 7.24733 24.3999 7.50723 24.1768 7.90323C23.9536 8.29923 23.8987 8.72908 24.0173 9.19845C24.1358 9.66783 24.39 10.0222 24.7799 10.2615Z" fill="#F7F8C5"/>
<path d="M31.3139 10.132L30.7872 10.1772L30.6817 8.94829C30.3862 9.09543 30.0984 9.18272 29.8298 9.19966C29.4621 9.23463 29.1646 9.15201 28.9364 8.97366C28.7029 8.78964 28.5715 8.51116 28.5422 8.1382L28.466 7.28223L28.9927 7.23699L29.061 8.0161C29.0836 8.27944 29.1694 8.46324 29.3185 8.56744C29.4675 8.67163 29.6519 8.71156 29.8712 8.69818C30.1511 8.67074 30.4113 8.58785 30.6356 8.44343L30.5177 7.11013L31.0444 7.06492L31.3134 10.1429L31.3139 10.132Z" fill="#F7F8C5"/>
<path d="M32.1013 10.1183L32.221 7.02797L32.7561 7.0487L32.6969 8.57748L34.1211 7.10155L34.7653 7.12652L33.3076 8.62298L34.7876 10.2223L34.0997 10.1957L32.6826 8.66439L32.6307 10.1443L32.0957 10.1235L32.1013 10.1183Z" fill="#F7F8C5"/>
<path d="M35.0795 10.3216L35.6202 7.23114L36.1361 7.32222L35.7784 9.3589L38.3484 7.66489L37.8077 10.7553L37.2918 10.6642L37.6425 8.66554L35.0791 10.3325L35.0795 10.3216Z" fill="#F7F8C5"/>
</svg>
