<svg width="62" height="62" viewBox="0 0 62 62" fill="none" xmlns="http://www.w3.org/2000/svg">
<path d="M41.5052 19.7448C49.8991 25.9753 51.725 37.7099 45.6077 45.9513C39.4904 54.1928 27.7297 55.8426 19.3359 49.6122C10.942 43.3818 9.11608 31.6472 15.2334 23.4057C21.3507 15.1642 33.1114 13.5144 41.5052 19.7448Z" stroke="#F7F8C5"/>
<path d="M24.9706 39.6795H23.7071C23.6419 40.1421 23.4343 40.5158 23.0428 40.7709C22.7699 40.9548 22.4674 41.0082 22.1412 40.9785C21.5183 40.9132 21.1091 40.3913 21.0142 39.5371H20.1362C20.0829 39.7862 20.0829 40.0413 19.9761 40.2489C19.6914 40.8302 19.122 41.0912 18.4932 40.8895C17.9 40.6997 17.3009 40.7294 16.7018 40.7294C15.7646 40.7294 14.8215 40.7531 13.8843 40.7709C13.8012 40.7709 13.7241 40.8005 13.641 40.7946C13.5758 40.7946 13.5106 40.765 13.4453 40.7531C13.469 40.6819 13.469 40.5811 13.5165 40.5395C13.8605 40.2489 14.2046 39.9701 14.5545 39.6913C15.4977 38.938 16.4467 38.1787 17.3899 37.4254C17.4373 37.3898 17.4789 37.3483 17.5144 37.3186C16.4645 35.9425 16.601 34.5248 17.3069 33.0893C17.556 32.5792 18.0364 32.3953 18.5881 32.3835C18.7423 32.3835 18.9025 32.3597 19.0567 32.3479C19.0448 31.5234 18.9499 30.7404 18.7186 29.9633C18.422 28.9431 18.2203 27.905 17.989 26.867C17.9119 26.5289 18.0839 26.3391 18.4279 26.3391C19.2346 26.3391 20.0354 26.3331 20.8421 26.3391C21.0913 26.3391 21.3404 26.3747 21.5836 26.3984C21.8268 26.4221 21.9039 26.5763 21.8446 26.8551C21.6607 27.6618 21.4709 28.4685 21.2989 29.2812C21.1743 29.8566 21.0438 30.4379 20.9904 31.0192C20.9489 31.4403 21.026 31.8733 21.0498 32.3004C21.3404 32.3538 21.6132 32.3775 21.6488 32.7453C21.8386 32.7216 22.0166 32.7038 22.2123 32.68C22.2123 32.6089 22.2242 32.5436 22.2123 32.4784C22.1412 32.1343 22.1531 32.0572 22.4971 32.0216C23.0487 31.9564 23.6063 31.9445 24.158 31.9445C24.3715 31.9445 24.502 32.0928 24.4723 32.336C24.4545 32.4724 24.4486 32.6148 24.4308 32.775C24.6918 32.7512 24.935 32.7275 25.2138 32.7038C25.2019 32.5851 25.1901 32.4784 25.1723 32.3657C25.1485 32.2174 25.2078 32.1047 25.3561 32.0928C25.8722 32.0454 26.3942 32.0098 26.9162 31.9742C27.1179 31.9623 27.195 32.0809 27.189 32.2708C27.189 32.425 27.189 32.5851 27.189 32.8165C27.3492 32.7453 27.4975 32.7275 27.5865 32.6385C28.0195 32.2114 28.5415 32.1047 29.1228 32.1343C29.4609 32.1521 29.799 32.1343 30.1786 32.1343C30.1786 31.7844 30.1727 31.464 30.1786 31.1437C30.1845 30.9183 30.1964 30.6989 30.232 30.4794C30.3625 29.7142 30.8786 29.2219 31.709 29.0736C31.9641 29.0321 32.2191 29.0083 32.4801 29.0083C33.3639 29.0083 34.0283 29.7023 34.0164 30.5921C34.0164 30.8472 33.9868 31.1081 33.9868 31.3632C33.9868 31.6183 34.0105 31.8793 34.0224 32.1699C34.2893 32.1877 34.5622 32.2233 34.8291 32.2233C35.1138 32.2233 35.3451 32.3123 35.5468 32.514C35.6121 32.5792 35.7307 32.6207 35.8256 32.6207C36.3417 32.6326 36.8518 32.6207 37.3678 32.6207C37.3678 32.2055 37.3678 31.8496 37.3678 31.4937C37.3678 31.2268 37.356 30.9599 37.3678 30.6929C37.3738 30.4438 37.4094 30.1887 37.0891 30.0938C37.0772 30.0938 37.0535 30.0701 37.0535 30.0582C37.0179 29.643 36.9763 29.2337 36.9585 28.8185C36.9585 28.7889 37.1068 28.7236 37.1839 28.7177C37.7771 28.6643 38.3762 28.605 38.9753 28.5812C40.1379 28.5338 41.3006 28.4745 42.4691 28.4745C43.6139 28.4745 44.7647 28.5219 45.9095 28.5634C46.2001 28.5753 46.2595 28.6584 46.2595 28.9609C46.2595 29.0676 46.2535 29.1803 46.2595 29.2871C46.2891 29.6964 46.0993 29.8981 45.696 30.0582C45.5655 30.1116 45.4231 30.1531 45.2867 30.1531C44.9011 30.1531 44.5749 30.3311 44.219 30.4497C43.6377 30.6455 43.4182 31.0844 43.3707 31.6183C43.3055 32.3775 43.2639 33.1487 43.2699 33.9079C43.2758 35.2722 43.3233 36.6365 43.3529 37.9948C43.3529 38.1965 43.3529 38.3923 43.341 38.5939C43.3351 38.8075 43.2106 38.9558 43.0208 38.9854C42.4335 39.0803 41.8403 39.1456 41.2472 39.2168C41.1404 39.2286 41.0336 39.2049 40.9209 39.2049C40.5888 39.2108 40.3456 39.2702 40.1795 39.6557C39.8295 40.4624 39.1236 40.8421 38.2517 40.8183C37.3619 40.7946 36.7272 40.3438 36.3713 39.5312C36.3061 39.3829 36.2349 39.3354 36.0807 39.3532C35.7366 39.3947 35.3807 39.4007 35.0367 39.4481C34.9536 39.46 34.8409 39.5312 34.8113 39.6083C34.4316 40.4506 33.7732 40.8836 32.8657 40.8777C31.9641 40.8777 31.2938 40.4387 30.9082 39.6142C30.8371 39.4659 30.7599 39.4362 30.6057 39.4422C30.1668 39.46 29.7278 39.4481 29.283 39.4659C29.2236 39.4659 29.1406 39.5312 29.105 39.5905C28.6601 40.3319 28.0136 40.7412 27.1594 40.8183C26.24 40.8954 25.5222 40.5395 25.0358 39.7506C25.018 39.721 25.0003 39.6972 24.9825 39.6676C24.9825 39.6617 24.9706 39.6557 24.9706 39.6557V39.6795ZM22.5742 38.1847C22.6098 37.5915 22.6394 37.0161 22.675 36.4467C22.6869 36.2391 22.7937 36.1323 23.0072 36.1264C23.3216 36.1204 23.636 36.0848 23.9563 36.0848C28.3576 36.0493 32.7648 36.0196 37.1662 35.984C37.2551 35.984 37.3441 35.984 37.4094 35.984V32.9351C36.828 32.947 36.2883 32.9529 35.7485 32.9766C35.5824 32.9826 35.4578 32.941 35.3688 32.8046C35.2621 32.6326 35.1019 32.5733 34.9062 32.5673C34.1469 32.5436 33.3936 32.5021 32.6343 32.4962C31.359 32.4843 30.0896 32.4962 28.8143 32.4962C28.4406 32.4962 28.1144 32.5911 27.8415 32.858C27.7525 32.947 27.6161 33.03 27.5034 33.0359C27.017 33.0597 26.5247 33.0537 26.0383 33.0537C25.5104 33.0537 24.9824 33.0537 24.4367 33.0537C24.4367 33.2139 24.4367 33.3385 24.4367 33.463C24.4308 34.2223 24.1105 34.5307 23.369 34.4358C22.7284 34.3528 22.4259 34.2875 22.3073 33.4571C22.2835 33.3088 22.2835 33.1605 22.2717 32.9885C22.0819 33.0063 21.9039 33.0241 21.7675 33.0359C21.7853 33.7596 21.8031 34.4477 21.809 35.1358C21.8149 35.8298 21.809 36.5297 21.809 37.2593C22.3369 37.3483 22.0641 37.8703 22.1827 38.2143C22.331 38.2084 22.4615 38.1965 22.586 38.1906L22.5742 38.1847ZM40.4464 38.8727C41.259 38.8253 42.0539 38.7778 42.8487 38.7185C42.9081 38.7185 43.0029 38.5939 43.0029 38.5228C43.0089 38.0838 43.003 37.6389 42.9852 37.2C42.9733 36.8856 42.9496 36.5772 42.9318 36.2747C36.2705 36.3221 29.6329 36.3636 22.9716 36.4111C22.9301 37.0102 22.8826 37.633 22.8352 38.2558C23.3868 38.5524 23.5114 38.7126 23.7131 39.3829C24.0808 39.3591 24.4486 39.3354 24.8223 39.3117C24.5198 37.4907 26.0798 36.5001 27.3077 36.5831C27.9364 36.6246 28.4703 36.8678 28.8796 37.3424C29.3482 37.8881 29.4609 38.5168 29.283 39.2108C29.7694 39.1693 30.2379 39.1278 30.7303 39.0863C30.665 38.4575 30.8311 37.8999 31.2167 37.4076C31.6141 36.9093 32.1361 36.6543 32.7649 36.6246C33.3224 36.595 33.8148 36.7848 34.23 37.1407C34.835 37.6567 35.0308 38.3389 34.9537 39.1219C35.3867 39.0981 35.79 39.0744 36.1934 39.0566C36.1281 37.4313 37.2907 36.6543 38.2932 36.6365C38.7855 36.6306 39.2245 36.7848 39.61 37.0873C40.1795 37.5203 40.4286 38.1135 40.4405 38.8727H40.4464ZM43.8334 30.254C43.7385 30.2421 43.7088 30.2421 43.6792 30.2421C41.7217 30.2421 39.7702 30.254 37.8127 30.254C37.611 30.254 37.6051 30.3548 37.617 30.5031C37.6704 31.5649 37.7297 32.6267 37.7593 33.6884C37.7831 34.4477 37.7593 35.207 37.7593 35.9721H42.9318C42.9318 35.812 42.9318 35.6696 42.9318 35.5332C42.9555 34.2816 42.9555 33.0241 43.0148 31.7725C43.0445 31.1912 43.2521 30.6514 43.8334 30.2599V30.254ZM21.5124 37.1763C21.5124 37.1763 21.5243 37.117 21.5243 37.0754C21.5065 35.7942 21.4887 34.5129 21.4709 33.2317C21.4709 33.1487 21.4353 33.0656 21.4412 32.9826C21.4531 32.7453 21.3107 32.68 21.115 32.6741C20.6049 32.6623 20.1007 32.6504 19.5905 32.6445C19.1931 32.6445 18.7957 32.6445 18.3746 32.6445C18.4161 34.1926 18.4576 35.6993 18.4991 37.1763H21.5124ZM18.2203 26.6772C18.5644 28.1482 18.9084 29.6015 19.2465 31.0548C19.727 31.0251 20.1896 30.9895 20.6464 30.9599C20.9489 29.5422 21.2514 28.1245 21.5599 26.6712H18.2203V26.6772ZM45.8917 28.9134C45.5358 28.9134 45.174 28.9253 44.8062 28.9134C42.3623 28.8007 39.9125 28.9194 37.4687 28.949C37.445 28.949 37.4153 28.949 37.3916 28.949C37.2729 28.9727 37.2017 29.0261 37.2314 29.1744C37.2611 29.3464 37.2729 29.5244 37.267 29.6964C37.2551 29.9159 37.3619 30.0049 37.5636 29.993C37.8542 29.9811 38.1449 29.9574 38.4356 29.9515C40.0312 29.9218 41.6327 29.8981 43.2283 29.8744C43.8927 29.8625 44.5571 29.8744 45.2214 29.8447C45.8205 29.821 46.0222 29.5422 45.8917 28.9194V28.9134ZM27.1594 37.0102C26.5069 36.9924 25.8663 37.2949 25.4629 37.811C24.8342 38.6236 25.0655 39.7269 25.9671 40.2192C26.7798 40.6641 27.8 40.5158 28.4466 39.8633C29.0991 39.2049 29.1287 38.1906 28.5059 37.5559C28.1381 37.1822 27.6754 37.028 27.1535 37.0161L27.1594 37.0102ZM34.663 38.7778C34.663 37.7694 33.8682 36.9924 32.842 36.9983C31.8929 36.9983 31.1099 37.7872 31.1099 38.7304C31.1099 39.7032 31.8988 40.5158 32.8479 40.5158C33.8266 40.5158 34.6571 39.721 34.6571 38.7719L34.663 38.7778ZM40.0608 38.766C40.0608 37.7457 39.3253 36.9805 38.3229 36.9746C37.3501 36.9746 36.5908 37.7339 36.5849 38.7126C36.5789 39.6379 37.3916 40.4624 38.311 40.4624C39.2778 40.4624 40.0549 39.7091 40.0608 38.76V38.766ZM21.7675 39.199C21.7675 38.6533 21.7734 38.1787 21.7556 37.7101C21.7556 37.6567 21.6311 37.5737 21.5599 37.5678C21.0853 37.5322 20.6167 37.4907 20.1422 37.4847C19.6024 37.4788 19.0626 37.4847 18.5288 37.5203C18.2737 37.5381 18.1017 37.7398 18.078 37.983C18.0483 38.2677 18.0779 38.5643 18.0898 38.8549C18.0957 38.9795 18.1492 39.0685 18.3034 39.0744C19.4601 39.1159 20.6226 39.1575 21.7615 39.199H21.7675ZM17.5797 40.3675C17.2594 40.0057 17.2653 39.6439 17.4017 39.2702C17.4729 39.0803 17.5916 38.9024 17.6746 38.7126C17.7161 38.6236 17.7458 38.5168 17.7399 38.4219C17.7221 38.1253 17.6746 37.8228 17.9297 37.5737C17.8407 37.5262 17.7695 37.4847 17.6983 37.4491C17.7102 37.4729 17.7221 37.4966 17.7339 37.5203C16.5298 38.505 15.3256 39.4896 14.0978 40.498C15.2663 40.4565 16.3933 40.415 17.5797 40.3675ZM30.4871 32.1462H33.6724V30.8472H30.4871V32.1462ZM18.1373 32.7216C17.7754 32.941 17.5797 33.2376 17.4492 33.5757C17.034 34.6434 16.9213 35.7052 17.5797 36.7255C17.7339 36.9627 17.9297 37.1585 18.25 37.2949C18.2144 35.7467 18.1788 34.246 18.1432 32.7156L18.1373 32.7216ZM21.3285 39.4778C21.2811 40.1303 21.6548 40.6167 22.1946 40.67C22.7759 40.7294 23.286 40.3319 23.3631 39.7566C23.4461 39.1337 23.0902 38.6295 22.503 38.5346C22.2005 38.4872 22.153 38.5346 22.159 38.8253C22.159 38.9024 22.159 38.9736 22.159 39.0507C22.159 39.3413 22.0166 39.4837 21.7259 39.4718C21.5954 39.4718 21.4649 39.4718 21.3226 39.4718L21.3285 39.4778ZM22.4912 32.2589C22.5327 32.6682 22.5564 33.0182 22.6039 33.3563C22.6988 34.0028 22.7284 34.0265 23.3809 34.1452C23.8851 34.2401 24.0986 34.0681 24.1046 33.5461C24.1105 33.1071 24.1046 32.6741 24.1046 32.1818C23.5707 32.2055 23.0309 32.2292 22.4852 32.2589H22.4912ZM33.6071 30.3785C33.4767 29.8684 33.1089 29.5007 32.6225 29.4651C32.2547 29.4413 31.8632 29.4354 31.5132 29.5362C31.0268 29.6786 30.6354 29.993 30.4811 30.515C31.531 30.4675 32.5632 30.426 33.6131 30.3785H33.6071ZM17.811 38.9795C17.6568 39.4066 17.4907 39.7625 17.811 40.1125C18.1313 40.4624 18.5228 40.6522 19.0033 40.6226C19.4185 40.5929 19.7388 40.1658 19.6677 39.7625C19.638 39.6083 19.5787 39.5252 19.3948 39.5193C19.0389 39.5074 18.683 39.4659 18.3271 39.4303C18.0898 39.4066 17.8881 39.3236 17.811 38.9854V38.9795ZM19.294 32.3064H20.765C20.7472 31.9623 20.7235 31.6479 20.7057 31.3276H19.1991C19.2347 31.6776 19.2643 31.986 19.294 32.3064ZM25.4748 32.7453H26.8509V32.2826C26.3705 32.3123 25.9078 32.336 25.4214 32.3657C25.4392 32.5021 25.457 32.6148 25.4748 32.7453Z" fill="#F7F8C5"/>
<path d="M40.2093 32.8404C39.6635 32.8404 39.1119 32.8404 38.5662 32.8404C38.2103 32.8404 38.1035 32.7158 38.1035 32.3777C38.1035 31.838 38.1094 31.2982 38.1094 30.7584C38.1094 30.622 38.145 30.5448 38.3052 30.5389C39.5093 30.4915 40.7135 30.444 41.9117 30.3906C41.9472 30.3906 41.9769 30.3906 42.0125 30.3906C42.4277 30.4025 42.4692 30.4381 42.4692 30.8474C42.4692 31.3634 42.4752 31.8735 42.4633 32.3896C42.4514 32.7099 42.3743 32.793 42.0599 32.8048C41.4431 32.8226 40.8321 32.8048 40.2152 32.8048C40.2152 32.8167 40.2152 32.8286 40.2152 32.8345L40.2093 32.8404ZM42.1786 30.6635C40.8736 30.7287 39.5983 30.788 38.2992 30.8533C38.323 31.4168 38.3467 31.9447 38.3704 32.4549H42.1786V30.6635Z" fill="#F7F8C5"/>
<path d="M27.9295 38.8906C27.9295 39.3652 27.5796 39.7092 27.111 39.7033C26.6779 39.7033 26.3458 39.3474 26.3398 38.8906C26.3398 38.4754 26.7135 38.0958 27.1406 38.0898C27.5677 38.0898 27.9355 38.4576 27.9295 38.8906ZM27.1406 38.422C26.844 38.422 26.6246 38.6237 26.6246 38.9084C26.6246 39.1753 26.8618 39.4126 27.1347 39.4185C27.3957 39.4245 27.627 39.1931 27.6329 38.9321C27.6329 38.6415 27.4313 38.422 27.1406 38.422Z" fill="#F7F8C5"/>
<path d="M33.7245 38.8489C33.7186 39.3116 33.3508 39.6794 32.8881 39.6497C32.4077 39.62 32.1408 39.2938 32.1289 38.7481C32.1289 38.3803 32.55 38.0363 32.9653 38.0481C33.3864 38.06 33.7305 38.4218 33.7245 38.8489ZM32.9415 39.3828C33.2203 39.3828 33.422 39.187 33.422 38.9201C33.422 38.6235 33.1847 38.3922 32.9 38.4041C32.6509 38.4159 32.4255 38.6591 32.4196 38.926C32.4196 39.1692 32.6628 39.3887 32.9415 39.3887V39.3828Z" fill="#F7F8C5"/>
<path d="M37.5646 38.7836C37.5646 38.3506 37.8849 38.0303 38.318 38.0303C38.7569 38.0303 39.0831 38.3743 39.0772 38.837C39.0713 39.2581 38.7332 39.5784 38.3001 39.5725C37.8612 39.5725 37.5527 39.2403 37.5587 38.7836H37.5646ZM38.7925 38.8073C38.7925 38.5641 38.5552 38.3387 38.3061 38.3447C38.0807 38.3447 37.8434 38.5819 37.8315 38.8073C37.8197 39.0387 38.0688 39.2759 38.318 39.2759C38.573 39.2759 38.7925 39.0624 38.7984 38.8073H38.7925Z" fill="#F7F8C5"/>
<path d="M24.6978 11.8378L23.1199 8.08774L20.949 9.00094L22.527 12.751L21.9744 12.9833L20.173 8.70544L23.4387 7.32904L25.2401 11.6069L24.692 11.8335L24.6978 11.8378Z" fill="#F7F8C5"/>
<path d="M27.5031 11.1795C27.0225 11.2662 26.5949 11.184 26.2187 10.9228C25.8425 10.6617 25.6067 10.2967 25.5172 9.83208C25.4277 9.36752 25.5157 8.94422 25.771 8.56367C26.0263 8.18312 26.3972 7.95168 26.8719 7.86068C27.3466 7.76967 27.7743 7.85182 28.1505 8.11297C28.5267 8.37412 28.7567 8.73483 28.8462 9.19939C28.9357 9.66396 28.8477 10.0873 28.5924 10.4678C28.337 10.8484 27.9662 11.0798 27.4914 11.1708L27.5031 11.1795ZM26.558 10.478C26.803 10.6598 27.0866 10.7166 27.4104 10.6583C27.7283 10.5957 27.9703 10.4404 28.1346 10.1824C28.2947 9.93017 28.3499 9.63637 28.2916 9.3126C28.2275 8.9845 28.0766 8.73675 27.8316 8.55487C27.5865 8.37299 27.3029 8.31627 26.9849 8.37889C26.6612 8.43717 26.4193 8.59241 26.2549 8.85044C26.0905 9.10846 26.0396 9.39646 26.0979 9.72023C26.1562 10.044 26.3129 10.2961 26.558 10.478Z" fill="#F7F8C5"/>
<path d="M31.168 10.8498C30.6899 10.8478 30.2866 10.6842 29.9682 10.3573C29.6498 10.0305 29.4923 9.63311 29.4943 9.155C29.4963 8.6769 29.6556 8.27941 29.9766 7.95666C30.2976 7.63392 30.6833 7.4678 31.1411 7.47279C31.609 7.47627 31.9862 7.6386 32.2784 7.96411C32.5707 8.28962 32.7197 8.735 32.7312 9.30458L30.0762 9.29746C30.101 9.60541 30.2199 9.84748 30.4302 10.0397C30.6404 10.2319 30.8879 10.3252 31.1683 10.3252C31.5476 10.3263 31.8608 10.1968 32.124 9.93973L32.4835 10.3332C32.1467 10.6895 31.7101 10.8631 31.1695 10.86L31.168 10.8498ZM31.1088 7.99171C30.885 7.98847 30.6775 8.0607 30.4849 8.19826C30.2924 8.33581 30.1669 8.54136 30.113 8.80901L32.0981 8.81658C32.059 8.5523 31.952 8.35519 31.7638 8.20644C31.5814 8.06203 31.3631 7.99046 31.1044 7.99755L31.1088 7.99171Z" fill="#F7F8C5"/>
<path d="M34.189 11.118C33.6188 11.0205 33.228 10.7304 33.028 10.2562L33.5151 10.0387C33.577 10.2113 33.6692 10.3431 33.7874 10.4399C33.9056 10.5366 34.0658 10.6012 34.2738 10.638C34.7319 10.7156 34.987 10.5792 35.0464 10.2433C35.0746 10.0833 35.0289 9.94981 34.9237 9.83554C34.8142 9.72709 34.6467 9.64798 34.4227 9.60841L34.0067 9.53492L34.0815 9.09279L34.4815 9.16346C34.6517 9.19022 34.8056 9.1778 34.9434 9.12626C35.0754 9.07038 35.1635 8.96387 35.1816 8.80538C35.2071 8.66139 35.1687 8.54243 35.0708 8.44264C34.9686 8.34869 34.8346 8.28542 34.6746 8.25715C34.3168 8.19063 34.0542 8.27622 33.8752 8.50526L33.4971 8.16131C33.8311 7.82106 34.2591 7.69541 34.7653 7.78153C35.0954 7.83656 35.3533 7.9646 35.5287 8.16717C35.7084 8.36391 35.7691 8.59902 35.7254 8.86517C35.6732 9.17931 35.4911 9.38803 35.169 9.49281C35.3294 9.59373 35.4521 9.72101 35.527 9.87612C35.6019 10.0312 35.6274 10.204 35.5963 10.38C35.5511 10.636 35.4054 10.8445 35.1561 10.9853C34.9069 11.126 34.5859 11.1683 34.1918 11.102L34.189 11.118Z" fill="#F7F8C5"/>
<path d="M35.3092 12.0488L35.7563 10.7881L36.0955 10.9041L38.4083 8.73904L38.857 11.8771L39.186 11.9946L38.7389 13.2553L38.2454 13.079L38.519 12.2958L36.0748 11.4317L35.8012 12.2149L35.3077 12.0386L35.3092 12.0488ZM38.2762 11.6722L38.0224 9.74654L36.6385 11.0991L38.2718 11.678L38.2762 11.6722Z" fill="#F7F8C5"/>
</svg>
