<svg width="85" height="100" viewBox="0 0 85 100" fill="none" xmlns="http://www.w3.org/2000/svg">
<path d="M77.1453 59.0402C77.1453 80.1833 60.2927 97.267 39.5727 97.267C18.8526 97.267 2 80.1833 2 59.0402C2 37.8971 18.8526 20.8135 39.5727 20.8135C60.2927 20.8135 77.1453 37.8971 77.1453 59.0402Z" stroke="#F7F8C5" stroke-width="4"/>
<path d="M19.8074 57.7488C20.8101 55.7435 21.7021 53.8879 22.6722 52.0779C22.848 51.7523 23.3688 51.6286 23.6488 51.3291C23.9743 50.9906 24.3064 50.5999 24.4626 50.1702C25.7453 46.5372 27.7962 43.3404 30.0099 40.2412C30.1791 40.0003 30.6349 39.805 30.9279 39.8375C35.518 40.3519 40.1212 40.7816 44.6787 41.5043C46.8794 41.8559 49.0084 42.7414 51.144 43.451C52.3355 43.8482 53.527 44.3105 54.6273 44.9095C55.1612 45.1959 55.6169 45.8145 55.8643 46.3874C56.6261 48.1323 56.6977 50.04 56.8084 51.9086C56.9321 54.0572 56.9256 56.2057 56.9907 58.3608C56.9907 58.5627 57.0949 58.784 57.2121 58.9598C57.6157 59.5653 58.1496 60.1122 58.4426 60.7698C58.8658 61.7139 59.7578 62.1111 60.474 62.658C62.4012 64.1229 64.6214 65.1972 66.2947 67.0137C66.8806 67.6518 67.5968 68.1661 68.2023 68.7912C69.4003 70.0217 68.9901 72.4633 67.4992 73.3683C65.2399 74.7355 62.9351 75.8945 60.3112 76.3046C59.2369 76.4739 58.1561 76.6562 57.0688 76.7083C48.5787 77.0925 40.1407 76.6302 31.8199 74.8462C28.0436 74.0324 24.3064 73.0037 20.5952 71.9294C19.1889 71.5192 17.8867 70.7444 16.578 70.0477C15.2954 69.3641 13.9802 68.687 12.8343 67.808C11.734 66.9681 10.6662 65.985 9.88492 64.8521C8.83017 63.3416 9.10363 61.4079 11.0243 60.6201C12.2614 60.1122 13.544 59.7151 14.8136 59.3049C16.5325 58.7515 18.2578 58.2306 19.8009 57.7488H19.8074ZM11.0438 61.9483C10.2235 62.085 9.78075 63.1463 10.2886 64.0187C10.6597 64.6568 11.1415 65.2688 11.6884 65.7701C14.729 68.5372 18.3425 70.2756 22.2425 71.4476C23.779 71.9098 25.3481 72.294 26.8977 72.7172C36.5532 75.315 46.3846 76.2721 56.3657 75.7773C56.6131 75.7642 56.9451 75.6536 57.0819 75.4713C57.9934 74.2472 58.6184 72.8865 58.8398 71.3629C59.1263 69.3706 57.9283 67.0137 56.1573 66.0566C54.9268 65.3925 53.7027 64.7089 52.4657 64.0578C50.532 63.0421 48.6178 61.9808 46.3716 61.766C43.3505 61.473 40.336 61.1279 37.3085 60.848C35.1339 60.6461 32.9528 60.4834 30.7651 60.3792C28.5189 60.275 26.2661 60.2229 24.0199 60.2229C23.0824 60.2229 22.1253 60.3466 21.2072 60.5354C19.2865 60.9391 17.4179 61.5641 15.4061 61.4795C14.4946 61.4404 13.57 61.6227 12.6585 61.766C12.2288 61.8311 11.7014 61.9418 11.4345 62.2283C11.1806 62.5017 11.2066 63.0356 11.1155 63.4588C11.0894 63.4588 11.0699 63.4588 11.0438 63.4653V61.9613V61.9483ZM54.9398 56.5443C52.635 55.3333 50.3887 54.1548 48.1425 52.9764C48.1946 52.8722 48.2467 52.7745 48.2988 52.6704C50.5971 53.7902 52.8954 54.9101 55.2979 56.082C55.5128 54.8124 55.8057 53.6926 55.8708 52.5662C55.9815 50.5153 55.5388 48.51 55.0635 46.5242C54.9268 45.9447 54.5752 45.554 53.9632 45.3587C51.7169 44.6295 49.4902 43.8417 47.244 43.1125C46.2348 42.7869 45.2061 42.4419 44.1644 42.3117C39.8933 41.7713 35.6092 41.3155 31.3381 40.7946C30.9018 40.7425 30.6805 40.8532 30.4526 41.2048C29.476 42.7349 28.3822 44.1998 27.4967 45.7819C26.4485 47.6505 25.576 49.6103 24.5603 51.6612C35.186 50.6846 44.9001 53.3735 54.4059 57.3126C54.5426 57.1173 54.7314 56.8438 54.9398 56.5443ZM57.3683 60.9521C57.4204 60.8414 57.4725 60.7373 57.5311 60.6266C57.2381 60.0276 56.6261 59.7476 56.0857 59.4351C55.1807 58.9142 54.2431 58.452 53.3121 57.9767C52.0164 57.3126 50.7729 56.4662 49.4056 56.03C46.2544 55.0273 43.0445 54.233 39.8607 53.3475C37.0285 52.5597 34.1182 52.2407 31.1948 52.1039C29.7169 52.0323 28.2324 52.0518 26.7545 52.1039C25.7062 52.1365 24.658 52.2797 23.6097 52.3969C23.4535 52.4164 23.2321 52.5206 23.1735 52.6443C22.4703 54.2395 21.7867 55.8411 21.077 57.5014C29.0137 57.1628 36.7811 57.8595 44.5616 58.7775C43.6826 58.5236 42.8101 58.2697 41.9312 58.0223C41.9442 57.9962 41.9507 57.9637 41.9637 57.9376C47.0943 58.9468 52.2313 59.9495 57.3618 60.9586L57.3683 60.9521ZM13.3682 60.1839C13.8891 60.1839 14.2472 60.2099 14.6053 60.1839C16.539 60.0081 18.4662 59.6825 20.3999 59.663C24.5147 59.6174 28.6426 59.6109 32.7509 59.8062C38.5716 60.0862 44.3727 60.6071 50.1153 61.7009C53.3967 62.3259 56.6587 63.0096 59.8034 64.1685C60.9818 64.6047 62.1603 65.0279 63.508 65.5227C62.5379 64.8326 61.7111 64.2661 60.9102 63.6737C60.461 63.3351 60.1029 62.8272 59.6081 62.6124C58.4296 62.1045 57.2186 61.6293 55.975 61.3167C54.5101 60.9521 53.0061 60.7698 51.5151 60.5094C50.3041 60.301 49.0931 60.0667 47.8756 59.8974C46.2999 59.676 44.7178 59.5132 43.1357 59.3179C41.4038 59.1031 39.6784 58.8296 37.9466 58.6538C36.3319 58.491 34.7042 58.4324 33.083 58.3283C30.6935 58.172 28.304 57.9897 25.9081 57.8725C22.9912 57.7228 20.2046 58.5822 17.3789 59.0835C16.0767 59.3114 14.8136 59.7867 13.3747 60.1969L13.3682 60.1839ZM60.1875 71.0765C60.6823 72.5674 62.2384 73.1469 63.5471 73.0948C65.0446 73.0362 66.3077 72.3721 67.1997 71.096C67.2452 71.1481 67.2973 71.1936 67.3429 71.2457C66.9978 71.6624 66.6463 72.0726 66.3012 72.4893C66.8806 72.2875 67.5382 72.0661 67.8898 71.6103C68.4693 70.8486 68.2023 69.6962 67.5447 68.98C66.4639 67.808 65.0511 67.1765 63.6903 66.4277C61.9715 65.4771 60.0247 65.386 58.1822 64.9042C57.8827 64.8261 57.492 65.08 57.0298 65.2167C59.0351 67.1244 61.3399 68.3614 63.0197 70.3082C62.9611 70.3993 62.909 70.484 62.8504 70.5751C62.2124 70.2626 61.5743 69.9436 60.9623 69.6441C60.7149 70.1063 60.487 70.5165 60.1875 71.0765Z" fill="#F7F8C5"/>
<path d="M14.8388 66.8901C13.6994 66.0047 12.5535 65.1192 11.4141 64.2337C11.4596 64.1751 11.4987 64.1165 11.5443 64.0645C12.6967 64.9434 13.8491 65.8224 15.0015 66.7013C14.9429 66.7664 14.8908 66.8316 14.8322 66.8901H14.8388Z" fill="#F7F8C5"/>
<path d="M9.77539 62.334L11.2754 60.834L18.2754 60.334L28.7754 59.834L42.2754 60.834L48.7754 61.834L54.7754 64.334L58.7754 67.834L59.7754 71.834L58.2754 75.834L49.2754 76.334L40.7754 75.834L31.7754 74.334L25.2754 72.834L19.2754 70.834L14.2754 68.334L11.2754 65.834L9.77539 63.834V62.334Z" fill="#F7F8C5"/>
<path d="M46.9336 8.94768L48.9525 0L50.0991 0.258422L48.3226 8.09168L51.5851 8.83461L53.3617 1.0014L54.5084 1.25983L52.7318 9.09303L55.9943 9.83601L57.7709 2.00276L58.9176 2.26118L56.8987 11.2088L46.9336 8.94768Z" fill="#F7F8C5"/>
<path d="M57.5449 11.5642L63.2623 6.86426L63.8438 14.2453L62.6809 13.7446L62.3902 8.96392L58.7077 12.0488L57.561 11.5642H57.5449Z" fill="#F7F8C5"/>
<path d="M63.8594 14.2942L66.8634 13.0184C66.5243 12.6953 66.3143 12.3077 66.2497 11.9039C66.1851 11.5002 66.2821 11.0802 66.5082 10.6764C66.815 10.1435 67.2349 9.83659 67.7679 9.72353C68.3009 9.61047 68.9147 9.772 69.6253 10.1919L71.7087 11.4033L68.4463 16.9753L67.4934 16.41L68.7208 14.3104L67.7195 13.729L64.9415 14.9242L63.8594 14.2942ZM68.0264 12.7922L69.2054 13.4867L70.2714 11.6778L69.0923 10.9833C68.3332 10.5472 67.7841 10.628 67.4288 11.2417C67.0735 11.8393 67.2673 12.3723 68.0264 12.8084V12.7922Z" fill="#F7F8C5"/>
<path d="M69.8359 17.8786L73.8091 12.791L78.186 16.1989L74.2129 21.2865L73.3407 20.6081L76.7001 16.3119L74.0837 14.2769L70.7242 18.5731L69.8521 17.8947L69.8359 17.8786Z" fill="#F7F8C5"/>
<path d="M78.8155 25.9222L79.2838 25.47C78.5409 25.4216 77.8949 25.0985 77.3296 24.5009C76.6836 23.8226 76.3605 23.0312 76.3928 22.1429C76.4251 21.2546 76.7804 20.4794 77.4749 19.8333C78.1533 19.1711 78.9447 18.8643 79.8492 18.8643C80.7375 18.8643 81.5127 19.2196 82.1749 19.9141C82.7402 20.5117 83.0309 21.1738 83.047 21.9168L83.5154 21.4645L84.2745 22.2721L79.6069 26.7298L78.8316 25.9222H78.8155ZM78.1048 23.8065C78.4117 24.1295 78.7509 24.3556 79.1385 24.4848C79.5261 24.614 79.8976 24.6302 80.2691 24.5494L82.0619 22.8374C82.1588 22.4821 82.1426 22.0944 82.0457 21.7068C81.9488 21.3192 81.7388 20.9639 81.4158 20.6409C80.9797 20.1887 80.4629 19.9625 79.8653 19.9625C79.2678 19.9625 78.7347 20.1887 78.2663 20.6409C77.7979 21.0931 77.5396 21.6099 77.5073 22.2075C77.475 22.8051 77.6688 23.3381 78.1048 23.7903V23.8065Z" fill="#F7F8C5"/>
</svg>
