<svg width="60" height="38" viewBox="0 0 60 38" fill="none" xmlns="http://www.w3.org/2000/svg">
<path d="M10.8074 18.7488C11.8101 16.7435 12.7021 14.8879 13.6722 13.0779C13.848 12.7523 14.3688 12.6286 14.6488 12.3291C14.9743 11.9906 15.3064 11.5999 15.4626 11.1702C16.7453 7.53718 18.7962 4.34036 21.0099 1.24121C21.1791 1.00031 21.6349 0.804988 21.9279 0.837542C26.518 1.3519 31.1212 1.78161 35.6787 2.50431C37.8794 2.8559 40.0084 3.74137 42.144 4.45105C43.3355 4.84821 44.527 5.31047 45.6273 5.90947C46.1612 6.19595 46.6169 6.81447 46.8643 7.38743C47.6261 9.13233 47.6977 11.04 47.8084 12.9086C47.9321 15.0572 47.9256 17.2057 47.9907 19.3608C47.9907 19.5627 48.0949 19.784 48.2121 19.9598C48.6157 20.5653 49.1496 21.1122 49.4426 21.7698C49.8658 22.7139 50.7578 23.1111 51.474 23.658C53.4012 25.1229 55.6214 26.1972 57.2947 28.0137C57.8806 28.6518 58.5968 29.1661 59.2023 29.7912C60.4003 31.0217 59.9901 33.4633 58.4992 34.3683C56.2399 35.7355 53.9351 36.8945 51.3112 37.3046C50.2369 37.4739 49.1561 37.6562 48.0688 37.7083C39.5787 38.0925 31.1407 37.6302 22.8199 35.8462C19.0436 35.0324 15.3064 34.0037 11.5952 32.9294C10.1889 32.5192 8.88672 31.7444 7.57805 31.0477C6.29542 30.3641 4.98023 29.687 3.83433 28.808C2.734 27.9681 1.66622 26.985 0.884924 25.8521C-0.169829 24.3416 0.103625 22.4079 2.02432 21.6201C3.26137 21.1122 4.544 20.7151 5.81361 20.3049C7.53247 19.7515 9.25784 19.2306 10.8009 18.7488H10.8074ZM2.04385 22.9483C1.22349 23.085 0.780751 24.1463 1.28859 25.0187C1.65971 25.6568 2.14151 26.2688 2.68842 26.7701C5.72897 29.5372 9.34248 31.2756 13.2425 32.4476C14.779 32.9098 16.3481 33.294 17.8977 33.7172C27.5532 36.315 37.3846 37.2721 47.3657 36.7773C47.6131 36.7642 47.9451 36.6536 48.0819 36.4713C48.9934 35.2472 49.6184 33.8865 49.8398 32.3629C50.1263 30.3706 48.9283 28.0137 47.1573 27.0566C45.9268 26.3925 44.7027 25.7089 43.4657 25.0578C41.532 24.0421 39.6178 22.9808 37.3716 22.766C34.3505 22.473 31.336 22.1279 28.3085 21.848C26.1339 21.6461 23.9528 21.4834 21.7651 21.3792C19.5189 21.275 17.2661 21.2229 15.0199 21.2229C14.0824 21.2229 13.1253 21.3466 12.2072 21.5354C10.2865 21.9391 8.41794 22.5641 6.4061 22.4795C5.49458 22.4404 4.57005 22.6227 3.65853 22.766C3.22882 22.8311 2.70144 22.9418 2.4345 23.2283C2.18058 23.5017 2.20662 24.0356 2.11547 24.4588C2.08943 24.4588 2.06989 24.4588 2.04385 24.4653V22.9613V22.9483ZM45.9398 17.5443C43.635 16.3333 41.3887 15.1548 39.1425 13.9764C39.1946 13.8722 39.2467 13.7745 39.2988 13.6704C41.5971 14.7902 43.8954 15.9101 46.2979 17.082C46.5128 15.8124 46.8057 14.6926 46.8708 13.5662C46.9815 11.5153 46.5388 9.50995 46.0635 7.52415C45.9268 6.94469 45.5752 6.55404 44.9632 6.35872C42.7169 5.6295 40.4902 4.8417 38.244 4.11248C37.2348 3.78694 36.2061 3.44187 35.1644 3.31165C30.8933 2.77126 26.6092 2.3155 22.3381 1.79463C21.9018 1.74255 21.6805 1.85323 21.4526 2.20481C20.476 3.73486 19.3822 5.19979 18.4967 6.78192C17.4485 8.65053 16.576 10.6103 15.5603 12.6612C26.186 11.6846 35.9001 14.3735 45.4059 18.3126C45.5426 18.1173 45.7314 17.8438 45.9398 17.5443ZM48.3683 21.9521C48.4204 21.8414 48.4725 21.7373 48.5311 21.6266C48.2381 21.0276 47.6261 20.7476 47.0857 20.4351C46.1807 19.9142 45.2431 19.452 44.3121 18.9767C43.0164 18.3126 41.7729 17.4662 40.4056 17.03C37.2544 16.0273 34.0445 15.233 30.8607 14.3475C28.0285 13.5597 25.1182 13.2407 22.1948 13.1039C20.7169 13.0323 19.2324 13.0518 17.7545 13.1039C16.7062 13.1365 15.658 13.2797 14.6097 13.3969C14.4535 13.4164 14.2321 13.5206 14.1735 13.6443C13.4703 15.2395 12.7867 16.8411 12.077 18.5014C20.0137 18.1628 27.7811 18.8595 35.5616 19.7775C34.6826 19.5236 33.8101 19.2697 32.9312 19.0223C32.9442 18.9962 32.9507 18.9637 32.9637 18.9376C38.0943 19.9468 43.2313 20.9495 48.3618 21.9586L48.3683 21.9521ZM4.36821 21.1839C4.88908 21.1839 5.24717 21.2099 5.60527 21.1839C7.53898 21.0081 9.46618 20.6825 11.3999 20.663C15.5147 20.6174 19.6426 20.6109 23.7509 20.8062C29.5716 21.0862 35.3727 21.6071 41.1153 22.7009C44.3967 23.3259 47.6587 24.0096 50.8034 25.1685C51.9818 25.6047 53.1603 26.0279 54.508 26.5227C53.5379 25.8326 52.7111 25.2661 51.9102 24.6737C51.461 24.3351 51.1029 23.8272 50.6081 23.6124C49.4296 23.1045 48.2186 22.6293 46.975 22.3167C45.5101 21.9521 44.0061 21.7698 42.5151 21.5094C41.3041 21.301 40.0931 21.0667 38.8756 20.8974C37.2999 20.676 35.7178 20.5132 34.1357 20.3179C32.4038 20.1031 30.6784 19.8296 28.9466 19.6538C27.3319 19.491 25.7042 19.4324 24.083 19.3283C21.6935 19.172 19.304 18.9897 16.9081 18.8725C13.9912 18.7228 11.2046 19.5822 8.37888 20.0835C7.07671 20.3114 5.81361 20.7867 4.37472 21.1969L4.36821 21.1839ZM51.1875 32.0765C51.6823 33.5674 53.2384 34.1469 54.5471 34.0948C56.0446 34.0362 57.3077 33.3721 58.1997 32.096C58.2452 32.1481 58.2973 32.1936 58.3429 32.2457C57.9978 32.6624 57.6463 33.0726 57.3012 33.4893C57.8806 33.2875 58.5382 33.0661 58.8898 32.6103C59.4693 31.8486 59.2023 30.6962 58.5447 29.98C57.4639 28.808 56.0511 28.1765 54.6903 27.4277C52.9715 26.4771 51.0247 26.386 49.1822 25.9042C48.8827 25.8261 48.492 26.08 48.0298 26.2167C50.0351 28.1244 52.3399 29.3614 54.0197 31.3082C53.9611 31.3993 53.909 31.484 53.8504 31.5751C53.2124 31.2626 52.5743 30.9436 51.9623 30.6441C51.7149 31.1063 51.487 31.5165 51.1875 32.0765Z" fill="#F7F8C5"/>
<path d="M5.83875 27.8901C4.69936 27.0047 3.55346 26.1192 2.41406 25.2337C2.45964 25.1751 2.4987 25.1165 2.54428 25.0645C3.69669 25.9434 4.84911 26.8224 6.00152 27.7013C5.94293 27.7664 5.89084 27.8316 5.83224 27.8901H5.83875Z" fill="#F7F8C5"/>
<path d="M0.775391 23.334L2.27539 21.834L9.27539 21.334L19.7754 20.834L33.2754 21.834L39.7754 22.834L45.7754 25.334L49.7754 28.834L50.7754 32.834L49.2754 36.834L40.2754 37.334L31.7754 36.834L22.7754 35.334L16.2754 33.834L10.2754 31.834L5.27539 29.334L2.27539 26.834L0.775391 24.834V23.334Z" fill="#F7F8C5"/>
</svg>
