<svg width="49" height="54" viewBox="0 0 49 54" fill="none" xmlns="http://www.w3.org/2000/svg">
<path d="M0.79744 14.5845C0.762407 12.9204 0.829968 11.2589 1.17028 9.62989C1.56315 7.76065 2.16871 5.94647 3.61255 4.61273C5.75704 2.63339 8.20679 1.13701 11.152 0.746644C13.0788 0.491407 15.0281 0.501416 16.8698 1.32468C16.9774 1.37222 17.0875 1.42978 17.1801 1.50234C18.2036 2.29558 19.1269 3.19141 19.9852 4.15981C21.2189 5.5511 22.4576 6.93739 23.7087 8.31366C24.1241 8.77159 24.5995 9.17446 25.0249 9.62488C25.5805 10.2129 26.1084 10.826 26.6565 11.419C27.4622 12.2949 28.2654 13.1707 29.0837 14.0365C32.109 17.2319 35.1418 20.4199 38.1671 23.6154C39.8987 25.4446 41.6328 27.2763 43.3444 29.123C44.0776 29.9137 44.7557 30.7595 45.4689 31.5702C45.9619 32.1333 46.4848 32.6688 46.9628 33.2418C47.198 33.5221 47.4007 33.8449 47.5508 34.1802C47.8912 34.9384 48.1064 35.7166 48.1089 36.5774C48.1114 38.2114 48.0463 39.8354 47.8561 41.4569C47.7435 42.4203 47.6434 43.3862 47.4708 44.3396C47.0003 46.927 45.7691 49.099 43.7998 50.8431C43.4945 51.1134 43.1518 51.3536 42.7939 51.5463C41.7329 52.1243 40.6769 52.7249 39.5734 53.2103C39.0229 53.453 38.3748 53.5056 37.7642 53.5782C37.3664 53.6257 36.951 53.5857 36.5481 53.5406C35.8074 53.4581 35.0642 53.373 34.3311 53.2379C33.3727 53.0602 32.4368 52.7549 31.6511 52.1769C31.0455 51.734 30.5475 51.1484 29.9895 50.6354C26.5538 47.4725 23.1507 44.2745 20.0453 40.7813C18.9618 39.5627 17.9183 38.309 16.7898 37.1379C13.5067 33.7348 10.0886 30.4592 6.93815 26.9284C5.32165 25.1168 3.70264 23.3001 2.30384 21.3057C2.18874 21.1431 2.06863 20.9804 1.93601 20.8328C1.2854 20.1096 1.04767 19.2338 0.980105 18.2904C0.892523 17.0568 0.802425 15.8206 0.714844 14.587C0.742369 14.587 0.769912 14.587 0.794935 14.5845H0.79744ZM39.9913 26.3029C39.9012 26.1978 39.8387 26.1202 39.7711 26.0501C39.0129 25.2544 38.2447 24.4636 37.494 23.6604C35.9225 21.9813 34.3811 20.2723 32.7871 18.6157C30.8554 16.6064 28.8585 14.6596 26.9317 12.6452C25.0825 10.7109 23.2908 8.71654 21.4616 6.76223C20.4732 5.70625 19.4748 4.65527 18.4438 3.63682C17.4604 2.66342 16.4194 1.75508 15.0381 1.37723C14.6603 1.27463 14.2725 1.18705 13.8821 1.14952C13.4867 1.11198 13.0813 1.15452 12.6835 1.13951C11.0219 1.08446 9.4805 1.5599 7.99412 2.22802C6.71043 2.80355 5.58688 3.64683 4.48586 4.51514C3.89781 4.97807 3.39982 5.51607 3.01697 6.16167C1.79834 8.20857 1.34291 10.4632 1.38545 12.8003C1.42048 14.7747 1.6307 16.7465 1.78334 18.7183C1.82588 19.2638 1.92847 19.8168 2.27379 20.2698C4.02291 22.5469 5.89965 24.7189 7.84396 26.8283C9.39039 28.5049 10.9744 30.1464 12.5659 31.7779C14.5002 33.7598 16.4995 35.6791 18.4037 37.6884C20.2329 39.6177 21.9771 41.6271 23.7562 43.6039C23.8288 43.684 23.8713 43.7891 23.9264 43.8842C24.1641 43.3011 24.104 42.7256 24.4744 42.2752C24.5419 42.3653 24.5945 42.4578 24.587 42.5429C24.5495 42.9984 24.537 43.4613 24.4394 43.9042C24.3593 44.2645 24.5069 44.4372 24.8197 44.6249C24.8197 44.4747 24.8122 44.3696 24.8197 44.2645C24.8998 43.3787 24.9173 42.4829 25.0775 41.6121C25.5754 38.897 26.4012 36.2796 27.5748 33.7798C28.0602 32.7488 28.6108 31.7454 29.4641 30.9547C29.997 30.4617 30.5576 30.0113 31.2232 29.701C31.1181 29.8386 31.003 29.9613 30.8703 30.0663C29.464 31.2074 28.5657 32.7113 27.8475 34.3328C26.9392 36.3847 26.206 38.4967 25.7255 40.6912C25.4353 42.0224 25.1725 43.3537 25.1775 44.7225C25.1775 44.8801 25.2601 45.0728 25.3677 45.1854C26.1409 45.9811 26.9367 46.7543 27.7149 47.5451C28.4781 48.3208 29.2013 49.1416 29.9995 49.8822C30.7077 50.5403 31.4934 51.1184 32.2466 51.7239C32.3392 51.7965 32.4518 51.8491 32.5594 51.8941C33.8506 52.4321 35.2069 52.6974 36.5756 52.9576C37.8293 53.1953 38.9704 52.9751 40.0914 52.4421C40.5143 52.2419 40.9397 52.0492 41.3676 51.8591C41.5302 51.7865 41.7204 51.759 41.863 51.6614C43.3644 50.653 44.6731 49.4644 45.5615 47.8504C46.0094 47.0371 46.3222 46.1813 46.5874 45.303C47.0053 43.9167 47.1354 42.4804 47.3506 41.059C47.6034 39.3825 47.6084 37.6909 47.5758 36.0019C47.5583 35.1361 47.218 34.3303 46.69 33.6597C46.137 32.9565 45.4789 32.336 44.8783 31.6678C43.7147 30.3741 42.5612 29.0704 41.3951 27.7817C41.2675 27.6416 41.0823 27.509 40.9022 27.4714C40.1715 27.3213 39.4358 27.1536 38.6951 27.0986C37.4364 27.0085 36.2078 27.2537 34.9941 27.584C34.844 27.6241 34.6864 27.6366 34.5338 27.6616C34.5263 27.6091 34.5187 27.559 34.5137 27.5065C36.3905 26.6282 38.3773 26.5481 40.4167 26.7808C40.3266 26.7057 40.2315 26.6557 40.1339 26.6407C39.8061 26.5981 39.4783 26.5731 39.1505 26.5331C39.0655 26.5231 38.9829 26.4855 38.8177 26.4355C39.2306 26.1577 39.5959 26.3804 39.9838 26.2979L39.9913 26.3029Z" fill="#F7F8C5"/>
<path d="M45.2519 35.2807C45.3144 35.3733 45.3295 35.4083 45.357 35.4333C46.1803 36.1915 46.458 37.2075 46.6007 38.2535C46.9335 40.7057 46.6056 43.0829 45.5747 45.335C45.2994 45.9356 44.864 46.4611 44.4987 47.0191C44.4737 47.0566 44.4286 47.0792 44.3436 47.1492C44.3586 47.0416 44.3561 46.9891 44.3736 46.9465C44.7714 45.9456 45.2219 44.9622 45.5622 43.9412C46.0902 42.3523 46.2654 40.7032 46.1578 39.0317C46.0752 37.7455 45.7323 36.5469 44.814 35.5885C44.3736 35.1281 43.8681 34.7477 43.1925 34.7402C42.2941 34.7277 41.3933 34.7352 40.4925 34.7352C39.7868 34.7352 39.1737 35.073 38.5632 35.3483C37.6098 35.7787 36.689 36.2866 35.7881 36.8146C34.8748 37.3501 34.3368 38.2134 33.8839 39.1493C33.3559 40.2353 33.2307 41.4089 33.0631 42.5725C32.8829 43.8286 32.7578 45.0923 32.5927 46.3485C32.5276 46.8464 32.7053 47.2868 32.8454 47.7423C33.2983 49.2286 34.2842 50.3222 35.5079 51.193C36.0333 51.5658 36.719 51.5583 37.3646 51.4557C37.5698 51.4232 37.7749 51.3856 37.9826 51.3506L38.0177 51.4632C37.9351 51.5158 37.8575 51.5758 37.77 51.6184C36.9417 52.0162 36.0784 51.9612 35.2176 51.786C34.6246 51.6634 34.0265 51.5283 33.461 51.3206C32.7078 51.0428 32.2123 50.4198 32.0622 49.6791C31.907 48.8983 31.9221 48.0701 31.9721 47.2668C32.0472 46.0832 32.1998 44.9021 32.3624 43.726C32.5201 42.58 32.6577 41.4214 32.9355 40.3029C33.4059 38.4186 34.3968 36.8572 36.176 35.9388C37.2394 35.3908 38.3405 34.9129 39.4415 34.4399C39.7643 34.3023 40.1371 34.2397 40.49 34.2247C41.7887 34.1697 43.0874 34.1947 44.3786 34.3899C44.7915 34.4524 45.2194 34.4925 45.6048 34.6401C46.0777 34.8203 46.443 35.1756 46.6557 35.6535C46.6782 35.7011 46.6332 35.7812 46.6181 35.8437C46.5356 35.8262 46.423 35.8337 46.3804 35.7837C46.0977 35.4484 45.6723 35.4759 45.2569 35.2857L45.2519 35.2807Z" fill="#F7F8C5"/>
<path d="M43.3073 48.5135C43.1822 48.7037 43.0946 48.8688 42.977 49.009C42.3139 49.8097 41.5507 50.4878 40.5773 50.8857C40.4096 50.9558 40.2095 50.9583 40.0243 50.9708C39.9792 50.9733 39.9117 50.8982 39.8917 50.8432C39.8816 50.8182 39.9467 50.7356 39.9917 50.7181C41.2404 50.2451 42.1863 49.3343 43.1922 48.511C43.1972 48.506 43.2122 48.511 43.3073 48.511V48.5135Z" fill="#F7F8C5"/>
</svg>
