<svg width="58" height="65" viewBox="0 0 58 65" fill="none" xmlns="http://www.w3.org/2000/svg">
<path d="M48.9396 27.4995C54.2316 36.9183 51.0054 48.7606 41.7571 53.9569C32.5088 59.1532 20.7162 55.7493 15.4242 46.3305C10.1322 36.9118 13.3584 25.0694 22.6067 19.8731C31.855 14.6769 43.6476 18.0808 48.9396 27.4995Z" stroke="#F7F8C5"/>
<path d="M22.1902 36.435C22.6899 35.4356 23.1344 34.5108 23.6179 33.6088C23.7055 33.4465 23.9651 33.3849 24.1046 33.2356C24.2669 33.0669 24.4323 32.8722 24.5102 32.6581C25.1494 30.8475 26.1715 29.2543 27.2748 27.7098C27.3591 27.5897 27.5863 27.4924 27.7323 27.5086C30.0198 27.7649 32.3139 27.9791 34.5852 28.3393C35.6819 28.5145 36.743 28.9558 37.8073 29.3095C38.4011 29.5074 38.9949 29.7378 39.5432 30.0363C39.8093 30.1791 40.0364 30.4873 40.1597 30.7728C40.5394 31.6424 40.5751 32.5932 40.6302 33.5244C40.6919 34.5952 40.6886 35.666 40.7211 36.74C40.7211 36.8406 40.773 36.9509 40.8314 37.0385C41.0326 37.3403 41.2986 37.6128 41.4447 37.9405C41.6556 38.411 42.1001 38.609 42.457 38.8815C43.4175 39.6116 44.5239 40.147 45.3578 41.0523C45.6499 41.3703 46.0068 41.6266 46.3086 41.9381C46.9056 42.5514 46.7012 43.7681 45.9581 44.2192C44.8322 44.9006 43.6835 45.4781 42.3759 45.6826C41.8405 45.7669 41.3019 45.8578 40.76 45.8837C36.5288 46.0752 32.3236 45.8448 28.1768 44.9557C26.2948 44.5501 24.4323 44.0375 22.5828 43.5021C21.8819 43.2977 21.233 42.9115 20.5808 42.5643C19.9416 42.2236 19.2861 41.8862 18.7151 41.4481C18.1667 41.0296 17.6345 40.5396 17.2452 39.975C16.7195 39.2222 16.8558 38.2585 17.813 37.8659C18.4295 37.6128 19.0687 37.4149 19.7015 37.2105C20.5581 36.9347 21.4179 36.6751 22.187 36.435H22.1902ZM17.8227 38.5278C17.4139 38.596 17.1933 39.1249 17.4464 39.5597C17.6313 39.8777 17.8714 40.1827 18.144 40.4325C19.6593 41.8115 21.4601 42.6779 23.4037 43.262C24.1695 43.4923 24.9515 43.6838 25.7238 43.8947C30.5357 45.1894 35.4353 45.6663 40.4096 45.4197C40.5329 45.4132 40.6984 45.3581 40.7665 45.2672C41.2208 44.6572 41.5323 43.9791 41.6426 43.2198C41.7854 42.2269 41.1883 41.0523 40.3057 40.5753C39.6925 40.2443 39.0825 39.9036 38.466 39.5791C37.5023 39.073 36.5483 38.5441 35.4289 38.437C33.9233 38.291 32.421 38.119 30.9121 37.9795C29.8284 37.8789 28.7414 37.7978 27.6511 37.7459C26.5317 37.6939 25.409 37.668 24.2896 37.668C23.8223 37.668 23.3453 37.7296 22.8878 37.8237C21.9306 38.0249 20.9994 38.3364 19.9967 38.2942C19.5425 38.2747 19.0817 38.3656 18.6274 38.437C18.4133 38.4694 18.1505 38.5246 18.0174 38.6674C17.8909 38.8036 17.9039 39.0697 17.8584 39.2806C17.8455 39.2806 17.8357 39.2806 17.8227 39.2839V38.5343V38.5278ZM39.699 35.8347C38.5503 35.2312 37.4309 34.6439 36.3114 34.0566C36.3374 34.0046 36.3633 33.956 36.3893 33.904C37.5347 34.4621 38.6801 35.0202 39.8774 35.6043C39.9845 34.9716 40.1305 34.4135 40.163 33.8521C40.2181 32.83 39.9975 31.8306 39.7606 30.841C39.6925 30.5522 39.5173 30.3575 39.2123 30.2602C38.0928 29.8968 36.9831 29.5041 35.8637 29.1407C35.3607 28.9785 34.848 28.8065 34.3289 28.7416C32.2003 28.4723 30.0653 28.2452 27.9367 27.9856C27.7193 27.9596 27.609 28.0148 27.4954 28.19C27.0087 28.9525 26.4636 29.6826 26.0223 30.4711C25.4999 31.4023 25.0651 32.379 24.5589 33.4011C29.8543 32.9144 34.6955 34.2545 39.4329 36.2176C39.501 36.1202 39.5951 35.9839 39.699 35.8347ZM40.9093 38.0314C40.9352 37.9762 40.9612 37.9243 40.9904 37.8692C40.8444 37.5706 40.5394 37.4311 40.2701 37.2754C39.819 37.0158 39.3518 36.7854 38.8878 36.5485C38.2421 36.2176 37.6223 35.7957 36.9409 35.5783C35.3705 35.0787 33.7708 34.6828 32.1841 34.2415C30.7726 33.8489 29.3222 33.6899 27.8653 33.6218C27.1287 33.5861 26.3889 33.5958 25.6524 33.6218C25.13 33.638 24.6076 33.7094 24.0851 33.7678C24.0073 33.7775 23.897 33.8294 23.8677 33.8911C23.5173 34.686 23.1766 35.4842 22.8229 36.3117C26.7783 36.1429 30.6493 36.4901 34.5268 36.9476C34.0888 36.8211 33.654 36.6945 33.2159 36.5712C33.2224 36.5583 33.2257 36.542 33.2321 36.5291C35.789 37.032 38.3491 37.5317 40.906 38.0346L40.9093 38.0314ZM18.9811 37.6485C19.2407 37.6485 19.4192 37.6615 19.5976 37.6485C20.5613 37.5609 21.5218 37.3987 22.4855 37.3889C24.5362 37.3662 26.5934 37.363 28.6408 37.4603C31.5416 37.5998 34.4327 37.8594 37.2946 38.4045C38.93 38.716 40.5556 39.0567 42.1228 39.6343C42.7101 39.8517 43.2974 40.0626 43.9691 40.3092C43.4856 39.9653 43.0735 39.683 42.6744 39.3877C42.4505 39.219 42.2721 38.9659 42.0255 38.8588C41.4382 38.6057 40.8346 38.3688 40.2149 38.2131C39.4848 38.0314 38.7353 37.9405 37.9922 37.8107C37.3887 37.7069 36.7852 37.5901 36.1784 37.5057C35.3932 37.3954 34.6047 37.3143 33.8162 37.217C32.9531 37.1099 32.0932 36.9736 31.2301 36.886C30.4254 36.8049 29.6142 36.7757 28.8063 36.7238C27.6155 36.6459 26.4246 36.555 25.2306 36.4966C23.7769 36.422 22.3881 36.8503 20.9799 37.1001C20.331 37.2137 19.7015 37.4506 18.9844 37.655L18.9811 37.6485ZM42.3143 43.077C42.5609 43.8201 43.3364 44.1088 43.9886 44.0829C44.7349 44.0537 45.3643 43.7227 45.8089 43.0867C45.8316 43.1127 45.8575 43.1354 45.8803 43.1614C45.7083 43.369 45.5331 43.5735 45.3611 43.7811C45.6499 43.6805 45.9776 43.5702 46.1528 43.3431C46.4416 42.9634 46.3086 42.3891 45.9808 42.0322C45.4422 41.4481 44.7381 41.1334 44.0599 40.7602C43.2033 40.2865 42.2331 40.2411 41.3149 40.001C41.1656 39.962 40.9709 40.0886 40.7405 40.1567C41.7399 41.1074 42.8886 41.7239 43.7257 42.6941C43.6965 42.7396 43.6706 42.7817 43.6414 42.8272C43.3234 42.6714 43.0054 42.5124 42.7004 42.3632C42.5771 42.5935 42.4635 42.798 42.3143 43.077Z" fill="#F7F8C5"/>
<path d="M19.7146 40.9907C19.1467 40.5495 18.5756 40.1082 18.0078 39.6669C18.0305 39.6377 18.05 39.6085 18.0727 39.5825C18.647 40.0206 19.2214 40.4586 19.7957 40.8967C19.7665 40.9291 19.7405 40.9615 19.7113 40.9907H19.7146Z" fill="#F7F8C5"/>
<path d="M17.1904 38.72L17.938 37.9725L21.4265 37.7233L26.6594 37.4741L33.3873 37.9725L36.6267 38.4709L39.6169 39.7168L41.6103 41.461L42.1087 43.4545L41.3612 45.448L36.8759 45.6972L32.6398 45.448L28.1545 44.7004L24.9151 43.9529L21.9249 42.9561L19.4331 41.7102L17.938 40.4643L17.1904 39.4676V38.72Z" fill="#F7F8C5"/>
<path d="M23.1518 13.3539L21.8447 8.97346L22.406 8.80582L23.5463 12.6429L25.1452 12.1693L24.0049 8.33219L24.5662 8.16452L25.7065 12.0016L27.3054 11.528L26.165 7.69089L26.7264 7.52323L28.0335 11.9037L23.1518 13.3539Z" fill="#F7F8C5"/>
<path d="M28.4015 11.9004L29.7383 8.46267L31.7927 11.5277L31.1653 11.594L29.8719 9.58783L29.025 11.8271L28.4085 11.8965L28.4015 11.9004Z" fill="#F7F8C5"/>
<path d="M31.8109 11.5451L32.8046 10.2574C32.5784 10.1998 32.3925 10.0827 32.2659 9.923C32.1393 9.76334 32.0789 9.55721 32.0786 9.32658C32.0818 9.02009 32.1893 8.78427 32.3933 8.60503C32.5972 8.4258 32.9033 8.34615 33.3146 8.35511L34.5155 8.37281L34.4583 11.5902L33.9063 11.5772L33.927 10.3653L33.35 10.3571L32.4348 11.5546L31.8109 11.5451ZM33.2547 9.87522L33.9365 9.88915L33.9581 8.84298L33.2762 8.82907C32.84 8.82492 32.6211 8.99405 32.6165 9.34745C32.608 9.69383 32.8224 9.87809 33.2586 9.88225L33.2547 9.87522Z" fill="#F7F8C5"/>
<path d="M35.2825 11.6436L35.7668 8.46318L38.5004 8.87537L38.0161 12.0557L37.4716 11.9739L37.8824 9.2872L36.2488 9.04176L35.838 11.7284L35.2935 11.6466L35.2825 11.6436Z" fill="#F7F8C5"/>
<path d="M41.1479 12.9458L41.241 12.635C40.9063 12.7953 40.5468 12.8126 40.1553 12.691C39.709 12.554 39.3755 12.289 39.1727 11.8952C38.9699 11.5013 38.935 11.0778 39.079 10.6275C39.2121 10.1742 39.481 9.84769 39.874 9.6269C40.26 9.41004 40.6835 9.37517 41.1408 9.51526C41.5323 9.6369 41.8202 9.85364 42.0086 10.1725L42.1017 9.86168L42.6287 10.0272L41.6889 13.1035L41.1549 12.9419L41.1479 12.9458ZM40.3226 12.2C40.5348 12.2655 40.7374 12.2809 40.9373 12.2424C41.1373 12.2039 41.3026 12.1202 41.4443 11.9945L41.8053 10.813C41.7607 10.635 41.659 10.4705 41.5223 10.3257C41.3855 10.181 41.2076 10.0779 40.9884 10.0164C40.6885 9.92634 40.4088 9.95424 40.1491 10.1001C39.8895 10.246 39.7131 10.4744 39.62 10.7852C39.5269 11.096 39.5408 11.3836 39.6726 11.6512C39.8045 11.9187 40.0188 12.103 40.3187 12.193L40.3226 12.2Z" fill="#F7F8C5"/>
</svg>
