<svg width="67" height="67" viewBox="0 0 67 67" fill="none" xmlns="http://www.w3.org/2000/svg">
<path d="M45.4329 24.6831C53.7449 31.0223 55.418 42.7797 49.1939 50.9408C42.9699 59.102 31.1887 60.5986 22.8767 54.2594C14.5646 47.9203 12.8915 36.1629 19.1156 28.0018C25.3397 19.8406 37.1208 18.344 45.4329 24.6831Z" stroke="#F7F8C5"/>
<path d="M31.9334 40.0322C31.7145 40.0322 31.4888 40.0048 31.2768 39.9433C30.7364 39.7928 30.3875 39.4508 30.2644 38.9583C30.0113 37.9459 30.6475 25.8865 31.4273 24.8809C31.5093 24.7715 31.6051 24.751 31.6667 24.751C31.8651 24.751 31.9745 24.9562 32.0566 25.1614C32.4875 26.2148 33.0142 29.7649 33.3425 32.8225C33.5956 35.1414 33.9582 39.0951 33.5478 39.4918C33.24 39.7928 32.5833 40.0253 31.9266 40.0253L31.9334 40.0322ZM30.6406 38.8693C30.7296 39.225 30.9826 39.4576 31.3862 39.5739C32.0566 39.7654 32.9595 39.5397 33.2878 39.2182C33.7735 38.4179 32.3849 26.55 31.6803 25.2161C31.4546 25.7291 31.1331 27.8907 30.8595 31.8922C30.6201 35.4218 30.5449 38.4863 30.6406 38.8625V38.8693Z" fill="#F7F8C5"/>
<path d="M38.049 51.502C38.0148 51.4951 37.2008 51.2831 36.3799 50.4486C35.6344 49.6893 34.752 48.2392 34.752 45.6604C34.752 40.7217 37.8096 39.251 37.9396 39.1895L38.1037 39.5383C38.1037 39.5383 35.1419 40.9748 35.1419 45.6604C35.1419 50.346 38.0285 51.0984 38.1448 51.1326L38.049 51.5088V51.502Z" fill="#F7F8C5"/>
<path d="M36.1138 51.7766C35.2656 51.7766 34.4242 51.6945 33.6923 51.6193C33.1246 51.5646 32.6321 51.5099 32.249 51.5099C29.6292 51.5099 28.4048 49.4851 28.4048 45.1279C28.4048 40.0934 30.2517 38.5133 30.3338 38.4449L30.58 38.739C30.58 38.739 28.7947 40.2918 28.7947 45.121C28.7947 47.9119 29.1846 51.1131 32.2559 51.1131C32.6526 51.1131 33.1588 51.161 33.7402 51.2226C36.1343 51.462 39.4176 51.7971 40.2316 49.2184C40.943 46.9679 40.8815 43.1715 39.5408 40.9553C38.9935 40.0524 38.3027 39.5188 37.4819 39.3683C34.2874 38.7869 33.6308 38.7048 33.6239 38.7048L33.6718 38.3218C33.6718 38.3218 34.3285 38.4039 37.5502 38.9853C38.4874 39.1563 39.2672 39.7514 39.8691 40.7501C41.2782 43.0895 41.3466 46.9474 40.5942 49.3278C39.9649 51.3252 38.0359 51.7561 36.1206 51.7561L36.1138 51.7766Z" fill="#F7F8C5"/>
<path d="M19.2529 20.5505C18.7317 20.9699 18.1447 21.1497 17.4976 21.0824C16.8504 21.0151 16.3143 20.7246 15.893 20.1902C15.4661 19.6634 15.2863 19.0764 15.3611 18.4349C15.4285 17.7878 15.7265 17.2573 16.2533 16.8304C16.5622 16.5806 16.8968 16.4213 17.2684 16.3377C17.6343 16.2616 17.9694 16.2567 18.2775 16.3496L18.1788 16.9136C17.6283 16.7661 17.1077 16.8899 16.6168 17.2852C16.217 17.6077 16.0028 18.0126 15.9595 18.4887C15.9179 18.9779 16.0574 19.4158 16.3799 19.8157C16.7024 20.2156 17.1092 20.4429 17.587 20.4994C18.0723 20.5617 18.5045 20.4296 18.9044 20.1071C19.3895 19.7194 19.6194 19.2317 19.59 18.6647L20.1566 18.6825C20.1729 19.0027 20.1099 19.3336 19.9529 19.6637C19.7976 20.007 19.5675 20.2932 19.2586 20.543L19.2529 20.5505Z" fill="#F7F8C5"/>
<path d="M21.1539 19.0982L19.5068 16.2437L19.993 15.9633L20.8007 17.3725L21.251 15.2297L21.8488 14.8806L21.3831 17.059L23.6264 17.6569L22.9908 18.0247L20.8434 17.4407L21.6326 18.812L21.1408 19.0999L21.1539 19.0982Z" fill="#F7F8C5"/>
<path d="M25.1391 17.1177C24.6876 17.3061 24.2451 17.312 23.8173 17.1278C23.3969 16.9493 23.0869 16.6418 22.9059 16.196C22.725 15.7502 22.721 15.3208 22.8977 14.8873C23.0687 14.4613 23.3893 14.1495 23.8483 13.9668C24.2998 13.7783 24.7367 13.7799 25.157 13.9584C25.5773 14.1369 25.8817 14.4519 26.0683 14.8902C26.2492 15.336 26.2533 15.7654 26.0766 16.1989C25.9056 16.6249 25.5906 16.9293 25.1391 17.1177ZM24.0585 16.6251C24.338 16.7554 24.6262 16.7502 24.9322 16.6284C25.2382 16.5066 25.4451 16.2974 25.5547 16.014C25.6643 15.7305 25.6573 15.4292 25.5223 15.125C25.393 14.8133 25.1895 14.5989 24.9175 14.4743C24.6455 14.3497 24.3499 14.3492 24.0439 14.471C23.7379 14.5928 23.531 14.802 23.4214 15.0855C23.3118 15.3689 23.3188 15.6702 23.4406 15.9762C23.5699 16.2879 23.7733 16.5023 24.0454 16.6269L24.0585 16.6251Z" fill="#F7F8C5"/>
<path d="M27.2798 16.266L26.4865 13.0682L27.8449 12.7308C28.209 12.6415 28.4989 12.6494 28.7278 12.7529C28.9566 12.8565 29.1095 13.0441 29.1732 13.3176C29.2444 13.5969 29.1897 13.8393 28.9885 14.0411C29.3836 14.0819 29.6342 14.2967 29.7328 14.6797C29.8039 14.9589 29.7568 15.207 29.6044 15.4223C29.4446 15.6319 29.1778 15.7955 28.7873 15.8884L27.2856 16.2585L27.2798 16.266ZM27.7066 15.6443L28.7009 15.3962C28.8631 15.3542 28.988 15.2837 29.0679 15.1789C29.1478 15.0741 29.1696 14.9368 29.1351 14.7803C29.0949 14.6312 29.0204 14.5271 28.8985 14.4696C28.7765 14.4121 28.6353 14.411 28.4656 14.4473L27.4714 14.6954L27.7066 15.6443ZM27.3599 14.2671L28.2315 14.0557C28.3617 14.0247 28.4676 13.9634 28.5418 13.8661C28.6161 13.7688 28.6414 13.6579 28.5955 13.5164C28.5627 13.373 28.49 13.282 28.3756 13.2302C28.2612 13.1785 28.1463 13.1738 28.0162 13.2048L27.1446 13.4162L27.3599 14.2671Z" fill="#F7F8C5"/>
<path d="M32.0595 15.4008C31.5695 15.4533 31.1431 15.3294 30.7877 15.0347C30.4324 14.74 30.2322 14.3505 30.1889 13.8795C30.1381 13.4027 30.2638 12.9895 30.551 12.6284C30.8457 12.2731 31.2277 12.0671 31.7252 12.0203C32.2094 11.9752 32.6283 12.0934 32.9837 12.3881C33.3391 12.6828 33.545 13.0649 33.5901 13.5491C33.6408 14.0259 33.5151 14.4391 33.2204 14.7944C32.9332 15.1555 32.5437 15.3557 32.0595 15.4008ZM31.1677 14.6141C31.3958 14.8118 31.6757 14.895 32.0073 14.8638C32.3389 14.8326 32.5886 14.6914 32.7713 14.4519C32.954 14.2124 33.0354 13.9193 32.9985 13.5952C32.9673 13.2635 32.8376 12.9989 32.602 12.7956C32.3739 12.5979 32.094 12.5147 31.7624 12.5459C31.4308 12.5771 31.1736 12.7125 30.9852 12.9595C30.7968 13.2066 30.7211 13.4921 30.7523 13.8238C30.7835 14.1554 30.9207 14.4257 31.1488 14.6234L31.1677 14.6141Z" fill="#F7F8C5"/>
<path d="M34.5359 11.8911L35.1043 11.922L35.0884 12.2533C35.3652 12.0145 35.7275 11.912 36.1604 11.9343C36.6478 11.9627 37.0361 12.1522 37.3308 12.4954C37.6255 12.8386 37.7616 13.2501 37.7332 13.7375C37.7048 14.225 37.5152 14.6132 37.187 14.9193C36.8589 15.2254 36.4416 15.369 35.9599 15.3331C35.527 15.3108 35.1912 15.1612 34.9392 14.8862L34.844 16.4237L34.2756 16.3927L34.5434 11.8968L34.5359 11.8911ZM35.968 14.7946C36.286 14.8123 36.556 14.7222 36.7761 14.5112C36.9962 14.3002 37.1208 14.0282 37.1366 13.6969C37.1525 13.3657 37.0663 13.075 36.8742 12.8457C36.6746 12.6106 36.4158 12.4842 36.0978 12.4666C35.8681 12.4572 35.6645 12.4914 35.468 12.5783C35.279 12.6709 35.1331 12.7846 35.0264 12.94L34.9541 14.199C35.0432 14.3617 35.1758 14.4983 35.3519 14.609C35.528 14.7196 35.7309 14.7796 35.9548 14.7964L35.968 14.7946Z" fill="#F7F8C5"/>
<path d="M39.6697 15.8535C39.1923 15.7499 38.8234 15.5041 38.5761 15.1142C38.3288 14.7244 38.2513 14.2982 38.3624 13.8265C38.4678 13.3623 38.708 13.0008 39.0978 12.7536C39.4877 12.5063 39.9213 12.4345 40.3987 12.5381C40.8761 12.6417 41.2393 12.8951 41.4791 13.2792C41.7264 13.6691 41.7982 14.1027 41.6928 14.5669C41.5874 15.0311 41.3473 15.3925 40.9574 15.6398C40.5676 15.8871 40.1414 15.9647 39.664 15.861L39.6697 15.8535ZM39.0622 14.8338C39.2183 15.0949 39.4618 15.2569 39.7812 15.3348C40.1064 15.4052 40.3892 15.3604 40.641 15.1854C40.8928 15.0104 41.0548 14.767 41.1252 14.4418C41.1956 14.1166 41.149 13.8207 40.993 13.5596C40.8369 13.2985 40.5992 13.129 40.274 13.0586C39.9488 12.9882 39.6604 13.0405 39.4142 13.208C39.1624 13.3829 39.0004 13.6264 38.93 13.9516C38.8596 14.2767 38.9062 14.5727 39.0622 14.8338Z" fill="#F7F8C5"/>
<path d="M41.1585 16.9762L41.6394 15.7092L41.9791 15.8381L44.3592 13.7108L44.7328 16.8845L45.0651 17.0077L44.5842 18.2747L44.0886 18.0863L44.3867 17.3072L41.9446 16.3801L41.6465 17.1591L41.151 16.9706L41.1585 16.9762ZM44.1528 16.6671L43.9444 14.7205L42.5178 16.0477L44.1528 16.6671Z" fill="#F7F8C5"/>
<path d="M45.2545 17.7065L46.8405 14.8197L47.341 15.0949L46.5594 16.5233L48.6175 15.7961L49.2268 16.1305L47.1291 16.863L47.7852 19.0919L47.1403 18.7422L46.523 16.6021L45.7625 17.9874L45.2695 17.7179L45.2545 17.7065Z" fill="#F7F8C5"/>
<path d="M47.9678 19.3033L49.9776 16.6213L50.4267 16.9638L49.1116 18.7194L52.3719 18.3408L50.3621 21.0227L49.9129 20.6802L51.211 18.9471L47.9735 19.2958L47.9678 19.3033Z" fill="#F7F8C5"/>
</svg>
