<svg width="57" height="65" viewBox="0 0 57 65" fill="none" xmlns="http://www.w3.org/2000/svg">
<path d="M41.999 26.9996C47.8932 35.7236 45.708 47.4833 37.1424 53.2705C28.5767 59.0577 16.851 56.6965 10.9569 47.9726C5.06276 39.2486 7.24788 27.4888 15.8135 21.7016C24.3792 15.9144 36.1049 18.2757 41.999 26.9996Z" stroke="#F7F8C5"/>
<path d="M15.5508 30.6201C15.5337 29.8114 15.5666 29.0039 15.732 28.2123C15.9229 27.3038 16.2172 26.4222 16.9188 25.774C17.961 24.8121 19.1515 24.0849 20.5829 23.8952C21.5193 23.7711 22.4666 23.776 23.3616 24.1761C23.4139 24.1992 23.4674 24.2272 23.5124 24.2624C24.0098 24.6479 24.4585 25.0833 24.8756 25.5539C25.4752 26.2301 26.0771 26.9038 26.6852 27.5726C26.887 27.7951 27.1181 27.9909 27.3248 28.2098C27.5948 28.4956 27.8514 28.7935 28.1177 29.0818C28.5093 29.5074 28.8996 29.933 29.2973 30.3538C30.7675 31.9067 32.2414 33.456 33.7117 35.0089C34.5532 35.8979 35.3959 36.788 36.2277 37.6855C36.584 38.0698 36.9136 38.4808 37.2602 38.8748C37.4997 39.1484 37.7539 39.4087 37.9862 39.6872C38.1005 39.8234 38.199 39.9802 38.2719 40.1432C38.4373 40.5117 38.5419 40.8899 38.5431 41.3082C38.5443 42.1023 38.5127 42.8915 38.4203 43.6795C38.3656 44.1477 38.3169 44.6171 38.233 45.0805C38.0044 46.3379 37.4061 47.3934 36.449 48.241C36.3007 48.3724 36.1341 48.4891 35.9602 48.5828C35.4446 48.8637 34.9314 49.1555 34.3951 49.3915C34.1275 49.5094 33.8126 49.535 33.5159 49.5702C33.3225 49.5933 33.1206 49.5739 32.9248 49.552C32.5649 49.5118 32.2037 49.4705 31.8474 49.4048C31.3816 49.3185 30.9268 49.1701 30.545 48.8892C30.2507 48.674 30.0087 48.3894 29.7375 48.1401C28.0678 46.603 26.414 45.0488 24.9048 43.3512C24.3783 42.759 23.8711 42.1497 23.3227 41.5806C21.7272 39.9267 20.0661 38.3349 18.535 36.619C17.7494 35.7386 16.9626 34.8557 16.2828 33.8865C16.2269 33.8074 16.1685 33.7284 16.1041 33.6566C15.7879 33.3052 15.6724 32.8796 15.6395 32.4211C15.597 31.8216 15.5532 31.2208 15.5106 30.6213C15.524 30.6213 15.5374 30.6213 15.5495 30.6201H15.5508ZM34.5982 36.315C34.5544 36.2639 34.524 36.2262 34.4912 36.1922C34.1227 35.8054 33.7493 35.4212 33.3845 35.0308C32.6208 34.2148 31.8717 33.3842 31.0971 32.5792C30.1583 31.6027 29.1878 30.6566 28.2515 29.6776C27.3528 28.7376 26.4821 27.7684 25.5931 26.8186C25.1128 26.3055 24.6276 25.7947 24.1265 25.2998C23.6486 24.8267 23.1427 24.3853 22.4714 24.2016C22.2878 24.1518 22.0993 24.1092 21.9096 24.091C21.7175 24.0727 21.5205 24.0934 21.3271 24.0861C20.5196 24.0594 19.7705 24.2904 19.0482 24.6151C18.4244 24.8948 17.8783 25.3046 17.3433 25.7266C17.0575 25.9516 16.8155 26.213 16.6294 26.5268C16.0372 27.5215 15.8158 28.6172 15.8365 29.753C15.8535 30.7125 15.9557 31.6708 16.0299 32.629C16.0506 32.8942 16.1004 33.1629 16.2682 33.383C17.1183 34.4896 18.0303 35.5452 18.9752 36.5704C19.7268 37.3851 20.4965 38.1829 21.27 38.9758C22.21 39.9389 23.1816 40.8716 24.1071 41.8481C24.996 42.7857 25.8436 43.7622 26.7083 44.7229C26.7435 44.7619 26.7642 44.8129 26.7909 44.8591C26.9065 44.5758 26.8773 44.2961 27.0573 44.0772C27.0901 44.121 27.1157 44.166 27.112 44.2073C27.0938 44.4286 27.0877 44.6536 27.0403 44.8689C27.0013 45.044 27.0731 45.1279 27.2251 45.2191C27.2251 45.1461 27.2214 45.0951 27.2251 45.044C27.264 44.6135 27.2725 44.1781 27.3504 43.7549C27.5924 42.4355 27.9937 41.1635 28.564 39.9486C28.7999 39.4476 29.0675 38.9599 29.4821 38.5757C29.7412 38.3361 30.0136 38.1172 30.337 37.9664C30.286 38.0333 30.23 38.0929 30.1656 38.144C29.4821 38.6985 29.0455 39.4294 28.6965 40.2174C28.2551 41.2146 27.8988 42.2409 27.6653 43.3074C27.5242 43.9544 27.3966 44.6013 27.399 45.2665C27.399 45.3431 27.4391 45.4368 27.4914 45.4915C27.8672 45.8782 28.2539 46.254 28.6321 46.6383C29.003 47.0152 29.3544 47.4141 29.7424 47.7741C30.0865 48.0939 30.4684 48.3748 30.8344 48.6691C30.8794 48.7044 30.9341 48.7299 30.9864 48.7518C31.6139 49.0133 32.273 49.1422 32.9382 49.2686C33.5475 49.3842 34.102 49.2771 34.6468 49.0181C34.8523 48.9208 35.059 48.8272 35.267 48.7348C35.346 48.6995 35.4385 48.6861 35.5078 48.6387C36.2374 48.1486 36.8734 47.571 37.3051 46.7866C37.5228 46.3914 37.6748 45.9755 37.8037 45.5487C38.0068 44.8749 38.0701 44.1769 38.1747 43.4862C38.2975 42.6714 38.2999 41.8493 38.2841 41.0285C38.2756 40.6077 38.1102 40.2162 37.8536 39.8902C37.5848 39.5485 37.265 39.2469 36.9732 38.9222C36.4077 38.2935 35.8471 37.66 35.2804 37.0337C35.2184 36.9656 35.1284 36.9011 35.0408 36.8829C34.6857 36.8099 34.3282 36.7284 33.9682 36.7017C33.3566 36.6579 32.7595 36.7771 32.1697 36.9376C32.0967 36.9571 32.0201 36.9631 31.9459 36.9753C31.9423 36.9498 31.9386 36.9255 31.9362 36.8999C32.8482 36.4731 33.8138 36.4342 34.8049 36.5472C34.7611 36.5108 34.7149 36.4864 34.6675 36.4791C34.5082 36.4585 34.3489 36.4463 34.1896 36.4269C34.1482 36.422 34.1081 36.4038 34.0278 36.3794C34.2285 36.2444 34.406 36.3527 34.5945 36.3125L34.5982 36.315Z" fill="#F7F8C5"/>
<path d="M37.1537 40.6784C37.1841 40.7234 37.1915 40.7404 37.2048 40.7526C37.6049 41.1211 37.7399 41.6148 37.8092 42.1231C37.971 43.3149 37.8116 44.4701 37.3106 45.5646C37.1769 45.8565 36.9653 46.1118 36.7877 46.383C36.7755 46.4013 36.7537 46.4122 36.7123 46.4463C36.7196 46.394 36.7184 46.3684 36.7269 46.3478C36.9203 45.8613 37.1391 45.3834 37.3045 44.8873C37.5611 44.115 37.6463 43.3136 37.594 42.5013C37.5538 41.8762 37.3872 41.2937 36.9409 40.828C36.7269 40.6042 36.4813 40.4194 36.1529 40.4157C35.7163 40.4097 35.2786 40.4133 34.8408 40.4133C34.4978 40.4133 34.1999 40.5775 33.9032 40.7112C33.4398 40.9204 32.9924 41.1673 32.5546 41.4239C32.1107 41.6841 31.8492 42.1037 31.6291 42.5585C31.3725 43.0862 31.3117 43.6566 31.2302 44.2221C31.1427 44.8325 31.0819 45.4466 31.0016 46.0571C30.97 46.2991 31.0564 46.5131 31.1245 46.7345C31.3446 47.4568 31.8237 47.9882 32.4183 48.4114C32.6737 48.5926 33.0069 48.589 33.3207 48.5391C33.4204 48.5233 33.5201 48.5051 33.621 48.4881L33.6381 48.5428C33.5979 48.5683 33.5602 48.5975 33.5177 48.6182C33.1152 48.8115 32.6956 48.7848 32.2773 48.6997C31.9891 48.6401 31.6984 48.5744 31.4236 48.4735C31.0576 48.3385 30.8168 48.0357 30.7438 47.6757C30.6684 47.2963 30.6757 46.8938 30.7 46.5034C30.7365 45.9282 30.8107 45.3542 30.8897 44.7827C30.9663 44.2257 31.0332 43.6627 31.1682 43.1191C31.3968 42.2034 31.8784 41.4445 32.743 40.9982C33.2599 40.7319 33.7949 40.4996 34.33 40.2698C34.4869 40.2029 34.6681 40.1725 34.8395 40.1652C35.4707 40.1385 36.1018 40.1506 36.7293 40.2455C36.93 40.2759 37.138 40.2953 37.3252 40.3671C37.5551 40.4547 37.7326 40.6273 37.836 40.8596C37.8469 40.8827 37.825 40.9216 37.8177 40.952C37.7776 40.9435 37.7229 40.9472 37.7022 40.9228C37.5648 40.7599 37.358 40.7733 37.1562 40.6808L37.1537 40.6784Z" fill="#F7F8C5"/>
<path d="M36.2093 47.1097C36.1485 47.2021 36.1059 47.2824 36.0488 47.3505C35.7265 47.7396 35.3556 48.0692 34.8825 48.2626C34.8011 48.2966 34.7038 48.2978 34.6138 48.3039C34.5919 48.3051 34.5591 48.2686 34.5493 48.2419C34.5445 48.2297 34.5761 48.1896 34.598 48.1811C35.2048 47.9512 35.6645 47.5086 36.1533 47.1085C36.1558 47.1061 36.1631 47.1085 36.2093 47.1085V47.1097Z" fill="#F7F8C5"/>
<path d="M15.4242 14.8366L13.7412 10.4299L14.3085 10.2184L15.1514 12.4323L16.3228 9.45309L17.0161 9.19082L15.8371 12.2095L18.8619 13.5334L18.1161 13.8196L15.1994 12.5373L15.9968 14.633L15.4348 14.8523L15.4242 14.8366Z" fill="#F7F8C5"/>
<path d="M20.3425 13.3007C19.8562 13.4117 19.4266 13.3353 19.0302 13.0877C18.6417 12.8348 18.3894 12.4783 18.297 12.0025C18.1967 11.5319 18.2677 11.0945 18.5128 10.7113C18.7604 10.3149 19.13 10.0651 19.6138 9.96737C20.0922 9.86175 20.5297 9.93275 20.9182 10.1857C21.3067 10.4386 21.559 10.7951 21.6514 11.271C21.7439 11.7469 21.6807 12.179 21.4278 12.5675C21.1801 12.9639 20.8184 13.2083 20.3267 13.3114L20.3425 13.3007ZM19.359 12.625C19.6128 12.7972 19.9028 12.8533 20.2314 12.7802C20.5599 12.7071 20.7906 12.5398 20.9574 12.2782C21.1111 12.014 21.1541 11.7215 21.0888 11.3876C21.0157 11.059 20.8535 10.8021 20.5997 10.6299C20.346 10.4577 20.0561 10.4016 19.7328 10.4826C19.4095 10.5635 19.1657 10.7283 19.0067 10.9846C18.8452 11.2541 18.8022 11.5466 18.8753 11.8751C18.9484 12.2037 19.1053 12.4529 19.3722 12.6276L19.359 12.625Z" fill="#F7F8C5"/>
<path d="M22.024 12.874L23.5213 9.37686L25.5339 12.6101L24.8815 12.6616L23.6154 10.5503L22.6608 12.8332L22.0293 12.8819L22.024 12.874Z" fill="#F7F8C5"/>
<path d="M25.8577 12.631L26.0688 9.31561L28.9182 9.49807L28.707 12.8135L28.1329 12.7776L28.313 9.97563L26.6118 9.86504L26.4317 12.667L25.8577 12.631Z" fill="#F7F8C5"/>
<path d="M32.0122 13.4668L32.0813 13.1452C31.7507 13.3341 31.3799 13.3785 30.966 13.2916C30.4942 13.1866 30.132 12.9387 29.8927 12.5506C29.6534 12.1625 29.5796 11.7313 29.6925 11.2541C29.7975 10.7823 30.0401 10.4122 30.4229 10.1651C30.8004 9.91002 31.2369 9.84415 31.7088 9.94916C32.1147 10.0414 32.4318 10.2395 32.6575 10.5567L32.7266 10.2351L33.2829 10.3632L32.5658 13.6081L32.0096 13.4799L32.0122 13.4668ZM31.1023 12.7643C31.3316 12.8155 31.5369 12.8143 31.7393 12.7577C31.9416 12.7012 32.1042 12.6028 32.2402 12.4651L32.5221 11.2209C32.4552 11.037 32.3489 10.8797 32.198 10.7411C32.0392 10.6079 31.8518 10.5169 31.6225 10.4656C31.3087 10.3912 31.0248 10.4457 30.7652 10.621C30.5136 10.791 30.3493 11.0395 30.2777 11.3742C30.2007 11.7011 30.2447 12.0036 30.4069 12.2605C30.5612 12.5228 30.8017 12.6925 31.1154 12.7669L31.1023 12.7643Z" fill="#F7F8C5"/>
<path d="M33.3652 13.8595L34.5465 10.7592L35.082 10.9586L34.4992 12.4863L36.4515 11.4766L37.1005 11.7253L35.1037 12.7537L36.0645 14.8879L35.3706 14.6237L34.4629 12.5681L33.9009 14.0589L33.3652 13.8595Z" fill="#F7F8C5"/>
</svg>
