<svg width="80" height="99" viewBox="0 0 80 99" fill="none" xmlns="http://www.w3.org/2000/svg">
<path d="M77.1453 58.3576C77.1453 79.5007 60.2927 96.5844 39.5727 96.5844C18.8526 96.5844 2 79.5007 2 58.3576C2 37.2145 18.8526 20.1309 39.5727 20.1309C60.2927 20.1309 77.1453 37.2145 77.1453 58.3576Z" stroke="#F7F8C5" stroke-width="4"/>
<path d="M66.0961 58.322C66.0761 71.302 56.9261 82.232 44.2061 84.442C32.9361 86.402 21.9961 80.822 16.1961 70.982C11.3861 62.812 12.2661 54.762 15.8061 46.832C19.4561 38.672 26.1761 33.862 34.9961 32.212C38.8161 31.502 42.7761 31.172 46.4761 32.442C50.7461 33.912 54.8061 35.942 58.0961 39.242C63.3661 44.532 66.0761 50.852 66.0961 58.322ZM23.0061 47.052C23.3361 47.212 23.5061 47.302 23.6861 47.372C26.4061 48.472 29.1661 49.472 31.8461 50.682C36.8761 52.952 40.6061 56.982 44.5061 60.672C47.1761 63.202 49.3561 66.272 51.5761 69.232C53.3961 71.642 54.9561 74.232 56.6661 76.802C56.8761 76.652 57.0461 76.562 57.1861 76.422C66.3061 67.352 67.6061 53.072 59.2361 42.502C59.0161 42.222 58.4261 42.032 58.0561 42.092C50.9861 43.192 43.9661 44.722 36.7261 43.812C33.7961 43.442 30.8561 43.152 27.9161 42.922C27.0161 42.852 25.7261 42.742 25.2561 43.252C24.2861 44.282 23.7561 45.722 23.0161 47.052H23.0061ZM55.5261 77.872C55.4261 77.642 55.3861 77.532 55.3261 77.432C50.3861 69.142 44.3361 61.782 37.0061 55.482C33.0261 52.062 28.4961 49.682 23.4361 48.282C22.7261 48.082 22.4161 48.182 22.2261 48.882C21.7961 50.492 21.2861 52.072 20.9261 53.692C20.8461 54.062 21.0961 54.702 21.4061 54.942C23.7061 56.652 25.9261 58.452 27.6461 60.792C29.2861 63.032 31.3461 65.062 32.5061 67.522C34.3661 71.462 35.6361 75.682 37.1461 79.782C37.5961 81.002 37.7061 82.762 38.5661 83.302C39.5161 83.892 41.1861 83.462 42.5161 83.302C47.3361 82.732 51.6461 80.912 55.5261 77.862V77.872ZM36.7761 83.312C36.1161 81.242 35.5261 79.392 34.9361 77.532C33.5161 73.102 32.1561 68.612 29.3961 64.812C27.1761 61.752 24.6961 58.852 21.6661 56.512C21.4061 56.312 21.0361 56.242 20.6061 56.082C20.5261 59.422 20.0061 62.592 20.8861 65.802C22.3561 71.172 24.3661 76.232 28.2761 80.352C28.5761 80.662 28.8761 81.022 29.2561 81.202C31.5661 82.302 33.9961 82.972 36.7761 83.312ZM57.5261 40.642C54.6361 37.292 48.9061 34.332 43.9561 33.502C39.8561 32.822 35.9261 33.092 32.3661 35.472C29.9061 37.112 27.9861 39.292 26.3261 41.532C36.7961 43.922 47.1061 42.702 57.5261 40.632V40.642ZM25.7961 79.082C25.5761 78.762 25.3661 78.452 25.1461 78.132C22.2461 73.912 20.1961 69.312 19.6161 64.212C19.3461 61.792 19.5461 59.302 19.6161 56.852C19.6461 55.902 19.5061 55.292 18.4661 55.032C17.2861 54.732 16.1361 54.272 14.9761 53.882C12.8061 61.932 16.9861 74.032 25.7961 79.082ZM19.7661 53.932C20.2961 51.892 20.7961 49.962 21.3161 47.962C19.8961 47.722 18.5361 47.482 17.0061 47.222C16.3961 48.952 15.7961 50.632 15.1961 52.312C16.8761 52.902 18.2861 53.412 19.7661 53.932ZM21.1761 41.642C20.0661 43.032 18.9861 44.392 17.8361 45.842C19.1961 46.102 20.2861 46.342 21.3861 46.482C21.6761 46.522 22.1661 46.332 22.3061 46.102C22.9361 45.072 23.4761 43.982 24.0661 42.882C23.1161 42.482 22.2561 42.112 21.1761 41.642ZM22.4461 40.622C23.0961 40.862 23.6261 41.022 24.1161 41.262C24.7361 41.562 25.1061 41.372 25.5361 40.872C27.3461 38.792 29.2061 36.752 30.8561 34.912C27.9561 36.172 24.9861 37.952 22.4461 40.622Z" fill="#F7F8C5"/>
<path d="M50.6685 9.17478L53.0588 0.210938L56.1114 6.12222L61.6997 2.52057L59.3093 11.4844L58.1788 11.1775L59.8099 5.00779L55.6753 7.7212L53.4304 3.31196L51.7829 9.48166L50.6523 9.17478H50.6685Z" fill="#F7F8C5"/>
<path d="M60.3101 11.9696L63.1689 10.3868C62.7974 10.0961 62.5551 9.74078 62.4421 9.33701C62.3452 8.93323 62.3775 8.51327 62.5713 8.09335C62.8297 7.54421 63.2012 7.17273 63.7181 7.02737C64.2349 6.86586 64.8648 6.96279 65.6077 7.30196L67.8042 8.30332L65.1232 14.1823L64.1057 13.7301L65.1232 11.5012L64.0572 11.0167L61.4085 12.5026L60.2617 11.9857L60.3101 11.9696ZM64.2995 10.0477L65.5431 10.6129L66.4153 8.69093L65.1716 8.12568C64.3802 7.77036 63.831 7.91568 63.5403 8.54557C63.2496 9.17546 63.5081 9.67617 64.2995 10.0315V10.0477Z" fill="#F7F8C5"/>
<path d="M70.8242 17.5405L69.8713 16.9591L71.2279 14.7625C70.5496 14.6333 69.9682 14.4233 69.4837 14.1165C68.8377 13.7127 68.4339 13.212 68.2724 12.6144C68.1109 12.0168 68.2401 11.3869 68.66 10.7247L69.5967 9.19043L70.5335 9.77184L69.6775 11.177C69.3868 11.6454 69.306 12.0653 69.419 12.4206C69.5321 12.776 69.7906 13.0828 70.1944 13.3251C70.695 13.632 71.228 13.8096 71.7933 13.8419L73.263 11.4516L74.1998 12.033L70.808 17.5243L70.8242 17.5405Z" fill="#F7F8C5"/>
</svg>
