<svg width="61" height="33" viewBox="0 0 61 33" fill="none" xmlns="http://www.w3.org/2000/svg">
<path d="M45.5423 10.2513C45.6003 10.1788 45.6727 10.1208 45.7162 10.0483C46.7016 8.52543 48.1071 7.48119 49.6142 6.55298C51.6139 5.34921 54.8597 5.24769 57.0622 7.04609C59.2938 8.87351 60.3517 11.2375 60.8298 13.9642C60.9892 14.9214 60.6125 15.7916 60.1922 16.6038C58.5548 19.78 56.0479 21.9555 52.5702 22.8257C50.9618 23.2318 49.2808 23.0722 47.6434 22.6951C47.2087 22.5936 46.9478 22.6516 46.658 23.0287C45.8466 24.102 44.7743 24.9286 43.673 25.6973C43.2383 26.0019 42.8325 26.3355 42.3833 26.611C41.6008 27.0751 41.311 27.8148 41.2386 28.656C41.1661 29.5407 40.6879 30.0773 39.9344 30.4399C37.8767 31.4406 35.6887 31.9192 33.4426 32.2383C30.5011 32.6589 27.5885 32.4268 24.6904 31.8467C22.7921 31.4696 20.9083 30.9765 19.0245 30.5704C18.0971 30.3674 17.6624 29.7437 17.474 28.917C17.3001 28.1484 16.8365 27.6988 16.1699 27.3652C14.8513 26.698 13.6051 25.9149 12.5473 24.8561C11.3156 23.6233 10.4462 22.1585 9.83756 20.5341C9.76511 20.3601 9.63469 20.1426 9.4753 20.07C7.66398 19.3304 6.4612 17.9381 5.51931 16.3282C4.96867 15.4 4.60648 14.3557 4.05584 13.4275C3.40377 12.3253 2.6502 11.2665 1.91118 10.2078C1.75178 9.97576 1.50551 9.80171 1.25917 9.65668C0.766494 9.35211 0.72298 9.06205 1.21566 8.77198C1.70834 8.48192 2.23002 8.23536 2.78066 8.09033C3.93991 7.77126 5.11366 7.42318 6.33087 7.64073C6.64966 7.69874 6.99743 7.85827 7.22928 8.07582C7.77992 8.62695 8.28702 9.22159 8.79419 9.81622C9.60566 10.7589 10.5766 11.4116 11.8373 11.6001C12.1126 11.6436 12.3444 11.6436 12.5618 11.3971C13.7065 10.1788 15.0396 9.16357 16.4887 8.30788C16.8075 8.11933 17.0828 7.81477 17.2712 7.4957C18.3725 5.63928 19.865 4.36298 22.0821 4.05841C23.0675 3.92789 24.0528 3.78285 25.0236 3.62332C25.1396 3.60881 25.3135 3.47829 25.3135 3.37676C25.5308 1.60736 26.7335 0.853192 28.313 0.519616C29.8055 0.215047 31.4719 0.98372 32.1675 2.27451C32.3558 2.62259 32.4573 3.02868 32.5297 3.42027C32.5877 3.72484 32.6891 3.82637 32.9934 3.84087C34.9062 3.91339 36.7465 4.34848 38.5288 5.04464C39.4852 5.42172 40.1952 6.04536 40.8618 6.82854C41.5284 7.62622 42.1949 8.48192 43.1948 8.94602C43.9773 9.30861 44.7163 9.78721 45.5278 10.2368L45.5423 10.2513ZM30.675 31.5131C31.2981 31.4696 32.2689 31.3971 33.2398 31.2956C35.7176 31.0345 38.0797 30.3819 40.3547 29.3666C40.5141 29.2941 40.688 29.0621 40.7169 28.888C40.8763 27.9018 41.0647 26.9591 41.9341 26.321C42.5862 25.8423 43.2238 25.3347 43.8614 24.8416C45.3684 23.6959 46.5856 22.318 47.2667 20.5051C47.7884 19.1273 47.8607 17.706 47.9187 16.2847C47.9912 14.3993 47.3391 12.7894 45.8466 11.6001C44.9916 10.9185 44.0787 10.3093 43.1948 9.65668C42.9194 9.45364 42.7166 9.49715 42.4123 9.64218C41.5718 10.0483 40.7314 10.5559 39.833 10.7734C36.5871 11.6001 33.2688 11.9917 29.9215 12.0497C27.1827 12.0932 24.4585 11.8902 21.7778 11.2375C19.8505 10.7589 17.8943 10.3818 16.083 9.55516C15.9816 9.51165 15.7931 9.55516 15.6917 9.64218C13.9239 10.8605 12.4168 12.3398 11.3445 14.2107C10.5186 15.661 10.1274 17.1984 10.3882 18.8808C10.736 21.1143 11.7358 22.9562 13.4167 24.4645C14.431 25.3782 15.5903 26.0744 16.7785 26.7125C17.6045 27.1476 18.1696 27.7133 18.358 28.656C18.4015 28.8735 18.6478 29.1201 18.8651 29.2071C19.5027 29.4682 20.1693 29.6567 20.8358 29.8598C23.9223 30.817 27.0668 31.4406 30.675 31.5276V31.5131ZM42.2819 9.13456C42.0501 8.91701 41.9342 8.8155 41.8182 8.71397C41.3545 8.24987 40.8184 7.82927 40.4271 7.32165C39.891 6.6255 39.2534 6.11788 38.4564 5.78431C36.6451 5.03014 34.7468 4.66755 32.8051 4.47901C32.6602 4.47901 32.4283 4.59504 32.3704 4.72557C31.6603 6.11788 30.4576 6.71252 28.9651 6.68351C27.4726 6.6545 26.2553 6.03086 25.5743 4.62404C25.4728 4.40649 25.3714 4.30497 25.1106 4.34848C24.4295 4.46451 23.7485 4.55153 23.0529 4.62404C21.1692 4.82709 19.5317 5.49424 18.3145 7.03159C17.7349 7.77125 17.1263 8.48191 16.5322 9.20708C16.6046 9.23609 16.735 9.2941 16.8799 9.33761C21.0098 10.5414 25.1976 11.2956 29.5013 11.2375C30.9213 11.223 32.3558 11.1505 33.7759 10.9765C35.7466 10.7444 37.7029 10.4254 39.6592 10.0628C40.5141 9.90324 41.3256 9.49715 42.2819 9.16357V9.13456ZM47.513 21.941C47.6724 21.999 47.8028 22.0715 47.9477 22.1005C50.8168 22.7677 53.4396 22.231 55.8016 20.4761C57.3376 19.3449 58.4389 17.851 59.3518 16.2122C59.7865 15.429 60.0763 14.6023 59.9024 13.6596C59.6126 12.1513 58.9896 10.8024 58.2216 9.49715C57.6419 8.51092 56.7434 7.78576 55.7871 7.19112C54.5119 6.40795 53.0774 6.30643 51.6428 6.64C49.6431 7.11861 48.0636 8.30788 46.6725 9.7582C46.4117 10.0193 46.1943 10.3093 46.0204 10.5124C46.8609 11.4986 47.6434 12.4123 48.4404 13.3405C48.4839 13.2245 48.5273 13.094 48.5998 12.9924C49.0925 12.2093 49.5127 11.3536 50.1358 10.6719C50.9328 9.78721 52.0196 9.2796 53.2223 9.61317C54.5844 9.99026 55.6712 10.846 56.2943 12.1512C57.497 14.6603 56.9608 16.6618 54.7293 18.5182C52.9469 19.9975 50.8313 20.6792 48.4693 20.3601C48.3679 20.3601 48.1941 20.4181 48.1506 20.4906C47.9332 20.9402 47.7449 21.4188 47.5275 21.9265L47.513 21.941ZM48.6143 19.6059C48.7157 19.6204 48.8606 19.6494 49.0055 19.6639C51.237 19.809 53.1788 19.1128 54.7148 17.503C55.6422 16.5312 56.2363 15.3855 55.9465 13.9352C55.7147 12.7169 55.1061 11.7597 54.1352 11.0055C53.4541 10.4834 52.7006 10.1643 51.8167 10.4834C51.1791 10.7154 50.585 11.02 50.2082 11.5856C49.7445 12.2963 49.3098 13.0359 48.9186 13.8046C48.7881 14.0512 48.8316 14.3993 48.8461 14.7038C48.8751 15.371 49.02 16.0526 48.991 16.7198C48.933 17.6625 48.7592 18.5907 48.6143 19.5914V19.6059ZM9.54773 18.9533C9.47528 16.4442 10.1708 14.2397 11.8083 12.3398C11.6199 12.2673 11.5184 12.2238 11.4315 12.1948C10.2143 11.9482 9.25795 11.281 8.48995 10.3238C8.06972 9.81622 7.62049 9.32311 7.20027 8.81549C6.80902 8.33689 6.34528 8.10483 5.7077 8.16285C4.38906 8.27887 3.14289 8.65596 1.92568 9.13456C1.91119 9.13456 1.89667 9.17808 1.89667 9.17808C2.37486 9.59867 2.88208 9.99026 3.3023 10.4544C4.12826 11.3681 4.57749 12.5138 5.12813 13.6016C5.67877 14.7183 6.25839 15.8206 6.93945 16.8648C7.54805 17.793 8.40299 18.4892 9.56223 18.9533H9.54773ZM28.9651 1.28829C27.8493 1.28829 27.1102 1.53484 26.5306 2.14398C25.8496 2.86915 25.7916 4.0149 26.3858 4.75457C27.4436 6.07437 29.6751 6.30643 30.9792 5.23318C32.0081 4.39199 32.0515 3.04319 31.0807 2.12948C30.3996 1.49134 29.5737 1.30279 28.9651 1.27379V1.28829Z" fill="#F7F8C5"/>
</svg>
