<svg width="53" height="61" viewBox="0 0 53 61" fill="none" xmlns="http://www.w3.org/2000/svg">
<path d="M44.071 26.0141C48.5596 36.0127 44.2209 47.684 34.403 52.0916C24.5851 56.4991 12.9804 51.9852 8.49177 41.9866C4.00314 31.988 8.34185 20.3167 18.1598 15.9092C27.9777 11.5017 39.5824 16.0156 44.071 26.0141Z" stroke="#F7F8C5"/>
<path d="M38.5027 28.4945C41.1801 34.4833 39.2237 41.4167 33.8163 45.0685C29.0258 48.305 22.8267 47.9966 18.1157 44.6602C14.2069 41.8889 12.9464 37.9951 12.9372 33.6061C12.9311 29.0883 15.0339 25.4796 18.759 22.8932C20.3733 21.7752 22.1308 20.8034 24.0997 20.6231C26.3727 20.417 28.6648 20.5126 30.8648 21.3532C34.3896 22.7014 36.9472 25.0544 38.5027 28.4945ZM16.3024 32.2173C16.4877 32.2227 16.5847 32.229 16.6822 32.2241C18.164 32.1682 19.6435 32.058 21.1297 32.0612C23.9187 32.0667 26.4726 33.1527 29.0346 34.0468C30.7893 34.6607 32.4299 35.6249 34.0662 36.5302C35.4041 37.2646 36.6595 38.1359 37.9799 38.9669C38.0457 38.8543 38.1054 38.7776 38.141 38.6841C40.4686 32.6145 38.1122 25.7613 32.0652 22.6203C31.9058 22.5367 31.5944 22.5712 31.4363 22.6755C28.4042 24.6461 25.4842 26.8045 21.9577 27.8835C20.5302 28.3194 19.1146 28.7943 17.7114 29.2967C17.282 29.4508 16.6644 29.6671 16.5533 29.9995C16.3193 30.6752 16.3729 31.4488 16.3071 32.2152L16.3024 32.2173ZM37.6757 39.6962C37.582 39.6109 37.5408 39.5684 37.4925 39.5348C33.4989 36.735 29.186 34.5938 24.5023 33.2063C21.9594 32.4532 19.3781 32.2935 16.7553 32.6954C16.3865 32.7501 16.2643 32.8604 16.3216 33.2225C16.4566 34.0538 16.5485 34.8879 16.7178 35.7093C16.7575 35.8965 17.0052 36.1398 17.1979 36.1863C18.6123 36.4986 20.0084 36.8691 21.2858 37.5919C22.5056 38.2853 23.8756 38.7949 24.9196 39.689C26.5927 41.1206 28.0518 42.8034 29.5966 44.3813C30.0566 44.8506 30.4716 45.6394 30.9799 45.7103C31.5401 45.7857 32.2211 45.2418 32.8012 44.8927C34.9055 43.6322 36.516 41.901 37.6737 39.6916L37.6757 39.6962ZM30.1567 46.0854C29.4239 45.2676 28.769 44.5368 28.1119 43.8013C26.5403 42.0527 24.9839 40.264 22.9248 39.0832C21.2678 38.1319 19.5241 37.3081 17.6427 36.8563C17.4814 36.8179 17.2963 36.8623 17.065 36.8775C17.7194 38.434 18.1358 40.0032 19.206 41.3011C20.9953 43.4728 22.9694 45.3898 25.6249 46.4801C25.8274 46.5609 26.0402 46.6648 26.2527 46.6691C27.5455 46.6982 28.8045 46.5041 30.1567 46.0854ZM30.8918 22.1166C28.8659 21.1702 25.6113 20.9915 23.1572 21.6334C21.126 22.1685 19.3699 23.1065 18.2211 24.9407C17.4264 26.206 16.9924 27.6086 16.6906 28.985C22.0127 27.9198 26.5138 25.2232 30.8897 22.112L30.8918 22.1166ZM24.2186 46.4078C24.0509 46.3058 23.8899 46.2064 23.7223 46.1044C21.5117 44.7589 19.6144 43.0623 18.2913 40.8309C17.6659 39.771 17.2427 38.5815 16.7679 37.4374C16.5851 36.9932 16.3943 36.7409 15.8609 36.8363C15.2548 36.9422 14.6293 36.9682 14.0138 37.0285C14.6795 41.1892 19.1113 45.903 24.2186 46.4078ZM16.2326 36.0601C16.0548 35.0098 15.8858 34.0164 15.7116 32.9866C15.0072 33.1699 14.3305 33.3408 13.5712 33.5376C13.648 34.4615 13.7191 35.3603 13.7902 36.2591C14.687 36.1834 15.4426 36.1266 16.2326 36.0601ZM14.3389 30.1017C14.1148 30.9723 13.8984 31.8229 13.6683 32.7295C14.3491 32.5679 14.9014 32.4529 15.4375 32.2898C15.5795 32.2482 15.7661 32.0592 15.7831 31.9241C15.8603 31.3188 15.8837 30.7045 15.928 30.0752C15.4072 30.0874 14.9341 30.0948 14.3389 30.1017ZM14.7133 29.3685C15.0627 29.3446 15.3402 29.3087 15.6158 29.3179C15.9637 29.3279 16.095 29.1637 16.1898 28.8442C16.5938 27.5105 17.0291 26.1849 17.409 24.995C16.3327 26.1763 15.3318 27.6117 14.7133 29.3685Z" fill="#F7F8C5"/>
<path d="M20.2171 11.0271L19.4638 6.39935L22.0948 8.49302L23.9259 5.67571L24.6791 10.3034L24.0944 10.3959L23.5694 7.21365L22.2247 9.32053L20.277 7.75223L20.7944 10.9379L20.2096 11.0304L20.2171 11.0271Z" fill="#F7F8C5"/>
<path d="M25.2405 10.3195L26.231 8.99795C25.9995 8.9408 25.8143 8.82713 25.6786 8.66436C25.5503 8.49825 25.4783 8.29793 25.4807 8.0642C25.4862 7.75752 25.5806 7.50934 25.7888 7.33534C25.9937 7.1539 26.3042 7.06822 26.7169 7.07082L27.9369 7.07786L27.9177 10.3434L27.3549 10.3455L27.3627 9.10726L26.7709 9.1045L25.8572 10.3379L25.2215 10.3369L25.2405 10.3195ZM26.6821 8.60756L27.3725 8.61076L27.3768 7.54408L26.6863 7.54088C26.2479 7.54086 26.0248 7.72153 26.0211 8.07213C26.0175 8.42273 26.2403 8.60009 26.6787 8.60011L26.6821 8.60756Z" fill="#F7F8C5"/>
<path d="M31.2418 10.7121L30.6822 10.6413L30.853 9.34772C30.5135 9.42855 30.202 9.45208 29.9151 9.41089C29.5336 9.35844 29.2438 9.21117 29.0457 8.96907C28.8475 8.72697 28.7767 8.4098 28.8332 8.01756L28.9475 7.11626L29.4998 7.19043L29.396 8.01546C29.3589 8.29159 29.4086 8.50195 29.5342 8.64237C29.6599 8.7828 29.8426 8.87078 30.0789 8.89891C30.3733 8.93676 30.6558 8.90834 30.9231 8.80623L31.106 7.39992L31.6582 7.47409L31.231 10.708L31.2418 10.7121Z" fill="#F7F8C5"/>
</svg>
