<svg width="47" height="56" viewBox="0 0 47 56" fill="none" xmlns="http://www.w3.org/2000/svg">
<path d="M20.8977 13.6756C31.1932 11.957 40.97 19.0494 42.7206 29.537C44.4712 40.0246 37.5279 49.9079 27.2324 51.6264C16.9369 53.345 7.16008 46.2526 5.4095 35.765C3.65892 25.2774 10.6022 15.3941 20.8977 13.6756Z" stroke="#F7F8C5"/>
<path d="M32.5713 29.5115C32.6032 29.4707 32.643 29.4381 32.667 29.3973C33.2089 28.5407 33.982 27.9533 34.8108 27.4312C35.9107 26.754 37.6959 26.6969 38.9073 27.7085C40.1346 28.7365 40.7165 30.0662 40.9795 31.6C41.0671 32.1384 40.8599 32.6279 40.6288 33.0847C39.7282 34.8714 38.3494 36.0951 36.4367 36.5846C35.552 36.813 34.6275 36.7232 33.7269 36.5111C33.4878 36.454 33.3444 36.4867 33.185 36.6988C32.7387 37.3025 32.1489 37.7675 31.5432 38.1999C31.3041 38.3712 31.0809 38.5588 30.8339 38.7138C30.4035 38.9749 30.2441 39.3909 30.2043 39.8641C30.1644 40.3618 29.9014 40.6636 29.487 40.8676C28.3552 41.4305 27.1518 41.6997 25.9165 41.8792C24.2986 42.1157 22.6967 41.9852 21.1028 41.6589C20.0587 41.4468 19.0226 41.1694 17.9865 40.941C17.4765 40.8268 17.2374 40.476 17.1338 40.011C17.0381 39.5786 16.7831 39.3257 16.4165 39.138C15.6913 38.7628 15.0059 38.3222 14.4241 37.7267C13.7466 37.0332 13.2684 36.2093 12.9337 35.2956C12.8939 35.1977 12.8221 35.0753 12.7345 35.0345C11.7382 34.6185 11.0767 33.8353 10.5587 32.9297C10.2558 32.4076 10.0566 31.8202 9.75376 31.2981C9.39512 30.6781 8.98065 30.0826 8.57419 29.487C8.48653 29.3565 8.35108 29.2586 8.21559 29.177C7.94462 29.0057 7.92069 28.8425 8.19166 28.6794C8.46263 28.5162 8.74956 28.3775 9.05241 28.2959C9.69 28.1165 10.3356 27.9207 11.005 28.043C11.1804 28.0757 11.3716 28.1654 11.4991 28.2878C11.802 28.5978 12.0809 28.9323 12.3599 29.2667C12.8062 29.797 13.3402 30.1641 14.0335 30.2702C14.185 30.2947 14.3125 30.2947 14.432 30.156C15.0616 29.4707 15.7948 28.8996 16.5918 28.4183C16.7672 28.3122 16.9186 28.1409 17.0222 27.9614C17.6279 26.9172 18.4488 26.1993 19.6682 26.028C20.2101 25.9546 20.7521 25.873 21.286 25.7832C21.3498 25.7751 21.4455 25.7017 21.4455 25.6445C21.565 24.6493 22.2265 24.225 23.0952 24.0374C23.9161 23.8661 24.8326 24.2985 25.2152 25.0245C25.3188 25.2203 25.3746 25.4488 25.4144 25.669C25.4463 25.8403 25.5021 25.8974 25.6694 25.9056C26.7215 25.9464 27.7336 26.1911 28.7139 26.5827C29.2399 26.7948 29.6304 27.1456 29.997 27.5862C30.3637 28.0349 30.7303 28.5162 31.2802 28.7773C31.7105 28.9812 32.117 29.2504 32.5633 29.5033L32.5713 29.5115ZM24.3943 41.4713C24.737 41.4468 25.2709 41.406 25.8049 41.3489C27.1678 41.202 28.4669 40.8349 29.7181 40.2639C29.8058 40.2231 29.9014 40.0925 29.9174 39.9946C30.005 39.4399 30.1086 38.9096 30.5868 38.5507C30.9454 38.2814 31.2961 37.9959 31.6468 37.7185C32.4757 37.074 33.1451 36.299 33.5197 35.2793C33.8066 34.5042 33.8465 33.7047 33.8783 32.9053C33.9182 31.8447 33.5595 30.9391 32.7387 30.2702C32.2684 29.8868 31.7663 29.5441 31.2802 29.177C31.1287 29.0628 31.0172 29.0873 30.8498 29.1688C30.3876 29.3973 29.9253 29.6828 29.4312 29.8052C27.646 30.2702 25.8209 30.4905 23.9798 30.5231C22.4736 30.5476 20.9752 30.4333 19.5008 30.0662C18.4408 29.797 17.3649 29.5849 16.3687 29.1199C16.3129 29.0954 16.2093 29.1199 16.1535 29.1688C15.1812 29.8541 14.3523 30.6862 13.7625 31.7386C13.3083 32.5545 13.0931 33.4192 13.2366 34.3656C13.4278 35.6219 13.9777 36.658 14.9022 37.5064C15.4601 38.0204 16.0977 38.412 16.7512 38.7709C17.2055 39.0157 17.5163 39.3338 17.62 39.8641C17.6439 39.9865 17.7793 40.1252 17.8989 40.1741C18.2495 40.321 18.6161 40.427 18.9828 40.5412C20.6803 41.0797 22.4098 41.4305 24.3943 41.4794V41.4713ZM30.7781 28.8833C30.6506 28.7609 30.5868 28.7038 30.5231 28.6467C30.268 28.3857 29.9731 28.1491 29.758 27.8635C29.4631 27.472 29.1124 27.1864 28.6741 26.9988C27.6778 26.5746 26.6338 26.3706 25.5658 26.2646C25.4861 26.2646 25.3586 26.3298 25.3267 26.4033C24.9362 27.1864 24.2747 27.5209 23.4539 27.5046C22.633 27.4883 21.9635 27.1375 21.5889 26.3461C21.5331 26.2238 21.4773 26.1667 21.3339 26.1911C20.9593 26.2564 20.5847 26.3054 20.2022 26.3461C19.1661 26.4604 18.2655 26.8356 17.596 27.7004C17.2772 28.1164 16.9425 28.5162 16.6158 28.9241C16.6556 28.9404 16.7273 28.973 16.807 28.9975C19.0784 29.6746 21.3817 30.0989 23.7487 30.0662C24.5298 30.0581 25.3188 30.0173 26.0998 29.9194C27.1837 29.7889 28.2597 29.6094 29.3356 29.4054C29.8058 29.3157 30.2521 29.0873 30.7781 28.8996V28.8833ZM33.6552 36.0869C33.7429 36.1195 33.8146 36.1603 33.8943 36.1766C35.4723 36.5519 36.9148 36.2501 38.2139 35.2629C39.0587 34.6266 39.6644 33.7863 40.1665 32.8645C40.4056 32.4239 40.565 31.9589 40.4694 31.4286C40.31 30.5802 39.9673 29.8215 39.5449 29.0873C39.2261 28.5325 38.7319 28.1246 38.2059 27.7901C37.5046 27.3496 36.7156 27.2925 35.9266 27.4801C34.8267 27.7493 33.958 28.4183 33.1929 29.2341C33.0495 29.381 32.9299 29.5441 32.8343 29.6583C33.2965 30.2131 33.7269 30.727 34.1653 31.2492C34.1892 31.1839 34.2131 31.1105 34.2529 31.0534C34.5239 30.6128 34.755 30.1315 35.0977 29.7481C35.5361 29.2504 36.1338 28.9649 36.7953 29.1525C37.5445 29.3646 38.1422 29.846 38.4849 30.5802C39.1464 31.9915 38.8515 33.1174 37.6242 34.1616C36.6439 34.9937 35.4803 35.3772 34.1812 35.1977C34.1254 35.1977 34.0298 35.2303 34.0059 35.2711C33.8863 35.524 33.7827 35.7932 33.6632 36.0787L33.6552 36.0869ZM34.2609 34.7735C34.3167 34.7816 34.3964 34.7979 34.4761 34.8061C35.7034 34.8877 36.7714 34.4961 37.6162 33.5905C38.1262 33.0439 38.453 32.3995 38.2936 31.5836C38.1661 30.8984 37.8314 30.3599 37.2974 29.9357C36.9228 29.642 36.5084 29.4625 36.0222 29.642C35.6715 29.7725 35.3448 29.9439 35.1376 30.262C34.8825 30.6618 34.6434 31.0778 34.4283 31.5102C34.3565 31.6489 34.3804 31.8447 34.3884 32.016C34.4044 32.3913 34.484 32.7747 34.4681 33.15C34.4362 33.6803 34.3406 34.2024 34.2609 34.7653V34.7735ZM12.7743 34.4063C12.7344 32.995 13.117 31.755 14.0176 30.6863C13.914 30.6455 13.8582 30.621 13.8104 30.6047C13.1409 30.466 12.6149 30.0907 12.1925 29.5523C11.9614 29.2667 11.7143 28.9894 11.4832 28.7038C11.268 28.4346 11.013 28.3041 10.6623 28.3367C9.93703 28.402 9.25164 28.6141 8.58217 28.8833C8.5742 28.8833 8.56622 28.9078 8.56622 28.9078C8.82922 29.1444 9.10819 29.3646 9.33931 29.6257C9.79359 30.1397 10.0407 30.7841 10.3435 31.396C10.6464 32.0242 10.9652 32.6442 11.3397 33.2316C11.6745 33.7537 12.1447 34.1453 12.7823 34.4063H12.7743ZM23.4539 24.4698C22.8402 24.4698 22.4337 24.6085 22.1149 24.9511C21.7403 25.359 21.7084 26.0035 22.0352 26.4196C22.617 27.162 23.8443 27.2925 24.5616 26.6888C25.1275 26.2156 25.1514 25.4569 24.6174 24.943C24.2428 24.584 23.7886 24.4779 23.4539 24.4616V24.4698Z" fill="#F7F8C5"/>
<path d="M17.5569 8.4935L17.0044 8.72889L16.2131 6.84713C15.8681 7.1815 15.4642 7.44933 15 7.64136C14.5357 7.83338 14.1333 7.88149 13.7897 7.76705C13.4477 7.6619 13.1721 7.38339 12.9941 6.94546L12.4134 5.58211L12.9658 5.34677L13.4877 6.58625C13.6301 6.92514 13.8159 7.12322 14.045 7.18043C14.274 7.23763 14.5449 7.20193 14.8559 7.06412C15.2923 6.87675 15.6698 6.62286 15.9793 6.30398L15.1756 4.40523L15.728 4.16989L17.5445 8.47646L17.5569 8.4935Z" fill="#F7F8C5"/>
<path d="M20.8498 7.63916L20.7677 7.31884C20.5526 7.63151 20.2432 7.83586 19.8392 7.93191C19.3719 8.0481 18.9401 7.97702 18.5562 7.73569C18.1723 7.49435 17.9216 7.13536 17.8054 6.668C17.6892 6.20064 17.751 5.77038 17.9908 5.37723C18.2213 4.98562 18.5802 4.73483 19.0476 4.61864C19.4515 4.52259 19.8214 4.56579 20.1573 4.74833L20.0845 4.42646L20.6354 4.29635L21.3992 7.49974L20.8482 7.62986L20.8498 7.63916ZM19.7339 7.41503C19.9536 7.35926 20.1486 7.26944 20.2972 7.13011C20.4457 6.99079 20.554 6.8391 20.6189 6.65646L20.3277 5.4262C20.1915 5.29623 20.0227 5.20031 19.8231 5.14774C19.6234 5.09517 19.4145 5.10137 19.1932 5.14785C18.8806 5.21912 18.6516 5.39099 18.4954 5.65568C18.3484 5.91881 18.3113 6.2113 18.3857 6.54248C18.4678 6.86282 18.6335 7.11199 18.8811 7.28062C19.1381 7.4477 19.4228 7.49558 19.7339 7.41503Z" fill="#F7F8C5"/>
<path d="M22.1999 7.43102L21.9298 4.09745L22.4853 4.05248L22.6608 6.24694L24.8594 3.80889L25.1295 7.1424L24.5739 7.18743L24.4046 5.0301L22.2107 7.43877L22.1999 7.43102ZM23.9506 2.53852L24.4025 2.50124C24.4196 2.83243 24.3392 3.09403 24.1705 3.28443C24.0019 3.47483 23.7527 3.58319 23.4417 3.60648C23.1306 3.62977 22.8721 3.56795 22.6724 3.40086C22.4728 3.23376 22.3566 2.99544 22.321 2.66735L22.7636 2.63168C22.7899 2.84679 22.855 3.00771 22.968 3.11292C23.081 3.21813 23.2311 3.25986 23.4106 3.24898C23.5902 3.2381 23.7217 3.16847 23.8161 3.04773C23.9104 2.92699 23.9584 2.75673 23.9506 2.53852Z" fill="#F7F8C5"/>
<path d="M25.9685 7.1366L26.2029 3.8525L26.7632 3.89256L26.6644 5.24523L28.4412 5.36861L28.5399 4.01593L29.1001 4.05605L28.8657 7.3402L28.3054 7.30009L28.4026 5.88086L26.6259 5.75748L26.5287 7.17671L25.9685 7.1366Z" fill="#F7F8C5"/>
<path d="M29.669 7.52104L30.4126 4.25692L30.959 4.38522L30.4673 6.52885L33.2914 4.86445L32.5477 8.12857L32.0014 8.00027L32.4884 5.88607L29.669 7.52104Z" fill="#F7F8C5"/>
<path d="M33.3249 8.38103L34.5003 5.30249L35.0297 5.50044L34.4435 7.02035L36.3855 6.01859L37.0279 6.2645L35.0487 7.27246L35.9948 9.39559L35.3014 9.1296L34.4079 7.09311L33.8434 8.57124L33.3141 8.37329L33.3249 8.38103Z" fill="#F7F8C5"/>
</svg>
