<svg width="42" height="60" viewBox="0 0 42 60" fill="none" xmlns="http://www.w3.org/2000/svg">
<path d="M20.5555 21.0998C31.079 20.7766 39.8536 28.9052 40.1709 39.2378C40.4882 49.5703 32.229 58.222 21.7055 58.5452C11.182 58.8683 2.40742 50.7398 2.0901 40.4072C1.77279 30.0747 10.032 21.423 20.5555 21.0998Z" stroke="#F7F8C5"/>
<path d="M16.0358 28.1303C15.9628 28.5401 15.8847 28.8974 15.8399 29.2585C15.7874 29.6785 15.7631 30.1037 15.7285 30.5263C15.6491 31.4995 15.571 32.474 15.4916 33.4472C15.457 33.8724 15.4173 34.2963 15.3827 34.7214C15.3405 35.2503 15.3072 35.7817 15.2611 36.3106C15.2342 36.6205 15.238 36.9458 15.1407 37.2339C14.9691 37.7423 15.0677 38.2596 15.0075 38.7693C15.005 38.7885 15.0075 38.8129 15.0165 38.8295C15.1433 39.0485 15.2585 39.2739 15.4045 39.48C15.4967 39.6119 15.6286 39.7182 15.7503 39.8271C16.6044 40.5864 17.3792 41.4239 18.1232 42.2896C18.6264 42.8748 19.1297 43.4601 19.6317 44.0466C19.9544 44.423 20.2733 44.8034 20.5947 45.1799C20.7087 45.313 20.8201 45.4513 20.9468 45.573C21.1479 45.7676 21.3707 45.9405 21.5666 46.1403C21.7741 46.3516 21.9636 46.5808 22.157 46.8049C23.0508 47.8409 24.0087 48.8141 25.0127 49.7413C25.1868 49.9026 25.3955 50.0294 25.5953 50.1587C25.717 50.2381 25.8604 50.233 25.9705 50.1421C26.1204 50.0191 26.3188 49.918 26.2894 49.6683C26.2868 49.6439 26.3009 49.6183 26.306 49.594C26.3739 49.2687 26.4507 48.9447 26.5084 48.6182C26.5967 48.1098 26.6748 47.5989 26.7529 47.0879C26.8131 46.6948 26.8836 46.3004 26.9169 45.9047C26.9386 45.6434 26.9373 45.386 27.0744 45.1504C27.0961 45.1133 27.0961 45.062 27.1038 45.0172C27.2421 44.2117 27.374 43.4037 27.5213 42.5995C27.6711 41.7838 27.853 40.9745 27.8453 40.1382C27.8453 40.0793 27.8683 40.0192 27.8837 39.9602C27.9439 39.7374 27.981 39.5287 27.762 39.3494C27.5405 39.1688 27.3356 38.9678 27.132 38.7668C26.283 37.9305 25.4404 37.0866 24.5875 36.2543C23.7679 35.4539 22.9381 34.6638 22.1173 33.8647C22.0238 33.7738 21.9508 33.6598 21.8727 33.5523C21.8266 33.4869 21.8035 33.3999 21.7472 33.3474C20.7458 32.4177 19.7418 31.4918 18.7379 30.5647C17.9119 29.8015 17.0859 29.0357 16.2587 28.2725C16.2074 28.2251 16.1396 28.1931 16.0371 28.1265L16.0358 28.1303Z" stroke="#F7F8C5" stroke-width="0.5" stroke-miterlimit="10"/>
<path d="M31.3246 41.3854C31.3822 42.219 31.1722 43.0027 30.9853 43.789C30.5806 45.4819 30.2669 47.1928 30.0364 48.9164C29.9045 49.9025 29.6996 50.8719 29.5139 51.8464C29.4294 52.2882 29.3769 52.7402 29.2386 53.1654C29.0388 53.7826 28.7302 54.0067 28.0489 54.0976C27.9273 54.1143 27.8043 54.1168 27.6827 54.122C27.3766 54.136 27.1384 53.9926 26.9105 53.8069C26.7453 53.6725 26.5673 53.5508 26.3855 53.4381C26.1063 53.264 25.8604 53.0616 25.6389 52.8119C25.2406 52.3599 24.8103 51.9347 24.3826 51.5109C23.3364 50.4723 22.2799 49.4453 21.2363 48.4055C20.765 47.9368 20.3002 47.4604 19.8558 46.9674C19.4281 46.4923 19.0401 45.9826 18.62 45.4999C17.6225 44.3538 16.6211 43.2102 15.6081 42.0756C15.361 41.799 15.0421 41.5839 14.7988 41.3034C14.3737 40.813 13.9793 40.2956 13.5759 39.7859C13.4337 39.6067 13.3953 39.3903 13.3735 39.1687C13.3428 38.8588 13.3966 38.5617 13.4734 38.2633C13.5182 38.093 13.5413 37.9125 13.5426 37.7358C13.5528 36.5102 13.7347 35.3001 13.8806 34.0874C13.9959 33.1167 14.0945 32.1448 14.1829 31.1715C14.2776 30.1215 14.3621 29.0714 14.4313 28.02C14.4582 27.6179 14.4006 27.2094 14.4428 26.8099C14.4774 26.4885 14.6516 26.2055 14.9602 26.0505C15.3802 25.8405 15.8323 25.7778 16.2997 25.7701C16.566 25.7662 16.7171 25.9532 16.9015 26.0838C17.0142 26.1619 17.1077 26.2682 17.2076 26.363C18.8032 27.8728 20.3143 29.4658 21.8445 31.0409C23.5387 32.7851 25.2765 34.4844 27.0014 36.1991C27.8978 37.0903 28.8185 37.9573 29.706 38.8588C30.1708 39.3313 30.6011 39.8423 31.0211 40.3558C31.2619 40.6491 31.4002 40.9999 31.3259 41.3854H31.3246Z" stroke="#F7F8C5" stroke-width="0.5" stroke-miterlimit="10"/>
<path d="M11.2224 17.6098L9.55215 13.8235L8.33396 14.3599L8.09796 13.8272L11.1033 12.5036L11.3393 13.0363L10.1135 13.5783L11.7781 17.357L11.2245 17.5966L11.2224 17.6098Z" fill="#F7F8C5"/>
<path d="M14.4175 16.4652C13.9544 16.6034 13.5182 16.5692 13.1055 16.3417C12.6927 16.1142 12.4256 15.7803 12.2874 15.3172C12.1492 14.8541 12.1834 14.4179 12.4033 14.0108C12.6175 13.596 12.9513 13.3289 13.3935 13.1942C13.8434 13.0539 14.2642 13.0993 14.6484 13.3359C15.027 13.5649 15.3123 13.9559 15.4855 14.4992L12.9049 15.2779C13.0226 15.568 13.2078 15.7735 13.4683 15.8889C13.7288 16.0044 13.9961 16.0325 14.2743 15.947C14.6384 15.834 14.9109 15.6117 15.0841 15.2856L15.5437 15.5612C15.3253 16.0025 14.9455 16.3032 14.4175 16.4652ZM13.5102 13.7083C13.2968 13.77 13.1128 13.9043 12.9679 14.0922C12.8231 14.2802 12.7593 14.5147 12.7897 14.798L14.7224 14.2102C14.604 13.9675 14.4391 13.8059 14.2219 13.7176C14.0048 13.6293 13.7675 13.6262 13.5234 13.7103L13.5102 13.7083Z" fill="#F7F8C5"/>
<path d="M15.9312 15.9476L17.1403 12.3395L19.4068 15.3971L18.7656 15.5007L17.3341 13.4906L16.5723 15.844L15.9389 15.942L15.9312 15.9476Z" fill="#F7F8C5"/>
<path d="M21.1332 15.4298C20.6489 15.4424 20.2391 15.2833 19.9092 14.96C19.5793 14.6368 19.4043 14.2358 19.3916 13.7516C19.379 13.2673 19.5381 12.8575 19.8481 12.5255C20.1658 12.188 20.5535 12.0108 21.0224 12.0094C21.499 12.0023 21.8823 12.1573 22.1912 12.4841C22.5002 12.8109 22.6614 13.2572 22.6804 13.8308L19.9822 13.8846C20.0161 14.1888 20.1401 14.4391 20.3616 14.6299C20.5775 14.8131 20.8344 14.9076 21.1212 14.8981C21.5029 14.8898 21.8236 14.7497 22.0835 14.4779L22.4504 14.8681C22.1154 15.23 21.6837 15.4275 21.1255 15.4354L21.1332 15.4298ZM21.0023 12.5293C20.7783 12.5282 20.5684 12.6109 20.3767 12.7508C20.185 12.8906 20.0626 13.1092 20.0135 13.3801L22.03 13.342C21.9898 13.0776 21.8653 12.8747 21.6774 12.7299C21.4894 12.585 21.2681 12.5233 21.0023 12.5293Z" fill="#F7F8C5"/>
<path d="M25.2404 16.8862L24.6834 16.7991L24.8504 15.6433C24.2822 15.541 23.8562 15.3114 23.5744 14.9413C23.3059 14.5733 23.188 14.1541 23.2626 13.6767C23.3372 13.1993 23.5529 12.8186 23.9286 12.5445C24.3042 12.2704 24.7744 12.174 25.3467 12.2499L25.5407 10.9217L26.0977 11.0087L25.9037 12.3369C26.4739 12.426 26.9055 12.6633 27.1741 13.0313C27.4482 13.407 27.5528 13.8241 27.4859 14.2959C27.4113 14.7733 27.19 15.1463 26.822 15.4148C26.454 15.6833 25.9762 15.7853 25.4018 15.7227L25.2348 16.8785L25.2404 16.8862ZM24.2893 12.9745C24.0363 13.1591 23.8923 13.4287 23.8405 13.7602C23.7887 14.0917 23.8645 14.3889 24.0491 14.6419C24.2338 14.8949 24.5278 15.0563 24.9312 15.1261L25.2812 12.7559C24.8813 12.707 24.5444 12.7766 24.297 12.9689L24.2893 12.9745ZM25.8305 12.8485L25.4805 15.2188C25.8804 15.2677 26.2174 15.198 26.4648 15.0058C26.7178 14.8211 26.8618 14.5516 26.9136 14.22C26.9654 13.8885 26.8896 13.5914 26.705 13.3384C26.5203 13.0854 26.2263 12.9239 25.8229 12.8541L25.8305 12.8485Z" fill="#F7F8C5"/>
<path d="M29.2164 16.6518C28.7438 16.5032 28.4021 16.2121 28.1949 15.7994C27.9877 15.3866 27.9612 14.9477 28.1077 14.4883C28.2542 14.029 28.5376 13.6929 28.9504 13.4857C29.3632 13.2785 29.8097 13.2464 30.2747 13.4005C30.7396 13.5547 31.0757 13.8382 31.2885 14.2586C31.4957 14.6713 31.5222 15.1102 31.3757 15.5696C31.2292 16.029 30.9458 16.3651 30.533 16.5723C30.1202 16.7795 29.6737 16.8116 29.2087 16.6574L29.2164 16.6518ZM28.7067 15.5669C28.8397 15.8458 29.0612 16.0366 29.3845 16.1415C29.6944 16.2442 29.9966 16.2235 30.2643 16.0752C30.532 15.9268 30.7249 15.692 30.8221 15.3744C30.9269 15.0512 30.9118 14.7567 30.7865 14.4722C30.6534 14.1933 30.4396 13.9969 30.1219 13.8997C29.812 13.7969 29.5099 13.8176 29.2421 13.966C28.9744 14.1143 28.7815 14.3491 28.6787 14.6591C28.5739 14.9823 28.589 15.2768 28.722 15.5557L28.7067 15.5669Z" fill="#F7F8C5"/>
<path d="M31.4237 17.3906L32.9318 14.4337L33.4353 14.689L32.81 15.909L34.4148 16.7236L35.0402 15.5036L35.5437 15.7588L34.0356 18.7157L33.5321 18.4604L34.1867 17.1838L32.5951 16.3713L31.9405 17.6479L31.437 17.3926L31.4237 17.3906Z" fill="#F7F8C5"/>
</svg>
