<svg width="263" height="88" viewBox="0 0 263 88" fill="none" xmlns="http://www.w3.org/2000/svg">
<path d="M4.8024 56.097C4.56972 56.5138 4.37808 56.234 4.06818 56.3826C3.9684 56.4625 4.12151 56.5752 3.92672 56.6613C4.96869 57.5927 5.92703 58.9258 6.83372 60.2308C7.47125 61.1195 8.04206 61.9586 9.00895 62.5889C9.12204 63.0651 9.64029 63.3825 9.98364 63.6063C10.1596 63.3668 9.88321 63.1885 9.83638 62.9592C9.83232 62.8315 9.98433 62.6439 9.96521 62.4946C9.96142 62.3627 9.86376 62.4098 9.84704 62.2237C9.80881 61.925 9.68446 61.5591 9.61441 61.1803C9.52286 60.689 9.60482 60.1226 9.47808 59.7935C9.36878 59.4491 9.05202 59.1325 8.94033 58.8249C8.88462 58.6691 8.9629 58.4768 8.90958 58.2841C8.85387 58.1283 8.68783 57.9613 8.64717 57.827C8.58092 57.58 8.66834 57.3101 8.62124 57.0849C8.56386 56.7645 8.46002 56.7166 8.46105 56.3835C8.46825 56.1454 8.55162 55.7477 8.38827 55.4122L8.55295 55.283C8.49865 53.9633 8.64969 52.6486 9.45183 51.442C9.9192 51.4023 10.364 51.7109 10.7621 52.2961C10.9244 52.9647 10.2411 53.6073 9.5318 53.5079C8.43272 55.6783 9.36193 58.0954 10.449 60.5516C10.7934 60.4423 11.1477 59.9264 11.611 59.759C13.2727 59.6323 14.642 60.2722 16.19 61.9644C16.5843 62.4177 17.1736 62.9084 17.6805 63.3361C18.0519 63.6358 18.5069 64.0396 18.8415 64.2093C19.5193 64.6029 20.2538 64.3132 20.8886 64.6094C21.2483 64.39 21.5685 64.3367 21.8664 64.6275C21.8185 64.7314 21.6754 64.8455 21.7526 64.9862C21.1639 65.1208 20.8107 65.3036 20.2634 65.3709L20.0037 65.3788C19.6833 65.4362 19.2272 65.3655 18.7892 65.6497C18.6105 65.4242 18.4042 65.6247 18.1903 65.5615C17.7581 65.4389 17.5046 64.9083 17.0475 65.0432C16.6557 64.4255 15.8268 63.8864 15.2262 63.6336C14.297 62.6767 12.8884 62.0712 11.6684 62.0456C11.4733 62.1358 11.5899 62.242 11.4317 62.3346C11.2277 62.4983 11.0617 62.3312 10.9021 62.255C10.7798 62.6831 10.9103 63.144 11.0818 63.6076C10.4439 64.1832 11.283 64.9451 11.8282 65.6715C11.8586 65.5829 11.7749 65.4788 11.9154 65.4056C12.1146 66.0767 13.0684 66.0192 13.2983 66.5976C13.0592 66.9235 12.9068 66.6093 12.6967 66.6779C12.9123 66.9058 12.996 67.1374 13.2874 67.3373C13.6499 67.5829 13.4712 67.3574 13.7489 67.832C13.9986 68.2307 14.1558 68.4713 14.274 68.7422C14.933 68.9823 15.4069 68.2068 15.9351 68.1177C16.0707 68.2458 15.9302 68.3189 16.1025 68.4535C15.9672 68.8273 15.7165 68.7616 15.452 68.9707C15.2282 69.3141 15.2559 69.394 14.8117 69.7107C14.8308 69.86 15.0095 70.0855 15.234 70.2399C15.333 70.3615 15.3125 70.0435 15.5203 70.0117C15.4936 70.2321 15.5991 70.4446 15.4512 70.6324C15.1878 70.5084 14.9897 70.1377 14.744 69.8668C14.1226 70.7602 13.2111 70.989 12.6289 71.848C12.7704 71.5692 12.6388 71.4414 12.5182 71.2073C12.946 70.7004 12.9877 70.5015 13.3802 70.1568C12.8352 69.4263 12.0464 68.5237 11.2354 67.7102C11.1404 67.5889 10.9375 67.5469 10.8425 67.4256C10.7475 67.3043 10.7548 67.0662 10.656 66.9405C10.2275 66.3163 9.68874 65.6809 9.24228 65.2077C9.16264 65.1038 8.9939 65.1052 8.914 65.0054C8.6465 64.7536 8.52454 64.3508 8.27886 64.0799C8.10015 63.8544 7.78453 63.7106 7.48932 63.3788C6.52968 62.3829 5.489 61.1144 4.46857 60.168C4.30014 60.0378 4.3367 60.1718 4.19767 60.2862C4.16149 59.3214 3.06274 58.6948 2.52879 57.8581C2.20187 57.9521 2.09521 58.8995 1.53869 58.411C1.46083 57.645 2.79769 56.946 3.0556 56.1401C3.49497 56.0246 3.76209 55.7745 4.17856 55.3779C4.4382 55.37 4.89327 55.7738 4.81878 56.0981L4.8024 56.097ZM3.48844 57.0772C3.55542 57.1226 3.5875 57.1987 3.6483 57.1492C3.46314 56.8328 3.12522 57.033 2.98588 57.279C3.22944 57.5827 3.2544 57.1977 3.48844 57.0772ZM3.78153 57.4417C3.88916 57.6214 4.09206 57.7908 4.05687 57.9531C4.31033 57.8502 3.87919 57.3945 3.78153 57.4417ZM9.67992 63.8499C9.81797 63.9411 9.88419 64.3156 10.0752 64.0976C9.93475 64.0433 9.82924 63.8308 9.67992 63.8499Z" fill="#F7F8C5"/>
<path d="M17.0673 45.2523C17.6694 44.6579 19.2002 43.2517 20.2286 43.0593C20.4674 42.9925 20.8075 43.0762 21.1452 43.0693C21.9157 43.0493 22.0231 42.9782 22.6537 43.2124L23.213 42.8332C23.5036 43.1728 23.0755 43.0505 23.1574 43.3108C23.3254 43.5109 23.5406 43.5537 23.7708 43.4287C24.4426 43.9165 25.2302 44.202 25.9129 44.8386C26.225 45.1632 26.4663 45.5655 26.7637 45.8644C27.584 46.6621 28.4754 47.378 29.0702 48.3544C29.3481 48.7632 29.4282 49.3031 29.6395 49.8515C29.9328 50.6561 30.0065 51.2326 30.0909 51.962C30.1365 52.5902 30.2403 53.2098 30.2797 53.8705C30.3408 54.7053 30.5134 55.4692 30.4065 56.2932C30.3488 56.6761 30.149 57.0292 30.0803 57.3908C30.0161 57.8103 30.1199 58.2407 29.8575 58.5445C29.8212 58.7232 29.9311 58.9318 29.9096 59.1361C29.484 59.4828 29.6327 59.9819 29.28 60.3457C29.2262 60.0337 29.0433 60.318 28.9464 60.2254C26.9739 61.023 25.0679 61.6809 23.3957 61.0172L23.03 61.265C22.8771 61.0865 22.733 60.9619 22.567 60.8566C21.788 60.8184 21.0776 60.4186 20.4339 59.69C20.3929 59.8149 20.4171 59.948 20.5438 60.0879C20.2745 59.7373 19.8419 59.557 19.5083 59.2475C19.2325 58.9334 19.0298 58.4432 18.7242 58.082C18.6078 57.9099 18.4292 57.8736 18.3238 57.7228C17.9747 57.2066 17.7634 56.469 17.4616 55.7954C17.2202 55.2039 16.8858 54.5241 16.7091 53.8875C16.5992 53.4896 16.7062 53.0441 16.5963 52.6462C16.538 52.4655 16.3485 52.2805 16.3269 52.1063C16.2601 51.8676 16.3113 51.5213 16.2723 51.2349C16.1685 50.6153 15.9874 50.11 15.974 49.4921C15.9498 48.8489 15.956 48.6272 16.104 48.0568C16.1963 47.5857 16.2557 46.7957 16.688 46.4083C16.6123 45.737 16.971 45.1515 16.8953 44.4802C17.3192 44.4131 16.9214 45.029 17.0638 45.2439L17.0673 45.2523ZM17.4655 48.1204C17.6742 48.0105 17.5768 47.3543 17.5403 47.5371C17.5575 47.6533 17.461 47.7458 17.3683 47.8426C17.4395 47.9501 17.4997 48.0362 17.4652 48.1245L17.4655 48.1204ZM17.6061 46.332C17.4987 46.4032 17.4857 46.4764 17.5203 46.5774C17.6062 46.5212 17.6407 46.433 17.6061 46.332ZM17.715 45.2861C17.5925 45.3358 17.5731 45.4455 17.5926 45.525C17.7151 45.4753 17.713 45.3806 17.715 45.2861ZM19.5457 44.8372C19.18 44.8957 18.4896 45.2664 18.1349 45.5354C18.1007 45.8088 18.2167 45.7958 18.3612 46.1054C17.9227 46.7145 17.9574 47.3214 17.9172 48.0057C17.8628 49.9231 18.2687 51.7839 18.9804 53.8126C19.4484 55.1592 19.5763 56.422 20.6594 57.6069C20.8702 57.781 20.4788 57.8543 20.6684 58.0393C21.2563 58.678 22.2828 59.0859 22.4903 59.9467C23.1424 60.1658 23.8954 59.8445 24.4488 60.5714C25.7742 60.3035 26.9964 60.4856 28.4824 59.3891C28.6089 58.8338 28.9957 58.1966 28.6038 57.7064C28.8402 57.3598 28.7152 56.9404 28.8054 56.5637C28.6955 56.355 28.5214 56.3766 28.407 56.1101C28.2705 54.7891 28.207 53.4852 27.8509 52.1253C27.6938 52.074 27.528 52.1579 27.4311 51.876C26.987 50.7942 26.7839 49.6129 26.1504 48.5353C25.086 46.6812 23.256 45.4067 21.7428 44.5107C21.1728 44.5478 20.9211 44.877 20.4393 44.9486C20.1639 45.0089 19.8323 44.794 19.5463 44.829L19.5457 44.8372ZM17.6861 52.2685C17.7252 52.744 17.7858 53.2045 17.9303 53.7034C18.0787 53.3181 17.925 52.5801 17.6861 52.2685ZM18.2879 54.0885C18.3547 54.3273 18.2603 54.5145 18.4735 54.7792C18.6886 54.6328 18.3977 54.108 18.2879 54.0885ZM19.0615 44.6289C19.7239 44.3099 20.4473 44.8257 20.959 44.4187C20.4529 44.0404 19.6204 43.8754 19.0615 44.6289ZM19.244 57.9306C19.3798 57.9928 19.2034 58.2405 19.4055 58.1673C19.397 58.1091 19.3946 57.8293 19.244 57.9306ZM20.6554 43.8355C20.7629 43.7644 20.7998 43.956 20.9243 43.8118C20.8962 43.6743 20.5757 43.67 20.6554 43.8355ZM25.1478 45.9818C25.2039 46.0677 25.4879 46.2548 25.4082 46.0892C25.3049 46.0331 25.2423 45.9838 25.1478 45.9818ZM26.3 47.1794C26.3602 47.2656 26.5046 47.386 26.4358 47.2417C26.4122 47.162 26.2527 47.0201 26.3 47.1794ZM27.7937 50.2789C27.996 50.3948 27.8243 50.6963 28.0415 50.6446C28.0545 50.5714 27.9378 50.2142 27.7937 50.2789ZM28.2679 51.4038C28.2484 51.5135 28.3497 51.6641 28.3415 51.7911C28.5221 51.7328 28.3715 51.3282 28.2679 51.4038ZM28.6025 52.9679C28.6908 53.1916 28.6352 53.6693 28.8808 53.751C28.7558 53.5208 28.833 53.0281 28.6025 52.9679ZM28.8621 49.217C28.9935 49.4106 28.9293 49.8301 29.2026 49.8643C28.998 49.6577 29.1505 49.2727 28.8621 49.217ZM28.8662 54.293C29.0041 54.45 28.8773 54.8202 29.1356 54.8328C29.0192 54.6608 29.1461 54.2906 28.8662 54.293ZM29.2478 49.9289C29.0306 50.1699 29.3753 50.8174 29.5714 50.9659C29.442 50.6778 29.3728 50.3484 29.2478 49.9289ZM29.4805 53.066C29.489 53.1241 29.4874 53.4037 29.6529 53.3239C29.5023 53.236 29.6786 52.9924 29.4805 53.066ZM29.5892 54.4345C29.8216 54.5935 29.4969 54.9056 29.8134 54.9097C29.7272 54.7807 29.9163 54.2747 29.5892 54.4345Z" fill="#F7F8C5"/>
<path d="M31.8429 36.4485C33.0155 38.9184 34.9089 39.7239 36.5196 40.8279L37.1889 41.2908C37.6651 41.6219 38.1875 41.8121 38.6528 42.122C39.1073 42.4064 39.4627 42.9519 40.0549 42.9532C40.326 43.341 40.7972 43.4949 40.8744 44.0182C41.1377 43.6363 40.8496 43.3215 40.799 42.9603C40.6609 41.7915 40.612 40.4515 40.5314 39.2205C40.496 38.5601 40.4508 37.9896 40.306 37.2398C40.2387 37.0092 40.0878 36.7362 40.0568 36.5162C40.0206 36.1231 40.179 35.7097 40.0811 35.3167C39.9106 34.52 39.2879 33.9737 39.0811 33.1664C39.317 32.8897 39.5125 32.6021 39.5021 32.2559C40.0939 32.1997 39.9532 31.8327 40.2104 31.545C40.6327 32.2634 42.0827 30.5805 42.7414 31.0797C42.1535 31.5188 40.8124 31.839 40.6792 32.5626C41.1572 34.1977 42.3782 35.6671 42.9727 37.0301C43.0248 37.1775 43.113 37.3395 43.0497 37.4917C43.348 37.7126 43.3528 37.828 43.6238 38.2158C43.5447 38.2312 43.5035 38.1052 43.414 38.1529C43.7168 38.4316 43.7209 38.8761 43.9049 38.8921C43.9465 39.0758 44.2387 39.3909 44.228 39.8098C44.9442 40.3087 44.9469 41.2837 45.4063 42.1279C45.9432 43.1087 46.8683 43.8762 46.7613 44.7659L47.6842 46.4546C47.8307 46.6697 48.1409 46.2621 48.323 46.3726C48.5421 46.6089 48.2906 46.7448 48.3216 46.9648C48.442 47.0754 48.7776 46.6571 48.8456 47.0029C48.3836 47.4048 47.8276 47.7965 47.2929 48.1773C47.1623 48.1606 47.0995 47.9879 47.0113 47.8259C46.5917 48.1442 45.9617 48.7245 45.5374 48.5448C45.5436 48.068 46.3041 47.5045 46.7338 47.4747C46.7239 47.1821 46.5257 46.8772 46.4066 46.5568C46.3499 46.2899 46.0866 46.6718 45.9936 46.456C45.608 45.8058 45.3163 45.1658 44.9564 44.5625C44.4089 43.618 43.6931 42.7942 43.1823 41.9179C42.2964 40.355 41.8289 38.6835 40.7852 37.2091C41.1964 40.5099 40.826 44.0027 42.9128 47.2805C42.9075 47.4899 42.8336 47.6785 42.7809 47.856C42.9637 48.0818 43.3408 48.2296 43.182 48.5854C42.7052 48.5792 42.4707 48.2637 42.0192 48.6293C41.8164 48.2048 41.7152 48.5602 41.4177 48.4546C41.1818 48.3488 41.3238 48.0619 41.2672 47.8566C40.7604 47.3631 40.1115 47.1565 39.5365 46.6997C39.1652 46.4 38.9041 45.9224 38.5755 45.535C38.2983 45.2415 37.9062 45.0721 37.6504 44.7676C37.3002 44.3953 37.0864 43.9495 36.7319 43.581C36.2827 43.0871 35.7762 42.6512 35.2844 42.1792C34.8139 41.6962 34.3602 41.1445 33.9051 40.7407C33.1216 40.0112 32.116 39.8514 31.3948 39.237C31.5237 39.85 31.9264 40.4273 32.2027 40.9881C33.9477 44.7168 35.0846 48.7515 37.1291 52.4914C37.385 52.7959 37.8576 52.3576 38.0711 52.8074C37.8196 52.9433 37.6315 52.927 37.4474 52.911C37.2579 53.4869 36.7181 53.312 36.2461 53.8038C36.0314 53.6254 35.7437 53.8124 35.6136 53.4091C35.7299 53.1369 36.0752 52.9495 36.4213 52.8774C36.0101 51.7977 35.6262 50.6129 35.0688 49.3757C34.6474 48.39 34.0524 47.3519 33.6461 46.4495C32.9851 44.9711 32.4968 43.4299 31.7821 41.9563C31.2141 40.7554 30.6356 39.5909 30.1725 38.3598C29.9149 38.5899 29.5803 38.3584 29.2615 38.2637C29.0317 38.0637 29.1326 37.6507 28.9122 37.6241C29.6925 37.6418 30.9252 37.0266 31.8266 36.4474L31.8429 36.4485ZM32.4827 42.4418L32.2693 42.0537C32.2078 41.6713 31.7643 41.0255 31.6962 40.6797C31.5297 40.2658 31.102 39.7569 31.477 40.4434L31.7014 40.8528C31.732 41.0152 31.8882 41.4613 32.0756 41.8067C32.1902 42.0691 32.5182 42.7197 32.4827 42.4418ZM32.8679 43.4169C32.9932 43.7048 33.0286 43.9826 33.2632 44.2981C33.1959 44.0675 33.0822 43.5378 32.8679 43.4169ZM33.8713 39.994C34.1687 40.4821 34.5503 40.7496 34.9637 40.908C34.6136 40.5357 34.2635 40.225 33.8713 39.994ZM35.009 41.4785C35.2024 41.668 35.3428 41.9773 35.584 41.9354C35.4437 41.626 35.2294 41.5052 35.009 41.4785ZM36.8956 43.0857C37.4804 43.7735 38.124 44.2512 38.7613 44.7615C38.1659 44.0483 37.571 43.4544 36.8956 43.0857ZM36.9917 42.1747C37.1227 42.3107 37.2051 42.5628 37.4099 42.4486C37.2789 42.3126 37.1586 42.202 36.9917 42.1747ZM37.4042 42.6004C37.7907 42.9833 38.0714 43.6021 38.5167 43.7132C38.2189 43.1674 37.7753 42.9042 37.4042 42.6004ZM38.665 45.2324C39.0731 45.6002 39.4114 46.2186 39.8717 46.3512C39.4955 45.9361 39.0833 45.5063 38.665 45.2324ZM38.9349 43.9871C39.2687 44.4859 39.6025 45.0463 40.0734 45.1427C39.6973 44.7275 39.3422 44.2397 38.9349 43.9871ZM40.0393 46.4937C40.1018 46.6088 40.1854 46.6513 40.2899 46.6251C40.2275 46.51 40.1333 46.5039 40.0393 46.4937ZM40.1469 45.2791C40.3603 45.6672 40.6271 45.993 40.952 45.9935C40.6856 45.7253 40.4509 45.3481 40.1469 45.2791ZM42.3666 39.1462C42.2932 39.0098 42.2573 38.6743 42.0116 38.6584C42.7362 39.9804 43.1041 41.411 44.0818 42.4451C43.5298 40.9985 42.9814 40.3213 42.3666 39.1462ZM44.5064 42.304C43.7552 41.2023 43.6215 40.0913 42.7907 39.33C43.3848 40.2528 43.7442 41.181 44.0098 41.7165C44.124 41.9213 44.1966 42.325 44.5105 42.3042L44.5064 42.304ZM43.6848 39.8774C43.8509 40.2337 43.9859 40.7525 44.3576 41.1097C44.3005 40.7852 43.9358 40.0664 43.6848 39.8774ZM45.0712 42.4105C45.2226 42.7412 45.4661 43.6166 45.8531 43.6746C45.5821 43.2868 45.3949 42.6207 45.0712 42.4105ZM45.8841 43.8946C46.0305 44.1098 46.0611 44.2722 46.1027 44.4558C46.3696 44.3991 45.9995 43.8898 45.8841 43.8946Z" fill="#F7F8C5"/>
<path d="M56.965 25.0593C56.5191 25.3388 55.7387 25.7654 55.0884 25.9618C53.3597 26.4873 50.6172 27.7409 48.791 28.5645C49.3215 29.5819 49.7319 31.2456 50.4232 32.7012C50.9066 33.6827 51.5198 34.6932 51.2417 35.4937C51.3742 35.8601 51.5392 36.0436 51.6965 36.3458C52.1067 36.1092 52.7279 35.9808 53.1991 35.6905C53.3322 35.6045 53.426 35.3638 53.5124 35.2995C53.5844 35.2671 53.6595 35.3789 53.7171 35.3786C53.8825 35.3646 54.1306 35.027 54.3463 35.189C54.5335 34.9667 54.2646 34.5462 54.2794 34.2551C54.4812 33.9967 54.7139 34.1516 54.9583 34.188C55.1589 34.3286 54.9787 34.8886 55.3848 34.9684C55.1002 35.4888 55.7855 36.2119 55.8529 36.9484C55.2998 36.8509 54.8941 36.5737 54.712 35.8297C53.8776 36.3926 53.0794 36.9661 52.4067 37.5724C52.664 38.679 53.4335 40.6416 53.7764 41.8237C53.805 41.9531 53.8513 42.1905 53.8799 42.2582C53.9229 42.3556 54.1059 42.388 54.1206 42.352C54.1169 42.4093 53.9625 42.5062 53.9548 42.625C53.9368 42.7761 54.044 43.1532 54.0509 43.2359C54.1688 43.6384 54.4312 43.7788 54.5381 44.1601C54.6814 44.2969 54.7502 43.8694 54.8865 44.1785C58.0321 42.3546 60.1252 40.9026 63.6875 39.3772C63.918 38.9931 63.1071 38.2413 63.553 37.9617C63.9914 37.7968 64.2453 38.5125 64.2845 38.8606C64.3991 39.123 64.791 38.7248 64.8662 39.0875C64.7535 39.874 63.6906 39.7722 62.9823 40.1664C62.8849 40.2095 62.7669 40.317 62.6802 40.3854L60.6022 41.349C58.582 42.3738 56.6583 43.7504 55.0617 44.5848C55.0613 44.7822 54.7132 44.8213 54.8491 45.0728C54.0917 44.8921 53.5256 46.0729 52.7933 45.8856C52.5494 45.3967 52.8875 45.4474 53.2106 45.2216C53.2417 43.5372 52.0156 41.8289 51.303 40.0675C51.4718 39.9386 51.3992 40.4233 51.5724 40.2906C50.4514 37.6595 49.5977 34.4575 48.046 31.8726C47.7733 31.7644 48.0672 32.1166 47.7765 32.1595C47.5149 31.5625 47.7936 30.3096 46.8527 30.0389C46.7955 29.7801 46.8572 29.525 46.642 29.1655C46.4122 29.0931 45.984 29.4807 45.8374 29.2039C45.8093 28.6221 46.5323 28.1918 46.9917 28.5301C49.4181 27.33 51.8621 26.493 54.1014 25.5153C55.0792 25.0892 56.0456 24.8392 56.9233 24.3696C57.2828 24.1544 57.5171 23.713 58.0985 23.944C58.4104 24.4619 57.519 24.762 56.9691 25.0595L56.965 25.0593ZM47.3747 29.4105C47.5905 29.3175 47.595 28.8037 47.3109 28.8716C47.354 28.969 47.2461 28.9826 47.1528 29.0259C47.1994 29.2593 47.3535 29.1664 47.3788 29.4107L47.3747 29.4105ZM47.4302 30.7755C47.4334 30.9156 47.3155 30.7681 47.2976 30.6641C47.2582 30.5094 47.391 30.6825 47.4302 30.7755ZM48.1264 28.8546C48.0614 28.9696 48.1371 29.1349 48.3131 29.0847C48.2488 28.9982 48.2238 28.8115 48.1264 28.8546ZM49.6612 33.3511C49.7509 33.4268 49.7471 33.7392 49.8802 33.6532C49.945 33.5422 49.8017 33.4054 49.6612 33.3511ZM50.0443 34.2315C50.134 34.3072 50.1302 34.6196 50.2633 34.5336C50.3283 34.4185 50.1847 34.2858 50.0443 34.2315ZM51.3946 37.1324C51.4518 37.3912 51.5882 37.4453 51.5489 37.2905C51.5526 37.2332 51.359 36.9204 51.3946 37.1324ZM53.5374 43.544L53.4228 43.2816L53.3041 43.3356L53.4187 43.598L53.5374 43.544ZM53.9667 44.6619C53.7977 44.7949 53.8705 44.306 53.6974 44.4387C53.6687 44.5644 53.74 44.7335 53.7113 44.8592C53.7977 44.7949 53.9844 44.7699 53.9667 44.6619ZM54.0318 44.2918C54.1071 44.3995 54.1177 44.6799 54.3012 44.5149C54.2509 44.3389 54.1612 44.2631 54.0318 44.2918Z" fill="#F7F8C5"/>
<path d="M81.4094 33.1183C81.5741 33.1166 81.5191 33.5203 81.6981 33.4866C81.5287 34.4505 81.8283 35.6669 81.922 36.7588C81.4789 36.7424 81.4698 36.8817 81.304 36.9656C80.9274 37.0645 80.9909 36.2748 80.8497 36.1052C80.2891 35.7439 80.1539 34.53 79.4466 34.4636C78.9361 34.6608 78.8051 34.8416 78.3112 34.8466C78.0817 34.8975 78.3675 35.1834 78.2377 35.2819C78.0177 35.4404 77.9592 35.2639 77.9149 35.0594C77.719 35.2894 77.9679 35.7004 77.736 35.9157C77.5064 35.9667 77.4965 35.6123 77.3992 35.4003C76.6106 35.2546 75.9216 35.7323 74.8087 36.0221C74.4387 36.1462 74.0526 36.1376 73.7077 36.2551C73.3881 36.3619 73.1098 36.5948 72.7652 36.7082C72.2149 36.9481 71.573 37.0792 71.0158 37.2982C70.0053 37.7221 69.1042 38.2971 68.2074 38.4899C68.0747 38.506 67.9113 38.4255 67.9367 38.4148C67.8147 38.4562 67.7154 38.6555 67.4927 38.7274C66.8681 38.909 65.7166 39.1593 65.3992 39.6776C64.9981 40.2809 64.8685 41.2021 64.8952 41.9319C64.823 42.285 64.5339 42.4925 64.6185 42.9011C64.3293 42.2859 64.2027 41.2576 63.8654 40.4954C63.8001 40.2979 63.5931 40.2556 63.5779 40.0449C63.5121 39.6005 63.9056 39.3052 63.7388 38.8954C64.4862 38.3433 65.4221 38.4369 66.2774 38.1221C67.4272 37.7072 67.6251 37.066 67.9002 35.9321C68.0634 35.19 68.1431 34.5329 68.0038 33.9522C67.9944 33.8446 68.1019 33.8351 68.2026 33.8046C68.1191 33.063 68.1572 32.2839 68.1066 31.4786C68.1222 31.3644 67.9896 31.3805 67.9908 31.2983C67.9842 31.2732 68.1562 30.9676 68.1467 30.8601C68.1372 30.7525 68.0214 30.5722 68.0053 30.4396C67.9983 30.1676 67.9712 30.0137 67.8869 29.601C67.6863 28.7613 67.7667 27.7752 67.6561 26.8796C67.5804 26.0808 67.4317 25.3925 67.0176 24.7363C67.5096 24.5708 67.149 23.9798 67.0791 23.5351C66.9732 23.7092 67.1371 24.0366 66.8997 24.1446C66.7254 23.2161 67.0936 22.1047 66.3994 21.2658C66.5382 21.028 66.6773 20.7861 66.7775 20.5088C67.3183 20.1613 68.3573 20.06 68.7557 19.6252C69.0835 19.7081 70.2933 19.3835 70.6521 18.9872C70.9006 19.1514 71.1043 18.8643 71.5646 18.6802C71.8019 18.5722 72.0914 18.6116 72.2783 18.5209C72.509 18.3877 72.5242 18.0268 73.0166 18.108C73.2449 18.1393 73.2881 18.4259 73.551 18.5581C73.5526 18.7227 73.5929 18.9269 73.5692 19.1022C73.915 19.4784 74.0424 20.1777 74.2484 21.1247C74.2898 21.2467 74.209 21.4142 74.2213 21.5425C74.3134 21.8981 74.5278 22.2082 74.5455 22.5055C74.7988 24.562 75.9668 28.1175 76.8521 30.2603C77.0428 30.7457 77.1261 31.2365 77.3246 31.6648C77.6562 32.3238 78.2386 32.921 78.3269 33.9057C79.1923 33.9453 80.6677 33.2018 81.4094 33.1183ZM67.6302 20.9343C67.3699 21.4603 67.6652 21.8538 67.8082 22.4389C67.9245 22.866 67.7669 23.1396 67.7703 23.4689C67.7465 24.2159 68.0357 24.8311 68.2043 25.6565C68.3613 26.5345 68.2013 27.6059 68.3929 28.585C68.5335 29.3345 68.7098 29.8518 68.8331 30.5508C68.9995 31.5364 69.0452 32.4813 69.0627 33.3545C69.0813 34.1454 69.0078 34.5808 68.8683 35.1476C68.7062 35.8075 68.6266 36.4646 68.4048 37.0302C68.2833 37.3185 68.7104 37.2022 68.5938 37.3509C68.3963 37.4163 68.099 37.434 68.1499 37.6635C71.5358 36.6367 72.6947 36.0825 76.0365 34.8472C75.2761 32.7454 75.3998 30.8367 74.3935 29.229C74.4997 28.479 73.7159 27.3711 73.6136 26.6652C73.4805 26.4345 73.8522 26.475 73.6937 26.255C72.9721 23.6169 72.3829 21.5385 71.6196 19.3543C71.0706 19.512 70.6993 19.7183 70.538 20.0492C69.4768 20.2396 68.6006 20.8121 67.6294 20.9466L67.6302 20.9343ZM68.3882 34.3678C68.4889 34.9091 68.0451 35.4726 68.269 35.8902C68.2747 35.4217 68.792 34.6737 68.3882 34.3678ZM73.8982 25.3839C73.9714 25.5244 73.9496 25.8602 74.1443 25.7124C74.1107 25.5334 74.0522 25.3569 73.8982 25.3839Z" fill="#F7F8C5"/>
<path d="M91.2093 12.2822C91.2637 12.9644 91.4209 13.6492 91.572 14.1731C91.8071 14.0362 91.3634 13.3945 91.373 12.9921C91.7585 12.8196 91.3966 12.1833 91.7543 11.9967C92.2095 11.8905 92.2493 12.7363 92.0484 12.9166C92.203 13.5765 92.0625 14.2214 92.2011 14.9378C92.2942 15.3429 92.5643 15.6812 92.6943 16.0228C92.9661 16.8425 93.0031 17.7951 93.2316 18.649C93.9258 21.2647 94.7557 24.0086 95.5437 26.5728C95.4341 26.6768 95.3877 26.8219 95.253 26.9324C95.5816 27.764 95.877 28.7909 96.0791 29.5444C96.4872 29.3405 96.9041 29.1907 97.3352 29.3297C97.411 29.8734 96.7306 29.71 96.3953 29.8693C96.1222 29.9585 96.0862 30.2605 95.8435 30.1338C95.6401 30.2892 95.7174 30.6192 95.5482 30.818C95.3159 30.8482 95.339 30.4918 95.2586 30.2727C94.9418 30.4003 94.5485 30.4406 94.2634 30.5866C94.0035 30.7261 93.9225 30.9594 93.759 30.9447C93.2929 30.3304 94.4935 30.2108 94.8792 29.9067L94.7598 29.4013C94.7061 29.2785 94.5498 29.5316 94.4261 29.3467C93.938 27.4847 93.8148 26.8474 93.4112 25.0155C93.4127 24.8017 93.2504 24.8941 93.1555 24.8344C93.2631 24.3807 92.9152 24.0373 92.7775 23.5595C92.4466 22.3822 92.5649 20.9379 92.1618 19.6696C92.0304 19.221 91.808 18.8446 91.8022 18.363C91.7419 18.2151 91.8013 18.1244 91.9582 18.114C91.4945 16.7019 91.3104 15.3531 90.813 13.5728C89.7252 15.1887 89.7625 17.5315 88.9869 19.3445C89.0254 20.0833 88.6142 20.7147 88.3943 21.3792C87.9387 22.633 87.5595 23.9781 87.1802 25.3232C86.9829 25.9562 86.6559 26.6219 86.8172 27.3069C86.6602 27.3173 86.6257 27.4056 86.5322 27.453C86.3946 28.6863 85.8115 29.6233 85.6489 30.8632C86.4246 30.7613 87.1515 30.7796 87.5227 31.3343C86.5499 31.7483 85.3977 32.0726 84.1203 32.4258C84.0505 32.3596 83.978 32.2726 83.961 32.0906C83.5096 32.3287 83.309 32.3773 82.8007 32.6035C82.713 32.1166 83.2185 31.9972 83.6963 31.8595C83.5696 31.0862 83.2681 30.5978 83.0883 29.9445C83.0898 29.7307 83.2562 29.6386 83.2643 29.4499C83.1855 28.3178 82.5582 26.891 82.773 25.9877C82.5976 25.0138 82.2946 23.7232 82.0764 22.3311C81.9755 21.794 82.0123 21.0354 81.6273 20.7554C81.5538 20.5573 81.7331 20.5196 81.6571 20.2967C81.5531 20.1871 81.5163 19.9297 81.3528 19.915C81.1973 19.7116 81.5694 19.8097 81.439 19.5997C80.833 18.0344 80.8293 16.8866 80.0924 15.5637C79.9894 15.6928 80.1012 15.9345 79.8966 15.9829C79.543 15.8531 79.1819 15.7762 79.0374 15.2774C80.8141 15.3432 82.9177 14.0481 84.1789 14.0723C84.2694 14.4525 84.0723 14.7646 83.7929 14.6972C84.0485 14.8783 84.2988 15.1413 84.0426 15.4126C83.7525 15.3198 83.3044 14.9987 82.9572 15.3422C82.9027 15.676 83.2686 15.2966 83.2881 15.5035C83.742 16.3063 84.2801 17.4599 84.2299 18.4891C84.0833 18.6565 84.1231 18.4863 83.9846 18.465C84.0446 20.7764 84.3493 22.8651 84.8824 25.491C85.1154 26.7195 85.0281 27.9396 85.3869 29.0035C85.6765 28.5328 85.8117 27.9698 86.004 27.4146C86.7683 25.206 87.367 22.6329 87.9824 20.246C88.6467 18.7548 89.1885 17.1858 89.443 15.4172C89.9592 14.3072 90.3105 13.0754 90.4826 11.7539C90.7362 11.5852 91.2434 11.1204 91.4934 11.515C91.5142 11.829 91.324 12.0346 91.218 12.2746L91.2093 12.2822ZM82.3528 15.4018L82.048 15.4725C81.9934 15.8063 82.2145 16.0756 82.4481 16.1525C82.3589 15.8793 82.3221 15.6219 82.3528 15.4018ZM82.9765 22.2784C82.9285 22.6372 82.8722 23.3164 83.1448 23.6796C83.3193 23.3988 83.314 22.4648 82.9765 22.2784ZM83.503 29.7657C83.5818 29.8819 83.5273 30.2156 83.6818 30.1804C83.7188 30.117 83.767 29.6265 83.503 29.7657ZM86.0615 31.2231C85.6167 31.4863 84.796 31.5195 84.6253 31.9321C85.1335 31.7059 85.7392 31.5642 86.0615 31.2231Z" fill="#F7F8C5"/>
<path d="M105.977 12.0791C106.529 13.6532 106.602 16.0889 107.356 17.2648C107.301 17.4298 107.249 17.5951 107.222 17.7579C107.53 19.4725 108.046 20.9744 108.576 22.9461C108.621 23.0724 108.766 23.1805 108.784 23.2845C108.793 23.3345 108.704 23.452 108.749 23.5784C109.04 24.4816 109.399 25.2946 109.739 26.1393C109.956 26.7128 110.156 27.1823 110.148 27.8152C109.853 28.121 109.777 27.4498 109.535 27.7508C109.206 28.0092 109.928 28.6112 109.47 28.89C109.288 28.3888 109.2 28.6669 108.889 28.5274C108.784 28.1751 109.01 28.1157 109.118 27.9665C108.255 25.5454 107.639 22.4823 107.101 19.9342C106.925 19.9886 107.097 20.2506 107.089 20.3817C106.783 20.0863 106.873 18.7595 106.54 18.306C106.249 18.4805 105.682 18.5383 105.588 18.9723C105.715 19.2932 106.711 18.9094 106.497 19.4138C106.566 19.6938 106.147 19.3623 105.973 19.4374C105.174 19.5295 105.008 20.5554 104.395 21.0133C104.109 21.7393 104.081 22.6136 104.026 23.4614C103.949 24.3408 103.663 25.0667 103.459 25.8062C102.493 26.739 102.13 28.1633 101.108 29.076C100.929 29.1015 100.747 29.1307 100.724 28.9771C100.514 29.3501 100.096 29.5205 99.8616 29.7109C99.7761 30.0139 99.2375 30.6453 98.8864 30.2236C98.6331 29.9439 99.1381 29.4501 99.1598 29.0526C99.4149 28.9868 99.535 29.1016 99.6978 29.1286C100.59 28.7586 101.149 28.1203 101.713 27.4864C101.683 27.1225 101.971 26.9232 102.079 26.5888C102.745 24.7028 101.922 22.0376 102.809 20.4046C101.856 20.5196 101.572 19.6951 100.571 19.8441C100.231 19.5012 100.108 18.8598 99.8385 18.4557C99.4764 18.1401 99.0198 18.0776 98.8721 17.6279C98.586 16.7744 99.3496 15.7175 99.3599 14.9243C100.081 13.7658 101.447 13.0605 102.469 12.1437C103.687 12.3831 103.695 11.38 105.052 11.3117C104.894 10.9682 104.893 10.598 105.643 10.696C105.644 10.8811 105.687 10.9785 105.773 11.0458C106.451 10.9992 106.754 11.4508 107.214 11.7233C106.866 11.6966 106.322 11.9081 105.978 12.0668L105.977 12.0791ZM100.073 15.1474C100.105 15.3551 99.719 15.4123 99.9862 15.6065C100.258 15.6694 100.236 15.1744 100.073 15.1474ZM105.152 11.9968C103.412 12.3118 102.347 13.1271 101.235 13.9229C101.504 14.3311 101.034 14.3459 100.899 14.658C100.73 15.9962 101.274 17.179 102.05 17.7723C103.516 17.3696 104.703 17.4013 106.132 16.9263C105.82 15.7091 105.822 14.3437 105.276 13.3211C105.479 13.108 105.502 12.184 105.156 11.9971L105.152 11.9968ZM102.188 19.7761C102.22 19.9838 102.656 20.0985 102.737 19.931C102.617 19.8163 102.49 19.6805 102.188 19.7761ZM103.032 25.4084C102.906 25.4536 102.8 25.4426 102.741 25.3977C102.843 25.9103 102.467 26.3836 102.567 26.6862C102.745 26.2905 103.037 25.9599 103.032 25.4084ZM103.402 20.332C103.274 20.7185 102.997 21.3134 103.152 21.6566C103.167 21.234 103.65 20.7675 103.402 20.332ZM103 23.6252C103.275 23.1906 103.219 22.2779 103.768 22.2477C103.713 21.1789 104.372 20.6581 104.758 19.918C104.52 19.9026 104.57 20.0786 104.333 20.0591C103.928 21.2257 102.998 22.387 103 23.6252ZM104.27 18.0437C104.063 18.0755 103.744 18.0425 103.778 18.275C103.896 18.3608 104.364 18.3171 104.27 18.0437ZM103.992 20.2427C103.766 20.3021 103.708 20.8125 103.774 20.8825C103.818 20.6386 103.979 20.5092 103.992 20.2427ZM105.633 18.2102C105.832 18.1285 106.058 18.0691 106.105 17.85C105.974 17.8415 106.023 17.6514 105.85 17.7306C105.875 17.9092 105.64 17.9186 105.436 17.9506C105.396 18.1948 105.674 17.966 105.633 18.2102ZM108.746 24.9479C108.667 24.5931 108.718 24.0576 108.351 23.8775C108.639 24.5708 108.593 25.156 108.879 25.8244C109.127 25.5525 108.821 25.253 108.746 24.952L108.746 24.9479ZM108.799 26.358C108.845 26.6654 108.911 26.9206 109.062 27.0538C109.087 26.8662 109.068 26.396 108.799 26.358Z" fill="#F7F8C5"/>
<path d="M121.887 12.3538C121.236 13.632 120.731 15.1376 119.973 16.3718C119.697 16.8105 119.58 17.2923 119.285 17.8368C119.173 18.0557 118.922 18.1793 118.809 18.3982C118.696 18.6171 118.667 18.8784 118.554 19.0973C118.146 19.8607 117.55 20.5624 117.042 21.3603C116.926 21.5503 116.732 21.7516 116.644 21.9145C116.44 22.2714 116.332 22.5935 116.126 22.9216C115.662 23.6113 115.208 24.458 114.752 25.2757C114.224 26.1793 113.779 27.076 113.193 27.9347C113.158 28.4835 112.791 28.7518 112.698 29.227C112.28 29.2081 111.943 29.5771 111.653 29.2333C111.623 28.8694 111.856 28.5102 112.013 28.1872C112.474 27.1065 112.913 26.1026 113.788 25.3531C114.075 24.4175 114.743 23.6299 115.222 22.7848C115.354 22.5137 115.43 22.169 115.59 21.8667C115.634 21.7585 115.811 21.6918 115.857 21.6085C116.019 21.3351 116.122 21.0128 116.304 20.6832C116.888 19.5405 117.632 18.4082 118.319 17.2559C118.754 16.5149 119.208 15.6682 119.554 14.831C120.028 13.6195 120.498 12.6422 120.807 11.309C121.219 10.9079 121.941 10.8231 122.567 10.7979C122.563 11.3735 122.104 11.8538 121.883 12.3413L121.887 12.3538Z" fill="#F7F8C5"/>
<path d="M130.021 9.73099C129.865 12.4603 131.134 14.0727 132.021 15.8165L132.385 16.5435C132.644 17.0621 133.007 17.4805 133.267 17.9745C133.529 18.4439 133.577 19.0928 134.098 19.3775C134.149 19.8456 134.488 20.209 134.304 20.703C134.72 20.4955 134.616 20.0774 134.749 19.7405C135.189 18.6503 135.79 17.4511 136.31 16.3332C136.596 15.7347 136.831 15.2152 137.068 14.4861C137.12 14.2509 137.12 13.9383 137.199 13.7336C137.354 13.3694 137.693 13.0829 137.797 12.6947C138.032 11.9161 137.746 11.1325 137.954 10.3275C138.292 10.1972 138.606 10.0407 138.762 9.72997C139.306 9.96269 139.36 9.57543 139.723 9.44261C139.747 10.2751 141.829 9.4969 142.167 10.251C141.44 10.356 140.111 9.99015 139.646 10.5606C139.279 12.2232 139.643 14.0977 139.514 15.5784C139.488 15.733 139.488 15.9181 139.358 16.0207C139.513 16.3598 139.461 16.4634 139.513 16.9315C139.436 16.906 139.461 16.776 139.358 16.7775C139.489 17.1686 139.279 17.558 139.437 17.6629C139.384 17.8445 139.488 18.2626 139.28 18.6234C139.669 19.4055 139.198 20.2634 139.198 21.2218C139.195 22.3404 139.637 23.459 139.117 24.1863L139.115 26.1112C139.139 26.3719 139.609 26.1638 139.713 26.3473C139.791 26.6609 139.503 26.6587 139.428 26.8677C139.48 27.0232 139.974 26.8167 139.87 27.1555C139.274 27.2855 138.594 27.3607 137.947 27.4422C137.841 27.3654 137.869 27.1821 137.869 27.0011C137.35 27.0785 136.518 27.2878 136.229 26.9194C136.461 26.5026 137.399 26.3742 137.791 26.5559C137.923 26.2971 137.897 25.9335 137.948 25.5953C138.026 25.3372 137.609 25.5446 137.637 25.3079C137.612 24.5535 137.666 23.8536 137.637 23.1484C137.613 22.0569 137.378 20.9887 137.354 19.9752C137.33 18.1803 137.719 16.4903 137.515 14.696C136.29 17.7879 134.285 20.673 134.544 24.5479C134.442 24.7305 134.285 24.8602 134.153 24.9915C134.205 25.2787 134.464 25.5916 134.153 25.8224C133.736 25.5897 133.687 25.1999 133.113 25.3025C133.143 24.8356 132.88 25.0941 132.673 24.8585C132.518 24.6511 132.776 24.4704 132.831 24.26C132.624 23.5844 132.154 23.0891 131.869 22.4125C131.688 21.9689 131.686 21.4258 131.582 20.9297C131.48 20.5405 131.218 20.2027 131.141 19.811C131.012 19.3173 131.036 18.8212 130.908 18.3275C130.753 17.6758 130.518 17.0518 130.313 16.401C130.133 15.7518 130.002 15.0481 129.796 14.4754C129.459 13.4622 128.652 12.8382 128.314 11.9525C128.132 12.5494 128.21 13.2537 128.181 13.8771C127.915 17.9854 126.98 22.0668 126.975 26.3319C127.053 26.7236 127.676 26.5665 127.652 27.0627C127.364 27.0605 127.21 26.96 127.052 26.8552C126.61 27.2707 126.221 26.8548 125.57 27.0635C125.468 26.8019 125.129 26.8292 125.205 26.4146C125.439 26.2324 125.83 26.233 126.169 26.3372C126.325 25.1916 126.56 23.9728 126.665 22.6181C126.771 21.5515 126.745 20.357 126.822 19.3665C126.955 17.7546 127.268 16.1666 127.345 14.5304C127.423 13.2028 127.479 11.9025 127.661 10.6063C127.323 10.6831 127.141 10.3176 126.905 10.0843C126.801 9.79779 127.088 9.48736 126.907 9.35637C127.581 9.74557 128.96 9.79792 130.026 9.72306L130.021 9.73099ZM127.57 16.3342C127.545 16.6452 127.438 16.9056 127.491 17.2957C127.543 17.0605 127.7 16.5401 127.57 16.3342ZM127.699 15.2937L127.699 14.8495C127.83 14.4836 127.752 13.7054 127.857 13.3666C127.91 12.9258 127.779 12.2757 127.778 13.053L127.777 13.5218C127.725 13.6789 127.646 14.1468 127.645 14.5375C127.618 14.8237 127.592 15.55 127.695 15.2934L127.699 15.2937ZM130.094 13.8119C130.119 14.3852 130.326 14.8018 130.613 15.1371C130.485 14.6434 130.328 14.2014 130.094 13.8119ZM130.378 15.6566C130.455 15.9166 130.429 16.2563 130.663 16.3332C130.685 15.9932 130.558 15.7876 130.378 15.6566ZM131.26 17.9719C131.441 18.8557 131.781 19.5851 132.09 20.3373C131.91 19.429 131.675 18.6199 131.26 17.9719ZM131.782 17.2201C131.832 17.4002 131.782 17.6602 132.016 17.6631C131.966 17.483 131.911 17.3231 131.782 17.2201ZM131.938 17.7937C132.093 18.3139 132.041 18.9892 132.379 19.3031C132.378 18.6778 132.119 18.2374 131.938 17.7937ZM131.778 20.7079C131.958 21.2296 131.958 21.9288 132.298 22.2676C132.169 21.7204 132.012 21.1509 131.778 20.7079ZM132.375 22.4782C132.374 22.6098 132.427 22.6873 132.532 22.7106C132.533 22.579 132.454 22.5286 132.375 22.4782ZM132.609 19.7499C132.661 20.3497 132.685 20.997 133.051 21.3087C132.922 20.7615 132.845 20.1642 132.609 19.7499ZM133.049 21.4648C133.049 21.905 133.125 22.3212 133.411 22.4796C133.307 22.115 133.282 21.6733 133.049 21.4648ZM137.94 17.1504C137.942 16.9942 138.069 16.6816 137.863 16.5531C137.864 18.0627 137.496 19.4908 137.859 20.8717C138.069 19.3388 137.911 18.4812 137.939 17.1545L137.94 17.1504ZM138.302 20.9457C138.174 19.6212 138.592 18.5788 138.229 17.5146C138.306 18.6055 138.176 19.5966 138.15 20.1913C138.151 20.4259 138.019 20.8163 138.307 20.946L138.302 20.9457ZM138.746 18.4243C138.72 18.8134 138.588 19.3354 138.745 19.8268C138.848 19.5168 138.875 18.7082 138.746 18.4243ZM138.744 21.3116C138.72 21.6761 138.51 22.5593 138.82 22.7932C138.768 22.3251 138.923 21.6482 138.744 21.3116ZM138.741 23.002C138.765 23.2627 138.714 23.4198 138.661 23.6014C138.919 23.6799 138.844 23.0539 138.741 23.002Z" fill="#F7F8C5"/>
<path d="M157.513 11.8252C156.989 11.857 156.101 11.8529 155.435 11.7152C153.666 11.3454 150.657 11.1216 148.66 10.9675C148.635 12.1134 148.194 13.7713 148.102 15.3818C148.056 16.473 148.103 17.6524 147.478 18.2247C147.416 18.6115 147.474 18.8497 147.468 19.1907C147.938 19.1801 148.551 19.3679 149.1 19.3376C149.257 19.3273 149.457 19.1633 149.561 19.1454C149.639 19.1504 149.655 19.2831 149.702 19.315C149.854 19.3824 150.236 19.2056 150.343 19.4511C150.613 19.3452 150.58 18.8454 150.736 18.6005C151.036 18.4718 151.168 18.719 151.364 18.8674C151.473 19.0843 151.044 19.4924 151.36 19.7556C150.862 20.0771 151.112 21.0393 150.818 21.7154C150.38 21.362 150.157 20.9239 150.357 20.1842C149.356 20.2756 148.382 20.3975 147.5 20.6036C147.191 21.6983 146.923 23.791 146.656 24.9912C146.62 25.1163 146.547 25.3461 146.538 25.4237C146.531 25.5261 146.676 25.6465 146.702 25.6194C146.67 25.6667 146.488 25.6796 146.424 25.7783C146.334 25.8999 146.248 26.2851 146.214 26.361C146.126 26.7707 146.286 27.0197 146.196 27.4046C146.257 27.5937 146.522 27.253 146.492 27.5884C150.13 27.5033 152.66 27.2355 156.519 27.6131C156.903 27.3871 156.556 26.3363 157.08 26.3086C157.545 26.3757 157.422 27.1246 157.29 27.4492C157.263 27.7354 157.8 27.5728 157.691 27.9277C157.214 28.5631 156.332 27.9588 155.521 27.9639C155.419 27.9572 155.256 27.9919 155.152 28.0099L152.867 27.8535C150.601 27.7766 148.251 28.0602 146.452 28.0258C146.358 28.2008 146.029 28.0643 146.031 28.3523C145.452 27.8294 144.391 28.5956 143.836 28.0743C143.86 27.5288 144.13 27.7355 144.523 27.6952C145.363 26.2318 145.107 24.1463 145.332 22.2606C145.544 22.2291 145.247 22.617 145.459 22.5855C145.746 19.7413 146.535 16.5224 146.418 13.5081C146.231 13.2821 146.321 13.7362 146.04 13.6316C146.098 12.9855 146.942 12.0161 146.251 11.3255C146.325 11.0711 146.502 10.877 146.488 10.4606C146.322 10.2894 145.762 10.4218 145.762 10.1051C146.018 9.57875 146.859 9.55099 147.097 10.0682C149.804 10.1861 152.347 10.6265 154.784 10.8462C155.847 10.9439 156.814 11.1876 157.809 11.1986C158.229 11.1847 158.646 10.9115 159.047 11.3899C159.07 11.9919 158.146 11.8292 157.517 11.8255L157.513 11.8252ZM145.449 27.5701C145.237 27.6016 145.533 27.2136 145.322 27.2451C145.233 27.3422 145.217 27.5222 145.129 27.6193C145.233 27.6013 145.409 27.6703 145.449 27.5701ZM146.401 12.2483C146.339 12.3719 146.302 12.1884 146.337 12.0838C146.376 11.93 146.412 12.1421 146.401 12.2483ZM145.608 26.3834L145.635 26.0973L145.504 26.0888L145.477 26.3708L145.608 26.3793L145.608 26.3834ZM145.682 27.2767C145.694 27.4091 145.566 27.6559 145.809 27.6016C145.849 27.4233 145.811 27.3138 145.682 27.2767ZM147.007 11.0248C147.239 11.0482 147.491 10.5997 147.208 10.5196C147.201 10.622 147.097 10.5865 146.994 10.5798C146.922 10.8096 147.104 10.7967 147.007 11.0248ZM146.813 19.7282C146.738 19.9825 146.83 20.0954 146.873 19.9419C146.905 19.8946 146.883 19.523 146.813 19.7282ZM147.024 16.5336C147.066 16.6432 146.912 16.9171 147.07 16.9026C147.181 16.8358 147.119 16.6467 147.024 16.5336ZM147.11 15.5767C147.153 15.6864 146.999 15.9602 147.156 15.9457C147.268 15.8789 147.206 15.6898 147.11 15.5767ZM147.928 10.8995C147.817 10.9663 147.8 11.1503 147.979 11.1907C147.961 11.0867 148.03 10.9102 147.928 10.8995Z" fill="#F7F8C5"/>
<path d="M171.167 17.0871C171.163 17.2719 171.255 17.4959 171.223 17.6789C170.991 19.6711 170.086 21.5745 169.986 23.5629C170.187 23.3086 170.178 22.7527 170.335 22.4338C170.34 23.4913 169.97 24.8782 169.659 25.9316C169.378 26.9663 169.527 27.9673 169.329 28.8018C169.254 29.0807 168.979 29.322 169.041 29.5687C169.177 30.0135 169.912 30.0323 170.017 30.4999C169.931 30.6958 169.586 30.5583 169.586 30.875C168.698 30.3568 166.979 30.8541 166.342 30.0848C166.012 30.1621 165.432 30.1656 165.404 29.7154C165.75 29.3801 166.603 29.8137 166.968 29.5083C167.307 28.5884 167.445 27.4785 167.781 26.4267C167.845 26.2005 168.045 25.9708 168.11 25.7201C168.218 25.3939 168.157 24.991 168.242 24.6345C168.405 23.8429 168.806 23.1738 168.602 22.5066C168.659 22.0167 168.97 21.5926 168.836 21.1233C168.712 20.7574 168.899 20.1566 169.045 19.4175C169.377 17.7855 169.813 15.3787 169.964 13.5581C168.98 13.1283 167.438 13.0489 166.283 12.719C165.607 13.1317 165.593 13.9741 165.36 15.0407C165.207 15.6231 164.934 16.1566 164.756 16.7333C164.534 17.5661 164.728 18.4425 164.175 18.9044C163.9 19.9108 163.796 20.8172 163.395 21.622C163.227 21.9895 162.948 22.2306 162.786 22.5738C162.369 23.4805 162.222 24.4828 161.508 25.2839C161.389 25.5271 161.563 25.5835 161.498 25.8097C160.878 26.8102 160.222 27.7301 159.527 28.5612C159.082 28.3802 158.654 28.8871 158.042 28.7569C157.791 28.6872 157.857 29.0699 157.559 28.9642C157.005 28.8173 156.447 28.67 156.082 28.342C156.304 27.9574 156.598 28.2438 156.9 28.033C157.378 28.3273 157.976 28.3743 158.554 28.0786C159.851 27.4305 160.515 26.0133 161.31 24.2756C161.615 23.5633 162.16 22.8376 162.411 22.1423C162.562 21.7202 162.588 21.2489 162.714 20.8211C162.939 19.9636 163.122 19.0459 163.427 18.3294C163.74 17.5641 164.523 16.0888 164.732 15.1481C164.833 14.7187 164.769 14.3114 164.853 13.9795C164.977 13.3953 165.416 12.8356 165.424 12.3343C166.66 12.0442 168.289 12.2403 169.397 12.8509C170.168 12.8227 171.104 12.904 171.83 13.132C171.849 14.4289 171.266 15.6745 171.159 17.0784L171.167 17.0871ZM160.589 26.7091C160.266 26.7335 159.986 27.3199 160.006 27.5064C160.167 27.1918 160.451 27.054 160.589 26.7091ZM169.022 20.0988C168.978 20.1988 169.003 20.3855 169.048 20.2609C169.092 20.1609 169.076 19.9501 169.022 20.0988ZM169.904 17.0834C169.86 17.1834 169.906 17.3755 169.955 17.2512C169.974 17.1496 169.953 16.9591 169.904 17.0834Z" fill="#F7F8C5"/>
<path d="M182.763 15.4739C183.607 15.5368 185.674 15.7572 186.499 16.4071C186.705 16.5438 186.865 16.8545 187.096 17.1039C187.619 17.6725 187.744 17.7053 187.983 18.3337L188.638 18.5078C188.576 18.948 188.384 18.5489 188.242 18.7783C188.201 19.0347 188.312 19.227 188.557 19.3169C188.635 20.1446 188.938 20.9252 188.91 21.8571C188.873 22.3031 188.729 22.7503 188.698 23.1719C188.64 24.3117 188.685 25.454 188.343 26.5506C188.217 27.0278 187.865 27.4451 187.593 27.9663C187.178 28.7168 186.796 29.1568 186.304 29.6967C185.864 30.1452 185.466 30.6336 184.992 31.1006C184.406 31.7001 183.941 32.3281 183.253 32.7936C182.927 33.0028 182.531 33.0881 182.214 33.2733C181.858 33.5011 181.6 33.8628 181.197 33.8655C181.039 33.958 180.955 34.1788 180.787 34.2954C180.245 34.2069 179.97 34.6456 179.466 34.617C179.663 34.3747 179.331 34.419 179.339 34.288C177.439 33.3298 175.686 32.3277 175.084 30.6393L174.655 30.5251C174.691 30.293 174.683 30.1032 174.658 29.9083C174.176 29.2971 174.009 28.5007 174.129 27.5377C174.007 27.5874 173.926 27.6973 173.906 27.8811C173.991 27.4465 173.843 27.005 173.852 26.549C173.908 26.1331 174.14 25.6587 174.212 25.1903C174.266 24.9881 174.173 24.83 174.217 24.656C174.376 24.0533 174.788 23.4096 175.099 22.7387C175.382 22.1689 175.675 21.464 176.035 20.9156C176.259 20.5722 176.668 20.3561 176.892 20.0127C176.989 19.8504 177.006 19.5841 177.121 19.4559C177.258 19.2508 177.55 19.0559 177.741 18.8379C178.139 18.3496 178.396 17.8808 178.858 17.4666C179.323 17.0237 179.497 16.8828 180.024 16.6167C180.439 16.3762 181.074 15.8991 181.645 15.9691C182.101 15.4721 182.776 15.3513 183.231 14.8544C183.563 15.1309 182.836 15.236 182.771 15.4868L182.763 15.4739ZM174.666 25.4707C174.71 25.6175 174.404 25.6429 174.595 25.7458C174.635 25.7031 174.845 25.5151 174.666 25.4707ZM184.713 17.0646C184.428 16.8281 183.693 16.5543 183.259 16.4644C183.031 16.6183 183.116 16.6979 182.981 17.0099C182.236 17.0809 181.801 17.5052 181.259 17.9266C179.782 19.1512 178.65 20.682 177.591 22.5548C176.885 23.7965 176.023 24.7236 175.846 26.3163C175.857 26.5885 175.544 26.342 175.526 26.6082C175.433 27.4701 175.806 28.5102 175.29 29.2377C175.553 29.8717 176.291 30.2281 176.11 31.1212C177.184 31.9435 177.853 32.9782 179.658 33.3749C180.16 33.1031 180.893 32.9737 181.003 32.3557C181.422 32.3046 181.651 31.937 181.996 31.7578C182.08 31.537 181.952 31.4218 182.072 31.1581C182.974 30.1841 183.913 29.2784 184.704 28.1122C184.636 27.9597 184.468 27.8871 184.616 27.6334C185.136 26.5854 185.892 25.6554 186.285 24.4675C186.98 22.4436 186.733 20.227 186.405 18.5029C185.999 18.0981 185.59 18.1251 185.216 17.8129C184.992 17.6462 184.931 17.2556 184.713 17.0605L184.713 17.0646ZM176.926 22.2196C176.789 22.4246 176.588 22.4815 176.525 22.8147C176.776 22.8804 176.981 22.3178 176.926 22.2196ZM177.901 20.5676C177.57 20.9122 177.259 21.2582 176.984 21.6969C177.372 21.5575 177.826 20.9494 177.901 20.5676ZM180.873 17.6671C181.094 17.7514 181.521 17.2485 181.364 17.337C181.288 17.4226 181.153 17.4179 181.022 17.4094C180.989 17.5348 180.962 17.6359 180.873 17.6671ZM182.312 16.5964C182.187 16.5636 182.123 16.6006 182.071 16.6959C182.172 16.7231 182.261 16.6918 182.312 16.5964ZM183.17 15.9898C183.05 15.9327 182.956 15.9883 182.911 16.0552C183.031 16.1123 183.1 16.0511 183.17 15.9898ZM183.747 30.3165C183.717 30.5243 183.358 30.6697 183.517 30.8734C183.572 30.6712 183.931 30.5259 183.747 30.3165ZM184.548 16.5685C185.224 16.8551 185.315 17.7412 185.957 17.8528C185.908 17.2202 185.482 16.4893 184.548 16.5685ZM184.117 30.9534C184.152 31.2312 183.702 31.1938 183.909 31.4376C183.947 31.2879 184.457 31.0988 184.117 30.9534ZM184.569 29.2428C184.461 29.4579 184.065 29.7283 184.164 29.9693C184.254 29.7242 184.674 29.4594 184.569 29.2428ZM185.078 29.9668C185.038 30.0094 184.828 30.1974 184.996 30.27C184.962 30.0991 185.264 30.0734 185.078 29.9668ZM185.524 27.9597C185.43 28.0153 185.382 28.189 185.282 28.273C185.444 28.3699 185.65 27.9925 185.524 27.9597ZM186.199 17.2432C186.324 17.276 186.203 17.4327 186.392 17.4285C186.478 17.3147 186.271 17.0751 186.199 17.2432ZM186.056 26.863C186.103 27.0923 185.761 27.1606 185.942 27.2916C186.006 27.2546 186.2 26.9299 186.056 26.863ZM187.28 27.7238C186.959 27.7195 186.697 28.4018 186.714 28.6496C186.843 28.3619 187.05 28.0915 187.28 27.7238ZM187.401 23.6925C187.374 23.7936 187.382 23.9833 187.445 23.8393C187.49 23.7724 187.492 23.5545 187.401 23.6925ZM187.541 22.0358C187.514 22.1368 187.562 22.4731 187.631 22.3007C187.606 22.188 187.603 22.1055 187.541 22.0358ZM187.559 26.9646C187.499 27.191 187.143 27.4188 187.297 27.6468C187.316 27.356 187.707 27.2168 187.559 26.9646Z" fill="#F7F8C5"/>
<path d="M204.349 39.8454C204.479 39.9443 204.189 40.2299 204.352 40.3145C203.626 40.9708 203.113 42.1098 202.514 43.0335C202.174 42.7482 202.081 42.8532 201.899 42.8167C201.538 42.6617 202.074 42.0795 202.072 41.8572C201.853 41.2302 202.493 40.1857 201.977 39.6999C201.453 39.5425 201.239 39.6068 200.847 39.3017C200.636 39.2016 200.688 39.6039 200.523 39.6015C200.253 39.5881 200.313 39.4151 200.408 39.2279C200.112 39.2869 200.052 39.7643 199.742 39.7935C199.53 39.6934 199.742 39.4069 199.794 39.1758C199.261 38.5737 198.421 38.5274 197.369 38.0767C197.003 37.946 196.702 37.7044 196.356 37.5832C196.038 37.4722 195.676 37.4816 195.33 37.3604C194.747 37.2116 194.161 36.9227 193.588 36.7498C192.533 36.4634 191.462 36.3611 190.641 35.9623C190.526 35.8932 190.446 35.7276 190.47 35.7374C190.346 35.6923 190.15 35.7907 189.929 35.7106C189.324 35.4698 188.262 34.9609 187.694 35.1708C187.008 35.3978 186.337 36.0453 185.908 36.6386C185.634 36.8717 185.281 36.8571 185.092 37.2356C185.242 36.5707 185.776 35.684 185.977 34.8744C186.047 34.6774 185.909 34.5204 186.028 34.3389C186.247 33.9459 186.74 33.9572 186.862 33.5292C187.79 33.5523 188.472 34.2053 189.338 34.4835C190.498 34.8631 191.05 34.4793 191.964 33.753C192.547 33.2684 193.017 32.8012 193.263 32.2535C193.322 32.1628 193.413 32.2221 193.509 32.2572C193.896 31.62 194.408 31.028 194.866 30.3626C194.949 30.2816 194.835 30.2125 194.884 30.1498C194.894 30.1258 195.215 29.9903 195.275 29.8996C195.334 29.8088 195.352 29.5961 195.421 29.4813C195.579 29.2612 195.658 29.1223 195.843 28.7477C196.202 27.9648 196.87 27.2348 197.336 26.4629C197.766 25.7875 198.071 25.1491 198.15 24.3768C198.641 24.5485 198.718 23.8584 198.937 23.4694C198.747 23.5394 198.674 23.9008 198.419 23.839C198.852 22.9991 199.824 22.3464 199.795 21.2628C200.053 21.1602 200.311 21.0576 200.56 20.8969C201.202 20.955 202.078 21.5136 202.665 21.4159C202.874 21.6845 204.027 22.1705 204.555 22.0814C204.648 22.363 204.987 22.2616 205.464 22.3994C205.719 22.4612 205.919 22.6716 206.126 22.7138C206.387 22.7513 206.623 22.4746 206.961 22.842C207.123 23.0088 206.979 23.2627 207.106 23.526C207.007 23.6553 206.913 23.8425 206.785 23.9659C206.827 24.4745 206.494 25.1028 206.079 25.9767C206.038 26.0975 205.869 26.177 205.804 26.292C205.659 26.6281 205.634 27.005 205.466 27.2491C204.401 29.0228 203.136 32.5481 202.514 34.7864C202.366 35.2869 202.128 35.7239 202.024 36.1861C201.878 36.9088 201.973 37.7376 201.433 38.5705C202.092 39.1315 203.712 39.4545 204.349 39.8454ZM200.976 21.763C200.446 22.0166 200.439 22.5097 200.189 23.057C200.019 23.4655 199.727 23.5824 199.525 23.8449C199.048 24.4227 198.898 25.0834 198.524 25.8366C198.107 26.628 197.322 27.3711 196.874 28.2592C196.526 28.9359 196.344 29.4506 196.011 30.079C195.535 30.9612 194.991 31.7322 194.469 32.4304C194 33.0664 193.672 33.3619 193.212 33.7269C192.679 34.1448 192.213 34.6164 191.687 34.9278C191.414 35.0788 191.822 35.2492 191.638 35.299C191.441 35.2286 191.197 35.0606 191.097 35.2721C194.4 36.5433 195.653 36.8179 199.05 37.9018C199.743 35.775 201.016 34.348 201.213 32.4604C201.757 31.9363 201.82 30.5789 202.173 29.9601C202.21 29.6993 202.477 29.9552 202.491 29.6846C203.543 27.1614 204.355 25.1575 205.102 22.9683C204.573 22.753 204.153 22.6888 203.822 22.8483C202.868 22.3463 201.825 22.2581 200.976 21.7671L200.976 21.763ZM193.312 32.8244C193.058 33.3138 192.365 33.4828 192.281 33.9503C192.576 33.5869 193.441 33.3099 193.312 32.8244ZM203.185 29.129C203.158 29.2836 202.932 29.5363 203.179 29.5399C203.263 29.3768 203.324 29.2038 203.185 29.129Z" fill="#F7F8C5"/>
<path d="M213.594 25.946C213.81 26.0422 213.965 25.9412 214.195 26.0672C214.445 26.4042 214.882 26.5107 215.18 26.7316C215.858 27.2567 216.256 28.0312 217.025 28.2826C216.871 28.6962 217.487 28.4565 217.323 28.8983C217.947 29.2884 218.043 29.5866 218.259 30.4479C218.364 30.9195 218.383 31.328 218.42 31.8857C218.463 32.5013 218.476 33.5017 217.879 34.4049C217.469 35.0776 216.757 35.2741 216.261 35.8795C215.54 36.1001 214.937 36.6328 214.173 36.7478C214.014 36.8486 213.88 36.9591 213.773 37.1414C213.514 37.0835 213.61 36.9293 213.417 36.9826C212.388 37.3231 211.301 37.5282 210.132 37.4689C209.616 39.089 209.177 40.3438 208.372 41.9781C208.747 42.2862 208.895 42.6619 208.644 43.2338C207.822 42.8432 206.587 42.6109 205.962 41.9658C206.097 41.6579 206.338 41.5624 206.53 41.3898C206.994 39.9473 207.832 38.6936 208.353 37.2508C208.459 37.0149 208.445 36.722 208.561 36.4621C208.652 36.1884 208.864 35.9717 208.989 35.6837C209.226 35.0204 209.362 34.2559 209.574 33.5828C209.806 32.8615 210.096 32.1358 210.274 31.4769L211.042 28.5734C211.235 27.9484 211.616 27.4054 211.804 26.7184C211.929 26.3769 212.035 26.9061 212.16 26.6181C212.435 26.315 211.969 26.2766 212.185 25.978C212.542 25.6803 213.089 25.8639 213.364 25.3634C213.547 25.5275 213.739 25.6716 213.59 25.9457L213.594 25.946ZM208.269 39.3142C208.186 39.5063 208.042 39.6985 208.225 39.805C208.321 39.5891 208.36 39.4353 208.269 39.3142ZM213.091 36.435C213.48 36.5219 213.548 36.2384 213.808 36.0989C214.183 35.8929 214.433 35.7775 214.814 35.4896C215.609 34.8459 215.782 34.0675 216.313 32.9954C216.375 32.8514 216.548 32.7844 216.635 32.6543C216.784 32.3802 216.915 31.9526 216.93 31.7891C217.002 30.856 216.75 29.8072 216.601 29.0571C216.442 28.9605 216.38 28.8454 216.158 28.7775C215.655 27.7906 214.323 26.9434 213.583 26.3648C213.516 26.4509 213.386 26.3644 213.319 26.3888C213.126 26.7012 213.9 26.6157 213.741 26.9139C213.611 27.3414 213.423 27.5678 213.788 27.9C213.147 29.3515 213.169 30.7227 212.201 31.8898C212.263 32.3997 212.007 32.9137 211.728 33.1589C211.733 33.0193 211.979 32.7844 211.835 32.7215C211.589 32.9565 211.666 33.3605 211.545 33.7023C211.381 34.1976 211.082 34.6923 210.884 35.2019C210.648 35.8653 210.551 36.5336 210.261 37.2017C211.088 37.1977 211.867 36.9726 212.666 36.8969C212.768 36.5991 213.018 36.7387 213.099 36.4355L213.091 36.435ZM211.403 29.041C211.239 29.4787 211.084 29.8965 211.041 30.2474C211.252 30.0267 211.522 29.3531 211.403 29.041ZM212.647 30.4708C212.459 30.8987 212.223 31.3647 212.275 31.7012C212.372 31.2879 212.858 30.7642 212.647 30.4708ZM215.541 35.6395C215.411 35.8655 214.934 35.8552 215.006 36.1437C215.108 35.8459 215.665 36.0054 215.541 35.6395ZM217.25 33.6361L217.154 33.852C217.303 34.0303 217.481 33.6264 217.25 33.6361ZM217.488 31.8088C217.449 32.2176 217.309 32.6692 217.544 32.9724C217.617 32.5493 217.79 32.0876 217.488 31.8088Z" fill="#F7F8C5"/>
<path d="M225.922 46.4637C225.555 47.061 225.525 48.0175 225.643 48.749C225.322 49.1971 225.496 49.8747 225.348 50.441C225.589 50.5964 225.634 50.7927 225.955 50.904C225.346 51.2882 224.591 50.3138 223.869 50.4068C223.737 50.6039 223.863 50.6984 223.697 50.9057C223.521 50.9601 223.432 50.6787 223.401 50.5163C223.161 50.4185 223.127 50.8729 222.843 50.6364C222.801 50.2635 223.225 50.073 223.503 50.1568C223.747 48.6714 224.073 47.1994 224.212 45.7482C223.75 45.4509 223.405 45.3298 222.896 45.2392C222.58 44.6634 221.908 44.4348 221.308 44.2355C220.141 43.8349 219.156 42.8538 218.243 42.4655C217.092 43.2136 216.05 44.3142 214.977 45.1948C215.473 45.5395 215.86 45.9183 216.437 46.219C215.777 46.8138 214.842 45.6262 213.93 45.7398C213.92 45.6445 213.923 45.5295 214.027 45.38C213.864 45.353 213.457 45.2896 213.555 45.0491C213.687 44.7944 213.999 44.9874 214.264 45.0951C214.992 44.7104 215.597 43.9393 216.39 43.7686C216.795 43.0997 217.334 42.8508 217.818 42.4297C218.031 42.2461 217.698 41.986 218.009 41.9445C218.175 41.6796 218.263 41.9609 218.43 41.9265C219.066 41.3795 219.784 40.8996 220.42 40.3526C221.896 39.0374 223.451 37.5629 225.076 36.3561C226.24 35.465 227.218 34.6564 228.09 33.3226C228.328 33.1529 228.64 33.2266 228.907 33.1617C229.01 33.4192 229.657 33.5229 229.76 33.7805C229.598 34.4281 229.125 35.0021 228.882 35.6403C228.626 36.2983 228.183 37.154 227.928 37.9271C227.621 38.9109 227.569 39.9687 227.368 40.9758C227.18 41.7862 226.982 42.6207 226.817 43.445C226.576 44.7538 226.104 46.0066 225.859 47.3727C225.787 46.7799 226.158 46.0635 225.9 45.545C225.734 45.6946 225.806 46.2299 225.918 46.4634L225.922 46.4637ZM223.071 38.2992C222.691 38.6324 222.398 39.033 222.032 39.3424C220.888 40.3007 219.863 41.205 218.756 42.0957C219.411 42.5248 220.881 43.1425 221.893 43.9608C222.1 44.0688 222.184 43.8481 222.426 44.0611C222.579 44.6099 223.787 44.8857 224.317 45.2202C224.758 43.8092 224.863 42.1913 225.517 40.6543C225.747 40.1591 226.102 39.6967 226.297 39.1541C226.372 38.9574 226.361 38.7469 226.459 38.5641C226.534 38.3674 226.709 38.2554 226.78 38.0584C226.948 37.6786 226.968 37.1286 227.106 36.644C227.324 35.9384 227.713 35.0833 227.566 34.6254C226.787 35.2783 226.091 35.9982 225.278 36.6037C224.561 37.1988 223.738 37.709 223.074 38.3035L223.071 38.2992ZM224.457 47.8125C224.291 47.9045 224.227 48.3076 224.296 48.4601C224.519 48.3718 224.607 47.9744 224.457 47.8125ZM224.805 45.5604C225.275 43.6371 225.865 42.3303 225.95 40.6453C225.333 42.1724 225.207 43.5422 224.908 44.8514C224.868 45.0955 224.587 45.2995 224.805 45.5604ZM225.708 44.4466C225.684 44.5521 225.39 44.7798 225.64 44.9112C225.825 44.1581 226.224 43.3366 226.236 42.6423L226.006 43.0798C225.953 43.5206 225.852 43.9953 225.703 44.4464L225.708 44.4466ZM226.3 43.8146C226.259 44.0587 226.023 44.3437 226.172 44.5097C226.233 44.2791 226.507 43.9802 226.3 43.8146ZM228.737 33.8252C228.558 34.1715 228.694 34.4189 228.792 34.6762C228.866 34.3642 229.059 33.9942 228.737 33.8252Z" fill="#F7F8C5"/>
<path d="M240.921 40.2457C239.321 42.466 239.53 44.5074 239.338 46.4528L239.253 47.2617C239.194 47.842 239.274 48.386 239.23 48.9426C239.196 49.475 238.891 50.0517 239.178 50.5721C238.97 50.9946 239.061 51.4818 238.641 51.8042C239.103 51.8506 239.241 51.4441 239.53 51.2284C240.492 50.5462 241.639 49.8555 242.677 49.1948C243.239 48.8446 243.716 48.53 244.307 48.0418C244.478 47.8719 244.643 47.6111 244.82 47.4746C245.147 47.2531 245.587 47.1911 245.885 46.9184C246.503 46.3867 246.679 45.5755 247.288 45.0062C247.641 45.0784 247.989 45.1133 248.288 44.9353C248.622 45.4258 248.876 45.1256 249.253 45.2117C248.828 45.9287 251.003 46.3864 250.88 47.2052C250.209 46.9025 249.288 45.8803 248.586 46.1145C247.385 47.3241 246.686 49.0968 245.778 50.2761C245.672 50.3926 245.576 50.5467 245.41 50.5648C245.361 50.9318 245.259 50.9951 245.05 51.4176C244.997 51.3524 245.089 51.2597 245.003 51.2006C244.903 51.5972 244.519 51.815 244.594 51.9885C244.454 52.1152 244.316 52.5217 243.946 52.7157C243.857 53.5819 242.999 54.057 242.482 54.8666C241.882 55.8108 241.654 56.9888 240.821 57.3256L239.787 58.9491C239.668 59.1841 240.174 59.258 240.164 59.4672C240.062 59.7732 239.821 59.6177 239.644 59.7502C239.605 59.9081 240.134 59.9999 239.864 60.2292C239.289 60.0192 238.679 59.7205 238.089 59.4355C238.044 59.3132 238.164 59.173 238.26 59.0188C237.78 58.8067 236.967 58.5319 236.919 58.0722C237.341 57.8486 238.199 58.2416 238.431 58.6021C238.679 58.4537 238.852 58.1317 239.079 57.8749C239.284 57.699 238.822 57.6485 238.97 57.4647C239.353 56.815 239.776 56.2502 240.128 55.6437C240.695 54.7097 241.07 53.6851 241.591 52.814C242.533 51.2873 243.772 50.072 244.56 48.4449C241.867 50.3968 238.628 51.7581 236.762 55.1622C236.575 55.2611 236.376 55.2852 236.196 55.327C236.084 55.5954 236.136 55.9977 235.747 56.0301C235.524 55.6084 235.687 55.2529 235.15 55.033C235.421 54.6516 235.062 54.7312 235.017 54.4238C234.996 54.1634 235.314 54.1511 235.471 54.005C235.66 53.322 235.53 52.6555 235.651 51.9312C235.735 51.4595 236.028 51.0014 236.207 50.5276C236.331 50.1408 236.292 49.7187 236.436 49.3455C236.591 48.8579 236.88 48.457 237.035 47.9694C237.253 47.3377 237.39 46.6844 237.564 46.0252C237.758 45.3797 238.027 44.7185 238.16 44.1225C238.421 43.0864 238.076 42.1262 238.268 41.1967C237.793 41.6019 237.481 42.2357 237.122 42.7513C234.694 46.0777 231.71 49.0186 229.421 52.6132C229.277 52.9824 229.885 53.1863 229.6 53.5915C229.359 53.436 229.284 53.2666 229.209 53.0931C228.613 53.2066 228.505 52.6444 227.846 52.47C227.897 52.1936 227.599 52.0345 227.89 51.7284C228.184 51.7022 228.516 51.9088 228.745 52.1787C229.494 51.2976 230.346 50.3945 231.161 49.3079C231.82 48.4663 232.442 47.4413 233.04 46.6492C234.016 45.3593 235.133 44.1894 236.08 42.8482C236.857 41.7716 237.601 40.701 238.451 39.7031C238.125 39.5874 238.168 39.183 238.095 38.8574C238.159 38.5613 238.569 38.4521 238.484 38.245C238.846 38.939 239.98 39.72 240.922 40.2294L240.921 40.2457ZM235.31 44.5012C235.121 44.7522 234.893 44.9142 234.726 45.2695C234.897 45.0996 235.307 44.7437 235.31 44.5012ZM235.979 43.6931L236.217 43.3219C236.525 43.0868 236.875 42.3856 237.144 42.1563C237.426 41.8126 237.667 41.1948 237.247 41.8503L236.995 42.2453C236.869 42.3482 236.55 42.7018 236.339 43.0296C236.164 43.2568 235.751 43.8552 235.979 43.6931ZM236.07 52.2627C236.001 52.3734 236.003 52.4682 236.076 52.5429C236.145 52.4321 236.11 52.3476 236.07 52.2627ZM236.516 50.449C236.391 50.9838 236.011 51.5762 236.117 52.0437C236.299 51.5126 236.476 50.9481 236.516 50.449ZM237.543 47.8666C237.221 48.7095 237.116 49.5048 236.974 50.31C237.31 49.4433 237.547 48.6401 237.543 47.8666ZM237.183 51.7714C236.945 52.1426 236.788 52.5355 236.947 52.8214C237.057 52.4583 237.271 52.0732 237.183 51.7714ZM237.733 50.0877C237.455 50.6209 237.127 51.1837 237.266 51.641C237.448 51.1099 237.706 50.5631 237.733 50.0877ZM238.042 45.4433C237.967 45.7059 237.765 45.9765 237.921 46.1676C238.124 45.897 238.127 45.6504 238.042 45.4433ZM238.213 48.0786C238.064 48.5996 237.658 49.145 237.773 49.5885C238.108 49.0631 238.128 48.5503 238.213 48.0786ZM238.389 47.5101C238.336 47.6918 238.151 47.8813 238.349 48.0093C238.402 47.8276 238.441 47.6698 238.389 47.5101ZM238.795 43.7276C238.508 44.2231 238.461 44.6849 238.519 45.1247C238.674 44.637 238.782 44.1833 238.795 43.7276ZM241.163 56.122C241.045 56.357 240.919 56.4599 240.775 56.5863C240.951 56.7911 241.222 56.2246 241.163 56.122ZM242.07 54.6959C241.853 54.9904 241.199 55.6226 241.34 55.9895C241.548 55.5671 242.045 55.081 242.07 54.6959ZM243.625 50.7535C243.707 50.6231 243.987 50.4273 243.878 50.2064C243.068 51.4783 241.99 52.4902 241.557 53.8483C242.559 52.6669 242.887 51.8573 243.621 50.7532L243.625 50.7535ZM241.891 54.1496C242.494 52.963 243.405 52.3063 243.669 51.2129C243.146 52.1744 242.508 52.9392 242.164 53.4311C242.04 53.6287 241.719 53.8876 241.891 54.1496ZM243.618 52.2584C243.388 52.5726 242.998 52.9422 242.862 53.4434C243.118 53.2379 243.573 52.5722 243.618 52.2584Z" fill="#F7F8C5"/>
<path d="M253.847 65.1743C253.377 65.6991 253.185 66.6327 253.17 67.3762C252.775 67.7619 252.828 68.4605 252.584 68.9917C252.793 69.1863 252.801 69.3883 253.102 69.556C252.435 69.8294 251.864 68.7353 251.134 68.7003C250.971 68.8707 251.079 68.9847 250.878 69.1609C250.696 69.186 250.657 68.8915 250.655 68.7269C250.434 68.5891 250.323 69.0303 250.082 68.7473C250.106 68.3746 250.558 68.2599 250.813 68.3916C251.312 66.972 251.892 65.5781 252.283 64.1762C251.884 63.8007 251.562 63.6194 251.076 63.444C250.865 62.8215 250.246 62.477 249.686 62.1774C248.606 61.5768 247.807 60.4392 246.979 59.9001C245.714 60.4351 244.496 61.3392 243.288 62.0136C243.713 62.4401 244.034 62.8805 244.547 63.2757C243.793 63.7451 243.081 62.4115 242.167 62.3646C242.173 62.2704 242.197 62.1568 242.328 62.0296C242.172 61.9742 241.785 61.8422 241.923 61.6208C242.098 61.3936 242.37 61.6374 242.611 61.7888C243.397 61.5394 244.126 60.8875 244.938 60.8537C245.454 60.266 246.031 60.1184 246.579 59.7878C246.818 59.6429 246.539 59.3286 246.854 59.345C247.067 59.112 247.101 59.4062 247.27 59.4007C247.993 58.9705 248.785 58.6269 249.507 58.2007C251.191 57.1664 252.983 55.9828 254.794 55.0801C256.096 54.4077 257.202 53.7842 258.293 52.621C258.556 52.4941 258.848 52.6241 259.125 52.605C259.177 52.8757 259.801 53.093 259.853 53.3638C259.579 53.9753 259.013 54.4569 258.663 55.0388C258.298 55.6446 257.71 56.4044 257.322 57.1237C256.848 58.039 256.612 59.0726 256.237 60.0273C255.912 60.7918 255.569 61.5799 255.263 62.3622C254.796 63.6111 254.113 64.7555 253.633 66.0612C253.668 65.4629 254.158 64.8242 253.992 64.2705C253.804 64.3858 253.781 64.9273 253.851 65.1786L253.847 65.1743ZM252.472 56.6365C252.043 56.8967 251.68 57.2392 251.265 57.4797C249.971 58.2225 248.802 58.9324 247.556 59.6167C248.126 60.1555 249.465 61.0155 250.314 62.0002C250.498 62.1437 250.622 61.942 250.82 62.1934C250.878 62.7606 252.015 63.2416 252.477 63.6664C253.158 62.3532 253.548 60.7825 254.457 59.3813C254.77 58.9326 255.203 58.5411 255.486 58.0412C255.592 57.8589 255.622 57.6511 255.748 57.4865C255.855 57.3042 256.049 57.2263 256.155 57.044C256.388 56.6971 256.504 56.1658 256.723 55.707C257.062 55.0503 257.593 54.2744 257.53 53.8013C256.649 54.3078 255.838 54.8928 254.933 55.3482C254.121 55.8057 253.222 56.1669 252.467 56.6363L252.472 56.6365ZM252.169 66.246C251.993 66.3045 251.857 66.6946 251.895 66.8576C252.129 66.8069 252.285 66.4345 252.169 66.246ZM252.91 64.0893C253.71 62.2779 254.523 61.0966 254.901 59.4512C254.025 60.8464 253.663 62.1721 253.139 63.409C253.058 63.6424 252.744 63.7947 252.914 64.0896L252.91 64.0893ZM253.991 63.1516C253.947 63.2517 253.619 63.4237 253.846 63.5989C254.16 62.8911 254.697 62.1527 254.828 61.466L254.527 61.8578C254.397 62.2813 254.215 62.7343 253.991 63.1516ZM254.682 62.633C254.601 62.8663 254.318 63.1071 254.434 63.2955C254.534 63.0799 254.855 62.8333 254.682 62.633ZM258.829 53.2275C258.591 53.537 258.681 53.802 258.738 54.073C258.868 53.7771 259.12 53.4479 258.829 53.2275Z" fill="#F7F8C5"/>
</svg>
