<svg width="103" height="72" viewBox="0 0 103 72" fill="none" xmlns="http://www.w3.org/2000/svg">
<path d="M17.9547 54.143C18.0961 54.0845 18.1724 54.4418 18.3149 54.3496C18.4624 55.2117 19.0938 56.1201 19.5068 56.9956C19.1177 57.1384 19.1558 57.2579 19.0374 57.3847C18.7428 57.6024 18.5553 56.9205 18.3812 56.8258C17.7895 56.7251 17.2994 55.7583 16.6721 55.9519C16.2929 56.2977 16.2354 56.4941 15.8114 56.6694C15.6298 56.794 15.9629 56.928 15.8823 57.0603C15.74 57.2707 15.6346 57.1446 15.5386 56.9893C15.4409 57.2519 15.7783 57.5042 15.6469 57.7656C15.4652 57.8902 15.3487 57.5991 15.1975 57.4545C14.4701 57.6109 14.0257 58.2542 13.1553 58.8869C12.8728 59.122 12.539 59.2498 12.2782 59.4687C12.0347 59.6714 11.8643 59.961 11.6034 60.18C11.2014 60.5756 10.6916 60.9126 10.2733 61.2865C9.53114 61.9954 8.9294 62.7936 8.2163 63.2714C8.1087 63.331 7.94018 63.3209 7.96184 63.3048C7.87052 63.3818 7.84244 63.5835 7.67725 63.7213C7.19579 64.0931 6.27955 64.7073 6.16362 65.2522C6.00202 65.8967 6.17236 66.7089 6.4176 67.3085C6.46134 67.6308 6.27884 67.9031 6.47496 68.2139C6.03748 67.8019 5.61385 66.9894 5.0871 66.473C4.96948 66.3338 4.77827 66.3694 4.69977 66.1979C4.50481 65.8534 4.75465 65.4652 4.48582 65.1815C4.96252 64.4592 5.79875 64.2052 6.43872 63.6447C7.3048 62.8937 7.27505 62.2889 7.16754 61.2467C7.08109 60.5724 6.94911 59.9937 6.64744 59.5611C6.60819 59.4753 6.69834 59.432 6.77236 59.367C6.47186 58.7783 6.26675 58.1168 5.97702 57.4609C5.95522 57.3588 5.84762 57.4184 5.82044 57.3499C5.80415 57.3325 5.86147 57.0178 5.82222 56.932C5.78296 56.8462 5.62638 56.7353 5.57084 56.632C5.48144 56.4094 5.40962 56.2887 5.21364 55.9738C4.7836 55.3468 4.55132 54.4944 4.18322 53.7851C3.87589 53.1496 3.53512 52.627 2.97491 52.2235C3.34877 51.9113 2.85473 51.5481 2.65992 51.1994C2.61992 51.3795 2.86577 51.5949 2.69084 51.7704C2.25527 51.0587 2.23268 50.0025 1.37863 49.5508C1.42518 49.3034 1.47173 49.0559 1.47262 48.7857C1.83545 48.3043 2.69525 47.857 2.907 47.3493C3.21686 47.3009 4.1571 46.603 4.35008 46.1496C4.61428 46.2009 4.70111 45.8873 5.04123 45.574C5.21195 45.3983 5.47601 45.3315 5.60761 45.1883C5.76626 44.9953 5.66713 44.6879 6.11832 44.5811C6.32712 44.525 6.45011 44.753 6.71984 44.7665C6.76999 44.9034 6.87016 45.0588 6.90286 45.2119C7.3184 45.4036 7.63751 45.9424 8.10681 46.6552C8.1798 46.7421 8.16132 46.9103 8.21263 47.0134C8.39771 47.2774 8.67847 47.4602 8.78415 47.7002C9.63142 49.3253 11.7259 51.8759 13.1441 53.3476C13.4576 53.6835 13.6808 54.067 13.9791 54.3517C14.4666 54.7823 15.153 55.0762 15.5268 55.8659C16.2835 55.5923 17.3319 54.4507 17.9428 54.1214L17.9547 54.143ZM2.34838 48.854C2.28363 49.3837 2.66006 49.6078 2.96158 50.0446C3.19129 50.3608 3.14358 50.642 3.24388 50.9156C3.45422 51.5477 3.8917 51.9597 4.2838 52.5854C4.69101 53.2623 4.87777 54.2101 5.34169 54.9565C5.69337 55.5302 6.00144 55.8997 6.32055 56.4384C6.76702 57.2011 7.09076 57.9722 7.37395 58.6955C7.63009 59.346 7.70101 59.7369 7.75476 60.258C7.81404 60.8637 7.94601 61.4425 7.93128 61.9908C7.91308 62.273 8.24665 62.027 8.19458 62.1899C8.0467 62.3156 7.79354 62.4335 7.90999 62.6064C10.5139 60.556 11.3461 59.6856 13.85 57.4755C12.5504 55.991 12.0749 54.3576 10.7158 53.3734C10.5781 52.7143 9.56197 52.067 9.2603 51.512C9.07536 51.3663 9.40805 51.268 9.20566 51.1386C7.77827 49.1979 6.63205 47.6723 5.30946 46.1194C4.88441 46.4467 4.62921 46.746 4.58817 47.0781C3.73389 47.6101 3.14944 48.3962 2.35274 48.8499L2.34838 48.854ZM7.10849 59.7797C7.36 60.1979 7.14853 60.8196 7.47276 61.0884C7.33437 60.6952 7.55225 59.8879 7.10849 59.7797ZM9.11471 50.3502C9.22143 50.4383 9.30428 50.7283 9.42906 50.5384C9.34517 50.4004 9.24398 50.2745 9.11471 50.3502Z" fill="#F7F8C5"/>
<path d="M20.4691 35.4819C20.1112 35.8199 19.4721 36.3551 18.9168 36.6652C17.4361 37.4879 15.1578 39.1569 13.6379 40.2569C14.2821 41.0391 14.9228 42.4122 15.7829 43.5438C16.3772 44.3031 17.0941 45.0583 16.975 45.8183C17.1548 46.1116 17.3319 46.2401 17.5266 46.4706C17.8576 46.1781 18.4021 45.9352 18.7815 45.5852C18.8863 45.4833 18.9323 45.2527 19.0024 45.1791C19.0629 45.139 19.1488 45.218 19.1999 45.2071C19.345 45.1614 19.5175 44.8128 19.7377 44.9133C19.8725 44.6773 19.5582 44.3667 19.5249 44.108C19.665 43.8426 19.9027 43.9269 20.1272 43.9051C20.3313 43.9839 20.2582 44.5133 20.6385 44.5011C20.4646 45.0144 21.2032 45.5085 21.3798 46.1394C20.8638 46.168 20.4513 46.0102 20.1685 45.3968C19.5038 46.0619 18.8769 46.7326 18.364 47.403C18.7756 48.3207 19.7856 49.8796 20.2884 50.8427C20.3354 50.9498 20.413 51.1467 20.4533 51.203C20.5056 51.2766 20.6789 51.2699 20.6843 51.2363C20.691 51.2872 20.5645 51.4053 20.5779 51.5071C20.5859 51.6424 20.744 51.9519 20.7626 52.0243C20.9329 52.351 21.1921 52.4233 21.3503 52.7327C21.5034 52.8224 21.4957 52.4338 21.6689 52.6762C24.2207 50.4214 25.8798 48.714 28.8562 46.6343C29.0004 46.2509 28.1478 45.757 28.5055 45.4232C28.8767 45.187 29.22 45.7603 29.3152 46.0591C29.46 46.2668 29.7536 45.8337 29.8782 46.1377C29.9043 46.8479 28.9244 46.9828 28.3459 47.4737C28.268 47.5301 28.1751 47.6535 28.1092 47.7272L26.3849 49.0017C24.7224 50.3205 23.2019 51.9271 21.8944 52.9922C21.9263 53.1664 21.6144 53.2738 21.7809 53.4653C21.0632 53.4658 20.7447 54.62 20.0486 54.6044C19.7493 54.2267 20.0626 54.1996 20.3209 53.9341C20.0767 52.4481 18.6926 51.2097 17.7656 49.814C17.8975 49.6624 17.9117 50.1062 18.0436 49.9545C16.6081 47.8827 15.3143 45.2543 13.4943 43.3127C13.2296 43.274 13.5546 43.5216 13.2936 43.6224C12.9636 43.155 13.0079 41.9956 12.1142 41.9563C12.0203 41.7419 12.0369 41.5061 11.7845 41.2356C11.5654 41.2238 11.2426 41.6475 11.0598 41.4385C10.9422 40.9321 11.5261 40.4077 11.9961 40.6097C14.0004 39.0536 16.0741 37.8081 17.9435 36.488C18.7613 35.9126 19.5949 35.4897 20.3119 34.8981C20.6039 34.6338 20.7414 34.1995 21.3044 34.278C21.6709 34.6664 20.9123 35.1173 20.4603 35.4901L20.4691 35.4819ZM12.4918 41.2938C12.6692 41.1691 12.5918 40.7189 12.3473 40.8329C12.3996 40.9065 12.3096 40.9456 12.2274 41.0018C12.3051 41.1987 12.4316 41.0807 12.4918 41.2938ZM12.7633 42.4769C12.7886 42.6002 12.6571 42.4943 12.6221 42.4086C12.5631 42.2842 12.7067 42.4031 12.7633 42.4769ZM13.0839 40.6515C13.0462 40.7642 13.1388 40.894 13.2893 40.8148C13.2155 40.7531 13.1618 40.5951 13.0839 40.6515ZM15.1963 44.2708C15.2876 44.3161 15.3371 44.5923 15.442 44.4903C15.4797 44.3776 15.3308 44.2881 15.1963 44.2708ZM15.6874 44.9632C15.7787 45.0086 15.8283 45.2847 15.9331 45.1828C15.9708 45.0701 15.8219 44.9805 15.6874 44.9632ZM17.3739 47.2252C17.4678 47.4396 17.5979 47.461 17.539 47.3323C17.5323 47.2814 17.3083 47.0457 17.3739 47.2252ZM20.3486 52.3983L20.2038 52.1907L20.1044 52.259L20.2492 52.4667L20.3486 52.3983ZM20.9174 53.2877C20.7855 53.4393 20.7713 52.9956 20.6394 53.1472C20.6353 53.2653 20.7237 53.395 20.7196 53.513C20.7855 53.4393 20.9523 53.3775 20.9174 53.2877ZM20.9164 52.9499C21.0023 53.0289 21.0573 53.2714 21.1944 53.0904C21.1234 52.9444 21.0279 52.8989 20.9164 52.9499Z" fill="#F7F8C5"/>
<path d="M32.7645 27.7081C32.7617 28.0331 32.0764 28.0727 32.4779 28.551C32.021 28.455 31.6442 28.1211 31.3205 27.5906C30.2596 28.2379 29.3191 28.9441 27.9836 29.8394C28.3218 30.4379 28.5018 30.9719 28.9817 31.6217C29.0369 31.8558 29.2773 31.4968 29.3421 31.6975C30.9736 34.3291 32.0866 36.8162 33.7352 39.1951C33.8646 39.36 33.663 39.4544 33.6746 39.6068C34.3848 40.6783 34.7879 41.106 35.2366 42.1727C35.7659 41.6379 36.6831 42.5815 35.6515 42.9934C35.4014 43.1451 35.6296 43.381 35.413 43.5424C35.2155 43.6369 35.0574 43.5681 34.891 43.6214C34.6744 43.7786 34.073 44.2011 33.8232 43.9771C33.6698 43.7734 33.8355 43.6229 33.997 43.4681C33.8219 43.0399 33.5218 42.6833 33.1689 42.3883C33.0395 42.2234 33.107 42.1033 33.0782 41.9587C32.6984 41.7092 32.6706 41.2945 32.2813 41.0742C31.3612 38.6276 29.7896 36.0951 28.3092 33.6122C27.8817 32.9093 27.2392 31.7134 26.7043 30.6986C25.8455 31.1164 24.424 32.0594 23.7 32.6085C23.7284 33.1288 24.0593 33.5708 24.5114 33.806C24.2684 33.8736 24.2756 34.03 24.0782 34.1245C24.2412 34.2948 24.434 34.3352 24.4287 34.6095C24.1038 34.9698 23.8038 34.6132 23.5348 34.4561C22.9461 34.1445 22.1724 33.8096 21.6809 33.0073C22.0296 32.6901 22.1928 33.0968 22.4909 33.0227C22.6256 32.9133 22.3447 32.7348 22.3278 32.6118C22.4098 32.5597 22.4453 32.7551 22.5488 32.6912C25.9787 30.682 28.3846 29.1103 31.5437 26.754C31.6662 26.6274 31.7769 26.4792 31.8325 26.3376C32.0725 26.3543 32.3251 26.2533 32.5269 26.3996C32.4542 26.7939 32.3144 27.1733 32.7559 27.712L32.7645 27.7081ZM29.59 33.3188C29.3238 32.8367 29.1683 32.2065 28.7311 31.9086C29.064 32.7813 29.4191 33.7435 30.0333 34.4191C30.4761 34.0671 29.7818 33.6336 29.59 33.3188ZM33.4356 40.2909L32.9604 39.5061C32.8745 39.1823 32.5501 38.5505 32.2573 38.3504C32.4035 38.6383 32.6406 39.3515 33.0037 39.7187C33.1427 39.8501 33.4042 40.4671 33.4358 40.2866L33.4356 40.2909ZM34.2698 42.173C34.1186 41.7836 33.9004 41.3792 33.7786 40.9951C33.7546 40.9563 33.6995 40.9628 33.651 41.0202C33.7109 41.1194 33.6583 41.1767 33.5213 41.231C33.6241 41.6779 33.8571 42.0194 34.2656 42.1729L34.2698 42.173Z" fill="#F7F8C5"/>
<path d="M45.3471 21.2364C44.9446 21.5222 44.2411 21.9665 43.6463 22.195C42.0674 22.8075 39.5809 24.1485 37.9249 25.0326C38.4524 25.8952 38.9005 27.3419 39.6007 28.5819C40.087 29.4135 40.6909 30.2619 40.4713 30.9973C40.6081 31.3144 40.7676 31.4635 40.9276 31.7181C41.2948 31.4775 41.8664 31.3073 42.2904 31.0095C42.4075 30.9207 42.4869 30.6997 42.5651 30.6348C42.6295 30.6033 42.7025 30.6903 42.7575 30.6879C42.9062 30.6593 43.1283 30.3419 43.3308 30.4671C43.4944 30.2532 43.2281 29.8979 43.2327 29.6405C43.4059 29.3932 43.6341 29.5108 43.8574 29.5228C44.0479 29.6307 43.9034 30.145 44.2821 30.1834C44.0415 30.669 44.7009 31.2575 44.7924 31.9066C44.2747 31.8634 43.8894 31.6516 43.6922 31.0031C42.9422 31.5724 42.2298 32.1515 41.631 32.743C41.9101 33.7067 42.7005 35.3889 43.0703 36.4149C43.1003 36.5257 43.1522 36.7344 43.1838 36.7946C43.2275 36.8763 43.4001 36.8907 43.4097 36.8573C43.4079 36.9079 43.2693 37.0086 43.2658 37.1098C43.2527 37.2445 43.368 37.5735 43.3782 37.6457C43.5055 37.992 43.7509 38.0976 43.8662 38.4267C44.0059 38.537 44.0531 38.1503 44.1876 38.4124C47.0264 36.5264 48.9008 35.0629 52.1369 33.4101C52.3351 33.0497 51.5539 32.4443 51.9563 32.1627C52.3551 31.9823 52.6168 32.595 52.6694 32.905C52.7841 33.1285 53.1353 32.7396 53.2171 33.0591C53.1462 33.7659 52.1542 33.7653 51.5152 34.1739C51.4293 34.2173 51.3199 34.3275 51.2459 34.3925L49.3613 35.4208C47.5298 36.4973 45.8058 37.8858 44.3655 38.7605C44.3763 38.9382 44.0532 39.003 44.1894 39.2146C43.4792 39.1183 43.0064 40.2165 42.3178 40.1082C42.0748 39.6903 42.3865 39.7096 42.6814 39.4833C42.6405 37.979 41.4399 36.5612 40.7152 35.0543C40.8675 34.9245 40.8186 35.3619 40.9708 35.232C39.8328 32.9805 38.9113 30.2046 37.3737 28.0321C37.1145 27.9598 37.4043 28.2485 37.1361 28.311C36.8708 27.8036 37.0791 26.6625 36.1981 26.5012C36.1342 26.2752 36.1802 26.0446 35.9711 25.7419C35.7572 25.7007 35.3769 26.076 35.2288 25.8429C35.1791 25.3261 35.8319 24.8843 36.2702 25.1485C38.4672 23.8778 40.691 22.933 42.7286 21.8762C43.6141 21.4171 44.4986 21.11 45.2923 20.6224C45.6166 20.4014 45.8165 19.9903 46.3642 20.1444C46.6701 20.5771 45.8604 20.9206 45.3641 21.2328L45.3471 21.2364ZM36.6494 25.9047C36.8428 25.8058 36.829 25.3494 36.5687 25.429C36.6123 25.5108 36.5145 25.5327 36.4284 25.5804C36.4804 25.7848 36.6189 25.6883 36.6494 25.9047ZM36.7553 27.1157C36.7637 27.2385 36.6496 27.1205 36.6275 27.0269C36.5856 26.8946 36.716 27.0299 36.7553 27.1157ZM37.3229 25.3496C37.2687 25.4532 37.3439 25.5994 37.5021 25.5415C37.4369 25.4717 37.4089 25.3061 37.3229 25.3496ZM38.92 29.2212C39.0066 29.2791 39.0137 29.5622 39.1308 29.4734C39.185 29.3697 39.0453 29.2593 38.92 29.2212ZM39.3119 29.9736C39.3986 30.0314 39.4057 30.3145 39.5227 30.2257C39.5771 30.1178 39.4373 30.0117 39.3119 29.9736ZM40.6746 32.4439C40.7385 32.6699 40.8639 32.708 40.8221 32.5715C40.8239 32.5209 40.6304 32.2566 40.6746 32.4439ZM42.9108 37.9757L42.7961 37.7522L42.6887 37.8076L42.8034 38.0311L42.9108 37.9757ZM43.3548 38.9325C43.2025 39.0623 43.2514 38.6249 43.0992 38.7548C43.0784 38.868 43.1493 39.014 43.1285 39.1273C43.2025 39.0623 43.3769 39.0261 43.3548 38.9325ZM43.4 38.6005C43.4729 38.6917 43.4939 38.9373 43.6556 38.7782C43.6019 38.6244 43.5194 38.5666 43.4 38.6005Z" fill="#F7F8C5"/>
<path d="M52.3533 18.41C52.0385 18.7242 51.9428 18.438 51.624 18.503C51.5126 18.5498 51.6178 18.6801 51.4224 18.7155C52.1088 19.744 52.6151 21.0956 53.0843 22.4206C53.4246 23.3231 53.7119 24.1731 54.408 24.9191C54.3846 25.3532 54.7639 25.7378 55.0121 26.0081C55.229 25.8383 55.0295 25.6245 55.0493 25.4184C55.0786 25.3054 55.2646 25.1767 55.2861 25.0424C55.3153 24.9294 55.2176 24.9471 55.2528 24.7837C55.2959 24.515 55.2782 24.1724 55.3153 23.8317C55.3602 23.3858 55.5833 22.9165 55.5519 22.603C55.5462 22.2819 55.3468 21.9415 55.323 21.6536C55.3111 21.5097 55.4346 21.3577 55.4365 21.1805C55.4246 21.0365 55.3211 20.8556 55.3212 20.729C55.3291 20.5013 55.4758 20.2868 55.4914 20.0805C55.5267 19.7904 55.4445 19.7285 55.5304 19.4402C55.6008 19.2357 55.7768 18.9083 55.7162 18.5853L55.8962 18.5071C56.1936 17.3522 56.6667 16.2456 57.6974 15.3736C58.1258 15.439 58.4426 15.8004 58.6419 16.3857C58.6165 16.9969 57.8381 17.4091 57.2299 17.1727C55.6871 18.8165 55.8823 21.1072 56.2146 23.4618C56.5489 23.4396 57.0007 23.071 57.4583 23.0235C58.9697 23.2657 60.0256 24.1086 60.9641 25.9015C61.1969 26.3739 61.5957 26.9281 61.9338 27.4041C62.1881 27.7422 62.4851 28.1873 62.7394 28.403C63.242 28.8847 63.9714 28.7917 64.4603 29.1802C64.8358 29.0665 65.1349 29.0853 65.3265 29.4043C65.2561 29.4863 65.0976 29.5526 65.1309 29.6888C64.5696 29.6821 64.2079 29.7667 63.7033 29.707L63.4687 29.6567C63.1696 29.6379 62.7824 29.481 62.3169 29.6338C62.2152 29.4023 61.9786 29.5292 61.8047 29.4303C61.4527 29.2324 61.3648 28.7227 60.9208 28.7412C60.7311 28.1225 60.1369 27.4813 59.6676 27.1358C59.0909 26.1111 57.9879 25.2877 56.9126 25.0099C56.7171 25.0454 56.7933 25.162 56.627 25.2111C56.4041 25.309 56.3006 25.1281 56.1773 25.031C55.9542 25.3779 55.9563 25.8043 55.9835 26.2401C55.2659 26.6037 55.8112 27.4373 56.1104 28.1865C56.1593 28.1164 56.1165 28.0094 56.2571 27.972C56.261 28.5927 57.1254 28.7451 57.1781 29.2957C56.8789 29.526 56.826 29.2244 56.6228 29.2385C56.7538 29.4795 56.7716 29.6996 56.9787 29.9347C57.2348 30.2222 57.1372 29.9909 57.2602 30.4637C57.3816 30.8605 57.4576 31.1038 57.4909 31.3625C58.015 31.7099 58.6428 31.1363 59.1354 31.1745C59.2235 31.3126 59.0787 31.3498 59.196 31.4974C58.9789 31.7939 58.7717 31.6812 58.4803 31.8062C58.1887 32.0579 58.1947 32.1298 57.7156 32.3117C57.694 32.446 57.7958 32.6775 57.9541 32.8603C58.0089 32.9846 58.0734 32.7082 58.267 32.7234C58.1889 32.9064 58.224 33.1145 58.0421 33.2475C57.8408 33.0844 57.7606 32.7185 57.61 32.4347C56.8237 33.0745 55.9497 33.0781 55.2104 33.7027C55.412 33.4901 55.3239 33.352 55.2769 33.1224C55.7914 32.7729 55.8772 32.6112 56.3153 32.3942C56.016 31.6492 55.5549 30.7003 55.0407 29.8213C54.9859 29.697 54.8197 29.6195 54.765 29.4909C54.7102 29.3666 54.7765 29.1578 54.7259 29.0336C54.507 28.4055 54.1923 27.7402 53.9185 27.2326C53.8716 27.1254 53.725 27.0908 53.6779 26.9879C53.5059 26.7117 53.5019 26.3401 53.3513 26.0562C53.2495 25.8247 53.0071 25.6306 52.8292 25.2825C52.2328 24.2149 51.6365 22.9024 50.9717 21.862C50.8544 21.7144 50.8543 21.8369 50.6999 21.9075C50.9191 21.0623 50.1057 20.2912 49.8475 19.4548C49.5347 19.4651 49.1905 20.2637 48.8208 19.7233C48.9498 19.0438 50.3246 18.7198 50.7647 18.0807C51.1871 18.0742 51.4923 17.9158 51.9654 17.662C52.2001 17.7123 52.4971 18.1574 52.3487 18.4225L52.3533 18.41ZM50.9277 18.9813C50.9766 19.0336 50.9825 19.1056 51.051 19.0784C50.969 18.7632 50.615 18.8692 50.4272 19.0484C50.564 19.3656 50.6894 19.0364 50.9277 18.9813ZM51.092 19.3585C51.1407 19.5375 51.2776 19.728 51.2055 19.8606C51.4558 19.827 51.1939 19.3409 51.092 19.3585ZM54.6779 26.1485C54.7756 26.2532 54.7384 26.5981 54.9672 26.4498C54.8559 26.3742 54.8166 26.166 54.6779 26.1485Z" fill="#F7F8C5"/>
<path d="M71.2697 10.603C71.2038 10.9216 70.5191 10.8219 70.8209 11.3728C70.3926 11.1849 70.0899 10.7818 69.882 10.2004C68.7107 10.6201 67.6506 11.1238 66.1603 11.7351C66.3697 12.3925 66.4434 12.9481 66.7811 13.6817C66.7897 13.9226 67.0958 13.6166 67.118 13.8284C68.187 16.7319 68.7831 19.3953 69.9196 22.0563C70.0103 22.241 69.7975 22.2927 69.7752 22.4481C70.2533 23.6383 70.5653 24.1388 70.7921 25.2738C71.4188 24.8522 72.1277 25.9617 71.0316 26.1602C70.7579 26.2605 70.9342 26.5368 70.6896 26.6508C70.4767 26.7025 70.3365 26.6048 70.1629 26.6199C69.9183 26.7339 69.2455 27.023 69.0437 26.7543C68.9334 26.5268 69.1275 26.4068 69.3173 26.2909C69.2317 25.8363 69.0052 25.4274 68.7221 25.0672C68.6272 24.8824 68.7195 24.7758 68.7204 24.6281C68.3981 24.3045 68.4588 23.8929 68.1184 23.6025C67.7095 21.0216 66.6789 18.2249 65.722 15.4984C65.4449 14.7205 65.0549 13.4236 64.7343 12.3191C63.8101 12.5531 62.2258 13.1949 61.4101 13.5889C61.3375 14.1014 61.5692 14.6034 61.9676 14.9253C61.7137 14.9419 61.6915 15.0973 61.4786 15.1491C61.6026 15.3475 61.7855 15.4299 61.7257 15.6938C61.3359 15.98 61.1136 15.5713 60.8801 15.3648C60.3628 14.9416 59.6745 14.4577 59.3547 13.5727C59.7599 13.3292 59.8377 13.7667 60.1422 13.7519C60.2969 13.6728 60.0558 13.4407 60.0643 13.3186C60.1541 13.2837 60.1473 13.4819 60.2626 13.4437C64.0262 12.1637 66.7012 11.1079 70.2674 9.43274C70.4102 9.33213 70.5495 9.2103 70.6341 9.08235C70.8641 9.14519 71.1317 9.09955 71.3027 9.28277C71.1505 9.65325 70.9401 10.0006 71.261 10.6112L71.2697 10.603ZM67.0361 15.4636C66.8728 14.9387 66.8488 14.2877 66.4776 13.9118C66.6273 14.8331 66.7865 15.8476 67.2491 16.6319C67.7517 16.3791 67.1593 15.8098 67.0361 15.4636ZM69.4076 23.0687L69.0955 22.2051C69.0775 21.871 68.8859 21.1847 68.6371 20.9312C68.7235 21.2424 68.8117 21.9884 69.0963 22.4247C69.2049 22.5804 69.3384 23.2394 69.4076 23.0687ZM69.8446 25.0807C69.7744 24.6687 69.6419 24.2293 69.6009 23.8268C69.5855 23.7841 69.5308 23.778 69.4702 23.8223C69.5087 23.9292 69.4479 23.9777 69.3035 24.0023C69.3129 24.4628 69.4771 24.8442 69.8448 25.0764L69.8446 25.0807Z" fill="#F7F8C5"/>
<path d="M85.0014 4.63131C85.0651 5.23299 85.2302 5.82974 85.3833 6.28675C85.5989 6.15489 85.1703 5.60814 85.1743 5.24943C85.5305 5.08021 85.1778 4.53608 85.5051 4.34898C85.9271 4.23269 85.9816 4.9776 85.8026 5.14872C85.96 5.72409 85.8429 6.30264 85.9901 6.92832C86.0877 7.28209 86.3437 7.56958 86.477 7.86548C86.748 8.57566 86.8033 9.41769 87.0351 10.1603C87.7416 12.4391 88.5795 14.8238 89.372 17.0549C89.2716 17.1528 89.2333 17.2823 89.1115 17.3879C89.4369 18.1084 89.7354 19.001 89.9406 19.6582C90.3148 19.4601 90.7043 19.3047 91.1103 19.4074C91.1909 19.883 90.5529 19.7765 90.2436 19.9305C89.9913 20.0231 89.9651 20.2923 89.7322 20.1914C89.5457 20.3369 89.6243 20.6267 89.4744 20.8115C89.2579 20.8463 89.2729 20.5344 89.1909 20.3416C88.8993 20.4708 88.5345 20.5215 88.2719 20.6686C88.0307 20.8081 87.9643 21.0169 87.8083 21.0115C87.3618 20.4936 88.478 20.3254 88.8299 20.0378L88.7059 19.5944C88.6503 19.4912 88.5116 19.7186 88.3946 19.5626C87.8976 17.9411 87.765 17.3793 87.3516 15.7819C87.3498 15.5918 87.1988 15.6837 87.1077 15.6341C87.1977 15.2277 86.8656 14.9418 86.7238 14.5274C86.3919 13.5027 86.4657 12.2219 86.0606 11.1187C85.9264 10.7257 85.7137 10.4059 85.6946 9.98306C85.6355 9.85859 85.685 9.77165 85.8333 9.75566C85.3691 8.52799 85.1693 7.34744 84.6614 5.79741C83.6812 7.28334 83.7744 9.35097 83.0887 10.9906C83.1421 11.6426 82.7718 12.2208 82.5822 12.818C82.1885 13.9485 81.8639 15.1573 81.5393 16.3662C81.3675 16.9386 81.0807 17.5408 81.2458 18.1376C81.0975 18.1536 81.0694 18.2328 80.9834 18.2805C80.8821 19.3789 80.3628 20.2348 80.2359 21.3407C80.9579 21.2137 81.6342 21.1906 81.9936 21.6632C81.0969 22.0797 80.0297 22.4186 78.8431 22.7955C78.7773 22.7426 78.7081 22.6684 78.6884 22.5073C78.2708 22.7419 78.0832 22.7946 77.6153 23.019C77.5244 22.5937 77.9934 22.4622 78.4332 22.3169C78.2962 21.641 78.0025 21.2213 77.8237 20.6536C77.8218 20.4636 77.9726 20.3759 77.9784 20.2073C77.882 19.2118 77.2618 17.9787 77.4419 17.166C77.2561 16.311 76.9446 15.1857 76.7082 13.9659C76.6021 13.4936 76.621 12.823 76.2532 12.595C76.1789 12.4235 76.3451 12.3786 76.2673 12.186C76.165 12.0938 76.1305 11.8688 75.9745 11.8634C75.8243 11.6894 76.1723 11.7605 76.0475 11.5831C75.4442 10.2282 75.4161 9.20978 74.6995 8.07892C74.6067 8.19814 74.7134 8.4087 74.5259 8.46132C74.1958 8.36125 73.8512 8.31556 73.7058 7.87992C75.366 7.84866 77.2962 6.60244 78.4755 6.56299C78.5653 6.89539 78.395 7.1808 78.1264 7.13352C78.3704 7.28127 78.6077 7.50056 78.3752 7.75427C78.1031 7.68576 77.6774 7.42196 77.3621 7.7488C77.3181 8.04702 77.6512 7.69125 77.6743 7.8778C78.115 8.56428 78.6462 9.56208 78.6189 10.473C78.4869 10.6289 78.5174 10.478 78.3912 10.4652C78.5023 12.5039 78.8315 14.339 79.3895 16.638C79.6352 17.7104 79.5808 18.7977 79.9372 19.7219C80.1969 19.2918 80.3115 18.785 80.4765 18.2883C81.1406 16.2975 81.6382 13.9928 82.1598 11.8493C82.7469 10.4975 83.2138 9.08251 83.4118 7.50622C83.8687 6.50036 84.1687 5.3962 84.298 4.21859C84.5316 4.0578 84.9941 3.62206 85.2358 3.95971C85.2641 4.23932 85.0887 4.42746 84.9968 4.64381L85.0014 4.63131ZM76.8066 7.82247L76.5252 7.9014C76.4811 8.19962 76.697 8.42661 76.9145 8.48479C76.8256 8.24952 76.7871 8.02022 76.8066 7.82247ZM77.5429 13.8765C77.5066 14.1961 77.4687 14.8027 77.7326 15.1074C77.8892 14.851 77.8629 14.0227 77.5429 13.8765ZM78.2057 20.4726C78.2826 20.5682 78.2385 20.8664 78.3791 20.829C78.4149 20.7712 78.4469 20.3332 78.2057 20.4726ZM80.6267 21.6371C80.2168 21.8931 79.4546 21.9596 79.3023 22.3343C79.7702 22.1099 80.3329 21.952 80.6267 21.6371Z" fill="#F7F8C5"/>
<path d="M99.7108 18.6698C98.8008 19.2251 97.7437 19.1506 96.9024 19.5521C96.2312 19.4276 95.7727 19.8677 95.2064 19.8861C95.1341 19.9005 94.9902 19.79 94.9179 19.8043C94.6076 19.8654 94.319 20.1552 94.0337 19.9806C94.1674 19.5335 95.0408 19.5469 95.4272 19.2394C95.1901 17.7916 94.7842 15.9791 94.4825 14.4488C94.3496 13.773 93.9965 13.1191 93.9682 12.4722C93.95 12.2647 94.0476 12.1287 94.0591 11.9181C94.1469 10.4773 93.3542 9.22979 93.2756 7.96057C93.2865 7.88917 93.3696 7.68518 93.3515 7.5959C93.2796 7.23457 93.0163 6.91306 92.923 6.55943C92.8041 6.09093 92.8517 5.56909 92.5704 5.1583C92.108 5.34496 91.7222 5.51315 91.3072 5.54947C91.3113 5.4314 91.239 5.44579 91.1956 5.35985C91.1347 5.04534 91.5565 5.0557 91.6399 5.08392C93.3475 3.9271 95.6531 4.03213 97.8114 4.00542C98.0566 4.23765 98.2659 4.29133 98.4971 4.198C99.095 5.83136 99.3708 7.62246 98.9442 8.97132C98.128 9.6228 97.6258 10.4709 96.9832 11.2297C97.2434 11.1542 97.7952 11.0678 98.0915 10.7994C98.3264 10.8455 98.5712 10.8455 98.705 11.0064C98.8961 10.8525 99.0627 10.795 99.391 10.8232C99.4339 11.0484 99.6363 11.0554 99.6792 11.2807C100.776 11.6732 101.598 12.5629 102.095 13.817C102.232 14.1384 102.156 14.6254 102.524 14.8535C102.4 15.8582 102.781 17.1632 102.34 17.9501C101.774 17.9685 101.716 18.3085 101.373 18.4697C101.008 18.5162 101.055 18.3701 100.694 18.556C100.655 18.4702 100.698 18.4379 100.737 18.4055C100.528 18.2378 100.102 18.717 99.8563 18.9787C99.546 19.0398 99.8237 18.8214 99.7231 18.6786L99.7108 18.6698ZM94.6026 4.62485C94.4295 4.86795 93.9494 4.5896 93.7976 4.82922C93.9421 4.80044 94.0247 4.85395 94.0283 4.9934C94.214 7.31753 95.0673 9.74496 95.3973 11.9221C96.1553 11.6106 96.3327 10.8737 97.0115 10.4117C97.0044 10.251 96.8599 10.2798 96.8749 10.0903C97.3228 9.34588 97.6593 8.64827 97.9448 7.96156C97.4878 6.64969 97.435 5.0014 96.4431 4.26209C95.8478 4.26261 95.2738 4.25966 94.563 4.42506L94.6024 4.62907L94.6026 4.62485ZM94.705 11.9193C94.8383 12.3376 94.8121 12.9742 95.043 13.2566C95.0033 12.9386 95.0335 12.0657 94.705 11.9193ZM95.0102 13.4708C94.9993 13.5421 95.0747 13.9247 95.1289 13.7028C95.1108 13.6135 95.0354 13.231 95.0102 13.4708ZM95.1756 14.3039C95.0746 14.4186 95.1642 14.6328 95.3233 14.6721C95.2551 14.5684 95.3202 14.2752 95.1756 14.3039ZM96.9253 18.8901C97.3586 18.6898 97.3797 19.0578 97.7155 18.9892C98.0046 18.9316 97.8672 18.6314 98.1307 18.5814C98.7693 18.5486 99.3397 18.4121 99.6829 18.1326C99.9394 17.9178 99.9575 17.5173 100.138 17.1774C100.301 16.8664 100.593 16.5978 100.608 16.4084C100.389 15.3074 100.158 14.3918 99.9786 13.6087C100.155 13.5051 100.328 13.7517 100.253 13.4831C99.7779 12.4535 98.9954 11.8861 98.1799 11.2964C96.9819 11.5125 96.2306 12.2422 95.3247 12.1898C95.7307 14.6102 96.2915 16.4618 96.9212 18.8857L96.9253 18.8901ZM97.6664 4.41414C97.7133 4.5213 97.6804 4.7397 97.8573 4.63182C97.8536 4.49238 97.7855 4.3887 97.6664 4.41414ZM97.9799 9.14485C98.0882 9.30902 97.6334 9.39883 97.9005 9.48828C97.8756 9.35233 98.2979 9.10518 97.9799 9.14485ZM97.9985 8.60511C97.9732 8.72667 97.89 8.81245 97.8681 8.95945C98.0663 8.9663 98.1534 8.64424 97.9985 8.60511ZM98.5165 6.44462C98.5133 6.53738 98.5883 6.68774 98.5847 6.5483C98.5956 6.4769 98.5129 6.30518 98.5165 6.44462ZM100.052 17.8499L100.091 18.0539C100.3 18.1075 100.225 17.725 100.052 17.8499ZM100.63 16.8693C100.363 17.0163 99.9903 17.7886 100.366 17.6707C100.258 17.5066 100.637 17.1482 100.63 16.8693ZM100.524 13.826C100.618 14.0404 100.43 14.3589 100.654 14.4764C100.582 14.2333 100.852 13.8543 100.524 13.826ZM100.772 14.7127C100.765 14.9235 100.678 15.3638 100.851 15.4922C100.887 15.2993 101.003 14.8769 100.772 14.7127ZM101.385 15.6669C101.414 15.9423 101.027 16.2498 101.272 16.482C101.244 16.2066 101.684 15.9348 101.385 15.6669ZM101.403 15.3847C101.4 15.4774 101.501 15.6244 101.5 15.5062C101.504 15.4135 101.403 15.2665 101.403 15.3847ZM101.597 16.7465C101.503 16.9037 101.474 17.1222 101.438 17.3152C101.568 17.2184 101.741 16.836 101.597 16.7465ZM101.838 16.8393C101.86 16.9498 101.795 16.9898 101.817 17.1003C102.03 17.1752 101.954 16.7927 101.838 16.8393Z" fill="#F7F8C5"/>
</svg>
