<svg width="82" height="74" viewBox="0 0 82 74" fill="none" xmlns="http://www.w3.org/2000/svg">
<path d="M22.0678 47.0478C22.2349 47.0138 22.2617 47.4354 22.4369 47.362C22.4595 48.3769 23.0156 49.5528 23.3326 50.647C22.8783 50.7219 22.8983 50.8678 22.7465 50.9826C22.3801 51.1626 22.2849 50.3429 22.1052 50.1959C21.4626 49.9438 21.0736 48.734 20.34 48.8104C19.8603 49.1178 19.7667 49.3269 19.2647 49.4331C19.0384 49.5324 19.3922 49.7658 19.279 49.8932C19.0853 50.0998 18.9916 49.9341 18.9053 49.7334C18.7523 50.0079 19.0877 50.3746 18.8997 50.6419C18.6734 50.7412 18.5926 50.3816 18.4509 50.1831C17.616 50.1974 17.0102 50.826 15.9417 51.3494C15.5891 51.5506 15.1945 51.6242 14.8675 51.8123C14.5616 51.9866 14.3269 52.2808 13.9999 52.4689C13.4873 52.8243 12.8648 53.0929 12.3384 53.4271C11.3972 54.0639 10.592 54.8385 9.72294 55.2159C9.59006 55.2615 9.40872 55.2102 9.42989 55.1963C9.3109 55.263 9.2514 55.4838 9.04337 55.6053C8.44334 55.9196 7.3224 56.4094 7.10311 57.0039C6.81726 57.6988 6.87363 58.6613 7.05358 59.4026C7.05355 59.7774 6.80147 60.0451 6.96889 60.4501C6.54718 59.8827 6.21033 58.862 5.70797 58.1544C5.60045 57.9676 5.381 57.9678 5.32019 57.754C5.16004 57.314 5.49984 56.9319 5.25064 56.5465C5.89742 55.8304 6.87247 55.7355 7.6792 55.24C8.76622 54.5833 8.8326 53.8885 8.88337 52.674C8.896 51.8858 8.84645 51.199 8.57921 50.6361C8.54661 50.5288 8.65394 50.4962 8.75175 50.4434C8.51557 49.7087 8.3949 48.902 8.17855 48.0937C8.17151 47.9734 8.03863 48.019 8.02432 47.9338C8.01042 47.9126 8.12349 47.5658 8.0909 47.4585C8.0583 47.3511 7.90407 47.1912 7.86287 47.0592C7.79635 46.7848 7.74126 46.6317 7.57293 46.2311C7.19774 45.4173 7.07596 44.3956 6.78031 43.5069C6.53841 42.7116 6.24386 42.038 5.68886 41.452C6.15601 41.1832 5.66642 40.6566 5.50627 40.2165C5.43287 40.4161 5.66775 40.7163 5.44807 40.8718C5.07882 39.9633 5.22435 38.7547 4.34807 38.0427C4.44131 37.7695 4.53364 37.5006 4.57444 37.1937C5.05439 36.731 6.08895 36.4153 6.40871 35.8874C6.76237 35.9013 7.92432 35.324 8.21036 34.8485C8.49747 34.9629 8.64469 34.6278 9.0777 34.3473C9.29829 34.1874 9.59861 34.172 9.77249 34.0389C9.97919 33.8578 9.91951 33.4843 10.4393 33.4686C10.6799 33.4546 10.7806 33.7406 11.0759 33.8155C11.1098 33.9826 11.1962 34.1833 11.2045 34.3633C11.6333 34.6762 11.9067 35.3638 12.3101 36.2839C12.3769 36.4029 12.3299 36.5852 12.3711 36.7171C12.5381 37.0581 12.8197 37.3313 12.8992 37.6312C13.5773 39.6734 15.4994 43.0571 16.8396 45.0583C17.134 45.5125 17.321 45.9993 17.6097 46.3928C18.0794 46.9931 18.8001 47.4854 19.0889 48.4733C19.9765 48.3374 21.3306 47.2743 22.0653 47.0381L22.0678 47.0478ZM5.53375 37.4612C5.37507 38.05 5.75714 38.3898 6.02348 38.957C6.23034 39.3702 6.12545 39.6775 6.1933 40.0116C6.32216 40.7788 6.74387 41.3463 7.08491 42.1484C7.42728 43.0102 7.4825 44.1325 7.87773 45.0921C8.17361 45.8254 8.45978 46.319 8.72969 47.0013C9.10027 47.9695 9.34103 48.9245 9.53663 49.8108C9.71791 50.6117 9.7322 51.0718 9.70772 51.6747C9.6764 52.3767 9.73033 53.0645 9.62317 53.6913C9.55681 54.0113 9.96998 53.8044 9.88359 53.9785C9.69673 54.086 9.39683 54.1655 9.49708 54.3874C12.7337 52.6451 13.8007 51.8425 16.9553 49.9003C15.7493 47.9132 15.4859 45.9432 14.1275 44.5141C14.0795 43.7317 13.0559 42.7605 12.8071 42.0644C12.626 41.8577 13.0125 41.8236 12.8058 41.6299C11.5264 39.0927 10.5013 37.0927 9.28005 35.0247C8.75228 35.2992 8.41842 35.5865 8.31925 35.9545C7.27784 36.3693 6.4991 37.1266 5.53814 37.4621L5.53375 37.4612ZM9.0586 50.9915C9.27251 51.525 8.93424 52.1862 9.24843 52.5668C9.16055 52.0869 9.52839 51.217 9.0586 50.9915ZM12.8282 40.7066C12.9344 40.8337 12.9767 41.1808 13.1483 40.9924C13.0759 40.8128 12.9813 40.6515 12.8282 40.7066Z" fill="#F7F8C5"/>
<path d="M17.315 30.3647C17.5335 30.2592 17.5603 30.0636 17.8164 29.975C18.2489 30.0053 18.6301 29.7324 19.0056 29.6411C19.8794 29.4612 20.7558 29.6659 21.4778 29.2259C21.7006 29.6287 21.9273 28.9763 22.163 29.4046C22.8924 29.1719 23.1908 29.2978 24.0201 29.7075C24.4652 29.9415 24.7996 30.2029 25.2633 30.5459C25.7785 30.927 26.5778 31.591 26.8888 32.6703C27.144 33.4455 26.8213 34.142 26.9657 34.9444C26.656 35.6664 26.6658 36.5004 26.2458 37.1813C26.2198 37.3725 26.2185 37.555 26.2856 37.7609C26.0641 37.9252 26.01 37.7449 25.92 37.9365C25.493 38.9816 24.925 39.9792 24.0936 40.8581C25.0257 42.3588 25.7247 43.5505 26.4752 45.2878C26.9736 45.1992 27.3703 45.3363 27.6514 45.9203C26.7892 46.3083 25.7739 47.1263 24.843 47.1846C24.689 46.8692 24.7777 46.6179 24.7691 46.351C23.9412 45.0091 23.5164 43.5085 22.7257 42.1194C22.6072 41.8754 22.3706 41.6938 22.2391 41.4243C22.0864 41.1686 22.0509 40.855 21.9108 40.5608C21.544 39.927 21.0331 39.3045 20.6451 38.6847C20.2312 38.0137 19.8544 37.2956 19.4504 36.709L17.6735 34.1463C17.308 33.5722 17.1354 32.9056 16.7219 32.2987C16.5337 31.9717 17.026 32.243 16.885 31.9532C16.8309 31.5305 16.4906 31.8714 16.394 31.4994C16.3983 31.0157 16.914 30.7113 16.7012 30.1506C16.9551 30.1164 17.1995 30.0619 17.315 30.3647ZM25.2703 37.8292C25.6004 37.5822 25.423 37.3352 25.4858 37.0328C25.5758 36.5989 25.6515 36.322 25.6813 35.8254C25.71 34.7617 25.2108 34.1051 24.7168 32.9604C24.6467 32.8133 24.7112 32.6347 24.6614 32.4781C24.5459 32.1753 24.2976 31.7855 24.1774 31.66C23.4879 30.973 22.4917 30.4647 21.7939 30.0823C21.6126 30.1407 21.4812 30.1134 21.2713 30.2436C20.1523 29.975 18.5845 30.4589 17.6298 30.654C17.6528 30.7639 17.4927 30.8084 17.4685 30.8811C17.5853 31.2436 18.0395 30.5744 18.1679 30.9028C18.4162 31.2925 18.472 31.5966 18.9799 31.5283C19.6962 33.0116 20.7966 33.9209 21.0648 35.4713C21.5059 35.7685 21.7399 36.3153 21.7469 36.7007C21.6396 36.6008 21.6201 36.2539 21.473 36.324C21.4916 36.6752 21.8641 36.885 22.0522 37.212C22.336 37.6732 22.5233 38.2468 22.7901 38.7456C23.1569 39.3793 23.6193 39.9049 23.9489 40.5858C24.5013 39.9279 24.8527 39.1596 25.3324 38.4775C25.1668 38.1963 25.444 38.0938 25.2581 37.8221L25.2703 37.8292ZM18.2877 34.1823C18.5234 34.6106 18.7471 35.0089 18.9971 35.2802C18.966 34.9675 18.6117 34.2952 18.2877 34.1823ZM20.2577 34.1611C20.4688 34.598 20.6803 35.099 20.9801 35.2846C20.7201 34.929 20.6305 34.1928 20.2577 34.1611ZM24.5763 31.2353C24.8743 31.5394 25.1356 31.9547 25.534 31.9734C25.2485 31.6307 24.9989 31.1813 24.5763 31.2353ZM25.8636 32.6543L25.9692 32.8727C26.2105 32.8771 26.0133 32.4613 25.8636 32.6543ZM24.3016 43.5799C24.3941 43.7728 24.453 44.0182 24.6598 43.9468C24.5542 43.7283 24.4586 43.5942 24.3016 43.5799ZM26.3 35.3549C26.393 35.6119 26.0603 35.9817 26.3385 36.1171C26.1728 35.8359 26.6711 35.505 26.3 35.3549Z" fill="#F7F8C5"/>
<path d="M41.8415 34.4054C42.0674 35.1014 42.808 35.7624 43.4653 36.1638C43.6062 36.7187 44.2632 37.0333 44.6116 37.5352C44.8949 37.4477 45.0847 37.5465 45.3879 37.3625C45.2844 38.1044 44.0032 38.0444 43.5922 38.6814C43.6581 38.9145 43.8208 38.8797 43.8742 39.1513C43.8009 39.3281 43.5191 39.2102 43.3678 39.124C43.1264 39.2522 43.4656 39.5785 43.0859 39.6461C42.7609 39.4278 42.8932 38.9661 43.1463 38.8038C42.1312 37.615 41.1832 36.3671 40.1235 35.2833C39.5772 35.4489 39.2493 35.6414 38.8351 35.9852C38.169 35.847 37.5325 36.227 36.9761 36.5733C35.8707 37.2308 34.4328 37.3532 33.514 37.8163C33.3345 39.2327 33.5086 40.7955 33.4887 42.2359C34.0938 42.0734 34.6577 42.0212 35.2828 41.7623C35.3105 42.6869 33.7414 42.6266 33.2186 43.4278C33.1382 43.3746 33.0458 43.2914 33.0014 43.1085C32.8734 43.2191 32.5501 43.4994 32.4219 43.258C32.3097 42.9833 32.6678 42.8656 32.9339 42.7288C33.1163 41.8935 32.9118 40.8958 33.3086 40.1507C33.0525 39.3799 33.2165 38.7876 33.2046 38.1178C33.2014 37.8246 32.7715 37.9137 32.9473 37.6393C32.8511 37.3314 33.133 37.4493 33.2148 37.2971C33.2087 36.4227 33.3107 35.5342 33.3037 34.6643C33.249 32.6142 33.1261 30.3854 33.2595 28.2875C33.337 26.7676 33.3508 25.4449 32.8749 23.8605C32.8963 23.5587 33.1664 23.3587 33.2972 23.1025C33.5705 23.1957 34.088 22.7499 34.3569 22.8422C34.761 23.406 34.9005 24.1664 35.2428 24.7859C35.5938 25.4301 35.9734 26.3545 36.4177 27.0775C36.9942 27.9787 37.7982 28.7305 38.4612 29.5674C38.9803 30.2602 39.508 30.9776 40.0474 31.6609C40.9273 32.7302 41.599 33.9437 42.5198 35.0581C42.0008 34.7173 41.6815 33.9425 41.0988 33.7988C41.1059 34.0289 41.5778 34.3324 41.8424 34.401L41.8415 34.4054ZM33.7091 23.6953C33.8645 24.0703 34.1493 24.1294 34.4225 24.2226C34.2226 23.9526 34.0586 23.5529 33.7091 23.6953ZM33.4531 31.1892C33.4634 31.7124 33.5827 32.2171 33.5801 32.7148C33.5743 34.2633 33.5993 35.6855 33.5634 37.1591C34.3428 36.9276 35.8193 36.1779 37.1432 35.9223C37.3676 35.8317 37.2524 35.6158 37.5828 35.5655C38.1218 35.8098 39.15 35.0403 39.7711 34.8445C38.9473 33.5492 37.7363 32.3792 36.9555 30.8322C36.7151 30.3161 36.5903 29.7279 36.2911 29.2088C36.1845 29.0175 36.0107 28.8855 35.9288 28.6857C35.8222 28.4944 35.8483 28.2804 35.7416 28.0892C35.5531 27.6981 35.1335 27.3185 34.8399 26.8828C34.4258 26.2346 34.0098 25.353 33.5512 25.1619C33.5428 26.2161 33.6478 27.2526 33.5851 28.3047C33.5721 29.2711 33.4245 30.269 33.4531 31.1892ZM40.3753 34.6864C39.1661 33.0231 38.526 31.679 37.2486 30.477C38.0454 31.9908 39.045 33.0118 39.8833 34.1273C40.0487 34.3216 40.0242 34.6822 40.3753 34.6864ZM40.0977 33.2255C40.1656 33.3173 40.1453 33.7016 40.42 33.5895C39.9471 32.9383 39.5643 32.0727 39.0191 31.5939L39.2132 32.0684C39.5268 32.4077 39.8374 32.8058 40.0977 33.2255ZM39.9953 32.3312C40.1607 32.5255 40.2326 32.9061 40.4626 32.8989C40.3218 32.696 40.2669 32.2778 39.9953 32.3312ZM41.9286 36.4759C41.8886 36.6688 42.169 36.992 42.3328 37.0397C42.4091 36.8041 42.1586 36.4688 41.9286 36.4759Z" fill="#F7F8C5"/>
<path d="M46.8848 18.3407C47.5842 21.0958 49.3524 22.29 50.7747 23.7414L51.3621 24.3478C51.7838 24.7827 52.275 25.0811 52.6847 25.4861C53.0902 25.8673 53.3438 26.4959 53.9495 26.6169C54.1491 27.0652 54.595 27.3176 54.5727 27.8661C54.9209 27.5315 54.6849 27.1488 54.7077 26.7742C54.8051 25.5556 55.0211 24.1833 55.1846 22.9099C55.2808 22.2259 55.3473 21.6408 55.352 20.8464C55.3301 20.5996 55.2349 20.2873 55.2453 20.0609C55.2842 19.653 55.5301 19.2606 55.5111 18.8453C55.4987 18.0016 54.969 17.3158 54.9242 16.4517C55.2199 16.2159 55.478 15.9632 55.5332 15.6089C56.1473 15.6677 56.0746 15.2686 56.395 15.0243C56.6824 15.8427 58.4956 14.4177 59.0669 15.0573C58.3763 15.3895 56.953 15.4417 56.6679 16.1551C56.8283 17.9162 57.7745 19.6575 58.1105 21.1671C58.1313 21.3314 58.1906 21.5083 58.0965 21.6534C58.357 21.9405 58.3368 22.0597 58.5364 22.508C58.4495 22.5082 58.4373 22.3686 58.3344 22.4021C58.5874 22.7471 58.5025 23.2003 58.6882 23.2526C58.693 23.4501 58.9255 23.8275 58.8374 24.2526C59.4656 24.904 59.2725 25.9016 59.5738 26.8509C59.925 27.9568 60.7108 28.9289 60.4271 29.8117L61.028 31.7191C61.136 31.97 61.5335 31.6182 61.6948 31.766C61.8693 32.049 61.5851 32.1409 61.5738 32.3717C61.6728 32.5111 62.1003 32.1472 62.1012 32.5176C61.5512 32.8332 60.9057 33.1245 60.2857 33.4027C60.1579 33.3579 60.1285 33.169 60.0701 32.9878C59.5812 33.2292 58.8221 33.6934 58.4211 33.4228C58.522 32.9364 59.4089 32.5169 59.8544 32.5728C59.9022 32.2764 59.7608 31.9225 59.7097 31.5737C59.7047 31.2892 59.3599 31.6291 59.3099 31.3856C59.0474 30.6455 58.8795 29.9341 58.6333 29.2477C58.2661 28.175 57.7025 27.1896 57.3559 26.1943C56.7671 24.4266 56.6236 22.6278 55.858 20.9194C55.6185 24.3666 54.5385 27.8544 56.0085 31.6106C55.964 31.8253 55.8495 32.0027 55.7596 32.1715C55.9008 32.4385 56.2556 32.6675 56.0189 32.9932C55.5324 32.8923 55.3577 32.5224 54.8238 32.8047C54.7025 32.3316 54.5271 32.6701 54.2456 32.5066C54.0264 32.3514 54.2276 32.0868 54.2142 31.8647C53.7954 31.2613 53.1763 30.918 52.6845 30.336C52.3659 29.9546 52.1942 29.4161 51.9376 28.9561C51.7137 28.6033 51.3503 28.3497 51.151 27.9884C50.8688 27.5413 50.739 27.0436 50.4534 26.5912C50.0968 25.9961 49.6706 25.4506 49.2603 24.8719C48.8748 24.2845 48.5256 23.6315 48.1412 23.1267C47.491 22.2285 46.4973 21.8624 45.8848 21.0908C45.8916 21.7413 46.1914 22.4115 46.359 23.0359C47.3864 27.1848 47.7392 31.5228 49.0751 35.7494C49.2744 36.1107 49.8448 35.7627 49.9703 36.2596C49.6861 36.3515 49.5013 36.2949 49.3112 36.2417C49.0053 36.7908 48.4851 36.5001 47.9063 36.9103C47.7245 36.6852 47.3952 36.818 47.3439 36.3823C47.5195 36.1307 47.9066 36.0053 48.2727 36.0035C48.0695 34.8231 47.9154 33.5387 47.5968 32.1652C47.3658 31.0751 46.9651 29.8995 46.7343 28.8963C46.3562 27.2591 46.1723 25.589 45.7363 23.9444C45.3965 22.6077 45.0415 21.2999 44.8166 19.9596C44.5046 20.1417 44.2109 19.8385 43.9057 19.6792C43.7108 19.4286 43.8989 19.0287 43.6755 18.9595C44.467 19.1328 45.8487 18.752 46.8796 18.3441L46.8848 18.3407ZM46.3367 24.5763L46.1993 24.1364C46.2136 23.7371 45.8941 22.9852 45.888 22.6182C45.799 22.1655 45.4671 21.5618 45.7135 22.3352L45.8595 22.7997C45.8556 22.9726 45.9241 23.4577 46.0495 23.8448C46.1124 24.1367 46.3179 24.865 46.3367 24.5763ZM46.5353 25.646C46.6068 25.9626 46.5872 26.2556 46.7575 26.6246C46.7356 26.3778 46.729 25.8142 46.5353 25.646ZM48.2459 22.3576C48.45 22.9165 48.7855 23.2603 49.1779 23.5063C48.8958 23.0592 48.6018 22.6691 48.2459 22.3576ZM49.1061 24.0948C49.2633 24.3285 49.3434 24.6697 49.6032 24.6733C49.5231 24.3321 49.3294 24.1639 49.1061 24.0948ZM50.7087 26.1093C51.1655 26.9263 51.7282 27.5413 52.274 28.1939C51.8095 27.3479 51.3239 26.6255 50.7087 26.1093ZM50.9891 25.1984C51.0968 25.3624 51.1264 25.6383 51.3613 25.5636C51.2536 25.3995 51.1545 25.2601 50.9891 25.1984ZM51.3207 25.7152C51.6396 26.1835 51.7997 26.8659 52.2328 27.07C52.0362 26.4532 51.6393 26.0966 51.3207 25.7152ZM52.0794 28.6472C52.4229 29.107 52.64 29.8011 53.0817 30.0299C52.7833 29.5291 52.4473 29.0115 52.0794 28.6472ZM52.6007 27.4342C52.838 28.0092 53.067 28.6463 53.529 28.8427C53.2306 28.342 52.9643 27.7748 52.6007 27.4342ZM53.2226 30.2099C53.2647 30.3375 53.3389 30.3986 53.4495 30.3941C53.4074 30.2666 53.3172 30.2387 53.2226 30.2099ZM53.5754 28.994C53.7136 29.4295 53.9206 29.8199 54.2546 29.8846C54.0393 29.5565 53.872 29.1287 53.5754 28.994ZM57.0656 23.1857C57.0158 23.0291 57.0473 22.6791 56.7993 22.6185C57.2715 24.1107 57.3607 25.6422 58.1523 26.8943C57.8774 25.3106 57.4538 24.5096 57.0656 23.1857ZM58.6136 26.83C58.0688 25.5559 58.1543 24.3943 57.4622 23.4554C57.8831 24.5118 58.0602 25.5313 58.2236 26.132C58.2992 26.3625 58.2883 26.79 58.6136 26.83ZM58.2602 24.1923C58.3566 24.5871 58.3921 25.143 58.6989 25.5815C58.7057 25.2401 58.4753 24.4335 58.2602 24.1923ZM59.1625 27.049C59.2503 27.4192 59.3208 28.3572 59.7044 28.4916C59.5048 28.0434 59.4475 27.3275 59.1625 27.049ZM59.6931 28.7224C59.801 28.9733 59.7981 29.1418 59.8028 29.3394C60.0873 29.3344 59.8123 28.7425 59.6931 28.7224Z" fill="#F7F8C5"/>
<path d="M75.3453 24.5998C75.456 25.3221 76.0729 26.0946 76.6583 26.6C76.7043 27.1718 77.2982 27.5921 77.5638 28.1408C77.8599 28.1017 78.0258 28.2275 78.3585 28.1C78.1322 28.8164 76.8806 28.5477 76.3719 29.105C76.3991 29.3484 76.5616 29.3363 76.5728 29.6129C76.4707 29.7746 76.2121 29.6112 76.0785 29.5058C75.8224 29.5944 76.1006 29.9721 75.7161 29.9747C75.4336 29.7058 75.6377 29.2727 75.9186 29.1527C75.1135 27.8109 74.386 26.4258 73.5197 25.1811C72.9556 25.2561 72.5982 25.3922 72.1311 25.661C71.4955 25.4195 70.8054 25.6832 70.2006 25.9326C69.0025 26.3972 67.5637 26.2817 66.581 26.5898C66.1693 27.958 66.0861 29.527 65.8241 30.9446C66.4487 30.8867 67.0119 30.9258 67.6696 30.7742C67.5437 31.6898 66.0045 31.3751 65.3614 32.0737C65.2925 32.0091 65.2115 31.9146 65.1962 31.724C65.0499 31.8125 64.684 32.0337 64.5998 31.7786C64.5316 31.4902 64.9095 31.4314 65.1937 31.3395C65.5136 30.5465 65.4778 29.5288 65.9864 28.8618C65.8604 28.0586 66.1225 27.5004 66.2229 26.8401C66.2688 26.5525 65.8306 26.5713 66.051 26.3245C66.0032 26.0037 66.2619 26.1671 66.3726 26.03C66.5104 25.1672 66.757 24.3087 66.8948 23.4459C67.184 21.4123 67.4289 19.1958 67.9034 17.1504C68.23 15.6639 68.4631 14.3637 68.2553 12.7207C68.3249 12.4289 68.6262 12.2766 68.7929 12.046C69.0483 12.1813 69.6293 11.8264 69.8837 11.966C70.1936 12.5879 70.2021 13.3622 70.4344 14.0275C70.6744 14.7218 70.8974 15.696 71.214 16.4839C71.631 17.4709 72.3007 18.3412 72.8199 19.2763C73.2182 20.0446 73.6199 20.841 74.0419 21.605C74.7295 22.8081 75.1942 24.1159 75.9183 25.3631C75.4623 24.9394 75.2749 24.1235 74.7244 23.8905C74.6956 24.1176 75.1108 24.4963 75.3575 24.6069L75.3453 24.5998ZM67.6055 20.0415C67.5307 20.5563 67.5647 21.0753 67.4814 21.5654C67.2195 23.0927 67.0102 24.4984 66.7331 25.9448C67.5405 25.8426 69.1197 25.3473 70.47 25.3165C70.7057 25.2603 70.6248 25.0332 70.9618 25.0391C71.4511 25.3691 72.5929 24.7786 73.2379 24.6884C72.6405 23.2708 71.6406 21.9207 71.1248 20.2641C70.9733 19.7161 70.9478 19.112 70.7349 18.5513C70.6635 18.3445 70.5137 18.1854 70.466 17.9744C70.3937 17.772 70.4558 17.5609 70.3791 17.3576C70.2548 16.9432 69.9042 16.4957 69.6882 16.0166C69.3868 15.3096 69.1196 14.3719 68.6993 14.1065C68.5207 15.1437 68.451 16.1851 68.2111 17.2096C68.041 18.1617 67.7323 19.1216 67.6073 20.0328L67.6055 20.0415ZM69.0973 12.6943C69.1893 13.0882 69.4598 13.1946 69.7108 13.3289C69.5575 13.032 69.4622 12.6099 69.0973 12.6943ZM73.8571 24.634C72.9406 22.7937 72.5338 21.3608 71.4692 19.9698C72.0055 21.5941 72.8232 22.7647 73.4666 24.0044C73.5993 24.2239 73.5126 24.5762 73.8615 24.6349L73.8571 24.634ZM73.8229 23.1458C73.8758 23.2436 73.7923 23.624 74.0807 23.5558C73.7233 22.8326 73.4875 21.9197 73.028 21.3582L73.1439 21.8576C73.3975 22.2439 73.6392 22.6872 73.8229 23.1458ZM73.8671 22.2499C73.9998 22.4694 74.0067 22.8548 74.233 22.888C74.1283 22.6652 74.1427 22.243 73.8671 22.2499ZM75.0884 26.6538C75.0186 26.8359 75.2399 27.2017 75.3982 27.2757C75.5131 27.0527 75.3199 26.6835 75.0884 26.6538Z" fill="#F7F8C5"/>
</svg>
